%TF.GenerationSoftware,KiCad,Pcbnew,8.0.4*%
%TF.CreationDate,2024-09-16T11:47:42-03:00*%
%TF.ProjectId,Mini-C3,4d696e69-2d43-4332-9e6b-696361645f70,rev?*%
%TF.SameCoordinates,Original*%
%TF.FileFunction,Soldermask,Bot*%
%TF.FilePolarity,Negative*%
%FSLAX46Y46*%
G04 Gerber Fmt 4.6, Leading zero omitted, Abs format (unit mm)*
G04 Created by KiCad (PCBNEW 8.0.4) date 2024-09-16 11:47:42*
%MOMM*%
%LPD*%
G01*
G04 APERTURE LIST*
G04 Aperture macros list*
%AMRoundRect*
0 Rectangle with rounded corners*
0 $1 Rounding radius*
0 $2 $3 $4 $5 $6 $7 $8 $9 X,Y pos of 4 corners*
0 Add a 4 corners polygon primitive as box body*
4,1,4,$2,$3,$4,$5,$6,$7,$8,$9,$2,$3,0*
0 Add four circle primitives for the rounded corners*
1,1,$1+$1,$2,$3*
1,1,$1+$1,$4,$5*
1,1,$1+$1,$6,$7*
1,1,$1+$1,$8,$9*
0 Add four rect primitives between the rounded corners*
20,1,$1+$1,$2,$3,$4,$5,0*
20,1,$1+$1,$4,$5,$6,$7,0*
20,1,$1+$1,$6,$7,$8,$9,0*
20,1,$1+$1,$8,$9,$2,$3,0*%
%AMFreePoly0*
4,1,19,0.500000,-0.750000,0.000000,-0.750000,0.000000,-0.744911,-0.071157,-0.744911,-0.207708,-0.704816,-0.327430,-0.627875,-0.420627,-0.520320,-0.479746,-0.390866,-0.500000,-0.250000,-0.500000,0.250000,-0.479746,0.390866,-0.420627,0.520320,-0.327430,0.627875,-0.207708,0.704816,-0.071157,0.744911,0.000000,0.744911,0.000000,0.750000,0.500000,0.750000,0.500000,-0.750000,0.500000,-0.750000,
$1*%
%AMFreePoly1*
4,1,19,0.000000,0.744911,0.071157,0.744911,0.207708,0.704816,0.327430,0.627875,0.420627,0.520320,0.479746,0.390866,0.500000,0.250000,0.500000,-0.250000,0.479746,-0.390866,0.420627,-0.520320,0.327430,-0.627875,0.207708,-0.704816,0.071157,-0.744911,0.000000,-0.744911,0.000000,-0.750000,-0.500000,-0.750000,-0.500000,0.750000,0.000000,0.750000,0.000000,0.744911,0.000000,0.744911,
$1*%
%AMFreePoly2*
4,1,6,1.000000,0.000000,0.500000,-0.750000,-0.500000,-0.750000,-0.500000,0.750000,0.500000,0.750000,1.000000,0.000000,1.000000,0.000000,$1*%
G04 Aperture macros list end*
%ADD10C,2.000000*%
%ADD11RoundRect,0.250000X0.750000X0.750000X-0.750000X0.750000X-0.750000X-0.750000X0.750000X-0.750000X0*%
%ADD12C,1.600000*%
%ADD13C,3.800000*%
%ADD14O,2.000000X2.200000*%
%ADD15RoundRect,0.250000X-0.850000X-0.750000X0.850000X-0.750000X0.850000X0.750000X-0.850000X0.750000X0*%
%ADD16O,2.200000X2.000000*%
%ADD17C,2.204000*%
%ADD18C,1.524000*%
%ADD19FreePoly0,270.000000*%
%ADD20FreePoly1,270.000000*%
%ADD21R,1.500000X1.500000*%
%ADD22FreePoly2,0.000000*%
%ADD23FreePoly2,180.000000*%
G04 APERTURE END LIST*
D10*
%TO.C,J4*%
X189350000Y-93585000D03*
X189350000Y-96125000D03*
%TD*%
D11*
%TO.C,J12*%
X168093335Y-82900000D03*
X165553335Y-82900000D03*
X163013335Y-82900000D03*
%TD*%
%TO.C,J6*%
X143663334Y-82900000D03*
X141123334Y-82900000D03*
X138583334Y-82900000D03*
%TD*%
%TO.C,J11*%
X168093335Y-86087500D03*
X165553335Y-86087500D03*
X163013335Y-86087500D03*
%TD*%
%TO.C,J3*%
X159950000Y-86087500D03*
X157410000Y-86087500D03*
X154870000Y-86087500D03*
%TD*%
D12*
%TO.C,C1*%
X180500000Y-98500000D03*
X175500000Y-98500000D03*
%TD*%
D10*
%TO.C,J1*%
X167725000Y-98930000D03*
X167725000Y-101470000D03*
%TD*%
D13*
%TO.C,H1*%
X190100000Y-82100000D03*
%TD*%
D14*
%TO.C,U3*%
X138560000Y-101700000D03*
X147700000Y-101700000D03*
X147700000Y-86460000D03*
X138560000Y-86460000D03*
%TD*%
D11*
%TO.C,J2*%
X159950000Y-82900000D03*
X157410000Y-82900000D03*
X154870000Y-82900000D03*
%TD*%
%TO.C,J7*%
X135520001Y-82900000D03*
X132980001Y-82900000D03*
X130440001Y-82900000D03*
%TD*%
D15*
%TO.C,U1*%
X171250000Y-83410000D03*
D16*
X171250000Y-98650000D03*
D15*
X184650000Y-83410000D03*
D16*
X171250000Y-85950000D03*
X171250000Y-88490000D03*
X171250000Y-91030000D03*
X171250000Y-93570000D03*
X171250000Y-96110000D03*
X184650000Y-85950000D03*
X184650000Y-88490000D03*
X184650000Y-91030000D03*
X184650000Y-98650000D03*
X184650000Y-93570000D03*
X184650000Y-96110000D03*
%TD*%
D13*
%TO.C,H2*%
X190100000Y-100800000D03*
%TD*%
%TO.C,H3*%
X110600000Y-82100000D03*
%TD*%
D11*
%TO.C,J8*%
X127376668Y-82900000D03*
X124836668Y-82900000D03*
X122296668Y-82900000D03*
%TD*%
%TO.C,J9*%
X119233335Y-82900000D03*
X116693335Y-82900000D03*
X114153335Y-82900000D03*
%TD*%
D10*
%TO.C,J5*%
X189350000Y-85885000D03*
X189350000Y-88425000D03*
%TD*%
D17*
%TO.C,U2*%
X129110000Y-86050000D03*
X126570000Y-86050000D03*
X124030000Y-86050000D03*
X121490000Y-86050000D03*
X116410000Y-86050000D03*
X118950000Y-86050000D03*
X111330000Y-101290000D03*
X111330000Y-86050000D03*
X113870000Y-101290000D03*
X116410000Y-101290000D03*
X118950000Y-101290000D03*
X121490000Y-101290000D03*
X124030000Y-101290000D03*
X126570000Y-101290000D03*
X129110000Y-101290000D03*
X113870000Y-86050000D03*
%TD*%
D11*
%TO.C,J10*%
X151806667Y-82900000D03*
X149266667Y-82900000D03*
X146726667Y-82900000D03*
%TD*%
D18*
%TO.C,SW1*%
X135150000Y-100810000D03*
X135150000Y-98270000D03*
X135150000Y-95730000D03*
%TD*%
D19*
%TO.C,JP7*%
X111300000Y-88500000D03*
D20*
X111300000Y-89800000D03*
%TD*%
D21*
%TO.C,JP1*%
X133300000Y-88700000D03*
X135700000Y-88700000D03*
D22*
X132500000Y-88700000D03*
D23*
X136500000Y-88700000D03*
%TD*%
M02*
