%TF.GenerationSoftware,KiCad,Pcbnew,8.0.4*%
%TF.CreationDate,2024-09-17T16:59:45-03:00*%
%TF.ProjectId,Mini-C3,4d696e69-2d43-4332-9e6b-696361645f70,rev?*%
%TF.SameCoordinates,Original*%
%TF.FileFunction,Soldermask,Top*%
%TF.FilePolarity,Negative*%
%FSLAX46Y46*%
G04 Gerber Fmt 4.6, Leading zero omitted, Abs format (unit mm)*
G04 Created by KiCad (PCBNEW 8.0.4) date 2024-09-17 16:59:45*
%MOMM*%
%LPD*%
G01*
G04 APERTURE LIST*
G04 Aperture macros list*
%AMRoundRect*
0 Rectangle with rounded corners*
0 $1 Rounding radius*
0 $2 $3 $4 $5 $6 $7 $8 $9 X,Y pos of 4 corners*
0 Add a 4 corners polygon primitive as box body*
4,1,4,$2,$3,$4,$5,$6,$7,$8,$9,$2,$3,0*
0 Add four circle primitives for the rounded corners*
1,1,$1+$1,$2,$3*
1,1,$1+$1,$4,$5*
1,1,$1+$1,$6,$7*
1,1,$1+$1,$8,$9*
0 Add four rect primitives between the rounded corners*
20,1,$1+$1,$2,$3,$4,$5,0*
20,1,$1+$1,$4,$5,$6,$7,0*
20,1,$1+$1,$6,$7,$8,$9,0*
20,1,$1+$1,$8,$9,$2,$3,0*%
G04 Aperture macros list end*
%ADD10C,2.000000*%
%ADD11RoundRect,0.250000X0.750000X0.750000X-0.750000X0.750000X-0.750000X-0.750000X0.750000X-0.750000X0*%
%ADD12R,1.250000X1.000000*%
%ADD13RoundRect,0.250000X-1.000000X-0.650000X1.000000X-0.650000X1.000000X0.650000X-1.000000X0.650000X0*%
%ADD14C,1.600000*%
%ADD15C,3.800000*%
%ADD16O,2.000000X2.200000*%
%ADD17RoundRect,0.250000X-0.450000X0.262500X-0.450000X-0.262500X0.450000X-0.262500X0.450000X0.262500X0*%
%ADD18RoundRect,0.250000X-0.850000X-0.750000X0.850000X-0.750000X0.850000X0.750000X-0.850000X0.750000X0*%
%ADD19O,2.200000X2.000000*%
%ADD20RoundRect,0.250000X0.450000X-0.262500X0.450000X0.262500X-0.450000X0.262500X-0.450000X-0.262500X0*%
%ADD21RoundRect,0.250000X-0.262500X-0.450000X0.262500X-0.450000X0.262500X0.450000X-0.262500X0.450000X0*%
%ADD22RoundRect,0.243750X-0.243750X-0.456250X0.243750X-0.456250X0.243750X0.456250X-0.243750X0.456250X0*%
%ADD23C,2.204000*%
%ADD24R,1.120000X2.440000*%
%ADD25C,1.524000*%
G04 APERTURE END LIST*
D10*
%TO.C,J4*%
X189350000Y-93585000D03*
X189350000Y-96125000D03*
%TD*%
D11*
%TO.C,J12*%
X168093335Y-82900000D03*
X165553335Y-82900000D03*
X163013335Y-82900000D03*
%TD*%
%TO.C,J6*%
X143663334Y-82900000D03*
X141123334Y-82900000D03*
X138583334Y-82900000D03*
%TD*%
D12*
%TO.C,SW2*%
X168075000Y-93400000D03*
X160325000Y-93400000D03*
%TD*%
D11*
%TO.C,J11*%
X168093335Y-86087500D03*
X165553335Y-86087500D03*
X163013335Y-86087500D03*
%TD*%
%TO.C,J3*%
X159950000Y-86087500D03*
X157410000Y-86087500D03*
X154870000Y-86087500D03*
%TD*%
D13*
%TO.C,D1*%
X151100000Y-101100000D03*
X155100000Y-101100000D03*
%TD*%
D14*
%TO.C,C1*%
X180500000Y-98500000D03*
X175500000Y-98500000D03*
%TD*%
D10*
%TO.C,J1*%
X167725000Y-98930000D03*
X167725000Y-101470000D03*
%TD*%
D15*
%TO.C,H1*%
X190100000Y-82100000D03*
%TD*%
D16*
%TO.C,U3*%
X138560000Y-101700000D03*
X147700000Y-101700000D03*
X147700000Y-86460000D03*
X138560000Y-86460000D03*
%TD*%
D17*
%TO.C,R2*%
X158100000Y-94687500D03*
X158100000Y-96512500D03*
%TD*%
D11*
%TO.C,J2*%
X159950000Y-82900000D03*
X157410000Y-82900000D03*
X154870000Y-82900000D03*
%TD*%
%TO.C,J7*%
X135520001Y-82900000D03*
X132980001Y-82900000D03*
X130440001Y-82900000D03*
%TD*%
D18*
%TO.C,U1*%
X171250000Y-83410000D03*
D19*
X171250000Y-98650000D03*
D18*
X184650000Y-83410000D03*
D19*
X171250000Y-85950000D03*
X171250000Y-88490000D03*
X171250000Y-91030000D03*
X171250000Y-93570000D03*
X171250000Y-96110000D03*
X184650000Y-85950000D03*
X184650000Y-88490000D03*
X184650000Y-91030000D03*
X184650000Y-98650000D03*
X184650000Y-93570000D03*
X184650000Y-96110000D03*
%TD*%
D20*
%TO.C,R1*%
X158100000Y-92712500D03*
X158100000Y-90887500D03*
%TD*%
D15*
%TO.C,H2*%
X190100000Y-100800000D03*
%TD*%
D21*
%TO.C,R13*%
X134266880Y-90750000D03*
X136091880Y-90750000D03*
%TD*%
D15*
%TO.C,H3*%
X110600000Y-82100000D03*
%TD*%
D11*
%TO.C,J8*%
X127376668Y-82900000D03*
X124836668Y-82900000D03*
X122296668Y-82900000D03*
%TD*%
D22*
%TO.C,D2*%
X134261880Y-87985940D03*
X136136880Y-87985940D03*
%TD*%
D11*
%TO.C,J9*%
X119233335Y-82900000D03*
X116693335Y-82900000D03*
X114153335Y-82900000D03*
%TD*%
D10*
%TO.C,J5*%
X189350000Y-85885000D03*
X189350000Y-88425000D03*
%TD*%
D23*
%TO.C,U2*%
X129110000Y-86050000D03*
X126570000Y-86050000D03*
X124030000Y-86050000D03*
X121490000Y-86050000D03*
X116410000Y-86050000D03*
X118950000Y-86050000D03*
X111330000Y-101290000D03*
X111330000Y-86050000D03*
X113870000Y-101290000D03*
X116410000Y-101290000D03*
X118950000Y-101290000D03*
X121490000Y-101290000D03*
X124030000Y-101290000D03*
X126570000Y-101290000D03*
X129110000Y-101290000D03*
X113870000Y-86050000D03*
%TD*%
D11*
%TO.C,J10*%
X151806667Y-82900000D03*
X149266667Y-82900000D03*
X146726667Y-82900000D03*
%TD*%
D24*
%TO.C,SW3*%
X153770000Y-89095000D03*
X151230000Y-89095000D03*
X151230000Y-97705000D03*
X153770000Y-97705000D03*
%TD*%
D25*
%TO.C,SW1*%
X135150000Y-100810000D03*
X135150000Y-98270000D03*
X135150000Y-95730000D03*
%TD*%
M02*
