%TF.GenerationSoftware,KiCad,Pcbnew,8.0.4*%
%TF.CreationDate,2024-09-16T10:23:00-03:00*%
%TF.ProjectId,drivers_panelized,64726976-6572-4735-9f70-616e656c697a,rev?*%
%TF.SameCoordinates,Original*%
%TF.FileFunction,Paste,Top*%
%TF.FilePolarity,Positive*%
%FSLAX46Y46*%
G04 Gerber Fmt 4.6, Leading zero omitted, Abs format (unit mm)*
G04 Created by KiCad (PCBNEW 8.0.4) date 2024-09-16 10:23:00*
%MOMM*%
%LPD*%
G01*
G04 APERTURE LIST*
G04 Aperture macros list*
%AMRoundRect*
0 Rectangle with rounded corners*
0 $1 Rounding radius*
0 $2 $3 $4 $5 $6 $7 $8 $9 X,Y pos of 4 corners*
0 Add a 4 corners polygon primitive as box body*
4,1,4,$2,$3,$4,$5,$6,$7,$8,$9,$2,$3,0*
0 Add four circle primitives for the rounded corners*
1,1,$1+$1,$2,$3*
1,1,$1+$1,$4,$5*
1,1,$1+$1,$6,$7*
1,1,$1+$1,$8,$9*
0 Add four rect primitives between the rounded corners*
20,1,$1+$1,$2,$3,$4,$5,0*
20,1,$1+$1,$4,$5,$6,$7,0*
20,1,$1+$1,$6,$7,$8,$9,0*
20,1,$1+$1,$8,$9,$2,$3,0*%
G04 Aperture macros list end*
%ADD10C,0.010000*%
%ADD11RoundRect,0.040600X-0.944400X-0.249400X0.944400X-0.249400X0.944400X0.249400X-0.944400X0.249400X0*%
%ADD12RoundRect,0.250000X0.475000X-0.250000X0.475000X0.250000X-0.475000X0.250000X-0.475000X-0.250000X0*%
%ADD13R,1.600000X1.600000*%
G04 APERTURE END LIST*
D10*
%TO.C,IC1*%
X174080000Y-73831667D02*
X173360000Y-73831667D01*
X173360000Y-73111667D01*
X174080000Y-73111667D01*
X174080000Y-73831667D01*
G36*
X174080000Y-73831667D02*
G01*
X173360000Y-73831667D01*
X173360000Y-73111667D01*
X174080000Y-73111667D01*
X174080000Y-73831667D01*
G37*
X174080000Y-74831667D02*
X173360000Y-74831667D01*
X173360000Y-74111667D01*
X174080000Y-74111667D01*
X174080000Y-74831667D01*
G36*
X174080000Y-74831667D02*
G01*
X173360000Y-74831667D01*
X173360000Y-74111667D01*
X174080000Y-74111667D01*
X174080000Y-74831667D01*
G37*
X175080000Y-73831667D02*
X174360000Y-73831667D01*
X174360000Y-73111667D01*
X175080000Y-73111667D01*
X175080000Y-73831667D01*
G36*
X175080000Y-73831667D02*
G01*
X174360000Y-73831667D01*
X174360000Y-73111667D01*
X175080000Y-73111667D01*
X175080000Y-73831667D01*
G37*
X175080000Y-74831667D02*
X174360000Y-74831667D01*
X174360000Y-74111667D01*
X175080000Y-74111667D01*
X175080000Y-74831667D01*
G36*
X175080000Y-74831667D02*
G01*
X174360000Y-74831667D01*
X174360000Y-74111667D01*
X175080000Y-74111667D01*
X175080000Y-74831667D01*
G37*
X154780000Y-73831667D02*
X154060000Y-73831667D01*
X154060000Y-73111667D01*
X154780000Y-73111667D01*
X154780000Y-73831667D01*
G36*
X154780000Y-73831667D02*
G01*
X154060000Y-73831667D01*
X154060000Y-73111667D01*
X154780000Y-73111667D01*
X154780000Y-73831667D01*
G37*
X154780000Y-74831667D02*
X154060000Y-74831667D01*
X154060000Y-74111667D01*
X154780000Y-74111667D01*
X154780000Y-74831667D01*
G36*
X154780000Y-74831667D02*
G01*
X154060000Y-74831667D01*
X154060000Y-74111667D01*
X154780000Y-74111667D01*
X154780000Y-74831667D01*
G37*
X155780000Y-73831667D02*
X155060000Y-73831667D01*
X155060000Y-73111667D01*
X155780000Y-73111667D01*
X155780000Y-73831667D01*
G36*
X155780000Y-73831667D02*
G01*
X155060000Y-73831667D01*
X155060000Y-73111667D01*
X155780000Y-73111667D01*
X155780000Y-73831667D01*
G37*
X155780000Y-74831667D02*
X155060000Y-74831667D01*
X155060000Y-74111667D01*
X155780000Y-74111667D01*
X155780000Y-74831667D01*
G36*
X155780000Y-74831667D02*
G01*
X155060000Y-74831667D01*
X155060000Y-74111667D01*
X155780000Y-74111667D01*
X155780000Y-74831667D01*
G37*
X174080000Y-97831667D02*
X173360000Y-97831667D01*
X173360000Y-97111667D01*
X174080000Y-97111667D01*
X174080000Y-97831667D01*
G36*
X174080000Y-97831667D02*
G01*
X173360000Y-97831667D01*
X173360000Y-97111667D01*
X174080000Y-97111667D01*
X174080000Y-97831667D01*
G37*
X174080000Y-98831667D02*
X173360000Y-98831667D01*
X173360000Y-98111667D01*
X174080000Y-98111667D01*
X174080000Y-98831667D01*
G36*
X174080000Y-98831667D02*
G01*
X173360000Y-98831667D01*
X173360000Y-98111667D01*
X174080000Y-98111667D01*
X174080000Y-98831667D01*
G37*
X175080000Y-97831667D02*
X174360000Y-97831667D01*
X174360000Y-97111667D01*
X175080000Y-97111667D01*
X175080000Y-97831667D01*
G36*
X175080000Y-97831667D02*
G01*
X174360000Y-97831667D01*
X174360000Y-97111667D01*
X175080000Y-97111667D01*
X175080000Y-97831667D01*
G37*
X175080000Y-98831667D02*
X174360000Y-98831667D01*
X174360000Y-98111667D01*
X175080000Y-98111667D01*
X175080000Y-98831667D01*
G36*
X175080000Y-98831667D02*
G01*
X174360000Y-98831667D01*
X174360000Y-98111667D01*
X175080000Y-98111667D01*
X175080000Y-98831667D01*
G37*
%TO.C,IC2*%
X174080000Y-114091667D02*
X173360000Y-114091667D01*
X173360000Y-113371667D01*
X174080000Y-113371667D01*
X174080000Y-114091667D01*
G36*
X174080000Y-114091667D02*
G01*
X173360000Y-114091667D01*
X173360000Y-113371667D01*
X174080000Y-113371667D01*
X174080000Y-114091667D01*
G37*
X174080000Y-115091667D02*
X173360000Y-115091667D01*
X173360000Y-114371667D01*
X174080000Y-114371667D01*
X174080000Y-115091667D01*
G36*
X174080000Y-115091667D02*
G01*
X173360000Y-115091667D01*
X173360000Y-114371667D01*
X174080000Y-114371667D01*
X174080000Y-115091667D01*
G37*
X175080000Y-114091667D02*
X174360000Y-114091667D01*
X174360000Y-113371667D01*
X175080000Y-113371667D01*
X175080000Y-114091667D01*
G36*
X175080000Y-114091667D02*
G01*
X174360000Y-114091667D01*
X174360000Y-113371667D01*
X175080000Y-113371667D01*
X175080000Y-114091667D01*
G37*
X175080000Y-115091667D02*
X174360000Y-115091667D01*
X174360000Y-114371667D01*
X175080000Y-114371667D01*
X175080000Y-115091667D01*
G36*
X175080000Y-115091667D02*
G01*
X174360000Y-115091667D01*
X174360000Y-114371667D01*
X175080000Y-114371667D01*
X175080000Y-115091667D01*
G37*
X154780000Y-90091667D02*
X154060000Y-90091667D01*
X154060000Y-89371667D01*
X154780000Y-89371667D01*
X154780000Y-90091667D01*
G36*
X154780000Y-90091667D02*
G01*
X154060000Y-90091667D01*
X154060000Y-89371667D01*
X154780000Y-89371667D01*
X154780000Y-90091667D01*
G37*
X154780000Y-91091667D02*
X154060000Y-91091667D01*
X154060000Y-90371667D01*
X154780000Y-90371667D01*
X154780000Y-91091667D01*
G36*
X154780000Y-91091667D02*
G01*
X154060000Y-91091667D01*
X154060000Y-90371667D01*
X154780000Y-90371667D01*
X154780000Y-91091667D01*
G37*
X155780000Y-90091667D02*
X155060000Y-90091667D01*
X155060000Y-89371667D01*
X155780000Y-89371667D01*
X155780000Y-90091667D01*
G36*
X155780000Y-90091667D02*
G01*
X155060000Y-90091667D01*
X155060000Y-89371667D01*
X155780000Y-89371667D01*
X155780000Y-90091667D01*
G37*
X155780000Y-91091667D02*
X155060000Y-91091667D01*
X155060000Y-90371667D01*
X155780000Y-90371667D01*
X155780000Y-91091667D01*
G36*
X155780000Y-91091667D02*
G01*
X155060000Y-91091667D01*
X155060000Y-90371667D01*
X155780000Y-90371667D01*
X155780000Y-91091667D01*
G37*
X174080000Y-90091667D02*
X173360000Y-90091667D01*
X173360000Y-89371667D01*
X174080000Y-89371667D01*
X174080000Y-90091667D01*
G36*
X174080000Y-90091667D02*
G01*
X173360000Y-90091667D01*
X173360000Y-89371667D01*
X174080000Y-89371667D01*
X174080000Y-90091667D01*
G37*
X174080000Y-91091667D02*
X173360000Y-91091667D01*
X173360000Y-90371667D01*
X174080000Y-90371667D01*
X174080000Y-91091667D01*
G36*
X174080000Y-91091667D02*
G01*
X173360000Y-91091667D01*
X173360000Y-90371667D01*
X174080000Y-90371667D01*
X174080000Y-91091667D01*
G37*
X175080000Y-90091667D02*
X174360000Y-90091667D01*
X174360000Y-89371667D01*
X175080000Y-89371667D01*
X175080000Y-90091667D01*
G36*
X175080000Y-90091667D02*
G01*
X174360000Y-90091667D01*
X174360000Y-89371667D01*
X175080000Y-89371667D01*
X175080000Y-90091667D01*
G37*
X175080000Y-91091667D02*
X174360000Y-91091667D01*
X174360000Y-90371667D01*
X175080000Y-90371667D01*
X175080000Y-91091667D01*
G36*
X175080000Y-91091667D02*
G01*
X174360000Y-91091667D01*
X174360000Y-90371667D01*
X175080000Y-90371667D01*
X175080000Y-91091667D01*
G37*
X174080000Y-66091667D02*
X173360000Y-66091667D01*
X173360000Y-65371667D01*
X174080000Y-65371667D01*
X174080000Y-66091667D01*
G36*
X174080000Y-66091667D02*
G01*
X173360000Y-66091667D01*
X173360000Y-65371667D01*
X174080000Y-65371667D01*
X174080000Y-66091667D01*
G37*
X174080000Y-67091667D02*
X173360000Y-67091667D01*
X173360000Y-66371667D01*
X174080000Y-66371667D01*
X174080000Y-67091667D01*
G36*
X174080000Y-67091667D02*
G01*
X173360000Y-67091667D01*
X173360000Y-66371667D01*
X174080000Y-66371667D01*
X174080000Y-67091667D01*
G37*
X175080000Y-66091667D02*
X174360000Y-66091667D01*
X174360000Y-65371667D01*
X175080000Y-65371667D01*
X175080000Y-66091667D01*
G36*
X175080000Y-66091667D02*
G01*
X174360000Y-66091667D01*
X174360000Y-65371667D01*
X175080000Y-65371667D01*
X175080000Y-66091667D01*
G37*
X175080000Y-67091667D02*
X174360000Y-67091667D01*
X174360000Y-66371667D01*
X175080000Y-66371667D01*
X175080000Y-67091667D01*
G36*
X175080000Y-67091667D02*
G01*
X174360000Y-67091667D01*
X174360000Y-66371667D01*
X175080000Y-66371667D01*
X175080000Y-67091667D01*
G37*
%TO.C,IC1*%
X174080000Y-121831667D02*
X173360000Y-121831667D01*
X173360000Y-121111667D01*
X174080000Y-121111667D01*
X174080000Y-121831667D01*
G36*
X174080000Y-121831667D02*
G01*
X173360000Y-121831667D01*
X173360000Y-121111667D01*
X174080000Y-121111667D01*
X174080000Y-121831667D01*
G37*
X174080000Y-122831667D02*
X173360000Y-122831667D01*
X173360000Y-122111667D01*
X174080000Y-122111667D01*
X174080000Y-122831667D01*
G36*
X174080000Y-122831667D02*
G01*
X173360000Y-122831667D01*
X173360000Y-122111667D01*
X174080000Y-122111667D01*
X174080000Y-122831667D01*
G37*
X175080000Y-121831667D02*
X174360000Y-121831667D01*
X174360000Y-121111667D01*
X175080000Y-121111667D01*
X175080000Y-121831667D01*
G36*
X175080000Y-121831667D02*
G01*
X174360000Y-121831667D01*
X174360000Y-121111667D01*
X175080000Y-121111667D01*
X175080000Y-121831667D01*
G37*
X175080000Y-122831667D02*
X174360000Y-122831667D01*
X174360000Y-122111667D01*
X175080000Y-122111667D01*
X175080000Y-122831667D01*
G36*
X175080000Y-122831667D02*
G01*
X174360000Y-122831667D01*
X174360000Y-122111667D01*
X175080000Y-122111667D01*
X175080000Y-122831667D01*
G37*
%TO.C,IC2*%
X154780000Y-114091667D02*
X154060000Y-114091667D01*
X154060000Y-113371667D01*
X154780000Y-113371667D01*
X154780000Y-114091667D01*
G36*
X154780000Y-114091667D02*
G01*
X154060000Y-114091667D01*
X154060000Y-113371667D01*
X154780000Y-113371667D01*
X154780000Y-114091667D01*
G37*
X154780000Y-115091667D02*
X154060000Y-115091667D01*
X154060000Y-114371667D01*
X154780000Y-114371667D01*
X154780000Y-115091667D01*
G36*
X154780000Y-115091667D02*
G01*
X154060000Y-115091667D01*
X154060000Y-114371667D01*
X154780000Y-114371667D01*
X154780000Y-115091667D01*
G37*
X155780000Y-114091667D02*
X155060000Y-114091667D01*
X155060000Y-113371667D01*
X155780000Y-113371667D01*
X155780000Y-114091667D01*
G36*
X155780000Y-114091667D02*
G01*
X155060000Y-114091667D01*
X155060000Y-113371667D01*
X155780000Y-113371667D01*
X155780000Y-114091667D01*
G37*
X155780000Y-115091667D02*
X155060000Y-115091667D01*
X155060000Y-114371667D01*
X155780000Y-114371667D01*
X155780000Y-115091667D01*
G36*
X155780000Y-115091667D02*
G01*
X155060000Y-115091667D01*
X155060000Y-114371667D01*
X155780000Y-114371667D01*
X155780000Y-115091667D01*
G37*
%TO.C,IC1*%
X154780000Y-97831667D02*
X154060000Y-97831667D01*
X154060000Y-97111667D01*
X154780000Y-97111667D01*
X154780000Y-97831667D01*
G36*
X154780000Y-97831667D02*
G01*
X154060000Y-97831667D01*
X154060000Y-97111667D01*
X154780000Y-97111667D01*
X154780000Y-97831667D01*
G37*
X154780000Y-98831667D02*
X154060000Y-98831667D01*
X154060000Y-98111667D01*
X154780000Y-98111667D01*
X154780000Y-98831667D01*
G36*
X154780000Y-98831667D02*
G01*
X154060000Y-98831667D01*
X154060000Y-98111667D01*
X154780000Y-98111667D01*
X154780000Y-98831667D01*
G37*
X155780000Y-97831667D02*
X155060000Y-97831667D01*
X155060000Y-97111667D01*
X155780000Y-97111667D01*
X155780000Y-97831667D01*
G36*
X155780000Y-97831667D02*
G01*
X155060000Y-97831667D01*
X155060000Y-97111667D01*
X155780000Y-97111667D01*
X155780000Y-97831667D01*
G37*
X155780000Y-98831667D02*
X155060000Y-98831667D01*
X155060000Y-98111667D01*
X155780000Y-98111667D01*
X155780000Y-98831667D01*
G36*
X155780000Y-98831667D02*
G01*
X155060000Y-98831667D01*
X155060000Y-98111667D01*
X155780000Y-98111667D01*
X155780000Y-98831667D01*
G37*
X154780000Y-121831667D02*
X154060000Y-121831667D01*
X154060000Y-121111667D01*
X154780000Y-121111667D01*
X154780000Y-121831667D01*
G36*
X154780000Y-121831667D02*
G01*
X154060000Y-121831667D01*
X154060000Y-121111667D01*
X154780000Y-121111667D01*
X154780000Y-121831667D01*
G37*
X154780000Y-122831667D02*
X154060000Y-122831667D01*
X154060000Y-122111667D01*
X154780000Y-122111667D01*
X154780000Y-122831667D01*
G36*
X154780000Y-122831667D02*
G01*
X154060000Y-122831667D01*
X154060000Y-122111667D01*
X154780000Y-122111667D01*
X154780000Y-122831667D01*
G37*
X155780000Y-121831667D02*
X155060000Y-121831667D01*
X155060000Y-121111667D01*
X155780000Y-121111667D01*
X155780000Y-121831667D01*
G36*
X155780000Y-121831667D02*
G01*
X155060000Y-121831667D01*
X155060000Y-121111667D01*
X155780000Y-121111667D01*
X155780000Y-121831667D01*
G37*
X155780000Y-122831667D02*
X155060000Y-122831667D01*
X155060000Y-122111667D01*
X155780000Y-122111667D01*
X155780000Y-122831667D01*
G36*
X155780000Y-122831667D02*
G01*
X155060000Y-122831667D01*
X155060000Y-122111667D01*
X155780000Y-122111667D01*
X155780000Y-122831667D01*
G37*
%TO.C,IC2*%
X154780000Y-66091667D02*
X154060000Y-66091667D01*
X154060000Y-65371667D01*
X154780000Y-65371667D01*
X154780000Y-66091667D01*
G36*
X154780000Y-66091667D02*
G01*
X154060000Y-66091667D01*
X154060000Y-65371667D01*
X154780000Y-65371667D01*
X154780000Y-66091667D01*
G37*
X154780000Y-67091667D02*
X154060000Y-67091667D01*
X154060000Y-66371667D01*
X154780000Y-66371667D01*
X154780000Y-67091667D01*
G36*
X154780000Y-67091667D02*
G01*
X154060000Y-67091667D01*
X154060000Y-66371667D01*
X154780000Y-66371667D01*
X154780000Y-67091667D01*
G37*
X155780000Y-66091667D02*
X155060000Y-66091667D01*
X155060000Y-65371667D01*
X155780000Y-65371667D01*
X155780000Y-66091667D01*
G36*
X155780000Y-66091667D02*
G01*
X155060000Y-66091667D01*
X155060000Y-65371667D01*
X155780000Y-65371667D01*
X155780000Y-66091667D01*
G37*
X155780000Y-67091667D02*
X155060000Y-67091667D01*
X155060000Y-66371667D01*
X155780000Y-66371667D01*
X155780000Y-67091667D01*
G36*
X155780000Y-67091667D02*
G01*
X155060000Y-67091667D01*
X155060000Y-66371667D01*
X155780000Y-66371667D01*
X155780000Y-67091667D01*
G37*
%TD*%
D11*
%TO.C,IC1*%
X171750000Y-72066667D03*
X171750000Y-73336667D03*
X171750000Y-74606667D03*
X171750000Y-75876667D03*
X176690000Y-75876667D03*
X176690000Y-74606667D03*
X176690000Y-73336667D03*
X176690000Y-72066667D03*
%TD*%
%TO.C,IC1*%
X152450000Y-72066667D03*
X152450000Y-73336667D03*
X152450000Y-74606667D03*
X152450000Y-75876667D03*
X157390000Y-75876667D03*
X157390000Y-74606667D03*
X157390000Y-73336667D03*
X157390000Y-72066667D03*
%TD*%
D12*
%TO.C,C2*%
X179500000Y-66816667D03*
X179500000Y-64916667D03*
%TD*%
D13*
%TO.C,U1*%
X105980000Y-78136667D03*
X108520000Y-78136667D03*
X111060000Y-78136667D03*
X113600000Y-78136667D03*
X113600000Y-70516667D03*
X111060000Y-70516667D03*
X108520000Y-70516667D03*
X105980000Y-70516667D03*
%TD*%
D11*
%TO.C,IC1*%
X171750000Y-96066667D03*
X171750000Y-97336667D03*
X171750000Y-98606667D03*
X171750000Y-99876667D03*
X176690000Y-99876667D03*
X176690000Y-98606667D03*
X176690000Y-97336667D03*
X176690000Y-96066667D03*
%TD*%
D12*
%TO.C,C2*%
X179500000Y-114816667D03*
X179500000Y-112916667D03*
%TD*%
D11*
%TO.C,IC2*%
X171750000Y-112326667D03*
X171750000Y-113596667D03*
X171750000Y-114866667D03*
X171750000Y-116136667D03*
X176690000Y-116136667D03*
X176690000Y-114866667D03*
X176690000Y-113596667D03*
X176690000Y-112326667D03*
%TD*%
D12*
%TO.C,C2*%
X179500000Y-90816667D03*
X179500000Y-88916667D03*
%TD*%
D13*
%TO.C,U1*%
X125280000Y-128536667D03*
X127820000Y-128536667D03*
X130360000Y-128536667D03*
X132900000Y-128536667D03*
X132900000Y-120916667D03*
X130360000Y-120916667D03*
X127820000Y-120916667D03*
X125280000Y-120916667D03*
%TD*%
%TO.C,U1*%
X105980000Y-103336667D03*
X108520000Y-103336667D03*
X111060000Y-103336667D03*
X113600000Y-103336667D03*
X113600000Y-95716667D03*
X111060000Y-95716667D03*
X108520000Y-95716667D03*
X105980000Y-95716667D03*
%TD*%
%TO.C,U1*%
X125280000Y-103336667D03*
X127820000Y-103336667D03*
X130360000Y-103336667D03*
X132900000Y-103336667D03*
X132900000Y-95716667D03*
X130360000Y-95716667D03*
X127820000Y-95716667D03*
X125280000Y-95716667D03*
%TD*%
D12*
%TO.C,C1*%
X160300000Y-98566667D03*
X160300000Y-96666667D03*
%TD*%
%TO.C,C1*%
X160300000Y-122566667D03*
X160300000Y-120666667D03*
%TD*%
D13*
%TO.C,U1*%
X105980000Y-128536667D03*
X108520000Y-128536667D03*
X111060000Y-128536667D03*
X113600000Y-128536667D03*
X113600000Y-120916667D03*
X111060000Y-120916667D03*
X108520000Y-120916667D03*
X105980000Y-120916667D03*
%TD*%
D12*
%TO.C,C1*%
X179600000Y-122566667D03*
X179600000Y-120666667D03*
%TD*%
D13*
%TO.C,U2*%
X125280000Y-93016667D03*
X127820000Y-93016667D03*
X130360000Y-93016667D03*
X132900000Y-93016667D03*
X132900000Y-85396667D03*
X130360000Y-85396667D03*
X127820000Y-85396667D03*
X125280000Y-85396667D03*
%TD*%
%TO.C,U2*%
X125280000Y-67816667D03*
X127820000Y-67816667D03*
X130360000Y-67816667D03*
X132900000Y-67816667D03*
X132900000Y-60196667D03*
X130360000Y-60196667D03*
X127820000Y-60196667D03*
X125280000Y-60196667D03*
%TD*%
D12*
%TO.C,C2*%
X160200000Y-90816667D03*
X160200000Y-88916667D03*
%TD*%
%TO.C,C2*%
X160200000Y-66816667D03*
X160200000Y-64916667D03*
%TD*%
%TO.C,C1*%
X179600000Y-74566667D03*
X179600000Y-72666667D03*
%TD*%
D11*
%TO.C,IC2*%
X152450000Y-88326667D03*
X152450000Y-89596667D03*
X152450000Y-90866667D03*
X152450000Y-92136667D03*
X157390000Y-92136667D03*
X157390000Y-90866667D03*
X157390000Y-89596667D03*
X157390000Y-88326667D03*
%TD*%
D12*
%TO.C,C1*%
X179600000Y-98566667D03*
X179600000Y-96666667D03*
%TD*%
%TO.C,C2*%
X160200000Y-114816667D03*
X160200000Y-112916667D03*
%TD*%
D11*
%TO.C,IC2*%
X171750000Y-88326667D03*
X171750000Y-89596667D03*
X171750000Y-90866667D03*
X171750000Y-92136667D03*
X176690000Y-92136667D03*
X176690000Y-90866667D03*
X176690000Y-89596667D03*
X176690000Y-88326667D03*
%TD*%
%TO.C,IC2*%
X171750000Y-64326667D03*
X171750000Y-65596667D03*
X171750000Y-66866667D03*
X171750000Y-68136667D03*
X176690000Y-68136667D03*
X176690000Y-66866667D03*
X176690000Y-65596667D03*
X176690000Y-64326667D03*
%TD*%
%TO.C,IC1*%
X171750000Y-120066667D03*
X171750000Y-121336667D03*
X171750000Y-122606667D03*
X171750000Y-123876667D03*
X176690000Y-123876667D03*
X176690000Y-122606667D03*
X176690000Y-121336667D03*
X176690000Y-120066667D03*
%TD*%
D13*
%TO.C,U2*%
X125280000Y-118216667D03*
X127820000Y-118216667D03*
X130360000Y-118216667D03*
X132900000Y-118216667D03*
X132900000Y-110596667D03*
X130360000Y-110596667D03*
X127820000Y-110596667D03*
X125280000Y-110596667D03*
%TD*%
%TO.C,U2*%
X105980000Y-93016667D03*
X108520000Y-93016667D03*
X111060000Y-93016667D03*
X113600000Y-93016667D03*
X113600000Y-85396667D03*
X111060000Y-85396667D03*
X108520000Y-85396667D03*
X105980000Y-85396667D03*
%TD*%
D11*
%TO.C,IC2*%
X152450000Y-112326667D03*
X152450000Y-113596667D03*
X152450000Y-114866667D03*
X152450000Y-116136667D03*
X157390000Y-116136667D03*
X157390000Y-114866667D03*
X157390000Y-113596667D03*
X157390000Y-112326667D03*
%TD*%
D13*
%TO.C,U2*%
X105980000Y-118216667D03*
X108520000Y-118216667D03*
X111060000Y-118216667D03*
X113600000Y-118216667D03*
X113600000Y-110596667D03*
X111060000Y-110596667D03*
X108520000Y-110596667D03*
X105980000Y-110596667D03*
%TD*%
D12*
%TO.C,C1*%
X160300000Y-74566667D03*
X160300000Y-72666667D03*
%TD*%
D11*
%TO.C,IC1*%
X152450000Y-96066667D03*
X152450000Y-97336667D03*
X152450000Y-98606667D03*
X152450000Y-99876667D03*
X157390000Y-99876667D03*
X157390000Y-98606667D03*
X157390000Y-97336667D03*
X157390000Y-96066667D03*
%TD*%
D13*
%TO.C,U2*%
X105980000Y-67816667D03*
X108520000Y-67816667D03*
X111060000Y-67816667D03*
X113600000Y-67816667D03*
X113600000Y-60196667D03*
X111060000Y-60196667D03*
X108520000Y-60196667D03*
X105980000Y-60196667D03*
%TD*%
%TO.C,U1*%
X125280000Y-78136667D03*
X127820000Y-78136667D03*
X130360000Y-78136667D03*
X132900000Y-78136667D03*
X132900000Y-70516667D03*
X130360000Y-70516667D03*
X127820000Y-70516667D03*
X125280000Y-70516667D03*
%TD*%
D11*
%TO.C,IC1*%
X152450000Y-120066667D03*
X152450000Y-121336667D03*
X152450000Y-122606667D03*
X152450000Y-123876667D03*
X157390000Y-123876667D03*
X157390000Y-122606667D03*
X157390000Y-121336667D03*
X157390000Y-120066667D03*
%TD*%
%TO.C,IC2*%
X152450000Y-64326667D03*
X152450000Y-65596667D03*
X152450000Y-66866667D03*
X152450000Y-68136667D03*
X157390000Y-68136667D03*
X157390000Y-66866667D03*
X157390000Y-65596667D03*
X157390000Y-64326667D03*
%TD*%
M02*
