M48
; DRILL file {KiCad 8.0.4} date 2024-09-16T18:14:24-0300
; FORMAT={-:-/ absolute / metric / decimal}
; #@! TF.CreationDate,2024-09-16T18:14:24-03:00
; #@! TF.GenerationSoftware,Kicad,Pcbnew,8.0.4
; #@! TF.FileFunction,Plated,1,2,PTH
FMAT,2
METRIC
; #@! TA.AperFunction,Plated,PTH,ViaDrill
T1C0.300
; #@! TA.AperFunction,Plated,PTH,ViaDrill
T2C0.350
; #@! TA.AperFunction,Plated,PTH,ViaDrill
T3C0.400
; #@! TA.AperFunction,Plated,PTH,ComponentDrill
T4C0.762
; #@! TA.AperFunction,Plated,PTH,ComponentDrill
T5C0.800
; #@! TA.AperFunction,Plated,PTH,ComponentDrill
T6C1.000
; #@! TA.AperFunction,Plated,PTH,ComponentDrill
T7C1.100
%
G90
G05
T1
X74.25Y-84.5
X74.25Y-85.5
X74.25Y-109.7
X74.25Y-110.7
X74.25Y-134.9
X74.25Y-135.9
X75.25Y-84.5
X75.25Y-85.5
X75.25Y-109.7
X75.25Y-110.7
X75.25Y-134.9
X75.25Y-135.9
X76.25Y-84.5
X76.25Y-85.5
X76.25Y-109.7
X76.25Y-110.7
X76.25Y-134.9
X76.25Y-135.9
X76.55Y-68.75
X76.55Y-93.95
X76.55Y-119.15
X76.85Y-70.35
X76.85Y-95.55
X76.85Y-120.75
X77.8Y-71.25
X77.8Y-96.45
X77.8Y-121.65
X77.85Y-67.15
X77.85Y-77.45
X77.85Y-78.9
X77.85Y-92.35
X77.85Y-102.65
X77.85Y-104.1
X77.85Y-117.55
X77.85Y-127.85
X77.85Y-129.3
X78.05Y-69.45
X78.05Y-94.65
X78.05Y-119.85
X78.85Y-72.3
X78.85Y-97.5
X78.85Y-122.7
X78.95Y-70.35
X78.95Y-95.55
X78.95Y-120.75
X79.125Y-67.15
X79.125Y-77.45
X79.125Y-92.35
X79.125Y-102.65
X79.125Y-117.55
X79.125Y-127.85
X79.5Y-80.0
X79.5Y-105.2
X79.5Y-130.4
X79.85Y-73.1
X79.85Y-98.3
X79.85Y-123.5
X79.9Y-71.25
X79.9Y-96.45
X79.9Y-121.65
X80.4Y-67.15
X80.4Y-77.45
X80.4Y-78.9
X80.4Y-92.35
X80.4Y-102.65
X80.4Y-104.1
X80.4Y-117.55
X80.4Y-127.85
X80.4Y-129.3
X80.5Y-68.7
X80.5Y-93.9
X80.5Y-119.1
X80.95Y-72.3
X80.95Y-97.5
X80.95Y-122.7
X81.0Y-82.1
X81.0Y-83.4
X81.0Y-107.3
X81.0Y-108.6
X81.0Y-132.5
X81.0Y-133.8
X81.4Y-69.6
X81.4Y-94.8
X81.4Y-120.0
X81.95Y-73.1
X81.95Y-98.3
X81.95Y-123.5
X82.25Y-80.0
X82.25Y-105.2
X82.25Y-130.4
X82.35Y-70.5
X82.35Y-95.7
X82.35Y-120.9
X82.95Y-67.15
X82.95Y-77.45
X82.95Y-82.1
X82.95Y-83.4
X82.95Y-92.35
X82.95Y-102.65
X82.95Y-107.3
X82.95Y-108.6
X82.95Y-117.55
X82.95Y-127.85
X82.95Y-132.5
X82.95Y-133.8
X82.96Y-74.75
X82.96Y-85.07
X82.96Y-99.95
X82.96Y-110.27
X82.96Y-125.15
X82.96Y-135.47
X83.4Y-71.55
X83.4Y-96.75
X83.4Y-121.95
X84.225Y-67.15
X84.225Y-77.45
X84.225Y-92.35
X84.225Y-102.65
X84.225Y-117.55
X84.225Y-127.85
X84.4Y-72.35
X84.4Y-97.55
X84.4Y-122.75
X84.5Y-80.0
X84.5Y-105.2
X84.5Y-130.4
X84.7Y-68.65
X84.7Y-93.85
X84.7Y-119.05
X84.75Y-82.1
X84.75Y-83.4
X84.75Y-107.3
X84.75Y-108.6
X84.75Y-132.5
X84.75Y-133.8
X85.5Y-67.15
X85.5Y-74.75
X85.5Y-77.45
X85.5Y-85.07
X85.5Y-92.35
X85.5Y-99.95
X85.5Y-102.65
X85.5Y-110.27
X85.5Y-117.55
X85.5Y-125.15
X85.5Y-127.85
X85.5Y-135.47
X85.8Y-72.4
X85.8Y-97.6
X85.8Y-122.8
X85.85Y-69.75
X85.85Y-94.95
X85.85Y-120.15
X86.45Y-80.0
X86.45Y-105.2
X86.45Y-130.4
X86.7Y-82.1
X86.7Y-83.4
X86.7Y-84.45
X86.7Y-85.75
X86.7Y-107.3
X86.7Y-108.6
X86.7Y-109.65
X86.7Y-110.95
X86.7Y-132.5
X86.7Y-133.8
X86.7Y-134.85
X86.7Y-136.15
X86.75Y-74.75
X86.75Y-99.95
X86.75Y-125.15
X88.65Y-84.45
X88.65Y-85.75
X88.65Y-109.65
X88.65Y-110.95
X88.65Y-134.85
X88.65Y-136.15
X93.55Y-84.5
X93.55Y-85.5
X93.55Y-109.7
X93.55Y-110.7
X93.55Y-134.9
X93.55Y-135.9
X94.55Y-84.5
X94.55Y-85.5
X94.55Y-109.7
X94.55Y-110.7
X94.55Y-134.9
X94.55Y-135.9
X95.55Y-84.5
X95.55Y-85.5
X95.55Y-109.7
X95.55Y-110.7
X95.55Y-134.9
X95.55Y-135.9
X95.85Y-68.75
X95.85Y-93.95
X95.85Y-119.15
X96.15Y-70.35
X96.15Y-95.55
X96.15Y-120.75
X97.1Y-71.25
X97.1Y-96.45
X97.1Y-121.65
X97.15Y-67.15
X97.15Y-77.45
X97.15Y-78.9
X97.15Y-92.35
X97.15Y-102.65
X97.15Y-104.1
X97.15Y-117.55
X97.15Y-127.85
X97.15Y-129.3
X97.35Y-69.45
X97.35Y-94.65
X97.35Y-119.85
X98.15Y-72.3
X98.15Y-97.5
X98.15Y-122.7
X98.25Y-70.35
X98.25Y-95.55
X98.25Y-120.75
X98.425Y-67.15
X98.425Y-77.45
X98.425Y-92.35
X98.425Y-102.65
X98.425Y-117.55
X98.425Y-127.85
X98.8Y-80.0
X98.8Y-105.2
X98.8Y-130.4
X99.15Y-73.1
X99.15Y-98.3
X99.15Y-123.5
X99.2Y-71.25
X99.2Y-96.45
X99.2Y-121.65
X99.7Y-67.15
X99.7Y-77.45
X99.7Y-78.9
X99.7Y-92.35
X99.7Y-102.65
X99.7Y-104.1
X99.7Y-117.55
X99.7Y-127.85
X99.7Y-129.3
X99.8Y-68.7
X99.8Y-93.9
X99.8Y-119.1
X100.25Y-72.3
X100.25Y-97.5
X100.25Y-122.7
X100.3Y-82.1
X100.3Y-83.4
X100.3Y-107.3
X100.3Y-108.6
X100.3Y-132.5
X100.3Y-133.8
X100.7Y-69.6
X100.7Y-94.8
X100.7Y-120.0
X101.25Y-73.1
X101.25Y-98.3
X101.25Y-123.5
X101.55Y-80.0
X101.55Y-105.2
X101.55Y-130.4
X101.65Y-70.5
X101.65Y-95.7
X101.65Y-120.9
X102.25Y-67.15
X102.25Y-77.45
X102.25Y-82.1
X102.25Y-83.4
X102.25Y-92.35
X102.25Y-102.65
X102.25Y-107.3
X102.25Y-108.6
X102.25Y-117.55
X102.25Y-127.85
X102.25Y-132.5
X102.25Y-133.8
X102.26Y-74.75
X102.26Y-85.07
X102.26Y-99.95
X102.26Y-110.27
X102.26Y-125.15
X102.26Y-135.47
X102.7Y-71.55
X102.7Y-96.75
X102.7Y-121.95
X103.525Y-67.15
X103.525Y-77.45
X103.525Y-92.35
X103.525Y-102.65
X103.525Y-117.55
X103.525Y-127.85
X103.7Y-72.35
X103.7Y-97.55
X103.7Y-122.75
X103.8Y-80.0
X103.8Y-105.2
X103.8Y-130.4
X104.0Y-68.65
X104.0Y-93.85
X104.0Y-119.05
X104.05Y-82.1
X104.05Y-83.4
X104.05Y-107.3
X104.05Y-108.6
X104.05Y-132.5
X104.05Y-133.8
X104.8Y-67.15
X104.8Y-74.75
X104.8Y-77.45
X104.8Y-85.07
X104.8Y-92.35
X104.8Y-99.95
X104.8Y-102.65
X104.8Y-110.27
X104.8Y-117.55
X104.8Y-125.15
X104.8Y-127.85
X104.8Y-135.47
X105.1Y-72.4
X105.1Y-97.6
X105.1Y-122.8
X105.15Y-69.75
X105.15Y-94.95
X105.15Y-120.15
X105.75Y-80.0
X105.75Y-105.2
X105.75Y-130.4
X106.0Y-82.1
X106.0Y-83.4
X106.0Y-84.45
X106.0Y-85.75
X106.0Y-107.3
X106.0Y-108.6
X106.0Y-109.65
X106.0Y-110.95
X106.0Y-132.5
X106.0Y-133.8
X106.0Y-134.85
X106.0Y-136.15
X106.05Y-74.75
X106.05Y-99.95
X106.05Y-125.15
X107.95Y-84.45
X107.95Y-85.75
X107.95Y-109.65
X107.95Y-110.95
X107.95Y-134.85
X107.95Y-136.15
T2
X123.6Y-68.4
X123.6Y-69.4
X123.6Y-70.4
X123.6Y-92.15
X123.6Y-93.15
X123.6Y-94.15
X123.6Y-115.9
X123.6Y-116.9
X123.6Y-117.9
X123.65Y-84.45
X123.65Y-85.35
X123.65Y-86.25
X123.65Y-108.2
X123.65Y-109.1
X123.65Y-110.0
X123.65Y-131.95
X123.65Y-132.85
X123.65Y-133.75
X124.0Y-76.75
X124.0Y-77.75
X124.0Y-78.75
X124.0Y-100.5
X124.0Y-101.5
X124.0Y-102.5
X124.0Y-124.25
X124.0Y-125.25
X124.0Y-126.25
X124.45Y-71.81
X124.45Y-79.55
X124.45Y-95.56
X124.45Y-103.3
X124.45Y-119.31
X124.45Y-127.05
X125.1Y-68.4
X125.1Y-69.4
X125.1Y-70.4
X125.1Y-92.15
X125.1Y-93.15
X125.1Y-94.15
X125.1Y-115.9
X125.1Y-116.9
X125.1Y-117.9
X125.2Y-76.75
X125.2Y-77.75
X125.2Y-78.75
X125.2Y-100.5
X125.2Y-101.5
X125.2Y-102.5
X125.2Y-124.25
X125.2Y-125.25
X125.2Y-126.25
X126.11Y-71.8
X126.11Y-72.905
X126.11Y-73.715
X126.11Y-74.525
X126.11Y-75.65
X126.11Y-79.55
X126.11Y-80.645
X126.11Y-81.455
X126.11Y-82.265
X126.11Y-83.35
X126.11Y-95.55
X126.11Y-96.655
X126.11Y-97.465
X126.11Y-98.275
X126.11Y-99.4
X126.11Y-103.3
X126.11Y-104.395
X126.11Y-105.205
X126.11Y-106.015
X126.11Y-107.1
X126.11Y-119.3
X126.11Y-120.405
X126.11Y-121.215
X126.11Y-122.025
X126.11Y-123.15
X126.11Y-127.05
X126.11Y-128.145
X126.11Y-128.955
X126.11Y-129.765
X126.11Y-130.85
X126.4Y-76.75
X126.4Y-77.75
X126.4Y-78.75
X126.4Y-100.5
X126.4Y-101.5
X126.4Y-102.5
X126.4Y-124.25
X126.4Y-125.25
X126.4Y-126.25
X126.6Y-68.4
X126.6Y-69.4
X126.6Y-70.4
X126.6Y-92.15
X126.6Y-93.15
X126.6Y-94.15
X126.6Y-115.9
X126.6Y-116.9
X126.6Y-117.9
X126.92Y-71.8
X126.92Y-72.905
X126.92Y-73.715
X126.92Y-74.525
X126.92Y-75.65
X126.92Y-79.55
X126.92Y-80.645
X126.92Y-81.455
X126.92Y-82.265
X126.92Y-83.35
X126.92Y-95.55
X126.92Y-96.655
X126.92Y-97.465
X126.92Y-98.275
X126.92Y-99.4
X126.92Y-103.3
X126.92Y-104.395
X126.92Y-105.205
X126.92Y-106.015
X126.92Y-107.1
X126.92Y-119.3
X126.92Y-120.405
X126.92Y-121.215
X126.92Y-122.025
X126.92Y-123.15
X126.92Y-127.05
X126.92Y-128.145
X126.92Y-128.955
X126.92Y-129.765
X126.92Y-130.85
X127.55Y-84.45
X127.55Y-85.35
X127.55Y-86.25
X127.55Y-108.2
X127.55Y-109.1
X127.55Y-110.0
X127.55Y-131.95
X127.55Y-132.85
X127.55Y-133.75
X127.6Y-76.75
X127.6Y-77.75
X127.6Y-78.75
X127.6Y-100.5
X127.6Y-101.5
X127.6Y-102.5
X127.6Y-124.25
X127.6Y-125.25
X127.6Y-126.25
X127.73Y-71.8
X127.73Y-72.905
X127.73Y-73.715
X127.73Y-74.525
X127.73Y-75.65
X127.73Y-79.55
X127.73Y-80.645
X127.73Y-81.455
X127.73Y-82.265
X127.73Y-83.35
X127.73Y-95.55
X127.73Y-96.655
X127.73Y-97.465
X127.73Y-98.275
X127.73Y-99.4
X127.73Y-103.3
X127.73Y-104.395
X127.73Y-105.205
X127.73Y-106.015
X127.73Y-107.1
X127.73Y-119.3
X127.73Y-120.405
X127.73Y-121.215
X127.73Y-122.025
X127.73Y-123.15
X127.73Y-127.05
X127.73Y-128.145
X127.73Y-128.955
X127.73Y-129.765
X127.73Y-130.85
X128.1Y-68.4
X128.1Y-69.4
X128.1Y-70.4
X128.1Y-92.15
X128.1Y-93.15
X128.1Y-94.15
X128.1Y-115.9
X128.1Y-116.9
X128.1Y-117.9
X129.05Y-76.75
X129.05Y-100.5
X129.05Y-124.25
X129.15Y-84.4
X129.15Y-108.15
X129.15Y-131.9
X129.39Y-71.81
X129.39Y-73.08
X129.39Y-74.35
X129.39Y-75.62
X129.39Y-79.56
X129.39Y-80.82
X129.39Y-82.09
X129.39Y-83.36
X129.39Y-95.56
X129.39Y-96.83
X129.39Y-98.1
X129.39Y-99.37
X129.39Y-103.31
X129.39Y-104.57
X129.39Y-105.84
X129.39Y-107.11
X129.39Y-119.31
X129.39Y-120.58
X129.39Y-121.85
X129.39Y-123.12
X129.39Y-127.06
X129.39Y-128.32
X129.39Y-129.59
X129.39Y-130.86
X129.6Y-68.4
X129.6Y-69.4
X129.6Y-70.4
X129.6Y-92.15
X129.6Y-93.15
X129.6Y-94.15
X129.6Y-115.9
X129.6Y-116.9
X129.6Y-117.9
X130.35Y-76.75
X130.35Y-77.95
X130.35Y-100.5
X130.35Y-101.7
X130.35Y-124.25
X130.35Y-125.45
X131.1Y-68.4
X131.1Y-69.4
X131.1Y-70.4
X131.1Y-92.15
X131.1Y-93.15
X131.1Y-94.15
X131.1Y-115.9
X131.1Y-116.9
X131.1Y-117.9
X131.55Y-71.6
X131.55Y-95.35
X131.55Y-119.1
X131.6Y-79.25
X131.6Y-103.0
X131.6Y-126.75
X131.65Y-75.35
X131.65Y-76.75
X131.65Y-77.95
X131.65Y-99.1
X131.65Y-100.5
X131.65Y-101.7
X131.65Y-122.85
X131.65Y-124.25
X131.65Y-125.45
X131.7Y-83.0
X131.7Y-106.75
X131.7Y-130.5
X131.75Y-84.4
X131.75Y-108.15
X131.75Y-131.9
X132.6Y-68.4
X132.6Y-69.4
X132.6Y-70.4
X132.6Y-92.15
X132.6Y-93.15
X132.6Y-94.15
X132.6Y-115.9
X132.6Y-116.9
X132.6Y-117.9
X132.8Y-71.6
X132.8Y-95.35
X132.8Y-119.1
X132.85Y-79.25
X132.85Y-103.0
X132.85Y-126.75
X132.9Y-75.35
X132.9Y-99.1
X132.9Y-122.85
X132.95Y-76.75
X132.95Y-77.95
X132.95Y-83.0
X132.95Y-100.5
X132.95Y-101.7
X132.95Y-106.75
X132.95Y-124.25
X132.95Y-125.45
X132.95Y-130.5
X133.05Y-84.4
X133.05Y-85.6
X133.05Y-108.15
X133.05Y-109.35
X133.05Y-131.9
X133.05Y-133.1
X142.9Y-68.4
X142.9Y-69.4
X142.9Y-70.4
X142.9Y-92.15
X142.9Y-93.15
X142.9Y-94.15
X142.9Y-115.9
X142.9Y-116.9
X142.9Y-117.9
X142.95Y-84.45
X142.95Y-85.35
X142.95Y-86.25
X142.95Y-108.2
X142.95Y-109.1
X142.95Y-110.0
X142.95Y-131.95
X142.95Y-132.85
X142.95Y-133.75
X143.3Y-76.75
X143.3Y-77.75
X143.3Y-78.75
X143.3Y-100.5
X143.3Y-101.5
X143.3Y-102.5
X143.3Y-124.25
X143.3Y-125.25
X143.3Y-126.25
X143.75Y-71.81
X143.75Y-79.55
X143.75Y-95.56
X143.75Y-103.3
X143.75Y-119.31
X143.75Y-127.05
X144.4Y-68.4
X144.4Y-69.4
X144.4Y-70.4
X144.4Y-92.15
X144.4Y-93.15
X144.4Y-94.15
X144.4Y-115.9
X144.4Y-116.9
X144.4Y-117.9
X144.5Y-76.75
X144.5Y-77.75
X144.5Y-78.75
X144.5Y-100.5
X144.5Y-101.5
X144.5Y-102.5
X144.5Y-124.25
X144.5Y-125.25
X144.5Y-126.25
X145.41Y-71.8
X145.41Y-72.905
X145.41Y-73.715
X145.41Y-74.525
X145.41Y-75.65
X145.41Y-79.55
X145.41Y-80.645
X145.41Y-81.455
X145.41Y-82.265
X145.41Y-83.35
X145.41Y-95.55
X145.41Y-96.655
X145.41Y-97.465
X145.41Y-98.275
X145.41Y-99.4
X145.41Y-103.3
X145.41Y-104.395
X145.41Y-105.205
X145.41Y-106.015
X145.41Y-107.1
X145.41Y-119.3
X145.41Y-120.405
X145.41Y-121.215
X145.41Y-122.025
X145.41Y-123.15
X145.41Y-127.05
X145.41Y-128.145
X145.41Y-128.955
X145.41Y-129.765
X145.41Y-130.85
X145.7Y-76.75
X145.7Y-77.75
X145.7Y-78.75
X145.7Y-100.5
X145.7Y-101.5
X145.7Y-102.5
X145.7Y-124.25
X145.7Y-125.25
X145.7Y-126.25
X145.9Y-68.4
X145.9Y-69.4
X145.9Y-70.4
X145.9Y-92.15
X145.9Y-93.15
X145.9Y-94.15
X145.9Y-115.9
X145.9Y-116.9
X145.9Y-117.9
X146.22Y-71.8
X146.22Y-72.905
X146.22Y-73.715
X146.22Y-74.525
X146.22Y-75.65
X146.22Y-79.55
X146.22Y-80.645
X146.22Y-81.455
X146.22Y-82.265
X146.22Y-83.35
X146.22Y-95.55
X146.22Y-96.655
X146.22Y-97.465
X146.22Y-98.275
X146.22Y-99.4
X146.22Y-103.3
X146.22Y-104.395
X146.22Y-105.205
X146.22Y-106.015
X146.22Y-107.1
X146.22Y-119.3
X146.22Y-120.405
X146.22Y-121.215
X146.22Y-122.025
X146.22Y-123.15
X146.22Y-127.05
X146.22Y-128.145
X146.22Y-128.955
X146.22Y-129.765
X146.22Y-130.85
X146.85Y-84.45
X146.85Y-85.35
X146.85Y-86.25
X146.85Y-108.2
X146.85Y-109.1
X146.85Y-110.0
X146.85Y-131.95
X146.85Y-132.85
X146.85Y-133.75
X146.9Y-76.75
X146.9Y-77.75
X146.9Y-78.75
X146.9Y-100.5
X146.9Y-101.5
X146.9Y-102.5
X146.9Y-124.25
X146.9Y-125.25
X146.9Y-126.25
X147.03Y-71.8
X147.03Y-72.905
X147.03Y-73.715
X147.03Y-74.525
X147.03Y-75.65
X147.03Y-79.55
X147.03Y-80.645
X147.03Y-81.455
X147.03Y-82.265
X147.03Y-83.35
X147.03Y-95.55
X147.03Y-96.655
X147.03Y-97.465
X147.03Y-98.275
X147.03Y-99.4
X147.03Y-103.3
X147.03Y-104.395
X147.03Y-105.205
X147.03Y-106.015
X147.03Y-107.1
X147.03Y-119.3
X147.03Y-120.405
X147.03Y-121.215
X147.03Y-122.025
X147.03Y-123.15
X147.03Y-127.05
X147.03Y-128.145
X147.03Y-128.955
X147.03Y-129.765
X147.03Y-130.85
X147.4Y-68.4
X147.4Y-69.4
X147.4Y-70.4
X147.4Y-92.15
X147.4Y-93.15
X147.4Y-94.15
X147.4Y-115.9
X147.4Y-116.9
X147.4Y-117.9
X148.35Y-76.75
X148.35Y-100.5
X148.35Y-124.25
X148.45Y-84.4
X148.45Y-108.15
X148.45Y-131.9
X148.69Y-71.81
X148.69Y-73.08
X148.69Y-74.35
X148.69Y-75.62
X148.69Y-79.56
X148.69Y-80.82
X148.69Y-82.09
X148.69Y-83.36
X148.69Y-95.56
X148.69Y-96.83
X148.69Y-98.1
X148.69Y-99.37
X148.69Y-103.31
X148.69Y-104.57
X148.69Y-105.84
X148.69Y-107.11
X148.69Y-119.31
X148.69Y-120.58
X148.69Y-121.85
X148.69Y-123.12
X148.69Y-127.06
X148.69Y-128.32
X148.69Y-129.59
X148.69Y-130.86
X148.9Y-68.4
X148.9Y-69.4
X148.9Y-70.4
X148.9Y-92.15
X148.9Y-93.15
X148.9Y-94.15
X148.9Y-115.9
X148.9Y-116.9
X148.9Y-117.9
X149.65Y-76.75
X149.65Y-77.95
X149.65Y-100.5
X149.65Y-101.7
X149.65Y-124.25
X149.65Y-125.45
X150.4Y-68.4
X150.4Y-69.4
X150.4Y-70.4
X150.4Y-92.15
X150.4Y-93.15
X150.4Y-94.15
X150.4Y-115.9
X150.4Y-116.9
X150.4Y-117.9
X150.85Y-71.6
X150.85Y-95.35
X150.85Y-119.1
X150.9Y-79.25
X150.9Y-103.0
X150.9Y-126.75
X150.95Y-75.35
X150.95Y-76.75
X150.95Y-77.95
X150.95Y-99.1
X150.95Y-100.5
X150.95Y-101.7
X150.95Y-122.85
X150.95Y-124.25
X150.95Y-125.45
X151.0Y-83.0
X151.0Y-106.75
X151.0Y-130.5
X151.05Y-84.4
X151.05Y-108.15
X151.05Y-131.9
X151.9Y-68.4
X151.9Y-69.4
X151.9Y-70.4
X151.9Y-92.15
X151.9Y-93.15
X151.9Y-94.15
X151.9Y-115.9
X151.9Y-116.9
X151.9Y-117.9
X152.1Y-71.6
X152.1Y-95.35
X152.1Y-119.1
X152.15Y-79.25
X152.15Y-103.0
X152.15Y-126.75
X152.2Y-75.35
X152.2Y-99.1
X152.2Y-122.85
X152.25Y-76.75
X152.25Y-77.95
X152.25Y-83.0
X152.25Y-100.5
X152.25Y-101.7
X152.25Y-106.75
X152.25Y-124.25
X152.25Y-125.45
X152.25Y-130.5
X152.35Y-84.4
X152.35Y-85.6
X152.35Y-108.15
X152.35Y-109.35
X152.35Y-131.9
X152.35Y-133.1
T3
X122.8Y-83.55
X122.8Y-107.3
X122.8Y-131.05
X122.85Y-75.95
X122.85Y-99.7
X122.85Y-123.45
X142.1Y-83.55
X142.1Y-107.3
X142.1Y-131.05
X142.15Y-75.95
X142.15Y-99.7
X142.15Y-123.45
T4
X74.9Y-74.97
X74.9Y-100.17
X74.9Y-125.37
X94.2Y-74.97
X94.2Y-100.17
X94.2Y-125.37
T5
X125.7Y-85.45
X125.7Y-109.2
X125.7Y-132.95
X130.7Y-85.45
X130.7Y-109.2
X130.7Y-132.95
X145.0Y-85.45
X145.0Y-109.2
X145.0Y-132.95
X150.0Y-85.45
X150.0Y-109.2
X150.0Y-132.95
T6
X74.9Y-67.35
X74.9Y-69.89
X74.9Y-72.43
X74.9Y-77.51
X74.9Y-80.05
X74.9Y-82.59
X74.9Y-92.55
X74.9Y-95.09
X74.9Y-97.63
X74.9Y-102.71
X74.9Y-105.25
X74.9Y-107.79
X74.9Y-117.75
X74.9Y-120.29
X74.9Y-122.83
X74.9Y-127.91
X74.9Y-130.45
X74.9Y-132.99
X88.3Y-67.35
X88.3Y-69.89
X88.3Y-72.43
X88.3Y-74.97
X88.3Y-77.51
X88.3Y-80.05
X88.3Y-82.59
X88.3Y-92.55
X88.3Y-95.09
X88.3Y-97.63
X88.3Y-100.17
X88.3Y-102.71
X88.3Y-105.25
X88.3Y-107.79
X88.3Y-117.75
X88.3Y-120.29
X88.3Y-122.83
X88.3Y-125.37
X88.3Y-127.91
X88.3Y-130.45
X88.3Y-132.99
X94.2Y-67.35
X94.2Y-69.89
X94.2Y-72.43
X94.2Y-77.51
X94.2Y-80.05
X94.2Y-82.59
X94.2Y-92.55
X94.2Y-95.09
X94.2Y-97.63
X94.2Y-102.71
X94.2Y-105.25
X94.2Y-107.79
X94.2Y-117.75
X94.2Y-120.29
X94.2Y-122.83
X94.2Y-127.91
X94.2Y-130.45
X94.2Y-132.99
X107.6Y-67.35
X107.6Y-69.89
X107.6Y-72.43
X107.6Y-74.97
X107.6Y-77.51
X107.6Y-80.05
X107.6Y-82.59
X107.6Y-92.55
X107.6Y-95.09
X107.6Y-97.63
X107.6Y-100.17
X107.6Y-102.71
X107.6Y-105.25
X107.6Y-107.79
X107.6Y-117.75
X107.6Y-120.29
X107.6Y-122.83
X107.6Y-125.37
X107.6Y-127.91
X107.6Y-130.45
X107.6Y-132.99
X121.5Y-69.61
X121.5Y-93.36
X121.5Y-117.11
X134.89Y-69.61
X134.89Y-93.36
X134.89Y-117.11
X140.8Y-69.61
X140.8Y-93.36
X140.8Y-117.11
X154.19Y-69.61
X154.19Y-93.36
X154.19Y-117.11
T7
X121.5Y-72.15
X121.5Y-74.69
X121.5Y-77.23
X121.5Y-79.77
X121.5Y-82.31
X121.5Y-84.85
X121.5Y-95.9
X121.5Y-98.44
X121.5Y-100.98
X121.5Y-103.52
X121.5Y-106.06
X121.5Y-108.6
X121.5Y-119.65
X121.5Y-122.19
X121.5Y-124.73
X121.5Y-127.27
X121.5Y-129.81
X121.5Y-132.35
X134.89Y-72.15
X134.89Y-74.69
X134.89Y-77.23
X134.89Y-79.77
X134.89Y-82.31
X134.89Y-84.85
X134.89Y-95.9
X134.89Y-98.44
X134.89Y-100.98
X134.89Y-103.52
X134.89Y-106.06
X134.89Y-108.6
X134.89Y-119.65
X134.89Y-122.19
X134.89Y-124.73
X134.89Y-127.27
X134.89Y-129.81
X134.89Y-132.35
X140.8Y-72.15
X140.8Y-74.69
X140.8Y-77.23
X140.8Y-79.77
X140.8Y-82.31
X140.8Y-84.85
X140.8Y-95.9
X140.8Y-98.44
X140.8Y-100.98
X140.8Y-103.52
X140.8Y-106.06
X140.8Y-108.6
X140.8Y-119.65
X140.8Y-122.19
X140.8Y-124.73
X140.8Y-127.27
X140.8Y-129.81
X140.8Y-132.35
X154.19Y-72.15
X154.19Y-74.69
X154.19Y-77.23
X154.19Y-79.77
X154.19Y-82.31
X154.19Y-84.85
X154.19Y-95.9
X154.19Y-98.44
X154.19Y-100.98
X154.19Y-103.52
X154.19Y-106.06
X154.19Y-108.6
X154.19Y-119.65
X154.19Y-122.19
X154.19Y-124.73
X154.19Y-127.27
X154.19Y-129.81
X154.19Y-132.35
M30
