%TF.GenerationSoftware,KiCad,Pcbnew,8.0.4*%
%TF.CreationDate,2024-09-16T10:23:00-03:00*%
%TF.ProjectId,drivers_panelized,64726976-6572-4735-9f70-616e656c697a,rev?*%
%TF.SameCoordinates,Original*%
%TF.FileFunction,Legend,Bot*%
%TF.FilePolarity,Positive*%
%FSLAX46Y46*%
G04 Gerber Fmt 4.6, Leading zero omitted, Abs format (unit mm)*
G04 Created by KiCad (PCBNEW 8.0.4) date 2024-09-16 10:23:00*
%MOMM*%
%LPD*%
G01*
G04 APERTURE LIST*
%ADD10C,0.200000*%
%ADD11C,0.150000*%
%ADD12C,0.120000*%
G04 APERTURE END LIST*
D10*
X111800000Y-74091667D02*
X110336678Y-75341667D01*
X110336678Y-72841667D01*
X111800000Y-74091667D01*
G36*
X111800000Y-74091667D02*
G01*
X110336678Y-75341667D01*
X110336678Y-72841667D01*
X111800000Y-74091667D01*
G37*
X181500000Y-100116667D02*
X180675000Y-100941667D01*
X180675000Y-99291667D01*
X181500000Y-100116667D01*
G36*
X181500000Y-100116667D02*
G01*
X180675000Y-100941667D01*
X180675000Y-99291667D01*
X181500000Y-100116667D01*
G37*
X131100000Y-99291667D02*
X129636678Y-100541667D01*
X129636678Y-98041667D01*
X131100000Y-99291667D01*
G36*
X131100000Y-99291667D02*
G01*
X129636678Y-100541667D01*
X129636678Y-98041667D01*
X131100000Y-99291667D01*
G37*
X111800000Y-124491667D02*
X110336678Y-125741667D01*
X110336678Y-123241667D01*
X111800000Y-124491667D01*
G36*
X111800000Y-124491667D02*
G01*
X110336678Y-125741667D01*
X110336678Y-123241667D01*
X111800000Y-124491667D01*
G37*
X162200000Y-124116667D02*
X161375000Y-124941667D01*
X161375000Y-123291667D01*
X162200000Y-124116667D01*
G36*
X162200000Y-124116667D02*
G01*
X161375000Y-124941667D01*
X161375000Y-123291667D01*
X162200000Y-124116667D01*
G37*
X181500000Y-76116667D02*
X180675000Y-76941667D01*
X180675000Y-75291667D01*
X181500000Y-76116667D01*
G36*
X181500000Y-76116667D02*
G01*
X180675000Y-76941667D01*
X180675000Y-75291667D01*
X181500000Y-76116667D01*
G37*
X181500000Y-124116667D02*
X180675000Y-124941667D01*
X180675000Y-123291667D01*
X181500000Y-124116667D01*
G36*
X181500000Y-124116667D02*
G01*
X180675000Y-124941667D01*
X180675000Y-123291667D01*
X181500000Y-124116667D01*
G37*
X131100000Y-124491667D02*
X129636678Y-125741667D01*
X129636678Y-123241667D01*
X131100000Y-124491667D01*
G36*
X131100000Y-124491667D02*
G01*
X129636678Y-125741667D01*
X129636678Y-123241667D01*
X131100000Y-124491667D01*
G37*
X131100000Y-74091667D02*
X129636678Y-75341667D01*
X129636678Y-72841667D01*
X131100000Y-74091667D01*
G36*
X131100000Y-74091667D02*
G01*
X129636678Y-75341667D01*
X129636678Y-72841667D01*
X131100000Y-74091667D01*
G37*
X111800000Y-99291667D02*
X110336678Y-100541667D01*
X110336678Y-98041667D01*
X111800000Y-99291667D01*
G36*
X111800000Y-99291667D02*
G01*
X110336678Y-100541667D01*
X110336678Y-98041667D01*
X111800000Y-99291667D01*
G37*
X162200000Y-76116667D02*
X161375000Y-76941667D01*
X161375000Y-75291667D01*
X162200000Y-76116667D01*
G36*
X162200000Y-76116667D02*
G01*
X161375000Y-76941667D01*
X161375000Y-75291667D01*
X162200000Y-76116667D01*
G37*
X162200000Y-100116667D02*
X161375000Y-100941667D01*
X161375000Y-99291667D01*
X162200000Y-100116667D01*
G36*
X162200000Y-100116667D02*
G01*
X161375000Y-100941667D01*
X161375000Y-99291667D01*
X162200000Y-100116667D01*
G37*
D11*
X103333333Y-57541486D02*
X103333333Y-58255771D01*
X103333333Y-58255771D02*
X103380952Y-58398628D01*
X103380952Y-58398628D02*
X103476190Y-58493867D01*
X103476190Y-58493867D02*
X103619047Y-58541486D01*
X103619047Y-58541486D02*
X103714285Y-58541486D01*
X102333333Y-58541486D02*
X102904761Y-58541486D01*
X102619047Y-58541486D02*
X102619047Y-57541486D01*
X102619047Y-57541486D02*
X102714285Y-57684343D01*
X102714285Y-57684343D02*
X102809523Y-57779581D01*
X102809523Y-57779581D02*
X102904761Y-57827200D01*
X149833333Y-59251486D02*
X149833333Y-59965771D01*
X149833333Y-59965771D02*
X149880952Y-60108628D01*
X149880952Y-60108628D02*
X149976190Y-60203867D01*
X149976190Y-60203867D02*
X150119047Y-60251486D01*
X150119047Y-60251486D02*
X150214285Y-60251486D01*
X148833333Y-60251486D02*
X149404761Y-60251486D01*
X149119047Y-60251486D02*
X149119047Y-59251486D01*
X149119047Y-59251486D02*
X149214285Y-59394343D01*
X149214285Y-59394343D02*
X149309523Y-59489581D01*
X149309523Y-59489581D02*
X149404761Y-59537200D01*
X169133333Y-59251486D02*
X169133333Y-59965771D01*
X169133333Y-59965771D02*
X169180952Y-60108628D01*
X169180952Y-60108628D02*
X169276190Y-60203867D01*
X169276190Y-60203867D02*
X169419047Y-60251486D01*
X169419047Y-60251486D02*
X169514285Y-60251486D01*
X168133333Y-60251486D02*
X168704761Y-60251486D01*
X168419047Y-60251486D02*
X168419047Y-59251486D01*
X168419047Y-59251486D02*
X168514285Y-59394343D01*
X168514285Y-59394343D02*
X168609523Y-59489581D01*
X168609523Y-59489581D02*
X168704761Y-59537200D01*
X136033333Y-82741486D02*
X136033333Y-83455771D01*
X136033333Y-83455771D02*
X136080952Y-83598628D01*
X136080952Y-83598628D02*
X136176190Y-83693867D01*
X136176190Y-83693867D02*
X136319047Y-83741486D01*
X136319047Y-83741486D02*
X136414285Y-83741486D01*
X135604761Y-82836724D02*
X135557142Y-82789105D01*
X135557142Y-82789105D02*
X135461904Y-82741486D01*
X135461904Y-82741486D02*
X135223809Y-82741486D01*
X135223809Y-82741486D02*
X135128571Y-82789105D01*
X135128571Y-82789105D02*
X135080952Y-82836724D01*
X135080952Y-82836724D02*
X135033333Y-82931962D01*
X135033333Y-82931962D02*
X135033333Y-83027200D01*
X135033333Y-83027200D02*
X135080952Y-83170057D01*
X135080952Y-83170057D02*
X135652380Y-83741486D01*
X135652380Y-83741486D02*
X135033333Y-83741486D01*
X122633333Y-57541486D02*
X122633333Y-58255771D01*
X122633333Y-58255771D02*
X122680952Y-58398628D01*
X122680952Y-58398628D02*
X122776190Y-58493867D01*
X122776190Y-58493867D02*
X122919047Y-58541486D01*
X122919047Y-58541486D02*
X123014285Y-58541486D01*
X121633333Y-58541486D02*
X122204761Y-58541486D01*
X121919047Y-58541486D02*
X121919047Y-57541486D01*
X121919047Y-57541486D02*
X122014285Y-57684343D01*
X122014285Y-57684343D02*
X122109523Y-57779581D01*
X122109523Y-57779581D02*
X122204761Y-57827200D01*
X122633333Y-82741486D02*
X122633333Y-83455771D01*
X122633333Y-83455771D02*
X122680952Y-83598628D01*
X122680952Y-83598628D02*
X122776190Y-83693867D01*
X122776190Y-83693867D02*
X122919047Y-83741486D01*
X122919047Y-83741486D02*
X123014285Y-83741486D01*
X121633333Y-83741486D02*
X122204761Y-83741486D01*
X121919047Y-83741486D02*
X121919047Y-82741486D01*
X121919047Y-82741486D02*
X122014285Y-82884343D01*
X122014285Y-82884343D02*
X122109523Y-82979581D01*
X122109523Y-82979581D02*
X122204761Y-83027200D01*
X169133333Y-83251486D02*
X169133333Y-83965771D01*
X169133333Y-83965771D02*
X169180952Y-84108628D01*
X169180952Y-84108628D02*
X169276190Y-84203867D01*
X169276190Y-84203867D02*
X169419047Y-84251486D01*
X169419047Y-84251486D02*
X169514285Y-84251486D01*
X168133333Y-84251486D02*
X168704761Y-84251486D01*
X168419047Y-84251486D02*
X168419047Y-83251486D01*
X168419047Y-83251486D02*
X168514285Y-83394343D01*
X168514285Y-83394343D02*
X168609523Y-83489581D01*
X168609523Y-83489581D02*
X168704761Y-83537200D01*
X136033333Y-57541486D02*
X136033333Y-58255771D01*
X136033333Y-58255771D02*
X136080952Y-58398628D01*
X136080952Y-58398628D02*
X136176190Y-58493867D01*
X136176190Y-58493867D02*
X136319047Y-58541486D01*
X136319047Y-58541486D02*
X136414285Y-58541486D01*
X135604761Y-57636724D02*
X135557142Y-57589105D01*
X135557142Y-57589105D02*
X135461904Y-57541486D01*
X135461904Y-57541486D02*
X135223809Y-57541486D01*
X135223809Y-57541486D02*
X135128571Y-57589105D01*
X135128571Y-57589105D02*
X135080952Y-57636724D01*
X135080952Y-57636724D02*
X135033333Y-57731962D01*
X135033333Y-57731962D02*
X135033333Y-57827200D01*
X135033333Y-57827200D02*
X135080952Y-57970057D01*
X135080952Y-57970057D02*
X135652380Y-58541486D01*
X135652380Y-58541486D02*
X135033333Y-58541486D01*
X163223333Y-107251486D02*
X163223333Y-107965771D01*
X163223333Y-107965771D02*
X163270952Y-108108628D01*
X163270952Y-108108628D02*
X163366190Y-108203867D01*
X163366190Y-108203867D02*
X163509047Y-108251486D01*
X163509047Y-108251486D02*
X163604285Y-108251486D01*
X162794761Y-107346724D02*
X162747142Y-107299105D01*
X162747142Y-107299105D02*
X162651904Y-107251486D01*
X162651904Y-107251486D02*
X162413809Y-107251486D01*
X162413809Y-107251486D02*
X162318571Y-107299105D01*
X162318571Y-107299105D02*
X162270952Y-107346724D01*
X162270952Y-107346724D02*
X162223333Y-107441962D01*
X162223333Y-107441962D02*
X162223333Y-107537200D01*
X162223333Y-107537200D02*
X162270952Y-107680057D01*
X162270952Y-107680057D02*
X162842380Y-108251486D01*
X162842380Y-108251486D02*
X162223333Y-108251486D01*
X163223333Y-83251486D02*
X163223333Y-83965771D01*
X163223333Y-83965771D02*
X163270952Y-84108628D01*
X163270952Y-84108628D02*
X163366190Y-84203867D01*
X163366190Y-84203867D02*
X163509047Y-84251486D01*
X163509047Y-84251486D02*
X163604285Y-84251486D01*
X162794761Y-83346724D02*
X162747142Y-83299105D01*
X162747142Y-83299105D02*
X162651904Y-83251486D01*
X162651904Y-83251486D02*
X162413809Y-83251486D01*
X162413809Y-83251486D02*
X162318571Y-83299105D01*
X162318571Y-83299105D02*
X162270952Y-83346724D01*
X162270952Y-83346724D02*
X162223333Y-83441962D01*
X162223333Y-83441962D02*
X162223333Y-83537200D01*
X162223333Y-83537200D02*
X162270952Y-83680057D01*
X162270952Y-83680057D02*
X162842380Y-84251486D01*
X162842380Y-84251486D02*
X162223333Y-84251486D01*
X103333333Y-82741486D02*
X103333333Y-83455771D01*
X103333333Y-83455771D02*
X103380952Y-83598628D01*
X103380952Y-83598628D02*
X103476190Y-83693867D01*
X103476190Y-83693867D02*
X103619047Y-83741486D01*
X103619047Y-83741486D02*
X103714285Y-83741486D01*
X102333333Y-83741486D02*
X102904761Y-83741486D01*
X102619047Y-83741486D02*
X102619047Y-82741486D01*
X102619047Y-82741486D02*
X102714285Y-82884343D01*
X102714285Y-82884343D02*
X102809523Y-82979581D01*
X102809523Y-82979581D02*
X102904761Y-83027200D01*
X182523333Y-107251486D02*
X182523333Y-107965771D01*
X182523333Y-107965771D02*
X182570952Y-108108628D01*
X182570952Y-108108628D02*
X182666190Y-108203867D01*
X182666190Y-108203867D02*
X182809047Y-108251486D01*
X182809047Y-108251486D02*
X182904285Y-108251486D01*
X182094761Y-107346724D02*
X182047142Y-107299105D01*
X182047142Y-107299105D02*
X181951904Y-107251486D01*
X181951904Y-107251486D02*
X181713809Y-107251486D01*
X181713809Y-107251486D02*
X181618571Y-107299105D01*
X181618571Y-107299105D02*
X181570952Y-107346724D01*
X181570952Y-107346724D02*
X181523333Y-107441962D01*
X181523333Y-107441962D02*
X181523333Y-107537200D01*
X181523333Y-107537200D02*
X181570952Y-107680057D01*
X181570952Y-107680057D02*
X182142380Y-108251486D01*
X182142380Y-108251486D02*
X181523333Y-108251486D01*
X122633333Y-107941486D02*
X122633333Y-108655771D01*
X122633333Y-108655771D02*
X122680952Y-108798628D01*
X122680952Y-108798628D02*
X122776190Y-108893867D01*
X122776190Y-108893867D02*
X122919047Y-108941486D01*
X122919047Y-108941486D02*
X123014285Y-108941486D01*
X121633333Y-108941486D02*
X122204761Y-108941486D01*
X121919047Y-108941486D02*
X121919047Y-107941486D01*
X121919047Y-107941486D02*
X122014285Y-108084343D01*
X122014285Y-108084343D02*
X122109523Y-108179581D01*
X122109523Y-108179581D02*
X122204761Y-108227200D01*
X169133333Y-107251486D02*
X169133333Y-107965771D01*
X169133333Y-107965771D02*
X169180952Y-108108628D01*
X169180952Y-108108628D02*
X169276190Y-108203867D01*
X169276190Y-108203867D02*
X169419047Y-108251486D01*
X169419047Y-108251486D02*
X169514285Y-108251486D01*
X168133333Y-108251486D02*
X168704761Y-108251486D01*
X168419047Y-108251486D02*
X168419047Y-107251486D01*
X168419047Y-107251486D02*
X168514285Y-107394343D01*
X168514285Y-107394343D02*
X168609523Y-107489581D01*
X168609523Y-107489581D02*
X168704761Y-107537200D01*
X182523333Y-83251486D02*
X182523333Y-83965771D01*
X182523333Y-83965771D02*
X182570952Y-84108628D01*
X182570952Y-84108628D02*
X182666190Y-84203867D01*
X182666190Y-84203867D02*
X182809047Y-84251486D01*
X182809047Y-84251486D02*
X182904285Y-84251486D01*
X182094761Y-83346724D02*
X182047142Y-83299105D01*
X182047142Y-83299105D02*
X181951904Y-83251486D01*
X181951904Y-83251486D02*
X181713809Y-83251486D01*
X181713809Y-83251486D02*
X181618571Y-83299105D01*
X181618571Y-83299105D02*
X181570952Y-83346724D01*
X181570952Y-83346724D02*
X181523333Y-83441962D01*
X181523333Y-83441962D02*
X181523333Y-83537200D01*
X181523333Y-83537200D02*
X181570952Y-83680057D01*
X181570952Y-83680057D02*
X182142380Y-84251486D01*
X182142380Y-84251486D02*
X181523333Y-84251486D01*
X116733333Y-57541486D02*
X116733333Y-58255771D01*
X116733333Y-58255771D02*
X116780952Y-58398628D01*
X116780952Y-58398628D02*
X116876190Y-58493867D01*
X116876190Y-58493867D02*
X117019047Y-58541486D01*
X117019047Y-58541486D02*
X117114285Y-58541486D01*
X116304761Y-57636724D02*
X116257142Y-57589105D01*
X116257142Y-57589105D02*
X116161904Y-57541486D01*
X116161904Y-57541486D02*
X115923809Y-57541486D01*
X115923809Y-57541486D02*
X115828571Y-57589105D01*
X115828571Y-57589105D02*
X115780952Y-57636724D01*
X115780952Y-57636724D02*
X115733333Y-57731962D01*
X115733333Y-57731962D02*
X115733333Y-57827200D01*
X115733333Y-57827200D02*
X115780952Y-57970057D01*
X115780952Y-57970057D02*
X116352380Y-58541486D01*
X116352380Y-58541486D02*
X115733333Y-58541486D01*
X116733333Y-107941486D02*
X116733333Y-108655771D01*
X116733333Y-108655771D02*
X116780952Y-108798628D01*
X116780952Y-108798628D02*
X116876190Y-108893867D01*
X116876190Y-108893867D02*
X117019047Y-108941486D01*
X117019047Y-108941486D02*
X117114285Y-108941486D01*
X116304761Y-108036724D02*
X116257142Y-107989105D01*
X116257142Y-107989105D02*
X116161904Y-107941486D01*
X116161904Y-107941486D02*
X115923809Y-107941486D01*
X115923809Y-107941486D02*
X115828571Y-107989105D01*
X115828571Y-107989105D02*
X115780952Y-108036724D01*
X115780952Y-108036724D02*
X115733333Y-108131962D01*
X115733333Y-108131962D02*
X115733333Y-108227200D01*
X115733333Y-108227200D02*
X115780952Y-108370057D01*
X115780952Y-108370057D02*
X116352380Y-108941486D01*
X116352380Y-108941486D02*
X115733333Y-108941486D01*
X103333333Y-107941486D02*
X103333333Y-108655771D01*
X103333333Y-108655771D02*
X103380952Y-108798628D01*
X103380952Y-108798628D02*
X103476190Y-108893867D01*
X103476190Y-108893867D02*
X103619047Y-108941486D01*
X103619047Y-108941486D02*
X103714285Y-108941486D01*
X102333333Y-108941486D02*
X102904761Y-108941486D01*
X102619047Y-108941486D02*
X102619047Y-107941486D01*
X102619047Y-107941486D02*
X102714285Y-108084343D01*
X102714285Y-108084343D02*
X102809523Y-108179581D01*
X102809523Y-108179581D02*
X102904761Y-108227200D01*
X149833333Y-83251486D02*
X149833333Y-83965771D01*
X149833333Y-83965771D02*
X149880952Y-84108628D01*
X149880952Y-84108628D02*
X149976190Y-84203867D01*
X149976190Y-84203867D02*
X150119047Y-84251486D01*
X150119047Y-84251486D02*
X150214285Y-84251486D01*
X148833333Y-84251486D02*
X149404761Y-84251486D01*
X149119047Y-84251486D02*
X149119047Y-83251486D01*
X149119047Y-83251486D02*
X149214285Y-83394343D01*
X149214285Y-83394343D02*
X149309523Y-83489581D01*
X149309523Y-83489581D02*
X149404761Y-83537200D01*
X149833333Y-107251486D02*
X149833333Y-107965771D01*
X149833333Y-107965771D02*
X149880952Y-108108628D01*
X149880952Y-108108628D02*
X149976190Y-108203867D01*
X149976190Y-108203867D02*
X150119047Y-108251486D01*
X150119047Y-108251486D02*
X150214285Y-108251486D01*
X148833333Y-108251486D02*
X149404761Y-108251486D01*
X149119047Y-108251486D02*
X149119047Y-107251486D01*
X149119047Y-107251486D02*
X149214285Y-107394343D01*
X149214285Y-107394343D02*
X149309523Y-107489581D01*
X149309523Y-107489581D02*
X149404761Y-107537200D01*
X182523333Y-59251486D02*
X182523333Y-59965771D01*
X182523333Y-59965771D02*
X182570952Y-60108628D01*
X182570952Y-60108628D02*
X182666190Y-60203867D01*
X182666190Y-60203867D02*
X182809047Y-60251486D01*
X182809047Y-60251486D02*
X182904285Y-60251486D01*
X182094761Y-59346724D02*
X182047142Y-59299105D01*
X182047142Y-59299105D02*
X181951904Y-59251486D01*
X181951904Y-59251486D02*
X181713809Y-59251486D01*
X181713809Y-59251486D02*
X181618571Y-59299105D01*
X181618571Y-59299105D02*
X181570952Y-59346724D01*
X181570952Y-59346724D02*
X181523333Y-59441962D01*
X181523333Y-59441962D02*
X181523333Y-59537200D01*
X181523333Y-59537200D02*
X181570952Y-59680057D01*
X181570952Y-59680057D02*
X182142380Y-60251486D01*
X182142380Y-60251486D02*
X181523333Y-60251486D01*
X136033333Y-107941486D02*
X136033333Y-108655771D01*
X136033333Y-108655771D02*
X136080952Y-108798628D01*
X136080952Y-108798628D02*
X136176190Y-108893867D01*
X136176190Y-108893867D02*
X136319047Y-108941486D01*
X136319047Y-108941486D02*
X136414285Y-108941486D01*
X135604761Y-108036724D02*
X135557142Y-107989105D01*
X135557142Y-107989105D02*
X135461904Y-107941486D01*
X135461904Y-107941486D02*
X135223809Y-107941486D01*
X135223809Y-107941486D02*
X135128571Y-107989105D01*
X135128571Y-107989105D02*
X135080952Y-108036724D01*
X135080952Y-108036724D02*
X135033333Y-108131962D01*
X135033333Y-108131962D02*
X135033333Y-108227200D01*
X135033333Y-108227200D02*
X135080952Y-108370057D01*
X135080952Y-108370057D02*
X135652380Y-108941486D01*
X135652380Y-108941486D02*
X135033333Y-108941486D01*
X163223333Y-59251486D02*
X163223333Y-59965771D01*
X163223333Y-59965771D02*
X163270952Y-60108628D01*
X163270952Y-60108628D02*
X163366190Y-60203867D01*
X163366190Y-60203867D02*
X163509047Y-60251486D01*
X163509047Y-60251486D02*
X163604285Y-60251486D01*
X162794761Y-59346724D02*
X162747142Y-59299105D01*
X162747142Y-59299105D02*
X162651904Y-59251486D01*
X162651904Y-59251486D02*
X162413809Y-59251486D01*
X162413809Y-59251486D02*
X162318571Y-59299105D01*
X162318571Y-59299105D02*
X162270952Y-59346724D01*
X162270952Y-59346724D02*
X162223333Y-59441962D01*
X162223333Y-59441962D02*
X162223333Y-59537200D01*
X162223333Y-59537200D02*
X162270952Y-59680057D01*
X162270952Y-59680057D02*
X162842380Y-60251486D01*
X162842380Y-60251486D02*
X162223333Y-60251486D01*
X116733333Y-82741486D02*
X116733333Y-83455771D01*
X116733333Y-83455771D02*
X116780952Y-83598628D01*
X116780952Y-83598628D02*
X116876190Y-83693867D01*
X116876190Y-83693867D02*
X117019047Y-83741486D01*
X117019047Y-83741486D02*
X117114285Y-83741486D01*
X116304761Y-82836724D02*
X116257142Y-82789105D01*
X116257142Y-82789105D02*
X116161904Y-82741486D01*
X116161904Y-82741486D02*
X115923809Y-82741486D01*
X115923809Y-82741486D02*
X115828571Y-82789105D01*
X115828571Y-82789105D02*
X115780952Y-82836724D01*
X115780952Y-82836724D02*
X115733333Y-82931962D01*
X115733333Y-82931962D02*
X115733333Y-83027200D01*
X115733333Y-83027200D02*
X115780952Y-83170057D01*
X115780952Y-83170057D02*
X116352380Y-83741486D01*
X116352380Y-83741486D02*
X115733333Y-83741486D01*
D12*
%TO.C,J1*%
X101670000Y-61686667D02*
X104330000Y-61686667D01*
X101670000Y-76986667D02*
X101670000Y-61686667D01*
X101670000Y-76986667D02*
X104330000Y-76986667D01*
X103000000Y-59086667D02*
X104330000Y-59086667D01*
X104330000Y-59086667D02*
X104330000Y-60416667D01*
X104330000Y-76986667D02*
X104330000Y-61686667D01*
%TO.C,C2*%
X112815000Y-122105415D02*
X112815000Y-122627919D01*
X114285000Y-122105415D02*
X114285000Y-122627919D01*
%TO.C,J1*%
X148170000Y-63396667D02*
X150830000Y-63396667D01*
X148170000Y-78696667D02*
X148170000Y-63396667D01*
X148170000Y-78696667D02*
X150830000Y-78696667D01*
X149500000Y-60796667D02*
X150830000Y-60796667D01*
X150830000Y-60796667D02*
X150830000Y-62126667D01*
X150830000Y-78696667D02*
X150830000Y-63396667D01*
%TO.C,C2*%
X132115000Y-122105415D02*
X132115000Y-122627919D01*
X133585000Y-122105415D02*
X133585000Y-122627919D01*
%TO.C,J1*%
X167470000Y-63396667D02*
X170130000Y-63396667D01*
X167470000Y-78696667D02*
X167470000Y-63396667D01*
X167470000Y-78696667D02*
X170130000Y-78696667D01*
X168800000Y-60796667D02*
X170130000Y-60796667D01*
X170130000Y-60796667D02*
X170130000Y-62126667D01*
X170130000Y-78696667D02*
X170130000Y-63396667D01*
%TO.C,J2*%
X134370000Y-86886667D02*
X137030000Y-86886667D01*
X134370000Y-102186667D02*
X134370000Y-86886667D01*
X134370000Y-102186667D02*
X137030000Y-102186667D01*
X135700000Y-84286667D02*
X137030000Y-84286667D01*
X137030000Y-84286667D02*
X137030000Y-85616667D01*
X137030000Y-102186667D02*
X137030000Y-86886667D01*
%TO.C,J1*%
X120970000Y-61686667D02*
X123630000Y-61686667D01*
X120970000Y-76986667D02*
X120970000Y-61686667D01*
X120970000Y-76986667D02*
X123630000Y-76986667D01*
X122300000Y-59086667D02*
X123630000Y-59086667D01*
X123630000Y-59086667D02*
X123630000Y-60416667D01*
X123630000Y-76986667D02*
X123630000Y-61686667D01*
%TO.C,C2*%
X112815000Y-71705415D02*
X112815000Y-72227919D01*
X114285000Y-71705415D02*
X114285000Y-72227919D01*
X132115000Y-71705415D02*
X132115000Y-72227919D01*
X133585000Y-71705415D02*
X133585000Y-72227919D01*
X112815000Y-96905415D02*
X112815000Y-97427919D01*
X114285000Y-96905415D02*
X114285000Y-97427919D01*
%TO.C,J1*%
X120970000Y-86886667D02*
X123630000Y-86886667D01*
X120970000Y-102186667D02*
X120970000Y-86886667D01*
X120970000Y-102186667D02*
X123630000Y-102186667D01*
X122300000Y-84286667D02*
X123630000Y-84286667D01*
X123630000Y-84286667D02*
X123630000Y-85616667D01*
X123630000Y-102186667D02*
X123630000Y-86886667D01*
X167470000Y-87396667D02*
X170130000Y-87396667D01*
X167470000Y-102696667D02*
X167470000Y-87396667D01*
X167470000Y-102696667D02*
X170130000Y-102696667D01*
X168800000Y-84796667D02*
X170130000Y-84796667D01*
X170130000Y-84796667D02*
X170130000Y-86126667D01*
X170130000Y-102696667D02*
X170130000Y-87396667D01*
%TO.C,J2*%
X134370000Y-61686667D02*
X137030000Y-61686667D01*
X134370000Y-76986667D02*
X134370000Y-61686667D01*
X134370000Y-76986667D02*
X137030000Y-76986667D01*
X135700000Y-59086667D02*
X137030000Y-59086667D01*
X137030000Y-59086667D02*
X137030000Y-60416667D01*
X137030000Y-76986667D02*
X137030000Y-61686667D01*
X161560000Y-111396667D02*
X164220000Y-111396667D01*
X161560000Y-126696667D02*
X161560000Y-111396667D01*
X161560000Y-126696667D02*
X164220000Y-126696667D01*
X162890000Y-108796667D02*
X164220000Y-108796667D01*
X164220000Y-108796667D02*
X164220000Y-110126667D01*
X164220000Y-126696667D02*
X164220000Y-111396667D01*
X161560000Y-87396667D02*
X164220000Y-87396667D01*
X161560000Y-102696667D02*
X161560000Y-87396667D01*
X161560000Y-102696667D02*
X164220000Y-102696667D01*
X162890000Y-84796667D02*
X164220000Y-84796667D01*
X164220000Y-84796667D02*
X164220000Y-86126667D01*
X164220000Y-102696667D02*
X164220000Y-87396667D01*
%TO.C,C2*%
X132115000Y-96905415D02*
X132115000Y-97427919D01*
X133585000Y-96905415D02*
X133585000Y-97427919D01*
%TO.C,J1*%
X101670000Y-86886667D02*
X104330000Y-86886667D01*
X101670000Y-102186667D02*
X101670000Y-86886667D01*
X101670000Y-102186667D02*
X104330000Y-102186667D01*
X103000000Y-84286667D02*
X104330000Y-84286667D01*
X104330000Y-84286667D02*
X104330000Y-85616667D01*
X104330000Y-102186667D02*
X104330000Y-86886667D01*
%TO.C,J2*%
X180860000Y-111396667D02*
X183520000Y-111396667D01*
X180860000Y-126696667D02*
X180860000Y-111396667D01*
X180860000Y-126696667D02*
X183520000Y-126696667D01*
X182190000Y-108796667D02*
X183520000Y-108796667D01*
X183520000Y-108796667D02*
X183520000Y-110126667D01*
X183520000Y-126696667D02*
X183520000Y-111396667D01*
%TO.C,J1*%
X120970000Y-112086667D02*
X123630000Y-112086667D01*
X120970000Y-127386667D02*
X120970000Y-112086667D01*
X120970000Y-127386667D02*
X123630000Y-127386667D01*
X122300000Y-109486667D02*
X123630000Y-109486667D01*
X123630000Y-109486667D02*
X123630000Y-110816667D01*
X123630000Y-127386667D02*
X123630000Y-112086667D01*
%TO.C,C1*%
X132115000Y-114355415D02*
X132115000Y-114877919D01*
X133585000Y-114355415D02*
X133585000Y-114877919D01*
%TO.C,J1*%
X167470000Y-111396667D02*
X170130000Y-111396667D01*
X167470000Y-126696667D02*
X167470000Y-111396667D01*
X167470000Y-126696667D02*
X170130000Y-126696667D01*
X168800000Y-108796667D02*
X170130000Y-108796667D01*
X170130000Y-108796667D02*
X170130000Y-110126667D01*
X170130000Y-126696667D02*
X170130000Y-111396667D01*
%TO.C,C1*%
X112815000Y-63955415D02*
X112815000Y-64477919D01*
X114285000Y-63955415D02*
X114285000Y-64477919D01*
%TO.C,J2*%
X180860000Y-87396667D02*
X183520000Y-87396667D01*
X180860000Y-102696667D02*
X180860000Y-87396667D01*
X180860000Y-102696667D02*
X183520000Y-102696667D01*
X182190000Y-84796667D02*
X183520000Y-84796667D01*
X183520000Y-84796667D02*
X183520000Y-86126667D01*
X183520000Y-102696667D02*
X183520000Y-87396667D01*
X115070000Y-61686667D02*
X117730000Y-61686667D01*
X115070000Y-76986667D02*
X115070000Y-61686667D01*
X115070000Y-76986667D02*
X117730000Y-76986667D01*
X116400000Y-59086667D02*
X117730000Y-59086667D01*
X117730000Y-59086667D02*
X117730000Y-60416667D01*
X117730000Y-76986667D02*
X117730000Y-61686667D01*
X115070000Y-112086667D02*
X117730000Y-112086667D01*
X115070000Y-127386667D02*
X115070000Y-112086667D01*
X115070000Y-127386667D02*
X117730000Y-127386667D01*
X116400000Y-109486667D02*
X117730000Y-109486667D01*
X117730000Y-109486667D02*
X117730000Y-110816667D01*
X117730000Y-127386667D02*
X117730000Y-112086667D01*
%TO.C,C1*%
X112815000Y-114355415D02*
X112815000Y-114877919D01*
X114285000Y-114355415D02*
X114285000Y-114877919D01*
%TO.C,J1*%
X101670000Y-112086667D02*
X104330000Y-112086667D01*
X101670000Y-127386667D02*
X101670000Y-112086667D01*
X101670000Y-127386667D02*
X104330000Y-127386667D01*
X103000000Y-109486667D02*
X104330000Y-109486667D01*
X104330000Y-109486667D02*
X104330000Y-110816667D01*
X104330000Y-127386667D02*
X104330000Y-112086667D01*
X148170000Y-87396667D02*
X150830000Y-87396667D01*
X148170000Y-102696667D02*
X148170000Y-87396667D01*
X148170000Y-102696667D02*
X150830000Y-102696667D01*
X149500000Y-84796667D02*
X150830000Y-84796667D01*
X150830000Y-84796667D02*
X150830000Y-86126667D01*
X150830000Y-102696667D02*
X150830000Y-87396667D01*
X148170000Y-111396667D02*
X150830000Y-111396667D01*
X148170000Y-126696667D02*
X148170000Y-111396667D01*
X148170000Y-126696667D02*
X150830000Y-126696667D01*
X149500000Y-108796667D02*
X150830000Y-108796667D01*
X150830000Y-108796667D02*
X150830000Y-110126667D01*
X150830000Y-126696667D02*
X150830000Y-111396667D01*
%TO.C,C1*%
X132115000Y-89155415D02*
X132115000Y-89677919D01*
X133585000Y-89155415D02*
X133585000Y-89677919D01*
X112815000Y-89155415D02*
X112815000Y-89677919D01*
X114285000Y-89155415D02*
X114285000Y-89677919D01*
%TO.C,J2*%
X180860000Y-63396667D02*
X183520000Y-63396667D01*
X180860000Y-78696667D02*
X180860000Y-63396667D01*
X180860000Y-78696667D02*
X183520000Y-78696667D01*
X182190000Y-60796667D02*
X183520000Y-60796667D01*
X183520000Y-60796667D02*
X183520000Y-62126667D01*
X183520000Y-78696667D02*
X183520000Y-63396667D01*
X134370000Y-112086667D02*
X137030000Y-112086667D01*
X134370000Y-127386667D02*
X134370000Y-112086667D01*
X134370000Y-127386667D02*
X137030000Y-127386667D01*
X135700000Y-109486667D02*
X137030000Y-109486667D01*
X137030000Y-109486667D02*
X137030000Y-110816667D01*
X137030000Y-127386667D02*
X137030000Y-112086667D01*
X161560000Y-63396667D02*
X164220000Y-63396667D01*
X161560000Y-78696667D02*
X161560000Y-63396667D01*
X161560000Y-78696667D02*
X164220000Y-78696667D01*
X162890000Y-60796667D02*
X164220000Y-60796667D01*
X164220000Y-60796667D02*
X164220000Y-62126667D01*
X164220000Y-78696667D02*
X164220000Y-63396667D01*
X115070000Y-86886667D02*
X117730000Y-86886667D01*
X115070000Y-102186667D02*
X115070000Y-86886667D01*
X115070000Y-102186667D02*
X117730000Y-102186667D01*
X116400000Y-84286667D02*
X117730000Y-84286667D01*
X117730000Y-84286667D02*
X117730000Y-85616667D01*
X117730000Y-102186667D02*
X117730000Y-86886667D01*
%TO.C,C1*%
X132115000Y-63955415D02*
X132115000Y-64477919D01*
X133585000Y-63955415D02*
X133585000Y-64477919D01*
%TD*%
M02*
