M48
; DRILL file {KiCad 8.0.4} date 2024-09-16T18:14:24-0300
; FORMAT={-:-/ absolute / metric / decimal}
; #@! TF.CreationDate,2024-09-16T18:14:24-03:00
; #@! TF.GenerationSoftware,Kicad,Pcbnew,8.0.4
; #@! TF.FileFunction,NonPlated,1,2,NPTH
FMAT,2
METRIC
; #@! TA.AperFunction,NonPlated,NPTH,ComponentDrill
T1C0.500
%
G90
G05
T1
X-57.8Y-122.567
X64.0Y-65.2
X64.0Y-136.8
X64.8Y-65.2
X64.8Y-136.8
X65.6Y-65.2
X65.6Y-136.8
X66.4Y-65.2
X66.4Y-136.8
X67.2Y-65.2
X67.2Y-136.8
X68.0Y-65.2
X68.0Y-136.8
X68.8Y-65.2
X68.8Y-136.8
X69.6Y-65.2
X69.6Y-136.8
X70.4Y-65.2
X70.4Y-136.8
X73.2Y-70.267
X73.2Y-71.067
X73.2Y-71.867
X73.2Y-72.667
X73.2Y-73.467
X73.2Y-74.267
X73.2Y-77.333
X73.2Y-78.133
X73.2Y-78.933
X73.2Y-79.733
X73.2Y-80.533
X73.2Y-81.333
X73.2Y-95.467
X73.2Y-96.267
X73.2Y-97.067
X73.2Y-97.867
X73.2Y-98.667
X73.2Y-99.467
X73.2Y-102.533
X73.2Y-103.333
X73.2Y-104.133
X73.2Y-104.933
X73.2Y-105.733
X73.2Y-106.533
X73.2Y-120.667
X73.2Y-121.467
X73.2Y-122.267
X73.2Y-123.067
X73.2Y-123.867
X73.2Y-124.667
X73.2Y-127.733
X73.2Y-128.533
X73.2Y-129.333
X73.2Y-130.133
X73.2Y-130.933
X73.2Y-131.733
X79.05Y-65.0
X79.05Y-86.6
X79.05Y-90.2
X79.05Y-111.8
X79.05Y-115.4
X79.05Y-137.0
X79.883Y-65.0
X79.883Y-86.6
X79.883Y-90.2
X79.883Y-111.8
X79.883Y-115.4
X79.883Y-137.0
X80.717Y-65.0
X80.717Y-86.6
X80.717Y-90.2
X80.717Y-111.8
X80.717Y-115.4
X80.717Y-137.0
X81.55Y-65.0
X81.55Y-86.6
X81.55Y-90.2
X81.55Y-111.8
X81.55Y-115.4
X81.55Y-137.0
X82.383Y-65.0
X82.383Y-86.6
X82.383Y-90.2
X82.383Y-111.8
X82.383Y-115.4
X82.383Y-137.0
X83.217Y-65.0
X83.217Y-86.6
X83.217Y-90.2
X83.217Y-111.8
X83.217Y-115.4
X83.217Y-137.0
X84.05Y-65.0
X84.05Y-86.6
X84.05Y-90.2
X84.05Y-111.8
X84.05Y-115.4
X84.05Y-137.0
X89.9Y-70.267
X89.9Y-71.067
X89.9Y-71.867
X89.9Y-72.667
X89.9Y-73.467
X89.9Y-74.267
X89.9Y-77.333
X89.9Y-78.133
X89.9Y-78.933
X89.9Y-79.733
X89.9Y-80.533
X89.9Y-81.333
X89.9Y-95.467
X89.9Y-96.267
X89.9Y-97.067
X89.9Y-97.867
X89.9Y-98.667
X89.9Y-99.467
X89.9Y-102.533
X89.9Y-103.333
X89.9Y-104.133
X89.9Y-104.933
X89.9Y-105.733
X89.9Y-106.533
X89.9Y-120.667
X89.9Y-121.467
X89.9Y-122.267
X89.9Y-123.067
X89.9Y-123.867
X89.9Y-124.667
X89.9Y-127.733
X89.9Y-128.533
X89.9Y-129.333
X89.9Y-130.133
X89.9Y-130.933
X89.9Y-131.733
X92.5Y-70.267
X92.5Y-71.067
X92.5Y-71.867
X92.5Y-72.667
X92.5Y-73.467
X92.5Y-74.267
X92.5Y-77.333
X92.5Y-78.133
X92.5Y-78.933
X92.5Y-79.733
X92.5Y-80.533
X92.5Y-81.333
X92.5Y-95.467
X92.5Y-96.267
X92.5Y-97.067
X92.5Y-97.867
X92.5Y-98.667
X92.5Y-99.467
X92.5Y-102.533
X92.5Y-103.333
X92.5Y-104.133
X92.5Y-104.933
X92.5Y-105.733
X92.5Y-106.533
X92.5Y-120.667
X92.5Y-121.467
X92.5Y-122.267
X92.5Y-123.067
X92.5Y-123.867
X92.5Y-124.667
X92.5Y-127.733
X92.5Y-128.533
X92.5Y-129.333
X92.5Y-130.133
X92.5Y-130.933
X92.5Y-131.733
X98.35Y-65.0
X98.35Y-86.6
X98.35Y-90.2
X98.35Y-111.8
X98.35Y-115.4
X98.35Y-137.0
X99.183Y-65.0
X99.183Y-86.6
X99.183Y-90.2
X99.183Y-111.8
X99.183Y-115.4
X99.183Y-137.0
X100.017Y-65.0
X100.017Y-86.6
X100.017Y-90.2
X100.017Y-111.8
X100.017Y-115.4
X100.017Y-137.0
X100.85Y-65.0
X100.85Y-86.6
X100.85Y-90.2
X100.85Y-111.8
X100.85Y-115.4
X100.85Y-137.0
X101.683Y-65.0
X101.683Y-86.6
X101.683Y-90.2
X101.683Y-111.8
X101.683Y-115.4
X101.683Y-137.0
X102.517Y-65.0
X102.517Y-86.6
X102.517Y-90.2
X102.517Y-111.8
X102.517Y-115.4
X102.517Y-137.0
X103.35Y-65.0
X103.35Y-86.6
X103.35Y-90.2
X103.35Y-111.8
X103.35Y-115.4
X103.35Y-137.0
X109.2Y-70.267
X109.2Y-71.067
X109.2Y-71.867
X109.2Y-72.667
X109.2Y-73.467
X109.2Y-74.267
X109.2Y-77.333
X109.2Y-78.133
X109.2Y-78.933
X109.2Y-79.733
X109.2Y-80.533
X109.2Y-81.333
X109.2Y-95.467
X109.2Y-96.267
X109.2Y-97.067
X109.2Y-97.867
X109.2Y-98.667
X109.2Y-99.467
X109.2Y-102.533
X109.2Y-103.333
X109.2Y-104.133
X109.2Y-104.933
X109.2Y-105.733
X109.2Y-106.533
X109.2Y-120.667
X109.2Y-121.467
X109.2Y-122.267
X109.2Y-123.067
X109.2Y-123.867
X109.2Y-124.667
X109.2Y-127.733
X109.2Y-128.533
X109.2Y-129.333
X109.2Y-130.133
X109.2Y-130.933
X109.2Y-131.733
X112.1Y-66.7
X112.1Y-137.05
X112.9Y-66.7
X112.9Y-137.05
X113.7Y-66.7
X113.7Y-137.05
X114.5Y-66.7
X114.5Y-137.05
X115.3Y-66.7
X115.3Y-137.05
X116.1Y-66.7
X116.1Y-137.05
X116.9Y-66.7
X116.9Y-137.05
X119.8Y-72.583
X119.8Y-73.583
X119.8Y-74.583
X119.8Y-75.583
X119.8Y-78.917
X119.8Y-79.917
X119.8Y-80.917
X119.8Y-81.917
X119.8Y-96.333
X119.8Y-97.333
X119.8Y-98.333
X119.8Y-99.333
X119.8Y-102.667
X119.8Y-103.667
X119.8Y-104.667
X119.8Y-105.667
X119.8Y-120.083
X119.8Y-121.083
X119.8Y-122.083
X119.8Y-123.083
X119.8Y-126.417
X119.8Y-127.417
X119.8Y-128.417
X119.8Y-129.417
X125.65Y-67.55
X125.65Y-86.95
X125.65Y-91.3
X125.65Y-110.7
X125.65Y-115.05
X125.65Y-134.45
X126.483Y-67.55
X126.483Y-86.95
X126.483Y-91.3
X126.483Y-110.7
X126.483Y-115.05
X126.483Y-134.45
X127.317Y-67.55
X127.317Y-86.95
X127.317Y-91.3
X127.317Y-110.7
X127.317Y-115.05
X127.317Y-134.45
X128.15Y-67.55
X128.15Y-86.95
X128.15Y-91.3
X128.15Y-110.7
X128.15Y-115.05
X128.15Y-134.45
X128.983Y-67.55
X128.983Y-86.95
X128.983Y-91.3
X128.983Y-110.7
X128.983Y-115.05
X128.983Y-134.45
X129.817Y-67.55
X129.817Y-86.95
X129.817Y-91.3
X129.817Y-110.7
X129.817Y-115.05
X129.817Y-134.45
X130.65Y-67.55
X130.65Y-86.95
X130.65Y-91.3
X130.65Y-110.7
X130.65Y-115.05
X130.65Y-134.45
X136.5Y-72.583
X136.5Y-73.583
X136.5Y-74.583
X136.5Y-75.583
X136.5Y-78.917
X136.5Y-79.917
X136.5Y-80.917
X136.5Y-81.917
X136.5Y-96.333
X136.5Y-97.333
X136.5Y-98.333
X136.5Y-99.333
X136.5Y-102.667
X136.5Y-103.667
X136.5Y-104.667
X136.5Y-105.667
X136.5Y-120.083
X136.5Y-121.083
X136.5Y-122.083
X136.5Y-123.083
X136.5Y-126.417
X136.5Y-127.417
X136.5Y-128.417
X136.5Y-129.417
X139.1Y-72.583
X139.1Y-73.583
X139.1Y-74.583
X139.1Y-75.583
X139.1Y-78.917
X139.1Y-79.917
X139.1Y-80.917
X139.1Y-81.917
X139.1Y-96.333
X139.1Y-97.333
X139.1Y-98.333
X139.1Y-99.333
X139.1Y-102.667
X139.1Y-103.667
X139.1Y-104.667
X139.1Y-105.667
X139.1Y-120.083
X139.1Y-121.083
X139.1Y-122.083
X139.1Y-123.083
X139.1Y-126.417
X139.1Y-127.417
X139.1Y-128.417
X139.1Y-129.417
X144.95Y-67.55
X144.95Y-86.95
X144.95Y-91.3
X144.95Y-110.7
X144.95Y-115.05
X144.95Y-134.45
X145.783Y-67.55
X145.783Y-86.95
X145.783Y-91.3
X145.783Y-110.7
X145.783Y-115.05
X145.783Y-134.45
X146.617Y-67.55
X146.617Y-86.95
X146.617Y-91.3
X146.617Y-110.7
X146.617Y-115.05
X146.617Y-134.45
X147.45Y-67.55
X147.45Y-86.95
X147.45Y-91.3
X147.45Y-110.7
X147.45Y-115.05
X147.45Y-134.45
X148.283Y-67.55
X148.283Y-86.95
X148.283Y-91.3
X148.283Y-110.7
X148.283Y-115.05
X148.283Y-134.45
X149.117Y-67.55
X149.117Y-86.95
X149.117Y-91.3
X149.117Y-110.7
X149.117Y-115.05
X149.117Y-134.45
X149.95Y-67.55
X149.95Y-86.95
X149.95Y-91.3
X149.95Y-110.7
X149.95Y-115.05
X149.95Y-134.45
X155.8Y-72.583
X155.8Y-73.583
X155.8Y-74.583
X155.8Y-75.583
X155.8Y-78.917
X155.8Y-79.917
X155.8Y-80.917
X155.8Y-81.917
X155.8Y-96.333
X155.8Y-97.333
X155.8Y-98.333
X155.8Y-99.333
X155.8Y-102.667
X155.8Y-103.667
X155.8Y-104.667
X155.8Y-105.667
X155.8Y-120.083
X155.8Y-121.083
X155.8Y-122.083
X155.8Y-123.083
X155.8Y-126.417
X155.8Y-127.417
X155.8Y-128.417
X155.8Y-129.417
X158.6Y-67.75
X158.6Y-134.25
X159.4Y-67.75
X159.4Y-134.25
X160.2Y-67.75
X160.2Y-134.25
X161.0Y-67.75
X161.0Y-134.25
X161.8Y-67.75
X161.8Y-134.25
X162.6Y-67.75
X162.6Y-134.25
X163.4Y-67.75
X163.4Y-134.25
X164.2Y-67.75
X164.2Y-134.25
X165.0Y-67.75
X165.0Y-134.25
M30
