%TF.GenerationSoftware,KiCad,Pcbnew,8.0.4*%
%TF.CreationDate,2024-09-16T10:23:00-03:00*%
%TF.ProjectId,drivers_panelized,64726976-6572-4735-9f70-616e656c697a,rev?*%
%TF.SameCoordinates,Original*%
%TF.FileFunction,Legend,Top*%
%TF.FilePolarity,Positive*%
%FSLAX46Y46*%
G04 Gerber Fmt 4.6, Leading zero omitted, Abs format (unit mm)*
G04 Created by KiCad (PCBNEW 8.0.4) date 2024-09-16 10:23:00*
%MOMM*%
%LPD*%
G01*
G04 APERTURE LIST*
%ADD10C,0.200000*%
%ADD11C,0.150000*%
%ADD12C,0.127000*%
%ADD13C,0.120000*%
G04 APERTURE END LIST*
D10*
X162225000Y-100116667D02*
X161400000Y-100941667D01*
X161400000Y-99291667D01*
X162225000Y-100116667D01*
G36*
X162225000Y-100116667D02*
G01*
X161400000Y-100941667D01*
X161400000Y-99291667D01*
X162225000Y-100116667D01*
G37*
X181525000Y-76116667D02*
X180700000Y-76941667D01*
X180700000Y-75291667D01*
X181525000Y-76116667D01*
G36*
X181525000Y-76116667D02*
G01*
X180700000Y-76941667D01*
X180700000Y-75291667D01*
X181525000Y-76116667D01*
G37*
X181525000Y-124116667D02*
X180700000Y-124941667D01*
X180700000Y-123291667D01*
X181525000Y-124116667D01*
G36*
X181525000Y-124116667D02*
G01*
X180700000Y-124941667D01*
X180700000Y-123291667D01*
X181525000Y-124116667D01*
G37*
X162225000Y-76116667D02*
X161400000Y-76941667D01*
X161400000Y-75291667D01*
X162225000Y-76116667D01*
G36*
X162225000Y-76116667D02*
G01*
X161400000Y-76941667D01*
X161400000Y-75291667D01*
X162225000Y-76116667D01*
G37*
X162225000Y-124116667D02*
X161400000Y-124941667D01*
X161400000Y-123291667D01*
X162225000Y-124116667D01*
G36*
X162225000Y-124116667D02*
G01*
X161400000Y-124941667D01*
X161400000Y-123291667D01*
X162225000Y-124116667D01*
G37*
X181525000Y-100116667D02*
X180700000Y-100941667D01*
X180700000Y-99291667D01*
X181525000Y-100116667D01*
G36*
X181525000Y-100116667D02*
G01*
X180700000Y-100941667D01*
X180700000Y-99291667D01*
X181525000Y-100116667D01*
G37*
D11*
X174171345Y-67323134D02*
X174171345Y-66535732D01*
X174996242Y-67248143D02*
X174958747Y-67285639D01*
X174958747Y-67285639D02*
X174846261Y-67323134D01*
X174846261Y-67323134D02*
X174771270Y-67323134D01*
X174771270Y-67323134D02*
X174658784Y-67285639D01*
X174658784Y-67285639D02*
X174583794Y-67210648D01*
X174583794Y-67210648D02*
X174546298Y-67135657D01*
X174546298Y-67135657D02*
X174508803Y-66985676D01*
X174508803Y-66985676D02*
X174508803Y-66873190D01*
X174508803Y-66873190D02*
X174546298Y-66723209D01*
X174546298Y-66723209D02*
X174583794Y-66648218D01*
X174583794Y-66648218D02*
X174658784Y-66573227D01*
X174658784Y-66573227D02*
X174771270Y-66535732D01*
X174771270Y-66535732D02*
X174846261Y-66535732D01*
X174846261Y-66535732D02*
X174958747Y-66573227D01*
X174958747Y-66573227D02*
X174996242Y-66610723D01*
X175746149Y-67323134D02*
X175296205Y-67323134D01*
X175521177Y-67323134D02*
X175521177Y-66535732D01*
X175521177Y-66535732D02*
X175446186Y-66648218D01*
X175446186Y-66648218D02*
X175371196Y-66723209D01*
X175371196Y-66723209D02*
X175296205Y-66760704D01*
X156033333Y-80526247D02*
X155985714Y-80573867D01*
X155985714Y-80573867D02*
X155842857Y-80621486D01*
X155842857Y-80621486D02*
X155747619Y-80621486D01*
X155747619Y-80621486D02*
X155604762Y-80573867D01*
X155604762Y-80573867D02*
X155509524Y-80478628D01*
X155509524Y-80478628D02*
X155461905Y-80383390D01*
X155461905Y-80383390D02*
X155414286Y-80192914D01*
X155414286Y-80192914D02*
X155414286Y-80050057D01*
X155414286Y-80050057D02*
X155461905Y-79859581D01*
X155461905Y-79859581D02*
X155509524Y-79764343D01*
X155509524Y-79764343D02*
X155604762Y-79669105D01*
X155604762Y-79669105D02*
X155747619Y-79621486D01*
X155747619Y-79621486D02*
X155842857Y-79621486D01*
X155842857Y-79621486D02*
X155985714Y-79669105D01*
X155985714Y-79669105D02*
X156033333Y-79716724D01*
X156366667Y-79621486D02*
X156985714Y-79621486D01*
X156985714Y-79621486D02*
X156652381Y-80002438D01*
X156652381Y-80002438D02*
X156795238Y-80002438D01*
X156795238Y-80002438D02*
X156890476Y-80050057D01*
X156890476Y-80050057D02*
X156938095Y-80097676D01*
X156938095Y-80097676D02*
X156985714Y-80192914D01*
X156985714Y-80192914D02*
X156985714Y-80431009D01*
X156985714Y-80431009D02*
X156938095Y-80526247D01*
X156938095Y-80526247D02*
X156890476Y-80573867D01*
X156890476Y-80573867D02*
X156795238Y-80621486D01*
X156795238Y-80621486D02*
X156509524Y-80621486D01*
X156509524Y-80621486D02*
X156414286Y-80573867D01*
X156414286Y-80573867D02*
X156366667Y-80526247D01*
X175333333Y-104526247D02*
X175285714Y-104573867D01*
X175285714Y-104573867D02*
X175142857Y-104621486D01*
X175142857Y-104621486D02*
X175047619Y-104621486D01*
X175047619Y-104621486D02*
X174904762Y-104573867D01*
X174904762Y-104573867D02*
X174809524Y-104478628D01*
X174809524Y-104478628D02*
X174761905Y-104383390D01*
X174761905Y-104383390D02*
X174714286Y-104192914D01*
X174714286Y-104192914D02*
X174714286Y-104050057D01*
X174714286Y-104050057D02*
X174761905Y-103859581D01*
X174761905Y-103859581D02*
X174809524Y-103764343D01*
X174809524Y-103764343D02*
X174904762Y-103669105D01*
X174904762Y-103669105D02*
X175047619Y-103621486D01*
X175047619Y-103621486D02*
X175142857Y-103621486D01*
X175142857Y-103621486D02*
X175285714Y-103669105D01*
X175285714Y-103669105D02*
X175333333Y-103716724D01*
X175666667Y-103621486D02*
X176285714Y-103621486D01*
X176285714Y-103621486D02*
X175952381Y-104002438D01*
X175952381Y-104002438D02*
X176095238Y-104002438D01*
X176095238Y-104002438D02*
X176190476Y-104050057D01*
X176190476Y-104050057D02*
X176238095Y-104097676D01*
X176238095Y-104097676D02*
X176285714Y-104192914D01*
X176285714Y-104192914D02*
X176285714Y-104431009D01*
X176285714Y-104431009D02*
X176238095Y-104526247D01*
X176238095Y-104526247D02*
X176190476Y-104573867D01*
X176190476Y-104573867D02*
X176095238Y-104621486D01*
X176095238Y-104621486D02*
X175809524Y-104621486D01*
X175809524Y-104621486D02*
X175714286Y-104573867D01*
X175714286Y-104573867D02*
X175666667Y-104526247D01*
X154871345Y-67323134D02*
X154871345Y-66535732D01*
X155696242Y-67248143D02*
X155658747Y-67285639D01*
X155658747Y-67285639D02*
X155546261Y-67323134D01*
X155546261Y-67323134D02*
X155471270Y-67323134D01*
X155471270Y-67323134D02*
X155358784Y-67285639D01*
X155358784Y-67285639D02*
X155283794Y-67210648D01*
X155283794Y-67210648D02*
X155246298Y-67135657D01*
X155246298Y-67135657D02*
X155208803Y-66985676D01*
X155208803Y-66985676D02*
X155208803Y-66873190D01*
X155208803Y-66873190D02*
X155246298Y-66723209D01*
X155246298Y-66723209D02*
X155283794Y-66648218D01*
X155283794Y-66648218D02*
X155358784Y-66573227D01*
X155358784Y-66573227D02*
X155471270Y-66535732D01*
X155471270Y-66535732D02*
X155546261Y-66535732D01*
X155546261Y-66535732D02*
X155658747Y-66573227D01*
X155658747Y-66573227D02*
X155696242Y-66610723D01*
X156446149Y-67323134D02*
X155996205Y-67323134D01*
X156221177Y-67323134D02*
X156221177Y-66535732D01*
X156221177Y-66535732D02*
X156146186Y-66648218D01*
X156146186Y-66648218D02*
X156071196Y-66723209D01*
X156071196Y-66723209D02*
X155996205Y-66760704D01*
X174171345Y-91323134D02*
X174171345Y-90535732D01*
X174996242Y-91248143D02*
X174958747Y-91285639D01*
X174958747Y-91285639D02*
X174846261Y-91323134D01*
X174846261Y-91323134D02*
X174771270Y-91323134D01*
X174771270Y-91323134D02*
X174658784Y-91285639D01*
X174658784Y-91285639D02*
X174583794Y-91210648D01*
X174583794Y-91210648D02*
X174546298Y-91135657D01*
X174546298Y-91135657D02*
X174508803Y-90985676D01*
X174508803Y-90985676D02*
X174508803Y-90873190D01*
X174508803Y-90873190D02*
X174546298Y-90723209D01*
X174546298Y-90723209D02*
X174583794Y-90648218D01*
X174583794Y-90648218D02*
X174658784Y-90573227D01*
X174658784Y-90573227D02*
X174771270Y-90535732D01*
X174771270Y-90535732D02*
X174846261Y-90535732D01*
X174846261Y-90535732D02*
X174958747Y-90573227D01*
X174958747Y-90573227D02*
X174996242Y-90610723D01*
X175746149Y-91323134D02*
X175296205Y-91323134D01*
X175521177Y-91323134D02*
X175521177Y-90535732D01*
X175521177Y-90535732D02*
X175446186Y-90648218D01*
X175446186Y-90648218D02*
X175371196Y-90723209D01*
X175371196Y-90723209D02*
X175296205Y-90760704D01*
X173501345Y-117613134D02*
X173501345Y-116825732D01*
X174326242Y-117538143D02*
X174288747Y-117575639D01*
X174288747Y-117575639D02*
X174176261Y-117613134D01*
X174176261Y-117613134D02*
X174101270Y-117613134D01*
X174101270Y-117613134D02*
X173988784Y-117575639D01*
X173988784Y-117575639D02*
X173913794Y-117500648D01*
X173913794Y-117500648D02*
X173876298Y-117425657D01*
X173876298Y-117425657D02*
X173838803Y-117275676D01*
X173838803Y-117275676D02*
X173838803Y-117163190D01*
X173838803Y-117163190D02*
X173876298Y-117013209D01*
X173876298Y-117013209D02*
X173913794Y-116938218D01*
X173913794Y-116938218D02*
X173988784Y-116863227D01*
X173988784Y-116863227D02*
X174101270Y-116825732D01*
X174101270Y-116825732D02*
X174176261Y-116825732D01*
X174176261Y-116825732D02*
X174288747Y-116863227D01*
X174288747Y-116863227D02*
X174326242Y-116900723D01*
X174626205Y-116900723D02*
X174663700Y-116863227D01*
X174663700Y-116863227D02*
X174738691Y-116825732D01*
X174738691Y-116825732D02*
X174926168Y-116825732D01*
X174926168Y-116825732D02*
X175001158Y-116863227D01*
X175001158Y-116863227D02*
X175038654Y-116900723D01*
X175038654Y-116900723D02*
X175076149Y-116975713D01*
X175076149Y-116975713D02*
X175076149Y-117050704D01*
X175076149Y-117050704D02*
X175038654Y-117163190D01*
X175038654Y-117163190D02*
X174588710Y-117613134D01*
X174588710Y-117613134D02*
X175076149Y-117613134D01*
X175333333Y-80526247D02*
X175285714Y-80573867D01*
X175285714Y-80573867D02*
X175142857Y-80621486D01*
X175142857Y-80621486D02*
X175047619Y-80621486D01*
X175047619Y-80621486D02*
X174904762Y-80573867D01*
X174904762Y-80573867D02*
X174809524Y-80478628D01*
X174809524Y-80478628D02*
X174761905Y-80383390D01*
X174761905Y-80383390D02*
X174714286Y-80192914D01*
X174714286Y-80192914D02*
X174714286Y-80050057D01*
X174714286Y-80050057D02*
X174761905Y-79859581D01*
X174761905Y-79859581D02*
X174809524Y-79764343D01*
X174809524Y-79764343D02*
X174904762Y-79669105D01*
X174904762Y-79669105D02*
X175047619Y-79621486D01*
X175047619Y-79621486D02*
X175142857Y-79621486D01*
X175142857Y-79621486D02*
X175285714Y-79669105D01*
X175285714Y-79669105D02*
X175333333Y-79716724D01*
X175666667Y-79621486D02*
X176285714Y-79621486D01*
X176285714Y-79621486D02*
X175952381Y-80002438D01*
X175952381Y-80002438D02*
X176095238Y-80002438D01*
X176095238Y-80002438D02*
X176190476Y-80050057D01*
X176190476Y-80050057D02*
X176238095Y-80097676D01*
X176238095Y-80097676D02*
X176285714Y-80192914D01*
X176285714Y-80192914D02*
X176285714Y-80431009D01*
X176285714Y-80431009D02*
X176238095Y-80526247D01*
X176238095Y-80526247D02*
X176190476Y-80573867D01*
X176190476Y-80573867D02*
X176095238Y-80621486D01*
X176095238Y-80621486D02*
X175809524Y-80621486D01*
X175809524Y-80621486D02*
X175714286Y-80573867D01*
X175714286Y-80573867D02*
X175666667Y-80526247D01*
X156033333Y-128526247D02*
X155985714Y-128573867D01*
X155985714Y-128573867D02*
X155842857Y-128621486D01*
X155842857Y-128621486D02*
X155747619Y-128621486D01*
X155747619Y-128621486D02*
X155604762Y-128573867D01*
X155604762Y-128573867D02*
X155509524Y-128478628D01*
X155509524Y-128478628D02*
X155461905Y-128383390D01*
X155461905Y-128383390D02*
X155414286Y-128192914D01*
X155414286Y-128192914D02*
X155414286Y-128050057D01*
X155414286Y-128050057D02*
X155461905Y-127859581D01*
X155461905Y-127859581D02*
X155509524Y-127764343D01*
X155509524Y-127764343D02*
X155604762Y-127669105D01*
X155604762Y-127669105D02*
X155747619Y-127621486D01*
X155747619Y-127621486D02*
X155842857Y-127621486D01*
X155842857Y-127621486D02*
X155985714Y-127669105D01*
X155985714Y-127669105D02*
X156033333Y-127716724D01*
X156366667Y-127621486D02*
X156985714Y-127621486D01*
X156985714Y-127621486D02*
X156652381Y-128002438D01*
X156652381Y-128002438D02*
X156795238Y-128002438D01*
X156795238Y-128002438D02*
X156890476Y-128050057D01*
X156890476Y-128050057D02*
X156938095Y-128097676D01*
X156938095Y-128097676D02*
X156985714Y-128192914D01*
X156985714Y-128192914D02*
X156985714Y-128431009D01*
X156985714Y-128431009D02*
X156938095Y-128526247D01*
X156938095Y-128526247D02*
X156890476Y-128573867D01*
X156890476Y-128573867D02*
X156795238Y-128621486D01*
X156795238Y-128621486D02*
X156509524Y-128621486D01*
X156509524Y-128621486D02*
X156414286Y-128573867D01*
X156414286Y-128573867D02*
X156366667Y-128526247D01*
X154201345Y-93613134D02*
X154201345Y-92825732D01*
X155026242Y-93538143D02*
X154988747Y-93575639D01*
X154988747Y-93575639D02*
X154876261Y-93613134D01*
X154876261Y-93613134D02*
X154801270Y-93613134D01*
X154801270Y-93613134D02*
X154688784Y-93575639D01*
X154688784Y-93575639D02*
X154613794Y-93500648D01*
X154613794Y-93500648D02*
X154576298Y-93425657D01*
X154576298Y-93425657D02*
X154538803Y-93275676D01*
X154538803Y-93275676D02*
X154538803Y-93163190D01*
X154538803Y-93163190D02*
X154576298Y-93013209D01*
X154576298Y-93013209D02*
X154613794Y-92938218D01*
X154613794Y-92938218D02*
X154688784Y-92863227D01*
X154688784Y-92863227D02*
X154801270Y-92825732D01*
X154801270Y-92825732D02*
X154876261Y-92825732D01*
X154876261Y-92825732D02*
X154988747Y-92863227D01*
X154988747Y-92863227D02*
X155026242Y-92900723D01*
X155326205Y-92900723D02*
X155363700Y-92863227D01*
X155363700Y-92863227D02*
X155438691Y-92825732D01*
X155438691Y-92825732D02*
X155626168Y-92825732D01*
X155626168Y-92825732D02*
X155701158Y-92863227D01*
X155701158Y-92863227D02*
X155738654Y-92900723D01*
X155738654Y-92900723D02*
X155776149Y-92975713D01*
X155776149Y-92975713D02*
X155776149Y-93050704D01*
X155776149Y-93050704D02*
X155738654Y-93163190D01*
X155738654Y-93163190D02*
X155288710Y-93613134D01*
X155288710Y-93613134D02*
X155776149Y-93613134D01*
X173501345Y-93613134D02*
X173501345Y-92825732D01*
X174326242Y-93538143D02*
X174288747Y-93575639D01*
X174288747Y-93575639D02*
X174176261Y-93613134D01*
X174176261Y-93613134D02*
X174101270Y-93613134D01*
X174101270Y-93613134D02*
X173988784Y-93575639D01*
X173988784Y-93575639D02*
X173913794Y-93500648D01*
X173913794Y-93500648D02*
X173876298Y-93425657D01*
X173876298Y-93425657D02*
X173838803Y-93275676D01*
X173838803Y-93275676D02*
X173838803Y-93163190D01*
X173838803Y-93163190D02*
X173876298Y-93013209D01*
X173876298Y-93013209D02*
X173913794Y-92938218D01*
X173913794Y-92938218D02*
X173988784Y-92863227D01*
X173988784Y-92863227D02*
X174101270Y-92825732D01*
X174101270Y-92825732D02*
X174176261Y-92825732D01*
X174176261Y-92825732D02*
X174288747Y-92863227D01*
X174288747Y-92863227D02*
X174326242Y-92900723D01*
X174626205Y-92900723D02*
X174663700Y-92863227D01*
X174663700Y-92863227D02*
X174738691Y-92825732D01*
X174738691Y-92825732D02*
X174926168Y-92825732D01*
X174926168Y-92825732D02*
X175001158Y-92863227D01*
X175001158Y-92863227D02*
X175038654Y-92900723D01*
X175038654Y-92900723D02*
X175076149Y-92975713D01*
X175076149Y-92975713D02*
X175076149Y-93050704D01*
X175076149Y-93050704D02*
X175038654Y-93163190D01*
X175038654Y-93163190D02*
X174588710Y-93613134D01*
X174588710Y-93613134D02*
X175076149Y-93613134D01*
X175333333Y-128526247D02*
X175285714Y-128573867D01*
X175285714Y-128573867D02*
X175142857Y-128621486D01*
X175142857Y-128621486D02*
X175047619Y-128621486D01*
X175047619Y-128621486D02*
X174904762Y-128573867D01*
X174904762Y-128573867D02*
X174809524Y-128478628D01*
X174809524Y-128478628D02*
X174761905Y-128383390D01*
X174761905Y-128383390D02*
X174714286Y-128192914D01*
X174714286Y-128192914D02*
X174714286Y-128050057D01*
X174714286Y-128050057D02*
X174761905Y-127859581D01*
X174761905Y-127859581D02*
X174809524Y-127764343D01*
X174809524Y-127764343D02*
X174904762Y-127669105D01*
X174904762Y-127669105D02*
X175047619Y-127621486D01*
X175047619Y-127621486D02*
X175142857Y-127621486D01*
X175142857Y-127621486D02*
X175285714Y-127669105D01*
X175285714Y-127669105D02*
X175333333Y-127716724D01*
X175666667Y-127621486D02*
X176285714Y-127621486D01*
X176285714Y-127621486D02*
X175952381Y-128002438D01*
X175952381Y-128002438D02*
X176095238Y-128002438D01*
X176095238Y-128002438D02*
X176190476Y-128050057D01*
X176190476Y-128050057D02*
X176238095Y-128097676D01*
X176238095Y-128097676D02*
X176285714Y-128192914D01*
X176285714Y-128192914D02*
X176285714Y-128431009D01*
X176285714Y-128431009D02*
X176238095Y-128526247D01*
X176238095Y-128526247D02*
X176190476Y-128573867D01*
X176190476Y-128573867D02*
X176095238Y-128621486D01*
X176095238Y-128621486D02*
X175809524Y-128621486D01*
X175809524Y-128621486D02*
X175714286Y-128573867D01*
X175714286Y-128573867D02*
X175666667Y-128526247D01*
X173501345Y-69613134D02*
X173501345Y-68825732D01*
X174326242Y-69538143D02*
X174288747Y-69575639D01*
X174288747Y-69575639D02*
X174176261Y-69613134D01*
X174176261Y-69613134D02*
X174101270Y-69613134D01*
X174101270Y-69613134D02*
X173988784Y-69575639D01*
X173988784Y-69575639D02*
X173913794Y-69500648D01*
X173913794Y-69500648D02*
X173876298Y-69425657D01*
X173876298Y-69425657D02*
X173838803Y-69275676D01*
X173838803Y-69275676D02*
X173838803Y-69163190D01*
X173838803Y-69163190D02*
X173876298Y-69013209D01*
X173876298Y-69013209D02*
X173913794Y-68938218D01*
X173913794Y-68938218D02*
X173988784Y-68863227D01*
X173988784Y-68863227D02*
X174101270Y-68825732D01*
X174101270Y-68825732D02*
X174176261Y-68825732D01*
X174176261Y-68825732D02*
X174288747Y-68863227D01*
X174288747Y-68863227D02*
X174326242Y-68900723D01*
X174626205Y-68900723D02*
X174663700Y-68863227D01*
X174663700Y-68863227D02*
X174738691Y-68825732D01*
X174738691Y-68825732D02*
X174926168Y-68825732D01*
X174926168Y-68825732D02*
X175001158Y-68863227D01*
X175001158Y-68863227D02*
X175038654Y-68900723D01*
X175038654Y-68900723D02*
X175076149Y-68975713D01*
X175076149Y-68975713D02*
X175076149Y-69050704D01*
X175076149Y-69050704D02*
X175038654Y-69163190D01*
X175038654Y-69163190D02*
X174588710Y-69613134D01*
X174588710Y-69613134D02*
X175076149Y-69613134D01*
X174171345Y-115323134D02*
X174171345Y-114535732D01*
X174996242Y-115248143D02*
X174958747Y-115285639D01*
X174958747Y-115285639D02*
X174846261Y-115323134D01*
X174846261Y-115323134D02*
X174771270Y-115323134D01*
X174771270Y-115323134D02*
X174658784Y-115285639D01*
X174658784Y-115285639D02*
X174583794Y-115210648D01*
X174583794Y-115210648D02*
X174546298Y-115135657D01*
X174546298Y-115135657D02*
X174508803Y-114985676D01*
X174508803Y-114985676D02*
X174508803Y-114873190D01*
X174508803Y-114873190D02*
X174546298Y-114723209D01*
X174546298Y-114723209D02*
X174583794Y-114648218D01*
X174583794Y-114648218D02*
X174658784Y-114573227D01*
X174658784Y-114573227D02*
X174771270Y-114535732D01*
X174771270Y-114535732D02*
X174846261Y-114535732D01*
X174846261Y-114535732D02*
X174958747Y-114573227D01*
X174958747Y-114573227D02*
X174996242Y-114610723D01*
X175746149Y-115323134D02*
X175296205Y-115323134D01*
X175521177Y-115323134D02*
X175521177Y-114535732D01*
X175521177Y-114535732D02*
X175446186Y-114648218D01*
X175446186Y-114648218D02*
X175371196Y-114723209D01*
X175371196Y-114723209D02*
X175296205Y-114760704D01*
X154201345Y-117613134D02*
X154201345Y-116825732D01*
X155026242Y-117538143D02*
X154988747Y-117575639D01*
X154988747Y-117575639D02*
X154876261Y-117613134D01*
X154876261Y-117613134D02*
X154801270Y-117613134D01*
X154801270Y-117613134D02*
X154688784Y-117575639D01*
X154688784Y-117575639D02*
X154613794Y-117500648D01*
X154613794Y-117500648D02*
X154576298Y-117425657D01*
X154576298Y-117425657D02*
X154538803Y-117275676D01*
X154538803Y-117275676D02*
X154538803Y-117163190D01*
X154538803Y-117163190D02*
X154576298Y-117013209D01*
X154576298Y-117013209D02*
X154613794Y-116938218D01*
X154613794Y-116938218D02*
X154688784Y-116863227D01*
X154688784Y-116863227D02*
X154801270Y-116825732D01*
X154801270Y-116825732D02*
X154876261Y-116825732D01*
X154876261Y-116825732D02*
X154988747Y-116863227D01*
X154988747Y-116863227D02*
X155026242Y-116900723D01*
X155326205Y-116900723D02*
X155363700Y-116863227D01*
X155363700Y-116863227D02*
X155438691Y-116825732D01*
X155438691Y-116825732D02*
X155626168Y-116825732D01*
X155626168Y-116825732D02*
X155701158Y-116863227D01*
X155701158Y-116863227D02*
X155738654Y-116900723D01*
X155738654Y-116900723D02*
X155776149Y-116975713D01*
X155776149Y-116975713D02*
X155776149Y-117050704D01*
X155776149Y-117050704D02*
X155738654Y-117163190D01*
X155738654Y-117163190D02*
X155288710Y-117613134D01*
X155288710Y-117613134D02*
X155776149Y-117613134D01*
X156033333Y-104526247D02*
X155985714Y-104573867D01*
X155985714Y-104573867D02*
X155842857Y-104621486D01*
X155842857Y-104621486D02*
X155747619Y-104621486D01*
X155747619Y-104621486D02*
X155604762Y-104573867D01*
X155604762Y-104573867D02*
X155509524Y-104478628D01*
X155509524Y-104478628D02*
X155461905Y-104383390D01*
X155461905Y-104383390D02*
X155414286Y-104192914D01*
X155414286Y-104192914D02*
X155414286Y-104050057D01*
X155414286Y-104050057D02*
X155461905Y-103859581D01*
X155461905Y-103859581D02*
X155509524Y-103764343D01*
X155509524Y-103764343D02*
X155604762Y-103669105D01*
X155604762Y-103669105D02*
X155747619Y-103621486D01*
X155747619Y-103621486D02*
X155842857Y-103621486D01*
X155842857Y-103621486D02*
X155985714Y-103669105D01*
X155985714Y-103669105D02*
X156033333Y-103716724D01*
X156366667Y-103621486D02*
X156985714Y-103621486D01*
X156985714Y-103621486D02*
X156652381Y-104002438D01*
X156652381Y-104002438D02*
X156795238Y-104002438D01*
X156795238Y-104002438D02*
X156890476Y-104050057D01*
X156890476Y-104050057D02*
X156938095Y-104097676D01*
X156938095Y-104097676D02*
X156985714Y-104192914D01*
X156985714Y-104192914D02*
X156985714Y-104431009D01*
X156985714Y-104431009D02*
X156938095Y-104526247D01*
X156938095Y-104526247D02*
X156890476Y-104573867D01*
X156890476Y-104573867D02*
X156795238Y-104621486D01*
X156795238Y-104621486D02*
X156509524Y-104621486D01*
X156509524Y-104621486D02*
X156414286Y-104573867D01*
X156414286Y-104573867D02*
X156366667Y-104526247D01*
X154871345Y-91323134D02*
X154871345Y-90535732D01*
X155696242Y-91248143D02*
X155658747Y-91285639D01*
X155658747Y-91285639D02*
X155546261Y-91323134D01*
X155546261Y-91323134D02*
X155471270Y-91323134D01*
X155471270Y-91323134D02*
X155358784Y-91285639D01*
X155358784Y-91285639D02*
X155283794Y-91210648D01*
X155283794Y-91210648D02*
X155246298Y-91135657D01*
X155246298Y-91135657D02*
X155208803Y-90985676D01*
X155208803Y-90985676D02*
X155208803Y-90873190D01*
X155208803Y-90873190D02*
X155246298Y-90723209D01*
X155246298Y-90723209D02*
X155283794Y-90648218D01*
X155283794Y-90648218D02*
X155358784Y-90573227D01*
X155358784Y-90573227D02*
X155471270Y-90535732D01*
X155471270Y-90535732D02*
X155546261Y-90535732D01*
X155546261Y-90535732D02*
X155658747Y-90573227D01*
X155658747Y-90573227D02*
X155696242Y-90610723D01*
X156446149Y-91323134D02*
X155996205Y-91323134D01*
X156221177Y-91323134D02*
X156221177Y-90535732D01*
X156221177Y-90535732D02*
X156146186Y-90648218D01*
X156146186Y-90648218D02*
X156071196Y-90723209D01*
X156071196Y-90723209D02*
X155996205Y-90760704D01*
X154871345Y-115323134D02*
X154871345Y-114535732D01*
X155696242Y-115248143D02*
X155658747Y-115285639D01*
X155658747Y-115285639D02*
X155546261Y-115323134D01*
X155546261Y-115323134D02*
X155471270Y-115323134D01*
X155471270Y-115323134D02*
X155358784Y-115285639D01*
X155358784Y-115285639D02*
X155283794Y-115210648D01*
X155283794Y-115210648D02*
X155246298Y-115135657D01*
X155246298Y-115135657D02*
X155208803Y-114985676D01*
X155208803Y-114985676D02*
X155208803Y-114873190D01*
X155208803Y-114873190D02*
X155246298Y-114723209D01*
X155246298Y-114723209D02*
X155283794Y-114648218D01*
X155283794Y-114648218D02*
X155358784Y-114573227D01*
X155358784Y-114573227D02*
X155471270Y-114535732D01*
X155471270Y-114535732D02*
X155546261Y-114535732D01*
X155546261Y-114535732D02*
X155658747Y-114573227D01*
X155658747Y-114573227D02*
X155696242Y-114610723D01*
X156446149Y-115323134D02*
X155996205Y-115323134D01*
X156221177Y-115323134D02*
X156221177Y-114535732D01*
X156221177Y-114535732D02*
X156146186Y-114648218D01*
X156146186Y-114648218D02*
X156071196Y-114723209D01*
X156071196Y-114723209D02*
X155996205Y-114760704D01*
X154201345Y-69613134D02*
X154201345Y-68825732D01*
X155026242Y-69538143D02*
X154988747Y-69575639D01*
X154988747Y-69575639D02*
X154876261Y-69613134D01*
X154876261Y-69613134D02*
X154801270Y-69613134D01*
X154801270Y-69613134D02*
X154688784Y-69575639D01*
X154688784Y-69575639D02*
X154613794Y-69500648D01*
X154613794Y-69500648D02*
X154576298Y-69425657D01*
X154576298Y-69425657D02*
X154538803Y-69275676D01*
X154538803Y-69275676D02*
X154538803Y-69163190D01*
X154538803Y-69163190D02*
X154576298Y-69013209D01*
X154576298Y-69013209D02*
X154613794Y-68938218D01*
X154613794Y-68938218D02*
X154688784Y-68863227D01*
X154688784Y-68863227D02*
X154801270Y-68825732D01*
X154801270Y-68825732D02*
X154876261Y-68825732D01*
X154876261Y-68825732D02*
X154988747Y-68863227D01*
X154988747Y-68863227D02*
X155026242Y-68900723D01*
X155326205Y-68900723D02*
X155363700Y-68863227D01*
X155363700Y-68863227D02*
X155438691Y-68825732D01*
X155438691Y-68825732D02*
X155626168Y-68825732D01*
X155626168Y-68825732D02*
X155701158Y-68863227D01*
X155701158Y-68863227D02*
X155738654Y-68900723D01*
X155738654Y-68900723D02*
X155776149Y-68975713D01*
X155776149Y-68975713D02*
X155776149Y-69050704D01*
X155776149Y-69050704D02*
X155738654Y-69163190D01*
X155738654Y-69163190D02*
X155288710Y-69613134D01*
X155288710Y-69613134D02*
X155776149Y-69613134D01*
D12*
%TO.C,IC1*%
X172270000Y-71446667D02*
X176170000Y-71446667D01*
X172270000Y-76496667D02*
X176170000Y-76496667D01*
D10*
X170220000Y-72066667D02*
G75*
G02*
X170020000Y-72066667I-100000J0D01*
G01*
X170020000Y-72066667D02*
G75*
G02*
X170220000Y-72066667I100000J0D01*
G01*
D13*
%TO.C,C3*%
X153930000Y-76911667D02*
X153930000Y-76896667D01*
X153930000Y-79036667D02*
X153930000Y-79021667D01*
X158470000Y-76896667D02*
X153930000Y-76896667D01*
X158470000Y-76911667D02*
X158470000Y-76896667D01*
X158470000Y-79036667D02*
X153930000Y-79036667D01*
X158470000Y-79036667D02*
X158470000Y-79021667D01*
X173230000Y-100911667D02*
X173230000Y-100896667D01*
X173230000Y-103036667D02*
X173230000Y-103021667D01*
X177770000Y-100896667D02*
X173230000Y-100896667D01*
X177770000Y-100911667D02*
X177770000Y-100896667D01*
X177770000Y-103036667D02*
X173230000Y-103036667D01*
X177770000Y-103036667D02*
X177770000Y-103021667D01*
D12*
%TO.C,IC1*%
X152970000Y-71446667D02*
X156870000Y-71446667D01*
X152970000Y-76496667D02*
X156870000Y-76496667D01*
D10*
X150920000Y-72066667D02*
G75*
G02*
X150720000Y-72066667I-100000J0D01*
G01*
X150720000Y-72066667D02*
G75*
G02*
X150920000Y-72066667I100000J0D01*
G01*
D13*
%TO.C,C2*%
X178765000Y-66127919D02*
X178765000Y-65605415D01*
X180235000Y-66127919D02*
X180235000Y-65605415D01*
%TO.C,U1*%
X104590000Y-69186667D02*
X104590000Y-79466667D01*
X104590000Y-79466667D02*
X114990000Y-79466667D01*
X104650000Y-71676667D02*
X104650000Y-73326667D01*
X104650000Y-75326667D02*
X104650000Y-76976667D01*
X104650000Y-76976667D02*
X114930000Y-76976667D01*
X114930000Y-71676667D02*
X104650000Y-71676667D01*
X114930000Y-76976667D02*
X114930000Y-71676667D01*
X114990000Y-69186667D02*
X104590000Y-69186667D01*
X114990000Y-79466667D02*
X114990000Y-69186667D01*
X104650000Y-73326667D02*
G75*
G02*
X104650000Y-75326667I0J-1000000D01*
G01*
D12*
%TO.C,IC1*%
X172270000Y-95446667D02*
X176170000Y-95446667D01*
X172270000Y-100496667D02*
X176170000Y-100496667D01*
D10*
X170220000Y-96066667D02*
G75*
G02*
X170020000Y-96066667I-100000J0D01*
G01*
X170020000Y-96066667D02*
G75*
G02*
X170220000Y-96066667I100000J0D01*
G01*
D13*
%TO.C,C2*%
X178765000Y-114127919D02*
X178765000Y-113605415D01*
X180235000Y-114127919D02*
X180235000Y-113605415D01*
D12*
%TO.C,IC2*%
X172270000Y-111706667D02*
X176170000Y-111706667D01*
X172270000Y-116756667D02*
X176170000Y-116756667D01*
D10*
X170220000Y-112326667D02*
G75*
G02*
X170020000Y-112326667I-100000J0D01*
G01*
X170020000Y-112326667D02*
G75*
G02*
X170220000Y-112326667I100000J0D01*
G01*
D13*
%TO.C,C2*%
X178765000Y-90127919D02*
X178765000Y-89605415D01*
X180235000Y-90127919D02*
X180235000Y-89605415D01*
%TO.C,U1*%
X123890000Y-119586667D02*
X123890000Y-129866667D01*
X123890000Y-129866667D02*
X134290000Y-129866667D01*
X123950000Y-122076667D02*
X123950000Y-123726667D01*
X123950000Y-125726667D02*
X123950000Y-127376667D01*
X123950000Y-127376667D02*
X134230000Y-127376667D01*
X134230000Y-122076667D02*
X123950000Y-122076667D01*
X134230000Y-127376667D02*
X134230000Y-122076667D01*
X134290000Y-119586667D02*
X123890000Y-119586667D01*
X134290000Y-129866667D02*
X134290000Y-119586667D01*
X123950000Y-123726667D02*
G75*
G02*
X123950000Y-125726667I0J-1000000D01*
G01*
X104590000Y-94386667D02*
X104590000Y-104666667D01*
X104590000Y-104666667D02*
X114990000Y-104666667D01*
X104650000Y-96876667D02*
X104650000Y-98526667D01*
X104650000Y-100526667D02*
X104650000Y-102176667D01*
X104650000Y-102176667D02*
X114930000Y-102176667D01*
X114930000Y-96876667D02*
X104650000Y-96876667D01*
X114930000Y-102176667D02*
X114930000Y-96876667D01*
X114990000Y-94386667D02*
X104590000Y-94386667D01*
X114990000Y-104666667D02*
X114990000Y-94386667D01*
X104650000Y-98526667D02*
G75*
G02*
X104650000Y-100526667I0J-1000000D01*
G01*
X123890000Y-94386667D02*
X123890000Y-104666667D01*
X123890000Y-104666667D02*
X134290000Y-104666667D01*
X123950000Y-96876667D02*
X123950000Y-98526667D01*
X123950000Y-100526667D02*
X123950000Y-102176667D01*
X123950000Y-102176667D02*
X134230000Y-102176667D01*
X134230000Y-96876667D02*
X123950000Y-96876667D01*
X134230000Y-102176667D02*
X134230000Y-96876667D01*
X134290000Y-94386667D02*
X123890000Y-94386667D01*
X134290000Y-104666667D02*
X134290000Y-94386667D01*
X123950000Y-98526667D02*
G75*
G02*
X123950000Y-100526667I0J-1000000D01*
G01*
%TO.C,C1*%
X159565000Y-97877919D02*
X159565000Y-97355415D01*
X161035000Y-97877919D02*
X161035000Y-97355415D01*
%TO.C,C3*%
X173230000Y-76911667D02*
X173230000Y-76896667D01*
X173230000Y-79036667D02*
X173230000Y-79021667D01*
X177770000Y-76896667D02*
X173230000Y-76896667D01*
X177770000Y-76911667D02*
X177770000Y-76896667D01*
X177770000Y-79036667D02*
X173230000Y-79036667D01*
X177770000Y-79036667D02*
X177770000Y-79021667D01*
X153930000Y-124911667D02*
X153930000Y-124896667D01*
X153930000Y-127036667D02*
X153930000Y-127021667D01*
X158470000Y-124896667D02*
X153930000Y-124896667D01*
X158470000Y-124911667D02*
X158470000Y-124896667D01*
X158470000Y-127036667D02*
X153930000Y-127036667D01*
X158470000Y-127036667D02*
X158470000Y-127021667D01*
%TO.C,C1*%
X159565000Y-121877919D02*
X159565000Y-121355415D01*
X161035000Y-121877919D02*
X161035000Y-121355415D01*
%TO.C,U1*%
X104590000Y-119586667D02*
X104590000Y-129866667D01*
X104590000Y-129866667D02*
X114990000Y-129866667D01*
X104650000Y-122076667D02*
X104650000Y-123726667D01*
X104650000Y-125726667D02*
X104650000Y-127376667D01*
X104650000Y-127376667D02*
X114930000Y-127376667D01*
X114930000Y-122076667D02*
X104650000Y-122076667D01*
X114930000Y-127376667D02*
X114930000Y-122076667D01*
X114990000Y-119586667D02*
X104590000Y-119586667D01*
X114990000Y-129866667D02*
X114990000Y-119586667D01*
X104650000Y-123726667D02*
G75*
G02*
X104650000Y-125726667I0J-1000000D01*
G01*
%TO.C,C1*%
X178865000Y-121877919D02*
X178865000Y-121355415D01*
X180335000Y-121877919D02*
X180335000Y-121355415D01*
%TO.C,U2*%
X123890000Y-84066667D02*
X123890000Y-94346667D01*
X123890000Y-94346667D02*
X134290000Y-94346667D01*
X123950000Y-86556667D02*
X123950000Y-88206667D01*
X123950000Y-90206667D02*
X123950000Y-91856667D01*
X123950000Y-91856667D02*
X134230000Y-91856667D01*
X134230000Y-86556667D02*
X123950000Y-86556667D01*
X134230000Y-91856667D02*
X134230000Y-86556667D01*
X134290000Y-84066667D02*
X123890000Y-84066667D01*
X134290000Y-94346667D02*
X134290000Y-84066667D01*
X123950000Y-88206667D02*
G75*
G02*
X123950000Y-90206667I0J-1000000D01*
G01*
X123890000Y-58866667D02*
X123890000Y-69146667D01*
X123890000Y-69146667D02*
X134290000Y-69146667D01*
X123950000Y-61356667D02*
X123950000Y-63006667D01*
X123950000Y-65006667D02*
X123950000Y-66656667D01*
X123950000Y-66656667D02*
X134230000Y-66656667D01*
X134230000Y-61356667D02*
X123950000Y-61356667D01*
X134230000Y-66656667D02*
X134230000Y-61356667D01*
X134290000Y-58866667D02*
X123890000Y-58866667D01*
X134290000Y-69146667D02*
X134290000Y-58866667D01*
X123950000Y-63006667D02*
G75*
G02*
X123950000Y-65006667I0J-1000000D01*
G01*
%TO.C,C2*%
X159465000Y-90127919D02*
X159465000Y-89605415D01*
X160935000Y-90127919D02*
X160935000Y-89605415D01*
X159465000Y-66127919D02*
X159465000Y-65605415D01*
X160935000Y-66127919D02*
X160935000Y-65605415D01*
%TO.C,C1*%
X178865000Y-73877919D02*
X178865000Y-73355415D01*
X180335000Y-73877919D02*
X180335000Y-73355415D01*
D12*
%TO.C,IC2*%
X152970000Y-87706667D02*
X156870000Y-87706667D01*
X152970000Y-92756667D02*
X156870000Y-92756667D01*
D10*
X150920000Y-88326667D02*
G75*
G02*
X150720000Y-88326667I-100000J0D01*
G01*
X150720000Y-88326667D02*
G75*
G02*
X150920000Y-88326667I100000J0D01*
G01*
D13*
%TO.C,C1*%
X178865000Y-97877919D02*
X178865000Y-97355415D01*
X180335000Y-97877919D02*
X180335000Y-97355415D01*
%TO.C,C2*%
X159465000Y-114127919D02*
X159465000Y-113605415D01*
X160935000Y-114127919D02*
X160935000Y-113605415D01*
D12*
%TO.C,IC2*%
X172270000Y-87706667D02*
X176170000Y-87706667D01*
X172270000Y-92756667D02*
X176170000Y-92756667D01*
D10*
X170220000Y-88326667D02*
G75*
G02*
X170020000Y-88326667I-100000J0D01*
G01*
X170020000Y-88326667D02*
G75*
G02*
X170220000Y-88326667I100000J0D01*
G01*
D13*
%TO.C,C3*%
X173230000Y-124911667D02*
X173230000Y-124896667D01*
X173230000Y-127036667D02*
X173230000Y-127021667D01*
X177770000Y-124896667D02*
X173230000Y-124896667D01*
X177770000Y-124911667D02*
X177770000Y-124896667D01*
X177770000Y-127036667D02*
X173230000Y-127036667D01*
X177770000Y-127036667D02*
X177770000Y-127021667D01*
D12*
%TO.C,IC2*%
X172270000Y-63706667D02*
X176170000Y-63706667D01*
X172270000Y-68756667D02*
X176170000Y-68756667D01*
D10*
X170220000Y-64326667D02*
G75*
G02*
X170020000Y-64326667I-100000J0D01*
G01*
X170020000Y-64326667D02*
G75*
G02*
X170220000Y-64326667I100000J0D01*
G01*
D12*
%TO.C,IC1*%
X172270000Y-119446667D02*
X176170000Y-119446667D01*
X172270000Y-124496667D02*
X176170000Y-124496667D01*
D10*
X170220000Y-120066667D02*
G75*
G02*
X170020000Y-120066667I-100000J0D01*
G01*
X170020000Y-120066667D02*
G75*
G02*
X170220000Y-120066667I100000J0D01*
G01*
D13*
%TO.C,U2*%
X123890000Y-109266667D02*
X123890000Y-119546667D01*
X123890000Y-119546667D02*
X134290000Y-119546667D01*
X123950000Y-111756667D02*
X123950000Y-113406667D01*
X123950000Y-115406667D02*
X123950000Y-117056667D01*
X123950000Y-117056667D02*
X134230000Y-117056667D01*
X134230000Y-111756667D02*
X123950000Y-111756667D01*
X134230000Y-117056667D02*
X134230000Y-111756667D01*
X134290000Y-109266667D02*
X123890000Y-109266667D01*
X134290000Y-119546667D02*
X134290000Y-109266667D01*
X123950000Y-113406667D02*
G75*
G02*
X123950000Y-115406667I0J-1000000D01*
G01*
X104590000Y-84066667D02*
X104590000Y-94346667D01*
X104590000Y-94346667D02*
X114990000Y-94346667D01*
X104650000Y-86556667D02*
X104650000Y-88206667D01*
X104650000Y-90206667D02*
X104650000Y-91856667D01*
X104650000Y-91856667D02*
X114930000Y-91856667D01*
X114930000Y-86556667D02*
X104650000Y-86556667D01*
X114930000Y-91856667D02*
X114930000Y-86556667D01*
X114990000Y-84066667D02*
X104590000Y-84066667D01*
X114990000Y-94346667D02*
X114990000Y-84066667D01*
X104650000Y-88206667D02*
G75*
G02*
X104650000Y-90206667I0J-1000000D01*
G01*
D12*
%TO.C,IC2*%
X152970000Y-111706667D02*
X156870000Y-111706667D01*
X152970000Y-116756667D02*
X156870000Y-116756667D01*
D10*
X150920000Y-112326667D02*
G75*
G02*
X150720000Y-112326667I-100000J0D01*
G01*
X150720000Y-112326667D02*
G75*
G02*
X150920000Y-112326667I100000J0D01*
G01*
D13*
%TO.C,C3*%
X153930000Y-100911667D02*
X153930000Y-100896667D01*
X153930000Y-103036667D02*
X153930000Y-103021667D01*
X158470000Y-100896667D02*
X153930000Y-100896667D01*
X158470000Y-100911667D02*
X158470000Y-100896667D01*
X158470000Y-103036667D02*
X153930000Y-103036667D01*
X158470000Y-103036667D02*
X158470000Y-103021667D01*
%TO.C,U2*%
X104590000Y-109266667D02*
X104590000Y-119546667D01*
X104590000Y-119546667D02*
X114990000Y-119546667D01*
X104650000Y-111756667D02*
X104650000Y-113406667D01*
X104650000Y-115406667D02*
X104650000Y-117056667D01*
X104650000Y-117056667D02*
X114930000Y-117056667D01*
X114930000Y-111756667D02*
X104650000Y-111756667D01*
X114930000Y-117056667D02*
X114930000Y-111756667D01*
X114990000Y-109266667D02*
X104590000Y-109266667D01*
X114990000Y-119546667D02*
X114990000Y-109266667D01*
X104650000Y-113406667D02*
G75*
G02*
X104650000Y-115406667I0J-1000000D01*
G01*
%TO.C,C1*%
X159565000Y-73877919D02*
X159565000Y-73355415D01*
X161035000Y-73877919D02*
X161035000Y-73355415D01*
D12*
%TO.C,IC1*%
X152970000Y-95446667D02*
X156870000Y-95446667D01*
X152970000Y-100496667D02*
X156870000Y-100496667D01*
D10*
X150920000Y-96066667D02*
G75*
G02*
X150720000Y-96066667I-100000J0D01*
G01*
X150720000Y-96066667D02*
G75*
G02*
X150920000Y-96066667I100000J0D01*
G01*
D13*
%TO.C,U2*%
X104590000Y-58866667D02*
X104590000Y-69146667D01*
X104590000Y-69146667D02*
X114990000Y-69146667D01*
X104650000Y-61356667D02*
X104650000Y-63006667D01*
X104650000Y-65006667D02*
X104650000Y-66656667D01*
X104650000Y-66656667D02*
X114930000Y-66656667D01*
X114930000Y-61356667D02*
X104650000Y-61356667D01*
X114930000Y-66656667D02*
X114930000Y-61356667D01*
X114990000Y-58866667D02*
X104590000Y-58866667D01*
X114990000Y-69146667D02*
X114990000Y-58866667D01*
X104650000Y-63006667D02*
G75*
G02*
X104650000Y-65006667I0J-1000000D01*
G01*
%TO.C,U1*%
X123890000Y-69186667D02*
X123890000Y-79466667D01*
X123890000Y-79466667D02*
X134290000Y-79466667D01*
X123950000Y-71676667D02*
X123950000Y-73326667D01*
X123950000Y-75326667D02*
X123950000Y-76976667D01*
X123950000Y-76976667D02*
X134230000Y-76976667D01*
X134230000Y-71676667D02*
X123950000Y-71676667D01*
X134230000Y-76976667D02*
X134230000Y-71676667D01*
X134290000Y-69186667D02*
X123890000Y-69186667D01*
X134290000Y-79466667D02*
X134290000Y-69186667D01*
X123950000Y-73326667D02*
G75*
G02*
X123950000Y-75326667I0J-1000000D01*
G01*
D12*
%TO.C,IC1*%
X152970000Y-119446667D02*
X156870000Y-119446667D01*
X152970000Y-124496667D02*
X156870000Y-124496667D01*
D10*
X150920000Y-120066667D02*
G75*
G02*
X150720000Y-120066667I-100000J0D01*
G01*
X150720000Y-120066667D02*
G75*
G02*
X150920000Y-120066667I100000J0D01*
G01*
D12*
%TO.C,IC2*%
X152970000Y-63706667D02*
X156870000Y-63706667D01*
X152970000Y-68756667D02*
X156870000Y-68756667D01*
D10*
X150920000Y-64326667D02*
G75*
G02*
X150720000Y-64326667I-100000J0D01*
G01*
X150720000Y-64326667D02*
G75*
G02*
X150920000Y-64326667I100000J0D01*
G01*
%TD*%
M02*
