%TF.GenerationSoftware,KiCad,Pcbnew,8.0.4*%
%TF.CreationDate,2024-09-16T10:23:00-03:00*%
%TF.ProjectId,drivers_panelized,64726976-6572-4735-9f70-616e656c697a,rev?*%
%TF.SameCoordinates,Original*%
%TF.FileFunction,Soldermask,Bot*%
%TF.FilePolarity,Negative*%
%FSLAX46Y46*%
G04 Gerber Fmt 4.6, Leading zero omitted, Abs format (unit mm)*
G04 Created by KiCad (PCBNEW 8.0.4) date 2024-09-16 10:23:00*
%MOMM*%
%LPD*%
G01*
G04 APERTURE LIST*
G04 Aperture macros list*
%AMRoundRect*
0 Rectangle with rounded corners*
0 $1 Rounding radius*
0 $2 $3 $4 $5 $6 $7 $8 $9 X,Y pos of 4 corners*
0 Add a 4 corners polygon primitive as box body*
4,1,4,$2,$3,$4,$5,$6,$7,$8,$9,$2,$3,0*
0 Add four circle primitives for the rounded corners*
1,1,$1+$1,$2,$3*
1,1,$1+$1,$4,$5*
1,1,$1+$1,$6,$7*
1,1,$1+$1,$8,$9*
0 Add four rect primitives between the rounded corners*
20,1,$1+$1,$2,$3,$4,$5,0*
20,1,$1+$1,$4,$5,$6,$7,0*
20,1,$1+$1,$6,$7,$8,$9,0*
20,1,$1+$1,$8,$9,$2,$3,0*%
G04 Aperture macros list end*
%ADD10C,0.500000*%
%ADD11C,1.600000*%
%ADD12RoundRect,0.250000X0.850000X0.750000X-0.850000X0.750000X-0.850000X-0.750000X0.850000X-0.750000X0*%
%ADD13O,2.200000X2.000000*%
%ADD14RoundRect,0.250000X0.475000X-0.250000X0.475000X0.250000X-0.475000X0.250000X-0.475000X-0.250000X0*%
%ADD15R,2.200000X2.000000*%
G04 APERTURE END LIST*
D10*
%TO.C,KiKit_MB_29_4*%
X156150000Y-108066667D03*
%TD*%
%TO.C,KiKit_MB_25_6*%
X101300000Y-113733333D03*
%TD*%
%TO.C,KiKit_MB_16_2*%
X118000000Y-96400000D03*
%TD*%
%TO.C,KiKit_MB_14_5*%
X101300000Y-96400000D03*
%TD*%
%TO.C,KiKit_MB_37_10*%
X97700000Y-58266667D03*
%TD*%
%TO.C,KiKit_MB_10_1*%
X183800000Y-70933333D03*
%TD*%
%TO.C,KiKit_MB_25_4*%
X147800000Y-114200000D03*
%TD*%
%TO.C,KiKit_MB_9_2*%
X183800000Y-65400001D03*
%TD*%
%TO.C,KiKit_MB_3_1*%
X164500000Y-64600001D03*
%TD*%
%TO.C,KiKit_MB_37_4*%
X92900000Y-58266667D03*
%TD*%
%TO.C,KiKit_MB_24_6*%
X127283333Y-104866667D03*
%TD*%
%TO.C,KiKit_MB_11_2*%
X173783333Y-60066667D03*
%TD*%
%TO.C,KiKit_MB_27_5*%
X164500000Y-115800000D03*
%TD*%
%TO.C,KiKit_MB_30_7*%
X153650000Y-127466667D03*
%TD*%
%TO.C,KiKit_MB_16_6*%
X118000000Y-99600000D03*
%TD*%
%TO.C,KiKit_MB_29_1*%
X153650000Y-108066667D03*
%TD*%
%TO.C,KiKit_MB_18_7*%
X107150000Y-104866667D03*
%TD*%
%TO.C,KiKit_MB_30_2*%
X111316666Y-130066667D03*
%TD*%
%TO.C,KiKit_MB_35_2*%
X127283333Y-108466667D03*
%TD*%
%TO.C,KiKit_MB_26_5*%
X147800000Y-119733333D03*
%TD*%
%TO.C,KiKit_MB_27_5*%
X118000000Y-116933333D03*
%TD*%
%TO.C,KiKit_MB_11_7*%
X177950000Y-60066667D03*
%TD*%
%TO.C,KiKit_MB_4_1*%
X118000000Y-70400000D03*
%TD*%
%TO.C,KiKit_MB_31_2*%
X120600000Y-116933333D03*
%TD*%
%TO.C,KiKit_MB_18_5*%
X155316667Y-103466667D03*
%TD*%
%TO.C,KiKit_MB_16_1*%
X164500000Y-94933333D03*
%TD*%
%TO.C,KiKit_MB_14_3*%
X101300000Y-98000000D03*
%TD*%
%TO.C,KiKit_MB_12_7*%
X126450000Y-79666667D03*
%TD*%
%TO.C,KiKit_MB_38_10*%
X97700000Y-129866667D03*
%TD*%
%TO.C,KiKit_MB_32_3*%
X167100000Y-121333333D03*
%TD*%
%TO.C,KiKit_MB_40_5*%
X189800000Y-127266667D03*
%TD*%
%TO.C,KiKit_MB_12_2*%
X130616666Y-79666667D03*
%TD*%
%TO.C,KiKit_MB_32_6*%
X167100000Y-118933333D03*
%TD*%
%TO.C,KiKit_MB_8_6*%
X167100000Y-70933333D03*
%TD*%
D11*
%TO.C,C3*%
X158700000Y-77966667D03*
X153700000Y-77966667D03*
%TD*%
D10*
%TO.C,KiKit_MB_15_6*%
X118000000Y-92533333D03*
%TD*%
%TO.C,KiKit_MB_7_4*%
X167100000Y-66200001D03*
%TD*%
D11*
%TO.C,C3*%
X178000000Y-101966667D03*
X173000000Y-101966667D03*
%TD*%
D10*
%TO.C,KiKit_MB_37_7*%
X95300000Y-58266667D03*
%TD*%
%TO.C,KiKit_MB_28_5*%
X118000000Y-124000000D03*
%TD*%
%TO.C,KiKit_MB_30_4*%
X109650000Y-130066667D03*
%TD*%
%TO.C,KiKit_MB_13_3*%
X101300000Y-90933333D03*
%TD*%
%TO.C,KiKit_MB_8_3*%
X167100000Y-73333333D03*
%TD*%
%TO.C,KiKit_MB_40_7*%
X191400000Y-127266667D03*
%TD*%
%TO.C,KiKit_MB_40_4*%
X189000000Y-127266667D03*
%TD*%
%TO.C,KiKit_MB_4_2*%
X164500000Y-71733333D03*
%TD*%
%TO.C,KiKit_MB_23_1*%
X172950000Y-84066667D03*
%TD*%
%TO.C,KiKit_MB_6_5*%
X108816667Y-79666667D03*
%TD*%
%TO.C,KiKit_MB_3_2*%
X164500000Y-65400001D03*
%TD*%
%TO.C,KiKit_MB_3_6*%
X164500000Y-68600001D03*
%TD*%
%TO.C,KiKit_MB_34_3*%
X183800000Y-120533333D03*
%TD*%
%TO.C,KiKit_MB_29_3*%
X155316667Y-108066667D03*
%TD*%
%TO.C,KiKit_MB_11_2*%
X127283333Y-58066667D03*
%TD*%
%TO.C,KiKit_MB_6_7*%
X153650000Y-79466667D03*
%TD*%
%TO.C,KiKit_MB_14_3*%
X147800000Y-97333333D03*
%TD*%
%TO.C,KiKit_MB_20_3*%
X120600000Y-98000000D03*
%TD*%
%TO.C,KiKit_MB_6_4*%
X156150000Y-79466667D03*
%TD*%
%TO.C,KiKit_MB_35_5*%
X129783333Y-108466667D03*
%TD*%
%TO.C,KiKit_MB_21_3*%
X137300000Y-90133333D03*
%TD*%
%TO.C,KiKit_MB_10_4*%
X137300000Y-72800000D03*
%TD*%
%TO.C,KiKit_MB_33_3*%
X183800000Y-114200000D03*
%TD*%
%TO.C,KiKit_MB_5_7*%
X158650000Y-60066667D03*
%TD*%
%TO.C,KiKit_MB_8_1*%
X167100000Y-74933333D03*
%TD*%
%TO.C,KiKit_MB_13_5*%
X147800000Y-89400000D03*
%TD*%
%TO.C,KiKit_MB_22_1*%
X183800000Y-94933333D03*
%TD*%
%TO.C,KiKit_MB_18_3*%
X110483333Y-104866667D03*
%TD*%
%TO.C,KiKit_MB_19_2*%
X120600000Y-91733333D03*
%TD*%
%TO.C,KiKit_MB_17_6*%
X111316666Y-83266667D03*
%TD*%
%TO.C,KiKit_MB_23_7*%
X131450000Y-83266667D03*
%TD*%
%TO.C,KiKit_MB_27_2*%
X164500000Y-113400000D03*
%TD*%
%TO.C,KiKit_MB_9_5*%
X183800000Y-67800001D03*
%TD*%
%TO.C,KiKit_MB_39_7*%
X191400000Y-60266667D03*
%TD*%
%TO.C,KiKit_MB_5_4*%
X156150000Y-60066667D03*
%TD*%
%TO.C,KiKit_MB_26_6*%
X147800000Y-118933333D03*
%TD*%
%TO.C,KiKit_MB_20_6*%
X167100000Y-94933333D03*
%TD*%
%TO.C,KiKit_MB_28_6*%
X118000000Y-124800000D03*
%TD*%
%TO.C,KiKit_MB_7_3*%
X120600000Y-65733334D03*
%TD*%
%TO.C,KiKit_MB_6_3*%
X156983333Y-79466667D03*
%TD*%
%TO.C,KiKit_MB_26_3*%
X147800000Y-121333333D03*
%TD*%
%TO.C,KiKit_MB_3_4*%
X164500000Y-67000001D03*
%TD*%
%TO.C,KiKit_MB_16_4*%
X118000000Y-98000000D03*
%TD*%
%TO.C,KiKit_MB_26_3*%
X101300000Y-123200000D03*
%TD*%
%TO.C,KiKit_MB_27_6*%
X118000000Y-117733333D03*
%TD*%
%TO.C,KiKit_MB_12_1*%
X131450000Y-79666667D03*
%TD*%
%TO.C,KiKit_MB_23_3*%
X174616666Y-84066667D03*
%TD*%
%TO.C,KiKit_MB_22_2*%
X183800000Y-95733333D03*
%TD*%
%TO.C,KiKit_MB_36_2*%
X177116666Y-127466667D03*
%TD*%
%TO.C,KiKit_MB_25_3*%
X101300000Y-116133333D03*
%TD*%
%TO.C,KiKit_MB_31_5*%
X120600000Y-114533333D03*
%TD*%
%TO.C,KiKit_MB_19_6*%
X167100000Y-88600000D03*
%TD*%
%TO.C,KiKit_MB_8_3*%
X120600000Y-72800000D03*
%TD*%
%TO.C,KiKit_MB_38_5*%
X93700000Y-129866667D03*
%TD*%
%TO.C,KiKit_MB_5_3*%
X155316667Y-60066667D03*
%TD*%
%TO.C,KiKit_MB_13_2*%
X147800000Y-91800000D03*
%TD*%
%TO.C,KiKit_MB_24_2*%
X130616666Y-104866667D03*
%TD*%
%TO.C,KiKit_MB_1_3*%
X101300000Y-65733334D03*
%TD*%
%TO.C,KiKit_MB_10_4*%
X183800000Y-73333333D03*
%TD*%
%TO.C,KiKit_MB_32_5*%
X167100000Y-119733333D03*
%TD*%
%TO.C,KiKit_MB_19_1*%
X167100000Y-92600000D03*
%TD*%
%TO.C,KiKit_MB_36_3*%
X176283333Y-127466667D03*
%TD*%
%TO.C,KiKit_MB_39_2*%
X187400000Y-60266667D03*
%TD*%
%TO.C,KiKit_MB_38_3*%
X92100000Y-129866667D03*
%TD*%
%TO.C,KiKit_MB_30_3*%
X110483333Y-130066667D03*
%TD*%
%TO.C,KiKit_MB_16_5*%
X118000000Y-98800000D03*
%TD*%
%TO.C,KiKit_MB_11_7*%
X131450000Y-58066667D03*
%TD*%
%TO.C,KiKit_MB_28_1*%
X164500000Y-118933333D03*
%TD*%
%TO.C,KiKit_MB_8_5*%
X120600000Y-71200000D03*
%TD*%
%TO.C,KiKit_MB_33_4*%
X137300000Y-116133333D03*
%TD*%
%TO.C,KiKit_MB_32_4*%
X120600000Y-122400000D03*
%TD*%
%TO.C,KiKit_MB_29_7*%
X112150000Y-108466667D03*
%TD*%
%TO.C,KiKit_MB_34_1*%
X137300000Y-120800000D03*
%TD*%
%TO.C,KiKit_MB_40_6*%
X190600000Y-127266667D03*
%TD*%
%TO.C,KiKit_MB_22_4*%
X137300000Y-98000000D03*
%TD*%
%TO.C,KiKit_MB_40_3*%
X188200000Y-127266667D03*
%TD*%
%TO.C,KiKit_MB_27_4*%
X164500000Y-115000000D03*
%TD*%
%TO.C,KiKit_MB_27_3*%
X118000000Y-115333333D03*
%TD*%
%TO.C,KiKit_MB_2_6*%
X101300000Y-70400000D03*
%TD*%
%TO.C,KiKit_MB_40_1*%
X186600000Y-127266667D03*
%TD*%
%TO.C,KiKit_MB_28_2*%
X164500000Y-119733333D03*
%TD*%
%TO.C,KiKit_MB_23_3*%
X128116666Y-83266667D03*
%TD*%
%TO.C,KiKit_MB_14_2*%
X147800000Y-98133333D03*
%TD*%
%TO.C,KiKit_MB_32_3*%
X120600000Y-123200000D03*
%TD*%
%TO.C,KiKit_MB_2_3*%
X101300000Y-72800000D03*
%TD*%
%TO.C,KiKit_MB_5_2*%
X154483334Y-60066667D03*
%TD*%
%TO.C,KiKit_MB_18_7*%
X153650000Y-103466667D03*
%TD*%
%TO.C,KiKit_MB_6_6*%
X154483334Y-79466667D03*
%TD*%
%TO.C,KiKit_MB_39_9*%
X193000000Y-60266667D03*
%TD*%
%TO.C,KiKit_MB_4_1*%
X164500000Y-70933333D03*
%TD*%
%TO.C,KiKit_MB_36_3*%
X129783333Y-130066667D03*
%TD*%
%TO.C,KiKit_MB_13_1*%
X147800000Y-92600000D03*
%TD*%
%TO.C,KiKit_MB_26_4*%
X147800000Y-120533333D03*
%TD*%
%TO.C,KiKit_MB_40_3*%
X141700000Y-55400000D03*
%TD*%
%TO.C,KiKit_MB_24_1*%
X177950000Y-103466667D03*
%TD*%
%TO.C,KiKit_MB_28_4*%
X164500000Y-121333333D03*
%TD*%
%TO.C,KiKit_MB_10_1*%
X137300000Y-70400000D03*
%TD*%
%TO.C,KiKit_MB_19_5*%
X167100000Y-89400000D03*
%TD*%
%TO.C,KiKit_MB_32_1*%
X120600000Y-124800000D03*
%TD*%
%TO.C,KiKit_MB_11_4*%
X128950000Y-58066667D03*
%TD*%
%TO.C,KiKit_MB_25_5*%
X101300000Y-114533333D03*
%TD*%
%TO.C,KiKit_MB_9_6*%
X183800000Y-68600001D03*
%TD*%
%TO.C,KiKit_MB_40_9*%
X143400000Y-132100000D03*
%TD*%
%TO.C,KiKit_MB_31_4*%
X120600000Y-115333333D03*
%TD*%
%TO.C,KiKit_MB_22_2*%
X137300000Y-96400000D03*
%TD*%
%TO.C,KiKit_MB_26_6*%
X101300000Y-120800000D03*
%TD*%
%TO.C,KiKit_MB_4_6*%
X118000000Y-74400000D03*
%TD*%
%TO.C,KiKit_MB_27_2*%
X118000000Y-114533333D03*
%TD*%
%TO.C,KiKit_MB_10_2*%
X183800000Y-71733333D03*
%TD*%
%TO.C,KiKit_MB_11_6*%
X130616666Y-58066667D03*
%TD*%
%TO.C,KiKit_MB_31_2*%
X167100000Y-115800000D03*
%TD*%
%TO.C,KiKit_MB_12_3*%
X129783333Y-79666667D03*
%TD*%
%TO.C,KiKit_MB_33_1*%
X183800000Y-112600000D03*
%TD*%
%TO.C,KiKit_MB_18_3*%
X156983333Y-103466667D03*
%TD*%
%TO.C,KiKit_MB_33_1*%
X137300000Y-113733333D03*
%TD*%
%TO.C,KiKit_MB_29_3*%
X108816667Y-108466667D03*
%TD*%
%TO.C,KiKit_MB_33_6*%
X137300000Y-117733333D03*
%TD*%
%TO.C,KiKit_MB_8_4*%
X120600000Y-72000000D03*
%TD*%
%TO.C,KiKit_MB_20_5*%
X120600000Y-96400000D03*
%TD*%
%TO.C,KiKit_MB_2_1*%
X101300000Y-74400000D03*
%TD*%
%TO.C,KiKit_MB_38_8*%
X96100000Y-129866667D03*
%TD*%
%TO.C,KiKit_MB_3_3*%
X118000000Y-64933334D03*
%TD*%
%TO.C,KiKit_MB_13_2*%
X101300000Y-91733333D03*
%TD*%
%TO.C,KiKit_MB_20_1*%
X120600000Y-99600000D03*
%TD*%
%TO.C,KiKit_MB_26_1*%
X101300000Y-124800000D03*
%TD*%
%TO.C,KiKit_MB_37_5*%
X93700000Y-58266667D03*
%TD*%
D11*
%TO.C,C3*%
X178000000Y-77966667D03*
X173000000Y-77966667D03*
%TD*%
%TO.C,C3*%
X158700000Y-125966667D03*
X153700000Y-125966667D03*
%TD*%
D10*
%TO.C,KiKit_MB_2_2*%
X101300000Y-73600000D03*
%TD*%
%TO.C,KiKit_MB_33_5*%
X183800000Y-115800000D03*
%TD*%
%TO.C,KiKit_MB_13_1*%
X101300000Y-92533333D03*
%TD*%
%TO.C,KiKit_MB_39_5*%
X189800000Y-60266667D03*
%TD*%
%TO.C,KiKit_MB_36_1*%
X131450000Y-130066667D03*
%TD*%
%TO.C,KiKit_MB_12_2*%
X177116666Y-79466667D03*
%TD*%
%TO.C,KiKit_MB_9_3*%
X183800000Y-66200001D03*
%TD*%
%TO.C,KiKit_MB_31_4*%
X167100000Y-114200000D03*
%TD*%
%TO.C,KiKit_MB_25_1*%
X101300000Y-117733333D03*
%TD*%
%TO.C,KiKit_MB_2_3*%
X147800000Y-73333333D03*
%TD*%
%TO.C,KiKit_MB_1_5*%
X101300000Y-64133334D03*
%TD*%
%TO.C,KiKit_MB_4_5*%
X118000000Y-73600000D03*
%TD*%
%TO.C,KiKit_MB_16_2*%
X164500000Y-95733333D03*
%TD*%
%TO.C,KiKit_MB_19_6*%
X120600000Y-88533333D03*
%TD*%
%TO.C,KiKit_MB_22_5*%
X137300000Y-98800000D03*
%TD*%
%TO.C,KiKit_MB_5_2*%
X107983334Y-58066667D03*
%TD*%
%TO.C,KiKit_MB_40_11*%
X145000000Y-132100000D03*
%TD*%
%TO.C,KiKit_MB_33_5*%
X137300000Y-116933333D03*
%TD*%
%TO.C,KiKit_MB_33_3*%
X137300000Y-115333333D03*
%TD*%
%TO.C,KiKit_MB_21_1*%
X183800000Y-88600000D03*
%TD*%
%TO.C,KiKit_MB_29_2*%
X107983334Y-108466667D03*
%TD*%
%TO.C,KiKit_MB_6_2*%
X157816666Y-79466667D03*
%TD*%
%TO.C,KiKit_MB_34_6*%
X183800000Y-122933333D03*
%TD*%
%TO.C,KiKit_MB_32_6*%
X120600000Y-120800000D03*
%TD*%
%TO.C,KiKit_MB_40_2*%
X187400000Y-127266667D03*
%TD*%
%TO.C,KiKit_MB_20_1*%
X167100000Y-98933333D03*
%TD*%
%TO.C,KiKit_MB_23_4*%
X175450000Y-84066667D03*
%TD*%
%TO.C,KiKit_MB_12_1*%
X177950000Y-79466667D03*
%TD*%
%TO.C,KiKit_MB_13_6*%
X101300000Y-88533333D03*
%TD*%
%TO.C,KiKit_MB_8_2*%
X167100000Y-74133333D03*
%TD*%
%TO.C,KiKit_MB_35_3*%
X174616666Y-108066667D03*
%TD*%
%TO.C,KiKit_MB_13_6*%
X147800000Y-88600000D03*
%TD*%
%TO.C,KiKit_MB_18_1*%
X112150000Y-104866667D03*
%TD*%
%TO.C,KiKit_MB_21_1*%
X137300000Y-88533333D03*
%TD*%
%TO.C,KiKit_MB_14_1*%
X101300000Y-99600000D03*
%TD*%
%TO.C,KiKit_MB_30_3*%
X156983333Y-127466667D03*
%TD*%
%TO.C,KiKit_MB_40_1*%
X140100000Y-55400000D03*
%TD*%
%TO.C,KiKit_MB_21_2*%
X183800000Y-89400000D03*
%TD*%
%TO.C,KiKit_MB_33_2*%
X183800000Y-113400000D03*
%TD*%
%TO.C,KiKit_MB_40_9*%
X143400000Y-55400000D03*
%TD*%
%TO.C,KiKit_MB_22_3*%
X183800000Y-96533333D03*
%TD*%
%TO.C,KiKit_MB_24_5*%
X174616666Y-103466667D03*
%TD*%
%TO.C,KiKit_MB_28_1*%
X118000000Y-120800000D03*
%TD*%
%TO.C,KiKit_MB_4_3*%
X118000000Y-72000000D03*
%TD*%
%TO.C,KiKit_MB_9_5*%
X137300000Y-66533334D03*
%TD*%
%TO.C,KiKit_MB_17_7*%
X112150000Y-83266667D03*
%TD*%
%TO.C,KiKit_MB_17_1*%
X107150000Y-83266667D03*
%TD*%
%TO.C,KiKit_MB_8_4*%
X167100000Y-72533333D03*
%TD*%
%TO.C,KiKit_MB_23_5*%
X176283333Y-84066667D03*
%TD*%
%TO.C,KiKit_MB_30_4*%
X156150000Y-127466667D03*
%TD*%
%TO.C,KiKit_MB_35_6*%
X130616666Y-108466667D03*
%TD*%
%TO.C,KiKit_MB_35_4*%
X175450000Y-108066667D03*
%TD*%
%TO.C,KiKit_MB_15_2*%
X118000000Y-89333333D03*
%TD*%
%TO.C,KiKit_MB_31_3*%
X120600000Y-116133333D03*
%TD*%
%TO.C,KiKit_MB_31_6*%
X167100000Y-112600000D03*
%TD*%
%TO.C,KiKit_MB_1_6*%
X147800000Y-64600001D03*
%TD*%
%TO.C,KiKit_MB_18_1*%
X158650000Y-103466667D03*
%TD*%
%TO.C,KiKit_MB_30_2*%
X157816666Y-127466667D03*
%TD*%
%TO.C,KiKit_MB_20_3*%
X167100000Y-97333333D03*
%TD*%
%TO.C,KiKit_MB_19_5*%
X120600000Y-89333333D03*
%TD*%
%TO.C,KiKit_MB_29_1*%
X107150000Y-108466667D03*
%TD*%
%TO.C,KiKit_MB_16_6*%
X164500000Y-98933333D03*
%TD*%
%TO.C,KiKit_MB_15_5*%
X164500000Y-91800000D03*
%TD*%
%TO.C,KiKit_MB_9_3*%
X137300000Y-64933334D03*
%TD*%
%TO.C,KiKit_MB_18_6*%
X107983334Y-104866667D03*
%TD*%
%TO.C,KiKit_MB_4_5*%
X164500000Y-74133333D03*
%TD*%
%TO.C,KiKit_MB_7_4*%
X120600000Y-64933334D03*
%TD*%
%TO.C,KiKit_MB_15_3*%
X164500000Y-90200000D03*
%TD*%
%TO.C,KiKit_MB_14_4*%
X101300000Y-97200000D03*
%TD*%
%TO.C,KiKit_MB_5_5*%
X110483333Y-58066667D03*
%TD*%
%TO.C,KiKit_MB_28_4*%
X118000000Y-123200000D03*
%TD*%
%TO.C,KiKit_MB_34_4*%
X137300000Y-123200000D03*
%TD*%
%TO.C,KiKit_MB_28_6*%
X164500000Y-122933333D03*
%TD*%
%TO.C,KiKit_MB_26_1*%
X147800000Y-122933333D03*
%TD*%
%TO.C,KiKit_MB_29_4*%
X109650000Y-108466667D03*
%TD*%
%TO.C,KiKit_MB_33_2*%
X137300000Y-114533333D03*
%TD*%
%TO.C,KiKit_MB_23_5*%
X129783333Y-83266667D03*
%TD*%
%TO.C,KiKit_MB_23_4*%
X128950000Y-83266667D03*
%TD*%
%TO.C,KiKit_MB_24_5*%
X128116666Y-104866667D03*
%TD*%
%TO.C,KiKit_MB_23_2*%
X173783333Y-84066667D03*
%TD*%
%TO.C,KiKit_MB_34_3*%
X137300000Y-122400000D03*
%TD*%
%TO.C,KiKit_MB_30_1*%
X158650000Y-127466667D03*
%TD*%
%TO.C,KiKit_MB_5_6*%
X157816666Y-60066667D03*
%TD*%
%TO.C,KiKit_MB_39_6*%
X190600000Y-60266667D03*
%TD*%
%TO.C,KiKit_MB_4_2*%
X118000000Y-71200000D03*
%TD*%
%TO.C,KiKit_MB_30_1*%
X112150000Y-130066667D03*
%TD*%
%TO.C,KiKit_MB_9_2*%
X137300000Y-64133334D03*
%TD*%
%TO.C,KiKit_MB_3_3*%
X164500000Y-66200001D03*
%TD*%
%TO.C,KiKit_MB_32_2*%
X167100000Y-122133333D03*
%TD*%
%TO.C,KiKit_MB_9_1*%
X137300000Y-63333334D03*
%TD*%
%TO.C,KiKit_MB_40_2*%
X140900000Y-55400000D03*
%TD*%
%TO.C,KiKit_MB_30_6*%
X154483334Y-127466667D03*
%TD*%
%TO.C,KiKit_MB_21_3*%
X183800000Y-90200000D03*
%TD*%
%TO.C,KiKit_MB_24_3*%
X129783333Y-104866667D03*
%TD*%
%TO.C,KiKit_MB_40_11*%
X145000000Y-55400000D03*
%TD*%
%TO.C,KiKit_MB_33_6*%
X183800000Y-116600000D03*
%TD*%
%TO.C,KiKit_MB_23_1*%
X126450000Y-83266667D03*
%TD*%
%TO.C,KiKit_MB_6_7*%
X107150000Y-79666667D03*
%TD*%
%TO.C,KiKit_MB_28_3*%
X164500000Y-120533333D03*
%TD*%
%TO.C,KiKit_MB_2_2*%
X147800000Y-74133333D03*
%TD*%
%TO.C,KiKit_MB_29_7*%
X158650000Y-108066667D03*
%TD*%
%TO.C,KiKit_MB_25_4*%
X101300000Y-115333333D03*
%TD*%
%TO.C,KiKit_MB_19_4*%
X167100000Y-90200000D03*
%TD*%
%TO.C,KiKit_MB_8_5*%
X167100000Y-71733333D03*
%TD*%
%TO.C,KiKit_MB_11_3*%
X128116666Y-58066667D03*
%TD*%
%TO.C,KiKit_MB_29_6*%
X111316666Y-108466667D03*
%TD*%
%TO.C,KiKit_MB_30_5*%
X108816667Y-130066667D03*
%TD*%
%TO.C,KiKit_MB_21_2*%
X137300000Y-89333333D03*
%TD*%
%TO.C,KiKit_MB_22_1*%
X137300000Y-95600000D03*
%TD*%
%TO.C,KiKit_MB_14_4*%
X147800000Y-96533333D03*
%TD*%
%TO.C,KiKit_MB_31_1*%
X120600000Y-117733333D03*
%TD*%
%TO.C,KiKit_MB_5_4*%
X109650000Y-58066667D03*
%TD*%
%TO.C,KiKit_MB_9_6*%
X137300000Y-67333334D03*
%TD*%
%TO.C,KiKit_MB_12_6*%
X127283333Y-79666667D03*
%TD*%
%TO.C,KiKit_MB_22_6*%
X183800000Y-98933333D03*
%TD*%
%TO.C,KiKit_MB_17_4*%
X156150000Y-84066667D03*
%TD*%
%TO.C,KiKit_MB_13_5*%
X101300000Y-89333333D03*
%TD*%
%TO.C,KiKit_MB_39_3*%
X188200000Y-60266667D03*
%TD*%
%TO.C,KiKit_MB_37_6*%
X94500000Y-58266667D03*
%TD*%
%TO.C,KiKit_MB_1_3*%
X147800000Y-67000001D03*
%TD*%
%TO.C,KiKit_MB_3_4*%
X118000000Y-65733334D03*
%TD*%
%TO.C,KiKit_MB_39_8*%
X192200000Y-60266667D03*
%TD*%
%TO.C,KiKit_MB_7_2*%
X167100000Y-67800001D03*
%TD*%
%TO.C,KiKit_MB_29_5*%
X110483333Y-108466667D03*
%TD*%
%TO.C,KiKit_MB_10_6*%
X183800000Y-74933333D03*
%TD*%
%TO.C,KiKit_MB_30_7*%
X107150000Y-130066667D03*
%TD*%
%TO.C,KiKit_MB_11_5*%
X129783333Y-58066667D03*
%TD*%
%TO.C,KiKit_MB_19_3*%
X167100000Y-91000000D03*
%TD*%
%TO.C,KiKit_MB_26_4*%
X101300000Y-122400000D03*
%TD*%
%TO.C,KiKit_MB_8_1*%
X120600000Y-74400000D03*
%TD*%
%TO.C,KiKit_MB_21_6*%
X183800000Y-92600000D03*
%TD*%
%TO.C,KiKit_MB_39_1*%
X186600000Y-60266667D03*
%TD*%
%TO.C,KiKit_MB_25_6*%
X147800000Y-112600000D03*
%TD*%
%TO.C,KiKit_MB_1_5*%
X147800000Y-65400001D03*
%TD*%
%TO.C,KiKit_MB_30_5*%
X155316667Y-127466667D03*
%TD*%
%TO.C,KiKit_MB_16_4*%
X164500000Y-97333333D03*
%TD*%
%TO.C,KiKit_MB_15_6*%
X164500000Y-92600000D03*
%TD*%
%TO.C,KiKit_MB_17_2*%
X107983334Y-83266667D03*
%TD*%
%TO.C,KiKit_MB_16_5*%
X164500000Y-98133333D03*
%TD*%
%TO.C,KiKit_MB_5_1*%
X107150000Y-58066667D03*
%TD*%
%TO.C,KiKit_MB_17_3*%
X108816667Y-83266667D03*
%TD*%
%TO.C,KiKit_MB_40_9*%
X193000000Y-127266667D03*
%TD*%
%TO.C,KiKit_MB_36_2*%
X130616666Y-130066667D03*
%TD*%
%TO.C,KiKit_MB_22_5*%
X183800000Y-98133333D03*
%TD*%
%TO.C,KiKit_MB_17_3*%
X155316667Y-84066667D03*
%TD*%
%TO.C,KiKit_MB_2_5*%
X101300000Y-71200000D03*
%TD*%
%TO.C,KiKit_MB_11_3*%
X174616666Y-60066667D03*
%TD*%
%TO.C,KiKit_MB_10_5*%
X137300000Y-73600000D03*
%TD*%
%TO.C,KiKit_MB_27_3*%
X164500000Y-114200000D03*
%TD*%
%TO.C,KiKit_MB_7_1*%
X167100000Y-68600001D03*
%TD*%
%TO.C,KiKit_MB_37_8*%
X96100000Y-58266667D03*
%TD*%
%TO.C,KiKit_MB_18_2*%
X111316666Y-104866667D03*
%TD*%
%TO.C,KiKit_MB_31_5*%
X167100000Y-113400000D03*
%TD*%
%TO.C,KiKit_MB_31_3*%
X167100000Y-115000000D03*
%TD*%
%TO.C,KiKit_MB_29_2*%
X154483334Y-108066667D03*
%TD*%
%TO.C,KiKit_MB_20_4*%
X120600000Y-97200000D03*
%TD*%
%TO.C,KiKit_MB_35_6*%
X177116666Y-108066667D03*
%TD*%
%TO.C,KiKit_MB_31_6*%
X120600000Y-113733333D03*
%TD*%
%TO.C,KiKit_MB_36_6*%
X173783333Y-127466667D03*
%TD*%
%TO.C,KiKit_MB_18_4*%
X156150000Y-103466667D03*
%TD*%
%TO.C,KiKit_MB_21_5*%
X183800000Y-91800000D03*
%TD*%
%TO.C,KiKit_MB_18_4*%
X109650000Y-104866667D03*
%TD*%
%TO.C,KiKit_MB_11_4*%
X175450000Y-60066667D03*
%TD*%
%TO.C,KiKit_MB_15_2*%
X164500000Y-89400000D03*
%TD*%
%TO.C,KiKit_MB_35_5*%
X176283333Y-108066667D03*
%TD*%
%TO.C,KiKit_MB_1_1*%
X101300000Y-67333334D03*
%TD*%
%TO.C,KiKit_MB_20_5*%
X167100000Y-95733333D03*
%TD*%
%TO.C,KiKit_MB_38_11*%
X98500000Y-129866667D03*
%TD*%
%TO.C,KiKit_MB_22_6*%
X137300000Y-99600000D03*
%TD*%
%TO.C,KiKit_MB_20_2*%
X167100000Y-98133333D03*
%TD*%
%TO.C,KiKit_MB_15_5*%
X118000000Y-91733333D03*
%TD*%
%TO.C,KiKit_MB_9_4*%
X137300000Y-65733334D03*
%TD*%
%TO.C,KiKit_MB_5_7*%
X112150000Y-58066667D03*
%TD*%
%TO.C,KiKit_MB_36_4*%
X128950000Y-130066667D03*
%TD*%
%TO.C,KiKit_MB_24_4*%
X128950000Y-104866667D03*
%TD*%
%TO.C,KiKit_MB_3_6*%
X118000000Y-67333334D03*
%TD*%
%TO.C,KiKit_MB_34_5*%
X183800000Y-122133333D03*
%TD*%
%TO.C,KiKit_MB_28_3*%
X118000000Y-122400000D03*
%TD*%
%TO.C,KiKit_MB_15_4*%
X164500000Y-91000000D03*
%TD*%
%TO.C,KiKit_MB_13_4*%
X101300000Y-90133333D03*
%TD*%
%TO.C,KiKit_MB_15_4*%
X118000000Y-90933333D03*
%TD*%
D11*
%TO.C,C3*%
X178000000Y-125966667D03*
X173000000Y-125966667D03*
%TD*%
D10*
%TO.C,KiKit_MB_22_3*%
X137300000Y-97200000D03*
%TD*%
%TO.C,KiKit_MB_24_2*%
X177116666Y-103466667D03*
%TD*%
%TO.C,KiKit_MB_35_3*%
X128116666Y-108466667D03*
%TD*%
%TO.C,KiKit_MB_18_5*%
X108816667Y-104866667D03*
%TD*%
%TO.C,KiKit_MB_30_6*%
X107983334Y-130066667D03*
%TD*%
%TO.C,KiKit_MB_12_4*%
X175450000Y-79466667D03*
%TD*%
%TO.C,KiKit_MB_6_1*%
X158650000Y-79466667D03*
%TD*%
%TO.C,KiKit_MB_11_1*%
X126450000Y-58066667D03*
%TD*%
%TO.C,KiKit_MB_29_6*%
X157816666Y-108066667D03*
%TD*%
%TO.C,KiKit_MB_13_4*%
X147800000Y-90200000D03*
%TD*%
%TO.C,KiKit_MB_17_6*%
X157816666Y-84066667D03*
%TD*%
%TO.C,KiKit_MB_4_3*%
X164500000Y-72533333D03*
%TD*%
%TO.C,KiKit_MB_26_2*%
X147800000Y-122133333D03*
%TD*%
%TO.C,KiKit_MB_2_1*%
X147800000Y-74933333D03*
%TD*%
%TO.C,KiKit_MB_32_5*%
X120600000Y-121600000D03*
%TD*%
%TO.C,KiKit_MB_15_1*%
X118000000Y-88533333D03*
%TD*%
%TO.C,KiKit_MB_36_5*%
X128116666Y-130066667D03*
%TD*%
%TO.C,KiKit_MB_40_10*%
X144200000Y-55400000D03*
%TD*%
%TO.C,KiKit_MB_21_4*%
X183800000Y-91000000D03*
%TD*%
%TO.C,KiKit_MB_14_5*%
X147800000Y-95733333D03*
%TD*%
%TO.C,KiKit_MB_27_4*%
X118000000Y-116133333D03*
%TD*%
%TO.C,KiKit_MB_23_7*%
X177950000Y-84066667D03*
%TD*%
%TO.C,KiKit_MB_39_4*%
X189000000Y-60266667D03*
%TD*%
%TO.C,KiKit_MB_11_5*%
X176283333Y-60066667D03*
%TD*%
%TO.C,KiKit_MB_6_2*%
X111316666Y-79666667D03*
%TD*%
%TO.C,KiKit_MB_8_6*%
X120600000Y-70400000D03*
%TD*%
%TO.C,KiKit_MB_38_7*%
X95300000Y-129866667D03*
%TD*%
%TO.C,KiKit_MB_2_4*%
X101300000Y-72000000D03*
%TD*%
%TO.C,KiKit_MB_12_5*%
X128116666Y-79666667D03*
%TD*%
%TO.C,KiKit_MB_12_5*%
X174616666Y-79466667D03*
%TD*%
%TO.C,KiKit_MB_26_2*%
X101300000Y-124000000D03*
%TD*%
%TO.C,KiKit_MB_25_2*%
X147800000Y-115800000D03*
%TD*%
%TO.C,KiKit_MB_14_1*%
X147800000Y-98933333D03*
%TD*%
%TO.C,KiKit_MB_36_1*%
X177950000Y-127466667D03*
%TD*%
%TO.C,KiKit_MB_37_11*%
X98500000Y-58266667D03*
%TD*%
%TO.C,KiKit_MB_27_1*%
X118000000Y-113733333D03*
%TD*%
%TO.C,KiKit_MB_36_6*%
X127283333Y-130066667D03*
%TD*%
%TO.C,KiKit_MB_6_5*%
X155316667Y-79466667D03*
%TD*%
%TO.C,KiKit_MB_22_4*%
X183800000Y-97333333D03*
%TD*%
%TO.C,KiKit_MB_16_3*%
X164500000Y-96533333D03*
%TD*%
%TO.C,KiKit_MB_24_7*%
X126450000Y-104866667D03*
%TD*%
%TO.C,KiKit_MB_38_9*%
X96900000Y-129866667D03*
%TD*%
%TO.C,KiKit_MB_1_2*%
X101300000Y-66533334D03*
%TD*%
%TO.C,KiKit_MB_20_2*%
X120600000Y-98800000D03*
%TD*%
%TO.C,KiKit_MB_27_6*%
X164500000Y-116600000D03*
%TD*%
%TO.C,KiKit_MB_24_3*%
X176283333Y-103466667D03*
%TD*%
%TO.C,KiKit_MB_6_6*%
X107983334Y-79666667D03*
%TD*%
%TO.C,KiKit_MB_4_6*%
X164500000Y-74933333D03*
%TD*%
%TO.C,KiKit_MB_29_5*%
X156983333Y-108066667D03*
%TD*%
%TO.C,KiKit_MB_11_1*%
X172950000Y-60066667D03*
%TD*%
%TO.C,KiKit_MB_40_8*%
X192200000Y-127266667D03*
%TD*%
%TO.C,KiKit_MB_10_5*%
X183800000Y-74133333D03*
%TD*%
%TO.C,KiKit_MB_15_1*%
X164500000Y-88600000D03*
%TD*%
%TO.C,KiKit_MB_7_2*%
X120600000Y-66533334D03*
%TD*%
%TO.C,KiKit_MB_26_5*%
X101300000Y-121600000D03*
%TD*%
%TO.C,KiKit_MB_5_1*%
X153650000Y-60066667D03*
%TD*%
%TO.C,KiKit_MB_24_1*%
X131450000Y-104866667D03*
%TD*%
%TO.C,KiKit_MB_20_6*%
X120600000Y-95600000D03*
%TD*%
%TO.C,KiKit_MB_25_2*%
X101300000Y-116933333D03*
%TD*%
%TO.C,KiKit_MB_34_1*%
X183800000Y-118933333D03*
%TD*%
%TO.C,KiKit_MB_7_6*%
X120600000Y-63333334D03*
%TD*%
%TO.C,KiKit_MB_7_5*%
X120600000Y-64133334D03*
%TD*%
%TO.C,KiKit_MB_34_5*%
X137300000Y-124000000D03*
%TD*%
%TO.C,KiKit_MB_34_4*%
X183800000Y-121333333D03*
%TD*%
%TO.C,KiKit_MB_21_6*%
X137300000Y-92533333D03*
%TD*%
%TO.C,KiKit_MB_28_5*%
X164500000Y-122133333D03*
%TD*%
D11*
%TO.C,C3*%
X158700000Y-101966667D03*
X153700000Y-101966667D03*
%TD*%
D10*
%TO.C,KiKit_MB_7_1*%
X120600000Y-67333334D03*
%TD*%
%TO.C,KiKit_MB_18_6*%
X154483334Y-103466667D03*
%TD*%
%TO.C,KiKit_MB_40_6*%
X-57800000Y-122566667D03*
%TD*%
%TO.C,KiKit_MB_25_1*%
X147800000Y-116600000D03*
%TD*%
%TO.C,KiKit_MB_10_2*%
X137300000Y-71200000D03*
%TD*%
%TO.C,KiKit_MB_35_7*%
X131450000Y-108466667D03*
%TD*%
%TO.C,KiKit_MB_1_2*%
X147800000Y-67800001D03*
%TD*%
%TO.C,KiKit_MB_10_6*%
X137300000Y-74400000D03*
%TD*%
%TO.C,KiKit_MB_17_5*%
X110483333Y-83266667D03*
%TD*%
%TO.C,KiKit_MB_4_4*%
X118000000Y-72800000D03*
%TD*%
%TO.C,KiKit_MB_17_1*%
X153650000Y-84066667D03*
%TD*%
%TO.C,KiKit_MB_36_7*%
X172950000Y-127466667D03*
%TD*%
%TO.C,KiKit_MB_10_3*%
X137300000Y-72000000D03*
%TD*%
%TO.C,KiKit_MB_32_1*%
X167100000Y-122933333D03*
%TD*%
%TO.C,KiKit_MB_2_5*%
X147800000Y-71733333D03*
%TD*%
%TO.C,KiKit_MB_19_4*%
X120600000Y-90133333D03*
%TD*%
%TO.C,KiKit_MB_35_7*%
X177950000Y-108066667D03*
%TD*%
%TO.C,KiKit_MB_4_4*%
X164500000Y-73333333D03*
%TD*%
%TO.C,KiKit_MB_21_5*%
X137300000Y-91733333D03*
%TD*%
%TO.C,KiKit_MB_32_4*%
X167100000Y-120533333D03*
%TD*%
%TO.C,KiKit_MB_36_4*%
X175450000Y-127466667D03*
%TD*%
%TO.C,KiKit_MB_10_3*%
X183800000Y-72533333D03*
%TD*%
%TO.C,KiKit_MB_17_7*%
X158650000Y-84066667D03*
%TD*%
%TO.C,KiKit_MB_16_1*%
X118000000Y-95600000D03*
%TD*%
%TO.C,KiKit_MB_14_6*%
X147800000Y-94933333D03*
%TD*%
%TO.C,KiKit_MB_13_3*%
X147800000Y-91000000D03*
%TD*%
%TO.C,KiKit_MB_8_2*%
X120600000Y-73600000D03*
%TD*%
%TO.C,KiKit_MB_27_1*%
X164500000Y-112600000D03*
%TD*%
%TO.C,KiKit_MB_34_2*%
X183800000Y-119733333D03*
%TD*%
%TO.C,KiKit_MB_16_3*%
X118000000Y-97200000D03*
%TD*%
%TO.C,KiKit_MB_9_1*%
X183800000Y-64600001D03*
%TD*%
%TO.C,KiKit_MB_20_4*%
X167100000Y-96533333D03*
%TD*%
%TO.C,KiKit_MB_9_4*%
X183800000Y-67000001D03*
%TD*%
%TO.C,KiKit_MB_23_2*%
X127283333Y-83266667D03*
%TD*%
%TO.C,KiKit_MB_6_1*%
X112150000Y-79666667D03*
%TD*%
%TO.C,KiKit_MB_33_4*%
X183800000Y-115000000D03*
%TD*%
%TO.C,KiKit_MB_7_3*%
X167100000Y-67000001D03*
%TD*%
%TO.C,KiKit_MB_12_6*%
X173783333Y-79466667D03*
%TD*%
%TO.C,KiKit_MB_36_7*%
X126450000Y-130066667D03*
%TD*%
%TO.C,KiKit_MB_3_5*%
X164500000Y-67800001D03*
%TD*%
%TO.C,KiKit_MB_17_2*%
X154483334Y-84066667D03*
%TD*%
%TO.C,KiKit_MB_24_6*%
X173783333Y-103466667D03*
%TD*%
%TO.C,KiKit_MB_34_6*%
X137300000Y-124800000D03*
%TD*%
%TO.C,KiKit_MB_12_3*%
X176283333Y-79466667D03*
%TD*%
%TO.C,KiKit_MB_36_5*%
X174616666Y-127466667D03*
%TD*%
%TO.C,KiKit_MB_2_4*%
X147800000Y-72533333D03*
%TD*%
%TO.C,KiKit_MB_40_1*%
X140100000Y-132100000D03*
%TD*%
%TO.C,KiKit_MB_18_2*%
X157816666Y-103466667D03*
%TD*%
%TO.C,KiKit_MB_5_6*%
X111316666Y-58066667D03*
%TD*%
%TO.C,KiKit_MB_3_1*%
X118000000Y-63333334D03*
%TD*%
%TO.C,KiKit_MB_35_1*%
X126450000Y-108466667D03*
%TD*%
%TO.C,KiKit_MB_12_4*%
X128950000Y-79666667D03*
%TD*%
%TO.C,KiKit_MB_38_6*%
X94500000Y-129866667D03*
%TD*%
%TO.C,KiKit_MB_40_3*%
X141700000Y-132100000D03*
%TD*%
%TO.C,KiKit_MB_37_9*%
X96900000Y-58266667D03*
%TD*%
%TO.C,KiKit_MB_38_4*%
X92900000Y-129866667D03*
%TD*%
%TO.C,KiKit_MB_1_4*%
X101300000Y-64933334D03*
%TD*%
%TO.C,KiKit_MB_1_1*%
X147800000Y-68600001D03*
%TD*%
%TO.C,KiKit_MB_25_3*%
X147800000Y-115000000D03*
%TD*%
%TO.C,KiKit_MB_14_6*%
X101300000Y-95600000D03*
%TD*%
%TO.C,KiKit_MB_40_2*%
X140900000Y-132100000D03*
%TD*%
%TO.C,KiKit_MB_17_5*%
X156983333Y-84066667D03*
%TD*%
%TO.C,KiKit_MB_7_6*%
X167100000Y-64600001D03*
%TD*%
%TO.C,KiKit_MB_11_6*%
X177116666Y-60066667D03*
%TD*%
%TO.C,KiKit_MB_31_1*%
X167100000Y-116600000D03*
%TD*%
%TO.C,KiKit_MB_1_6*%
X101300000Y-63333334D03*
%TD*%
%TO.C,KiKit_MB_14_2*%
X101300000Y-98800000D03*
%TD*%
%TO.C,KiKit_MB_19_3*%
X120600000Y-90933333D03*
%TD*%
%TO.C,KiKit_MB_6_4*%
X109650000Y-79666667D03*
%TD*%
%TO.C,KiKit_MB_32_2*%
X120600000Y-124000000D03*
%TD*%
%TO.C,KiKit_MB_19_1*%
X120600000Y-92533333D03*
%TD*%
%TO.C,KiKit_MB_7_5*%
X167100000Y-65400001D03*
%TD*%
%TO.C,KiKit_MB_1_4*%
X147800000Y-66200001D03*
%TD*%
%TO.C,KiKit_MB_23_6*%
X130616666Y-83266667D03*
%TD*%
%TO.C,KiKit_MB_17_4*%
X109650000Y-83266667D03*
%TD*%
%TO.C,KiKit_MB_5_3*%
X108816667Y-58066667D03*
%TD*%
%TO.C,KiKit_MB_35_2*%
X173783333Y-108066667D03*
%TD*%
%TO.C,KiKit_MB_40_10*%
X144200000Y-132100000D03*
%TD*%
%TO.C,KiKit_MB_23_6*%
X177116666Y-84066667D03*
%TD*%
%TO.C,KiKit_MB_6_3*%
X110483333Y-79666667D03*
%TD*%
%TO.C,KiKit_MB_2_6*%
X147800000Y-70933333D03*
%TD*%
%TO.C,KiKit_MB_12_7*%
X172950000Y-79466667D03*
%TD*%
%TO.C,KiKit_MB_24_4*%
X175450000Y-103466667D03*
%TD*%
%TO.C,KiKit_MB_21_4*%
X137300000Y-90933333D03*
%TD*%
%TO.C,KiKit_MB_35_1*%
X172950000Y-108066667D03*
%TD*%
%TO.C,KiKit_MB_37_3*%
X92100000Y-58266667D03*
%TD*%
%TO.C,KiKit_MB_28_2*%
X118000000Y-121600000D03*
%TD*%
%TO.C,KiKit_MB_19_2*%
X167100000Y-91800000D03*
%TD*%
%TO.C,KiKit_MB_3_5*%
X118000000Y-66533334D03*
%TD*%
%TO.C,KiKit_MB_25_5*%
X147800000Y-113400000D03*
%TD*%
%TO.C,KiKit_MB_24_7*%
X172950000Y-103466667D03*
%TD*%
%TO.C,KiKit_MB_5_5*%
X156983333Y-60066667D03*
%TD*%
%TO.C,KiKit_MB_35_4*%
X128950000Y-108466667D03*
%TD*%
%TO.C,KiKit_MB_15_3*%
X118000000Y-90133333D03*
%TD*%
%TO.C,KiKit_MB_34_2*%
X137300000Y-121600000D03*
%TD*%
%TO.C,KiKit_MB_3_2*%
X118000000Y-64133334D03*
%TD*%
D12*
%TO.C,J1*%
X103000000Y-60416667D03*
D13*
X103000000Y-62956667D03*
X103000000Y-65496667D03*
X103000000Y-75656667D03*
%TD*%
D14*
%TO.C,C2*%
X113550000Y-123316667D03*
X113550000Y-121416667D03*
%TD*%
D15*
%TO.C,J1*%
X149500000Y-62126667D03*
D13*
X149500000Y-64666667D03*
X149500000Y-67206667D03*
X149500000Y-69746667D03*
X149500000Y-72286667D03*
X149500000Y-74826667D03*
X149500000Y-77366667D03*
%TD*%
D14*
%TO.C,C2*%
X132850000Y-123316667D03*
X132850000Y-121416667D03*
%TD*%
D15*
%TO.C,J1*%
X168800000Y-62126667D03*
D13*
X168800000Y-64666667D03*
X168800000Y-67206667D03*
X168800000Y-69746667D03*
X168800000Y-72286667D03*
X168800000Y-74826667D03*
X168800000Y-77366667D03*
%TD*%
D12*
%TO.C,J2*%
X135700000Y-85616667D03*
D13*
X135700000Y-88156667D03*
X135700000Y-90696667D03*
X135700000Y-93236667D03*
X135700000Y-95776667D03*
X135700000Y-98316667D03*
X135700000Y-100856667D03*
%TD*%
D12*
%TO.C,J1*%
X122300000Y-60416667D03*
D13*
X122300000Y-62956667D03*
X122300000Y-65496667D03*
X122300000Y-75656667D03*
%TD*%
D14*
%TO.C,C2*%
X113550000Y-72916667D03*
X113550000Y-71016667D03*
%TD*%
%TO.C,C2*%
X132850000Y-72916667D03*
X132850000Y-71016667D03*
%TD*%
%TO.C,C2*%
X113550000Y-98116667D03*
X113550000Y-96216667D03*
%TD*%
D12*
%TO.C,J1*%
X122300000Y-85616667D03*
D13*
X122300000Y-88156667D03*
X122300000Y-90696667D03*
X122300000Y-100856667D03*
%TD*%
D15*
%TO.C,J1*%
X168800000Y-86126667D03*
D13*
X168800000Y-88666667D03*
X168800000Y-91206667D03*
X168800000Y-93746667D03*
X168800000Y-96286667D03*
X168800000Y-98826667D03*
X168800000Y-101366667D03*
%TD*%
D12*
%TO.C,J2*%
X135700000Y-60416667D03*
D13*
X135700000Y-62956667D03*
X135700000Y-65496667D03*
X135700000Y-68036667D03*
X135700000Y-70576667D03*
X135700000Y-73116667D03*
X135700000Y-75656667D03*
%TD*%
D15*
%TO.C,J2*%
X162890000Y-110126667D03*
D13*
X162890000Y-112666667D03*
X162890000Y-115206667D03*
X162890000Y-117746667D03*
X162890000Y-120286667D03*
X162890000Y-122826667D03*
X162890000Y-125366667D03*
%TD*%
D15*
%TO.C,J2*%
X162890000Y-86126667D03*
D13*
X162890000Y-88666667D03*
X162890000Y-91206667D03*
X162890000Y-93746667D03*
X162890000Y-96286667D03*
X162890000Y-98826667D03*
X162890000Y-101366667D03*
%TD*%
D14*
%TO.C,C2*%
X132850000Y-98116667D03*
X132850000Y-96216667D03*
%TD*%
D12*
%TO.C,J1*%
X103000000Y-85616667D03*
D13*
X103000000Y-88156667D03*
X103000000Y-90696667D03*
X103000000Y-100856667D03*
%TD*%
D15*
%TO.C,J2*%
X182190000Y-110126667D03*
D13*
X182190000Y-112666667D03*
X182190000Y-115206667D03*
X182190000Y-117746667D03*
X182190000Y-120286667D03*
X182190000Y-122826667D03*
X182190000Y-125366667D03*
%TD*%
D12*
%TO.C,J1*%
X122300000Y-110816667D03*
D13*
X122300000Y-113356667D03*
X122300000Y-115896667D03*
X122300000Y-126056667D03*
%TD*%
D14*
%TO.C,C1*%
X132850000Y-115566667D03*
X132850000Y-113666667D03*
%TD*%
D15*
%TO.C,J1*%
X168800000Y-110126667D03*
D13*
X168800000Y-112666667D03*
X168800000Y-115206667D03*
X168800000Y-117746667D03*
X168800000Y-120286667D03*
X168800000Y-122826667D03*
X168800000Y-125366667D03*
%TD*%
D14*
%TO.C,C1*%
X113550000Y-65166667D03*
X113550000Y-63266667D03*
%TD*%
D15*
%TO.C,J2*%
X182190000Y-86126667D03*
D13*
X182190000Y-88666667D03*
X182190000Y-91206667D03*
X182190000Y-93746667D03*
X182190000Y-96286667D03*
X182190000Y-98826667D03*
X182190000Y-101366667D03*
%TD*%
D12*
%TO.C,J2*%
X116400000Y-60416667D03*
D13*
X116400000Y-62956667D03*
X116400000Y-65496667D03*
X116400000Y-68036667D03*
X116400000Y-70576667D03*
X116400000Y-73116667D03*
X116400000Y-75656667D03*
%TD*%
D12*
%TO.C,J2*%
X116400000Y-110816667D03*
D13*
X116400000Y-113356667D03*
X116400000Y-115896667D03*
X116400000Y-118436667D03*
X116400000Y-120976667D03*
X116400000Y-123516667D03*
X116400000Y-126056667D03*
%TD*%
D14*
%TO.C,C1*%
X113550000Y-115566667D03*
X113550000Y-113666667D03*
%TD*%
D12*
%TO.C,J1*%
X103000000Y-110816667D03*
D13*
X103000000Y-113356667D03*
X103000000Y-115896667D03*
X103000000Y-126056667D03*
%TD*%
D15*
%TO.C,J1*%
X149500000Y-86126667D03*
D13*
X149500000Y-88666667D03*
X149500000Y-91206667D03*
X149500000Y-93746667D03*
X149500000Y-96286667D03*
X149500000Y-98826667D03*
X149500000Y-101366667D03*
%TD*%
D15*
%TO.C,J1*%
X149500000Y-110126667D03*
D13*
X149500000Y-112666667D03*
X149500000Y-115206667D03*
X149500000Y-117746667D03*
X149500000Y-120286667D03*
X149500000Y-122826667D03*
X149500000Y-125366667D03*
%TD*%
D14*
%TO.C,C1*%
X132850000Y-90366667D03*
X132850000Y-88466667D03*
%TD*%
%TO.C,C1*%
X113550000Y-90366667D03*
X113550000Y-88466667D03*
%TD*%
D15*
%TO.C,J2*%
X182190000Y-62126667D03*
D13*
X182190000Y-64666667D03*
X182190000Y-67206667D03*
X182190000Y-69746667D03*
X182190000Y-72286667D03*
X182190000Y-74826667D03*
X182190000Y-77366667D03*
%TD*%
D12*
%TO.C,J2*%
X135700000Y-110816667D03*
D13*
X135700000Y-113356667D03*
X135700000Y-115896667D03*
X135700000Y-118436667D03*
X135700000Y-120976667D03*
X135700000Y-123516667D03*
X135700000Y-126056667D03*
%TD*%
D15*
%TO.C,J2*%
X162890000Y-62126667D03*
D13*
X162890000Y-64666667D03*
X162890000Y-67206667D03*
X162890000Y-69746667D03*
X162890000Y-72286667D03*
X162890000Y-74826667D03*
X162890000Y-77366667D03*
%TD*%
D12*
%TO.C,J2*%
X116400000Y-85616667D03*
D13*
X116400000Y-88156667D03*
X116400000Y-90696667D03*
X116400000Y-93236667D03*
X116400000Y-95776667D03*
X116400000Y-98316667D03*
X116400000Y-100856667D03*
%TD*%
D14*
%TO.C,C1*%
X132850000Y-65166667D03*
X132850000Y-63266667D03*
%TD*%
G36*
X115093039Y-74536352D02*
G01*
X115138794Y-74589156D01*
X115150000Y-74640667D01*
X115150000Y-79192667D01*
X115130315Y-79259706D01*
X115077511Y-79305461D01*
X115026000Y-79316667D01*
X112424000Y-79316667D01*
X112356961Y-79296982D01*
X112311206Y-79244178D01*
X112300000Y-79192667D01*
X112300000Y-74640667D01*
X112319685Y-74573628D01*
X112372489Y-74527873D01*
X112424000Y-74516667D01*
X115026000Y-74516667D01*
X115093039Y-74536352D01*
G37*
G36*
X127543039Y-74536352D02*
G01*
X127588794Y-74589156D01*
X127600000Y-74640667D01*
X127600000Y-79192667D01*
X127580315Y-79259706D01*
X127527511Y-79305461D01*
X127476000Y-79316667D01*
X124874000Y-79316667D01*
X124806961Y-79296982D01*
X124761206Y-79244178D01*
X124750000Y-79192667D01*
X124750000Y-74640667D01*
X124769685Y-74573628D01*
X124822489Y-74527873D01*
X124874000Y-74516667D01*
X127476000Y-74516667D01*
X127543039Y-74536352D01*
G37*
G36*
X127543039Y-99736352D02*
G01*
X127588794Y-99789156D01*
X127600000Y-99840667D01*
X127600000Y-104392667D01*
X127580315Y-104459706D01*
X127527511Y-104505461D01*
X127476000Y-104516667D01*
X124874000Y-104516667D01*
X124806961Y-104496982D01*
X124761206Y-104444178D01*
X124750000Y-104392667D01*
X124750000Y-99840667D01*
X124769685Y-99773628D01*
X124822489Y-99727873D01*
X124874000Y-99716667D01*
X127476000Y-99716667D01*
X127543039Y-99736352D01*
G37*
G36*
X127543039Y-124936352D02*
G01*
X127588794Y-124989156D01*
X127600000Y-125040667D01*
X127600000Y-129592667D01*
X127580315Y-129659706D01*
X127527511Y-129705461D01*
X127476000Y-129716667D01*
X124874000Y-129716667D01*
X124806961Y-129696982D01*
X124761206Y-129644178D01*
X124750000Y-129592667D01*
X124750000Y-125040667D01*
X124769685Y-124973628D01*
X124822489Y-124927873D01*
X124874000Y-124916667D01*
X127476000Y-124916667D01*
X127543039Y-124936352D01*
G37*
G36*
X115093039Y-124936352D02*
G01*
X115138794Y-124989156D01*
X115150000Y-125040667D01*
X115150000Y-129592667D01*
X115130315Y-129659706D01*
X115077511Y-129705461D01*
X115026000Y-129716667D01*
X112424000Y-129716667D01*
X112356961Y-129696982D01*
X112311206Y-129644178D01*
X112300000Y-129592667D01*
X112300000Y-125040667D01*
X112319685Y-124973628D01*
X112372489Y-124927873D01*
X112424000Y-124916667D01*
X115026000Y-124916667D01*
X115093039Y-124936352D01*
G37*
G36*
X115093039Y-99736352D02*
G01*
X115138794Y-99789156D01*
X115150000Y-99840667D01*
X115150000Y-104392667D01*
X115130315Y-104459706D01*
X115077511Y-104505461D01*
X115026000Y-104516667D01*
X112424000Y-104516667D01*
X112356961Y-104496982D01*
X112311206Y-104444178D01*
X112300000Y-104392667D01*
X112300000Y-99840667D01*
X112319685Y-99773628D01*
X112372489Y-99727873D01*
X112424000Y-99716667D01*
X115026000Y-99716667D01*
X115093039Y-99736352D01*
G37*
G36*
X108243039Y-124936352D02*
G01*
X108288794Y-124989156D01*
X108300000Y-125040667D01*
X108300000Y-129592667D01*
X108280315Y-129659706D01*
X108227511Y-129705461D01*
X108176000Y-129716667D01*
X105574000Y-129716667D01*
X105506961Y-129696982D01*
X105461206Y-129644178D01*
X105450000Y-129592667D01*
X105450000Y-125040667D01*
X105469685Y-124973628D01*
X105522489Y-124927873D01*
X105574000Y-124916667D01*
X108176000Y-124916667D01*
X108243039Y-124936352D01*
G37*
G36*
X134393039Y-124936352D02*
G01*
X134438794Y-124989156D01*
X134450000Y-125040667D01*
X134450000Y-129592667D01*
X134430315Y-129659706D01*
X134377511Y-129705461D01*
X134326000Y-129716667D01*
X131724000Y-129716667D01*
X131656961Y-129696982D01*
X131611206Y-129644178D01*
X131600000Y-129592667D01*
X131600000Y-125040667D01*
X131619685Y-124973628D01*
X131672489Y-124927873D01*
X131724000Y-124916667D01*
X134326000Y-124916667D01*
X134393039Y-124936352D01*
G37*
G36*
X134393039Y-99736352D02*
G01*
X134438794Y-99789156D01*
X134450000Y-99840667D01*
X134450000Y-104392667D01*
X134430315Y-104459706D01*
X134377511Y-104505461D01*
X134326000Y-104516667D01*
X131724000Y-104516667D01*
X131656961Y-104496982D01*
X131611206Y-104444178D01*
X131600000Y-104392667D01*
X131600000Y-99840667D01*
X131619685Y-99773628D01*
X131672489Y-99727873D01*
X131724000Y-99716667D01*
X134326000Y-99716667D01*
X134393039Y-99736352D01*
G37*
G36*
X108243039Y-99736352D02*
G01*
X108288794Y-99789156D01*
X108300000Y-99840667D01*
X108300000Y-104392667D01*
X108280315Y-104459706D01*
X108227511Y-104505461D01*
X108176000Y-104516667D01*
X105574000Y-104516667D01*
X105506961Y-104496982D01*
X105461206Y-104444178D01*
X105450000Y-104392667D01*
X105450000Y-99840667D01*
X105469685Y-99773628D01*
X105522489Y-99727873D01*
X105574000Y-99716667D01*
X108176000Y-99716667D01*
X108243039Y-99736352D01*
G37*
G36*
X108243039Y-74536352D02*
G01*
X108288794Y-74589156D01*
X108300000Y-74640667D01*
X108300000Y-79192667D01*
X108280315Y-79259706D01*
X108227511Y-79305461D01*
X108176000Y-79316667D01*
X105574000Y-79316667D01*
X105506961Y-79296982D01*
X105461206Y-79244178D01*
X105450000Y-79192667D01*
X105450000Y-74640667D01*
X105469685Y-74573628D01*
X105522489Y-74527873D01*
X105574000Y-74516667D01*
X108176000Y-74516667D01*
X108243039Y-74536352D01*
G37*
G36*
X134393039Y-74536352D02*
G01*
X134438794Y-74589156D01*
X134450000Y-74640667D01*
X134450000Y-79192667D01*
X134430315Y-79259706D01*
X134377511Y-79305461D01*
X134326000Y-79316667D01*
X131724000Y-79316667D01*
X131656961Y-79296982D01*
X131611206Y-79244178D01*
X131600000Y-79192667D01*
X131600000Y-74640667D01*
X131619685Y-74573628D01*
X131672489Y-74527873D01*
X131724000Y-74516667D01*
X134326000Y-74516667D01*
X134393039Y-74536352D01*
G37*
M02*
