%TF.GenerationSoftware,KiCad,Pcbnew,8.0.4*%
%TF.CreationDate,2024-09-16T16:39:03-03:00*%
%TF.ProjectId,Mini-C3,4d696e69-2d43-4332-9e6b-696361645f70,rev?*%
%TF.SameCoordinates,Original*%
%TF.FileFunction,Copper,L2,Bot*%
%TF.FilePolarity,Positive*%
%FSLAX46Y46*%
G04 Gerber Fmt 4.6, Leading zero omitted, Abs format (unit mm)*
G04 Created by KiCad (PCBNEW 8.0.4) date 2024-09-16 16:39:03*
%MOMM*%
%LPD*%
G01*
G04 APERTURE LIST*
G04 Aperture macros list*
%AMRoundRect*
0 Rectangle with rounded corners*
0 $1 Rounding radius*
0 $2 $3 $4 $5 $6 $7 $8 $9 X,Y pos of 4 corners*
0 Add a 4 corners polygon primitive as box body*
4,1,4,$2,$3,$4,$5,$6,$7,$8,$9,$2,$3,0*
0 Add four circle primitives for the rounded corners*
1,1,$1+$1,$2,$3*
1,1,$1+$1,$4,$5*
1,1,$1+$1,$6,$7*
1,1,$1+$1,$8,$9*
0 Add four rect primitives between the rounded corners*
20,1,$1+$1,$2,$3,$4,$5,0*
20,1,$1+$1,$4,$5,$6,$7,0*
20,1,$1+$1,$6,$7,$8,$9,0*
20,1,$1+$1,$8,$9,$2,$3,0*%
%AMFreePoly0*
4,1,19,0.500000,-0.750000,0.000000,-0.750000,0.000000,-0.744911,-0.071157,-0.744911,-0.207708,-0.704816,-0.327430,-0.627875,-0.420627,-0.520320,-0.479746,-0.390866,-0.500000,-0.250000,-0.500000,0.250000,-0.479746,0.390866,-0.420627,0.520320,-0.327430,0.627875,-0.207708,0.704816,-0.071157,0.744911,0.000000,0.744911,0.000000,0.750000,0.500000,0.750000,0.500000,-0.750000,0.500000,-0.750000,
$1*%
%AMFreePoly1*
4,1,19,0.000000,0.744911,0.071157,0.744911,0.207708,0.704816,0.327430,0.627875,0.420627,0.520320,0.479746,0.390866,0.500000,0.250000,0.500000,-0.250000,0.479746,-0.390866,0.420627,-0.520320,0.327430,-0.627875,0.207708,-0.704816,0.071157,-0.744911,0.000000,-0.744911,0.000000,-0.750000,-0.500000,-0.750000,-0.500000,0.750000,0.000000,0.750000,0.000000,0.744911,0.000000,0.744911,
$1*%
%AMFreePoly2*
4,1,6,1.000000,0.000000,0.500000,-0.750000,-0.500000,-0.750000,-0.500000,0.750000,0.500000,0.750000,1.000000,0.000000,1.000000,0.000000,$1*%
%AMFreePoly3*
4,1,7,0.700000,0.000000,1.200000,-0.750000,-1.200000,-0.750000,-0.700000,0.000000,-1.200000,0.750000,1.200000,0.750000,0.700000,0.000000,0.700000,0.000000,$1*%
G04 Aperture macros list end*
%TA.AperFunction,ComponentPad*%
%ADD10C,2.000000*%
%TD*%
%TA.AperFunction,ComponentPad*%
%ADD11RoundRect,0.250000X0.750000X0.750000X-0.750000X0.750000X-0.750000X-0.750000X0.750000X-0.750000X0*%
%TD*%
%TA.AperFunction,ComponentPad*%
%ADD12C,1.600000*%
%TD*%
%TA.AperFunction,ComponentPad*%
%ADD13C,3.800000*%
%TD*%
%TA.AperFunction,ComponentPad*%
%ADD14O,2.000000X2.200000*%
%TD*%
%TA.AperFunction,ComponentPad*%
%ADD15RoundRect,0.250000X-0.850000X-0.750000X0.850000X-0.750000X0.850000X0.750000X-0.850000X0.750000X0*%
%TD*%
%TA.AperFunction,ComponentPad*%
%ADD16O,2.200000X2.000000*%
%TD*%
%TA.AperFunction,ComponentPad*%
%ADD17C,1.524000*%
%TD*%
%TA.AperFunction,SMDPad,CuDef*%
%ADD18FreePoly0,270.000000*%
%TD*%
%TA.AperFunction,SMDPad,CuDef*%
%ADD19FreePoly1,270.000000*%
%TD*%
%TA.AperFunction,SMDPad,CuDef*%
%ADD20FreePoly2,0.000000*%
%TD*%
%TA.AperFunction,SMDPad,CuDef*%
%ADD21FreePoly3,0.000000*%
%TD*%
%TA.AperFunction,SMDPad,CuDef*%
%ADD22FreePoly2,180.000000*%
%TD*%
%TA.AperFunction,ViaPad*%
%ADD23C,0.800000*%
%TD*%
%TA.AperFunction,Conductor*%
%ADD24C,0.300000*%
%TD*%
%TA.AperFunction,Conductor*%
%ADD25C,0.200000*%
%TD*%
G04 APERTURE END LIST*
D10*
%TO.P,J4,1,Pin_1*%
%TO.N,/OUT_A2*%
X189350000Y-93585000D03*
%TO.P,J4,2,Pin_2*%
%TO.N,/OUT_A1*%
X189350000Y-96125000D03*
%TD*%
D11*
%TO.P,J12,1,Pin_1*%
%TO.N,GND*%
X168093335Y-82900000D03*
%TO.P,J12,2,Pin_2*%
%TO.N,/Pin7*%
X165553335Y-82900000D03*
%TO.P,J12,3,Pin_3*%
%TO.N,/Vcc*%
X163013335Y-82900000D03*
%TD*%
%TO.P,J6,1,Pin_1*%
%TO.N,GND*%
X143663334Y-82900000D03*
%TO.P,J6,2,Pin_2*%
%TO.N,/Pin1*%
X141123334Y-82900000D03*
%TO.P,J6,3,Pin_3*%
%TO.N,/Vcc*%
X138583334Y-82900000D03*
%TD*%
%TO.P,J11,1,Pin_1*%
%TO.N,GND*%
X168093335Y-86087500D03*
%TO.P,J11,2,Pin_2*%
%TO.N,/Pin8*%
X165553335Y-86087500D03*
%TO.P,J11,3,Pin_3*%
%TO.N,/Vcc*%
X163013335Y-86087500D03*
%TD*%
%TO.P,J3,1,Pin_1*%
%TO.N,GND*%
X159950000Y-86087500D03*
%TO.P,J3,2,Pin_2*%
%TO.N,/Pin6*%
X157410000Y-86087500D03*
%TO.P,J3,3,Pin_3*%
%TO.N,/Vcc*%
X154870000Y-86087500D03*
%TD*%
D12*
%TO.P,C1,1*%
%TO.N,/VM*%
X180500000Y-98500000D03*
%TO.P,C1,2*%
%TO.N,GND*%
X175500000Y-98500000D03*
%TD*%
D10*
%TO.P,J1,1*%
%TO.N,GND*%
X167725000Y-98930000D03*
%TO.P,J1,2*%
%TO.N,/VM*%
X167725000Y-101470000D03*
%TD*%
D13*
%TO.P,H1,1,1*%
%TO.N,unconnected-(H1-Pad1)*%
X190100000Y-82100000D03*
%TD*%
D14*
%TO.P,U3,1,IN*%
%TO.N,Net-(U3-IN)*%
X138560000Y-101700000D03*
%TO.P,U3,2,GND*%
%TO.N,GND*%
X147700000Y-101700000D03*
X147700000Y-86460000D03*
%TO.P,U3,3,OUT*%
%TO.N,+5V*%
X138560000Y-86460000D03*
%TD*%
D11*
%TO.P,J2,1,Pin_1*%
%TO.N,GND*%
X159950000Y-82900000D03*
%TO.P,J2,2,Pin_2*%
%TO.N,/Pin5*%
X157410000Y-82900000D03*
%TO.P,J2,3,Pin_3*%
%TO.N,/Vcc*%
X154870000Y-82900000D03*
%TD*%
%TO.P,J7,1,Pin_1*%
%TO.N,GND*%
X135520001Y-82900000D03*
%TO.P,J7,2,Pin_2*%
%TO.N,/Pin2*%
X132980001Y-82900000D03*
%TO.P,J7,3,Pin_3*%
%TO.N,/Vcc*%
X130440001Y-82900000D03*
%TD*%
D15*
%TO.P,U1,1,GND*%
%TO.N,GND*%
X171250000Y-83410000D03*
D16*
X171250000Y-98650000D03*
D15*
X184650000Y-83410000D03*
D16*
%TO.P,U1,2,IN_B2*%
%TO.N,/IN_B2*%
X171250000Y-85950000D03*
%TO.P,U1,3,IN_B1*%
%TO.N,/IN_B1*%
X171250000Y-88490000D03*
%TO.P,U1,4,VREF*%
%TO.N,+3.3V*%
X171250000Y-91030000D03*
%TO.P,U1,5,IN_A2*%
%TO.N,/IN_A2*%
X171250000Y-93570000D03*
%TO.P,U1,6,IN_A1*%
%TO.N,/IN_A1*%
X171250000Y-96110000D03*
%TO.P,U1,7,OUT_B2*%
%TO.N,/OUT_B2*%
X184650000Y-85950000D03*
%TO.P,U1,8,OUT_B1*%
%TO.N,/OUT_B1*%
X184650000Y-88490000D03*
%TO.P,U1,9,VM*%
%TO.N,/VM*%
X184650000Y-91030000D03*
X184650000Y-98650000D03*
%TO.P,U1,10,OUT_A2*%
%TO.N,/OUT_A2*%
X184650000Y-93570000D03*
%TO.P,U1,11,OUT_A1*%
%TO.N,/OUT_A1*%
X184650000Y-96110000D03*
%TD*%
D13*
%TO.P,H2,1,1*%
%TO.N,unconnected-(H2-Pad1)*%
X190100000Y-100800000D03*
%TD*%
%TO.P,H3,1,1*%
%TO.N,unconnected-(H3-Pad1)*%
X110600000Y-82100000D03*
%TD*%
D11*
%TO.P,J8,1,Pin_1*%
%TO.N,GND*%
X127376668Y-82900000D03*
%TO.P,J8,2,Pin_2*%
%TO.N,/Pin3*%
X124836668Y-82900000D03*
%TO.P,J8,3,Pin_3*%
%TO.N,/Vcc*%
X122296668Y-82900000D03*
%TD*%
%TO.P,J9,1,Pin_1*%
%TO.N,GND*%
X119233335Y-82900000D03*
%TO.P,J9,2,Pin_2*%
%TO.N,/Pin4*%
X116693335Y-82900000D03*
%TO.P,J9,3,Pin_3*%
%TO.N,/Vcc*%
X114153335Y-82900000D03*
%TD*%
D10*
%TO.P,J5,1,Pin_1*%
%TO.N,/OUT_B2*%
X189350000Y-85885000D03*
%TO.P,J5,2,Pin_2*%
%TO.N,/OUT_B1*%
X189350000Y-88425000D03*
%TD*%
%TO.P,U2,0,GPIO0*%
%TO.N,/Pin0*%
X129110000Y-86050000D03*
%TO.P,U2,1,GPIO1*%
%TO.N,/Pin1*%
X126570000Y-86050000D03*
%TO.P,U2,2,GPIO2*%
%TO.N,/Pin2*%
X124030000Y-86050000D03*
%TO.P,U2,3,GPIO3*%
%TO.N,/Pin3*%
X121490000Y-86050000D03*
%TO.P,U2,3.3,3V3*%
%TO.N,+3.3V*%
X116410000Y-86050000D03*
%TO.P,U2,4,GPIO4*%
%TO.N,/Pin4*%
X118950000Y-86050000D03*
%TO.P,U2,5,GPIO5*%
%TO.N,/Pin5*%
X111330000Y-101290000D03*
%TO.P,U2,5V,5V*%
%TO.N,Net-(JP7-A)*%
X111330000Y-86050000D03*
%TO.P,U2,6,GPIO6*%
%TO.N,/Pin6*%
X113870000Y-101290000D03*
%TO.P,U2,7,GPIO7*%
%TO.N,/Pin7*%
X116410000Y-101290000D03*
%TO.P,U2,8,GPIO8*%
%TO.N,/Pin8*%
X118950000Y-101290000D03*
%TO.P,U2,9,GPIO9*%
%TO.N,/IN_B2*%
X121490000Y-101290000D03*
%TO.P,U2,10,GPIO10*%
%TO.N,/IN_B1*%
X124030000Y-101290000D03*
%TO.P,U2,20,GPIO20*%
%TO.N,/IN_A2*%
X126570000Y-101290000D03*
%TO.P,U2,21,GPIO21*%
%TO.N,/IN_A1*%
X129110000Y-101290000D03*
%TO.P,U2,G,GND*%
%TO.N,GND*%
X113870000Y-86050000D03*
%TD*%
D11*
%TO.P,J10,1,Pin_1*%
%TO.N,GND*%
X151806667Y-82900000D03*
%TO.P,J10,2,Pin_2*%
%TO.N,/Pin0*%
X149266667Y-82900000D03*
%TO.P,J10,3,Pin_3*%
%TO.N,/Vcc*%
X146726667Y-82900000D03*
%TD*%
D17*
%TO.P,SW1,1,1*%
%TO.N,Net-(U3-IN)*%
X135150000Y-100810000D03*
%TO.P,SW1,2,2*%
%TO.N,Net-(D1-K)*%
X135150000Y-98270000D03*
%TO.P,SW1,3*%
%TO.N,N/C*%
X135150000Y-95730000D03*
%TD*%
D18*
%TO.P,JP7,1,A*%
%TO.N,Net-(JP7-A)*%
X111300000Y-88500000D03*
D19*
%TO.P,JP7,2,B*%
%TO.N,+5V*%
X111300000Y-89800000D03*
%TD*%
D20*
%TO.P,JP1,1,A*%
%TO.N,+3.3V*%
X132500000Y-88700000D03*
D21*
%TO.P,JP1,2,C*%
%TO.N,/Vcc*%
X134500000Y-88700000D03*
D22*
%TO.P,JP1,3,B*%
%TO.N,+5V*%
X136500000Y-88700000D03*
%TD*%
D23*
%TO.N,/VM*%
X180000000Y-91000000D03*
X182600000Y-98600000D03*
X185200000Y-102200000D03*
X185200000Y-100600000D03*
X182600000Y-100600000D03*
X174800000Y-102200000D03*
X169600000Y-102200000D03*
X172200000Y-102200000D03*
X180000000Y-100600000D03*
X182600000Y-96200000D03*
X182600000Y-102200000D03*
X177400000Y-100600000D03*
X180000000Y-96200000D03*
X182600000Y-93600000D03*
X180000000Y-93600000D03*
X172200000Y-100600000D03*
X177400000Y-102200000D03*
X182600000Y-91000000D03*
X174800000Y-100600000D03*
X180000000Y-102200000D03*
X169600000Y-100600000D03*
%TO.N,GND*%
X109150000Y-90400000D03*
X169650000Y-82800000D03*
X165950000Y-99300000D03*
X109150000Y-88450000D03*
X142900000Y-101750000D03*
X173100000Y-98100000D03*
X182800000Y-82800000D03*
X172900000Y-84100000D03*
X109150000Y-96250000D03*
X169550000Y-99300000D03*
X172900000Y-82800000D03*
X109150000Y-98200000D03*
X173100000Y-99300000D03*
X182800000Y-84100000D03*
X109150000Y-100150000D03*
X173100000Y-92408333D03*
X165950000Y-98100000D03*
X169550000Y-98100000D03*
X109150000Y-92350000D03*
X169650000Y-84100000D03*
X109150000Y-86500000D03*
X109150000Y-94300000D03*
X109150000Y-84550000D03*
X173100000Y-87016666D03*
%TO.N,/OUT_A1*%
X191700000Y-95650000D03*
X186900000Y-95650000D03*
X186900000Y-98825000D03*
X191700000Y-98700000D03*
X186900000Y-102000000D03*
%TO.N,/OUT_A2*%
X191700000Y-94400000D03*
X186900000Y-91800000D03*
X191700000Y-91800000D03*
X186900000Y-94500000D03*
X189350000Y-91800000D03*
%TO.N,/OUT_B1*%
X191700000Y-90700000D03*
X189350000Y-90700000D03*
X186900000Y-87650000D03*
X191700000Y-87650000D03*
X186900000Y-90700000D03*
%TO.N,/OUT_B2*%
X186900000Y-80520000D03*
X191700000Y-84150000D03*
X186900000Y-83560000D03*
X191700000Y-86600000D03*
X186900000Y-86600000D03*
%TO.N,/Pin5*%
X153200000Y-84500000D03*
%TO.N,/Pin7*%
X161500000Y-88200000D03*
X151200000Y-94650000D03*
%TO.N,/Pin6*%
X157410000Y-89300000D03*
%TO.N,/Vcc*%
X134485079Y-86109928D03*
%TO.N,+3.3V*%
X163000000Y-91150000D03*
X148300000Y-96600000D03*
%TD*%
D24*
%TO.N,GND*%
X151700000Y-82906665D02*
X151706665Y-82900000D01*
%TO.N,+5V*%
X138560000Y-88140000D02*
X138560000Y-86460000D01*
X138050000Y-88700000D02*
X138560000Y-88190000D01*
X137850000Y-90050000D02*
X138560000Y-89340000D01*
X111550000Y-90050000D02*
X137850000Y-90050000D01*
X136500000Y-88700000D02*
X138050000Y-88700000D01*
X138560000Y-88190000D02*
X138560000Y-86460000D01*
X138560000Y-89340000D02*
X138560000Y-88140000D01*
X111300000Y-89800000D02*
X111550000Y-90050000D01*
%TO.N,/Pin0*%
X147266667Y-84900000D02*
X149266667Y-82900000D01*
X129110000Y-86050000D02*
X132600000Y-86050000D01*
X133750000Y-84900000D02*
X147266667Y-84900000D01*
X132600000Y-86050000D02*
X133750000Y-84900000D01*
%TO.N,/Pin3*%
X121686668Y-86050000D02*
X124836668Y-82900000D01*
X121490000Y-86050000D02*
X121686668Y-86050000D01*
%TO.N,/Pin4*%
X118950000Y-85300000D02*
X116693335Y-83043335D01*
X118950000Y-86050000D02*
X118950000Y-85300000D01*
X116693335Y-83043335D02*
X116693335Y-82900000D01*
%TO.N,/Pin5*%
X153050000Y-86600000D02*
X146900000Y-92750000D01*
X121070000Y-91550000D02*
X111330000Y-101290000D01*
X139950000Y-92750000D02*
X138750000Y-91550000D01*
X138750000Y-91550000D02*
X121070000Y-91550000D01*
X153200000Y-84500000D02*
X153050000Y-84650000D01*
X146900000Y-92750000D02*
X139950000Y-92750000D01*
X153050000Y-84650000D02*
X153050000Y-86600000D01*
%TO.N,/IN_B2*%
X135850000Y-94500000D02*
X128280000Y-94500000D01*
X128280000Y-94500000D02*
X121490000Y-101290000D01*
X158000000Y-97350000D02*
X138700000Y-97350000D01*
X167600000Y-87750000D02*
X158000000Y-97350000D01*
X138700000Y-97350000D02*
X135850000Y-94500000D01*
X169450000Y-87750000D02*
X167600000Y-87750000D01*
X171250000Y-85950000D02*
X169450000Y-87750000D01*
%TO.N,/IN_A1*%
X135700000Y-102150000D02*
X129110000Y-102150000D01*
X129110000Y-102150000D02*
X129110000Y-101290000D01*
X137850000Y-100000000D02*
X135700000Y-102150000D01*
X159250000Y-100000000D02*
X137850000Y-100000000D01*
X163140000Y-96110000D02*
X159250000Y-100000000D01*
X171250000Y-96110000D02*
X163140000Y-96110000D01*
%TO.N,/IN_B1*%
X171250000Y-88490000D02*
X168310000Y-88490000D01*
X136150000Y-97000000D02*
X128320000Y-97000000D01*
X137400000Y-98250000D02*
X136150000Y-97000000D01*
X158550000Y-98250000D02*
X137400000Y-98250000D01*
X168310000Y-88490000D02*
X158550000Y-98250000D01*
X128320000Y-97000000D02*
X124030000Y-101290000D01*
%TO.N,/IN_A2*%
X128310000Y-99550000D02*
X126570000Y-101290000D01*
X158850000Y-99100000D02*
X136950000Y-99100000D01*
X171250000Y-93570000D02*
X164380000Y-93570000D01*
X136950000Y-99100000D02*
X136500000Y-99550000D01*
X164380000Y-93570000D02*
X158850000Y-99100000D01*
X136500000Y-99550000D02*
X128310000Y-99550000D01*
%TO.N,/Pin8*%
X126540000Y-93700000D02*
X118950000Y-101290000D01*
X136750000Y-93700000D02*
X126540000Y-93700000D01*
X165553335Y-87296665D02*
X157250000Y-95600000D01*
X165553335Y-86087500D02*
X165553335Y-87296665D01*
X157250000Y-95600000D02*
X138650000Y-95600000D01*
X138650000Y-95600000D02*
X136750000Y-93700000D01*
%TO.N,/Pin7*%
X161500000Y-88200000D02*
X155050000Y-94650000D01*
X155050000Y-94650000D02*
X151200000Y-94650000D01*
X151200000Y-94650000D02*
X139100000Y-94650000D01*
X139100000Y-94650000D02*
X137450000Y-93000000D01*
X137450000Y-93000000D02*
X124700000Y-93000000D01*
X124700000Y-93000000D02*
X116410000Y-101290000D01*
%TO.N,/Pin6*%
X157410000Y-89300000D02*
X157410000Y-89390000D01*
X139500000Y-93750000D02*
X138050000Y-92300000D01*
X138050000Y-92300000D02*
X122860000Y-92300000D01*
X122860000Y-92300000D02*
X113870000Y-101290000D01*
X153050000Y-93750000D02*
X139500000Y-93750000D01*
X157410000Y-89390000D02*
X153050000Y-93750000D01*
%TO.N,Net-(JP7-A)*%
X111300000Y-86080000D02*
X111330000Y-86050000D01*
X111300000Y-88500000D02*
X111300000Y-86080000D01*
%TO.N,/Vcc*%
X130440001Y-81259999D02*
X130450000Y-81250000D01*
D25*
X163013335Y-82900000D02*
X163013335Y-86087500D01*
D24*
X122296668Y-82900000D02*
X122296668Y-81253332D01*
X154850000Y-81250000D02*
X162650000Y-81250000D01*
X154870000Y-81270000D02*
X154850000Y-81250000D01*
X114153335Y-81596665D02*
X114500000Y-81250000D01*
X154870000Y-82900000D02*
X154870000Y-81270000D01*
X146750000Y-81250000D02*
X151700000Y-81250000D01*
X130450000Y-81250000D02*
X135150000Y-81250000D01*
X122300000Y-81250000D02*
X126800000Y-81250000D01*
X134500000Y-88427000D02*
X134500000Y-86100000D01*
X146703334Y-81250000D02*
X146726667Y-81273333D01*
X138600000Y-81250000D02*
X146703334Y-81250000D01*
X135119999Y-81280001D02*
X135150000Y-81250000D01*
X146726667Y-81273333D02*
X146750000Y-81250000D01*
X146726667Y-82900000D02*
X146726667Y-81273333D01*
X151700000Y-81250000D02*
X154850000Y-81250000D01*
X138583334Y-82900000D02*
X138583334Y-81266666D01*
X114153335Y-82900000D02*
X114153335Y-81596665D01*
X138583334Y-81266666D02*
X138600000Y-81250000D01*
X154870000Y-82900000D02*
X154870000Y-86087500D01*
X114500000Y-81250000D02*
X118500000Y-81250000D01*
X126826666Y-81276666D02*
X126800000Y-81250000D01*
X118500000Y-81250000D02*
X122300000Y-81250000D01*
X130440001Y-82900000D02*
X130440001Y-81259999D01*
X122296668Y-81253332D02*
X122300000Y-81250000D01*
X126800000Y-81250000D02*
X130450000Y-81250000D01*
X151706665Y-81256665D02*
X151700000Y-81250000D01*
X135150000Y-81250000D02*
X138600000Y-81250000D01*
X163013335Y-81613335D02*
X163013335Y-82900000D01*
X162650000Y-81250000D02*
X163013335Y-81613335D01*
%TO.N,+3.3V*%
X116410000Y-86050000D02*
X116410000Y-86460000D01*
X157550000Y-96600000D02*
X148300000Y-96600000D01*
X163000000Y-91150000D02*
X157550000Y-96600000D01*
X132473000Y-88400000D02*
X132500000Y-88427000D01*
X116410000Y-86460000D02*
X118350000Y-88400000D01*
X118350000Y-88400000D02*
X132473000Y-88400000D01*
%TO.N,/Pin1*%
X128700000Y-84300000D02*
X139723334Y-84300000D01*
X139723334Y-84300000D02*
X141123334Y-82900000D01*
X126570000Y-86050000D02*
X126950000Y-86050000D01*
X126950000Y-86050000D02*
X128700000Y-84300000D01*
%TO.N,unconnected-(H3-Pad1)*%
X110240000Y-82900000D02*
X110200000Y-82860000D01*
X110200000Y-82860000D02*
X110200000Y-81600000D01*
X110200000Y-81600000D02*
X110550000Y-81250000D01*
%TD*%
%TA.AperFunction,Conductor*%
%TO.N,/OUT_B2*%
G36*
X188833567Y-80139407D02*
G01*
X188869531Y-80188907D01*
X188869531Y-80250093D01*
X188833567Y-80299593D01*
X188830378Y-80301815D01*
X188757549Y-80350477D01*
X188757536Y-80350487D01*
X188540682Y-80540664D01*
X188540664Y-80540682D01*
X188350487Y-80757536D01*
X188350477Y-80757549D01*
X188190222Y-80997388D01*
X188062645Y-81256088D01*
X188062640Y-81256099D01*
X187969920Y-81529240D01*
X187913643Y-81812163D01*
X187894778Y-82099999D01*
X187894778Y-82100000D01*
X187913643Y-82387836D01*
X187969920Y-82670759D01*
X188062640Y-82943900D01*
X188062645Y-82943911D01*
X188190222Y-83202611D01*
X188350477Y-83442450D01*
X188350487Y-83442463D01*
X188516770Y-83632071D01*
X188540673Y-83659327D01*
X188540681Y-83659334D01*
X188540682Y-83659335D01*
X188757536Y-83849512D01*
X188757543Y-83849517D01*
X188757546Y-83849520D01*
X188997389Y-84009778D01*
X189256098Y-84137359D01*
X189385659Y-84181339D01*
X189529240Y-84230079D01*
X189529242Y-84230079D01*
X189529247Y-84230081D01*
X189812161Y-84286356D01*
X190100000Y-84305222D01*
X190387839Y-84286356D01*
X190670753Y-84230081D01*
X190943902Y-84137359D01*
X191202611Y-84009778D01*
X191442454Y-83849520D01*
X191659327Y-83659327D01*
X191849520Y-83442454D01*
X191948185Y-83294790D01*
X191996234Y-83256912D01*
X192057372Y-83254510D01*
X192108246Y-83288503D01*
X192129424Y-83345906D01*
X192129500Y-83349793D01*
X192129500Y-86845500D01*
X192110593Y-86903691D01*
X192061093Y-86939655D01*
X192030500Y-86944500D01*
X191993280Y-86944500D01*
X191993276Y-86944500D01*
X191993267Y-86944501D01*
X191920170Y-86953376D01*
X191917892Y-86953938D01*
X191917329Y-86953897D01*
X191917227Y-86953916D01*
X191917222Y-86953889D01*
X191915322Y-86953751D01*
X191882498Y-86961840D01*
X191835119Y-86961839D01*
X191815428Y-86956985D01*
X191785058Y-86949500D01*
X191785056Y-86949500D01*
X191614944Y-86949500D01*
X191614941Y-86949500D01*
X191565628Y-86961654D01*
X191531651Y-86962341D01*
X191531528Y-86963776D01*
X191524587Y-86963177D01*
X191509406Y-86960667D01*
X191479847Y-86953381D01*
X191479839Y-86953379D01*
X191479837Y-86953379D01*
X191470697Y-86952269D01*
X191406727Y-86944500D01*
X191406720Y-86944500D01*
X187193280Y-86944500D01*
X187193276Y-86944500D01*
X187193267Y-86944501D01*
X187120170Y-86953376D01*
X187117892Y-86953938D01*
X187117329Y-86953897D01*
X187117227Y-86953916D01*
X187117222Y-86953889D01*
X187115322Y-86953751D01*
X187082498Y-86961840D01*
X187035119Y-86961839D01*
X187015428Y-86956985D01*
X186985058Y-86949500D01*
X186985056Y-86949500D01*
X186814944Y-86949500D01*
X186814941Y-86949500D01*
X186765628Y-86961654D01*
X186731651Y-86962341D01*
X186731528Y-86963776D01*
X186724587Y-86963177D01*
X186709406Y-86960667D01*
X186679847Y-86953381D01*
X186679839Y-86953379D01*
X186679837Y-86953379D01*
X186670697Y-86952269D01*
X186606727Y-86944500D01*
X186606720Y-86944500D01*
X184862599Y-86944500D01*
X184861400Y-86944523D01*
X184850611Y-86944735D01*
X184845820Y-86944924D01*
X184841934Y-86945000D01*
X184458066Y-86945000D01*
X184454180Y-86944924D01*
X184449388Y-86944735D01*
X184438624Y-86944524D01*
X184437401Y-86944500D01*
X183199000Y-86944500D01*
X183140809Y-86925593D01*
X183104845Y-86876093D01*
X183100000Y-86845500D01*
X183100000Y-84799000D01*
X183118907Y-84740809D01*
X183168407Y-84704845D01*
X183199000Y-84700000D01*
X183663535Y-84700000D01*
X183675339Y-84700706D01*
X183756898Y-84710500D01*
X183756900Y-84710500D01*
X185543100Y-84710500D01*
X185543102Y-84710500D01*
X185624661Y-84700706D01*
X185636465Y-84700000D01*
X186499999Y-84700000D01*
X186500000Y-84700000D01*
X186500000Y-80219500D01*
X186518907Y-80161309D01*
X186568407Y-80125345D01*
X186599000Y-80120500D01*
X188775376Y-80120500D01*
X188833567Y-80139407D01*
G37*
%TD.AperFunction*%
%TD*%
%TA.AperFunction,Conductor*%
%TO.N,/VM*%
G36*
X182800500Y-89818907D02*
G01*
X182831727Y-89856513D01*
X182857691Y-89911162D01*
X182857692Y-89911164D01*
X182857694Y-89911167D01*
X182857695Y-89911168D01*
X182862450Y-89917713D01*
X182893655Y-89960662D01*
X182947823Y-90017919D01*
X182947824Y-90017920D01*
X183046401Y-90071639D01*
X183046403Y-90071640D01*
X183104596Y-90090548D01*
X183104593Y-90090548D01*
X183198997Y-90105500D01*
X183199000Y-90105500D01*
X184111357Y-90105500D01*
X184111364Y-90105500D01*
X184159152Y-90101739D01*
X184189744Y-90096894D01*
X184236360Y-90085703D01*
X184309605Y-90061904D01*
X184324695Y-90058281D01*
X184463994Y-90036219D01*
X184479481Y-90035000D01*
X184820519Y-90035000D01*
X184836006Y-90036219D01*
X184975304Y-90058282D01*
X184990402Y-90061907D01*
X185063626Y-90085699D01*
X185063632Y-90085700D01*
X185063640Y-90085703D01*
X185110256Y-90096894D01*
X185140848Y-90101739D01*
X185188636Y-90105500D01*
X185895500Y-90105500D01*
X185953691Y-90124407D01*
X185989655Y-90173907D01*
X185994500Y-90204500D01*
X185994500Y-91001000D01*
X185998261Y-91048786D01*
X185998781Y-91052072D01*
X186000000Y-91067555D01*
X186000000Y-91895500D01*
X185981093Y-91953691D01*
X185931593Y-91989655D01*
X185901000Y-91994500D01*
X185052709Y-91994500D01*
X185035586Y-91995172D01*
X185028733Y-91995442D01*
X185013246Y-91996661D01*
X184999730Y-91998261D01*
X184989430Y-91999480D01*
X184989424Y-91999481D01*
X184836004Y-92023781D01*
X184820517Y-92025000D01*
X184479483Y-92025000D01*
X184463996Y-92023781D01*
X184373920Y-92009514D01*
X184310570Y-91999480D01*
X184297833Y-91997972D01*
X184286753Y-91996661D01*
X184271266Y-91995442D01*
X184265731Y-91995224D01*
X184247291Y-91994500D01*
X183649000Y-91994500D01*
X183601214Y-91998261D01*
X183584800Y-92000860D01*
X183570619Y-92003106D01*
X183570614Y-92003106D01*
X183540247Y-92009512D01*
X183540242Y-92009514D01*
X183438841Y-92057689D01*
X183438831Y-92057695D01*
X183389342Y-92093651D01*
X183332079Y-92147824D01*
X183278360Y-92246401D01*
X183278359Y-92246403D01*
X183259451Y-92304595D01*
X183244500Y-92398996D01*
X183244500Y-92399000D01*
X183244500Y-94751000D01*
X183248261Y-94798786D01*
X183251983Y-94822289D01*
X183253106Y-94829380D01*
X183253106Y-94829385D01*
X183259512Y-94859752D01*
X183259514Y-94859757D01*
X183308105Y-94962034D01*
X183315998Y-95022708D01*
X183305615Y-95051888D01*
X183278359Y-95101904D01*
X183259451Y-95160095D01*
X183244500Y-95254496D01*
X183244500Y-95254500D01*
X183244500Y-97301000D01*
X183248261Y-97348786D01*
X183251983Y-97372289D01*
X183253106Y-97379380D01*
X183253106Y-97379385D01*
X183259512Y-97409752D01*
X183259514Y-97409757D01*
X183307689Y-97511158D01*
X183307695Y-97511168D01*
X183326981Y-97537713D01*
X183343655Y-97560662D01*
X183397823Y-97617919D01*
X183397824Y-97617920D01*
X183496401Y-97671639D01*
X183496403Y-97671640D01*
X183554596Y-97690548D01*
X183554593Y-97690548D01*
X183648997Y-97705500D01*
X183649000Y-97705500D01*
X184172911Y-97705500D01*
X184172918Y-97705500D01*
X184220704Y-97701739D01*
X184251297Y-97696894D01*
X184297918Y-97685702D01*
X184309601Y-97681904D01*
X184324699Y-97678280D01*
X184452534Y-97658034D01*
X184463994Y-97656219D01*
X184479480Y-97655000D01*
X184820520Y-97655000D01*
X184836006Y-97656218D01*
X184975297Y-97678280D01*
X184990401Y-97681907D01*
X185002078Y-97685701D01*
X185002076Y-97685701D01*
X185002083Y-97685702D01*
X185002084Y-97685703D01*
X185048703Y-97696894D01*
X185067496Y-97699870D01*
X185079276Y-97701736D01*
X185079278Y-97701736D01*
X185079296Y-97701739D01*
X185127082Y-97705500D01*
X185732450Y-97705500D01*
X185790641Y-97724407D01*
X185802454Y-97734496D01*
X186165504Y-98097546D01*
X186193281Y-98152063D01*
X186194500Y-98167550D01*
X186194500Y-98817822D01*
X186194355Y-98820221D01*
X186194355Y-98829789D01*
X186194500Y-98832185D01*
X186194500Y-101992822D01*
X186194355Y-101995221D01*
X186194355Y-102004789D01*
X186194500Y-102007185D01*
X186194500Y-102701000D01*
X186175593Y-102759191D01*
X186126093Y-102795155D01*
X186095500Y-102800000D01*
X166099000Y-102800000D01*
X166040809Y-102781093D01*
X166004845Y-102731593D01*
X166000000Y-102701000D01*
X166000000Y-100099000D01*
X166018907Y-100040809D01*
X166068407Y-100004845D01*
X166099000Y-100000000D01*
X166954551Y-100000000D01*
X167011333Y-100017902D01*
X167072266Y-100060568D01*
X167072269Y-100060569D01*
X167072270Y-100060570D01*
X167072276Y-100060573D01*
X167278500Y-100156737D01*
X167278504Y-100156739D01*
X167498308Y-100215635D01*
X167498312Y-100215635D01*
X167498315Y-100215636D01*
X167724997Y-100235468D01*
X167725000Y-100235468D01*
X167725003Y-100235468D01*
X167951684Y-100215636D01*
X167951685Y-100215635D01*
X167951692Y-100215635D01*
X168171496Y-100156739D01*
X168377734Y-100060568D01*
X168438666Y-100017902D01*
X168495449Y-100000000D01*
X169454838Y-100000000D01*
X169463111Y-100000500D01*
X169464944Y-100000500D01*
X169636889Y-100000500D01*
X169645162Y-100000000D01*
X173004838Y-100000000D01*
X173013111Y-100000500D01*
X173014944Y-100000500D01*
X173186889Y-100000500D01*
X173195162Y-100000000D01*
X179199999Y-100000000D01*
X179200000Y-100000000D01*
X179200000Y-89899000D01*
X179218907Y-89840809D01*
X179268407Y-89804845D01*
X179299000Y-89800000D01*
X182742309Y-89800000D01*
X182800500Y-89818907D01*
G37*
%TD.AperFunction*%
%TD*%
%TA.AperFunction,Conductor*%
%TO.N,GND*%
G36*
X112813069Y-82829440D02*
G01*
X112848382Y-82879406D01*
X112852835Y-82908764D01*
X112852835Y-83693106D01*
X112863458Y-83781565D01*
X112918972Y-83922339D01*
X112918973Y-83922341D01*
X112918974Y-83922342D01*
X113010413Y-84042922D01*
X113130993Y-84134361D01*
X113130994Y-84134361D01*
X113130995Y-84134362D01*
X113138595Y-84137359D01*
X113271771Y-84189877D01*
X113360233Y-84200500D01*
X113360235Y-84200500D01*
X114946435Y-84200500D01*
X114946437Y-84200500D01*
X115034899Y-84189877D01*
X115175677Y-84134361D01*
X115296257Y-84042922D01*
X115344452Y-83979367D01*
X115394677Y-83944426D01*
X115455850Y-83945679D01*
X115502217Y-83979366D01*
X115550413Y-84042922D01*
X115670993Y-84134361D01*
X115670994Y-84134361D01*
X115670995Y-84134362D01*
X115678595Y-84137359D01*
X115811771Y-84189877D01*
X115900233Y-84200500D01*
X117172389Y-84200500D01*
X117230580Y-84219407D01*
X117242393Y-84229496D01*
X118016851Y-85003954D01*
X118044628Y-85058471D01*
X118035057Y-85118903D01*
X118016852Y-85143961D01*
X117949951Y-85210863D01*
X117819430Y-85397268D01*
X117819428Y-85397271D01*
X117769724Y-85503863D01*
X117727996Y-85548611D01*
X117667935Y-85560285D01*
X117612482Y-85534427D01*
X117590276Y-85503863D01*
X117540571Y-85397271D01*
X117540565Y-85397262D01*
X117410053Y-85210869D01*
X117410052Y-85210867D01*
X117410048Y-85210863D01*
X117410047Y-85210861D01*
X117249139Y-85049953D01*
X117249135Y-85049950D01*
X117249132Y-85049947D01*
X117249130Y-85049946D01*
X117062737Y-84919434D01*
X117062736Y-84919433D01*
X117062734Y-84919432D01*
X117062728Y-84919429D01*
X117062723Y-84919426D01*
X116856499Y-84823262D01*
X116856500Y-84823262D01*
X116715312Y-84785431D01*
X116636692Y-84764365D01*
X116636691Y-84764364D01*
X116636684Y-84764363D01*
X116410003Y-84744532D01*
X116409997Y-84744532D01*
X116183315Y-84764363D01*
X115963499Y-84823262D01*
X115757276Y-84919426D01*
X115757262Y-84919434D01*
X115570869Y-85049946D01*
X115570867Y-85049947D01*
X115409947Y-85210867D01*
X115409946Y-85210869D01*
X115279434Y-85397262D01*
X115279426Y-85397276D01*
X115229448Y-85504454D01*
X115187720Y-85549203D01*
X115127659Y-85560877D01*
X115072206Y-85535019D01*
X115049999Y-85504454D01*
X115000133Y-85397516D01*
X115000133Y-85397515D01*
X114919903Y-85282937D01*
X114338019Y-85864822D01*
X114335925Y-85857007D01*
X114270099Y-85742993D01*
X114177007Y-85649901D01*
X114062993Y-85584075D01*
X114055174Y-85581979D01*
X114637060Y-85000094D01*
X114522484Y-84919866D01*
X114316323Y-84823733D01*
X114096597Y-84764857D01*
X113870003Y-84745034D01*
X113869997Y-84745034D01*
X113643402Y-84764857D01*
X113423676Y-84823733D01*
X113217518Y-84919865D01*
X113102938Y-85000094D01*
X113684824Y-85581980D01*
X113677007Y-85584075D01*
X113562993Y-85649901D01*
X113469901Y-85742993D01*
X113404075Y-85857007D01*
X113401980Y-85864824D01*
X112820094Y-85282938D01*
X112739864Y-85397519D01*
X112739862Y-85397522D01*
X112689999Y-85504455D01*
X112648271Y-85549203D01*
X112588210Y-85560877D01*
X112532757Y-85535019D01*
X112510551Y-85504455D01*
X112460568Y-85397266D01*
X112388536Y-85294393D01*
X112330053Y-85210869D01*
X112330052Y-85210867D01*
X112330048Y-85210863D01*
X112330047Y-85210861D01*
X112169139Y-85049953D01*
X112169135Y-85049950D01*
X112169132Y-85049947D01*
X112169130Y-85049946D01*
X111982737Y-84919434D01*
X111982736Y-84919433D01*
X111982734Y-84919432D01*
X111982728Y-84919429D01*
X111982723Y-84919426D01*
X111776499Y-84823262D01*
X111776500Y-84823262D01*
X111635312Y-84785431D01*
X111556692Y-84764365D01*
X111556691Y-84764364D01*
X111556684Y-84764363D01*
X111330003Y-84744532D01*
X111329997Y-84744532D01*
X111103315Y-84764363D01*
X110883499Y-84823262D01*
X110677276Y-84919426D01*
X110677262Y-84919434D01*
X110490869Y-85049946D01*
X110490867Y-85049947D01*
X110329947Y-85210867D01*
X110329946Y-85210869D01*
X110199434Y-85397262D01*
X110199426Y-85397276D01*
X110103262Y-85603499D01*
X110044363Y-85823315D01*
X110024532Y-86049996D01*
X110024532Y-86050003D01*
X110044363Y-86276684D01*
X110044364Y-86276691D01*
X110044365Y-86276692D01*
X110047261Y-86287500D01*
X110103262Y-86496500D01*
X110199426Y-86702723D01*
X110199434Y-86702737D01*
X110329946Y-86889130D01*
X110329947Y-86889132D01*
X110329950Y-86889135D01*
X110329953Y-86889139D01*
X110490861Y-87050047D01*
X110490864Y-87050049D01*
X110490867Y-87050052D01*
X110490869Y-87050053D01*
X110576258Y-87109842D01*
X110677266Y-87180568D01*
X110677269Y-87180569D01*
X110677270Y-87180570D01*
X110691798Y-87187344D01*
X110792340Y-87234227D01*
X110837087Y-87275954D01*
X110849500Y-87323951D01*
X110849500Y-87643138D01*
X110830593Y-87701329D01*
X110783771Y-87735346D01*
X110784087Y-87736193D01*
X110780779Y-87737426D01*
X110649988Y-87797157D01*
X110649980Y-87797161D01*
X110576849Y-87844159D01*
X110576836Y-87844168D01*
X110468186Y-87938313D01*
X110468169Y-87938331D01*
X110411239Y-88004032D01*
X110411230Y-88004044D01*
X110333509Y-88124981D01*
X110333505Y-88124988D01*
X110333504Y-88124991D01*
X110299249Y-88200000D01*
X110297380Y-88204092D01*
X110256875Y-88342040D01*
X110256874Y-88342044D01*
X110244500Y-88428106D01*
X110244500Y-89000004D01*
X110245802Y-89028183D01*
X110245803Y-89028187D01*
X110271400Y-89118150D01*
X110269139Y-89179294D01*
X110268300Y-89181033D01*
X110268443Y-89181089D01*
X110265129Y-89189642D01*
X110244500Y-89299999D01*
X110244500Y-89871893D01*
X110256874Y-89957955D01*
X110256875Y-89957958D01*
X110297382Y-90095913D01*
X110333504Y-90175009D01*
X110333505Y-90175011D01*
X110333509Y-90175018D01*
X110411230Y-90295955D01*
X110411239Y-90295967D01*
X110468169Y-90361668D01*
X110468186Y-90361686D01*
X110576836Y-90455831D01*
X110576849Y-90455840D01*
X110649980Y-90502838D01*
X110649982Y-90502839D01*
X110649990Y-90502844D01*
X110780775Y-90562572D01*
X110780776Y-90562572D01*
X110780780Y-90562574D01*
X110827752Y-90576365D01*
X110864207Y-90587070D01*
X111006522Y-90607532D01*
X111093476Y-90607533D01*
X111100608Y-90606507D01*
X111114696Y-90605500D01*
X111485304Y-90605500D01*
X111499391Y-90606507D01*
X111506524Y-90607533D01*
X111593478Y-90607532D01*
X111735793Y-90587070D01*
X111798179Y-90568751D01*
X111819219Y-90562574D01*
X111819220Y-90562573D01*
X111819225Y-90562572D01*
X111935554Y-90509445D01*
X111976679Y-90500500D01*
X137909309Y-90500500D01*
X137999669Y-90476287D01*
X137999672Y-90476287D01*
X138012903Y-90472741D01*
X138023887Y-90469799D01*
X138126614Y-90410489D01*
X138920490Y-89616614D01*
X138979799Y-89513886D01*
X138980985Y-89509458D01*
X138980989Y-89509452D01*
X138980987Y-89509452D01*
X139010500Y-89399308D01*
X139010500Y-87850711D01*
X139029407Y-87792520D01*
X139064555Y-87762501D01*
X139241610Y-87672287D01*
X139242197Y-87671861D01*
X139336025Y-87603691D01*
X139407219Y-87551966D01*
X139551966Y-87407219D01*
X139641704Y-87283704D01*
X139672285Y-87241613D01*
X139672287Y-87241610D01*
X139765220Y-87059219D01*
X139828477Y-86864534D01*
X139828478Y-86864529D01*
X139860500Y-86662355D01*
X139860500Y-86257644D01*
X139828478Y-86055470D01*
X139826701Y-86050000D01*
X139765220Y-85860781D01*
X139672287Y-85678390D01*
X139672285Y-85678386D01*
X139549680Y-85509634D01*
X139550776Y-85508837D01*
X139529417Y-85457258D01*
X139543707Y-85397764D01*
X139590236Y-85358032D01*
X139628113Y-85350500D01*
X146632547Y-85350500D01*
X146690738Y-85369407D01*
X146726702Y-85418907D01*
X146726702Y-85480093D01*
X146710185Y-85509584D01*
X146710702Y-85509960D01*
X146588138Y-85678653D01*
X146495243Y-85860972D01*
X146432008Y-86055587D01*
X146400000Y-86257684D01*
X146400000Y-86259999D01*
X146400001Y-86260000D01*
X147132424Y-86260000D01*
X147100000Y-86381009D01*
X147100000Y-86538991D01*
X147132424Y-86660000D01*
X146400001Y-86660000D01*
X146400000Y-86660001D01*
X146400000Y-86662315D01*
X146432008Y-86864412D01*
X146495243Y-87059027D01*
X146588138Y-87241346D01*
X146708414Y-87406891D01*
X146853108Y-87551585D01*
X147018653Y-87671861D01*
X147200972Y-87764756D01*
X147395587Y-87827991D01*
X147499999Y-87844527D01*
X147500000Y-87844526D01*
X147500000Y-87027575D01*
X147621009Y-87060000D01*
X147778991Y-87060000D01*
X147900000Y-87027575D01*
X147900000Y-87844527D01*
X148004412Y-87827991D01*
X148199027Y-87764756D01*
X148381346Y-87671861D01*
X148546891Y-87551585D01*
X148691585Y-87406891D01*
X148811861Y-87241346D01*
X148904756Y-87059027D01*
X148967991Y-86864412D01*
X149000000Y-86662315D01*
X149000000Y-86660001D01*
X148999999Y-86660000D01*
X148267576Y-86660000D01*
X148300000Y-86538991D01*
X148300000Y-86381009D01*
X148267576Y-86260000D01*
X148999999Y-86260000D01*
X149000000Y-86259999D01*
X149000000Y-86257684D01*
X148967991Y-86055587D01*
X148904756Y-85860972D01*
X148811861Y-85678653D01*
X148691585Y-85513108D01*
X148546891Y-85368414D01*
X148381346Y-85248138D01*
X148199027Y-85155243D01*
X148004412Y-85092008D01*
X147943681Y-85082390D01*
X147889165Y-85054613D01*
X147861387Y-85000096D01*
X147870958Y-84939664D01*
X147889161Y-84914608D01*
X148574274Y-84229496D01*
X148628791Y-84201719D01*
X148644278Y-84200500D01*
X150059767Y-84200500D01*
X150059769Y-84200500D01*
X150148231Y-84189877D01*
X150289009Y-84134361D01*
X150409589Y-84042922D01*
X150458098Y-83978954D01*
X150508324Y-83944012D01*
X150569497Y-83945266D01*
X150615865Y-83978955D01*
X150664099Y-84042561D01*
X150664102Y-84042564D01*
X150784571Y-84133919D01*
X150925223Y-84189386D01*
X151013602Y-84199999D01*
X151013609Y-84200000D01*
X151606666Y-84200000D01*
X151606667Y-84199999D01*
X151606667Y-83361879D01*
X151613674Y-83365925D01*
X151740841Y-83400000D01*
X151872493Y-83400000D01*
X151999660Y-83365925D01*
X152006667Y-83361879D01*
X152006667Y-84199999D01*
X152006668Y-84200000D01*
X152421164Y-84200000D01*
X152479355Y-84218907D01*
X152515319Y-84268407D01*
X152515319Y-84325070D01*
X152516294Y-84325311D01*
X152515319Y-84329267D01*
X152515319Y-84329593D01*
X152515051Y-84330354D01*
X152514859Y-84331130D01*
X152495126Y-84493651D01*
X152494355Y-84500000D01*
X152514860Y-84668872D01*
X152560612Y-84789514D01*
X152573411Y-84823262D01*
X152575182Y-84827930D01*
X152581934Y-84837712D01*
X152581974Y-84837769D01*
X152599500Y-84894010D01*
X152599500Y-86372389D01*
X152580593Y-86430580D01*
X152570504Y-86442393D01*
X146742393Y-92270504D01*
X146687876Y-92298281D01*
X146672389Y-92299500D01*
X140177611Y-92299500D01*
X140119420Y-92280593D01*
X140107607Y-92270504D01*
X139714316Y-91877213D01*
X139026614Y-91189511D01*
X139026611Y-91189509D01*
X139026610Y-91189508D01*
X139026609Y-91189507D01*
X138923890Y-91130202D01*
X138923886Y-91130200D01*
X138899673Y-91123712D01*
X138899673Y-91123713D01*
X138809309Y-91099500D01*
X121010691Y-91099500D01*
X120965508Y-91111606D01*
X120920325Y-91123713D01*
X120920324Y-91123712D01*
X120896112Y-91130201D01*
X120896109Y-91130202D01*
X120793390Y-91189507D01*
X120793389Y-91189508D01*
X111923131Y-100059764D01*
X111868614Y-100087541D01*
X111811289Y-100079485D01*
X111776496Y-100063261D01*
X111776494Y-100063260D01*
X111567683Y-100007310D01*
X111556692Y-100004365D01*
X111556691Y-100004364D01*
X111556684Y-100004363D01*
X111330003Y-99984532D01*
X111329997Y-99984532D01*
X111103315Y-100004363D01*
X110883499Y-100063262D01*
X110677276Y-100159426D01*
X110677262Y-100159434D01*
X110490869Y-100289946D01*
X110490867Y-100289947D01*
X110329947Y-100450867D01*
X110329946Y-100450869D01*
X110199434Y-100637262D01*
X110199426Y-100637276D01*
X110103262Y-100843499D01*
X110044363Y-101063315D01*
X110024532Y-101289996D01*
X110024532Y-101290003D01*
X110044363Y-101516684D01*
X110044364Y-101516691D01*
X110044365Y-101516692D01*
X110081123Y-101653875D01*
X110103262Y-101736500D01*
X110199426Y-101942723D01*
X110199434Y-101942737D01*
X110329946Y-102129130D01*
X110329947Y-102129132D01*
X110329950Y-102129135D01*
X110329953Y-102129139D01*
X110490861Y-102290047D01*
X110490864Y-102290049D01*
X110490867Y-102290052D01*
X110490869Y-102290053D01*
X110615131Y-102377061D01*
X110677266Y-102420568D01*
X110677272Y-102420571D01*
X110677276Y-102420573D01*
X110824578Y-102489261D01*
X110870107Y-102510492D01*
X110883500Y-102516737D01*
X110883504Y-102516739D01*
X111103308Y-102575635D01*
X111103312Y-102575635D01*
X111103315Y-102575636D01*
X111329997Y-102595468D01*
X111330000Y-102595468D01*
X111330003Y-102595468D01*
X111556684Y-102575636D01*
X111556685Y-102575635D01*
X111556692Y-102575635D01*
X111776496Y-102516739D01*
X111982734Y-102420568D01*
X112169139Y-102290047D01*
X112330047Y-102129139D01*
X112460568Y-101942734D01*
X112479399Y-101902352D01*
X112510276Y-101836137D01*
X112552004Y-101791389D01*
X112612065Y-101779714D01*
X112667518Y-101805572D01*
X112689724Y-101836137D01*
X112739426Y-101942723D01*
X112739434Y-101942737D01*
X112869946Y-102129130D01*
X112869947Y-102129132D01*
X112869950Y-102129135D01*
X112869953Y-102129139D01*
X113030861Y-102290047D01*
X113030864Y-102290049D01*
X113030867Y-102290052D01*
X113030869Y-102290053D01*
X113155131Y-102377061D01*
X113217266Y-102420568D01*
X113217272Y-102420571D01*
X113217276Y-102420573D01*
X113364578Y-102489261D01*
X113410107Y-102510492D01*
X113423500Y-102516737D01*
X113423504Y-102516739D01*
X113643308Y-102575635D01*
X113643312Y-102575635D01*
X113643315Y-102575636D01*
X113869997Y-102595468D01*
X113870000Y-102595468D01*
X113870003Y-102595468D01*
X114096684Y-102575636D01*
X114096685Y-102575635D01*
X114096692Y-102575635D01*
X114316496Y-102516739D01*
X114522734Y-102420568D01*
X114709139Y-102290047D01*
X114870047Y-102129139D01*
X115000568Y-101942734D01*
X115019399Y-101902352D01*
X115050276Y-101836137D01*
X115092004Y-101791389D01*
X115152065Y-101779714D01*
X115207518Y-101805572D01*
X115229724Y-101836137D01*
X115279426Y-101942723D01*
X115279434Y-101942737D01*
X115409946Y-102129130D01*
X115409947Y-102129132D01*
X115409950Y-102129135D01*
X115409953Y-102129139D01*
X115570861Y-102290047D01*
X115570864Y-102290049D01*
X115570867Y-102290052D01*
X115570869Y-102290053D01*
X115695131Y-102377061D01*
X115757266Y-102420568D01*
X115757272Y-102420571D01*
X115757276Y-102420573D01*
X115904578Y-102489261D01*
X115950107Y-102510492D01*
X115963500Y-102516737D01*
X115963504Y-102516739D01*
X116183308Y-102575635D01*
X116183312Y-102575635D01*
X116183315Y-102575636D01*
X116409997Y-102595468D01*
X116410000Y-102595468D01*
X116410003Y-102595468D01*
X116636684Y-102575636D01*
X116636685Y-102575635D01*
X116636692Y-102575635D01*
X116856496Y-102516739D01*
X117062734Y-102420568D01*
X117249139Y-102290047D01*
X117410047Y-102129139D01*
X117540568Y-101942734D01*
X117559399Y-101902352D01*
X117590276Y-101836137D01*
X117632004Y-101791389D01*
X117692065Y-101779714D01*
X117747518Y-101805572D01*
X117769724Y-101836137D01*
X117819426Y-101942723D01*
X117819434Y-101942737D01*
X117949946Y-102129130D01*
X117949947Y-102129132D01*
X117949950Y-102129135D01*
X117949953Y-102129139D01*
X118110861Y-102290047D01*
X118110864Y-102290049D01*
X118110867Y-102290052D01*
X118110869Y-102290053D01*
X118235131Y-102377061D01*
X118297266Y-102420568D01*
X118297272Y-102420571D01*
X118297276Y-102420573D01*
X118444578Y-102489261D01*
X118490107Y-102510492D01*
X118503500Y-102516737D01*
X118503504Y-102516739D01*
X118723308Y-102575635D01*
X118723312Y-102575635D01*
X118723315Y-102575636D01*
X118949997Y-102595468D01*
X118950000Y-102595468D01*
X118950003Y-102595468D01*
X119176684Y-102575636D01*
X119176685Y-102575635D01*
X119176692Y-102575635D01*
X119396496Y-102516739D01*
X119602734Y-102420568D01*
X119789139Y-102290047D01*
X119950047Y-102129139D01*
X120080568Y-101942734D01*
X120099399Y-101902352D01*
X120130276Y-101836137D01*
X120172004Y-101791389D01*
X120232065Y-101779714D01*
X120287518Y-101805572D01*
X120309724Y-101836137D01*
X120359426Y-101942723D01*
X120359434Y-101942737D01*
X120489946Y-102129130D01*
X120489947Y-102129132D01*
X120489950Y-102129135D01*
X120489953Y-102129139D01*
X120650861Y-102290047D01*
X120650864Y-102290049D01*
X120650867Y-102290052D01*
X120650869Y-102290053D01*
X120775131Y-102377061D01*
X120837266Y-102420568D01*
X120837272Y-102420571D01*
X120837276Y-102420573D01*
X120984578Y-102489261D01*
X121030107Y-102510492D01*
X121043500Y-102516737D01*
X121043504Y-102516739D01*
X121263308Y-102575635D01*
X121263312Y-102575635D01*
X121263315Y-102575636D01*
X121489997Y-102595468D01*
X121490000Y-102595468D01*
X121490003Y-102595468D01*
X121716684Y-102575636D01*
X121716685Y-102575635D01*
X121716692Y-102575635D01*
X121936496Y-102516739D01*
X122142734Y-102420568D01*
X122329139Y-102290047D01*
X122490047Y-102129139D01*
X122620568Y-101942734D01*
X122639399Y-101902352D01*
X122670276Y-101836137D01*
X122712004Y-101791389D01*
X122772065Y-101779714D01*
X122827518Y-101805572D01*
X122849724Y-101836137D01*
X122899426Y-101942723D01*
X122899434Y-101942737D01*
X123029946Y-102129130D01*
X123029947Y-102129132D01*
X123029950Y-102129135D01*
X123029953Y-102129139D01*
X123190861Y-102290047D01*
X123190864Y-102290049D01*
X123190867Y-102290052D01*
X123190869Y-102290053D01*
X123315131Y-102377061D01*
X123377266Y-102420568D01*
X123377272Y-102420571D01*
X123377276Y-102420573D01*
X123524578Y-102489261D01*
X123570107Y-102510492D01*
X123583500Y-102516737D01*
X123583504Y-102516739D01*
X123803308Y-102575635D01*
X123803312Y-102575635D01*
X123803315Y-102575636D01*
X124029997Y-102595468D01*
X124030000Y-102595468D01*
X124030003Y-102595468D01*
X124256684Y-102575636D01*
X124256685Y-102575635D01*
X124256692Y-102575635D01*
X124476496Y-102516739D01*
X124682734Y-102420568D01*
X124869139Y-102290047D01*
X125030047Y-102129139D01*
X125160568Y-101942734D01*
X125179399Y-101902352D01*
X125210276Y-101836137D01*
X125252004Y-101791389D01*
X125312065Y-101779714D01*
X125367518Y-101805572D01*
X125389724Y-101836137D01*
X125439426Y-101942723D01*
X125439434Y-101942737D01*
X125569946Y-102129130D01*
X125569947Y-102129132D01*
X125569950Y-102129135D01*
X125569953Y-102129139D01*
X125730861Y-102290047D01*
X125730864Y-102290049D01*
X125730867Y-102290052D01*
X125730869Y-102290053D01*
X125855131Y-102377061D01*
X125917266Y-102420568D01*
X125917272Y-102420571D01*
X125917276Y-102420573D01*
X126064578Y-102489261D01*
X126110107Y-102510492D01*
X126123500Y-102516737D01*
X126123504Y-102516739D01*
X126343308Y-102575635D01*
X126343312Y-102575635D01*
X126343315Y-102575636D01*
X126569997Y-102595468D01*
X126570000Y-102595468D01*
X126570003Y-102595468D01*
X126796684Y-102575636D01*
X126796685Y-102575635D01*
X126796692Y-102575635D01*
X127016496Y-102516739D01*
X127222734Y-102420568D01*
X127409139Y-102290047D01*
X127570047Y-102129139D01*
X127700568Y-101942734D01*
X127719399Y-101902352D01*
X127750276Y-101836137D01*
X127792004Y-101791389D01*
X127852065Y-101779714D01*
X127907518Y-101805572D01*
X127929724Y-101836137D01*
X127979426Y-101942723D01*
X127979434Y-101942737D01*
X128109946Y-102129130D01*
X128109947Y-102129132D01*
X128109950Y-102129135D01*
X128109953Y-102129139D01*
X128270861Y-102290047D01*
X128270864Y-102290049D01*
X128270867Y-102290052D01*
X128270869Y-102290053D01*
X128395131Y-102377061D01*
X128457266Y-102420568D01*
X128457272Y-102420571D01*
X128457276Y-102420573D01*
X128604578Y-102489261D01*
X128650107Y-102510492D01*
X128663500Y-102516737D01*
X128663504Y-102516739D01*
X128883308Y-102575635D01*
X128883312Y-102575635D01*
X128883315Y-102575636D01*
X128919532Y-102578804D01*
X128985427Y-102584569D01*
X129002406Y-102587562D01*
X129050691Y-102600500D01*
X129050693Y-102600500D01*
X135759307Y-102600500D01*
X135759309Y-102600500D01*
X135852106Y-102575635D01*
X135873887Y-102569799D01*
X135976614Y-102510489D01*
X137094872Y-101392229D01*
X137149387Y-101364454D01*
X137209819Y-101374025D01*
X137253084Y-101417290D01*
X137262655Y-101477720D01*
X137259500Y-101497641D01*
X137259500Y-101902355D01*
X137291521Y-102104529D01*
X137354780Y-102299219D01*
X137447712Y-102481609D01*
X137447714Y-102481613D01*
X137568029Y-102647213D01*
X137568031Y-102647215D01*
X137568034Y-102647219D01*
X137571313Y-102650498D01*
X137599089Y-102705013D01*
X137589518Y-102765445D01*
X137546253Y-102808710D01*
X137501308Y-102819500D01*
X110308538Y-102819500D01*
X110301477Y-102819248D01*
X110271467Y-102817101D01*
X110070193Y-102802706D01*
X110056212Y-102800695D01*
X109833118Y-102752163D01*
X109819566Y-102748184D01*
X109605636Y-102668394D01*
X109592786Y-102662526D01*
X109392395Y-102553103D01*
X109380513Y-102545467D01*
X109197736Y-102408642D01*
X109187060Y-102399392D01*
X109025607Y-102237939D01*
X109016357Y-102227263D01*
X108879530Y-102044483D01*
X108871896Y-102032604D01*
X108854093Y-102000000D01*
X108762469Y-101832205D01*
X108756605Y-101819363D01*
X108751461Y-101805572D01*
X108709359Y-101692690D01*
X108676815Y-101605433D01*
X108672836Y-101591881D01*
X108629404Y-101392231D01*
X108624303Y-101368786D01*
X108622293Y-101354805D01*
X108618049Y-101295470D01*
X108605752Y-101123523D01*
X108605500Y-101116461D01*
X108605500Y-83402174D01*
X108624407Y-83343983D01*
X108673907Y-83308019D01*
X108735093Y-83308019D01*
X108784593Y-83343983D01*
X108786797Y-83347147D01*
X108799345Y-83365925D01*
X108850479Y-83442453D01*
X108850487Y-83442463D01*
X108947270Y-83552822D01*
X109040673Y-83659327D01*
X109040681Y-83659334D01*
X109040682Y-83659335D01*
X109257536Y-83849512D01*
X109257543Y-83849517D01*
X109257546Y-83849520D01*
X109497389Y-84009778D01*
X109756098Y-84137359D01*
X109858353Y-84172070D01*
X110029240Y-84230079D01*
X110029242Y-84230079D01*
X110029247Y-84230081D01*
X110312161Y-84286356D01*
X110600000Y-84305222D01*
X110887839Y-84286356D01*
X111170753Y-84230081D01*
X111443902Y-84137359D01*
X111702611Y-84009778D01*
X111942454Y-83849520D01*
X112159327Y-83659327D01*
X112349520Y-83442454D01*
X112509778Y-83202611D01*
X112637359Y-82943902D01*
X112660089Y-82876940D01*
X112696698Y-82827916D01*
X112755131Y-82809772D01*
X112813069Y-82829440D01*
G37*
%TD.AperFunction*%
%TA.AperFunction,Conductor*%
G36*
X146830206Y-100469407D02*
G01*
X146866170Y-100518907D01*
X146866170Y-100580093D01*
X146842019Y-100619504D01*
X146708414Y-100753108D01*
X146588138Y-100918653D01*
X146495243Y-101100972D01*
X146432008Y-101295587D01*
X146415472Y-101400000D01*
X147180385Y-101400000D01*
X147140889Y-101468409D01*
X147100000Y-101621009D01*
X147100000Y-101778991D01*
X147140889Y-101931591D01*
X147180385Y-102000000D01*
X146415472Y-102000000D01*
X146432008Y-102104412D01*
X146495243Y-102299027D01*
X146588138Y-102481346D01*
X146708414Y-102646891D01*
X146712019Y-102650496D01*
X146739796Y-102705013D01*
X146730225Y-102765445D01*
X146686960Y-102808710D01*
X146642015Y-102819500D01*
X139618692Y-102819500D01*
X139560501Y-102800593D01*
X139524537Y-102751093D01*
X139524537Y-102689907D01*
X139548686Y-102650498D01*
X139551966Y-102647219D01*
X139632180Y-102536813D01*
X139672285Y-102481613D01*
X139672287Y-102481610D01*
X139765220Y-102299219D01*
X139828477Y-102104534D01*
X139828478Y-102104529D01*
X139860500Y-101902355D01*
X139860500Y-101497644D01*
X139828478Y-101295470D01*
X139826701Y-101290000D01*
X139765220Y-101100781D01*
X139672287Y-100918390D01*
X139672285Y-100918386D01*
X139551970Y-100752786D01*
X139551968Y-100752784D01*
X139551966Y-100752781D01*
X139418686Y-100619501D01*
X139390911Y-100564987D01*
X139400482Y-100504555D01*
X139443747Y-100461290D01*
X139488692Y-100450500D01*
X146772015Y-100450500D01*
X146830206Y-100469407D01*
G37*
%TD.AperFunction*%
%TA.AperFunction,Conductor*%
G36*
X186153691Y-80139407D02*
G01*
X186189655Y-80188907D01*
X186194500Y-80219500D01*
X186194500Y-80512822D01*
X186194355Y-80515221D01*
X186194355Y-80524789D01*
X186194500Y-80527185D01*
X186194500Y-83552822D01*
X186194355Y-83555221D01*
X186194355Y-83564789D01*
X186194500Y-83567185D01*
X186194500Y-84295500D01*
X186175593Y-84353691D01*
X186126093Y-84389655D01*
X186095500Y-84394500D01*
X185636465Y-84394500D01*
X185632256Y-84394625D01*
X185618216Y-84395045D01*
X185606442Y-84395749D01*
X185598807Y-84396435D01*
X185588237Y-84397385D01*
X185588229Y-84397386D01*
X185530703Y-84404294D01*
X185518900Y-84405000D01*
X183781100Y-84405000D01*
X183769297Y-84404294D01*
X183759404Y-84403106D01*
X183711763Y-84397385D01*
X183697810Y-84396131D01*
X183693557Y-84395749D01*
X183681783Y-84395045D01*
X183668094Y-84394636D01*
X183663535Y-84394500D01*
X183199000Y-84394500D01*
X183151214Y-84398261D01*
X183134800Y-84400860D01*
X183120619Y-84403106D01*
X183120614Y-84403106D01*
X183090247Y-84409512D01*
X183090242Y-84409514D01*
X182988841Y-84457689D01*
X182988831Y-84457695D01*
X182939342Y-84493651D01*
X182882079Y-84547824D01*
X182828360Y-84646401D01*
X182828359Y-84646403D01*
X182809451Y-84704595D01*
X182794500Y-84798996D01*
X182794500Y-84799000D01*
X182794500Y-86845500D01*
X182798261Y-86893286D01*
X182799982Y-86904151D01*
X182803106Y-86923880D01*
X182803106Y-86923885D01*
X182809512Y-86954252D01*
X182809514Y-86954257D01*
X182858105Y-87056534D01*
X182865998Y-87117208D01*
X182855615Y-87146388D01*
X182828359Y-87196404D01*
X182809451Y-87254595D01*
X182794500Y-87348996D01*
X182794500Y-89395500D01*
X182775593Y-89453691D01*
X182726093Y-89489655D01*
X182695500Y-89494500D01*
X179299000Y-89494500D01*
X179251214Y-89498261D01*
X179234800Y-89500860D01*
X179220619Y-89503106D01*
X179220614Y-89503106D01*
X179190247Y-89509512D01*
X179190242Y-89509514D01*
X179088841Y-89557689D01*
X179088831Y-89557695D01*
X179039342Y-89593651D01*
X178982079Y-89647824D01*
X178928360Y-89746401D01*
X178928359Y-89746403D01*
X178909451Y-89804595D01*
X178894500Y-89898996D01*
X178894500Y-99595500D01*
X178875593Y-99653691D01*
X178826093Y-99689655D01*
X178795500Y-99694500D01*
X175991298Y-99694500D01*
X175933107Y-99675593D01*
X175897143Y-99626093D01*
X175897143Y-99564907D01*
X175933107Y-99515407D01*
X175955535Y-99503185D01*
X175992415Y-99488897D01*
X176124356Y-99407199D01*
X175603527Y-98886370D01*
X175654394Y-98872741D01*
X175745606Y-98820080D01*
X175820080Y-98745606D01*
X175872741Y-98654394D01*
X175886370Y-98603527D01*
X176407042Y-99124199D01*
X176439242Y-99081561D01*
X176439247Y-99081552D01*
X176530112Y-98899070D01*
X176585902Y-98702989D01*
X176604712Y-98500000D01*
X176585902Y-98297010D01*
X176530112Y-98100929D01*
X176439249Y-97918451D01*
X176439244Y-97918442D01*
X176407041Y-97875800D01*
X175886370Y-98396470D01*
X175872741Y-98345606D01*
X175820080Y-98254394D01*
X175745606Y-98179920D01*
X175654394Y-98127259D01*
X175603525Y-98113629D01*
X176124357Y-97592798D01*
X175992421Y-97511105D01*
X175992415Y-97511102D01*
X175802316Y-97437458D01*
X175601930Y-97400000D01*
X175398070Y-97400000D01*
X175197683Y-97437458D01*
X175007586Y-97511101D01*
X175007581Y-97511104D01*
X174875641Y-97592798D01*
X175396472Y-98113629D01*
X175345606Y-98127259D01*
X175254394Y-98179920D01*
X175179920Y-98254394D01*
X175127259Y-98345606D01*
X175113629Y-98396471D01*
X174592957Y-97875798D01*
X174560754Y-97918442D01*
X174469887Y-98100929D01*
X174414097Y-98297010D01*
X174395287Y-98500000D01*
X174414097Y-98702989D01*
X174469887Y-98899070D01*
X174560750Y-99081548D01*
X174560755Y-99081557D01*
X174592957Y-99124198D01*
X175113629Y-98603526D01*
X175127259Y-98654394D01*
X175179920Y-98745606D01*
X175254394Y-98820080D01*
X175345606Y-98872741D01*
X175396470Y-98886370D01*
X174875641Y-99407200D01*
X175007583Y-99488897D01*
X175044465Y-99503185D01*
X175091896Y-99541837D01*
X175107550Y-99600986D01*
X175085447Y-99658039D01*
X175034031Y-99691205D01*
X175008702Y-99694500D01*
X173195162Y-99694500D01*
X173180080Y-99694955D01*
X173177095Y-99695000D01*
X173022905Y-99695000D01*
X173019920Y-99694955D01*
X173004838Y-99694500D01*
X169645162Y-99694500D01*
X169630080Y-99694955D01*
X169627095Y-99695000D01*
X169472905Y-99695000D01*
X169469920Y-99694955D01*
X169454838Y-99694500D01*
X168495449Y-99694500D01*
X168475027Y-99697642D01*
X168403594Y-99708636D01*
X168403587Y-99708638D01*
X168346814Y-99726536D01*
X168263432Y-99767655D01*
X168231491Y-99790020D01*
X168216547Y-99798647D01*
X168074459Y-99864904D01*
X168058243Y-99870807D01*
X167906799Y-99911386D01*
X167889805Y-99914382D01*
X167733627Y-99928046D01*
X167716370Y-99928046D01*
X167560194Y-99914383D01*
X167543199Y-99911387D01*
X167391754Y-99870807D01*
X167375546Y-99864908D01*
X167233439Y-99798642D01*
X167218504Y-99790019D01*
X167186561Y-99767652D01*
X167103189Y-99726538D01*
X167046419Y-99708639D01*
X167046408Y-99708637D01*
X166974974Y-99697643D01*
X166954551Y-99694500D01*
X166099000Y-99694500D01*
X166051214Y-99698261D01*
X166034800Y-99700860D01*
X166020619Y-99703106D01*
X166020614Y-99703106D01*
X165990247Y-99709512D01*
X165990242Y-99709514D01*
X165888841Y-99757689D01*
X165888831Y-99757695D01*
X165839342Y-99793651D01*
X165782079Y-99847824D01*
X165728360Y-99946401D01*
X165728359Y-99946403D01*
X165709451Y-100004595D01*
X165694500Y-100098996D01*
X165694500Y-100099000D01*
X165694500Y-102701000D01*
X165695423Y-102712733D01*
X165681141Y-102772226D01*
X165634616Y-102811964D01*
X165596729Y-102819500D01*
X148757985Y-102819500D01*
X148699794Y-102800593D01*
X148663830Y-102751093D01*
X148663830Y-102689907D01*
X148687981Y-102650496D01*
X148691585Y-102646891D01*
X148811861Y-102481346D01*
X148904756Y-102299027D01*
X148967991Y-102104412D01*
X148984528Y-102000000D01*
X148219615Y-102000000D01*
X148259111Y-101931591D01*
X148300000Y-101778991D01*
X148300000Y-101621009D01*
X148259111Y-101468409D01*
X148219615Y-101400000D01*
X148984528Y-101400000D01*
X148967991Y-101295587D01*
X148904756Y-101100972D01*
X148811861Y-100918653D01*
X148691585Y-100753108D01*
X148557981Y-100619504D01*
X148530204Y-100564987D01*
X148539775Y-100504555D01*
X148583040Y-100461290D01*
X148627985Y-100450500D01*
X159309309Y-100450500D01*
X159399669Y-100426287D01*
X159399672Y-100426287D01*
X159412903Y-100422741D01*
X159423887Y-100419799D01*
X159526614Y-100360489D01*
X163297608Y-96589496D01*
X163352125Y-96561719D01*
X163367612Y-96560500D01*
X169859290Y-96560500D01*
X169917481Y-96579407D01*
X169947497Y-96614551D01*
X170011032Y-96739247D01*
X170037712Y-96791609D01*
X170037714Y-96791613D01*
X170158029Y-96957213D01*
X170158031Y-96957215D01*
X170158034Y-96957219D01*
X170302781Y-97101966D01*
X170302784Y-97101968D01*
X170302786Y-97101970D01*
X170468386Y-97222285D01*
X170468390Y-97222287D01*
X170650781Y-97315220D01*
X170845466Y-97378477D01*
X170845467Y-97378477D01*
X170845470Y-97378478D01*
X171047645Y-97410500D01*
X171047648Y-97410500D01*
X171452355Y-97410500D01*
X171654529Y-97378478D01*
X171654530Y-97378477D01*
X171654534Y-97378477D01*
X171849219Y-97315220D01*
X172031610Y-97222287D01*
X172197219Y-97101966D01*
X172341966Y-96957219D01*
X172462287Y-96791610D01*
X172555220Y-96609219D01*
X172618477Y-96414534D01*
X172622728Y-96387695D01*
X172650500Y-96212355D01*
X172650500Y-96007644D01*
X172618478Y-95805470D01*
X172618477Y-95805466D01*
X172555220Y-95610781D01*
X172462287Y-95428390D01*
X172462285Y-95428386D01*
X172341970Y-95262786D01*
X172341968Y-95262784D01*
X172341966Y-95262781D01*
X172197219Y-95118034D01*
X172197215Y-95118031D01*
X172197213Y-95118029D01*
X172031613Y-94997714D01*
X172031609Y-94997712D01*
X171938949Y-94950500D01*
X171895201Y-94928209D01*
X171851937Y-94884945D01*
X171842366Y-94824513D01*
X171870143Y-94769997D01*
X171895199Y-94751791D01*
X172031610Y-94682287D01*
X172197219Y-94561966D01*
X172341966Y-94417219D01*
X172462287Y-94251610D01*
X172555220Y-94069219D01*
X172618477Y-93874534D01*
X172650500Y-93672352D01*
X172650500Y-93467648D01*
X172650500Y-93467644D01*
X172618478Y-93265470D01*
X172618477Y-93265466D01*
X172555220Y-93070781D01*
X172462287Y-92888390D01*
X172462285Y-92888386D01*
X172341970Y-92722786D01*
X172341968Y-92722784D01*
X172341966Y-92722781D01*
X172197219Y-92578034D01*
X172197215Y-92578031D01*
X172197213Y-92578029D01*
X172031613Y-92457714D01*
X172031609Y-92457712D01*
X171960847Y-92421657D01*
X171895201Y-92388209D01*
X171851937Y-92344945D01*
X171842366Y-92284513D01*
X171870143Y-92229997D01*
X171895199Y-92211791D01*
X172031610Y-92142287D01*
X172197219Y-92021966D01*
X172341966Y-91877219D01*
X172462287Y-91711610D01*
X172555220Y-91529219D01*
X172618477Y-91334534D01*
X172618478Y-91334529D01*
X172650500Y-91132355D01*
X172650500Y-90927644D01*
X172618478Y-90725470D01*
X172580158Y-90607533D01*
X172555220Y-90530781D01*
X172462287Y-90348390D01*
X172462285Y-90348386D01*
X172341970Y-90182786D01*
X172341968Y-90182784D01*
X172341966Y-90182781D01*
X172197219Y-90038034D01*
X172197215Y-90038031D01*
X172197213Y-90038029D01*
X172031613Y-89917714D01*
X172031609Y-89917712D01*
X171941675Y-89871889D01*
X171895201Y-89848209D01*
X171851937Y-89804945D01*
X171842366Y-89744513D01*
X171870143Y-89689997D01*
X171895199Y-89671791D01*
X172031610Y-89602287D01*
X172061470Y-89580593D01*
X172129601Y-89531093D01*
X172197219Y-89481966D01*
X172341966Y-89337219D01*
X172462287Y-89171610D01*
X172555220Y-88989219D01*
X172618477Y-88794534D01*
X172620663Y-88780732D01*
X172650500Y-88592355D01*
X172650500Y-88387644D01*
X172618478Y-88185470D01*
X172617056Y-88181093D01*
X172555220Y-87990781D01*
X172462287Y-87808390D01*
X172462285Y-87808386D01*
X172341970Y-87642786D01*
X172341968Y-87642784D01*
X172341966Y-87642781D01*
X172197219Y-87498034D01*
X172197215Y-87498031D01*
X172197213Y-87498029D01*
X172031613Y-87377714D01*
X172031609Y-87377712D01*
X171960847Y-87341657D01*
X171895201Y-87308209D01*
X171851937Y-87264945D01*
X171842366Y-87204513D01*
X171870143Y-87149997D01*
X171895199Y-87131791D01*
X172031610Y-87062287D01*
X172039529Y-87056534D01*
X172142788Y-86981512D01*
X172197219Y-86941966D01*
X172341966Y-86797219D01*
X172462287Y-86631610D01*
X172555220Y-86449219D01*
X172618477Y-86254534D01*
X172622615Y-86228409D01*
X172650500Y-86052355D01*
X172650500Y-85847644D01*
X172618478Y-85645470D01*
X172617351Y-85642000D01*
X172555220Y-85450781D01*
X172462287Y-85268390D01*
X172462285Y-85268386D01*
X172341970Y-85102786D01*
X172341968Y-85102784D01*
X172341966Y-85102781D01*
X172197219Y-84958034D01*
X172197215Y-84958031D01*
X172197213Y-84958029D01*
X172031613Y-84837714D01*
X172031609Y-84837712D01*
X171849219Y-84744780D01*
X171654529Y-84681521D01*
X171452355Y-84649500D01*
X171452352Y-84649500D01*
X171047648Y-84649500D01*
X171047645Y-84649500D01*
X170845470Y-84681521D01*
X170650780Y-84744780D01*
X170468390Y-84837712D01*
X170468386Y-84837714D01*
X170302786Y-84958029D01*
X170158029Y-85102786D01*
X170037714Y-85268386D01*
X170037712Y-85268390D01*
X169944780Y-85450780D01*
X169881521Y-85645470D01*
X169849500Y-85847644D01*
X169849500Y-86052355D01*
X169881521Y-86254529D01*
X169944781Y-86449222D01*
X169969134Y-86497019D01*
X169978705Y-86557451D01*
X169950928Y-86611967D01*
X169556324Y-87006571D01*
X169501807Y-87034348D01*
X169441375Y-87024777D01*
X169398110Y-86981512D01*
X169388026Y-86924761D01*
X169393334Y-86880559D01*
X169393335Y-86880558D01*
X169393335Y-86287501D01*
X169393334Y-86287500D01*
X168555215Y-86287500D01*
X168559260Y-86280493D01*
X168593335Y-86153326D01*
X168593335Y-86021674D01*
X168559260Y-85894507D01*
X168555215Y-85887500D01*
X169393334Y-85887500D01*
X169393335Y-85887499D01*
X169393335Y-85294441D01*
X169393334Y-85294435D01*
X169382721Y-85206056D01*
X169327254Y-85065404D01*
X169235899Y-84944935D01*
X169115430Y-84853580D01*
X168974778Y-84798113D01*
X168886399Y-84787500D01*
X168293336Y-84787500D01*
X168293335Y-84787501D01*
X168293335Y-85625620D01*
X168286328Y-85621575D01*
X168159161Y-85587500D01*
X168027509Y-85587500D01*
X167900342Y-85621575D01*
X167893335Y-85625620D01*
X167893335Y-84787501D01*
X167893334Y-84787500D01*
X167300270Y-84787500D01*
X167211891Y-84798113D01*
X167071239Y-84853580D01*
X166950770Y-84944935D01*
X166950765Y-84944940D01*
X166902531Y-85008546D01*
X166852304Y-85043488D01*
X166791132Y-85042234D01*
X166744765Y-85008546D01*
X166696257Y-84944578D01*
X166575677Y-84853139D01*
X166575676Y-84853138D01*
X166575674Y-84853137D01*
X166434900Y-84797623D01*
X166346441Y-84787000D01*
X166346437Y-84787000D01*
X164760233Y-84787000D01*
X164760228Y-84787000D01*
X164671769Y-84797623D01*
X164530995Y-84853137D01*
X164530991Y-84853140D01*
X164410416Y-84944575D01*
X164410413Y-84944578D01*
X164362217Y-85008132D01*
X164311992Y-85043074D01*
X164250819Y-85041820D01*
X164204452Y-85008133D01*
X164156257Y-84944578D01*
X164035677Y-84853139D01*
X164035676Y-84853138D01*
X164035674Y-84853137D01*
X163894900Y-84797623D01*
X163806441Y-84787000D01*
X163806437Y-84787000D01*
X163512835Y-84787000D01*
X163454644Y-84768093D01*
X163418680Y-84718593D01*
X163413835Y-84688000D01*
X163413835Y-84299500D01*
X163432742Y-84241309D01*
X163482242Y-84205345D01*
X163512835Y-84200500D01*
X163806435Y-84200500D01*
X163806437Y-84200500D01*
X163894899Y-84189877D01*
X164035677Y-84134361D01*
X164156257Y-84042922D01*
X164204452Y-83979367D01*
X164254677Y-83944426D01*
X164315850Y-83945679D01*
X164362217Y-83979366D01*
X164410413Y-84042922D01*
X164530993Y-84134361D01*
X164530994Y-84134361D01*
X164530995Y-84134362D01*
X164538595Y-84137359D01*
X164671771Y-84189877D01*
X164760233Y-84200500D01*
X164760235Y-84200500D01*
X166346435Y-84200500D01*
X166346437Y-84200500D01*
X166434899Y-84189877D01*
X166575677Y-84134361D01*
X166696257Y-84042922D01*
X166744766Y-83978954D01*
X166794992Y-83944012D01*
X166856165Y-83945266D01*
X166902533Y-83978955D01*
X166950767Y-84042561D01*
X166950770Y-84042564D01*
X167071239Y-84133919D01*
X167211891Y-84189386D01*
X167300270Y-84199999D01*
X167300277Y-84200000D01*
X167893334Y-84200000D01*
X167893335Y-84199999D01*
X167893335Y-83361879D01*
X167900342Y-83365925D01*
X168027509Y-83400000D01*
X168159161Y-83400000D01*
X168286328Y-83365925D01*
X168293335Y-83361879D01*
X168293335Y-84199999D01*
X168293336Y-84200000D01*
X168886393Y-84200000D01*
X168886399Y-84199999D01*
X168974778Y-84189386D01*
X169115430Y-84133919D01*
X169235899Y-84042564D01*
X169327254Y-83922095D01*
X169382721Y-83781443D01*
X169393334Y-83693064D01*
X169393335Y-83693058D01*
X169393335Y-83100001D01*
X169393334Y-83100000D01*
X168555215Y-83100000D01*
X168559260Y-83092993D01*
X168593335Y-82965826D01*
X168593335Y-82834174D01*
X168559260Y-82707007D01*
X168555215Y-82700000D01*
X169393334Y-82700000D01*
X169393335Y-82699999D01*
X169393335Y-82106941D01*
X169393334Y-82106935D01*
X169382721Y-82018556D01*
X169327254Y-81877904D01*
X169235899Y-81757435D01*
X169115430Y-81666080D01*
X168974778Y-81610613D01*
X168886399Y-81600000D01*
X168293336Y-81600000D01*
X168293335Y-81600001D01*
X168293335Y-82438120D01*
X168286328Y-82434075D01*
X168159161Y-82400000D01*
X168027509Y-82400000D01*
X167900342Y-82434075D01*
X167893335Y-82438120D01*
X167893335Y-81600001D01*
X167893334Y-81600000D01*
X167300270Y-81600000D01*
X167211891Y-81610613D01*
X167071239Y-81666080D01*
X166950770Y-81757435D01*
X166950765Y-81757440D01*
X166902531Y-81821046D01*
X166852304Y-81855988D01*
X166791132Y-81854734D01*
X166744765Y-81821046D01*
X166696257Y-81757078D01*
X166575677Y-81665639D01*
X166575676Y-81665638D01*
X166575674Y-81665637D01*
X166434900Y-81610123D01*
X166346441Y-81599500D01*
X166346437Y-81599500D01*
X164760233Y-81599500D01*
X164760228Y-81599500D01*
X164671769Y-81610123D01*
X164530995Y-81665637D01*
X164530991Y-81665640D01*
X164410416Y-81757075D01*
X164410413Y-81757078D01*
X164362217Y-81820632D01*
X164311992Y-81855574D01*
X164250819Y-81854320D01*
X164204452Y-81820633D01*
X164156257Y-81757078D01*
X164035677Y-81665639D01*
X164035676Y-81665638D01*
X164035674Y-81665637D01*
X163894900Y-81610123D01*
X163806441Y-81599500D01*
X163806437Y-81599500D01*
X163551985Y-81599500D01*
X163493794Y-81580593D01*
X163457830Y-81531093D01*
X163456358Y-81526123D01*
X163433134Y-81439449D01*
X163390715Y-81365978D01*
X163373824Y-81336721D01*
X162926614Y-80889511D01*
X162926611Y-80889509D01*
X162926609Y-80889507D01*
X162823892Y-80830203D01*
X162823889Y-80830202D01*
X162823887Y-80830201D01*
X162796388Y-80822833D01*
X162709309Y-80799500D01*
X154909309Y-80799500D01*
X151759309Y-80799500D01*
X146762643Y-80799500D01*
X138659309Y-80799500D01*
X135209309Y-80799500D01*
X130509309Y-80799500D01*
X126859309Y-80799500D01*
X122359309Y-80799500D01*
X118559309Y-80799500D01*
X114440691Y-80799500D01*
X114370567Y-80818289D01*
X114326109Y-80830202D01*
X114297248Y-80846865D01*
X114297249Y-80846866D01*
X114223387Y-80889510D01*
X113792842Y-81320055D01*
X113733537Y-81422774D01*
X113733536Y-81422777D01*
X113729068Y-81439448D01*
X113729069Y-81439449D01*
X113705845Y-81526123D01*
X113672521Y-81577437D01*
X113615400Y-81599364D01*
X113610218Y-81599500D01*
X113360228Y-81599500D01*
X113271769Y-81610123D01*
X113130995Y-81665637D01*
X113130991Y-81665640D01*
X113010416Y-81757075D01*
X113010408Y-81757083D01*
X112957263Y-81827165D01*
X112907036Y-81862107D01*
X112845864Y-81860853D01*
X112797111Y-81823882D01*
X112781284Y-81786664D01*
X112730081Y-81529247D01*
X112693939Y-81422778D01*
X112664727Y-81336721D01*
X112637359Y-81256098D01*
X112509778Y-80997389D01*
X112349520Y-80757546D01*
X112349517Y-80757543D01*
X112349512Y-80757536D01*
X112159335Y-80540682D01*
X112159334Y-80540681D01*
X112159327Y-80540673D01*
X112135754Y-80520000D01*
X111942463Y-80350487D01*
X111942450Y-80350477D01*
X111869622Y-80301815D01*
X111831743Y-80253765D01*
X111829341Y-80192627D01*
X111863334Y-80141754D01*
X111920737Y-80120576D01*
X111924624Y-80120500D01*
X186095500Y-80120500D01*
X186153691Y-80139407D01*
G37*
%TD.AperFunction*%
%TA.AperFunction,Conductor*%
G36*
X161772188Y-81719407D02*
G01*
X161808152Y-81768907D01*
X161808152Y-81830093D01*
X161792881Y-81859319D01*
X161778975Y-81877656D01*
X161778972Y-81877660D01*
X161723458Y-82018434D01*
X161712835Y-82106893D01*
X161712835Y-83693106D01*
X161723458Y-83781565D01*
X161778972Y-83922339D01*
X161778973Y-83922341D01*
X161778974Y-83922342D01*
X161870413Y-84042922D01*
X161990993Y-84134361D01*
X161990994Y-84134361D01*
X161990995Y-84134362D01*
X161998595Y-84137359D01*
X162131771Y-84189877D01*
X162220233Y-84200500D01*
X162513835Y-84200500D01*
X162572026Y-84219407D01*
X162607990Y-84268907D01*
X162612835Y-84299500D01*
X162612835Y-84688000D01*
X162593928Y-84746191D01*
X162544428Y-84782155D01*
X162513835Y-84787000D01*
X162220228Y-84787000D01*
X162131769Y-84797623D01*
X161990995Y-84853137D01*
X161990991Y-84853140D01*
X161870416Y-84944575D01*
X161870410Y-84944581D01*
X161778975Y-85065156D01*
X161778972Y-85065160D01*
X161723458Y-85205934D01*
X161712835Y-85294393D01*
X161712835Y-86880606D01*
X161723458Y-86969065D01*
X161778972Y-87109839D01*
X161778973Y-87109841D01*
X161778974Y-87109842D01*
X161870413Y-87230422D01*
X161990993Y-87321861D01*
X161990994Y-87321861D01*
X161990995Y-87321862D01*
X162019574Y-87333132D01*
X162131771Y-87377377D01*
X162220233Y-87388000D01*
X162220235Y-87388000D01*
X163806435Y-87388000D01*
X163806437Y-87388000D01*
X163894899Y-87377377D01*
X164035677Y-87321861D01*
X164156257Y-87230422D01*
X164204452Y-87166867D01*
X164254677Y-87131926D01*
X164315850Y-87133179D01*
X164362217Y-87166866D01*
X164410413Y-87230422D01*
X164530993Y-87321861D01*
X164530994Y-87321861D01*
X164530995Y-87321862D01*
X164648794Y-87368316D01*
X164695991Y-87407252D01*
X164711288Y-87466495D01*
X164688842Y-87523414D01*
X164682479Y-87530417D01*
X157092393Y-95120504D01*
X157037876Y-95148281D01*
X157022389Y-95149500D01*
X155426610Y-95149500D01*
X155368419Y-95130593D01*
X155332455Y-95081093D01*
X155332455Y-95019907D01*
X155356604Y-94980498D01*
X161407607Y-88929496D01*
X161462124Y-88901719D01*
X161477611Y-88900500D01*
X161585053Y-88900500D01*
X161585056Y-88900500D01*
X161750225Y-88859790D01*
X161900852Y-88780734D01*
X162028183Y-88667929D01*
X162124818Y-88527930D01*
X162185140Y-88368872D01*
X162205645Y-88200000D01*
X162185140Y-88031128D01*
X162124818Y-87872070D01*
X162028183Y-87732071D01*
X162019333Y-87724231D01*
X161927395Y-87642781D01*
X161900852Y-87619266D01*
X161750225Y-87540210D01*
X161750224Y-87540209D01*
X161750223Y-87540209D01*
X161585058Y-87499500D01*
X161585056Y-87499500D01*
X161414944Y-87499500D01*
X161414941Y-87499500D01*
X161249776Y-87540209D01*
X161099146Y-87619267D01*
X160971818Y-87732069D01*
X160971816Y-87732072D01*
X160905608Y-87827991D01*
X160875182Y-87872070D01*
X160814860Y-88031128D01*
X160809733Y-88073346D01*
X160794355Y-88199997D01*
X160794355Y-88199998D01*
X160795966Y-88213271D01*
X160784208Y-88273316D01*
X160767691Y-88295204D01*
X154892393Y-94170504D01*
X154837876Y-94198281D01*
X154822389Y-94199500D01*
X153476610Y-94199500D01*
X153418419Y-94180593D01*
X153382455Y-94131093D01*
X153382455Y-94069907D01*
X153406604Y-94030498D01*
X157407607Y-90029496D01*
X157462124Y-90001719D01*
X157477611Y-90000500D01*
X157495053Y-90000500D01*
X157495056Y-90000500D01*
X157660225Y-89959790D01*
X157810852Y-89880734D01*
X157938183Y-89767929D01*
X158034818Y-89627930D01*
X158095140Y-89468872D01*
X158115645Y-89300000D01*
X158115644Y-89299995D01*
X158102447Y-89191309D01*
X158095140Y-89131128D01*
X158034818Y-88972070D01*
X157938183Y-88832071D01*
X157924328Y-88819797D01*
X157810853Y-88719267D01*
X157810852Y-88719266D01*
X157660225Y-88640210D01*
X157660224Y-88640209D01*
X157660223Y-88640209D01*
X157495058Y-88599500D01*
X157495056Y-88599500D01*
X157324944Y-88599500D01*
X157324941Y-88599500D01*
X157159776Y-88640209D01*
X157009146Y-88719267D01*
X156881818Y-88832069D01*
X156881816Y-88832072D01*
X156833742Y-88901719D01*
X156785182Y-88972070D01*
X156724860Y-89131128D01*
X156720890Y-89163827D01*
X156704355Y-89299998D01*
X156704355Y-89300001D01*
X156715710Y-89393522D01*
X156703955Y-89453568D01*
X156687436Y-89475459D01*
X152892393Y-93270504D01*
X152837876Y-93298281D01*
X152822389Y-93299500D01*
X147218711Y-93299500D01*
X147160520Y-93280593D01*
X147124556Y-93231093D01*
X147124556Y-93169907D01*
X147160520Y-93120407D01*
X147169210Y-93114764D01*
X147171148Y-93113644D01*
X147176614Y-93110489D01*
X153408013Y-86879089D01*
X153462526Y-86851315D01*
X153522958Y-86860886D01*
X153566223Y-86904151D01*
X153576307Y-86937290D01*
X153580123Y-86969066D01*
X153635637Y-87109839D01*
X153635638Y-87109841D01*
X153635639Y-87109842D01*
X153727078Y-87230422D01*
X153847658Y-87321861D01*
X153847659Y-87321861D01*
X153847660Y-87321862D01*
X153876239Y-87333132D01*
X153988436Y-87377377D01*
X154076898Y-87388000D01*
X154076900Y-87388000D01*
X155663100Y-87388000D01*
X155663102Y-87388000D01*
X155751564Y-87377377D01*
X155892342Y-87321861D01*
X156012922Y-87230422D01*
X156061117Y-87166867D01*
X156111342Y-87131926D01*
X156172515Y-87133179D01*
X156218882Y-87166866D01*
X156267078Y-87230422D01*
X156387658Y-87321861D01*
X156387659Y-87321861D01*
X156387660Y-87321862D01*
X156416239Y-87333132D01*
X156528436Y-87377377D01*
X156616898Y-87388000D01*
X156616900Y-87388000D01*
X158203100Y-87388000D01*
X158203102Y-87388000D01*
X158291564Y-87377377D01*
X158432342Y-87321861D01*
X158552922Y-87230422D01*
X158590730Y-87180565D01*
X158601431Y-87166454D01*
X158651657Y-87131512D01*
X158712830Y-87132766D01*
X158759198Y-87166455D01*
X158807432Y-87230061D01*
X158807435Y-87230064D01*
X158927904Y-87321419D01*
X159068556Y-87376886D01*
X159156935Y-87387499D01*
X159156942Y-87387500D01*
X159749999Y-87387500D01*
X159750000Y-87387499D01*
X159750000Y-86549379D01*
X159757007Y-86553425D01*
X159884174Y-86587500D01*
X160015826Y-86587500D01*
X160142993Y-86553425D01*
X160150000Y-86549379D01*
X160150000Y-87387499D01*
X160150001Y-87387500D01*
X160743058Y-87387500D01*
X160743064Y-87387499D01*
X160831443Y-87376886D01*
X160972095Y-87321419D01*
X161092564Y-87230064D01*
X161183919Y-87109595D01*
X161239386Y-86968943D01*
X161249999Y-86880564D01*
X161250000Y-86880558D01*
X161250000Y-86287501D01*
X161249999Y-86287500D01*
X160411880Y-86287500D01*
X160415925Y-86280493D01*
X160450000Y-86153326D01*
X160450000Y-86021674D01*
X160415925Y-85894507D01*
X160411880Y-85887500D01*
X161249999Y-85887500D01*
X161250000Y-85887499D01*
X161250000Y-85294441D01*
X161249999Y-85294435D01*
X161239386Y-85206056D01*
X161183919Y-85065404D01*
X161092564Y-84944935D01*
X160972095Y-84853580D01*
X160831443Y-84798113D01*
X160743064Y-84787500D01*
X160150001Y-84787500D01*
X160150000Y-84787501D01*
X160150000Y-85625620D01*
X160142993Y-85621575D01*
X160015826Y-85587500D01*
X159884174Y-85587500D01*
X159757007Y-85621575D01*
X159750000Y-85625620D01*
X159750000Y-84787501D01*
X159749999Y-84787500D01*
X159156935Y-84787500D01*
X159068556Y-84798113D01*
X158927904Y-84853580D01*
X158807435Y-84944935D01*
X158807430Y-84944940D01*
X158759196Y-85008546D01*
X158708969Y-85043488D01*
X158647797Y-85042234D01*
X158601430Y-85008546D01*
X158552922Y-84944578D01*
X158432342Y-84853139D01*
X158432341Y-84853138D01*
X158432339Y-84853137D01*
X158291565Y-84797623D01*
X158203106Y-84787000D01*
X158203102Y-84787000D01*
X156616898Y-84787000D01*
X156616893Y-84787000D01*
X156528434Y-84797623D01*
X156387660Y-84853137D01*
X156387656Y-84853140D01*
X156267081Y-84944575D01*
X156267078Y-84944578D01*
X156218882Y-85008132D01*
X156168657Y-85043074D01*
X156107484Y-85041820D01*
X156061117Y-85008133D01*
X156012922Y-84944578D01*
X155892342Y-84853139D01*
X155892341Y-84853138D01*
X155892339Y-84853137D01*
X155751565Y-84797623D01*
X155663106Y-84787000D01*
X155663102Y-84787000D01*
X155419500Y-84787000D01*
X155361309Y-84768093D01*
X155325345Y-84718593D01*
X155320500Y-84688000D01*
X155320500Y-84299500D01*
X155339407Y-84241309D01*
X155388907Y-84205345D01*
X155419500Y-84200500D01*
X155663100Y-84200500D01*
X155663102Y-84200500D01*
X155751564Y-84189877D01*
X155892342Y-84134361D01*
X156012922Y-84042922D01*
X156061117Y-83979367D01*
X156111342Y-83944426D01*
X156172515Y-83945679D01*
X156218882Y-83979366D01*
X156267078Y-84042922D01*
X156387658Y-84134361D01*
X156387659Y-84134361D01*
X156387660Y-84134362D01*
X156395260Y-84137359D01*
X156528436Y-84189877D01*
X156616898Y-84200500D01*
X156616900Y-84200500D01*
X158203100Y-84200500D01*
X158203102Y-84200500D01*
X158291564Y-84189877D01*
X158432342Y-84134361D01*
X158552922Y-84042922D01*
X158601431Y-83978954D01*
X158651657Y-83944012D01*
X158712830Y-83945266D01*
X158759198Y-83978955D01*
X158807432Y-84042561D01*
X158807435Y-84042564D01*
X158927904Y-84133919D01*
X159068556Y-84189386D01*
X159156935Y-84199999D01*
X159156942Y-84200000D01*
X159749999Y-84200000D01*
X159750000Y-84199999D01*
X159750000Y-83361879D01*
X159757007Y-83365925D01*
X159884174Y-83400000D01*
X160015826Y-83400000D01*
X160142993Y-83365925D01*
X160150000Y-83361879D01*
X160150000Y-84199999D01*
X160150001Y-84200000D01*
X160743058Y-84200000D01*
X160743064Y-84199999D01*
X160831443Y-84189386D01*
X160972095Y-84133919D01*
X161092564Y-84042564D01*
X161183919Y-83922095D01*
X161239386Y-83781443D01*
X161249999Y-83693064D01*
X161250000Y-83693058D01*
X161250000Y-83100001D01*
X161249999Y-83100000D01*
X160411880Y-83100000D01*
X160415925Y-83092993D01*
X160450000Y-82965826D01*
X160450000Y-82834174D01*
X160415925Y-82707007D01*
X160411880Y-82700000D01*
X161249999Y-82700000D01*
X161250000Y-82699999D01*
X161250000Y-82106941D01*
X161249999Y-82106935D01*
X161239386Y-82018556D01*
X161183919Y-81877902D01*
X161169827Y-81859319D01*
X161149732Y-81801527D01*
X161167444Y-81742962D01*
X161216197Y-81705992D01*
X161248711Y-81700500D01*
X161713997Y-81700500D01*
X161772188Y-81719407D01*
G37*
%TD.AperFunction*%
%TA.AperFunction,Conductor*%
G36*
X113404075Y-86242993D02*
G01*
X113469901Y-86357007D01*
X113562993Y-86450099D01*
X113677007Y-86515925D01*
X113684822Y-86518019D01*
X113102937Y-87099903D01*
X113217515Y-87180133D01*
X113423676Y-87276266D01*
X113643402Y-87335142D01*
X113869997Y-87354966D01*
X113870003Y-87354966D01*
X114096597Y-87335142D01*
X114316323Y-87276266D01*
X114522483Y-87180133D01*
X114522486Y-87180131D01*
X114637060Y-87099904D01*
X114055175Y-86518019D01*
X114062993Y-86515925D01*
X114177007Y-86450099D01*
X114270099Y-86357007D01*
X114335925Y-86242993D01*
X114338019Y-86235175D01*
X114919904Y-86817060D01*
X115000131Y-86702486D01*
X115000133Y-86702483D01*
X115049999Y-86595545D01*
X115091727Y-86550797D01*
X115151788Y-86539122D01*
X115207241Y-86564979D01*
X115229448Y-86595545D01*
X115279426Y-86702724D01*
X115279434Y-86702737D01*
X115409946Y-86889130D01*
X115409947Y-86889132D01*
X115409950Y-86889135D01*
X115409953Y-86889139D01*
X115570861Y-87050047D01*
X115570864Y-87050049D01*
X115570867Y-87050052D01*
X115570869Y-87050053D01*
X115656258Y-87109842D01*
X115757266Y-87180568D01*
X115757272Y-87180571D01*
X115757276Y-87180573D01*
X115963500Y-87276737D01*
X115963504Y-87276739D01*
X116183308Y-87335635D01*
X116183312Y-87335635D01*
X116183315Y-87335636D01*
X116409997Y-87355468D01*
X116410000Y-87355468D01*
X116410002Y-87355468D01*
X116524567Y-87345444D01*
X116601589Y-87338706D01*
X116661207Y-87352469D01*
X116680222Y-87367325D01*
X118073386Y-88760489D01*
X118132354Y-88794534D01*
X118176114Y-88819799D01*
X118290691Y-88850500D01*
X131595500Y-88850500D01*
X131653691Y-88869407D01*
X131689655Y-88918907D01*
X131694500Y-88949500D01*
X131694500Y-89450004D01*
X131695802Y-89478183D01*
X131696725Y-89483839D01*
X131694041Y-89484276D01*
X131692182Y-89534550D01*
X131654414Y-89582688D01*
X131599222Y-89599500D01*
X112454500Y-89599500D01*
X112396309Y-89580593D01*
X112360345Y-89531093D01*
X112355500Y-89500500D01*
X112355500Y-89299995D01*
X112354197Y-89271816D01*
X112354197Y-89271812D01*
X112328600Y-89181849D01*
X112330860Y-89120706D01*
X112331714Y-89118971D01*
X112331557Y-89118910D01*
X112334871Y-89110356D01*
X112355500Y-89000000D01*
X112355500Y-88428106D01*
X112343125Y-88342044D01*
X112343124Y-88342040D01*
X112315594Y-88248281D01*
X112302618Y-88204087D01*
X112266496Y-88124991D01*
X112266490Y-88124981D01*
X112188769Y-88004044D01*
X112188760Y-88004032D01*
X112131830Y-87938331D01*
X112131813Y-87938313D01*
X112023163Y-87844168D01*
X112023150Y-87844159D01*
X111950019Y-87797161D01*
X111950013Y-87797158D01*
X111950010Y-87797156D01*
X111819225Y-87737428D01*
X111819223Y-87737427D01*
X111819220Y-87737426D01*
X111815913Y-87736193D01*
X111816491Y-87734640D01*
X111771078Y-87703561D01*
X111750539Y-87645926D01*
X111750500Y-87643138D01*
X111750500Y-87351930D01*
X111769407Y-87293739D01*
X111807657Y-87262208D01*
X111982734Y-87180568D01*
X112169139Y-87050047D01*
X112330047Y-86889139D01*
X112460568Y-86702734D01*
X112510552Y-86595542D01*
X112552278Y-86550797D01*
X112612339Y-86539122D01*
X112667792Y-86564979D01*
X112689999Y-86595545D01*
X112739861Y-86702474D01*
X112739866Y-86702484D01*
X112820094Y-86817060D01*
X113401979Y-86235174D01*
X113404075Y-86242993D01*
G37*
%TD.AperFunction*%
%TA.AperFunction,Conductor*%
G36*
X121055521Y-81719407D02*
G01*
X121091485Y-81768907D01*
X121091485Y-81830093D01*
X121076214Y-81859319D01*
X121062308Y-81877656D01*
X121062305Y-81877660D01*
X121006791Y-82018434D01*
X120996168Y-82106893D01*
X120996168Y-83693106D01*
X121006791Y-83781565D01*
X121062305Y-83922339D01*
X121062306Y-83922341D01*
X121062307Y-83922342D01*
X121153746Y-84042922D01*
X121274326Y-84134361D01*
X121274327Y-84134361D01*
X121274328Y-84134362D01*
X121281928Y-84137359D01*
X121415104Y-84189877D01*
X121503566Y-84200500D01*
X122660057Y-84200500D01*
X122718248Y-84219407D01*
X122754212Y-84268907D01*
X122754212Y-84330093D01*
X122730060Y-84369504D01*
X122217255Y-84882307D01*
X122162739Y-84910084D01*
X122105413Y-84902028D01*
X121967486Y-84837712D01*
X121936496Y-84823261D01*
X121716692Y-84764365D01*
X121716691Y-84764364D01*
X121716684Y-84764363D01*
X121490003Y-84744532D01*
X121489997Y-84744532D01*
X121263315Y-84764363D01*
X121043499Y-84823262D01*
X120837276Y-84919426D01*
X120837262Y-84919434D01*
X120650869Y-85049946D01*
X120650867Y-85049947D01*
X120489947Y-85210867D01*
X120489946Y-85210869D01*
X120359434Y-85397262D01*
X120359428Y-85397271D01*
X120309724Y-85503863D01*
X120267996Y-85548611D01*
X120207935Y-85560285D01*
X120152482Y-85534427D01*
X120130276Y-85503863D01*
X120080571Y-85397271D01*
X120080565Y-85397262D01*
X119950053Y-85210869D01*
X119950052Y-85210867D01*
X119950048Y-85210863D01*
X119950047Y-85210861D01*
X119789139Y-85049953D01*
X119789135Y-85049950D01*
X119789132Y-85049947D01*
X119789130Y-85049946D01*
X119602737Y-84919434D01*
X119602736Y-84919433D01*
X119602734Y-84919432D01*
X119602728Y-84919429D01*
X119602723Y-84919426D01*
X119396499Y-84823262D01*
X119396500Y-84823262D01*
X119378478Y-84818433D01*
X119176692Y-84764365D01*
X119146756Y-84761745D01*
X119075356Y-84755498D01*
X119019035Y-84731590D01*
X119013982Y-84726879D01*
X118656107Y-84369004D01*
X118628330Y-84314487D01*
X118637901Y-84254055D01*
X118681166Y-84210790D01*
X118726111Y-84200000D01*
X119033334Y-84200000D01*
X119033335Y-84199999D01*
X119033335Y-83361879D01*
X119040342Y-83365925D01*
X119167509Y-83400000D01*
X119299161Y-83400000D01*
X119426328Y-83365925D01*
X119433335Y-83361879D01*
X119433335Y-84199999D01*
X119433336Y-84200000D01*
X120026393Y-84200000D01*
X120026399Y-84199999D01*
X120114778Y-84189386D01*
X120255430Y-84133919D01*
X120375899Y-84042564D01*
X120467254Y-83922095D01*
X120522721Y-83781443D01*
X120533334Y-83693064D01*
X120533335Y-83693058D01*
X120533335Y-83100001D01*
X120533334Y-83100000D01*
X119695215Y-83100000D01*
X119699260Y-83092993D01*
X119733335Y-82965826D01*
X119733335Y-82834174D01*
X119699260Y-82707007D01*
X119695215Y-82700000D01*
X120533334Y-82700000D01*
X120533335Y-82699999D01*
X120533335Y-82106941D01*
X120533334Y-82106935D01*
X120522721Y-82018556D01*
X120467254Y-81877902D01*
X120453162Y-81859319D01*
X120433067Y-81801527D01*
X120450779Y-81742962D01*
X120499532Y-81705992D01*
X120532046Y-81700500D01*
X120997330Y-81700500D01*
X121055521Y-81719407D01*
G37*
%TD.AperFunction*%
%TA.AperFunction,Conductor*%
G36*
X127576668Y-84199999D02*
G01*
X127576669Y-84200000D01*
X127923888Y-84200000D01*
X127982079Y-84218907D01*
X128018043Y-84268407D01*
X128018043Y-84329593D01*
X127993892Y-84369004D01*
X127411299Y-84951596D01*
X127356782Y-84979373D01*
X127296350Y-84969802D01*
X127284512Y-84962689D01*
X127277857Y-84958029D01*
X127222734Y-84919432D01*
X127222731Y-84919431D01*
X127222729Y-84919429D01*
X127222723Y-84919426D01*
X127016499Y-84823262D01*
X127016500Y-84823262D01*
X126875312Y-84785431D01*
X126796692Y-84764365D01*
X126796691Y-84764364D01*
X126796684Y-84764363D01*
X126570003Y-84744532D01*
X126569997Y-84744532D01*
X126343315Y-84764363D01*
X126123499Y-84823262D01*
X125917276Y-84919426D01*
X125917262Y-84919434D01*
X125730869Y-85049946D01*
X125730867Y-85049947D01*
X125569947Y-85210867D01*
X125569946Y-85210869D01*
X125439434Y-85397262D01*
X125439428Y-85397271D01*
X125389724Y-85503863D01*
X125347996Y-85548611D01*
X125287935Y-85560285D01*
X125232482Y-85534427D01*
X125210276Y-85503863D01*
X125160571Y-85397271D01*
X125160565Y-85397262D01*
X125030053Y-85210869D01*
X125030052Y-85210867D01*
X125030048Y-85210863D01*
X125030047Y-85210861D01*
X124869139Y-85049953D01*
X124869135Y-85049950D01*
X124869132Y-85049947D01*
X124869130Y-85049946D01*
X124682737Y-84919434D01*
X124682736Y-84919433D01*
X124682734Y-84919432D01*
X124682728Y-84919429D01*
X124682723Y-84919426D01*
X124476499Y-84823262D01*
X124476500Y-84823262D01*
X124335312Y-84785431D01*
X124256692Y-84764365D01*
X124256691Y-84764364D01*
X124256684Y-84764363D01*
X124030003Y-84744532D01*
X124029997Y-84744532D01*
X123861781Y-84759248D01*
X123802164Y-84745484D01*
X123762023Y-84699307D01*
X123756690Y-84638354D01*
X123783150Y-84590621D01*
X124144277Y-84229496D01*
X124198793Y-84201719D01*
X124214280Y-84200500D01*
X125629768Y-84200500D01*
X125629770Y-84200500D01*
X125718232Y-84189877D01*
X125859010Y-84134361D01*
X125979590Y-84042922D01*
X126028099Y-83978954D01*
X126078325Y-83944012D01*
X126139498Y-83945266D01*
X126185866Y-83978955D01*
X126234100Y-84042561D01*
X126234103Y-84042564D01*
X126354572Y-84133919D01*
X126495224Y-84189386D01*
X126583603Y-84199999D01*
X126583610Y-84200000D01*
X127176667Y-84200000D01*
X127176668Y-84199999D01*
X127176668Y-83361879D01*
X127183675Y-83365925D01*
X127310842Y-83400000D01*
X127442494Y-83400000D01*
X127569661Y-83365925D01*
X127576668Y-83361879D01*
X127576668Y-84199999D01*
G37*
%TD.AperFunction*%
%TA.AperFunction,Conductor*%
G36*
X145485520Y-81719407D02*
G01*
X145521484Y-81768907D01*
X145521484Y-81830093D01*
X145506213Y-81859319D01*
X145492307Y-81877656D01*
X145492304Y-81877660D01*
X145436790Y-82018434D01*
X145426167Y-82106893D01*
X145426167Y-83693106D01*
X145436790Y-83781565D01*
X145492304Y-83922339D01*
X145492305Y-83922341D01*
X145492306Y-83922342D01*
X145583745Y-84042922D01*
X145704325Y-84134361D01*
X145704326Y-84134361D01*
X145704327Y-84134362D01*
X145711927Y-84137359D01*
X145845103Y-84189877D01*
X145933565Y-84200500D01*
X147090056Y-84200500D01*
X147148247Y-84219407D01*
X147184211Y-84268907D01*
X147184211Y-84330093D01*
X147160060Y-84369504D01*
X147109060Y-84420504D01*
X147054543Y-84448281D01*
X147039056Y-84449500D01*
X140449945Y-84449500D01*
X140391754Y-84430593D01*
X140355790Y-84381093D01*
X140355790Y-84319907D01*
X140379941Y-84280496D01*
X140430941Y-84229496D01*
X140485458Y-84201719D01*
X140500945Y-84200500D01*
X141916434Y-84200500D01*
X141916436Y-84200500D01*
X142004898Y-84189877D01*
X142145676Y-84134361D01*
X142266256Y-84042922D01*
X142314765Y-83978954D01*
X142364991Y-83944012D01*
X142426164Y-83945266D01*
X142472532Y-83978955D01*
X142520766Y-84042561D01*
X142520769Y-84042564D01*
X142641238Y-84133919D01*
X142781890Y-84189386D01*
X142870269Y-84199999D01*
X142870276Y-84200000D01*
X143463333Y-84200000D01*
X143463334Y-84199999D01*
X143463334Y-83361879D01*
X143470341Y-83365925D01*
X143597508Y-83400000D01*
X143729160Y-83400000D01*
X143856327Y-83365925D01*
X143863334Y-83361879D01*
X143863334Y-84199999D01*
X143863335Y-84200000D01*
X144456392Y-84200000D01*
X144456398Y-84199999D01*
X144544777Y-84189386D01*
X144685429Y-84133919D01*
X144805898Y-84042564D01*
X144897253Y-83922095D01*
X144952720Y-83781443D01*
X144963333Y-83693064D01*
X144963334Y-83693058D01*
X144963334Y-83100001D01*
X144963333Y-83100000D01*
X144125214Y-83100000D01*
X144129259Y-83092993D01*
X144163334Y-82965826D01*
X144163334Y-82834174D01*
X144129259Y-82707007D01*
X144125214Y-82700000D01*
X144963333Y-82700000D01*
X144963334Y-82699999D01*
X144963334Y-82106941D01*
X144963333Y-82106935D01*
X144952720Y-82018556D01*
X144897253Y-81877902D01*
X144883161Y-81859319D01*
X144863066Y-81801527D01*
X144880778Y-81742962D01*
X144929531Y-81705992D01*
X144962045Y-81700500D01*
X145427329Y-81700500D01*
X145485520Y-81719407D01*
G37*
%TD.AperFunction*%
%TA.AperFunction,Conductor*%
G36*
X129198854Y-81719407D02*
G01*
X129234818Y-81768907D01*
X129234818Y-81830093D01*
X129219547Y-81859319D01*
X129205641Y-81877656D01*
X129205638Y-81877660D01*
X129150124Y-82018434D01*
X129139501Y-82106893D01*
X129139501Y-83693106D01*
X129144976Y-83738696D01*
X129133141Y-83798726D01*
X129088282Y-83840335D01*
X129046682Y-83849500D01*
X128769482Y-83849500D01*
X128711291Y-83830593D01*
X128675327Y-83781093D01*
X128671188Y-83738696D01*
X128676667Y-83693065D01*
X128676668Y-83693058D01*
X128676668Y-83100001D01*
X128676667Y-83100000D01*
X127838548Y-83100000D01*
X127842593Y-83092993D01*
X127876668Y-82965826D01*
X127876668Y-82834174D01*
X127842593Y-82707007D01*
X127838548Y-82700000D01*
X128676667Y-82700000D01*
X128676668Y-82699999D01*
X128676668Y-82106941D01*
X128676667Y-82106935D01*
X128666054Y-82018556D01*
X128610587Y-81877902D01*
X128596495Y-81859319D01*
X128576400Y-81801527D01*
X128594112Y-81742962D01*
X128642865Y-81705992D01*
X128675379Y-81700500D01*
X129140663Y-81700500D01*
X129198854Y-81719407D01*
G37*
%TD.AperFunction*%
%TA.AperFunction,Conductor*%
G36*
X137342187Y-81719407D02*
G01*
X137378151Y-81768907D01*
X137378151Y-81830093D01*
X137362880Y-81859319D01*
X137348974Y-81877656D01*
X137348971Y-81877660D01*
X137293457Y-82018434D01*
X137282834Y-82106893D01*
X137282834Y-83693106D01*
X137288309Y-83738696D01*
X137276474Y-83798726D01*
X137231615Y-83840335D01*
X137190015Y-83849500D01*
X136912815Y-83849500D01*
X136854624Y-83830593D01*
X136818660Y-83781093D01*
X136814521Y-83738696D01*
X136820000Y-83693065D01*
X136820001Y-83693058D01*
X136820001Y-83100001D01*
X136820000Y-83100000D01*
X135981881Y-83100000D01*
X135985926Y-83092993D01*
X136020001Y-82965826D01*
X136020001Y-82834174D01*
X135985926Y-82707007D01*
X135981881Y-82700000D01*
X136820000Y-82700000D01*
X136820001Y-82699999D01*
X136820001Y-82106941D01*
X136820000Y-82106935D01*
X136809387Y-82018556D01*
X136753920Y-81877902D01*
X136739828Y-81859319D01*
X136719733Y-81801527D01*
X136737445Y-81742962D01*
X136786198Y-81705992D01*
X136818712Y-81700500D01*
X137283996Y-81700500D01*
X137342187Y-81719407D01*
G37*
%TD.AperFunction*%
%TA.AperFunction,Conductor*%
G36*
X153628853Y-81719407D02*
G01*
X153664817Y-81768907D01*
X153664817Y-81830093D01*
X153649546Y-81859319D01*
X153635640Y-81877656D01*
X153635637Y-81877660D01*
X153580123Y-82018434D01*
X153569500Y-82106893D01*
X153569500Y-83693111D01*
X153574265Y-83732791D01*
X153562430Y-83792821D01*
X153517570Y-83834429D01*
X153456821Y-83841723D01*
X153452279Y-83840716D01*
X153285058Y-83799500D01*
X153285056Y-83799500D01*
X153205399Y-83799500D01*
X153147208Y-83780593D01*
X153111244Y-83731093D01*
X153106759Y-83696019D01*
X153106667Y-83696019D01*
X153106667Y-83695301D01*
X153106576Y-83694590D01*
X153106667Y-83693068D01*
X153106667Y-83100001D01*
X153106666Y-83100000D01*
X152268547Y-83100000D01*
X152272592Y-83092993D01*
X152306667Y-82965826D01*
X152306667Y-82834174D01*
X152272592Y-82707007D01*
X152268547Y-82700000D01*
X153106666Y-82700000D01*
X153106667Y-82699999D01*
X153106667Y-82106941D01*
X153106666Y-82106935D01*
X153096053Y-82018556D01*
X153040586Y-81877902D01*
X153026494Y-81859319D01*
X153006399Y-81801527D01*
X153024111Y-81742962D01*
X153072864Y-81705992D01*
X153105378Y-81700500D01*
X153570662Y-81700500D01*
X153628853Y-81719407D01*
G37*
%TD.AperFunction*%
%TD*%
%TA.AperFunction,Conductor*%
%TO.N,/OUT_A2*%
G36*
X186980079Y-91405044D02*
G01*
X186995162Y-91405500D01*
X189254838Y-91405500D01*
X189269920Y-91405045D01*
X189272905Y-91405000D01*
X189427095Y-91405000D01*
X189430079Y-91405044D01*
X189445162Y-91405500D01*
X191604838Y-91405500D01*
X191619920Y-91405045D01*
X191622905Y-91405000D01*
X191777095Y-91405000D01*
X191780079Y-91405044D01*
X191795162Y-91405500D01*
X192030500Y-91405500D01*
X192088691Y-91424407D01*
X192124655Y-91473907D01*
X192129500Y-91504500D01*
X192129500Y-94751000D01*
X192110593Y-94809191D01*
X192061093Y-94845155D01*
X192030500Y-94850000D01*
X189629417Y-94850000D01*
X189603796Y-94846627D01*
X189576686Y-94839363D01*
X189576688Y-94839363D01*
X189350003Y-94819532D01*
X189349997Y-94819532D01*
X189123312Y-94839363D01*
X189096204Y-94846627D01*
X189070583Y-94850000D01*
X187050000Y-94850000D01*
X185096305Y-94850000D01*
X185065713Y-94845155D01*
X185054531Y-94841522D01*
X184852355Y-94809500D01*
X184852352Y-94809500D01*
X184447648Y-94809500D01*
X184447645Y-94809500D01*
X184245468Y-94841522D01*
X184234287Y-94845155D01*
X184203695Y-94850000D01*
X183649000Y-94850000D01*
X183590809Y-94831093D01*
X183554845Y-94781593D01*
X183550000Y-94751000D01*
X183550000Y-92399000D01*
X183568907Y-92340809D01*
X183618407Y-92304845D01*
X183649000Y-92300000D01*
X184247291Y-92300000D01*
X184262778Y-92301219D01*
X184447645Y-92330500D01*
X184447648Y-92330500D01*
X184852355Y-92330500D01*
X185037222Y-92301219D01*
X185052709Y-92300000D01*
X186324999Y-92300000D01*
X186325000Y-92300000D01*
X186325000Y-91504500D01*
X186343907Y-91446309D01*
X186393407Y-91410345D01*
X186424000Y-91405500D01*
X186804838Y-91405500D01*
X186819920Y-91405045D01*
X186822905Y-91405000D01*
X186977095Y-91405000D01*
X186980079Y-91405044D01*
G37*
%TD.AperFunction*%
%TD*%
%TA.AperFunction,Conductor*%
%TO.N,/OUT_B1*%
G36*
X184445164Y-87250305D02*
G01*
X184447643Y-87250500D01*
X184447648Y-87250500D01*
X184852357Y-87250500D01*
X184854836Y-87250305D01*
X184862599Y-87250000D01*
X186606720Y-87250000D01*
X186643629Y-87259098D01*
X186644173Y-87257666D01*
X186649773Y-87259789D01*
X186649775Y-87259790D01*
X186814944Y-87300500D01*
X186814947Y-87300500D01*
X186985053Y-87300500D01*
X186985056Y-87300500D01*
X187150225Y-87259790D01*
X187150229Y-87259787D01*
X187155827Y-87257666D01*
X187156370Y-87259098D01*
X187193280Y-87250000D01*
X191406720Y-87250000D01*
X191443629Y-87259098D01*
X191444173Y-87257666D01*
X191449773Y-87259789D01*
X191449775Y-87259790D01*
X191614944Y-87300500D01*
X191614947Y-87300500D01*
X191785053Y-87300500D01*
X191785056Y-87300500D01*
X191950225Y-87259790D01*
X191950229Y-87259787D01*
X191955827Y-87257666D01*
X191956370Y-87259098D01*
X191993280Y-87250000D01*
X192030500Y-87250000D01*
X192088691Y-87268907D01*
X192124655Y-87318407D01*
X192129500Y-87349000D01*
X192129500Y-91001000D01*
X192110593Y-91059191D01*
X192061093Y-91095155D01*
X192030500Y-91100000D01*
X191795162Y-91100000D01*
X191786889Y-91099500D01*
X191785056Y-91099500D01*
X191614944Y-91099500D01*
X191613111Y-91099500D01*
X191604838Y-91100000D01*
X189445162Y-91100000D01*
X189436889Y-91099500D01*
X189435056Y-91099500D01*
X189264944Y-91099500D01*
X189263111Y-91099500D01*
X189254838Y-91100000D01*
X186995162Y-91100000D01*
X186986889Y-91099500D01*
X186985056Y-91099500D01*
X186814944Y-91099500D01*
X186813111Y-91099500D01*
X186804838Y-91100000D01*
X186399000Y-91100000D01*
X186340809Y-91081093D01*
X186304845Y-91031593D01*
X186300000Y-91001000D01*
X186300000Y-89800001D01*
X186300000Y-89800000D01*
X186299999Y-89800000D01*
X185188636Y-89800000D01*
X185158044Y-89795155D01*
X185054531Y-89761522D01*
X184852355Y-89729500D01*
X184852352Y-89729500D01*
X184447648Y-89729500D01*
X184447645Y-89729500D01*
X184245468Y-89761522D01*
X184141956Y-89795155D01*
X184111364Y-89800000D01*
X183199000Y-89800000D01*
X183140809Y-89781093D01*
X183104845Y-89731593D01*
X183100000Y-89701000D01*
X183100000Y-87349000D01*
X183118907Y-87290809D01*
X183168407Y-87254845D01*
X183199000Y-87250000D01*
X184437401Y-87250000D01*
X184445164Y-87250305D01*
G37*
%TD.AperFunction*%
%TD*%
%TA.AperFunction,Conductor*%
%TO.N,/OUT_A1*%
G36*
X184836006Y-95116219D02*
G01*
X184991286Y-95140813D01*
X184998909Y-95142329D01*
X184999013Y-95142354D01*
X185017925Y-95146894D01*
X185048517Y-95151739D01*
X185096305Y-95155500D01*
X186620350Y-95155500D01*
X186644042Y-95158377D01*
X186649775Y-95159790D01*
X186814944Y-95200500D01*
X186814947Y-95200500D01*
X186985053Y-95200500D01*
X186985056Y-95200500D01*
X187150225Y-95159790D01*
X187150224Y-95159790D01*
X187155958Y-95158377D01*
X187179650Y-95155500D01*
X189070581Y-95155500D01*
X189070583Y-95155500D01*
X189110458Y-95152887D01*
X189110463Y-95152886D01*
X189110468Y-95152886D01*
X189136066Y-95149516D01*
X189136079Y-95149514D01*
X189172073Y-95142353D01*
X189182744Y-95140830D01*
X189341381Y-95126952D01*
X189358619Y-95126952D01*
X189517242Y-95140829D01*
X189527925Y-95142354D01*
X189531022Y-95142970D01*
X189563921Y-95149514D01*
X189589534Y-95152886D01*
X189589539Y-95152886D01*
X189589542Y-95152887D01*
X189629417Y-95155500D01*
X189629419Y-95155500D01*
X192030500Y-95155500D01*
X192088691Y-95174407D01*
X192124655Y-95223907D01*
X192129500Y-95254500D01*
X192129500Y-99550206D01*
X192110593Y-99608397D01*
X192061093Y-99644361D01*
X191999907Y-99644361D01*
X191950407Y-99608397D01*
X191948185Y-99605208D01*
X191849522Y-99457549D01*
X191849512Y-99457536D01*
X191659335Y-99240682D01*
X191659334Y-99240681D01*
X191659327Y-99240673D01*
X191659317Y-99240664D01*
X191442463Y-99050487D01*
X191442450Y-99050477D01*
X191202611Y-98890222D01*
X190943911Y-98762645D01*
X190943900Y-98762640D01*
X190670759Y-98669920D01*
X190387836Y-98613643D01*
X190100000Y-98594778D01*
X189812163Y-98613643D01*
X189529240Y-98669920D01*
X189256099Y-98762640D01*
X189256088Y-98762645D01*
X188997388Y-98890222D01*
X188757549Y-99050477D01*
X188757536Y-99050487D01*
X188540682Y-99240664D01*
X188540664Y-99240682D01*
X188350487Y-99457536D01*
X188350477Y-99457549D01*
X188190222Y-99697388D01*
X188062645Y-99956088D01*
X188062640Y-99956099D01*
X187969920Y-100229240D01*
X187913643Y-100512163D01*
X187894778Y-100799999D01*
X187894778Y-100800000D01*
X187913643Y-101087836D01*
X187969920Y-101370759D01*
X188062640Y-101643900D01*
X188062645Y-101643911D01*
X188190222Y-101902611D01*
X188350477Y-102142450D01*
X188350487Y-102142463D01*
X188499441Y-102312311D01*
X188540673Y-102359327D01*
X188540681Y-102359334D01*
X188540682Y-102359335D01*
X188757536Y-102549512D01*
X188757540Y-102549515D01*
X188757546Y-102549520D01*
X188817983Y-102589903D01*
X188861058Y-102618685D01*
X188898937Y-102666735D01*
X188901339Y-102727873D01*
X188867346Y-102778747D01*
X188809942Y-102799924D01*
X188806056Y-102800000D01*
X186599000Y-102800000D01*
X186540809Y-102781093D01*
X186504845Y-102731593D01*
X186500000Y-102701000D01*
X186500000Y-98000001D01*
X186500000Y-98000000D01*
X185900000Y-97400000D01*
X185899999Y-97400000D01*
X185127082Y-97400000D01*
X185096489Y-97395155D01*
X185054531Y-97381522D01*
X184852355Y-97349500D01*
X184852352Y-97349500D01*
X184447648Y-97349500D01*
X184447645Y-97349500D01*
X184245468Y-97381522D01*
X184203511Y-97395155D01*
X184172918Y-97400000D01*
X183649000Y-97400000D01*
X183590809Y-97381093D01*
X183554845Y-97331593D01*
X183550000Y-97301000D01*
X183550000Y-95254500D01*
X183568907Y-95196309D01*
X183618407Y-95160345D01*
X183649000Y-95155500D01*
X184203688Y-95155500D01*
X184203695Y-95155500D01*
X184251483Y-95151739D01*
X184251502Y-95151736D01*
X184282063Y-95146896D01*
X184282063Y-95146895D01*
X184282075Y-95146894D01*
X184301099Y-95142326D01*
X184308682Y-95140817D01*
X184429760Y-95121641D01*
X184463995Y-95116219D01*
X184479481Y-95115000D01*
X184820519Y-95115000D01*
X184836006Y-95116219D01*
G37*
%TD.AperFunction*%
%TD*%
M02*
