%TF.GenerationSoftware,KiCad,Pcbnew,8.0.4*%
%TF.CreationDate,2024-09-16T16:39:03-03:00*%
%TF.ProjectId,Mini-C3,4d696e69-2d43-4332-9e6b-696361645f70,rev?*%
%TF.SameCoordinates,Original*%
%TF.FileFunction,Legend,Top*%
%TF.FilePolarity,Positive*%
%FSLAX46Y46*%
G04 Gerber Fmt 4.6, Leading zero omitted, Abs format (unit mm)*
G04 Created by KiCad (PCBNEW 8.0.4) date 2024-09-16 16:39:03*
%MOMM*%
%LPD*%
G01*
G04 APERTURE LIST*
%ADD10C,0.200000*%
%ADD11C,0.100000*%
%ADD12C,0.150000*%
%ADD13C,0.120000*%
%ADD14C,0.127000*%
G04 APERTURE END LIST*
D10*
G36*
X158418462Y-88110757D02*
G01*
X158451748Y-88141270D01*
X158488720Y-88209052D01*
X158488720Y-88419956D01*
X158451748Y-88487738D01*
X158418463Y-88518249D01*
X158338324Y-88554980D01*
X158153402Y-88554980D01*
X158073262Y-88518249D01*
X158039976Y-88487738D01*
X158003006Y-88419957D01*
X158003006Y-88209051D01*
X158039976Y-88141270D01*
X158073264Y-88110757D01*
X158153401Y-88074028D01*
X158338324Y-88074028D01*
X158418462Y-88110757D01*
G37*
G36*
X157275606Y-87691710D02*
G01*
X157308891Y-87722222D01*
X157345863Y-87790004D01*
X157345863Y-87896146D01*
X157308891Y-87963928D01*
X157275606Y-87994440D01*
X157195467Y-88031171D01*
X156860149Y-88031171D01*
X156860149Y-87654980D01*
X157195467Y-87654980D01*
X157275606Y-87691710D01*
G37*
G36*
X160925228Y-88877202D02*
G01*
X154424800Y-88877202D01*
X154424800Y-87570163D01*
X154547022Y-87570163D01*
X154551884Y-87589154D01*
X154951884Y-88689154D01*
X154960356Y-88706832D01*
X154963357Y-88710109D01*
X154965236Y-88714135D01*
X154976443Y-88724399D01*
X154986708Y-88735607D01*
X154990733Y-88737485D01*
X154994011Y-88740487D01*
X155008299Y-88745682D01*
X155022066Y-88752107D01*
X155026502Y-88752302D01*
X155030680Y-88753821D01*
X155045863Y-88753153D01*
X155061046Y-88753821D01*
X155065223Y-88752302D01*
X155069660Y-88752107D01*
X155083426Y-88745682D01*
X155097715Y-88740487D01*
X155100992Y-88737485D01*
X155105018Y-88735607D01*
X155115282Y-88724399D01*
X155126490Y-88714135D01*
X155128368Y-88710109D01*
X155131370Y-88706832D01*
X155139842Y-88689154D01*
X155539842Y-87589154D01*
X155544704Y-87570163D01*
X155544036Y-87554980D01*
X156660149Y-87554980D01*
X156660149Y-88654980D01*
X156662070Y-88674489D01*
X156677002Y-88710537D01*
X156704592Y-88738127D01*
X156740640Y-88753059D01*
X156779658Y-88753059D01*
X156815706Y-88738127D01*
X156843296Y-88710537D01*
X156858228Y-88674489D01*
X156860149Y-88654980D01*
X156860149Y-88231171D01*
X157217292Y-88231171D01*
X157236801Y-88229250D01*
X157238539Y-88228529D01*
X157240422Y-88228460D01*
X157258958Y-88222077D01*
X157373242Y-88169696D01*
X157381005Y-88165169D01*
X157383470Y-88164272D01*
X157386691Y-88161854D01*
X157390177Y-88159822D01*
X157391963Y-88157897D01*
X157399149Y-88152505D01*
X157456292Y-88100125D01*
X157463444Y-88092143D01*
X157465481Y-88090501D01*
X157467261Y-88087883D01*
X157469375Y-88085526D01*
X157470480Y-88083154D01*
X157476510Y-88074294D01*
X157502629Y-88026409D01*
X157803006Y-88026409D01*
X157803006Y-88445457D01*
X157804927Y-88464966D01*
X157806987Y-88469941D01*
X157807561Y-88475296D01*
X157815216Y-88493342D01*
X157872359Y-88598104D01*
X157878388Y-88606964D01*
X157879494Y-88609336D01*
X157881606Y-88611693D01*
X157883388Y-88614311D01*
X157885425Y-88615954D01*
X157892577Y-88623934D01*
X157949719Y-88676315D01*
X157956906Y-88681708D01*
X157958692Y-88683632D01*
X157962177Y-88685664D01*
X157965399Y-88688082D01*
X157967861Y-88688978D01*
X157975627Y-88693507D01*
X158089912Y-88745887D01*
X158108447Y-88752269D01*
X158110329Y-88752338D01*
X158112068Y-88753059D01*
X158131577Y-88754980D01*
X158360149Y-88754980D01*
X158379658Y-88753059D01*
X158381396Y-88752338D01*
X158383278Y-88752269D01*
X158401814Y-88745887D01*
X158516100Y-88693507D01*
X158523864Y-88688979D01*
X158526329Y-88688082D01*
X158529553Y-88685662D01*
X158533035Y-88683632D01*
X158534819Y-88681709D01*
X158542008Y-88676315D01*
X158599150Y-88623934D01*
X158606302Y-88615953D01*
X158608338Y-88614311D01*
X158610118Y-88611694D01*
X158612233Y-88609335D01*
X158613338Y-88606962D01*
X158619367Y-88598104D01*
X158676509Y-88493342D01*
X158684165Y-88475296D01*
X158684738Y-88469941D01*
X158686799Y-88464966D01*
X158688720Y-88445457D01*
X158688720Y-88183552D01*
X158686799Y-88164043D01*
X158684738Y-88159067D01*
X158684165Y-88153713D01*
X158676509Y-88135667D01*
X158619367Y-88030905D01*
X158616307Y-88026409D01*
X159860149Y-88026409D01*
X159860149Y-88183552D01*
X159860643Y-88188569D01*
X159860393Y-88190537D01*
X159861450Y-88196766D01*
X159862070Y-88203061D01*
X159862829Y-88204895D01*
X159863673Y-88209864D01*
X159920815Y-88419387D01*
X159921724Y-88421771D01*
X159921847Y-88422915D01*
X159924962Y-88430260D01*
X159927802Y-88437703D01*
X159928505Y-88438610D01*
X159929502Y-88440961D01*
X159986645Y-88545723D01*
X159992673Y-88554581D01*
X159993779Y-88556954D01*
X159995893Y-88559313D01*
X159997674Y-88561930D01*
X159999709Y-88563572D01*
X160006862Y-88571553D01*
X160121147Y-88676315D01*
X160136826Y-88688082D01*
X160139341Y-88688997D01*
X160141403Y-88690697D01*
X160159499Y-88698235D01*
X160330928Y-88750615D01*
X160338334Y-88752104D01*
X160340640Y-88753059D01*
X160345430Y-88753530D01*
X160350147Y-88754479D01*
X160352629Y-88754239D01*
X160360149Y-88754980D01*
X160474435Y-88754980D01*
X160481955Y-88754239D01*
X160484438Y-88754479D01*
X160489155Y-88753530D01*
X160493944Y-88753059D01*
X160496248Y-88752104D01*
X160503656Y-88750615D01*
X160675085Y-88698235D01*
X160693181Y-88690697D01*
X160695244Y-88688996D01*
X160697756Y-88688082D01*
X160713435Y-88676315D01*
X160770578Y-88623935D01*
X160783661Y-88609336D01*
X160784593Y-88607335D01*
X160786153Y-88605776D01*
X160792806Y-88589712D01*
X160800144Y-88573970D01*
X160800239Y-88571768D01*
X160801085Y-88569728D01*
X160803006Y-88550219D01*
X160803006Y-88183552D01*
X160801085Y-88164043D01*
X160786153Y-88127995D01*
X160758563Y-88100405D01*
X160722515Y-88085473D01*
X160703006Y-88083552D01*
X160474435Y-88083552D01*
X160454926Y-88085473D01*
X160418878Y-88100405D01*
X160391288Y-88127995D01*
X160376356Y-88164043D01*
X160376356Y-88203061D01*
X160391288Y-88239109D01*
X160418878Y-88266699D01*
X160454926Y-88281631D01*
X160474435Y-88283552D01*
X160603006Y-88283552D01*
X160603006Y-88506229D01*
X160594984Y-88513582D01*
X160459500Y-88554980D01*
X160375084Y-88554980D01*
X160239599Y-88513582D01*
X160154262Y-88435356D01*
X160110686Y-88355466D01*
X160060149Y-88170161D01*
X160060149Y-88039799D01*
X160110686Y-87854494D01*
X160154262Y-87774604D01*
X160239599Y-87696378D01*
X160375086Y-87654980D01*
X160509753Y-87654980D01*
X160604197Y-87698267D01*
X160622732Y-87704650D01*
X160661724Y-87706095D01*
X160698300Y-87692510D01*
X160726894Y-87665961D01*
X160743151Y-87630491D01*
X160744597Y-87591500D01*
X160731011Y-87554923D01*
X160704463Y-87526329D01*
X160687528Y-87516455D01*
X160573244Y-87464074D01*
X160554708Y-87457691D01*
X160552825Y-87457621D01*
X160551087Y-87456901D01*
X160531578Y-87454980D01*
X160360149Y-87454980D01*
X160352628Y-87455720D01*
X160350146Y-87455481D01*
X160345428Y-87456429D01*
X160340640Y-87456901D01*
X160338335Y-87457855D01*
X160330927Y-87459345D01*
X160159498Y-87511726D01*
X160141402Y-87519264D01*
X160139339Y-87520963D01*
X160136826Y-87521879D01*
X160121147Y-87533646D01*
X160006862Y-87638408D01*
X159999709Y-87646388D01*
X159997674Y-87648031D01*
X159995893Y-87650647D01*
X159993779Y-87653007D01*
X159992673Y-87655379D01*
X159986645Y-87664238D01*
X159929502Y-87769000D01*
X159928505Y-87771350D01*
X159927802Y-87772258D01*
X159924962Y-87779700D01*
X159921847Y-87787046D01*
X159921724Y-87788189D01*
X159920815Y-87790574D01*
X159863673Y-88000097D01*
X159862829Y-88005065D01*
X159862070Y-88006900D01*
X159861450Y-88013194D01*
X159860393Y-88019424D01*
X159860643Y-88021391D01*
X159860149Y-88026409D01*
X158616307Y-88026409D01*
X158613338Y-88022046D01*
X158612233Y-88019674D01*
X158610118Y-88017314D01*
X158608338Y-88014698D01*
X158606302Y-88013055D01*
X158599150Y-88005075D01*
X158542008Y-87952694D01*
X158534819Y-87947299D01*
X158533035Y-87945377D01*
X158529553Y-87943346D01*
X158526329Y-87940927D01*
X158523864Y-87940029D01*
X158516100Y-87935502D01*
X158401814Y-87883121D01*
X158383279Y-87876739D01*
X158381396Y-87876669D01*
X158379658Y-87875949D01*
X158360149Y-87874028D01*
X158131577Y-87874028D01*
X158112068Y-87875949D01*
X158110329Y-87876669D01*
X158108446Y-87876739D01*
X158089911Y-87883122D01*
X158039425Y-87906261D01*
X158051802Y-87860880D01*
X158149406Y-87726674D01*
X158187548Y-87691710D01*
X158267689Y-87654980D01*
X158474435Y-87654980D01*
X158493944Y-87653059D01*
X158529992Y-87638127D01*
X158557582Y-87610537D01*
X158572514Y-87574489D01*
X158572514Y-87535471D01*
X158557582Y-87499423D01*
X158529992Y-87471833D01*
X158493944Y-87456901D01*
X158474435Y-87454980D01*
X158245863Y-87454980D01*
X158226354Y-87456901D01*
X158224615Y-87457621D01*
X158222733Y-87457691D01*
X158204197Y-87464074D01*
X158089912Y-87516454D01*
X158082147Y-87520981D01*
X158079683Y-87521879D01*
X158076458Y-87524298D01*
X158072977Y-87526329D01*
X158071192Y-87528251D01*
X158064004Y-87533646D01*
X158006862Y-87586027D01*
X158006696Y-87586211D01*
X158006590Y-87586277D01*
X158000207Y-87593452D01*
X157993779Y-87600626D01*
X157993726Y-87600739D01*
X157993561Y-87600925D01*
X157879275Y-87758068D01*
X157871853Y-87770716D01*
X157870659Y-87772258D01*
X157870121Y-87773667D01*
X157869354Y-87774975D01*
X157868895Y-87776880D01*
X157863672Y-87790574D01*
X157806530Y-88000097D01*
X157805686Y-88005065D01*
X157804927Y-88006900D01*
X157804307Y-88013194D01*
X157803250Y-88019424D01*
X157803500Y-88021391D01*
X157803006Y-88026409D01*
X157502629Y-88026409D01*
X157533652Y-87969532D01*
X157541308Y-87951486D01*
X157541881Y-87946131D01*
X157543942Y-87941156D01*
X157545863Y-87921647D01*
X157545863Y-87764504D01*
X157543942Y-87744995D01*
X157541881Y-87740019D01*
X157541308Y-87734665D01*
X157533652Y-87716619D01*
X157476510Y-87611857D01*
X157470480Y-87602996D01*
X157469375Y-87600625D01*
X157467261Y-87598267D01*
X157465481Y-87595650D01*
X157463444Y-87594007D01*
X157456292Y-87586026D01*
X157399149Y-87533646D01*
X157391963Y-87528253D01*
X157390177Y-87526329D01*
X157386691Y-87524296D01*
X157383470Y-87521879D01*
X157381005Y-87520981D01*
X157373242Y-87516455D01*
X157258958Y-87464074D01*
X157240422Y-87457691D01*
X157238539Y-87457621D01*
X157236801Y-87456901D01*
X157217292Y-87454980D01*
X156760149Y-87454980D01*
X156740640Y-87456901D01*
X156704592Y-87471833D01*
X156677002Y-87499423D01*
X156662070Y-87535471D01*
X156660149Y-87554980D01*
X155544036Y-87554980D01*
X155542990Y-87531183D01*
X155526490Y-87495825D01*
X155497715Y-87469473D01*
X155461046Y-87456139D01*
X155422066Y-87457853D01*
X155386708Y-87474353D01*
X155360356Y-87503128D01*
X155351884Y-87520806D01*
X155045863Y-88362363D01*
X154739842Y-87520806D01*
X154731370Y-87503128D01*
X154705018Y-87474353D01*
X154669660Y-87457853D01*
X154630680Y-87456139D01*
X154594011Y-87469473D01*
X154565236Y-87495825D01*
X154548736Y-87531183D01*
X154547022Y-87570163D01*
X154424800Y-87570163D01*
X154424800Y-87332758D01*
X160925228Y-87332758D01*
X160925228Y-88877202D01*
G37*
G36*
X158134700Y-98558716D02*
G01*
X158163676Y-98587691D01*
X158203006Y-98666348D01*
X158203006Y-98790563D01*
X158163677Y-98869221D01*
X158129483Y-98903414D01*
X158050828Y-98942742D01*
X157717292Y-98942742D01*
X157717292Y-98514171D01*
X158001065Y-98514171D01*
X158134700Y-98558716D01*
G37*
G36*
X158072342Y-97982070D02*
G01*
X158106533Y-98016262D01*
X158145863Y-98094921D01*
X158145863Y-98161993D01*
X158106533Y-98240651D01*
X158072342Y-98274842D01*
X157993685Y-98314171D01*
X157717292Y-98314171D01*
X157717292Y-97942742D01*
X157993685Y-97942742D01*
X158072342Y-97982070D01*
G37*
G36*
X159231578Y-98923796D02*
G01*
X159193685Y-98942742D01*
X158955185Y-98942742D01*
X158891827Y-98911063D01*
X158860149Y-98847707D01*
X158860149Y-98780635D01*
X158891827Y-98717278D01*
X158955185Y-98685600D01*
X159217292Y-98685600D01*
X159231578Y-98684193D01*
X159231578Y-98923796D01*
G37*
G36*
X161657041Y-98374420D02*
G01*
X161688720Y-98437778D01*
X161688720Y-98446476D01*
X161317291Y-98520761D01*
X161317291Y-98437778D01*
X161348969Y-98374420D01*
X161412328Y-98342742D01*
X161593684Y-98342742D01*
X161657041Y-98374420D01*
G37*
G36*
X163735265Y-99675290D02*
G01*
X157383959Y-99675290D01*
X157383959Y-99430234D01*
X162832361Y-99430234D01*
X162835127Y-99469154D01*
X162852576Y-99504053D01*
X162882052Y-99529618D01*
X162919068Y-99541957D01*
X162957988Y-99539191D01*
X162976297Y-99532185D01*
X163090583Y-99475043D01*
X163098979Y-99469757D01*
X163101419Y-99468747D01*
X163104165Y-99466493D01*
X163107173Y-99464600D01*
X163108903Y-99462605D01*
X163116573Y-99456311D01*
X163173715Y-99399168D01*
X163186152Y-99384015D01*
X163186389Y-99383440D01*
X163186824Y-99382996D01*
X163195853Y-99365596D01*
X163310138Y-99079881D01*
X163310662Y-99078073D01*
X163311464Y-99076376D01*
X163597179Y-98276376D01*
X163601932Y-98257357D01*
X163599994Y-98218387D01*
X163583291Y-98183125D01*
X163554365Y-98156938D01*
X163517620Y-98143815D01*
X163478650Y-98145753D01*
X163443388Y-98162456D01*
X163417202Y-98191382D01*
X163408831Y-98209108D01*
X163217290Y-98745421D01*
X163025750Y-98209108D01*
X163017380Y-98191382D01*
X162991193Y-98162456D01*
X162955931Y-98145753D01*
X162916961Y-98143815D01*
X162880216Y-98156938D01*
X162851290Y-98183125D01*
X162834587Y-98218387D01*
X162832649Y-98257357D01*
X162837402Y-98276376D01*
X163110388Y-99040737D01*
X163017779Y-99272261D01*
X162986625Y-99303414D01*
X162886855Y-99353299D01*
X162870265Y-99363742D01*
X162844700Y-99393218D01*
X162832361Y-99430234D01*
X157383959Y-99430234D01*
X157383959Y-97842742D01*
X157517292Y-97842742D01*
X157517292Y-99042742D01*
X157519213Y-99062251D01*
X157534145Y-99098299D01*
X157561735Y-99125889D01*
X157597783Y-99140821D01*
X157617292Y-99142742D01*
X158074435Y-99142742D01*
X158093944Y-99140821D01*
X158097264Y-99139445D01*
X158100848Y-99139191D01*
X158119156Y-99132185D01*
X158233441Y-99075043D01*
X158241837Y-99069757D01*
X158244277Y-99068747D01*
X158247023Y-99066493D01*
X158250031Y-99064600D01*
X158251761Y-99062605D01*
X158259431Y-99056311D01*
X158316573Y-98999168D01*
X158322865Y-98991501D01*
X158324863Y-98989769D01*
X158326756Y-98986760D01*
X158329010Y-98984015D01*
X158330020Y-98981574D01*
X158335306Y-98973178D01*
X158392449Y-98858892D01*
X158399455Y-98840584D01*
X158399709Y-98837000D01*
X158401085Y-98833680D01*
X158403006Y-98814171D01*
X158403006Y-98757028D01*
X158660149Y-98757028D01*
X158660149Y-98871314D01*
X158662070Y-98890823D01*
X158663445Y-98894143D01*
X158663700Y-98897727D01*
X158670706Y-98916035D01*
X158727849Y-99030322D01*
X158729902Y-99033585D01*
X158730416Y-99035124D01*
X158732077Y-99037040D01*
X158738292Y-99046912D01*
X158747766Y-99055128D01*
X158755981Y-99064600D01*
X158765852Y-99070813D01*
X158767769Y-99072476D01*
X158769307Y-99072989D01*
X158772571Y-99075043D01*
X158886857Y-99132185D01*
X158905166Y-99139191D01*
X158908748Y-99139445D01*
X158912069Y-99140821D01*
X158931578Y-99142742D01*
X159217292Y-99142742D01*
X159236801Y-99140821D01*
X159240121Y-99139445D01*
X159243704Y-99139191D01*
X159262013Y-99132185D01*
X159275549Y-99125417D01*
X159276021Y-99125889D01*
X159312069Y-99140821D01*
X159351087Y-99140821D01*
X159387135Y-99125889D01*
X159414725Y-99098299D01*
X159429657Y-99062251D01*
X159431578Y-99042742D01*
X159431578Y-98414171D01*
X159429657Y-98394662D01*
X159428281Y-98391341D01*
X159428027Y-98387758D01*
X159421021Y-98369450D01*
X159363878Y-98255164D01*
X159361823Y-98251900D01*
X159361311Y-98250362D01*
X159359649Y-98248446D01*
X159353435Y-98238573D01*
X159343962Y-98230357D01*
X159337783Y-98223233D01*
X159633498Y-98223233D01*
X159633498Y-98262251D01*
X159648430Y-98298299D01*
X159676020Y-98325889D01*
X159712068Y-98340821D01*
X159731577Y-98342742D01*
X159803006Y-98342742D01*
X159803006Y-98871314D01*
X159804927Y-98890823D01*
X159806302Y-98894143D01*
X159806557Y-98897727D01*
X159813563Y-98916035D01*
X159870706Y-99030322D01*
X159872760Y-99033586D01*
X159873273Y-99035123D01*
X159874932Y-99037036D01*
X159881149Y-99046912D01*
X159890624Y-99055129D01*
X159898838Y-99064600D01*
X159908709Y-99070813D01*
X159910626Y-99072476D01*
X159912164Y-99072989D01*
X159915428Y-99075043D01*
X160029713Y-99132185D01*
X160048021Y-99139191D01*
X160051604Y-99139445D01*
X160054925Y-99140821D01*
X160074434Y-99142742D01*
X160188720Y-99142742D01*
X160208229Y-99140821D01*
X160244277Y-99125889D01*
X160271867Y-99098299D01*
X160286799Y-99062251D01*
X160286799Y-99023233D01*
X160271867Y-98987185D01*
X160244277Y-98959595D01*
X160208229Y-98944663D01*
X160188720Y-98942742D01*
X160098041Y-98942742D01*
X160034684Y-98911064D01*
X160003006Y-98847707D01*
X160003006Y-98342742D01*
X160188720Y-98342742D01*
X160208229Y-98340821D01*
X160244277Y-98325889D01*
X160271867Y-98298299D01*
X160286799Y-98262251D01*
X160286799Y-98223233D01*
X160319212Y-98223233D01*
X160319212Y-98262251D01*
X160334144Y-98298299D01*
X160361734Y-98325889D01*
X160397782Y-98340821D01*
X160417291Y-98342742D01*
X160488720Y-98342742D01*
X160488720Y-98871314D01*
X160490641Y-98890823D01*
X160492016Y-98894143D01*
X160492271Y-98897727D01*
X160499277Y-98916035D01*
X160556420Y-99030322D01*
X160558474Y-99033586D01*
X160558987Y-99035123D01*
X160560646Y-99037036D01*
X160566863Y-99046912D01*
X160576338Y-99055129D01*
X160584552Y-99064600D01*
X160594423Y-99070813D01*
X160596340Y-99072476D01*
X160597878Y-99072989D01*
X160601142Y-99075043D01*
X160715427Y-99132185D01*
X160733735Y-99139191D01*
X160737318Y-99139445D01*
X160740639Y-99140821D01*
X160760148Y-99142742D01*
X160874434Y-99142742D01*
X160893943Y-99140821D01*
X160929991Y-99125889D01*
X160957581Y-99098299D01*
X160972513Y-99062251D01*
X160972513Y-99023233D01*
X160957581Y-98987185D01*
X160929991Y-98959595D01*
X160893943Y-98944663D01*
X160874434Y-98942742D01*
X160783755Y-98942742D01*
X160720398Y-98911064D01*
X160688720Y-98847707D01*
X160688720Y-98414171D01*
X161117291Y-98414171D01*
X161117291Y-98871314D01*
X161119212Y-98890823D01*
X161120587Y-98894143D01*
X161120842Y-98897727D01*
X161127848Y-98916035D01*
X161184991Y-99030322D01*
X161187044Y-99033585D01*
X161187558Y-99035124D01*
X161189219Y-99037040D01*
X161195434Y-99046912D01*
X161204908Y-99055128D01*
X161213123Y-99064600D01*
X161222994Y-99070813D01*
X161224911Y-99072476D01*
X161226449Y-99072989D01*
X161229713Y-99075043D01*
X161343999Y-99132185D01*
X161362308Y-99139191D01*
X161365890Y-99139445D01*
X161369211Y-99140821D01*
X161388720Y-99142742D01*
X161617291Y-99142742D01*
X161636800Y-99140821D01*
X161640120Y-99139445D01*
X161643703Y-99139191D01*
X161662012Y-99132185D01*
X161776298Y-99075043D01*
X161792888Y-99064600D01*
X161818453Y-99035124D01*
X161830792Y-98998108D01*
X161828026Y-98959188D01*
X161810577Y-98924289D01*
X161781101Y-98898724D01*
X161744085Y-98886385D01*
X161705165Y-98889151D01*
X161686856Y-98896157D01*
X161593684Y-98942742D01*
X161412327Y-98942742D01*
X161348969Y-98911063D01*
X161317291Y-98847707D01*
X161317291Y-98724722D01*
X161808226Y-98626536D01*
X161808229Y-98626536D01*
X161808231Y-98626534D01*
X161808331Y-98626515D01*
X161827085Y-98620805D01*
X161835225Y-98615353D01*
X161844277Y-98611604D01*
X161851278Y-98604602D01*
X161859504Y-98599094D01*
X161864938Y-98590942D01*
X161871867Y-98584014D01*
X161875656Y-98574866D01*
X161881148Y-98566629D01*
X161883049Y-98557018D01*
X161886799Y-98547966D01*
X161888720Y-98528457D01*
X161888720Y-98414171D01*
X161886799Y-98394662D01*
X161885423Y-98391341D01*
X161885169Y-98387758D01*
X161878163Y-98369450D01*
X161821020Y-98255164D01*
X161818965Y-98251900D01*
X161818453Y-98250362D01*
X161816791Y-98248446D01*
X161813201Y-98242742D01*
X162203005Y-98242742D01*
X162203005Y-99042742D01*
X162204926Y-99062251D01*
X162219858Y-99098299D01*
X162247448Y-99125889D01*
X162283496Y-99140821D01*
X162322514Y-99140821D01*
X162358562Y-99125889D01*
X162386152Y-99098299D01*
X162401084Y-99062251D01*
X162403005Y-99042742D01*
X162403005Y-98494921D01*
X162442333Y-98416264D01*
X162476525Y-98382071D01*
X162555183Y-98342742D01*
X162645862Y-98342742D01*
X162665371Y-98340821D01*
X162701419Y-98325889D01*
X162729009Y-98298299D01*
X162743941Y-98262251D01*
X162743941Y-98223233D01*
X162729009Y-98187185D01*
X162701419Y-98159595D01*
X162665371Y-98144663D01*
X162645862Y-98142742D01*
X162531576Y-98142742D01*
X162512067Y-98144663D01*
X162508746Y-98146038D01*
X162505163Y-98146293D01*
X162486855Y-98153299D01*
X162391802Y-98200825D01*
X162386152Y-98187185D01*
X162358562Y-98159595D01*
X162322514Y-98144663D01*
X162283496Y-98144663D01*
X162247448Y-98159595D01*
X162219858Y-98187185D01*
X162204926Y-98223233D01*
X162203005Y-98242742D01*
X161813201Y-98242742D01*
X161810577Y-98238573D01*
X161801104Y-98230357D01*
X161792889Y-98220885D01*
X161783014Y-98214668D01*
X161781100Y-98213009D01*
X161779563Y-98212496D01*
X161776299Y-98210442D01*
X161662012Y-98153299D01*
X161643704Y-98146293D01*
X161640120Y-98146038D01*
X161636800Y-98144663D01*
X161617291Y-98142742D01*
X161388720Y-98142742D01*
X161369211Y-98144663D01*
X161365890Y-98146038D01*
X161362307Y-98146293D01*
X161343999Y-98153299D01*
X161229713Y-98210442D01*
X161226449Y-98212496D01*
X161224911Y-98213009D01*
X161222995Y-98214670D01*
X161213122Y-98220885D01*
X161204906Y-98230357D01*
X161195434Y-98238573D01*
X161189217Y-98248447D01*
X161187558Y-98250362D01*
X161187045Y-98251898D01*
X161184991Y-98255163D01*
X161127848Y-98369450D01*
X161120842Y-98387758D01*
X161120587Y-98391341D01*
X161119212Y-98394662D01*
X161117291Y-98414171D01*
X160688720Y-98414171D01*
X160688720Y-98342742D01*
X160874434Y-98342742D01*
X160893943Y-98340821D01*
X160929991Y-98325889D01*
X160957581Y-98298299D01*
X160972513Y-98262251D01*
X160972513Y-98223233D01*
X160957581Y-98187185D01*
X160929991Y-98159595D01*
X160893943Y-98144663D01*
X160874434Y-98142742D01*
X160688720Y-98142742D01*
X160688720Y-97842742D01*
X160686799Y-97823233D01*
X160671867Y-97787185D01*
X160644277Y-97759595D01*
X160608229Y-97744663D01*
X160569211Y-97744663D01*
X160533163Y-97759595D01*
X160505573Y-97787185D01*
X160490641Y-97823233D01*
X160488720Y-97842742D01*
X160488720Y-98142742D01*
X160417291Y-98142742D01*
X160397782Y-98144663D01*
X160361734Y-98159595D01*
X160334144Y-98187185D01*
X160319212Y-98223233D01*
X160286799Y-98223233D01*
X160271867Y-98187185D01*
X160244277Y-98159595D01*
X160208229Y-98144663D01*
X160188720Y-98142742D01*
X160003006Y-98142742D01*
X160003006Y-97842742D01*
X160001085Y-97823233D01*
X159986153Y-97787185D01*
X159958563Y-97759595D01*
X159922515Y-97744663D01*
X159883497Y-97744663D01*
X159847449Y-97759595D01*
X159819859Y-97787185D01*
X159804927Y-97823233D01*
X159803006Y-97842742D01*
X159803006Y-98142742D01*
X159731577Y-98142742D01*
X159712068Y-98144663D01*
X159676020Y-98159595D01*
X159648430Y-98187185D01*
X159633498Y-98223233D01*
X159337783Y-98223233D01*
X159335747Y-98220885D01*
X159325872Y-98214668D01*
X159323958Y-98213009D01*
X159322421Y-98212496D01*
X159319157Y-98210442D01*
X159204870Y-98153299D01*
X159186562Y-98146293D01*
X159182978Y-98146038D01*
X159179658Y-98144663D01*
X159160149Y-98142742D01*
X158931578Y-98142742D01*
X158912069Y-98144663D01*
X158908748Y-98146038D01*
X158905165Y-98146293D01*
X158886857Y-98153299D01*
X158772571Y-98210442D01*
X158755980Y-98220885D01*
X158730416Y-98250362D01*
X158718077Y-98287378D01*
X158720843Y-98326298D01*
X158738292Y-98361197D01*
X158767769Y-98386761D01*
X158804785Y-98399100D01*
X158843705Y-98396334D01*
X158862013Y-98389328D01*
X158955186Y-98342742D01*
X159136542Y-98342742D01*
X159199899Y-98374420D01*
X159231578Y-98437778D01*
X159231578Y-98466653D01*
X159193685Y-98485600D01*
X158931578Y-98485600D01*
X158912069Y-98487521D01*
X158908748Y-98488896D01*
X158905166Y-98489151D01*
X158886857Y-98496157D01*
X158772571Y-98553299D01*
X158769307Y-98555352D01*
X158767769Y-98555866D01*
X158765852Y-98557528D01*
X158755981Y-98563742D01*
X158747766Y-98573213D01*
X158738292Y-98581430D01*
X158732077Y-98591301D01*
X158730416Y-98593218D01*
X158729902Y-98594756D01*
X158727849Y-98598020D01*
X158670706Y-98712307D01*
X158663700Y-98730615D01*
X158663445Y-98734198D01*
X158662070Y-98737519D01*
X158660149Y-98757028D01*
X158403006Y-98757028D01*
X158403006Y-98642742D01*
X158401085Y-98623233D01*
X158399709Y-98619912D01*
X158399455Y-98616329D01*
X158392449Y-98598021D01*
X158335306Y-98483735D01*
X158330020Y-98475337D01*
X158329010Y-98472899D01*
X158326757Y-98470154D01*
X158324863Y-98467145D01*
X158322865Y-98465412D01*
X158316573Y-98457746D01*
X158259431Y-98400603D01*
X158244277Y-98388167D01*
X158242567Y-98387459D01*
X158259432Y-98370595D01*
X158265723Y-98362928D01*
X158267720Y-98361197D01*
X158269615Y-98358185D01*
X158271868Y-98355441D01*
X158272877Y-98353003D01*
X158278163Y-98344607D01*
X158335306Y-98230321D01*
X158342312Y-98212013D01*
X158342566Y-98208429D01*
X158343942Y-98205109D01*
X158345863Y-98185600D01*
X158345863Y-98071314D01*
X158343942Y-98051805D01*
X158342566Y-98048484D01*
X158342312Y-98044901D01*
X158335306Y-98026593D01*
X158278163Y-97912307D01*
X158272878Y-97903910D01*
X158271868Y-97901472D01*
X158269614Y-97898726D01*
X158267720Y-97895716D01*
X158265723Y-97893984D01*
X158259432Y-97886318D01*
X158202289Y-97829175D01*
X158194622Y-97822882D01*
X158192890Y-97820885D01*
X158189880Y-97818990D01*
X158187136Y-97816738D01*
X158184697Y-97815727D01*
X158176300Y-97810442D01*
X158062013Y-97753299D01*
X158043705Y-97746293D01*
X158040121Y-97746038D01*
X158036801Y-97744663D01*
X158017292Y-97742742D01*
X157617292Y-97742742D01*
X157597783Y-97744663D01*
X157561735Y-97759595D01*
X157534145Y-97787185D01*
X157519213Y-97823233D01*
X157517292Y-97842742D01*
X157383959Y-97842742D01*
X157383959Y-97609409D01*
X163735265Y-97609409D01*
X163735265Y-99675290D01*
G37*
G36*
X124408939Y-80541710D02*
G01*
X124442224Y-80572222D01*
X124479196Y-80640004D01*
X124479196Y-80746146D01*
X124442224Y-80813928D01*
X124408939Y-80844440D01*
X124328800Y-80881171D01*
X123993482Y-80881171D01*
X123993482Y-80504980D01*
X124328800Y-80504980D01*
X124408939Y-80541710D01*
G37*
G36*
X128058561Y-81727202D02*
G01*
X121558133Y-81727202D01*
X121558133Y-80420163D01*
X121680355Y-80420163D01*
X121685217Y-80439154D01*
X122085217Y-81539154D01*
X122093689Y-81556832D01*
X122096690Y-81560109D01*
X122098569Y-81564135D01*
X122109776Y-81574399D01*
X122120041Y-81585607D01*
X122124066Y-81587485D01*
X122127344Y-81590487D01*
X122141632Y-81595682D01*
X122155399Y-81602107D01*
X122159835Y-81602302D01*
X122164013Y-81603821D01*
X122179196Y-81603153D01*
X122194379Y-81603821D01*
X122198556Y-81602302D01*
X122202993Y-81602107D01*
X122216759Y-81595682D01*
X122231048Y-81590487D01*
X122234325Y-81587485D01*
X122238351Y-81585607D01*
X122248615Y-81574399D01*
X122259823Y-81564135D01*
X122261701Y-81560109D01*
X122264703Y-81556832D01*
X122273175Y-81539154D01*
X122673175Y-80439154D01*
X122678037Y-80420163D01*
X122677369Y-80404980D01*
X123793482Y-80404980D01*
X123793482Y-81504980D01*
X123795403Y-81524489D01*
X123810335Y-81560537D01*
X123837925Y-81588127D01*
X123873973Y-81603059D01*
X123912991Y-81603059D01*
X123949039Y-81588127D01*
X123976629Y-81560537D01*
X123991561Y-81524489D01*
X123993482Y-81504980D01*
X123993482Y-81384989D01*
X124880363Y-81384989D01*
X124882057Y-81423970D01*
X124898541Y-81459336D01*
X124911624Y-81473934D01*
X124968766Y-81526315D01*
X124975956Y-81531710D01*
X124977740Y-81533632D01*
X124981221Y-81535662D01*
X124984446Y-81538082D01*
X124986909Y-81538979D01*
X124994674Y-81543507D01*
X125108960Y-81595887D01*
X125127496Y-81602269D01*
X125129377Y-81602338D01*
X125131116Y-81603059D01*
X125150625Y-81604980D01*
X125493482Y-81604980D01*
X125512991Y-81603059D01*
X125514729Y-81602338D01*
X125516611Y-81602269D01*
X125535147Y-81595887D01*
X125649433Y-81543507D01*
X125657197Y-81538979D01*
X125659662Y-81538082D01*
X125662886Y-81535662D01*
X125666368Y-81533632D01*
X125668152Y-81531709D01*
X125675341Y-81526315D01*
X125732483Y-81473934D01*
X125739635Y-81465953D01*
X125741671Y-81464311D01*
X125743451Y-81461694D01*
X125745566Y-81459335D01*
X125746671Y-81456962D01*
X125752700Y-81448104D01*
X125809842Y-81343342D01*
X125817498Y-81325296D01*
X125818071Y-81319941D01*
X125820132Y-81314966D01*
X125822053Y-81295457D01*
X125822053Y-81033552D01*
X125820132Y-81014043D01*
X125818071Y-81009067D01*
X125817498Y-81003713D01*
X125809842Y-80985667D01*
X125752700Y-80880905D01*
X125749640Y-80876409D01*
X126993482Y-80876409D01*
X126993482Y-81033552D01*
X126993976Y-81038569D01*
X126993726Y-81040537D01*
X126994783Y-81046766D01*
X126995403Y-81053061D01*
X126996162Y-81054895D01*
X126997006Y-81059864D01*
X127054148Y-81269387D01*
X127055057Y-81271771D01*
X127055180Y-81272915D01*
X127058295Y-81280260D01*
X127061135Y-81287703D01*
X127061838Y-81288610D01*
X127062835Y-81290961D01*
X127119978Y-81395723D01*
X127126006Y-81404581D01*
X127127112Y-81406954D01*
X127129226Y-81409313D01*
X127131007Y-81411930D01*
X127133042Y-81413572D01*
X127140195Y-81421553D01*
X127254480Y-81526315D01*
X127270159Y-81538082D01*
X127272674Y-81538997D01*
X127274736Y-81540697D01*
X127292832Y-81548235D01*
X127464261Y-81600615D01*
X127471667Y-81602104D01*
X127473973Y-81603059D01*
X127478763Y-81603530D01*
X127483480Y-81604479D01*
X127485962Y-81604239D01*
X127493482Y-81604980D01*
X127607768Y-81604980D01*
X127615288Y-81604239D01*
X127617771Y-81604479D01*
X127622488Y-81603530D01*
X127627277Y-81603059D01*
X127629581Y-81602104D01*
X127636989Y-81600615D01*
X127808418Y-81548235D01*
X127826514Y-81540697D01*
X127828577Y-81538996D01*
X127831089Y-81538082D01*
X127846768Y-81526315D01*
X127903911Y-81473935D01*
X127916994Y-81459336D01*
X127917926Y-81457335D01*
X127919486Y-81455776D01*
X127926139Y-81439712D01*
X127933477Y-81423970D01*
X127933572Y-81421768D01*
X127934418Y-81419728D01*
X127936339Y-81400219D01*
X127936339Y-81033552D01*
X127934418Y-81014043D01*
X127919486Y-80977995D01*
X127891896Y-80950405D01*
X127855848Y-80935473D01*
X127836339Y-80933552D01*
X127607768Y-80933552D01*
X127588259Y-80935473D01*
X127552211Y-80950405D01*
X127524621Y-80977995D01*
X127509689Y-81014043D01*
X127509689Y-81053061D01*
X127524621Y-81089109D01*
X127552211Y-81116699D01*
X127588259Y-81131631D01*
X127607768Y-81133552D01*
X127736339Y-81133552D01*
X127736339Y-81356229D01*
X127728317Y-81363582D01*
X127592833Y-81404980D01*
X127508417Y-81404980D01*
X127372932Y-81363582D01*
X127287595Y-81285356D01*
X127244019Y-81205466D01*
X127193482Y-81020161D01*
X127193482Y-80889799D01*
X127244019Y-80704494D01*
X127287595Y-80624604D01*
X127372932Y-80546378D01*
X127508419Y-80504980D01*
X127643086Y-80504980D01*
X127737530Y-80548267D01*
X127756065Y-80554650D01*
X127795057Y-80556095D01*
X127831633Y-80542510D01*
X127860227Y-80515961D01*
X127876484Y-80480491D01*
X127877930Y-80441500D01*
X127864344Y-80404923D01*
X127837796Y-80376329D01*
X127820861Y-80366455D01*
X127706577Y-80314074D01*
X127688041Y-80307691D01*
X127686158Y-80307621D01*
X127684420Y-80306901D01*
X127664911Y-80304980D01*
X127493482Y-80304980D01*
X127485961Y-80305720D01*
X127483479Y-80305481D01*
X127478761Y-80306429D01*
X127473973Y-80306901D01*
X127471668Y-80307855D01*
X127464260Y-80309345D01*
X127292831Y-80361726D01*
X127274735Y-80369264D01*
X127272672Y-80370963D01*
X127270159Y-80371879D01*
X127254480Y-80383646D01*
X127140195Y-80488408D01*
X127133042Y-80496388D01*
X127131007Y-80498031D01*
X127129226Y-80500647D01*
X127127112Y-80503007D01*
X127126006Y-80505379D01*
X127119978Y-80514238D01*
X127062835Y-80619000D01*
X127061838Y-80621350D01*
X127061135Y-80622258D01*
X127058295Y-80629700D01*
X127055180Y-80637046D01*
X127055057Y-80638189D01*
X127054148Y-80640574D01*
X126997006Y-80850097D01*
X126996162Y-80855065D01*
X126995403Y-80856900D01*
X126994783Y-80863194D01*
X126993726Y-80869424D01*
X126993976Y-80871391D01*
X126993482Y-80876409D01*
X125749640Y-80876409D01*
X125746671Y-80872046D01*
X125745566Y-80869674D01*
X125743451Y-80867314D01*
X125741671Y-80864698D01*
X125739635Y-80863055D01*
X125732483Y-80855075D01*
X125675341Y-80802694D01*
X125668152Y-80797299D01*
X125666368Y-80795377D01*
X125662886Y-80793346D01*
X125659662Y-80790927D01*
X125657197Y-80790029D01*
X125649433Y-80785502D01*
X125543443Y-80736923D01*
X125794389Y-80474028D01*
X125804030Y-80461706D01*
X125805200Y-80460537D01*
X125805486Y-80459846D01*
X125806470Y-80458589D01*
X125813107Y-80441447D01*
X125820132Y-80424489D01*
X125820132Y-80423305D01*
X125820559Y-80422203D01*
X125820132Y-80403859D01*
X125820132Y-80385471D01*
X125819678Y-80384376D01*
X125819651Y-80383196D01*
X125812232Y-80366400D01*
X125805200Y-80349423D01*
X125804364Y-80348587D01*
X125803886Y-80347504D01*
X125790576Y-80334799D01*
X125777610Y-80321833D01*
X125776519Y-80321381D01*
X125775662Y-80320563D01*
X125758520Y-80313925D01*
X125741562Y-80306901D01*
X125739975Y-80306744D01*
X125739276Y-80306474D01*
X125737617Y-80306512D01*
X125722053Y-80304980D01*
X124979196Y-80304980D01*
X124959687Y-80306901D01*
X124923639Y-80321833D01*
X124896049Y-80349423D01*
X124881117Y-80385471D01*
X124881117Y-80424489D01*
X124896049Y-80460537D01*
X124923639Y-80488127D01*
X124959687Y-80503059D01*
X124979196Y-80504980D01*
X125488353Y-80504980D01*
X125249717Y-80754980D01*
X125240075Y-80767301D01*
X125238906Y-80768471D01*
X125238619Y-80769161D01*
X125237636Y-80770419D01*
X125230998Y-80787560D01*
X125223974Y-80804519D01*
X125223974Y-80805702D01*
X125223547Y-80806805D01*
X125223974Y-80825148D01*
X125223974Y-80843537D01*
X125224427Y-80844631D01*
X125224455Y-80845812D01*
X125231873Y-80862607D01*
X125238906Y-80879585D01*
X125239741Y-80880420D01*
X125240220Y-80881504D01*
X125253529Y-80894208D01*
X125266496Y-80907175D01*
X125267586Y-80907626D01*
X125268444Y-80908445D01*
X125285585Y-80915082D01*
X125302544Y-80922107D01*
X125304130Y-80922263D01*
X125304830Y-80922534D01*
X125306488Y-80922495D01*
X125322053Y-80924028D01*
X125471657Y-80924028D01*
X125551795Y-80960757D01*
X125585081Y-80991270D01*
X125622053Y-81059052D01*
X125622053Y-81269956D01*
X125585081Y-81337738D01*
X125551796Y-81368249D01*
X125471657Y-81404980D01*
X125172450Y-81404980D01*
X125092309Y-81368249D01*
X125046768Y-81326504D01*
X125031089Y-81314737D01*
X124994426Y-81301386D01*
X124955445Y-81303080D01*
X124920079Y-81319564D01*
X124893714Y-81348326D01*
X124880363Y-81384989D01*
X123993482Y-81384989D01*
X123993482Y-81081171D01*
X124350625Y-81081171D01*
X124370134Y-81079250D01*
X124371872Y-81078529D01*
X124373755Y-81078460D01*
X124392291Y-81072077D01*
X124506575Y-81019696D01*
X124514338Y-81015169D01*
X124516803Y-81014272D01*
X124520024Y-81011854D01*
X124523510Y-81009822D01*
X124525296Y-81007897D01*
X124532482Y-81002505D01*
X124589625Y-80950125D01*
X124596777Y-80942143D01*
X124598814Y-80940501D01*
X124600594Y-80937883D01*
X124602708Y-80935526D01*
X124603813Y-80933154D01*
X124609843Y-80924294D01*
X124666985Y-80819532D01*
X124674641Y-80801486D01*
X124675214Y-80796131D01*
X124677275Y-80791156D01*
X124679196Y-80771647D01*
X124679196Y-80614504D01*
X124677275Y-80594995D01*
X124675214Y-80590019D01*
X124674641Y-80584665D01*
X124666985Y-80566619D01*
X124609843Y-80461857D01*
X124603813Y-80452996D01*
X124602708Y-80450625D01*
X124600594Y-80448267D01*
X124598814Y-80445650D01*
X124596777Y-80444007D01*
X124589625Y-80436026D01*
X124532482Y-80383646D01*
X124525296Y-80378253D01*
X124523510Y-80376329D01*
X124520024Y-80374296D01*
X124516803Y-80371879D01*
X124514338Y-80370981D01*
X124506575Y-80366455D01*
X124392291Y-80314074D01*
X124373755Y-80307691D01*
X124371872Y-80307621D01*
X124370134Y-80306901D01*
X124350625Y-80304980D01*
X123893482Y-80304980D01*
X123873973Y-80306901D01*
X123837925Y-80321833D01*
X123810335Y-80349423D01*
X123795403Y-80385471D01*
X123793482Y-80404980D01*
X122677369Y-80404980D01*
X122676323Y-80381183D01*
X122659823Y-80345825D01*
X122631048Y-80319473D01*
X122594379Y-80306139D01*
X122555399Y-80307853D01*
X122520041Y-80324353D01*
X122493689Y-80353128D01*
X122485217Y-80370806D01*
X122179196Y-81212363D01*
X121873175Y-80370806D01*
X121864703Y-80353128D01*
X121838351Y-80324353D01*
X121802993Y-80307853D01*
X121764013Y-80306139D01*
X121727344Y-80319473D01*
X121698569Y-80345825D01*
X121682069Y-80381183D01*
X121680355Y-80420163D01*
X121558133Y-80420163D01*
X121558133Y-80182758D01*
X128058561Y-80182758D01*
X128058561Y-81727202D01*
G37*
D11*
G36*
X186910134Y-93765779D02*
G01*
X186936754Y-93792400D01*
X186965942Y-93850775D01*
X186965942Y-94093734D01*
X186646895Y-94093734D01*
X186646895Y-93850775D01*
X186676082Y-93792399D01*
X186702703Y-93765779D01*
X186761079Y-93736591D01*
X186851758Y-93736591D01*
X186910134Y-93765779D01*
G37*
G36*
X187227062Y-92248052D02*
G01*
X187291085Y-92280064D01*
X187317708Y-92306687D01*
X187346895Y-92365060D01*
X187346895Y-92417645D01*
X187317708Y-92476018D01*
X187291085Y-92502641D01*
X187227062Y-92534653D01*
X187085978Y-92569925D01*
X186907812Y-92569925D01*
X186766726Y-92534652D01*
X186702704Y-92502642D01*
X186676083Y-92476022D01*
X186646895Y-92417645D01*
X186646895Y-92365060D01*
X186676083Y-92306683D01*
X186702704Y-92280063D01*
X186766726Y-92248053D01*
X186907812Y-92212782D01*
X187085978Y-92212782D01*
X187227062Y-92248052D01*
G37*
G36*
X187535784Y-94282623D02*
G01*
X186458006Y-94282623D01*
X186458006Y-93838972D01*
X186546895Y-93838972D01*
X186546895Y-94143734D01*
X186550701Y-94162868D01*
X186577761Y-94189928D01*
X186596895Y-94193734D01*
X187396895Y-94193734D01*
X187416029Y-94189928D01*
X187443089Y-94162868D01*
X187443089Y-94124600D01*
X187416029Y-94097540D01*
X187396895Y-94093734D01*
X187065942Y-94093734D01*
X187065942Y-93838972D01*
X187065453Y-93836515D01*
X187065816Y-93835427D01*
X187063699Y-93827699D01*
X187062136Y-93819838D01*
X187061324Y-93819026D01*
X187060663Y-93816611D01*
X187022568Y-93740421D01*
X187017656Y-93734092D01*
X187013202Y-93727426D01*
X186975107Y-93689332D01*
X186968444Y-93684879D01*
X186962113Y-93679966D01*
X186885922Y-93641870D01*
X186883506Y-93641208D01*
X186882695Y-93640397D01*
X186874833Y-93638833D01*
X186867106Y-93636717D01*
X186866017Y-93637079D01*
X186863561Y-93636591D01*
X186749276Y-93636591D01*
X186746819Y-93637079D01*
X186745731Y-93636717D01*
X186738003Y-93638833D01*
X186730142Y-93640397D01*
X186729330Y-93641208D01*
X186726915Y-93641870D01*
X186650724Y-93679966D01*
X186644395Y-93684877D01*
X186637729Y-93689332D01*
X186599635Y-93727427D01*
X186595184Y-93734086D01*
X186590269Y-93740421D01*
X186552174Y-93816611D01*
X186551512Y-93819026D01*
X186550701Y-93819838D01*
X186549137Y-93827699D01*
X186547021Y-93835427D01*
X186547383Y-93836515D01*
X186546895Y-93838972D01*
X186458006Y-93838972D01*
X186458006Y-93077068D01*
X186546895Y-93077068D01*
X186546895Y-93267544D01*
X186547383Y-93270000D01*
X186547021Y-93271089D01*
X186549137Y-93278816D01*
X186550701Y-93286678D01*
X186551512Y-93287489D01*
X186552174Y-93289905D01*
X186590269Y-93366095D01*
X186595180Y-93372423D01*
X186599634Y-93379089D01*
X186637729Y-93417185D01*
X186653950Y-93428023D01*
X186692219Y-93428024D01*
X186719278Y-93400965D01*
X186719279Y-93362696D01*
X186708441Y-93346475D01*
X186676082Y-93314115D01*
X186646895Y-93255741D01*
X186646895Y-93088870D01*
X186676083Y-93030493D01*
X186702704Y-93003873D01*
X186761079Y-92974687D01*
X186817353Y-92974687D01*
X186912743Y-93006483D01*
X187361540Y-93455280D01*
X187377761Y-93466119D01*
X187416029Y-93466119D01*
X187443089Y-93439059D01*
X187446895Y-93419925D01*
X187446895Y-92924687D01*
X187443089Y-92905553D01*
X187416029Y-92878493D01*
X187377761Y-92878493D01*
X187350701Y-92905553D01*
X187346895Y-92924687D01*
X187346895Y-93299215D01*
X186975107Y-92927427D01*
X186973025Y-92926036D01*
X186972512Y-92925009D01*
X186965546Y-92921038D01*
X186958886Y-92916588D01*
X186957738Y-92916588D01*
X186955563Y-92915348D01*
X186841277Y-92877253D01*
X186833328Y-92876250D01*
X186825466Y-92874687D01*
X186749276Y-92874687D01*
X186746819Y-92875175D01*
X186745732Y-92874813D01*
X186738002Y-92876929D01*
X186730142Y-92878493D01*
X186729331Y-92879303D01*
X186726916Y-92879965D01*
X186650725Y-92918061D01*
X186644403Y-92922967D01*
X186637729Y-92927427D01*
X186599635Y-92965522D01*
X186595182Y-92972184D01*
X186590269Y-92978516D01*
X186552174Y-93054708D01*
X186551512Y-93057122D01*
X186550701Y-93057934D01*
X186549136Y-93065799D01*
X186547021Y-93073524D01*
X186547383Y-93074611D01*
X186546895Y-93077068D01*
X186458006Y-93077068D01*
X186458006Y-92353258D01*
X186546895Y-92353258D01*
X186546895Y-92429448D01*
X186547383Y-92431904D01*
X186547021Y-92432992D01*
X186549136Y-92440716D01*
X186550701Y-92448582D01*
X186551512Y-92449393D01*
X186552174Y-92451808D01*
X186590269Y-92528000D01*
X186595182Y-92534331D01*
X186599635Y-92540994D01*
X186637729Y-92579089D01*
X186644403Y-92583548D01*
X186650725Y-92588455D01*
X186726916Y-92626551D01*
X186732198Y-92627997D01*
X186737149Y-92630336D01*
X186889530Y-92668432D01*
X186895647Y-92668729D01*
X186901657Y-92669925D01*
X187092133Y-92669925D01*
X187098142Y-92668729D01*
X187104260Y-92668432D01*
X187256641Y-92630336D01*
X187261593Y-92627996D01*
X187266875Y-92626550D01*
X187343065Y-92588455D01*
X187349393Y-92583543D01*
X187356059Y-92579090D01*
X187394155Y-92540995D01*
X187398611Y-92534324D01*
X187403521Y-92527999D01*
X187441617Y-92451808D01*
X187442278Y-92449392D01*
X187443089Y-92448582D01*
X187444652Y-92440721D01*
X187446769Y-92432992D01*
X187446406Y-92431904D01*
X187446895Y-92429448D01*
X187446895Y-92353258D01*
X187446406Y-92350801D01*
X187446769Y-92349714D01*
X187444652Y-92341984D01*
X187443089Y-92334124D01*
X187442278Y-92333313D01*
X187441617Y-92330898D01*
X187403521Y-92254707D01*
X187398611Y-92248381D01*
X187394155Y-92241711D01*
X187356059Y-92203616D01*
X187349393Y-92199162D01*
X187343065Y-92194251D01*
X187266875Y-92156156D01*
X187261593Y-92154709D01*
X187256641Y-92152370D01*
X187104260Y-92114275D01*
X187098142Y-92113977D01*
X187092133Y-92112782D01*
X186901657Y-92112782D01*
X186895649Y-92113977D01*
X186889531Y-92114275D01*
X186737149Y-92152370D01*
X186732199Y-92154708D01*
X186726916Y-92156155D01*
X186650725Y-92194251D01*
X186644403Y-92199157D01*
X186637729Y-92203617D01*
X186599635Y-92241712D01*
X186595182Y-92248374D01*
X186590269Y-92254706D01*
X186552174Y-92330898D01*
X186551512Y-92333312D01*
X186550701Y-92334124D01*
X186549136Y-92341989D01*
X186547021Y-92349714D01*
X186547383Y-92350801D01*
X186546895Y-92353258D01*
X186458006Y-92353258D01*
X186458006Y-92023893D01*
X187535784Y-92023893D01*
X187535784Y-94282623D01*
G37*
D10*
G36*
X166290768Y-98997377D02*
G01*
X165110483Y-98997377D01*
X165110483Y-98766757D01*
X165221594Y-98766757D01*
X165221594Y-98805775D01*
X165236526Y-98841823D01*
X165264116Y-98869413D01*
X165300164Y-98884345D01*
X165319673Y-98886266D01*
X166081578Y-98886266D01*
X166101087Y-98884345D01*
X166137135Y-98869413D01*
X166164725Y-98841823D01*
X166179657Y-98805775D01*
X166179657Y-98766757D01*
X166164725Y-98730709D01*
X166137135Y-98703119D01*
X166101087Y-98688187D01*
X166081578Y-98686266D01*
X165319673Y-98686266D01*
X165300164Y-98688187D01*
X165264116Y-98703119D01*
X165236526Y-98730709D01*
X165221594Y-98766757D01*
X165110483Y-98766757D01*
X165110483Y-98575155D01*
X166290768Y-98575155D01*
X166290768Y-98997377D01*
G37*
G36*
X149894653Y-80541710D02*
G01*
X149927937Y-80572221D01*
X149971513Y-80652112D01*
X150022052Y-80837421D01*
X150022052Y-81072539D01*
X149971513Y-81257848D01*
X149927937Y-81337739D01*
X149894654Y-81368248D01*
X149814513Y-81404980D01*
X149743877Y-81404980D01*
X149663737Y-81368249D01*
X149630451Y-81337738D01*
X149586875Y-81257847D01*
X149536338Y-81072542D01*
X149536338Y-80837418D01*
X149586875Y-80652113D01*
X149630451Y-80572222D01*
X149663739Y-80541709D01*
X149743876Y-80504980D01*
X149814513Y-80504980D01*
X149894653Y-80541710D01*
G37*
G36*
X148808938Y-80541710D02*
G01*
X148842223Y-80572222D01*
X148879195Y-80640004D01*
X148879195Y-80746146D01*
X148842223Y-80813928D01*
X148808938Y-80844440D01*
X148728799Y-80881171D01*
X148393481Y-80881171D01*
X148393481Y-80504980D01*
X148728799Y-80504980D01*
X148808938Y-80541710D01*
G37*
G36*
X152458560Y-81727202D02*
G01*
X145958132Y-81727202D01*
X145958132Y-80420163D01*
X146080354Y-80420163D01*
X146085216Y-80439154D01*
X146485216Y-81539154D01*
X146493688Y-81556832D01*
X146496689Y-81560109D01*
X146498568Y-81564135D01*
X146509775Y-81574399D01*
X146520040Y-81585607D01*
X146524065Y-81587485D01*
X146527343Y-81590487D01*
X146541631Y-81595682D01*
X146555398Y-81602107D01*
X146559834Y-81602302D01*
X146564012Y-81603821D01*
X146579195Y-81603153D01*
X146594378Y-81603821D01*
X146598555Y-81602302D01*
X146602992Y-81602107D01*
X146616758Y-81595682D01*
X146631047Y-81590487D01*
X146634324Y-81587485D01*
X146638350Y-81585607D01*
X146648614Y-81574399D01*
X146659822Y-81564135D01*
X146661700Y-81560109D01*
X146664702Y-81556832D01*
X146673174Y-81539154D01*
X147073174Y-80439154D01*
X147078036Y-80420163D01*
X147077368Y-80404980D01*
X148193481Y-80404980D01*
X148193481Y-81504980D01*
X148195402Y-81524489D01*
X148210334Y-81560537D01*
X148237924Y-81588127D01*
X148273972Y-81603059D01*
X148312990Y-81603059D01*
X148349038Y-81588127D01*
X148376628Y-81560537D01*
X148391560Y-81524489D01*
X148393481Y-81504980D01*
X148393481Y-81081171D01*
X148750624Y-81081171D01*
X148770133Y-81079250D01*
X148771871Y-81078529D01*
X148773754Y-81078460D01*
X148792290Y-81072077D01*
X148906574Y-81019696D01*
X148914337Y-81015169D01*
X148916802Y-81014272D01*
X148920023Y-81011854D01*
X148923509Y-81009822D01*
X148925295Y-81007897D01*
X148932481Y-81002505D01*
X148989624Y-80950125D01*
X148996776Y-80942143D01*
X148998813Y-80940501D01*
X149000593Y-80937883D01*
X149002707Y-80935526D01*
X149003812Y-80933154D01*
X149009842Y-80924294D01*
X149064532Y-80824028D01*
X149336338Y-80824028D01*
X149336338Y-81085933D01*
X149336832Y-81090950D01*
X149336582Y-81092918D01*
X149337639Y-81099147D01*
X149338259Y-81105442D01*
X149339018Y-81107276D01*
X149339862Y-81112245D01*
X149397004Y-81321768D01*
X149397913Y-81324152D01*
X149398036Y-81325296D01*
X149401151Y-81332641D01*
X149403991Y-81340084D01*
X149404694Y-81340991D01*
X149405691Y-81343342D01*
X149462834Y-81448104D01*
X149468863Y-81456964D01*
X149469969Y-81459336D01*
X149472081Y-81461693D01*
X149473863Y-81464311D01*
X149475900Y-81465954D01*
X149483052Y-81473934D01*
X149540194Y-81526315D01*
X149547381Y-81531708D01*
X149549167Y-81533632D01*
X149552652Y-81535664D01*
X149555874Y-81538082D01*
X149558336Y-81538978D01*
X149566102Y-81543507D01*
X149680387Y-81595887D01*
X149698922Y-81602269D01*
X149700804Y-81602338D01*
X149702543Y-81603059D01*
X149722052Y-81604980D01*
X149836338Y-81604980D01*
X149855847Y-81603059D01*
X149857585Y-81602338D01*
X149859467Y-81602269D01*
X149878003Y-81595887D01*
X149992289Y-81543507D01*
X150000055Y-81538978D01*
X150002517Y-81538082D01*
X150005737Y-81535664D01*
X150009224Y-81533632D01*
X150011010Y-81531707D01*
X150018196Y-81526315D01*
X150075339Y-81473935D01*
X150082489Y-81465956D01*
X150084529Y-81464311D01*
X150086312Y-81461689D01*
X150088422Y-81459336D01*
X150089525Y-81456967D01*
X150095557Y-81448104D01*
X150152699Y-81343341D01*
X150153694Y-81340995D01*
X150154399Y-81340085D01*
X150157241Y-81332632D01*
X150160354Y-81325295D01*
X150160476Y-81324151D01*
X150161385Y-81321769D01*
X150218528Y-81112245D01*
X150219371Y-81107276D01*
X150220131Y-81105442D01*
X150220750Y-81099147D01*
X150221808Y-81092918D01*
X150221557Y-81090950D01*
X150222052Y-81085933D01*
X150222052Y-80876409D01*
X151393481Y-80876409D01*
X151393481Y-81033552D01*
X151393975Y-81038569D01*
X151393725Y-81040537D01*
X151394782Y-81046766D01*
X151395402Y-81053061D01*
X151396161Y-81054895D01*
X151397005Y-81059864D01*
X151454147Y-81269387D01*
X151455056Y-81271771D01*
X151455179Y-81272915D01*
X151458294Y-81280260D01*
X151461134Y-81287703D01*
X151461837Y-81288610D01*
X151462834Y-81290961D01*
X151519977Y-81395723D01*
X151526005Y-81404581D01*
X151527111Y-81406954D01*
X151529225Y-81409313D01*
X151531006Y-81411930D01*
X151533041Y-81413572D01*
X151540194Y-81421553D01*
X151654479Y-81526315D01*
X151670158Y-81538082D01*
X151672673Y-81538997D01*
X151674735Y-81540697D01*
X151692831Y-81548235D01*
X151864260Y-81600615D01*
X151871666Y-81602104D01*
X151873972Y-81603059D01*
X151878762Y-81603530D01*
X151883479Y-81604479D01*
X151885961Y-81604239D01*
X151893481Y-81604980D01*
X152007767Y-81604980D01*
X152015287Y-81604239D01*
X152017770Y-81604479D01*
X152022487Y-81603530D01*
X152027276Y-81603059D01*
X152029580Y-81602104D01*
X152036988Y-81600615D01*
X152208417Y-81548235D01*
X152226513Y-81540697D01*
X152228576Y-81538996D01*
X152231088Y-81538082D01*
X152246767Y-81526315D01*
X152303910Y-81473935D01*
X152316993Y-81459336D01*
X152317925Y-81457335D01*
X152319485Y-81455776D01*
X152326138Y-81439712D01*
X152333476Y-81423970D01*
X152333571Y-81421768D01*
X152334417Y-81419728D01*
X152336338Y-81400219D01*
X152336338Y-81033552D01*
X152334417Y-81014043D01*
X152319485Y-80977995D01*
X152291895Y-80950405D01*
X152255847Y-80935473D01*
X152236338Y-80933552D01*
X152007767Y-80933552D01*
X151988258Y-80935473D01*
X151952210Y-80950405D01*
X151924620Y-80977995D01*
X151909688Y-81014043D01*
X151909688Y-81053061D01*
X151924620Y-81089109D01*
X151952210Y-81116699D01*
X151988258Y-81131631D01*
X152007767Y-81133552D01*
X152136338Y-81133552D01*
X152136338Y-81356229D01*
X152128316Y-81363582D01*
X151992832Y-81404980D01*
X151908416Y-81404980D01*
X151772931Y-81363582D01*
X151687594Y-81285356D01*
X151644018Y-81205466D01*
X151593481Y-81020161D01*
X151593481Y-80889799D01*
X151644018Y-80704494D01*
X151687594Y-80624604D01*
X151772931Y-80546378D01*
X151908418Y-80504980D01*
X152043085Y-80504980D01*
X152137529Y-80548267D01*
X152156064Y-80554650D01*
X152195056Y-80556095D01*
X152231632Y-80542510D01*
X152260226Y-80515961D01*
X152276483Y-80480491D01*
X152277929Y-80441500D01*
X152264343Y-80404923D01*
X152237795Y-80376329D01*
X152220860Y-80366455D01*
X152106576Y-80314074D01*
X152088040Y-80307691D01*
X152086157Y-80307621D01*
X152084419Y-80306901D01*
X152064910Y-80304980D01*
X151893481Y-80304980D01*
X151885960Y-80305720D01*
X151883478Y-80305481D01*
X151878760Y-80306429D01*
X151873972Y-80306901D01*
X151871667Y-80307855D01*
X151864259Y-80309345D01*
X151692830Y-80361726D01*
X151674734Y-80369264D01*
X151672671Y-80370963D01*
X151670158Y-80371879D01*
X151654479Y-80383646D01*
X151540194Y-80488408D01*
X151533041Y-80496388D01*
X151531006Y-80498031D01*
X151529225Y-80500647D01*
X151527111Y-80503007D01*
X151526005Y-80505379D01*
X151519977Y-80514238D01*
X151462834Y-80619000D01*
X151461837Y-80621350D01*
X151461134Y-80622258D01*
X151458294Y-80629700D01*
X151455179Y-80637046D01*
X151455056Y-80638189D01*
X151454147Y-80640574D01*
X151397005Y-80850097D01*
X151396161Y-80855065D01*
X151395402Y-80856900D01*
X151394782Y-80863194D01*
X151393725Y-80869424D01*
X151393975Y-80871391D01*
X151393481Y-80876409D01*
X150222052Y-80876409D01*
X150222052Y-80824028D01*
X150221557Y-80819010D01*
X150221808Y-80817043D01*
X150220750Y-80810813D01*
X150220131Y-80804519D01*
X150219371Y-80802684D01*
X150218528Y-80797716D01*
X150161385Y-80588192D01*
X150160476Y-80585809D01*
X150160354Y-80584666D01*
X150157241Y-80577328D01*
X150154399Y-80569876D01*
X150153694Y-80568965D01*
X150152699Y-80566620D01*
X150095557Y-80461857D01*
X150089525Y-80452993D01*
X150088422Y-80450625D01*
X150086312Y-80448271D01*
X150084529Y-80445650D01*
X150082489Y-80444004D01*
X150075339Y-80436026D01*
X150018196Y-80383646D01*
X150011010Y-80378253D01*
X150009224Y-80376329D01*
X150005737Y-80374296D01*
X150002517Y-80371879D01*
X150000055Y-80370982D01*
X149992289Y-80366454D01*
X149878003Y-80314073D01*
X149859468Y-80307691D01*
X149857585Y-80307621D01*
X149855847Y-80306901D01*
X149836338Y-80304980D01*
X149722052Y-80304980D01*
X149702543Y-80306901D01*
X149700804Y-80307621D01*
X149698921Y-80307691D01*
X149680386Y-80314074D01*
X149566101Y-80366455D01*
X149558339Y-80370981D01*
X149555874Y-80371879D01*
X149552647Y-80374300D01*
X149549167Y-80376330D01*
X149547383Y-80378250D01*
X149540194Y-80383646D01*
X149483052Y-80436027D01*
X149475900Y-80444006D01*
X149473863Y-80445650D01*
X149472081Y-80448267D01*
X149469969Y-80450625D01*
X149468863Y-80452996D01*
X149462834Y-80461857D01*
X149405691Y-80566619D01*
X149404694Y-80568969D01*
X149403991Y-80569877D01*
X149401151Y-80577319D01*
X149398036Y-80584665D01*
X149397913Y-80585808D01*
X149397004Y-80588193D01*
X149339862Y-80797716D01*
X149339018Y-80802684D01*
X149338259Y-80804519D01*
X149337639Y-80810813D01*
X149336582Y-80817043D01*
X149336832Y-80819010D01*
X149336338Y-80824028D01*
X149064532Y-80824028D01*
X149066984Y-80819532D01*
X149074640Y-80801486D01*
X149075213Y-80796131D01*
X149077274Y-80791156D01*
X149079195Y-80771647D01*
X149079195Y-80614504D01*
X149077274Y-80594995D01*
X149075213Y-80590019D01*
X149074640Y-80584665D01*
X149066984Y-80566619D01*
X149009842Y-80461857D01*
X149003812Y-80452996D01*
X149002707Y-80450625D01*
X149000593Y-80448267D01*
X148998813Y-80445650D01*
X148996776Y-80444007D01*
X148989624Y-80436026D01*
X148932481Y-80383646D01*
X148925295Y-80378253D01*
X148923509Y-80376329D01*
X148920023Y-80374296D01*
X148916802Y-80371879D01*
X148914337Y-80370981D01*
X148906574Y-80366455D01*
X148792290Y-80314074D01*
X148773754Y-80307691D01*
X148771871Y-80307621D01*
X148770133Y-80306901D01*
X148750624Y-80304980D01*
X148293481Y-80304980D01*
X148273972Y-80306901D01*
X148237924Y-80321833D01*
X148210334Y-80349423D01*
X148195402Y-80385471D01*
X148193481Y-80404980D01*
X147077368Y-80404980D01*
X147076322Y-80381183D01*
X147059822Y-80345825D01*
X147031047Y-80319473D01*
X146994378Y-80306139D01*
X146955398Y-80307853D01*
X146920040Y-80324353D01*
X146893688Y-80353128D01*
X146885216Y-80370806D01*
X146579195Y-81212363D01*
X146273174Y-80370806D01*
X146264702Y-80353128D01*
X146238350Y-80324353D01*
X146202992Y-80307853D01*
X146164012Y-80306139D01*
X146127343Y-80319473D01*
X146098568Y-80345825D01*
X146082068Y-80381183D01*
X146080354Y-80420163D01*
X145958132Y-80420163D01*
X145958132Y-80182758D01*
X152458560Y-80182758D01*
X152458560Y-81727202D01*
G37*
G36*
X165075606Y-80541710D02*
G01*
X165108891Y-80572222D01*
X165145863Y-80640004D01*
X165145863Y-80746146D01*
X165108891Y-80813928D01*
X165075606Y-80844440D01*
X164995467Y-80881171D01*
X164660149Y-80881171D01*
X164660149Y-80504980D01*
X164995467Y-80504980D01*
X165075606Y-80541710D01*
G37*
G36*
X168725228Y-81727202D02*
G01*
X162224800Y-81727202D01*
X162224800Y-80420163D01*
X162347022Y-80420163D01*
X162351884Y-80439154D01*
X162751884Y-81539154D01*
X162760356Y-81556832D01*
X162763357Y-81560109D01*
X162765236Y-81564135D01*
X162776443Y-81574399D01*
X162786708Y-81585607D01*
X162790733Y-81587485D01*
X162794011Y-81590487D01*
X162808299Y-81595682D01*
X162822066Y-81602107D01*
X162826502Y-81602302D01*
X162830680Y-81603821D01*
X162845863Y-81603153D01*
X162861046Y-81603821D01*
X162865223Y-81602302D01*
X162869660Y-81602107D01*
X162883426Y-81595682D01*
X162897715Y-81590487D01*
X162900992Y-81587485D01*
X162905018Y-81585607D01*
X162915282Y-81574399D01*
X162926490Y-81564135D01*
X162928368Y-81560109D01*
X162931370Y-81556832D01*
X162939842Y-81539154D01*
X163339842Y-80439154D01*
X163344704Y-80420163D01*
X163344036Y-80404980D01*
X164460149Y-80404980D01*
X164460149Y-81504980D01*
X164462070Y-81524489D01*
X164477002Y-81560537D01*
X164504592Y-81588127D01*
X164540640Y-81603059D01*
X164579658Y-81603059D01*
X164615706Y-81588127D01*
X164643296Y-81560537D01*
X164658228Y-81524489D01*
X164660149Y-81504980D01*
X164660149Y-81081171D01*
X165017292Y-81081171D01*
X165036801Y-81079250D01*
X165038539Y-81078529D01*
X165040422Y-81078460D01*
X165058958Y-81072077D01*
X165173242Y-81019696D01*
X165181005Y-81015169D01*
X165183470Y-81014272D01*
X165186691Y-81011854D01*
X165190177Y-81009822D01*
X165191963Y-81007897D01*
X165199149Y-81002505D01*
X165256292Y-80950125D01*
X165263444Y-80942143D01*
X165265481Y-80940501D01*
X165267261Y-80937883D01*
X165269375Y-80935526D01*
X165270480Y-80933154D01*
X165276510Y-80924294D01*
X165333652Y-80819532D01*
X165341308Y-80801486D01*
X165341881Y-80796131D01*
X165343942Y-80791156D01*
X165345863Y-80771647D01*
X165345863Y-80614504D01*
X165343942Y-80594995D01*
X165341881Y-80590019D01*
X165341308Y-80584665D01*
X165333652Y-80566619D01*
X165276510Y-80461857D01*
X165270480Y-80452996D01*
X165269375Y-80450625D01*
X165267261Y-80448267D01*
X165265481Y-80445650D01*
X165263444Y-80444007D01*
X165256292Y-80436026D01*
X165201140Y-80385471D01*
X165547784Y-80385471D01*
X165547784Y-80424489D01*
X165562716Y-80460537D01*
X165590306Y-80488127D01*
X165626354Y-80503059D01*
X165645863Y-80504980D01*
X166288720Y-80504980D01*
X165840989Y-81462627D01*
X165834466Y-81481113D01*
X165832726Y-81520093D01*
X165846034Y-81556771D01*
X165872365Y-81585565D01*
X165907710Y-81602091D01*
X165946690Y-81603831D01*
X165983368Y-81590523D01*
X166012162Y-81564192D01*
X166022165Y-81547333D01*
X166335844Y-80876409D01*
X167660149Y-80876409D01*
X167660149Y-81033552D01*
X167660643Y-81038569D01*
X167660393Y-81040537D01*
X167661450Y-81046766D01*
X167662070Y-81053061D01*
X167662829Y-81054895D01*
X167663673Y-81059864D01*
X167720815Y-81269387D01*
X167721724Y-81271771D01*
X167721847Y-81272915D01*
X167724962Y-81280260D01*
X167727802Y-81287703D01*
X167728505Y-81288610D01*
X167729502Y-81290961D01*
X167786645Y-81395723D01*
X167792673Y-81404581D01*
X167793779Y-81406954D01*
X167795893Y-81409313D01*
X167797674Y-81411930D01*
X167799709Y-81413572D01*
X167806862Y-81421553D01*
X167921147Y-81526315D01*
X167936826Y-81538082D01*
X167939341Y-81538997D01*
X167941403Y-81540697D01*
X167959499Y-81548235D01*
X168130928Y-81600615D01*
X168138334Y-81602104D01*
X168140640Y-81603059D01*
X168145430Y-81603530D01*
X168150147Y-81604479D01*
X168152629Y-81604239D01*
X168160149Y-81604980D01*
X168274435Y-81604980D01*
X168281955Y-81604239D01*
X168284438Y-81604479D01*
X168289155Y-81603530D01*
X168293944Y-81603059D01*
X168296248Y-81602104D01*
X168303656Y-81600615D01*
X168475085Y-81548235D01*
X168493181Y-81540697D01*
X168495244Y-81538996D01*
X168497756Y-81538082D01*
X168513435Y-81526315D01*
X168570578Y-81473935D01*
X168583661Y-81459336D01*
X168584593Y-81457335D01*
X168586153Y-81455776D01*
X168592806Y-81439712D01*
X168600144Y-81423970D01*
X168600239Y-81421768D01*
X168601085Y-81419728D01*
X168603006Y-81400219D01*
X168603006Y-81033552D01*
X168601085Y-81014043D01*
X168586153Y-80977995D01*
X168558563Y-80950405D01*
X168522515Y-80935473D01*
X168503006Y-80933552D01*
X168274435Y-80933552D01*
X168254926Y-80935473D01*
X168218878Y-80950405D01*
X168191288Y-80977995D01*
X168176356Y-81014043D01*
X168176356Y-81053061D01*
X168191288Y-81089109D01*
X168218878Y-81116699D01*
X168254926Y-81131631D01*
X168274435Y-81133552D01*
X168403006Y-81133552D01*
X168403006Y-81356229D01*
X168394984Y-81363582D01*
X168259500Y-81404980D01*
X168175084Y-81404980D01*
X168039599Y-81363582D01*
X167954262Y-81285356D01*
X167910686Y-81205466D01*
X167860149Y-81020161D01*
X167860149Y-80889799D01*
X167910686Y-80704494D01*
X167954262Y-80624604D01*
X168039599Y-80546378D01*
X168175086Y-80504980D01*
X168309753Y-80504980D01*
X168404197Y-80548267D01*
X168422732Y-80554650D01*
X168461724Y-80556095D01*
X168498300Y-80542510D01*
X168526894Y-80515961D01*
X168543151Y-80480491D01*
X168544597Y-80441500D01*
X168531011Y-80404923D01*
X168504463Y-80376329D01*
X168487528Y-80366455D01*
X168373244Y-80314074D01*
X168354708Y-80307691D01*
X168352825Y-80307621D01*
X168351087Y-80306901D01*
X168331578Y-80304980D01*
X168160149Y-80304980D01*
X168152628Y-80305720D01*
X168150146Y-80305481D01*
X168145428Y-80306429D01*
X168140640Y-80306901D01*
X168138335Y-80307855D01*
X168130927Y-80309345D01*
X167959498Y-80361726D01*
X167941402Y-80369264D01*
X167939339Y-80370963D01*
X167936826Y-80371879D01*
X167921147Y-80383646D01*
X167806862Y-80488408D01*
X167799709Y-80496388D01*
X167797674Y-80498031D01*
X167795893Y-80500647D01*
X167793779Y-80503007D01*
X167792673Y-80505379D01*
X167786645Y-80514238D01*
X167729502Y-80619000D01*
X167728505Y-80621350D01*
X167727802Y-80622258D01*
X167724962Y-80629700D01*
X167721847Y-80637046D01*
X167721724Y-80638189D01*
X167720815Y-80640574D01*
X167663673Y-80850097D01*
X167662829Y-80855065D01*
X167662070Y-80856900D01*
X167661450Y-80863194D01*
X167660393Y-80869424D01*
X167660643Y-80871391D01*
X167660149Y-80876409D01*
X166335844Y-80876409D01*
X166536451Y-80447333D01*
X166542974Y-80428846D01*
X166543075Y-80426581D01*
X166543942Y-80424489D01*
X166543942Y-80407161D01*
X166544714Y-80389867D01*
X166543942Y-80387739D01*
X166543942Y-80385471D01*
X166537310Y-80369460D01*
X166531406Y-80353188D01*
X166529876Y-80351515D01*
X166529010Y-80349423D01*
X166516770Y-80337183D01*
X166505075Y-80324394D01*
X166503020Y-80323433D01*
X166501420Y-80321833D01*
X166485434Y-80315211D01*
X166469730Y-80307869D01*
X166467464Y-80307767D01*
X166465372Y-80306901D01*
X166445863Y-80304980D01*
X165645863Y-80304980D01*
X165626354Y-80306901D01*
X165590306Y-80321833D01*
X165562716Y-80349423D01*
X165547784Y-80385471D01*
X165201140Y-80385471D01*
X165199149Y-80383646D01*
X165191963Y-80378253D01*
X165190177Y-80376329D01*
X165186691Y-80374296D01*
X165183470Y-80371879D01*
X165181005Y-80370981D01*
X165173242Y-80366455D01*
X165058958Y-80314074D01*
X165040422Y-80307691D01*
X165038539Y-80307621D01*
X165036801Y-80306901D01*
X165017292Y-80304980D01*
X164560149Y-80304980D01*
X164540640Y-80306901D01*
X164504592Y-80321833D01*
X164477002Y-80349423D01*
X164462070Y-80385471D01*
X164460149Y-80404980D01*
X163344036Y-80404980D01*
X163342990Y-80381183D01*
X163326490Y-80345825D01*
X163297715Y-80319473D01*
X163261046Y-80306139D01*
X163222066Y-80307853D01*
X163186708Y-80324353D01*
X163160356Y-80353128D01*
X163151884Y-80370806D01*
X162845863Y-81212363D01*
X162539842Y-80370806D01*
X162531370Y-80353128D01*
X162505018Y-80324353D01*
X162469660Y-80307853D01*
X162430680Y-80306139D01*
X162394011Y-80319473D01*
X162365236Y-80345825D01*
X162348736Y-80381183D01*
X162347022Y-80420163D01*
X162224800Y-80420163D01*
X162224800Y-80182758D01*
X168725228Y-80182758D01*
X168725228Y-81727202D01*
G37*
D12*
G36*
X159033207Y-100775847D02*
G01*
X158995264Y-100794819D01*
X158792579Y-100794819D01*
X158735537Y-100766298D01*
X158707017Y-100709256D01*
X158707017Y-100649428D01*
X158735537Y-100592386D01*
X158792579Y-100563866D01*
X159012969Y-100563866D01*
X159027601Y-100562425D01*
X159030090Y-100561393D01*
X159032778Y-100561203D01*
X159033207Y-100561038D01*
X159033207Y-100775847D01*
G37*
G36*
X162818128Y-101055930D02*
G01*
X157350668Y-101055930D01*
X157350668Y-99869819D01*
X157461779Y-99869819D01*
X157461779Y-100869819D01*
X157463220Y-100884451D01*
X157474419Y-100911487D01*
X157495111Y-100932179D01*
X157522147Y-100943378D01*
X157551411Y-100943378D01*
X157578447Y-100932179D01*
X157599139Y-100911487D01*
X157610338Y-100884451D01*
X157611779Y-100869819D01*
X157611779Y-100207886D01*
X157802148Y-100615821D01*
X157805322Y-100621180D01*
X157805982Y-100622993D01*
X157807156Y-100624275D01*
X157809642Y-100628471D01*
X157818051Y-100636171D01*
X157825746Y-100644574D01*
X157828764Y-100645982D01*
X157831223Y-100648234D01*
X157841935Y-100652129D01*
X157852264Y-100656950D01*
X157855592Y-100657096D01*
X157858724Y-100658235D01*
X157870118Y-100657734D01*
X157881500Y-100658234D01*
X157884628Y-100657096D01*
X157887960Y-100656950D01*
X157898295Y-100652126D01*
X157909001Y-100648234D01*
X157911456Y-100645984D01*
X157914478Y-100644575D01*
X157922179Y-100636164D01*
X157930582Y-100628470D01*
X157933065Y-100624277D01*
X157934242Y-100622993D01*
X157934902Y-100621177D01*
X157938076Y-100615820D01*
X158128445Y-100207886D01*
X158128445Y-100869819D01*
X158129886Y-100884451D01*
X158141085Y-100911487D01*
X158161777Y-100932179D01*
X158188813Y-100943378D01*
X158218077Y-100943378D01*
X158245113Y-100932179D01*
X158265805Y-100911487D01*
X158277004Y-100884451D01*
X158278445Y-100869819D01*
X158278445Y-100631723D01*
X158557017Y-100631723D01*
X158557017Y-100726961D01*
X158558458Y-100741593D01*
X158559489Y-100744082D01*
X158559680Y-100746770D01*
X158564935Y-100760502D01*
X158612554Y-100855741D01*
X158614094Y-100858187D01*
X158614479Y-100859342D01*
X158615725Y-100860779D01*
X158620386Y-100868183D01*
X158627488Y-100874342D01*
X158633652Y-100881450D01*
X158641057Y-100886111D01*
X158642494Y-100887357D01*
X158643647Y-100887741D01*
X158646095Y-100889282D01*
X158741333Y-100936901D01*
X158755064Y-100942156D01*
X158757753Y-100942347D01*
X158760242Y-100943378D01*
X158774874Y-100944819D01*
X159012969Y-100944819D01*
X159027601Y-100943378D01*
X159030090Y-100942346D01*
X159032778Y-100942156D01*
X159046510Y-100936901D01*
X159063010Y-100928650D01*
X159066539Y-100932179D01*
X159093575Y-100943378D01*
X159122839Y-100943378D01*
X159149875Y-100932179D01*
X159170567Y-100911487D01*
X159181766Y-100884451D01*
X159183207Y-100869819D01*
X159183207Y-100346009D01*
X159181766Y-100331377D01*
X159180735Y-100328888D01*
X159180544Y-100326199D01*
X159175289Y-100312468D01*
X159127670Y-100217230D01*
X159126129Y-100214782D01*
X159125745Y-100213629D01*
X159124499Y-100212192D01*
X159122436Y-100208915D01*
X159414382Y-100208915D01*
X159422279Y-100237093D01*
X159430186Y-100249489D01*
X159655682Y-100536485D01*
X159430186Y-100823482D01*
X159422279Y-100835878D01*
X159414382Y-100864056D01*
X159417868Y-100893110D01*
X159432208Y-100918620D01*
X159455219Y-100936700D01*
X159483397Y-100944597D01*
X159512451Y-100941111D01*
X159537961Y-100926771D01*
X159548134Y-100916156D01*
X159751064Y-100657880D01*
X159953995Y-100916156D01*
X159964168Y-100926771D01*
X159989678Y-100941111D01*
X160018732Y-100944597D01*
X160046910Y-100936700D01*
X160069921Y-100918620D01*
X160084261Y-100893110D01*
X160087747Y-100864056D01*
X160079850Y-100835878D01*
X160071943Y-100823482D01*
X159846446Y-100536485D01*
X159853816Y-100527105D01*
X161033797Y-100527105D01*
X161034649Y-100539090D01*
X161034649Y-100551117D01*
X161035681Y-100553608D01*
X161035872Y-100556295D01*
X161041246Y-100567044D01*
X161045848Y-100578153D01*
X161047753Y-100580058D01*
X161048958Y-100582468D01*
X161058040Y-100590345D01*
X161066540Y-100598845D01*
X161069028Y-100599875D01*
X161071065Y-100601642D01*
X161082468Y-100605443D01*
X161093576Y-100610044D01*
X161097402Y-100610420D01*
X161098828Y-100610896D01*
X161100802Y-100610755D01*
X161108208Y-100611485D01*
X161509398Y-100611485D01*
X161509398Y-100869819D01*
X161510839Y-100884451D01*
X161522038Y-100911487D01*
X161542730Y-100932179D01*
X161569766Y-100943378D01*
X161599030Y-100943378D01*
X161626066Y-100932179D01*
X161646758Y-100911487D01*
X161657957Y-100884451D01*
X161659398Y-100869819D01*
X161659398Y-100611485D01*
X161727255Y-100611485D01*
X161741887Y-100610044D01*
X161768923Y-100598845D01*
X161789615Y-100578153D01*
X161800814Y-100551117D01*
X161800814Y-100521853D01*
X161789615Y-100494817D01*
X161768923Y-100474125D01*
X161741887Y-100462926D01*
X161727255Y-100461485D01*
X161659398Y-100461485D01*
X161659398Y-100203152D01*
X161657957Y-100188520D01*
X161646758Y-100161484D01*
X161626066Y-100140792D01*
X161599030Y-100129593D01*
X161569766Y-100129593D01*
X161542730Y-100140792D01*
X161522038Y-100161484D01*
X161510839Y-100188520D01*
X161509398Y-100203152D01*
X161509398Y-100461485D01*
X161212265Y-100461485D01*
X161345995Y-100060295D01*
X161985589Y-100060295D01*
X161985589Y-100155533D01*
X161987030Y-100170165D01*
X161988061Y-100172654D01*
X161988252Y-100175342D01*
X161993507Y-100189074D01*
X162041126Y-100284312D01*
X162045090Y-100290611D01*
X162045848Y-100292439D01*
X162047536Y-100294495D01*
X162048958Y-100296755D01*
X162050456Y-100298054D01*
X162055175Y-100303804D01*
X162102794Y-100351423D01*
X162108543Y-100356141D01*
X162109843Y-100357640D01*
X162112102Y-100359061D01*
X162114159Y-100360750D01*
X162115986Y-100361507D01*
X162122286Y-100365472D01*
X162217524Y-100413091D01*
X162218593Y-100413500D01*
X162219029Y-100413823D01*
X162225165Y-100416015D01*
X162231255Y-100418346D01*
X162231795Y-100418384D01*
X162232875Y-100418770D01*
X162415365Y-100464392D01*
X162492352Y-100502886D01*
X162522759Y-100533293D01*
X162557017Y-100601809D01*
X162557017Y-100661637D01*
X162522758Y-100730153D01*
X162492351Y-100760561D01*
X162423836Y-100794819D01*
X162215616Y-100794819D01*
X162084306Y-100751049D01*
X162069969Y-100747789D01*
X162040779Y-100749864D01*
X162014606Y-100762950D01*
X161995432Y-100785057D01*
X161986178Y-100812820D01*
X161988253Y-100842010D01*
X162001339Y-100868183D01*
X162023446Y-100887357D01*
X162036872Y-100893351D01*
X162179728Y-100940970D01*
X162186983Y-100942619D01*
X162188814Y-100943378D01*
X162191467Y-100943639D01*
X162194065Y-100944230D01*
X162196039Y-100944089D01*
X162203446Y-100944819D01*
X162441541Y-100944819D01*
X162456173Y-100943378D01*
X162458662Y-100942346D01*
X162461350Y-100942156D01*
X162475082Y-100936901D01*
X162570320Y-100889282D01*
X162576619Y-100885317D01*
X162578447Y-100884560D01*
X162580503Y-100882872D01*
X162582763Y-100881450D01*
X162584063Y-100879950D01*
X162589813Y-100875232D01*
X162637431Y-100827613D01*
X162642149Y-100821863D01*
X162643648Y-100820564D01*
X162645069Y-100818305D01*
X162646759Y-100816247D01*
X162647516Y-100814417D01*
X162651480Y-100808121D01*
X162699099Y-100712883D01*
X162704354Y-100699152D01*
X162704545Y-100696462D01*
X162705576Y-100693974D01*
X162707017Y-100679342D01*
X162707017Y-100584104D01*
X162705576Y-100569472D01*
X162704545Y-100566983D01*
X162704354Y-100564294D01*
X162699099Y-100550563D01*
X162651480Y-100455325D01*
X162647515Y-100449025D01*
X162646758Y-100447198D01*
X162645069Y-100445141D01*
X162643648Y-100442882D01*
X162642149Y-100441582D01*
X162637431Y-100435833D01*
X162589812Y-100388214D01*
X162584062Y-100383495D01*
X162582763Y-100381997D01*
X162580503Y-100380575D01*
X162578447Y-100378887D01*
X162576619Y-100378129D01*
X162570320Y-100374165D01*
X162475082Y-100326546D01*
X162474012Y-100326136D01*
X162473577Y-100325814D01*
X162467431Y-100323618D01*
X162461350Y-100321291D01*
X162460810Y-100321252D01*
X162459731Y-100320867D01*
X162277241Y-100275244D01*
X162200254Y-100236751D01*
X162169847Y-100206344D01*
X162135589Y-100137828D01*
X162135589Y-100078000D01*
X162169847Y-100009484D01*
X162200254Y-99979077D01*
X162268770Y-99944819D01*
X162476990Y-99944819D01*
X162608299Y-99988589D01*
X162622636Y-99991849D01*
X162651826Y-99989774D01*
X162678000Y-99976688D01*
X162697174Y-99954580D01*
X162706428Y-99926818D01*
X162704353Y-99897628D01*
X162691266Y-99871455D01*
X162669159Y-99852281D01*
X162655734Y-99846287D01*
X162512877Y-99798668D01*
X162505623Y-99797018D01*
X162503792Y-99796260D01*
X162501137Y-99795998D01*
X162498540Y-99795408D01*
X162496565Y-99795548D01*
X162489160Y-99794819D01*
X162251065Y-99794819D01*
X162236433Y-99796260D01*
X162233944Y-99797290D01*
X162231255Y-99797482D01*
X162217524Y-99802737D01*
X162122286Y-99850356D01*
X162115986Y-99854320D01*
X162114159Y-99855078D01*
X162112102Y-99856766D01*
X162109843Y-99858188D01*
X162108543Y-99859686D01*
X162102794Y-99864405D01*
X162055175Y-99912024D01*
X162050456Y-99917773D01*
X162048958Y-99919073D01*
X162047536Y-99921332D01*
X162045848Y-99923389D01*
X162045090Y-99925216D01*
X162041126Y-99931516D01*
X161993507Y-100026754D01*
X161988252Y-100040486D01*
X161988061Y-100043173D01*
X161987030Y-100045663D01*
X161985589Y-100060295D01*
X161345995Y-100060295D01*
X161417454Y-99845918D01*
X161420714Y-99831581D01*
X161418639Y-99802391D01*
X161405553Y-99776217D01*
X161383445Y-99757043D01*
X161355683Y-99747789D01*
X161326493Y-99749864D01*
X161300320Y-99762951D01*
X161281146Y-99785058D01*
X161275152Y-99798483D01*
X161037057Y-100512768D01*
X161035407Y-100520021D01*
X161034649Y-100521853D01*
X161034649Y-100523358D01*
X161033797Y-100527105D01*
X159853816Y-100527105D01*
X160071943Y-100249489D01*
X160079850Y-100237093D01*
X160087747Y-100208915D01*
X160084261Y-100179861D01*
X160069921Y-100154351D01*
X160046910Y-100136271D01*
X160018732Y-100128374D01*
X159989678Y-100131860D01*
X159964168Y-100146200D01*
X159953995Y-100156815D01*
X159751064Y-100415090D01*
X159548134Y-100156815D01*
X159537961Y-100146200D01*
X159512451Y-100131860D01*
X159483397Y-100128374D01*
X159455219Y-100136271D01*
X159432208Y-100154351D01*
X159417868Y-100179861D01*
X159414382Y-100208915D01*
X159122436Y-100208915D01*
X159119838Y-100204787D01*
X159112733Y-100198625D01*
X159106572Y-100191521D01*
X159099166Y-100186859D01*
X159097730Y-100185614D01*
X159096576Y-100185229D01*
X159094129Y-100183689D01*
X158998891Y-100136070D01*
X158985159Y-100130815D01*
X158982471Y-100130624D01*
X158979982Y-100129593D01*
X158965350Y-100128152D01*
X158774874Y-100128152D01*
X158760242Y-100129593D01*
X158757753Y-100130623D01*
X158755064Y-100130815D01*
X158741333Y-100136070D01*
X158646095Y-100183689D01*
X158633652Y-100191521D01*
X158614479Y-100213629D01*
X158605225Y-100241390D01*
X158607299Y-100270580D01*
X158620386Y-100296755D01*
X158642494Y-100315928D01*
X158670255Y-100325182D01*
X158699445Y-100323108D01*
X158713177Y-100317853D01*
X158792579Y-100278152D01*
X158947645Y-100278152D01*
X159004686Y-100306672D01*
X159033207Y-100363714D01*
X159033207Y-100394894D01*
X158995264Y-100413866D01*
X158774874Y-100413866D01*
X158760242Y-100415307D01*
X158757753Y-100416337D01*
X158755064Y-100416529D01*
X158741333Y-100421784D01*
X158646095Y-100469403D01*
X158643647Y-100470943D01*
X158642494Y-100471328D01*
X158641057Y-100472573D01*
X158633652Y-100477235D01*
X158627490Y-100484339D01*
X158620386Y-100490501D01*
X158615724Y-100497906D01*
X158614479Y-100499343D01*
X158614094Y-100500496D01*
X158612554Y-100502944D01*
X158564935Y-100598182D01*
X158559680Y-100611914D01*
X158559489Y-100614601D01*
X158558458Y-100617091D01*
X158557017Y-100631723D01*
X158278445Y-100631723D01*
X158278445Y-99869819D01*
X158277497Y-99860197D01*
X158277575Y-99858431D01*
X158277230Y-99857482D01*
X158277004Y-99855187D01*
X158272022Y-99843160D01*
X158267575Y-99830930D01*
X158266445Y-99829696D01*
X158265805Y-99828151D01*
X158256605Y-99818951D01*
X158247811Y-99809348D01*
X158246294Y-99808640D01*
X158245113Y-99807459D01*
X158233100Y-99802482D01*
X158221293Y-99796973D01*
X158219620Y-99796899D01*
X158218077Y-99796260D01*
X158205071Y-99796260D01*
X158192057Y-99795688D01*
X158190484Y-99796260D01*
X158188813Y-99796260D01*
X158176794Y-99801238D01*
X158164556Y-99805689D01*
X158163322Y-99806819D01*
X158161777Y-99807459D01*
X158152578Y-99816657D01*
X158142975Y-99825452D01*
X158141799Y-99827436D01*
X158141085Y-99828151D01*
X158140408Y-99829784D01*
X158135481Y-99838102D01*
X157870111Y-100406750D01*
X157604743Y-99838103D01*
X157599817Y-99829787D01*
X157599139Y-99828151D01*
X157598423Y-99827435D01*
X157597249Y-99825453D01*
X157587652Y-99816664D01*
X157578447Y-99807459D01*
X157576901Y-99806818D01*
X157575668Y-99805689D01*
X157563437Y-99801241D01*
X157551411Y-99796260D01*
X157549737Y-99796260D01*
X157548167Y-99795689D01*
X157535166Y-99796260D01*
X157522147Y-99796260D01*
X157520602Y-99796899D01*
X157518931Y-99796973D01*
X157507132Y-99802479D01*
X157495111Y-99807459D01*
X157493928Y-99808641D01*
X157492413Y-99809349D01*
X157483624Y-99818945D01*
X157474419Y-99828151D01*
X157473778Y-99829696D01*
X157472649Y-99830930D01*
X157468201Y-99843160D01*
X157463220Y-99855187D01*
X157462993Y-99857482D01*
X157462649Y-99858431D01*
X157462726Y-99860197D01*
X157461779Y-99869819D01*
X157350668Y-99869819D01*
X157350668Y-99636678D01*
X162818128Y-99636678D01*
X162818128Y-101055930D01*
G37*
D10*
G36*
X116275606Y-80541710D02*
G01*
X116308891Y-80572222D01*
X116345863Y-80640004D01*
X116345863Y-80746146D01*
X116308891Y-80813928D01*
X116275606Y-80844440D01*
X116195467Y-80881171D01*
X115860149Y-80881171D01*
X115860149Y-80504980D01*
X116195467Y-80504980D01*
X116275606Y-80541710D01*
G37*
G36*
X119925228Y-81727202D02*
G01*
X113424800Y-81727202D01*
X113424800Y-80420163D01*
X113547022Y-80420163D01*
X113551884Y-80439154D01*
X113951884Y-81539154D01*
X113960356Y-81556832D01*
X113963357Y-81560109D01*
X113965236Y-81564135D01*
X113976443Y-81574399D01*
X113986708Y-81585607D01*
X113990733Y-81587485D01*
X113994011Y-81590487D01*
X114008299Y-81595682D01*
X114022066Y-81602107D01*
X114026502Y-81602302D01*
X114030680Y-81603821D01*
X114045863Y-81603153D01*
X114061046Y-81603821D01*
X114065223Y-81602302D01*
X114069660Y-81602107D01*
X114083426Y-81595682D01*
X114097715Y-81590487D01*
X114100992Y-81587485D01*
X114105018Y-81585607D01*
X114115282Y-81574399D01*
X114126490Y-81564135D01*
X114128368Y-81560109D01*
X114131370Y-81556832D01*
X114139842Y-81539154D01*
X114539842Y-80439154D01*
X114544704Y-80420163D01*
X114544036Y-80404980D01*
X115660149Y-80404980D01*
X115660149Y-81504980D01*
X115662070Y-81524489D01*
X115677002Y-81560537D01*
X115704592Y-81588127D01*
X115740640Y-81603059D01*
X115779658Y-81603059D01*
X115815706Y-81588127D01*
X115843296Y-81560537D01*
X115858228Y-81524489D01*
X115860149Y-81504980D01*
X115860149Y-81123131D01*
X116804165Y-81123131D01*
X116804927Y-81140460D01*
X116804927Y-81157823D01*
X116805781Y-81159884D01*
X116805879Y-81162111D01*
X116813214Y-81177831D01*
X116819859Y-81193871D01*
X116821435Y-81195447D01*
X116822379Y-81197469D01*
X116835181Y-81209193D01*
X116847449Y-81221461D01*
X116849508Y-81222314D01*
X116851154Y-81223821D01*
X116867466Y-81229752D01*
X116883497Y-81236393D01*
X116886555Y-81236694D01*
X116887823Y-81237155D01*
X116890182Y-81237051D01*
X116903006Y-81238314D01*
X117374435Y-81238314D01*
X117374435Y-81504980D01*
X117376356Y-81524489D01*
X117391288Y-81560537D01*
X117418878Y-81588127D01*
X117454926Y-81603059D01*
X117493944Y-81603059D01*
X117529992Y-81588127D01*
X117557582Y-81560537D01*
X117572514Y-81524489D01*
X117574435Y-81504980D01*
X117574435Y-81238314D01*
X117645863Y-81238314D01*
X117665372Y-81236393D01*
X117701420Y-81221461D01*
X117729010Y-81193871D01*
X117743942Y-81157823D01*
X117743942Y-81118805D01*
X117729010Y-81082757D01*
X117701420Y-81055167D01*
X117665372Y-81040235D01*
X117645863Y-81038314D01*
X117574435Y-81038314D01*
X117574435Y-80876409D01*
X118860149Y-80876409D01*
X118860149Y-81033552D01*
X118860643Y-81038569D01*
X118860393Y-81040537D01*
X118861450Y-81046766D01*
X118862070Y-81053061D01*
X118862829Y-81054895D01*
X118863673Y-81059864D01*
X118920815Y-81269387D01*
X118921724Y-81271771D01*
X118921847Y-81272915D01*
X118924962Y-81280260D01*
X118927802Y-81287703D01*
X118928505Y-81288610D01*
X118929502Y-81290961D01*
X118986645Y-81395723D01*
X118992673Y-81404581D01*
X118993779Y-81406954D01*
X118995893Y-81409313D01*
X118997674Y-81411930D01*
X118999709Y-81413572D01*
X119006862Y-81421553D01*
X119121147Y-81526315D01*
X119136826Y-81538082D01*
X119139341Y-81538997D01*
X119141403Y-81540697D01*
X119159499Y-81548235D01*
X119330928Y-81600615D01*
X119338334Y-81602104D01*
X119340640Y-81603059D01*
X119345430Y-81603530D01*
X119350147Y-81604479D01*
X119352629Y-81604239D01*
X119360149Y-81604980D01*
X119474435Y-81604980D01*
X119481955Y-81604239D01*
X119484438Y-81604479D01*
X119489155Y-81603530D01*
X119493944Y-81603059D01*
X119496248Y-81602104D01*
X119503656Y-81600615D01*
X119675085Y-81548235D01*
X119693181Y-81540697D01*
X119695244Y-81538996D01*
X119697756Y-81538082D01*
X119713435Y-81526315D01*
X119770578Y-81473935D01*
X119783661Y-81459336D01*
X119784593Y-81457335D01*
X119786153Y-81455776D01*
X119792806Y-81439712D01*
X119800144Y-81423970D01*
X119800239Y-81421768D01*
X119801085Y-81419728D01*
X119803006Y-81400219D01*
X119803006Y-81033552D01*
X119801085Y-81014043D01*
X119786153Y-80977995D01*
X119758563Y-80950405D01*
X119722515Y-80935473D01*
X119703006Y-80933552D01*
X119474435Y-80933552D01*
X119454926Y-80935473D01*
X119418878Y-80950405D01*
X119391288Y-80977995D01*
X119376356Y-81014043D01*
X119376356Y-81053061D01*
X119391288Y-81089109D01*
X119418878Y-81116699D01*
X119454926Y-81131631D01*
X119474435Y-81133552D01*
X119603006Y-81133552D01*
X119603006Y-81356229D01*
X119594984Y-81363582D01*
X119459500Y-81404980D01*
X119375084Y-81404980D01*
X119239599Y-81363582D01*
X119154262Y-81285356D01*
X119110686Y-81205466D01*
X119060149Y-81020161D01*
X119060149Y-80889799D01*
X119110686Y-80704494D01*
X119154262Y-80624604D01*
X119239599Y-80546378D01*
X119375086Y-80504980D01*
X119509753Y-80504980D01*
X119604197Y-80548267D01*
X119622732Y-80554650D01*
X119661724Y-80556095D01*
X119698300Y-80542510D01*
X119726894Y-80515961D01*
X119743151Y-80480491D01*
X119744597Y-80441500D01*
X119731011Y-80404923D01*
X119704463Y-80376329D01*
X119687528Y-80366455D01*
X119573244Y-80314074D01*
X119554708Y-80307691D01*
X119552825Y-80307621D01*
X119551087Y-80306901D01*
X119531578Y-80304980D01*
X119360149Y-80304980D01*
X119352628Y-80305720D01*
X119350146Y-80305481D01*
X119345428Y-80306429D01*
X119340640Y-80306901D01*
X119338335Y-80307855D01*
X119330927Y-80309345D01*
X119159498Y-80361726D01*
X119141402Y-80369264D01*
X119139339Y-80370963D01*
X119136826Y-80371879D01*
X119121147Y-80383646D01*
X119006862Y-80488408D01*
X118999709Y-80496388D01*
X118997674Y-80498031D01*
X118995893Y-80500647D01*
X118993779Y-80503007D01*
X118992673Y-80505379D01*
X118986645Y-80514238D01*
X118929502Y-80619000D01*
X118928505Y-80621350D01*
X118927802Y-80622258D01*
X118924962Y-80629700D01*
X118921847Y-80637046D01*
X118921724Y-80638189D01*
X118920815Y-80640574D01*
X118863673Y-80850097D01*
X118862829Y-80855065D01*
X118862070Y-80856900D01*
X118861450Y-80863194D01*
X118860393Y-80869424D01*
X118860643Y-80871391D01*
X118860149Y-80876409D01*
X117574435Y-80876409D01*
X117574435Y-80771647D01*
X117572514Y-80752138D01*
X117557582Y-80716090D01*
X117529992Y-80688500D01*
X117493944Y-80673568D01*
X117454926Y-80673568D01*
X117418878Y-80688500D01*
X117391288Y-80716090D01*
X117376356Y-80752138D01*
X117374435Y-80771647D01*
X117374435Y-81038314D01*
X117045776Y-81038314D01*
X117282699Y-80386774D01*
X117287561Y-80367783D01*
X117285847Y-80328802D01*
X117269347Y-80293445D01*
X117240572Y-80267093D01*
X117203903Y-80253759D01*
X117164923Y-80255472D01*
X117129565Y-80271973D01*
X117103213Y-80300747D01*
X117094741Y-80318425D01*
X116809027Y-81104140D01*
X116805831Y-81116621D01*
X116804927Y-81118805D01*
X116804927Y-81120154D01*
X116804165Y-81123131D01*
X115860149Y-81123131D01*
X115860149Y-81081171D01*
X116217292Y-81081171D01*
X116236801Y-81079250D01*
X116238539Y-81078529D01*
X116240422Y-81078460D01*
X116258958Y-81072077D01*
X116373242Y-81019696D01*
X116381005Y-81015169D01*
X116383470Y-81014272D01*
X116386691Y-81011854D01*
X116390177Y-81009822D01*
X116391963Y-81007897D01*
X116399149Y-81002505D01*
X116456292Y-80950125D01*
X116463444Y-80942143D01*
X116465481Y-80940501D01*
X116467261Y-80937883D01*
X116469375Y-80935526D01*
X116470480Y-80933154D01*
X116476510Y-80924294D01*
X116533652Y-80819532D01*
X116541308Y-80801486D01*
X116541881Y-80796131D01*
X116543942Y-80791156D01*
X116545863Y-80771647D01*
X116545863Y-80614504D01*
X116543942Y-80594995D01*
X116541881Y-80590019D01*
X116541308Y-80584665D01*
X116533652Y-80566619D01*
X116476510Y-80461857D01*
X116470480Y-80452996D01*
X116469375Y-80450625D01*
X116467261Y-80448267D01*
X116465481Y-80445650D01*
X116463444Y-80444007D01*
X116456292Y-80436026D01*
X116399149Y-80383646D01*
X116391963Y-80378253D01*
X116390177Y-80376329D01*
X116386691Y-80374296D01*
X116383470Y-80371879D01*
X116381005Y-80370981D01*
X116373242Y-80366455D01*
X116258958Y-80314074D01*
X116240422Y-80307691D01*
X116238539Y-80307621D01*
X116236801Y-80306901D01*
X116217292Y-80304980D01*
X115760149Y-80304980D01*
X115740640Y-80306901D01*
X115704592Y-80321833D01*
X115677002Y-80349423D01*
X115662070Y-80385471D01*
X115660149Y-80404980D01*
X114544036Y-80404980D01*
X114542990Y-80381183D01*
X114526490Y-80345825D01*
X114497715Y-80319473D01*
X114461046Y-80306139D01*
X114422066Y-80307853D01*
X114386708Y-80324353D01*
X114360356Y-80353128D01*
X114351884Y-80370806D01*
X114045863Y-81212363D01*
X113739842Y-80370806D01*
X113731370Y-80353128D01*
X113705018Y-80324353D01*
X113669660Y-80307853D01*
X113630680Y-80306139D01*
X113594011Y-80319473D01*
X113565236Y-80345825D01*
X113548736Y-80381183D01*
X113547022Y-80420163D01*
X113424800Y-80420163D01*
X113424800Y-80131537D01*
X119925228Y-80131537D01*
X119925228Y-81727202D01*
G37*
G36*
X166218462Y-88263138D02*
G01*
X166251748Y-88293651D01*
X166288720Y-88361433D01*
X166288720Y-88519956D01*
X166251748Y-88587738D01*
X166218463Y-88618249D01*
X166138324Y-88654980D01*
X165953402Y-88654980D01*
X165873262Y-88618249D01*
X165839976Y-88587738D01*
X165803006Y-88519957D01*
X165803006Y-88361432D01*
X165839976Y-88293651D01*
X165873264Y-88263138D01*
X165953401Y-88226409D01*
X166138324Y-88226409D01*
X166218462Y-88263138D01*
G37*
G36*
X166218462Y-87791709D02*
G01*
X166251748Y-87822222D01*
X166288720Y-87890004D01*
X166288720Y-87891384D01*
X166251748Y-87959166D01*
X166218462Y-87989679D01*
X166138324Y-88026409D01*
X165953401Y-88026409D01*
X165873264Y-87989679D01*
X165839976Y-87959166D01*
X165803006Y-87891385D01*
X165803006Y-87890003D01*
X165839976Y-87822222D01*
X165873264Y-87791709D01*
X165953401Y-87754980D01*
X166138324Y-87754980D01*
X166218462Y-87791709D01*
G37*
G36*
X165075606Y-87791710D02*
G01*
X165108891Y-87822222D01*
X165145863Y-87890004D01*
X165145863Y-87996146D01*
X165108891Y-88063928D01*
X165075606Y-88094440D01*
X164995467Y-88131171D01*
X164660149Y-88131171D01*
X164660149Y-87754980D01*
X164995467Y-87754980D01*
X165075606Y-87791710D01*
G37*
G36*
X168725228Y-88977202D02*
G01*
X162224800Y-88977202D01*
X162224800Y-87670163D01*
X162347022Y-87670163D01*
X162351884Y-87689154D01*
X162751884Y-88789154D01*
X162760356Y-88806832D01*
X162763357Y-88810109D01*
X162765236Y-88814135D01*
X162776443Y-88824399D01*
X162786708Y-88835607D01*
X162790733Y-88837485D01*
X162794011Y-88840487D01*
X162808299Y-88845682D01*
X162822066Y-88852107D01*
X162826502Y-88852302D01*
X162830680Y-88853821D01*
X162845863Y-88853153D01*
X162861046Y-88853821D01*
X162865223Y-88852302D01*
X162869660Y-88852107D01*
X162883426Y-88845682D01*
X162897715Y-88840487D01*
X162900992Y-88837485D01*
X162905018Y-88835607D01*
X162915282Y-88824399D01*
X162926490Y-88814135D01*
X162928368Y-88810109D01*
X162931370Y-88806832D01*
X162939842Y-88789154D01*
X163339842Y-87689154D01*
X163344704Y-87670163D01*
X163344036Y-87654980D01*
X164460149Y-87654980D01*
X164460149Y-88754980D01*
X164462070Y-88774489D01*
X164477002Y-88810537D01*
X164504592Y-88838127D01*
X164540640Y-88853059D01*
X164579658Y-88853059D01*
X164615706Y-88838127D01*
X164643296Y-88810537D01*
X164658228Y-88774489D01*
X164660149Y-88754980D01*
X164660149Y-88331171D01*
X165017292Y-88331171D01*
X165036801Y-88329250D01*
X165038539Y-88328529D01*
X165040422Y-88328460D01*
X165058958Y-88322077D01*
X165173242Y-88269696D01*
X165181005Y-88265169D01*
X165183470Y-88264272D01*
X165186691Y-88261854D01*
X165190177Y-88259822D01*
X165191963Y-88257897D01*
X165199149Y-88252505D01*
X165256292Y-88200125D01*
X165263444Y-88192143D01*
X165265481Y-88190501D01*
X165267261Y-88187883D01*
X165269375Y-88185526D01*
X165270480Y-88183154D01*
X165276510Y-88174294D01*
X165333652Y-88069532D01*
X165341308Y-88051486D01*
X165341881Y-88046131D01*
X165343942Y-88041156D01*
X165345863Y-88021647D01*
X165345863Y-87864504D01*
X165603006Y-87864504D01*
X165603006Y-87916885D01*
X165604927Y-87936394D01*
X165606987Y-87941369D01*
X165607561Y-87946724D01*
X165615216Y-87964770D01*
X165672359Y-88069532D01*
X165678388Y-88078392D01*
X165679494Y-88080764D01*
X165681606Y-88083121D01*
X165683388Y-88085739D01*
X165685425Y-88087382D01*
X165692577Y-88095362D01*
X165726445Y-88126409D01*
X165692577Y-88157456D01*
X165685425Y-88165435D01*
X165683388Y-88167079D01*
X165681606Y-88169696D01*
X165679494Y-88172054D01*
X165678388Y-88174425D01*
X165672359Y-88183286D01*
X165615216Y-88288048D01*
X165607561Y-88306094D01*
X165606987Y-88311448D01*
X165604927Y-88316424D01*
X165603006Y-88335933D01*
X165603006Y-88545457D01*
X165604927Y-88564966D01*
X165606987Y-88569941D01*
X165607561Y-88575296D01*
X165615216Y-88593342D01*
X165672359Y-88698104D01*
X165678388Y-88706964D01*
X165679494Y-88709336D01*
X165681606Y-88711693D01*
X165683388Y-88714311D01*
X165685425Y-88715954D01*
X165692577Y-88723934D01*
X165749719Y-88776315D01*
X165756906Y-88781708D01*
X165758692Y-88783632D01*
X165762177Y-88785664D01*
X165765399Y-88788082D01*
X165767861Y-88788978D01*
X165775627Y-88793507D01*
X165889912Y-88845887D01*
X165908447Y-88852269D01*
X165910329Y-88852338D01*
X165912068Y-88853059D01*
X165931577Y-88854980D01*
X166160149Y-88854980D01*
X166179658Y-88853059D01*
X166181396Y-88852338D01*
X166183278Y-88852269D01*
X166201814Y-88845887D01*
X166316100Y-88793507D01*
X166323864Y-88788979D01*
X166326329Y-88788082D01*
X166329553Y-88785662D01*
X166333035Y-88783632D01*
X166334819Y-88781709D01*
X166342008Y-88776315D01*
X166399150Y-88723934D01*
X166406302Y-88715953D01*
X166408338Y-88714311D01*
X166410118Y-88711694D01*
X166412233Y-88709335D01*
X166413338Y-88706962D01*
X166419367Y-88698104D01*
X166476509Y-88593342D01*
X166484165Y-88575296D01*
X166484738Y-88569941D01*
X166486799Y-88564966D01*
X166488720Y-88545457D01*
X166488720Y-88335933D01*
X166486799Y-88316424D01*
X166484738Y-88311448D01*
X166484165Y-88306094D01*
X166476509Y-88288048D01*
X166419367Y-88183286D01*
X166413338Y-88174427D01*
X166412233Y-88172055D01*
X166410118Y-88169695D01*
X166408338Y-88167079D01*
X166406302Y-88165436D01*
X166399150Y-88157456D01*
X166365281Y-88126409D01*
X167660149Y-88126409D01*
X167660149Y-88283552D01*
X167660643Y-88288569D01*
X167660393Y-88290537D01*
X167661450Y-88296766D01*
X167662070Y-88303061D01*
X167662829Y-88304895D01*
X167663673Y-88309864D01*
X167720815Y-88519387D01*
X167721724Y-88521771D01*
X167721847Y-88522915D01*
X167724962Y-88530260D01*
X167727802Y-88537703D01*
X167728505Y-88538610D01*
X167729502Y-88540961D01*
X167786645Y-88645723D01*
X167792673Y-88654581D01*
X167793779Y-88656954D01*
X167795893Y-88659313D01*
X167797674Y-88661930D01*
X167799709Y-88663572D01*
X167806862Y-88671553D01*
X167921147Y-88776315D01*
X167936826Y-88788082D01*
X167939341Y-88788997D01*
X167941403Y-88790697D01*
X167959499Y-88798235D01*
X168130928Y-88850615D01*
X168138334Y-88852104D01*
X168140640Y-88853059D01*
X168145430Y-88853530D01*
X168150147Y-88854479D01*
X168152629Y-88854239D01*
X168160149Y-88854980D01*
X168274435Y-88854980D01*
X168281955Y-88854239D01*
X168284438Y-88854479D01*
X168289155Y-88853530D01*
X168293944Y-88853059D01*
X168296248Y-88852104D01*
X168303656Y-88850615D01*
X168475085Y-88798235D01*
X168493181Y-88790697D01*
X168495244Y-88788996D01*
X168497756Y-88788082D01*
X168513435Y-88776315D01*
X168570578Y-88723935D01*
X168583661Y-88709336D01*
X168584593Y-88707335D01*
X168586153Y-88705776D01*
X168592806Y-88689712D01*
X168600144Y-88673970D01*
X168600239Y-88671768D01*
X168601085Y-88669728D01*
X168603006Y-88650219D01*
X168603006Y-88283552D01*
X168601085Y-88264043D01*
X168586153Y-88227995D01*
X168558563Y-88200405D01*
X168522515Y-88185473D01*
X168503006Y-88183552D01*
X168274435Y-88183552D01*
X168254926Y-88185473D01*
X168218878Y-88200405D01*
X168191288Y-88227995D01*
X168176356Y-88264043D01*
X168176356Y-88303061D01*
X168191288Y-88339109D01*
X168218878Y-88366699D01*
X168254926Y-88381631D01*
X168274435Y-88383552D01*
X168403006Y-88383552D01*
X168403006Y-88606229D01*
X168394984Y-88613582D01*
X168259500Y-88654980D01*
X168175084Y-88654980D01*
X168039599Y-88613582D01*
X167954262Y-88535356D01*
X167910686Y-88455466D01*
X167860149Y-88270161D01*
X167860149Y-88139799D01*
X167910686Y-87954494D01*
X167954262Y-87874604D01*
X168039599Y-87796378D01*
X168175086Y-87754980D01*
X168309753Y-87754980D01*
X168404197Y-87798267D01*
X168422732Y-87804650D01*
X168461724Y-87806095D01*
X168498300Y-87792510D01*
X168526894Y-87765961D01*
X168543151Y-87730491D01*
X168544597Y-87691500D01*
X168531011Y-87654923D01*
X168504463Y-87626329D01*
X168487528Y-87616455D01*
X168373244Y-87564074D01*
X168354708Y-87557691D01*
X168352825Y-87557621D01*
X168351087Y-87556901D01*
X168331578Y-87554980D01*
X168160149Y-87554980D01*
X168152628Y-87555720D01*
X168150146Y-87555481D01*
X168145428Y-87556429D01*
X168140640Y-87556901D01*
X168138335Y-87557855D01*
X168130927Y-87559345D01*
X167959498Y-87611726D01*
X167941402Y-87619264D01*
X167939339Y-87620963D01*
X167936826Y-87621879D01*
X167921147Y-87633646D01*
X167806862Y-87738408D01*
X167799709Y-87746388D01*
X167797674Y-87748031D01*
X167795893Y-87750647D01*
X167793779Y-87753007D01*
X167792673Y-87755379D01*
X167786645Y-87764238D01*
X167729502Y-87869000D01*
X167728505Y-87871350D01*
X167727802Y-87872258D01*
X167724962Y-87879700D01*
X167721847Y-87887046D01*
X167721724Y-87888189D01*
X167720815Y-87890574D01*
X167663673Y-88100097D01*
X167662829Y-88105065D01*
X167662070Y-88106900D01*
X167661450Y-88113194D01*
X167660393Y-88119424D01*
X167660643Y-88121391D01*
X167660149Y-88126409D01*
X166365281Y-88126409D01*
X166399150Y-88095362D01*
X166406302Y-88087381D01*
X166408338Y-88085739D01*
X166410118Y-88083122D01*
X166412233Y-88080763D01*
X166413338Y-88078390D01*
X166419367Y-88069532D01*
X166476509Y-87964770D01*
X166484165Y-87946724D01*
X166484738Y-87941369D01*
X166486799Y-87936394D01*
X166488720Y-87916885D01*
X166488720Y-87864504D01*
X166486799Y-87844995D01*
X166484738Y-87840019D01*
X166484165Y-87834665D01*
X166476509Y-87816619D01*
X166419367Y-87711857D01*
X166413338Y-87702998D01*
X166412233Y-87700626D01*
X166410118Y-87698266D01*
X166408338Y-87695650D01*
X166406302Y-87694007D01*
X166399150Y-87686027D01*
X166342008Y-87633646D01*
X166334819Y-87628251D01*
X166333035Y-87626329D01*
X166329553Y-87624298D01*
X166326329Y-87621879D01*
X166323864Y-87620981D01*
X166316100Y-87616454D01*
X166201814Y-87564073D01*
X166183279Y-87557691D01*
X166181396Y-87557621D01*
X166179658Y-87556901D01*
X166160149Y-87554980D01*
X165931577Y-87554980D01*
X165912068Y-87556901D01*
X165910329Y-87557621D01*
X165908446Y-87557691D01*
X165889911Y-87564074D01*
X165775626Y-87616455D01*
X165767864Y-87620981D01*
X165765399Y-87621879D01*
X165762172Y-87624300D01*
X165758692Y-87626330D01*
X165756908Y-87628250D01*
X165749719Y-87633646D01*
X165692577Y-87686027D01*
X165685425Y-87694006D01*
X165683388Y-87695650D01*
X165681606Y-87698267D01*
X165679494Y-87700625D01*
X165678388Y-87702996D01*
X165672359Y-87711857D01*
X165615216Y-87816619D01*
X165607561Y-87834665D01*
X165606987Y-87840019D01*
X165604927Y-87844995D01*
X165603006Y-87864504D01*
X165345863Y-87864504D01*
X165343942Y-87844995D01*
X165341881Y-87840019D01*
X165341308Y-87834665D01*
X165333652Y-87816619D01*
X165276510Y-87711857D01*
X165270480Y-87702996D01*
X165269375Y-87700625D01*
X165267261Y-87698267D01*
X165265481Y-87695650D01*
X165263444Y-87694007D01*
X165256292Y-87686026D01*
X165199149Y-87633646D01*
X165191963Y-87628253D01*
X165190177Y-87626329D01*
X165186691Y-87624296D01*
X165183470Y-87621879D01*
X165181005Y-87620981D01*
X165173242Y-87616455D01*
X165058958Y-87564074D01*
X165040422Y-87557691D01*
X165038539Y-87557621D01*
X165036801Y-87556901D01*
X165017292Y-87554980D01*
X164560149Y-87554980D01*
X164540640Y-87556901D01*
X164504592Y-87571833D01*
X164477002Y-87599423D01*
X164462070Y-87635471D01*
X164460149Y-87654980D01*
X163344036Y-87654980D01*
X163342990Y-87631183D01*
X163326490Y-87595825D01*
X163297715Y-87569473D01*
X163261046Y-87556139D01*
X163222066Y-87557853D01*
X163186708Y-87574353D01*
X163160356Y-87603128D01*
X163151884Y-87620806D01*
X162845863Y-88462363D01*
X162539842Y-87620806D01*
X162531370Y-87603128D01*
X162505018Y-87574353D01*
X162469660Y-87557853D01*
X162430680Y-87556139D01*
X162394011Y-87569473D01*
X162365236Y-87595825D01*
X162348736Y-87631183D01*
X162347022Y-87670163D01*
X162224800Y-87670163D01*
X162224800Y-87432758D01*
X168725228Y-87432758D01*
X168725228Y-88977202D01*
G37*
D11*
G36*
X186910134Y-89765779D02*
G01*
X186936754Y-89792400D01*
X186965942Y-89850775D01*
X186965942Y-90093734D01*
X186646895Y-90093734D01*
X186646895Y-89850775D01*
X186676082Y-89792399D01*
X186702703Y-89765779D01*
X186761079Y-89736591D01*
X186851758Y-89736591D01*
X186910134Y-89765779D01*
G37*
G36*
X187227062Y-88248052D02*
G01*
X187291085Y-88280064D01*
X187317708Y-88306687D01*
X187346895Y-88365060D01*
X187346895Y-88417645D01*
X187317708Y-88476018D01*
X187291085Y-88502641D01*
X187227062Y-88534653D01*
X187085978Y-88569925D01*
X186907812Y-88569925D01*
X186766726Y-88534652D01*
X186702704Y-88502642D01*
X186676083Y-88476022D01*
X186646895Y-88417645D01*
X186646895Y-88365060D01*
X186676083Y-88306683D01*
X186702704Y-88280063D01*
X186766726Y-88248053D01*
X186907812Y-88212782D01*
X187085978Y-88212782D01*
X187227062Y-88248052D01*
G37*
G36*
X187535784Y-90282623D02*
G01*
X186458006Y-90282623D01*
X186458006Y-89838972D01*
X186546895Y-89838972D01*
X186546895Y-90143734D01*
X186550701Y-90162868D01*
X186577761Y-90189928D01*
X186596895Y-90193734D01*
X187396895Y-90193734D01*
X187416029Y-90189928D01*
X187443089Y-90162868D01*
X187443089Y-90124600D01*
X187416029Y-90097540D01*
X187396895Y-90093734D01*
X187065942Y-90093734D01*
X187065942Y-89838972D01*
X187065453Y-89836515D01*
X187065816Y-89835427D01*
X187063699Y-89827699D01*
X187062136Y-89819838D01*
X187061324Y-89819026D01*
X187060663Y-89816611D01*
X187022568Y-89740421D01*
X187017656Y-89734092D01*
X187013202Y-89727426D01*
X186975107Y-89689332D01*
X186968444Y-89684879D01*
X186962113Y-89679966D01*
X186885922Y-89641870D01*
X186883506Y-89641208D01*
X186882695Y-89640397D01*
X186874833Y-89638833D01*
X186867106Y-89636717D01*
X186866017Y-89637079D01*
X186863561Y-89636591D01*
X186749276Y-89636591D01*
X186746819Y-89637079D01*
X186745731Y-89636717D01*
X186738003Y-89638833D01*
X186730142Y-89640397D01*
X186729330Y-89641208D01*
X186726915Y-89641870D01*
X186650724Y-89679966D01*
X186644395Y-89684877D01*
X186637729Y-89689332D01*
X186599635Y-89727427D01*
X186595184Y-89734086D01*
X186590269Y-89740421D01*
X186552174Y-89816611D01*
X186551512Y-89819026D01*
X186550701Y-89819838D01*
X186549137Y-89827699D01*
X186547021Y-89835427D01*
X186547383Y-89836515D01*
X186546895Y-89838972D01*
X186458006Y-89838972D01*
X186458006Y-89143554D01*
X186547846Y-89143554D01*
X186550701Y-89157829D01*
X186550701Y-89172392D01*
X186554341Y-89176032D01*
X186555351Y-89181080D01*
X186569160Y-89194860D01*
X186679323Y-89268302D01*
X186746279Y-89335258D01*
X186780745Y-89404191D01*
X186792706Y-89419602D01*
X186829010Y-89431704D01*
X186863238Y-89414590D01*
X186875340Y-89378286D01*
X186870188Y-89359470D01*
X186832092Y-89283279D01*
X186827180Y-89276950D01*
X186822726Y-89270284D01*
X186755700Y-89203258D01*
X187346895Y-89203258D01*
X187346895Y-89381830D01*
X187350701Y-89400964D01*
X187377761Y-89428024D01*
X187416029Y-89428024D01*
X187443089Y-89400964D01*
X187446895Y-89381830D01*
X187446895Y-88924687D01*
X187443089Y-88905553D01*
X187416029Y-88878493D01*
X187377761Y-88878493D01*
X187350701Y-88905553D01*
X187346895Y-88924687D01*
X187346895Y-89103258D01*
X186596895Y-89103258D01*
X186577761Y-89107064D01*
X186574120Y-89110704D01*
X186569073Y-89111714D01*
X186560996Y-89123828D01*
X186550701Y-89134124D01*
X186550701Y-89139271D01*
X186547846Y-89143554D01*
X186458006Y-89143554D01*
X186458006Y-88353258D01*
X186546895Y-88353258D01*
X186546895Y-88429448D01*
X186547383Y-88431904D01*
X186547021Y-88432992D01*
X186549136Y-88440716D01*
X186550701Y-88448582D01*
X186551512Y-88449393D01*
X186552174Y-88451808D01*
X186590269Y-88528000D01*
X186595182Y-88534331D01*
X186599635Y-88540994D01*
X186637729Y-88579089D01*
X186644403Y-88583548D01*
X186650725Y-88588455D01*
X186726916Y-88626551D01*
X186732198Y-88627997D01*
X186737149Y-88630336D01*
X186889530Y-88668432D01*
X186895647Y-88668729D01*
X186901657Y-88669925D01*
X187092133Y-88669925D01*
X187098142Y-88668729D01*
X187104260Y-88668432D01*
X187256641Y-88630336D01*
X187261593Y-88627996D01*
X187266875Y-88626550D01*
X187343065Y-88588455D01*
X187349393Y-88583543D01*
X187356059Y-88579090D01*
X187394155Y-88540995D01*
X187398611Y-88534324D01*
X187403521Y-88527999D01*
X187441617Y-88451808D01*
X187442278Y-88449392D01*
X187443089Y-88448582D01*
X187444652Y-88440721D01*
X187446769Y-88432992D01*
X187446406Y-88431904D01*
X187446895Y-88429448D01*
X187446895Y-88353258D01*
X187446406Y-88350801D01*
X187446769Y-88349714D01*
X187444652Y-88341984D01*
X187443089Y-88334124D01*
X187442278Y-88333313D01*
X187441617Y-88330898D01*
X187403521Y-88254707D01*
X187398611Y-88248381D01*
X187394155Y-88241711D01*
X187356059Y-88203616D01*
X187349393Y-88199162D01*
X187343065Y-88194251D01*
X187266875Y-88156156D01*
X187261593Y-88154709D01*
X187256641Y-88152370D01*
X187104260Y-88114275D01*
X187098142Y-88113977D01*
X187092133Y-88112782D01*
X186901657Y-88112782D01*
X186895649Y-88113977D01*
X186889531Y-88114275D01*
X186737149Y-88152370D01*
X186732199Y-88154708D01*
X186726916Y-88156155D01*
X186650725Y-88194251D01*
X186644403Y-88199157D01*
X186637729Y-88203617D01*
X186599635Y-88241712D01*
X186595182Y-88248374D01*
X186590269Y-88254706D01*
X186552174Y-88330898D01*
X186551512Y-88333312D01*
X186550701Y-88334124D01*
X186549136Y-88341989D01*
X186547021Y-88349714D01*
X186547383Y-88350801D01*
X186546895Y-88353258D01*
X186458006Y-88353258D01*
X186458006Y-88023893D01*
X187535784Y-88023893D01*
X187535784Y-90282623D01*
G37*
D10*
G36*
X166290768Y-102076409D02*
G01*
X165110483Y-102076409D01*
X165110483Y-101466757D01*
X165221594Y-101466757D01*
X165221594Y-101505775D01*
X165236526Y-101541823D01*
X165264116Y-101569413D01*
X165300164Y-101584345D01*
X165319673Y-101586266D01*
X165600625Y-101586266D01*
X165600625Y-101867219D01*
X165602546Y-101886728D01*
X165617478Y-101922776D01*
X165645068Y-101950366D01*
X165681116Y-101965298D01*
X165720134Y-101965298D01*
X165756182Y-101950366D01*
X165783772Y-101922776D01*
X165798704Y-101886728D01*
X165800625Y-101867219D01*
X165800625Y-101586266D01*
X166081578Y-101586266D01*
X166101087Y-101584345D01*
X166137135Y-101569413D01*
X166164725Y-101541823D01*
X166179657Y-101505775D01*
X166179657Y-101466757D01*
X166164725Y-101430709D01*
X166137135Y-101403119D01*
X166101087Y-101388187D01*
X166081578Y-101386266D01*
X165800625Y-101386266D01*
X165800625Y-101105314D01*
X165798704Y-101085805D01*
X165783772Y-101049757D01*
X165756182Y-101022167D01*
X165720134Y-101007235D01*
X165681116Y-101007235D01*
X165645068Y-101022167D01*
X165617478Y-101049757D01*
X165602546Y-101085805D01*
X165600625Y-101105314D01*
X165600625Y-101386266D01*
X165319673Y-101386266D01*
X165300164Y-101388187D01*
X165264116Y-101403119D01*
X165236526Y-101430709D01*
X165221594Y-101466757D01*
X165110483Y-101466757D01*
X165110483Y-100896124D01*
X166290768Y-100896124D01*
X166290768Y-102076409D01*
G37*
G36*
X156942271Y-80541710D02*
G01*
X156975556Y-80572222D01*
X157012528Y-80640004D01*
X157012528Y-80746146D01*
X156975556Y-80813928D01*
X156942271Y-80844440D01*
X156862132Y-80881171D01*
X156526814Y-80881171D01*
X156526814Y-80504980D01*
X156862132Y-80504980D01*
X156942271Y-80541710D01*
G37*
G36*
X160591893Y-81727202D02*
G01*
X154091465Y-81727202D01*
X154091465Y-80420163D01*
X154213687Y-80420163D01*
X154218549Y-80439154D01*
X154618549Y-81539154D01*
X154627021Y-81556832D01*
X154630022Y-81560109D01*
X154631901Y-81564135D01*
X154643108Y-81574399D01*
X154653373Y-81585607D01*
X154657398Y-81587485D01*
X154660676Y-81590487D01*
X154674964Y-81595682D01*
X154688731Y-81602107D01*
X154693167Y-81602302D01*
X154697345Y-81603821D01*
X154712528Y-81603153D01*
X154727711Y-81603821D01*
X154731888Y-81602302D01*
X154736325Y-81602107D01*
X154750091Y-81595682D01*
X154764380Y-81590487D01*
X154767657Y-81587485D01*
X154771683Y-81585607D01*
X154781947Y-81574399D01*
X154793155Y-81564135D01*
X154795033Y-81560109D01*
X154798035Y-81556832D01*
X154806507Y-81539154D01*
X155206507Y-80439154D01*
X155211369Y-80420163D01*
X155210701Y-80404980D01*
X156326814Y-80404980D01*
X156326814Y-81504980D01*
X156328735Y-81524489D01*
X156343667Y-81560537D01*
X156371257Y-81588127D01*
X156407305Y-81603059D01*
X156446323Y-81603059D01*
X156482371Y-81588127D01*
X156509961Y-81560537D01*
X156524893Y-81524489D01*
X156526814Y-81504980D01*
X156526814Y-81081171D01*
X156883957Y-81081171D01*
X156903466Y-81079250D01*
X156905204Y-81078529D01*
X156907087Y-81078460D01*
X156925623Y-81072077D01*
X157039907Y-81019696D01*
X157047670Y-81015169D01*
X157050135Y-81014272D01*
X157053356Y-81011854D01*
X157056842Y-81009822D01*
X157058628Y-81007897D01*
X157065814Y-81002505D01*
X157122957Y-80950125D01*
X157130109Y-80942143D01*
X157132146Y-80940501D01*
X157133926Y-80937883D01*
X157134227Y-80937547D01*
X157470055Y-80937547D01*
X157470981Y-80940720D01*
X157470838Y-80944020D01*
X157476417Y-80959340D01*
X157480989Y-80975002D01*
X157483058Y-80977578D01*
X157484189Y-80980683D01*
X157495213Y-80992709D01*
X157505425Y-81005422D01*
X157508321Y-81007009D01*
X157510554Y-81009445D01*
X157525337Y-81016335D01*
X157539641Y-81024175D01*
X157542925Y-81024533D01*
X157545920Y-81025929D01*
X157562210Y-81026636D01*
X157578428Y-81028406D01*
X157581601Y-81027479D01*
X157584901Y-81027623D01*
X157600221Y-81022043D01*
X157615883Y-81017472D01*
X157618459Y-81015402D01*
X157621564Y-81014272D01*
X157637243Y-81002505D01*
X157682784Y-80960759D01*
X157762926Y-80924028D01*
X158004989Y-80924028D01*
X158085127Y-80960757D01*
X158118413Y-80991270D01*
X158155385Y-81059052D01*
X158155385Y-81269956D01*
X158118413Y-81337738D01*
X158085128Y-81368249D01*
X158004989Y-81404980D01*
X157762925Y-81404980D01*
X157682784Y-81368249D01*
X157637243Y-81326504D01*
X157621564Y-81314737D01*
X157584901Y-81301386D01*
X157545920Y-81303080D01*
X157510554Y-81319564D01*
X157484189Y-81348326D01*
X157470838Y-81384989D01*
X157472532Y-81423970D01*
X157489016Y-81459336D01*
X157502099Y-81473934D01*
X157559241Y-81526315D01*
X157566431Y-81531710D01*
X157568215Y-81533632D01*
X157571696Y-81535662D01*
X157574921Y-81538082D01*
X157577384Y-81538979D01*
X157585149Y-81543507D01*
X157699435Y-81595887D01*
X157717971Y-81602269D01*
X157719852Y-81602338D01*
X157721591Y-81603059D01*
X157741100Y-81604980D01*
X158026814Y-81604980D01*
X158046323Y-81603059D01*
X158048061Y-81602338D01*
X158049943Y-81602269D01*
X158068479Y-81595887D01*
X158182765Y-81543507D01*
X158190529Y-81538979D01*
X158192994Y-81538082D01*
X158196218Y-81535662D01*
X158199700Y-81533632D01*
X158201484Y-81531709D01*
X158208673Y-81526315D01*
X158265815Y-81473934D01*
X158272967Y-81465953D01*
X158275003Y-81464311D01*
X158276783Y-81461694D01*
X158278898Y-81459335D01*
X158280003Y-81456962D01*
X158286032Y-81448104D01*
X158343174Y-81343342D01*
X158350830Y-81325296D01*
X158351403Y-81319941D01*
X158353464Y-81314966D01*
X158355385Y-81295457D01*
X158355385Y-81033552D01*
X158353464Y-81014043D01*
X158351403Y-81009067D01*
X158350830Y-81003713D01*
X158343174Y-80985667D01*
X158286032Y-80880905D01*
X158282972Y-80876409D01*
X159526814Y-80876409D01*
X159526814Y-81033552D01*
X159527308Y-81038569D01*
X159527058Y-81040537D01*
X159528115Y-81046766D01*
X159528735Y-81053061D01*
X159529494Y-81054895D01*
X159530338Y-81059864D01*
X159587480Y-81269387D01*
X159588389Y-81271771D01*
X159588512Y-81272915D01*
X159591627Y-81280260D01*
X159594467Y-81287703D01*
X159595170Y-81288610D01*
X159596167Y-81290961D01*
X159653310Y-81395723D01*
X159659338Y-81404581D01*
X159660444Y-81406954D01*
X159662558Y-81409313D01*
X159664339Y-81411930D01*
X159666374Y-81413572D01*
X159673527Y-81421553D01*
X159787812Y-81526315D01*
X159803491Y-81538082D01*
X159806006Y-81538997D01*
X159808068Y-81540697D01*
X159826164Y-81548235D01*
X159997593Y-81600615D01*
X160004999Y-81602104D01*
X160007305Y-81603059D01*
X160012095Y-81603530D01*
X160016812Y-81604479D01*
X160019294Y-81604239D01*
X160026814Y-81604980D01*
X160141100Y-81604980D01*
X160148620Y-81604239D01*
X160151103Y-81604479D01*
X160155820Y-81603530D01*
X160160609Y-81603059D01*
X160162913Y-81602104D01*
X160170321Y-81600615D01*
X160341750Y-81548235D01*
X160359846Y-81540697D01*
X160361909Y-81538996D01*
X160364421Y-81538082D01*
X160380100Y-81526315D01*
X160437243Y-81473935D01*
X160450326Y-81459336D01*
X160451258Y-81457335D01*
X160452818Y-81455776D01*
X160459471Y-81439712D01*
X160466809Y-81423970D01*
X160466904Y-81421768D01*
X160467750Y-81419728D01*
X160469671Y-81400219D01*
X160469671Y-81033552D01*
X160467750Y-81014043D01*
X160452818Y-80977995D01*
X160425228Y-80950405D01*
X160389180Y-80935473D01*
X160369671Y-80933552D01*
X160141100Y-80933552D01*
X160121591Y-80935473D01*
X160085543Y-80950405D01*
X160057953Y-80977995D01*
X160043021Y-81014043D01*
X160043021Y-81053061D01*
X160057953Y-81089109D01*
X160085543Y-81116699D01*
X160121591Y-81131631D01*
X160141100Y-81133552D01*
X160269671Y-81133552D01*
X160269671Y-81356229D01*
X160261649Y-81363582D01*
X160126165Y-81404980D01*
X160041749Y-81404980D01*
X159906264Y-81363582D01*
X159820927Y-81285356D01*
X159777351Y-81205466D01*
X159726814Y-81020161D01*
X159726814Y-80889799D01*
X159777351Y-80704494D01*
X159820927Y-80624604D01*
X159906264Y-80546378D01*
X160041751Y-80504980D01*
X160176418Y-80504980D01*
X160270862Y-80548267D01*
X160289397Y-80554650D01*
X160328389Y-80556095D01*
X160364965Y-80542510D01*
X160393559Y-80515961D01*
X160409816Y-80480491D01*
X160411262Y-80441500D01*
X160397676Y-80404923D01*
X160371128Y-80376329D01*
X160354193Y-80366455D01*
X160239909Y-80314074D01*
X160221373Y-80307691D01*
X160219490Y-80307621D01*
X160217752Y-80306901D01*
X160198243Y-80304980D01*
X160026814Y-80304980D01*
X160019293Y-80305720D01*
X160016811Y-80305481D01*
X160012093Y-80306429D01*
X160007305Y-80306901D01*
X160005000Y-80307855D01*
X159997592Y-80309345D01*
X159826163Y-80361726D01*
X159808067Y-80369264D01*
X159806004Y-80370963D01*
X159803491Y-80371879D01*
X159787812Y-80383646D01*
X159673527Y-80488408D01*
X159666374Y-80496388D01*
X159664339Y-80498031D01*
X159662558Y-80500647D01*
X159660444Y-80503007D01*
X159659338Y-80505379D01*
X159653310Y-80514238D01*
X159596167Y-80619000D01*
X159595170Y-80621350D01*
X159594467Y-80622258D01*
X159591627Y-80629700D01*
X159588512Y-80637046D01*
X159588389Y-80638189D01*
X159587480Y-80640574D01*
X159530338Y-80850097D01*
X159529494Y-80855065D01*
X159528735Y-80856900D01*
X159528115Y-80863194D01*
X159527058Y-80869424D01*
X159527308Y-80871391D01*
X159526814Y-80876409D01*
X158282972Y-80876409D01*
X158280003Y-80872046D01*
X158278898Y-80869674D01*
X158276783Y-80867314D01*
X158275003Y-80864698D01*
X158272967Y-80863055D01*
X158265815Y-80855075D01*
X158208673Y-80802694D01*
X158201484Y-80797299D01*
X158199700Y-80795377D01*
X158196218Y-80793346D01*
X158192994Y-80790927D01*
X158190529Y-80790029D01*
X158182765Y-80785502D01*
X158068479Y-80733121D01*
X158049944Y-80726739D01*
X158048061Y-80726669D01*
X158046323Y-80725949D01*
X158026814Y-80724028D01*
X157741100Y-80724028D01*
X157721591Y-80725949D01*
X157719852Y-80726669D01*
X157717970Y-80726739D01*
X157699434Y-80733122D01*
X157691197Y-80736896D01*
X157716498Y-80504980D01*
X158198242Y-80504980D01*
X158217751Y-80503059D01*
X158253799Y-80488127D01*
X158281389Y-80460537D01*
X158296321Y-80424489D01*
X158296321Y-80385471D01*
X158281389Y-80349423D01*
X158253799Y-80321833D01*
X158217751Y-80306901D01*
X158198242Y-80304980D01*
X157626814Y-80304980D01*
X157620365Y-80305614D01*
X157618057Y-80305363D01*
X157615579Y-80306086D01*
X157607305Y-80306901D01*
X157594211Y-80312324D01*
X157580602Y-80316298D01*
X157576324Y-80319733D01*
X157571257Y-80321833D01*
X157561236Y-80331853D01*
X157550182Y-80340733D01*
X157547544Y-80345545D01*
X157543667Y-80349423D01*
X157538244Y-80362513D01*
X157531429Y-80374949D01*
X157529720Y-80383090D01*
X157528735Y-80385471D01*
X157528735Y-80387790D01*
X157527404Y-80394135D01*
X157470261Y-80917945D01*
X157470055Y-80937547D01*
X157134227Y-80937547D01*
X157136040Y-80935526D01*
X157137145Y-80933154D01*
X157143175Y-80924294D01*
X157200317Y-80819532D01*
X157207973Y-80801486D01*
X157208546Y-80796131D01*
X157210607Y-80791156D01*
X157212528Y-80771647D01*
X157212528Y-80614504D01*
X157210607Y-80594995D01*
X157208546Y-80590019D01*
X157207973Y-80584665D01*
X157200317Y-80566619D01*
X157143175Y-80461857D01*
X157137145Y-80452996D01*
X157136040Y-80450625D01*
X157133926Y-80448267D01*
X157132146Y-80445650D01*
X157130109Y-80444007D01*
X157122957Y-80436026D01*
X157065814Y-80383646D01*
X157058628Y-80378253D01*
X157056842Y-80376329D01*
X157053356Y-80374296D01*
X157050135Y-80371879D01*
X157047670Y-80370981D01*
X157039907Y-80366455D01*
X156925623Y-80314074D01*
X156907087Y-80307691D01*
X156905204Y-80307621D01*
X156903466Y-80306901D01*
X156883957Y-80304980D01*
X156426814Y-80304980D01*
X156407305Y-80306901D01*
X156371257Y-80321833D01*
X156343667Y-80349423D01*
X156328735Y-80385471D01*
X156326814Y-80404980D01*
X155210701Y-80404980D01*
X155209655Y-80381183D01*
X155193155Y-80345825D01*
X155164380Y-80319473D01*
X155127711Y-80306139D01*
X155088731Y-80307853D01*
X155053373Y-80324353D01*
X155027021Y-80353128D01*
X155018549Y-80370806D01*
X154712528Y-81212363D01*
X154406507Y-80370806D01*
X154398035Y-80353128D01*
X154371683Y-80324353D01*
X154336325Y-80307853D01*
X154297345Y-80306139D01*
X154260676Y-80319473D01*
X154231901Y-80345825D01*
X154215401Y-80381183D01*
X154213687Y-80420163D01*
X154091465Y-80420163D01*
X154091465Y-80182758D01*
X160591893Y-80182758D01*
X160591893Y-81727202D01*
G37*
G36*
X132542272Y-80541710D02*
G01*
X132575557Y-80572222D01*
X132612529Y-80640004D01*
X132612529Y-80746146D01*
X132575557Y-80813928D01*
X132542272Y-80844440D01*
X132462133Y-80881171D01*
X132126815Y-80881171D01*
X132126815Y-80504980D01*
X132462133Y-80504980D01*
X132542272Y-80541710D01*
G37*
G36*
X136191894Y-81727202D02*
G01*
X129691466Y-81727202D01*
X129691466Y-80420163D01*
X129813688Y-80420163D01*
X129818550Y-80439154D01*
X130218550Y-81539154D01*
X130227022Y-81556832D01*
X130230023Y-81560109D01*
X130231902Y-81564135D01*
X130243109Y-81574399D01*
X130253374Y-81585607D01*
X130257399Y-81587485D01*
X130260677Y-81590487D01*
X130274965Y-81595682D01*
X130288732Y-81602107D01*
X130293168Y-81602302D01*
X130297346Y-81603821D01*
X130312529Y-81603153D01*
X130327712Y-81603821D01*
X130331889Y-81602302D01*
X130336326Y-81602107D01*
X130350092Y-81595682D01*
X130364381Y-81590487D01*
X130367658Y-81587485D01*
X130371684Y-81585607D01*
X130381948Y-81574399D01*
X130393156Y-81564135D01*
X130395034Y-81560109D01*
X130398036Y-81556832D01*
X130406508Y-81539154D01*
X130806508Y-80439154D01*
X130811370Y-80420163D01*
X130810702Y-80404980D01*
X131926815Y-80404980D01*
X131926815Y-81504980D01*
X131928736Y-81524489D01*
X131943668Y-81560537D01*
X131971258Y-81588127D01*
X132007306Y-81603059D01*
X132046324Y-81603059D01*
X132082372Y-81588127D01*
X132109962Y-81560537D01*
X132124894Y-81524489D01*
X132125315Y-81520210D01*
X133013696Y-81520210D01*
X133014450Y-81522280D01*
X133014450Y-81524489D01*
X133021103Y-81540550D01*
X133027047Y-81556873D01*
X133028538Y-81558499D01*
X133029382Y-81560537D01*
X133041658Y-81572813D01*
X133053412Y-81585636D01*
X133055414Y-81586569D01*
X133056972Y-81588127D01*
X133073016Y-81594772D01*
X133088778Y-81602119D01*
X133090981Y-81602214D01*
X133093020Y-81603059D01*
X133112529Y-81604980D01*
X133855386Y-81604980D01*
X133874895Y-81603059D01*
X133910943Y-81588127D01*
X133938533Y-81560537D01*
X133953465Y-81524489D01*
X133953465Y-81485471D01*
X133938533Y-81449423D01*
X133910943Y-81421833D01*
X133874895Y-81406901D01*
X133855386Y-81404980D01*
X133369609Y-81404980D01*
X133865816Y-80950124D01*
X133878899Y-80935526D01*
X133880766Y-80931518D01*
X133883750Y-80928261D01*
X133892222Y-80910583D01*
X133904649Y-80876409D01*
X135126815Y-80876409D01*
X135126815Y-81033552D01*
X135127309Y-81038569D01*
X135127059Y-81040537D01*
X135128116Y-81046766D01*
X135128736Y-81053061D01*
X135129495Y-81054895D01*
X135130339Y-81059864D01*
X135187481Y-81269387D01*
X135188390Y-81271771D01*
X135188513Y-81272915D01*
X135191628Y-81280260D01*
X135194468Y-81287703D01*
X135195171Y-81288610D01*
X135196168Y-81290961D01*
X135253311Y-81395723D01*
X135259339Y-81404581D01*
X135260445Y-81406954D01*
X135262559Y-81409313D01*
X135264340Y-81411930D01*
X135266375Y-81413572D01*
X135273528Y-81421553D01*
X135387813Y-81526315D01*
X135403492Y-81538082D01*
X135406007Y-81538997D01*
X135408069Y-81540697D01*
X135426165Y-81548235D01*
X135597594Y-81600615D01*
X135605000Y-81602104D01*
X135607306Y-81603059D01*
X135612096Y-81603530D01*
X135616813Y-81604479D01*
X135619295Y-81604239D01*
X135626815Y-81604980D01*
X135741101Y-81604980D01*
X135748621Y-81604239D01*
X135751104Y-81604479D01*
X135755821Y-81603530D01*
X135760610Y-81603059D01*
X135762914Y-81602104D01*
X135770322Y-81600615D01*
X135941751Y-81548235D01*
X135959847Y-81540697D01*
X135961910Y-81538996D01*
X135964422Y-81538082D01*
X135980101Y-81526315D01*
X136037244Y-81473935D01*
X136050327Y-81459336D01*
X136051259Y-81457335D01*
X136052819Y-81455776D01*
X136059472Y-81439712D01*
X136066810Y-81423970D01*
X136066905Y-81421768D01*
X136067751Y-81419728D01*
X136069672Y-81400219D01*
X136069672Y-81033552D01*
X136067751Y-81014043D01*
X136052819Y-80977995D01*
X136025229Y-80950405D01*
X135989181Y-80935473D01*
X135969672Y-80933552D01*
X135741101Y-80933552D01*
X135721592Y-80935473D01*
X135685544Y-80950405D01*
X135657954Y-80977995D01*
X135643022Y-81014043D01*
X135643022Y-81053061D01*
X135657954Y-81089109D01*
X135685544Y-81116699D01*
X135721592Y-81131631D01*
X135741101Y-81133552D01*
X135869672Y-81133552D01*
X135869672Y-81356229D01*
X135861650Y-81363582D01*
X135726166Y-81404980D01*
X135641750Y-81404980D01*
X135506265Y-81363582D01*
X135420928Y-81285356D01*
X135377352Y-81205466D01*
X135326815Y-81020161D01*
X135326815Y-80889799D01*
X135377352Y-80704494D01*
X135420928Y-80624604D01*
X135506265Y-80546378D01*
X135641752Y-80504980D01*
X135776419Y-80504980D01*
X135870863Y-80548267D01*
X135889398Y-80554650D01*
X135928390Y-80556095D01*
X135964966Y-80542510D01*
X135993560Y-80515961D01*
X136009817Y-80480491D01*
X136011263Y-80441500D01*
X135997677Y-80404923D01*
X135971129Y-80376329D01*
X135954194Y-80366455D01*
X135839910Y-80314074D01*
X135821374Y-80307691D01*
X135819491Y-80307621D01*
X135817753Y-80306901D01*
X135798244Y-80304980D01*
X135626815Y-80304980D01*
X135619294Y-80305720D01*
X135616812Y-80305481D01*
X135612094Y-80306429D01*
X135607306Y-80306901D01*
X135605001Y-80307855D01*
X135597593Y-80309345D01*
X135426164Y-80361726D01*
X135408068Y-80369264D01*
X135406005Y-80370963D01*
X135403492Y-80371879D01*
X135387813Y-80383646D01*
X135273528Y-80488408D01*
X135266375Y-80496388D01*
X135264340Y-80498031D01*
X135262559Y-80500647D01*
X135260445Y-80503007D01*
X135259339Y-80505379D01*
X135253311Y-80514238D01*
X135196168Y-80619000D01*
X135195171Y-80621350D01*
X135194468Y-80622258D01*
X135191628Y-80629700D01*
X135188513Y-80637046D01*
X135188390Y-80638189D01*
X135187481Y-80640574D01*
X135130339Y-80850097D01*
X135129495Y-80855065D01*
X135128736Y-80856900D01*
X135128116Y-80863194D01*
X135127059Y-80869424D01*
X135127309Y-80871391D01*
X135126815Y-80876409D01*
X133904649Y-80876409D01*
X133949365Y-80753441D01*
X133952561Y-80740957D01*
X133953465Y-80738775D01*
X133953680Y-80736583D01*
X133954227Y-80734450D01*
X133954123Y-80732090D01*
X133955386Y-80719266D01*
X133955386Y-80614504D01*
X133953465Y-80594995D01*
X133951404Y-80590019D01*
X133950831Y-80584665D01*
X133943175Y-80566619D01*
X133886033Y-80461857D01*
X133880004Y-80452998D01*
X133878899Y-80450626D01*
X133876784Y-80448266D01*
X133875004Y-80445650D01*
X133872968Y-80444007D01*
X133865816Y-80436027D01*
X133808674Y-80383646D01*
X133801485Y-80378251D01*
X133799701Y-80376329D01*
X133796219Y-80374298D01*
X133792995Y-80371879D01*
X133790530Y-80370981D01*
X133782766Y-80366454D01*
X133668480Y-80314073D01*
X133649945Y-80307691D01*
X133648062Y-80307621D01*
X133646324Y-80306901D01*
X133626815Y-80304980D01*
X133341101Y-80304980D01*
X133321592Y-80306901D01*
X133319853Y-80307621D01*
X133317971Y-80307691D01*
X133299435Y-80314074D01*
X133185150Y-80366454D01*
X133177384Y-80370982D01*
X133174922Y-80371879D01*
X133171700Y-80374296D01*
X133168215Y-80376329D01*
X133166429Y-80378252D01*
X133159242Y-80383646D01*
X133102100Y-80436027D01*
X133089017Y-80450625D01*
X133072533Y-80485991D01*
X133070839Y-80524972D01*
X133084190Y-80561635D01*
X133110555Y-80590397D01*
X133145921Y-80606881D01*
X133184902Y-80608575D01*
X133221565Y-80595224D01*
X133237244Y-80583457D01*
X133282785Y-80541711D01*
X133362927Y-80504980D01*
X133604990Y-80504980D01*
X133685128Y-80541709D01*
X133718414Y-80572222D01*
X133755386Y-80640004D01*
X133755386Y-80701649D01*
X133712628Y-80819231D01*
X133044957Y-81431265D01*
X133031873Y-81445863D01*
X133030939Y-81447865D01*
X133029382Y-81449423D01*
X133022736Y-81465467D01*
X133015390Y-81481229D01*
X133015294Y-81483432D01*
X133014450Y-81485471D01*
X133014450Y-81502859D01*
X133013696Y-81520210D01*
X132125315Y-81520210D01*
X132126815Y-81504980D01*
X132126815Y-81081171D01*
X132483958Y-81081171D01*
X132503467Y-81079250D01*
X132505205Y-81078529D01*
X132507088Y-81078460D01*
X132525624Y-81072077D01*
X132639908Y-81019696D01*
X132647671Y-81015169D01*
X132650136Y-81014272D01*
X132653357Y-81011854D01*
X132656843Y-81009822D01*
X132658629Y-81007897D01*
X132665815Y-81002505D01*
X132722958Y-80950125D01*
X132730110Y-80942143D01*
X132732147Y-80940501D01*
X132733927Y-80937883D01*
X132736041Y-80935526D01*
X132737146Y-80933154D01*
X132743176Y-80924294D01*
X132800318Y-80819532D01*
X132807974Y-80801486D01*
X132808547Y-80796131D01*
X132810608Y-80791156D01*
X132812529Y-80771647D01*
X132812529Y-80614504D01*
X132810608Y-80594995D01*
X132808547Y-80590019D01*
X132807974Y-80584665D01*
X132800318Y-80566619D01*
X132743176Y-80461857D01*
X132737146Y-80452996D01*
X132736041Y-80450625D01*
X132733927Y-80448267D01*
X132732147Y-80445650D01*
X132730110Y-80444007D01*
X132722958Y-80436026D01*
X132665815Y-80383646D01*
X132658629Y-80378253D01*
X132656843Y-80376329D01*
X132653357Y-80374296D01*
X132650136Y-80371879D01*
X132647671Y-80370981D01*
X132639908Y-80366455D01*
X132525624Y-80314074D01*
X132507088Y-80307691D01*
X132505205Y-80307621D01*
X132503467Y-80306901D01*
X132483958Y-80304980D01*
X132026815Y-80304980D01*
X132007306Y-80306901D01*
X131971258Y-80321833D01*
X131943668Y-80349423D01*
X131928736Y-80385471D01*
X131926815Y-80404980D01*
X130810702Y-80404980D01*
X130809656Y-80381183D01*
X130793156Y-80345825D01*
X130764381Y-80319473D01*
X130727712Y-80306139D01*
X130688732Y-80307853D01*
X130653374Y-80324353D01*
X130627022Y-80353128D01*
X130618550Y-80370806D01*
X130312529Y-81212363D01*
X130006508Y-80370806D01*
X129998036Y-80353128D01*
X129971684Y-80324353D01*
X129936326Y-80307853D01*
X129897346Y-80306139D01*
X129860677Y-80319473D01*
X129831902Y-80345825D01*
X129815402Y-80381183D01*
X129813688Y-80420163D01*
X129691466Y-80420163D01*
X129691466Y-80182758D01*
X136191894Y-80182758D01*
X136191894Y-81727202D01*
G37*
D11*
G36*
X186910134Y-97765779D02*
G01*
X186936754Y-97792400D01*
X186965942Y-97850775D01*
X186965942Y-98093734D01*
X186646895Y-98093734D01*
X186646895Y-97850775D01*
X186676082Y-97792399D01*
X186702703Y-97765779D01*
X186761079Y-97736591D01*
X186851758Y-97736591D01*
X186910134Y-97765779D01*
G37*
G36*
X187535784Y-98282623D02*
G01*
X186458006Y-98282623D01*
X186458006Y-97838972D01*
X186546895Y-97838972D01*
X186546895Y-98143734D01*
X186550701Y-98162868D01*
X186577761Y-98189928D01*
X186596895Y-98193734D01*
X187396895Y-98193734D01*
X187416029Y-98189928D01*
X187443089Y-98162868D01*
X187443089Y-98124600D01*
X187416029Y-98097540D01*
X187396895Y-98093734D01*
X187065942Y-98093734D01*
X187065942Y-97838972D01*
X187065453Y-97836515D01*
X187065816Y-97835427D01*
X187063699Y-97827699D01*
X187062136Y-97819838D01*
X187061324Y-97819026D01*
X187060663Y-97816611D01*
X187022568Y-97740421D01*
X187017656Y-97734092D01*
X187013202Y-97727426D01*
X186975107Y-97689332D01*
X186968444Y-97684879D01*
X186962113Y-97679966D01*
X186885922Y-97641870D01*
X186883506Y-97641208D01*
X186882695Y-97640397D01*
X186874833Y-97638833D01*
X186867106Y-97636717D01*
X186866017Y-97637079D01*
X186863561Y-97636591D01*
X186749276Y-97636591D01*
X186746819Y-97637079D01*
X186745731Y-97636717D01*
X186738003Y-97638833D01*
X186730142Y-97640397D01*
X186729330Y-97641208D01*
X186726915Y-97641870D01*
X186650724Y-97679966D01*
X186644395Y-97684877D01*
X186637729Y-97689332D01*
X186599635Y-97727427D01*
X186595184Y-97734086D01*
X186590269Y-97740421D01*
X186552174Y-97816611D01*
X186551512Y-97819026D01*
X186550701Y-97819838D01*
X186549137Y-97827699D01*
X186547021Y-97835427D01*
X186547383Y-97836515D01*
X186546895Y-97838972D01*
X186458006Y-97838972D01*
X186458006Y-97077068D01*
X186546895Y-97077068D01*
X186546895Y-97267544D01*
X186547383Y-97270000D01*
X186547021Y-97271089D01*
X186549137Y-97278816D01*
X186550701Y-97286678D01*
X186551512Y-97287489D01*
X186552174Y-97289905D01*
X186590269Y-97366095D01*
X186595180Y-97372423D01*
X186599634Y-97379089D01*
X186637729Y-97417185D01*
X186653950Y-97428023D01*
X186692219Y-97428024D01*
X186719278Y-97400965D01*
X186719279Y-97362696D01*
X186708441Y-97346475D01*
X186676082Y-97314115D01*
X186646895Y-97255741D01*
X186646895Y-97088870D01*
X186676083Y-97030493D01*
X186702704Y-97003873D01*
X186761079Y-96974687D01*
X186817353Y-96974687D01*
X186912743Y-97006483D01*
X187361540Y-97455280D01*
X187377761Y-97466119D01*
X187416029Y-97466119D01*
X187443089Y-97439059D01*
X187446895Y-97419925D01*
X187446895Y-96924687D01*
X187443089Y-96905553D01*
X187416029Y-96878493D01*
X187377761Y-96878493D01*
X187350701Y-96905553D01*
X187346895Y-96924687D01*
X187346895Y-97299215D01*
X186975107Y-96927427D01*
X186973025Y-96926036D01*
X186972512Y-96925009D01*
X186965546Y-96921038D01*
X186958886Y-96916588D01*
X186957738Y-96916588D01*
X186955563Y-96915348D01*
X186841277Y-96877253D01*
X186833328Y-96876250D01*
X186825466Y-96874687D01*
X186749276Y-96874687D01*
X186746819Y-96875175D01*
X186745732Y-96874813D01*
X186738002Y-96876929D01*
X186730142Y-96878493D01*
X186729331Y-96879303D01*
X186726916Y-96879965D01*
X186650725Y-96918061D01*
X186644403Y-96922967D01*
X186637729Y-96927427D01*
X186599635Y-96965522D01*
X186595182Y-96972184D01*
X186590269Y-96978516D01*
X186552174Y-97054708D01*
X186551512Y-97057122D01*
X186550701Y-97057934D01*
X186549136Y-97065799D01*
X186547021Y-97073524D01*
X186547383Y-97074611D01*
X186546895Y-97077068D01*
X186458006Y-97077068D01*
X186458006Y-96381649D01*
X186547846Y-96381649D01*
X186550701Y-96395924D01*
X186550701Y-96410487D01*
X186554341Y-96414127D01*
X186555351Y-96419175D01*
X186569160Y-96432955D01*
X186679323Y-96506397D01*
X186746279Y-96573353D01*
X186780745Y-96642286D01*
X186792706Y-96657697D01*
X186829010Y-96669799D01*
X186863238Y-96652685D01*
X186875340Y-96616381D01*
X186870188Y-96597565D01*
X186832092Y-96521374D01*
X186827180Y-96515045D01*
X186822726Y-96508379D01*
X186755700Y-96441353D01*
X187346895Y-96441353D01*
X187346895Y-96619925D01*
X187350701Y-96639059D01*
X187377761Y-96666119D01*
X187416029Y-96666119D01*
X187443089Y-96639059D01*
X187446895Y-96619925D01*
X187446895Y-96162782D01*
X187443089Y-96143648D01*
X187416029Y-96116588D01*
X187377761Y-96116588D01*
X187350701Y-96143648D01*
X187346895Y-96162782D01*
X187346895Y-96341353D01*
X186596895Y-96341353D01*
X186577761Y-96345159D01*
X186574120Y-96348799D01*
X186569073Y-96349809D01*
X186560996Y-96361923D01*
X186550701Y-96372219D01*
X186550701Y-96377366D01*
X186547846Y-96381649D01*
X186458006Y-96381649D01*
X186458006Y-96027699D01*
X187535784Y-96027699D01*
X187535784Y-98282623D01*
G37*
D10*
G36*
X140675605Y-80541710D02*
G01*
X140708890Y-80572222D01*
X140745862Y-80640004D01*
X140745862Y-80746146D01*
X140708890Y-80813928D01*
X140675605Y-80844440D01*
X140595466Y-80881171D01*
X140260148Y-80881171D01*
X140260148Y-80504980D01*
X140595466Y-80504980D01*
X140675605Y-80541710D01*
G37*
G36*
X144325227Y-81727202D02*
G01*
X137824799Y-81727202D01*
X137824799Y-80420163D01*
X137947021Y-80420163D01*
X137951883Y-80439154D01*
X138351883Y-81539154D01*
X138360355Y-81556832D01*
X138363356Y-81560109D01*
X138365235Y-81564135D01*
X138376442Y-81574399D01*
X138386707Y-81585607D01*
X138390732Y-81587485D01*
X138394010Y-81590487D01*
X138408298Y-81595682D01*
X138422065Y-81602107D01*
X138426501Y-81602302D01*
X138430679Y-81603821D01*
X138445862Y-81603153D01*
X138461045Y-81603821D01*
X138465222Y-81602302D01*
X138469659Y-81602107D01*
X138483425Y-81595682D01*
X138497714Y-81590487D01*
X138500991Y-81587485D01*
X138505017Y-81585607D01*
X138515281Y-81574399D01*
X138526489Y-81564135D01*
X138528367Y-81560109D01*
X138531369Y-81556832D01*
X138539841Y-81539154D01*
X138939841Y-80439154D01*
X138944703Y-80420163D01*
X138944035Y-80404980D01*
X140060148Y-80404980D01*
X140060148Y-81504980D01*
X140062069Y-81524489D01*
X140077001Y-81560537D01*
X140104591Y-81588127D01*
X140140639Y-81603059D01*
X140179657Y-81603059D01*
X140215705Y-81588127D01*
X140243295Y-81560537D01*
X140258227Y-81524489D01*
X140260148Y-81504980D01*
X140260148Y-81081171D01*
X140617291Y-81081171D01*
X140636800Y-81079250D01*
X140638538Y-81078529D01*
X140640421Y-81078460D01*
X140658957Y-81072077D01*
X140773241Y-81019696D01*
X140781004Y-81015169D01*
X140783469Y-81014272D01*
X140786690Y-81011854D01*
X140790176Y-81009822D01*
X140791962Y-81007897D01*
X140799148Y-81002505D01*
X140856291Y-80950125D01*
X140863443Y-80942143D01*
X140865480Y-80940501D01*
X140867260Y-80937883D01*
X140869374Y-80935526D01*
X140870479Y-80933154D01*
X140876509Y-80924294D01*
X140933651Y-80819532D01*
X140941307Y-80801486D01*
X140941880Y-80796131D01*
X140943941Y-80791156D01*
X140945862Y-80771647D01*
X140945862Y-80703405D01*
X141204271Y-80703405D01*
X141205716Y-80742396D01*
X141221973Y-80777866D01*
X141250567Y-80804414D01*
X141287144Y-80818000D01*
X141326135Y-80816555D01*
X141344670Y-80810173D01*
X141458956Y-80757792D01*
X141466720Y-80753264D01*
X141469185Y-80752367D01*
X141472409Y-80749947D01*
X141475891Y-80747917D01*
X141477675Y-80745994D01*
X141484864Y-80740600D01*
X141545862Y-80684684D01*
X141545862Y-81404980D01*
X141303005Y-81404980D01*
X141283496Y-81406901D01*
X141247448Y-81421833D01*
X141219858Y-81449423D01*
X141204926Y-81485471D01*
X141204926Y-81524489D01*
X141219858Y-81560537D01*
X141247448Y-81588127D01*
X141283496Y-81603059D01*
X141303005Y-81604980D01*
X141988719Y-81604980D01*
X142008228Y-81603059D01*
X142044276Y-81588127D01*
X142071866Y-81560537D01*
X142086798Y-81524489D01*
X142086798Y-81485471D01*
X142071866Y-81449423D01*
X142044276Y-81421833D01*
X142008228Y-81406901D01*
X141988719Y-81404980D01*
X141745862Y-81404980D01*
X141745862Y-80876409D01*
X143260148Y-80876409D01*
X143260148Y-81033552D01*
X143260642Y-81038569D01*
X143260392Y-81040537D01*
X143261449Y-81046766D01*
X143262069Y-81053061D01*
X143262828Y-81054895D01*
X143263672Y-81059864D01*
X143320814Y-81269387D01*
X143321723Y-81271771D01*
X143321846Y-81272915D01*
X143324961Y-81280260D01*
X143327801Y-81287703D01*
X143328504Y-81288610D01*
X143329501Y-81290961D01*
X143386644Y-81395723D01*
X143392672Y-81404581D01*
X143393778Y-81406954D01*
X143395892Y-81409313D01*
X143397673Y-81411930D01*
X143399708Y-81413572D01*
X143406861Y-81421553D01*
X143521146Y-81526315D01*
X143536825Y-81538082D01*
X143539340Y-81538997D01*
X143541402Y-81540697D01*
X143559498Y-81548235D01*
X143730927Y-81600615D01*
X143738333Y-81602104D01*
X143740639Y-81603059D01*
X143745429Y-81603530D01*
X143750146Y-81604479D01*
X143752628Y-81604239D01*
X143760148Y-81604980D01*
X143874434Y-81604980D01*
X143881954Y-81604239D01*
X143884437Y-81604479D01*
X143889154Y-81603530D01*
X143893943Y-81603059D01*
X143896247Y-81602104D01*
X143903655Y-81600615D01*
X144075084Y-81548235D01*
X144093180Y-81540697D01*
X144095243Y-81538996D01*
X144097755Y-81538082D01*
X144113434Y-81526315D01*
X144170577Y-81473935D01*
X144183660Y-81459336D01*
X144184592Y-81457335D01*
X144186152Y-81455776D01*
X144192805Y-81439712D01*
X144200143Y-81423970D01*
X144200238Y-81421768D01*
X144201084Y-81419728D01*
X144203005Y-81400219D01*
X144203005Y-81033552D01*
X144201084Y-81014043D01*
X144186152Y-80977995D01*
X144158562Y-80950405D01*
X144122514Y-80935473D01*
X144103005Y-80933552D01*
X143874434Y-80933552D01*
X143854925Y-80935473D01*
X143818877Y-80950405D01*
X143791287Y-80977995D01*
X143776355Y-81014043D01*
X143776355Y-81053061D01*
X143791287Y-81089109D01*
X143818877Y-81116699D01*
X143854925Y-81131631D01*
X143874434Y-81133552D01*
X144003005Y-81133552D01*
X144003005Y-81356229D01*
X143994983Y-81363582D01*
X143859499Y-81404980D01*
X143775083Y-81404980D01*
X143639598Y-81363582D01*
X143554261Y-81285356D01*
X143510685Y-81205466D01*
X143460148Y-81020161D01*
X143460148Y-80889799D01*
X143510685Y-80704494D01*
X143554261Y-80624604D01*
X143639598Y-80546378D01*
X143775085Y-80504980D01*
X143909752Y-80504980D01*
X144004196Y-80548267D01*
X144022731Y-80554650D01*
X144061723Y-80556095D01*
X144098299Y-80542510D01*
X144126893Y-80515961D01*
X144143150Y-80480491D01*
X144144596Y-80441500D01*
X144131010Y-80404923D01*
X144104462Y-80376329D01*
X144087527Y-80366455D01*
X143973243Y-80314074D01*
X143954707Y-80307691D01*
X143952824Y-80307621D01*
X143951086Y-80306901D01*
X143931577Y-80304980D01*
X143760148Y-80304980D01*
X143752627Y-80305720D01*
X143750145Y-80305481D01*
X143745427Y-80306429D01*
X143740639Y-80306901D01*
X143738334Y-80307855D01*
X143730926Y-80309345D01*
X143559497Y-80361726D01*
X143541401Y-80369264D01*
X143539338Y-80370963D01*
X143536825Y-80371879D01*
X143521146Y-80383646D01*
X143406861Y-80488408D01*
X143399708Y-80496388D01*
X143397673Y-80498031D01*
X143395892Y-80500647D01*
X143393778Y-80503007D01*
X143392672Y-80505379D01*
X143386644Y-80514238D01*
X143329501Y-80619000D01*
X143328504Y-80621350D01*
X143327801Y-80622258D01*
X143324961Y-80629700D01*
X143321846Y-80637046D01*
X143321723Y-80638189D01*
X143320814Y-80640574D01*
X143263672Y-80850097D01*
X143262828Y-80855065D01*
X143262069Y-80856900D01*
X143261449Y-80863194D01*
X143260392Y-80869424D01*
X143260642Y-80871391D01*
X143260148Y-80876409D01*
X141745862Y-80876409D01*
X141745862Y-80404980D01*
X141743941Y-80385471D01*
X141740926Y-80378193D01*
X141739698Y-80370413D01*
X141733529Y-80360336D01*
X141729009Y-80349423D01*
X141723440Y-80343854D01*
X141719327Y-80337135D01*
X141709770Y-80330184D01*
X141701419Y-80321833D01*
X141694144Y-80318819D01*
X141687772Y-80314185D01*
X141676283Y-80311421D01*
X141665371Y-80306901D01*
X141657493Y-80306901D01*
X141649836Y-80305059D01*
X141638169Y-80306901D01*
X141626353Y-80306901D01*
X141619075Y-80309915D01*
X141611295Y-80311144D01*
X141601218Y-80317312D01*
X141590305Y-80321833D01*
X141584736Y-80327401D01*
X141578017Y-80331515D01*
X141564988Y-80346163D01*
X141456604Y-80495189D01*
X141361318Y-80582536D01*
X141261340Y-80628359D01*
X141244405Y-80638234D01*
X141217857Y-80666828D01*
X141204271Y-80703405D01*
X140945862Y-80703405D01*
X140945862Y-80614504D01*
X140943941Y-80594995D01*
X140941880Y-80590019D01*
X140941307Y-80584665D01*
X140933651Y-80566619D01*
X140876509Y-80461857D01*
X140870479Y-80452996D01*
X140869374Y-80450625D01*
X140867260Y-80448267D01*
X140865480Y-80445650D01*
X140863443Y-80444007D01*
X140856291Y-80436026D01*
X140799148Y-80383646D01*
X140791962Y-80378253D01*
X140790176Y-80376329D01*
X140786690Y-80374296D01*
X140783469Y-80371879D01*
X140781004Y-80370981D01*
X140773241Y-80366455D01*
X140658957Y-80314074D01*
X140640421Y-80307691D01*
X140638538Y-80307621D01*
X140636800Y-80306901D01*
X140617291Y-80304980D01*
X140160148Y-80304980D01*
X140140639Y-80306901D01*
X140104591Y-80321833D01*
X140077001Y-80349423D01*
X140062069Y-80385471D01*
X140060148Y-80404980D01*
X138944035Y-80404980D01*
X138942989Y-80381183D01*
X138926489Y-80345825D01*
X138897714Y-80319473D01*
X138861045Y-80306139D01*
X138822065Y-80307853D01*
X138786707Y-80324353D01*
X138760355Y-80353128D01*
X138751883Y-80370806D01*
X138445862Y-81212363D01*
X138139841Y-80370806D01*
X138131369Y-80353128D01*
X138105017Y-80324353D01*
X138069659Y-80307853D01*
X138030679Y-80306139D01*
X137994010Y-80319473D01*
X137965235Y-80345825D01*
X137948735Y-80381183D01*
X137947021Y-80420163D01*
X137824799Y-80420163D01*
X137824799Y-80182758D01*
X144325227Y-80182758D01*
X144325227Y-81727202D01*
G37*
D13*
G36*
X168804741Y-94715720D02*
G01*
X168828279Y-94736317D01*
X168853470Y-94780399D01*
X168853470Y-94881866D01*
X168828279Y-94925948D01*
X168804741Y-94946545D01*
X168748538Y-94971133D01*
X168621258Y-94971133D01*
X168565057Y-94946545D01*
X168541517Y-94925947D01*
X168516327Y-94881866D01*
X168516327Y-94780399D01*
X168541517Y-94736318D01*
X168565057Y-94715720D01*
X168621258Y-94691133D01*
X168748538Y-94691133D01*
X168804741Y-94715720D01*
G37*
G36*
X168804741Y-94415720D02*
G01*
X168828279Y-94436317D01*
X168853470Y-94480399D01*
X168853470Y-94481866D01*
X168828279Y-94525948D01*
X168804741Y-94546545D01*
X168748538Y-94571133D01*
X168621258Y-94571133D01*
X168565057Y-94546545D01*
X168541517Y-94525947D01*
X168516327Y-94481866D01*
X168516327Y-94480399D01*
X168541517Y-94436318D01*
X168565057Y-94415720D01*
X168621258Y-94391133D01*
X168748538Y-94391133D01*
X168804741Y-94415720D01*
G37*
G36*
X168042837Y-94415722D02*
G01*
X168066375Y-94436318D01*
X168091566Y-94480399D01*
X168091566Y-94548532D01*
X168066375Y-94592615D01*
X168042837Y-94613210D01*
X167986634Y-94637800D01*
X167754423Y-94637800D01*
X167754423Y-94391133D01*
X167986635Y-94391133D01*
X168042837Y-94415722D01*
G37*
G36*
X169051248Y-95168911D02*
G01*
X167556645Y-95168911D01*
X167556645Y-94331133D01*
X167634423Y-94331133D01*
X167634423Y-95031133D01*
X167638990Y-95054094D01*
X167671462Y-95086566D01*
X167717384Y-95086566D01*
X167749856Y-95054094D01*
X167754423Y-95031133D01*
X167754423Y-94757800D01*
X167999185Y-94757800D01*
X167999987Y-94757640D01*
X168000368Y-94757789D01*
X168011241Y-94755401D01*
X168022146Y-94753233D01*
X168022434Y-94752944D01*
X168023235Y-94752769D01*
X168099425Y-94719435D01*
X168106941Y-94714195D01*
X168114885Y-94709621D01*
X168152980Y-94676288D01*
X168159042Y-94668405D01*
X168165564Y-94660902D01*
X168203660Y-94594235D01*
X168205403Y-94589022D01*
X168206999Y-94587427D01*
X168208555Y-94579599D01*
X168211087Y-94572033D01*
X168210493Y-94569857D01*
X168211566Y-94564466D01*
X168211566Y-94464466D01*
X168396327Y-94464466D01*
X168396327Y-94497800D01*
X168397399Y-94503191D01*
X168396806Y-94505368D01*
X168399337Y-94512934D01*
X168400894Y-94520761D01*
X168402489Y-94522356D01*
X168404233Y-94527569D01*
X168442329Y-94594235D01*
X168448848Y-94601736D01*
X168454912Y-94609620D01*
X168479497Y-94631133D01*
X168454912Y-94652646D01*
X168448848Y-94660529D01*
X168442329Y-94668031D01*
X168404233Y-94734697D01*
X168402489Y-94739909D01*
X168400894Y-94741505D01*
X168399337Y-94749331D01*
X168396806Y-94756898D01*
X168397399Y-94759074D01*
X168396327Y-94764466D01*
X168396327Y-94897800D01*
X168397399Y-94903191D01*
X168396806Y-94905368D01*
X168399337Y-94912934D01*
X168400894Y-94920761D01*
X168402489Y-94922356D01*
X168404233Y-94927569D01*
X168442329Y-94994235D01*
X168448848Y-95001736D01*
X168454912Y-95009620D01*
X168493007Y-95042954D01*
X168500953Y-95047530D01*
X168508469Y-95052769D01*
X168584659Y-95086103D01*
X168585459Y-95086278D01*
X168585747Y-95086566D01*
X168596638Y-95088732D01*
X168607526Y-95091122D01*
X168607905Y-95090973D01*
X168608708Y-95091133D01*
X168761089Y-95091133D01*
X168761891Y-95090973D01*
X168762271Y-95091122D01*
X168773158Y-95088732D01*
X168784050Y-95086566D01*
X168784337Y-95086278D01*
X168785138Y-95086103D01*
X168861328Y-95052770D01*
X168868849Y-95047527D01*
X168876791Y-95042954D01*
X168914886Y-95009620D01*
X168920948Y-95001736D01*
X168927470Y-94994234D01*
X168965565Y-94927568D01*
X168967308Y-94922355D01*
X168968903Y-94920761D01*
X168970459Y-94912934D01*
X168972991Y-94905367D01*
X168972397Y-94903191D01*
X168973470Y-94897800D01*
X168973470Y-94764466D01*
X168972397Y-94759074D01*
X168972991Y-94756899D01*
X168970459Y-94749331D01*
X168968903Y-94741505D01*
X168967308Y-94739910D01*
X168965565Y-94734698D01*
X168927470Y-94668032D01*
X168920948Y-94660529D01*
X168914886Y-94652646D01*
X168890300Y-94631133D01*
X168914886Y-94609620D01*
X168920948Y-94601736D01*
X168927470Y-94594234D01*
X168965565Y-94527568D01*
X168967308Y-94522355D01*
X168968903Y-94520761D01*
X168970459Y-94512934D01*
X168972991Y-94505367D01*
X168972397Y-94503191D01*
X168973470Y-94497800D01*
X168973470Y-94464466D01*
X168972397Y-94459074D01*
X168972991Y-94456899D01*
X168970459Y-94449331D01*
X168968903Y-94441505D01*
X168967308Y-94439910D01*
X168965565Y-94434698D01*
X168927470Y-94368032D01*
X168920948Y-94360529D01*
X168914886Y-94352646D01*
X168876791Y-94319312D01*
X168868849Y-94314738D01*
X168861328Y-94309496D01*
X168785138Y-94276163D01*
X168784337Y-94275987D01*
X168784050Y-94275700D01*
X168773158Y-94273533D01*
X168762271Y-94271144D01*
X168761891Y-94271292D01*
X168761089Y-94271133D01*
X168608708Y-94271133D01*
X168607905Y-94271292D01*
X168607526Y-94271144D01*
X168596638Y-94273533D01*
X168585747Y-94275700D01*
X168585459Y-94275987D01*
X168584659Y-94276163D01*
X168508469Y-94309497D01*
X168500953Y-94314735D01*
X168493007Y-94319312D01*
X168454912Y-94352646D01*
X168448848Y-94360529D01*
X168442329Y-94368031D01*
X168404233Y-94434697D01*
X168402489Y-94439909D01*
X168400894Y-94441505D01*
X168399337Y-94449331D01*
X168396806Y-94456898D01*
X168397399Y-94459074D01*
X168396327Y-94464466D01*
X168211566Y-94464466D01*
X168210493Y-94459074D01*
X168211087Y-94456898D01*
X168208555Y-94449331D01*
X168206999Y-94441505D01*
X168205403Y-94439909D01*
X168203660Y-94434697D01*
X168165564Y-94368031D01*
X168159041Y-94360526D01*
X168152981Y-94352646D01*
X168114886Y-94319312D01*
X168106941Y-94314736D01*
X168099424Y-94309497D01*
X168023234Y-94276164D01*
X168022434Y-94275988D01*
X168022146Y-94275700D01*
X168011236Y-94273530D01*
X168000368Y-94271144D01*
X167999987Y-94271292D01*
X167999185Y-94271133D01*
X167694423Y-94271133D01*
X167671462Y-94275700D01*
X167638990Y-94308172D01*
X167634423Y-94331133D01*
X167556645Y-94331133D01*
X167556645Y-94193355D01*
X169051248Y-94193355D01*
X169051248Y-95168911D01*
G37*
G36*
X152417613Y-88908622D02*
G01*
X152438210Y-88932162D01*
X152462800Y-88988364D01*
X152462800Y-89220576D01*
X152216133Y-89220576D01*
X152216133Y-88988363D01*
X152240722Y-88932161D01*
X152261318Y-88908623D01*
X152305400Y-88883433D01*
X152373532Y-88883433D01*
X152417613Y-88908622D01*
G37*
G36*
X152750948Y-88146719D02*
G01*
X152771543Y-88170255D01*
X152796133Y-88226460D01*
X152796133Y-88353741D01*
X152771545Y-88409941D01*
X152750947Y-88433481D01*
X152706866Y-88458672D01*
X152572067Y-88458672D01*
X152527983Y-88433481D01*
X152507389Y-88409944D01*
X152482800Y-88353741D01*
X152482800Y-88226461D01*
X152507388Y-88170257D01*
X152527982Y-88146719D01*
X152572067Y-88121529D01*
X152706866Y-88121529D01*
X152750948Y-88146719D01*
G37*
G36*
X152993911Y-89418354D02*
G01*
X152018355Y-89418354D01*
X152018355Y-88975814D01*
X152096133Y-88975814D01*
X152096133Y-89280576D01*
X152100700Y-89303537D01*
X152133172Y-89336009D01*
X152156133Y-89340576D01*
X152856133Y-89340576D01*
X152879094Y-89336009D01*
X152911566Y-89303537D01*
X152911566Y-89257615D01*
X152879094Y-89225143D01*
X152856133Y-89220576D01*
X152582800Y-89220576D01*
X152582800Y-88975814D01*
X152582640Y-88975011D01*
X152582789Y-88974631D01*
X152580401Y-88963757D01*
X152578233Y-88952853D01*
X152577944Y-88952564D01*
X152577769Y-88951764D01*
X152544435Y-88875574D01*
X152539189Y-88868049D01*
X152534620Y-88860114D01*
X152501288Y-88822019D01*
X152493401Y-88815952D01*
X152485902Y-88809435D01*
X152419235Y-88771339D01*
X152414022Y-88769595D01*
X152412427Y-88768000D01*
X152404599Y-88766443D01*
X152397033Y-88763912D01*
X152394857Y-88764505D01*
X152389466Y-88763433D01*
X152289466Y-88763433D01*
X152284074Y-88764505D01*
X152281898Y-88763912D01*
X152274331Y-88766443D01*
X152266505Y-88768000D01*
X152264909Y-88769595D01*
X152259697Y-88771339D01*
X152193031Y-88809435D01*
X152185526Y-88815957D01*
X152177646Y-88822018D01*
X152144312Y-88860113D01*
X152139736Y-88868057D01*
X152134497Y-88875575D01*
X152101164Y-88951765D01*
X152100988Y-88952564D01*
X152100700Y-88952853D01*
X152098530Y-88963762D01*
X152096144Y-88974631D01*
X152096292Y-88975011D01*
X152096133Y-88975814D01*
X152018355Y-88975814D01*
X152018355Y-88137719D01*
X152096133Y-88137719D01*
X152096133Y-88290100D01*
X152096292Y-88290902D01*
X152096144Y-88291282D01*
X152098533Y-88302169D01*
X152100700Y-88313061D01*
X152100987Y-88313348D01*
X152101163Y-88314149D01*
X152134496Y-88390339D01*
X152139738Y-88397860D01*
X152144312Y-88405802D01*
X152177646Y-88443897D01*
X152182437Y-88447582D01*
X152186438Y-88452112D01*
X152286438Y-88528302D01*
X152296431Y-88533188D01*
X152306316Y-88538267D01*
X152439650Y-88576363D01*
X152447954Y-88577045D01*
X152456133Y-88578672D01*
X152722800Y-88578672D01*
X152728191Y-88577599D01*
X152730368Y-88578193D01*
X152737934Y-88575661D01*
X152745761Y-88574105D01*
X152747356Y-88572509D01*
X152752569Y-88570766D01*
X152819235Y-88532670D01*
X152826736Y-88526150D01*
X152834620Y-88520087D01*
X152867954Y-88481992D01*
X152872530Y-88474045D01*
X152877769Y-88466530D01*
X152911103Y-88390340D01*
X152911278Y-88389539D01*
X152911566Y-88389252D01*
X152913732Y-88378360D01*
X152916122Y-88367473D01*
X152915973Y-88367093D01*
X152916133Y-88366291D01*
X152916133Y-88213910D01*
X152915972Y-88213105D01*
X152916121Y-88212727D01*
X152913740Y-88201883D01*
X152911566Y-88190949D01*
X152911277Y-88190660D01*
X152911102Y-88189861D01*
X152877770Y-88113670D01*
X152872527Y-88106149D01*
X152867954Y-88098208D01*
X152834620Y-88060113D01*
X152826739Y-88054052D01*
X152819235Y-88047530D01*
X152752568Y-88009434D01*
X152747355Y-88007690D01*
X152745761Y-88006096D01*
X152737934Y-88004539D01*
X152730367Y-88002008D01*
X152728191Y-88002601D01*
X152722800Y-88001529D01*
X152556133Y-88001529D01*
X152550742Y-88002601D01*
X152548567Y-88002008D01*
X152540999Y-88004539D01*
X152533172Y-88006096D01*
X152531577Y-88007690D01*
X152526365Y-88009434D01*
X152459698Y-88047529D01*
X152452188Y-88054055D01*
X152444311Y-88060114D01*
X152410978Y-88098209D01*
X152406402Y-88106153D01*
X152401163Y-88113671D01*
X152367830Y-88189861D01*
X152367654Y-88190661D01*
X152367367Y-88190949D01*
X152365200Y-88201840D01*
X152362811Y-88212728D01*
X152362959Y-88213107D01*
X152362800Y-88213910D01*
X152362800Y-88366291D01*
X152362959Y-88367093D01*
X152362811Y-88367474D01*
X152365197Y-88378342D01*
X152367367Y-88389252D01*
X152367655Y-88389540D01*
X152367831Y-88390340D01*
X152388181Y-88436856D01*
X152350163Y-88425993D01*
X152263973Y-88360325D01*
X152240720Y-88333752D01*
X152216133Y-88277548D01*
X152216133Y-88137719D01*
X152211566Y-88114758D01*
X152179094Y-88082286D01*
X152133172Y-88082286D01*
X152100700Y-88114758D01*
X152096133Y-88137719D01*
X152018355Y-88137719D01*
X152018355Y-87923751D01*
X152993911Y-87923751D01*
X152993911Y-89418354D01*
G37*
G36*
X149867613Y-88908622D02*
G01*
X149888210Y-88932162D01*
X149912800Y-88988364D01*
X149912800Y-89220576D01*
X149666133Y-89220576D01*
X149666133Y-88988363D01*
X149690722Y-88932161D01*
X149711318Y-88908623D01*
X149755400Y-88883433D01*
X149823532Y-88883433D01*
X149867613Y-88908622D01*
G37*
G36*
X150443793Y-89418354D02*
G01*
X149468355Y-89418354D01*
X149468355Y-88975814D01*
X149546133Y-88975814D01*
X149546133Y-89280576D01*
X149550700Y-89303537D01*
X149583172Y-89336009D01*
X149606133Y-89340576D01*
X150306133Y-89340576D01*
X150329094Y-89336009D01*
X150361566Y-89303537D01*
X150361566Y-89257615D01*
X150329094Y-89225143D01*
X150306133Y-89220576D01*
X150032800Y-89220576D01*
X150032800Y-88975814D01*
X150032640Y-88975011D01*
X150032789Y-88974631D01*
X150030401Y-88963757D01*
X150028233Y-88952853D01*
X150027944Y-88952564D01*
X150027769Y-88951764D01*
X149994435Y-88875574D01*
X149989189Y-88868049D01*
X149984620Y-88860114D01*
X149951288Y-88822019D01*
X149943401Y-88815952D01*
X149935902Y-88809435D01*
X149869235Y-88771339D01*
X149864022Y-88769595D01*
X149862427Y-88768000D01*
X149854599Y-88766443D01*
X149847033Y-88763912D01*
X149844857Y-88764505D01*
X149839466Y-88763433D01*
X149739466Y-88763433D01*
X149734074Y-88764505D01*
X149731898Y-88763912D01*
X149724331Y-88766443D01*
X149716505Y-88768000D01*
X149714909Y-88769595D01*
X149709697Y-88771339D01*
X149643031Y-88809435D01*
X149635526Y-88815957D01*
X149627646Y-88822018D01*
X149594312Y-88860113D01*
X149589736Y-88868057D01*
X149584497Y-88875575D01*
X149551164Y-88951765D01*
X149550988Y-88952564D01*
X149550700Y-88952853D01*
X149548530Y-88963762D01*
X149546144Y-88974631D01*
X149546292Y-88975011D01*
X149546133Y-88975814D01*
X149468355Y-88975814D01*
X149468355Y-88023433D01*
X149546133Y-88023433D01*
X149546133Y-88556767D01*
X149550700Y-88579728D01*
X149583172Y-88612200D01*
X149629094Y-88612200D01*
X149661566Y-88579728D01*
X149666133Y-88556767D01*
X149666133Y-88119631D01*
X150279741Y-88420175D01*
X150302370Y-88426173D01*
X150345815Y-88411295D01*
X150366015Y-88370054D01*
X150351137Y-88326609D01*
X150332525Y-88312407D01*
X149632525Y-87969549D01*
X149629964Y-87968870D01*
X149629094Y-87968000D01*
X149626681Y-87968000D01*
X149609896Y-87963551D01*
X149596905Y-87968000D01*
X149583172Y-87968000D01*
X149576019Y-87975152D01*
X149566451Y-87978429D01*
X149560410Y-87990761D01*
X149550700Y-88000472D01*
X149547312Y-88017502D01*
X149546251Y-88019670D01*
X149546649Y-88020834D01*
X149546133Y-88023433D01*
X149468355Y-88023433D01*
X149468355Y-87885773D01*
X150443793Y-87885773D01*
X150443793Y-89418354D01*
G37*
D11*
G36*
X186910134Y-85565779D02*
G01*
X186936754Y-85592400D01*
X186965942Y-85650775D01*
X186965942Y-85893734D01*
X186646895Y-85893734D01*
X186646895Y-85650775D01*
X186676082Y-85592399D01*
X186702703Y-85565779D01*
X186761079Y-85536591D01*
X186851758Y-85536591D01*
X186910134Y-85565779D01*
G37*
G36*
X186986323Y-84803874D02*
G01*
X187012946Y-84830497D01*
X187042133Y-84888870D01*
X187042133Y-85017646D01*
X187012946Y-85076019D01*
X186986324Y-85102641D01*
X186927949Y-85131830D01*
X186761079Y-85131830D01*
X186702703Y-85102641D01*
X186676082Y-85076021D01*
X186646895Y-85017646D01*
X186646895Y-84888870D01*
X186676083Y-84830493D01*
X186702704Y-84803873D01*
X186761079Y-84774687D01*
X186927949Y-84774687D01*
X186986323Y-84803874D01*
G37*
G36*
X187535784Y-86082623D02*
G01*
X186458006Y-86082623D01*
X186458006Y-85638972D01*
X186546895Y-85638972D01*
X186546895Y-85943734D01*
X186550701Y-85962868D01*
X186577761Y-85989928D01*
X186596895Y-85993734D01*
X187396895Y-85993734D01*
X187416029Y-85989928D01*
X187443089Y-85962868D01*
X187443089Y-85924600D01*
X187416029Y-85897540D01*
X187396895Y-85893734D01*
X187065942Y-85893734D01*
X187065942Y-85638972D01*
X187065453Y-85636515D01*
X187065816Y-85635427D01*
X187063699Y-85627699D01*
X187062136Y-85619838D01*
X187061324Y-85619026D01*
X187060663Y-85616611D01*
X187022568Y-85540421D01*
X187017656Y-85534092D01*
X187013202Y-85527426D01*
X186975107Y-85489332D01*
X186968444Y-85484879D01*
X186962113Y-85479966D01*
X186885922Y-85441870D01*
X186883506Y-85441208D01*
X186882695Y-85440397D01*
X186874833Y-85438833D01*
X186867106Y-85436717D01*
X186866017Y-85437079D01*
X186863561Y-85436591D01*
X186749276Y-85436591D01*
X186746819Y-85437079D01*
X186745731Y-85436717D01*
X186738003Y-85438833D01*
X186730142Y-85440397D01*
X186729330Y-85441208D01*
X186726915Y-85441870D01*
X186650724Y-85479966D01*
X186644395Y-85484877D01*
X186637729Y-85489332D01*
X186599635Y-85527427D01*
X186595184Y-85534086D01*
X186590269Y-85540421D01*
X186552174Y-85616611D01*
X186551512Y-85619026D01*
X186550701Y-85619838D01*
X186549137Y-85627699D01*
X186547021Y-85635427D01*
X186547383Y-85636515D01*
X186546895Y-85638972D01*
X186458006Y-85638972D01*
X186458006Y-84877068D01*
X186546895Y-84877068D01*
X186546895Y-85029449D01*
X186547383Y-85031905D01*
X186547021Y-85032994D01*
X186549137Y-85040721D01*
X186550701Y-85048583D01*
X186551512Y-85049394D01*
X186552174Y-85051810D01*
X186590269Y-85128000D01*
X186595184Y-85134334D01*
X186599635Y-85140994D01*
X186637729Y-85179089D01*
X186644395Y-85183543D01*
X186650724Y-85188455D01*
X186726915Y-85226551D01*
X186729330Y-85227212D01*
X186730142Y-85228024D01*
X186738003Y-85229587D01*
X186745731Y-85231704D01*
X186746819Y-85231341D01*
X186749276Y-85231830D01*
X186939752Y-85231830D01*
X186942208Y-85231341D01*
X186943297Y-85231704D01*
X186951024Y-85229587D01*
X186958886Y-85228024D01*
X186959697Y-85227212D01*
X186962113Y-85226551D01*
X187038303Y-85188455D01*
X187044628Y-85183545D01*
X187051297Y-85179090D01*
X187089393Y-85140995D01*
X187093844Y-85134331D01*
X187098759Y-85128000D01*
X187136854Y-85051810D01*
X187137515Y-85049394D01*
X187138327Y-85048583D01*
X187139890Y-85040721D01*
X187142007Y-85032994D01*
X187141644Y-85031905D01*
X187142133Y-85029449D01*
X187142133Y-84877068D01*
X187141644Y-84874611D01*
X187142007Y-84873524D01*
X187139890Y-84865794D01*
X187138327Y-84857934D01*
X187137516Y-84857123D01*
X187136855Y-84854708D01*
X187103838Y-84788675D01*
X187185888Y-84809187D01*
X187288850Y-84877828D01*
X187317707Y-84906685D01*
X187346895Y-84965061D01*
X187346895Y-85105639D01*
X187350701Y-85124773D01*
X187377761Y-85151833D01*
X187416029Y-85151833D01*
X187443089Y-85124773D01*
X187446895Y-85105639D01*
X187446895Y-84953258D01*
X187446406Y-84950801D01*
X187446769Y-84949713D01*
X187444652Y-84941985D01*
X187443089Y-84934124D01*
X187442277Y-84933312D01*
X187441616Y-84930897D01*
X187403521Y-84854707D01*
X187398605Y-84848372D01*
X187394155Y-84841713D01*
X187356059Y-84803617D01*
X187351945Y-84800868D01*
X187348439Y-84797369D01*
X187234154Y-84721179D01*
X187226264Y-84717921D01*
X187218546Y-84714275D01*
X187066165Y-84676180D01*
X187060047Y-84675882D01*
X187054038Y-84674687D01*
X186749276Y-84674687D01*
X186746819Y-84675175D01*
X186745732Y-84674813D01*
X186738002Y-84676929D01*
X186730142Y-84678493D01*
X186729331Y-84679303D01*
X186726916Y-84679965D01*
X186650725Y-84718061D01*
X186644403Y-84722967D01*
X186637729Y-84727427D01*
X186599635Y-84765522D01*
X186595182Y-84772184D01*
X186590269Y-84778516D01*
X186552174Y-84854708D01*
X186551512Y-84857122D01*
X186550701Y-84857934D01*
X186549136Y-84865799D01*
X186547021Y-84873524D01*
X186547383Y-84874611D01*
X186546895Y-84877068D01*
X186458006Y-84877068D01*
X186458006Y-84585798D01*
X187535784Y-84585798D01*
X187535784Y-86082623D01*
G37*
X183942580Y-95966666D02*
X183228295Y-95966666D01*
X183228295Y-95966666D02*
X183085438Y-95919047D01*
X183085438Y-95919047D02*
X182990200Y-95823809D01*
X182990200Y-95823809D02*
X182942580Y-95680952D01*
X182942580Y-95680952D02*
X182942580Y-95585714D01*
X183609247Y-96871428D02*
X182942580Y-96871428D01*
X183990200Y-96633333D02*
X183275914Y-96395238D01*
X183275914Y-96395238D02*
X183275914Y-97014285D01*
D12*
X161592800Y-91966667D02*
X161545180Y-92109524D01*
X161545180Y-92109524D02*
X161545180Y-92347619D01*
X161545180Y-92347619D02*
X161592800Y-92442857D01*
X161592800Y-92442857D02*
X161640419Y-92490476D01*
X161640419Y-92490476D02*
X161735657Y-92538095D01*
X161735657Y-92538095D02*
X161830895Y-92538095D01*
X161830895Y-92538095D02*
X161926133Y-92490476D01*
X161926133Y-92490476D02*
X161973752Y-92442857D01*
X161973752Y-92442857D02*
X162021371Y-92347619D01*
X162021371Y-92347619D02*
X162068990Y-92157143D01*
X162068990Y-92157143D02*
X162116609Y-92061905D01*
X162116609Y-92061905D02*
X162164228Y-92014286D01*
X162164228Y-92014286D02*
X162259466Y-91966667D01*
X162259466Y-91966667D02*
X162354704Y-91966667D01*
X162354704Y-91966667D02*
X162449942Y-92014286D01*
X162449942Y-92014286D02*
X162497561Y-92061905D01*
X162497561Y-92061905D02*
X162545180Y-92157143D01*
X162545180Y-92157143D02*
X162545180Y-92395238D01*
X162545180Y-92395238D02*
X162497561Y-92538095D01*
X162545180Y-92871429D02*
X161545180Y-93109524D01*
X161545180Y-93109524D02*
X162259466Y-93300000D01*
X162259466Y-93300000D02*
X161545180Y-93490476D01*
X161545180Y-93490476D02*
X162545180Y-93728572D01*
X162449942Y-94061905D02*
X162497561Y-94109524D01*
X162497561Y-94109524D02*
X162545180Y-94204762D01*
X162545180Y-94204762D02*
X162545180Y-94442857D01*
X162545180Y-94442857D02*
X162497561Y-94538095D01*
X162497561Y-94538095D02*
X162449942Y-94585714D01*
X162449942Y-94585714D02*
X162354704Y-94633333D01*
X162354704Y-94633333D02*
X162259466Y-94633333D01*
X162259466Y-94633333D02*
X162116609Y-94585714D01*
X162116609Y-94585714D02*
X161545180Y-94014286D01*
X161545180Y-94014286D02*
X161545180Y-94633333D01*
X177833333Y-101059580D02*
X177785714Y-101107200D01*
X177785714Y-101107200D02*
X177642857Y-101154819D01*
X177642857Y-101154819D02*
X177547619Y-101154819D01*
X177547619Y-101154819D02*
X177404762Y-101107200D01*
X177404762Y-101107200D02*
X177309524Y-101011961D01*
X177309524Y-101011961D02*
X177261905Y-100916723D01*
X177261905Y-100916723D02*
X177214286Y-100726247D01*
X177214286Y-100726247D02*
X177214286Y-100583390D01*
X177214286Y-100583390D02*
X177261905Y-100392914D01*
X177261905Y-100392914D02*
X177309524Y-100297676D01*
X177309524Y-100297676D02*
X177404762Y-100202438D01*
X177404762Y-100202438D02*
X177547619Y-100154819D01*
X177547619Y-100154819D02*
X177642857Y-100154819D01*
X177642857Y-100154819D02*
X177785714Y-100202438D01*
X177785714Y-100202438D02*
X177833333Y-100250057D01*
X178785714Y-101154819D02*
X178214286Y-101154819D01*
X178500000Y-101154819D02*
X178500000Y-100154819D01*
X178500000Y-100154819D02*
X178404762Y-100297676D01*
X178404762Y-100297676D02*
X178309524Y-100392914D01*
X178309524Y-100392914D02*
X178214286Y-100440533D01*
X189338095Y-79654819D02*
X189338095Y-78654819D01*
X189338095Y-79131009D02*
X189909523Y-79131009D01*
X189909523Y-79654819D02*
X189909523Y-78654819D01*
X190909523Y-79654819D02*
X190338095Y-79654819D01*
X190623809Y-79654819D02*
X190623809Y-78654819D01*
X190623809Y-78654819D02*
X190528571Y-78797676D01*
X190528571Y-78797676D02*
X190433333Y-78892914D01*
X190433333Y-78892914D02*
X190338095Y-78940533D01*
X159633333Y-92054819D02*
X159300000Y-91578628D01*
X159061905Y-92054819D02*
X159061905Y-91054819D01*
X159061905Y-91054819D02*
X159442857Y-91054819D01*
X159442857Y-91054819D02*
X159538095Y-91102438D01*
X159538095Y-91102438D02*
X159585714Y-91150057D01*
X159585714Y-91150057D02*
X159633333Y-91245295D01*
X159633333Y-91245295D02*
X159633333Y-91388152D01*
X159633333Y-91388152D02*
X159585714Y-91483390D01*
X159585714Y-91483390D02*
X159538095Y-91531009D01*
X159538095Y-91531009D02*
X159442857Y-91578628D01*
X159442857Y-91578628D02*
X159061905Y-91578628D01*
X160014286Y-91150057D02*
X160061905Y-91102438D01*
X160061905Y-91102438D02*
X160157143Y-91054819D01*
X160157143Y-91054819D02*
X160395238Y-91054819D01*
X160395238Y-91054819D02*
X160490476Y-91102438D01*
X160490476Y-91102438D02*
X160538095Y-91150057D01*
X160538095Y-91150057D02*
X160585714Y-91245295D01*
X160585714Y-91245295D02*
X160585714Y-91340533D01*
X160585714Y-91340533D02*
X160538095Y-91483390D01*
X160538095Y-91483390D02*
X159966667Y-92054819D01*
X159966667Y-92054819D02*
X160585714Y-92054819D01*
X159833333Y-96154819D02*
X159500000Y-95678628D01*
X159261905Y-96154819D02*
X159261905Y-95154819D01*
X159261905Y-95154819D02*
X159642857Y-95154819D01*
X159642857Y-95154819D02*
X159738095Y-95202438D01*
X159738095Y-95202438D02*
X159785714Y-95250057D01*
X159785714Y-95250057D02*
X159833333Y-95345295D01*
X159833333Y-95345295D02*
X159833333Y-95488152D01*
X159833333Y-95488152D02*
X159785714Y-95583390D01*
X159785714Y-95583390D02*
X159738095Y-95631009D01*
X159738095Y-95631009D02*
X159642857Y-95678628D01*
X159642857Y-95678628D02*
X159261905Y-95678628D01*
X160785714Y-96154819D02*
X160214286Y-96154819D01*
X160500000Y-96154819D02*
X160500000Y-95154819D01*
X160500000Y-95154819D02*
X160404762Y-95297676D01*
X160404762Y-95297676D02*
X160309524Y-95392914D01*
X160309524Y-95392914D02*
X160214286Y-95440533D01*
X189338095Y-98354819D02*
X189338095Y-97354819D01*
X189338095Y-97831009D02*
X189909523Y-97831009D01*
X189909523Y-98354819D02*
X189909523Y-97354819D01*
X190338095Y-97450057D02*
X190385714Y-97402438D01*
X190385714Y-97402438D02*
X190480952Y-97354819D01*
X190480952Y-97354819D02*
X190719047Y-97354819D01*
X190719047Y-97354819D02*
X190814285Y-97402438D01*
X190814285Y-97402438D02*
X190861904Y-97450057D01*
X190861904Y-97450057D02*
X190909523Y-97545295D01*
X190909523Y-97545295D02*
X190909523Y-97640533D01*
X190909523Y-97640533D02*
X190861904Y-97783390D01*
X190861904Y-97783390D02*
X190290476Y-98354819D01*
X190290476Y-98354819D02*
X190909523Y-98354819D01*
X134730952Y-92904819D02*
X134397619Y-92428628D01*
X134159524Y-92904819D02*
X134159524Y-91904819D01*
X134159524Y-91904819D02*
X134540476Y-91904819D01*
X134540476Y-91904819D02*
X134635714Y-91952438D01*
X134635714Y-91952438D02*
X134683333Y-92000057D01*
X134683333Y-92000057D02*
X134730952Y-92095295D01*
X134730952Y-92095295D02*
X134730952Y-92238152D01*
X134730952Y-92238152D02*
X134683333Y-92333390D01*
X134683333Y-92333390D02*
X134635714Y-92381009D01*
X134635714Y-92381009D02*
X134540476Y-92428628D01*
X134540476Y-92428628D02*
X134159524Y-92428628D01*
X135683333Y-92904819D02*
X135111905Y-92904819D01*
X135397619Y-92904819D02*
X135397619Y-91904819D01*
X135397619Y-91904819D02*
X135302381Y-92047676D01*
X135302381Y-92047676D02*
X135207143Y-92142914D01*
X135207143Y-92142914D02*
X135111905Y-92190533D01*
X136016667Y-91904819D02*
X136635714Y-91904819D01*
X136635714Y-91904819D02*
X136302381Y-92285771D01*
X136302381Y-92285771D02*
X136445238Y-92285771D01*
X136445238Y-92285771D02*
X136540476Y-92333390D01*
X136540476Y-92333390D02*
X136588095Y-92381009D01*
X136588095Y-92381009D02*
X136635714Y-92476247D01*
X136635714Y-92476247D02*
X136635714Y-92714342D01*
X136635714Y-92714342D02*
X136588095Y-92809580D01*
X136588095Y-92809580D02*
X136540476Y-92857200D01*
X136540476Y-92857200D02*
X136445238Y-92904819D01*
X136445238Y-92904819D02*
X136159524Y-92904819D01*
X136159524Y-92904819D02*
X136064286Y-92857200D01*
X136064286Y-92857200D02*
X136016667Y-92809580D01*
X109838095Y-79654819D02*
X109838095Y-78654819D01*
X109838095Y-79131009D02*
X110409523Y-79131009D01*
X110409523Y-79654819D02*
X110409523Y-78654819D01*
X110790476Y-78654819D02*
X111409523Y-78654819D01*
X111409523Y-78654819D02*
X111076190Y-79035771D01*
X111076190Y-79035771D02*
X111219047Y-79035771D01*
X111219047Y-79035771D02*
X111314285Y-79083390D01*
X111314285Y-79083390D02*
X111361904Y-79131009D01*
X111361904Y-79131009D02*
X111409523Y-79226247D01*
X111409523Y-79226247D02*
X111409523Y-79464342D01*
X111409523Y-79464342D02*
X111361904Y-79559580D01*
X111361904Y-79559580D02*
X111314285Y-79607200D01*
X111314285Y-79607200D02*
X111219047Y-79654819D01*
X111219047Y-79654819D02*
X110933333Y-79654819D01*
X110933333Y-79654819D02*
X110838095Y-79607200D01*
X110838095Y-79607200D02*
X110790476Y-79559580D01*
X135261905Y-86754819D02*
X135261905Y-85754819D01*
X135261905Y-85754819D02*
X135500000Y-85754819D01*
X135500000Y-85754819D02*
X135642857Y-85802438D01*
X135642857Y-85802438D02*
X135738095Y-85897676D01*
X135738095Y-85897676D02*
X135785714Y-85992914D01*
X135785714Y-85992914D02*
X135833333Y-86183390D01*
X135833333Y-86183390D02*
X135833333Y-86326247D01*
X135833333Y-86326247D02*
X135785714Y-86516723D01*
X135785714Y-86516723D02*
X135738095Y-86611961D01*
X135738095Y-86611961D02*
X135642857Y-86707200D01*
X135642857Y-86707200D02*
X135500000Y-86754819D01*
X135500000Y-86754819D02*
X135261905Y-86754819D01*
X136214286Y-85850057D02*
X136261905Y-85802438D01*
X136261905Y-85802438D02*
X136357143Y-85754819D01*
X136357143Y-85754819D02*
X136595238Y-85754819D01*
X136595238Y-85754819D02*
X136690476Y-85802438D01*
X136690476Y-85802438D02*
X136738095Y-85850057D01*
X136738095Y-85850057D02*
X136785714Y-85945295D01*
X136785714Y-85945295D02*
X136785714Y-86040533D01*
X136785714Y-86040533D02*
X136738095Y-86183390D01*
X136738095Y-86183390D02*
X136166667Y-86754819D01*
X136166667Y-86754819D02*
X136785714Y-86754819D01*
D11*
X183942580Y-88266666D02*
X183228295Y-88266666D01*
X183228295Y-88266666D02*
X183085438Y-88219047D01*
X183085438Y-88219047D02*
X182990200Y-88123809D01*
X182990200Y-88123809D02*
X182942580Y-87980952D01*
X182942580Y-87980952D02*
X182942580Y-87885714D01*
X183942580Y-89219047D02*
X183942580Y-88742857D01*
X183942580Y-88742857D02*
X183466390Y-88695238D01*
X183466390Y-88695238D02*
X183514009Y-88742857D01*
X183514009Y-88742857D02*
X183561628Y-88838095D01*
X183561628Y-88838095D02*
X183561628Y-89076190D01*
X183561628Y-89076190D02*
X183514009Y-89171428D01*
X183514009Y-89171428D02*
X183466390Y-89219047D01*
X183466390Y-89219047D02*
X183371152Y-89266666D01*
X183371152Y-89266666D02*
X183133057Y-89266666D01*
X183133057Y-89266666D02*
X183037819Y-89219047D01*
X183037819Y-89219047D02*
X182990200Y-89171428D01*
X182990200Y-89171428D02*
X182942580Y-89076190D01*
X182942580Y-89076190D02*
X182942580Y-88838095D01*
X182942580Y-88838095D02*
X182990200Y-88742857D01*
X182990200Y-88742857D02*
X183037819Y-88695238D01*
D12*
X107032319Y-100146904D02*
X107841842Y-100146904D01*
X107841842Y-100146904D02*
X107937080Y-100099285D01*
X107937080Y-100099285D02*
X107984700Y-100051666D01*
X107984700Y-100051666D02*
X108032319Y-99956428D01*
X108032319Y-99956428D02*
X108032319Y-99765952D01*
X108032319Y-99765952D02*
X107984700Y-99670714D01*
X107984700Y-99670714D02*
X107937080Y-99623095D01*
X107937080Y-99623095D02*
X107841842Y-99575476D01*
X107841842Y-99575476D02*
X107032319Y-99575476D01*
X107127557Y-99146904D02*
X107079938Y-99099285D01*
X107079938Y-99099285D02*
X107032319Y-99004047D01*
X107032319Y-99004047D02*
X107032319Y-98765952D01*
X107032319Y-98765952D02*
X107079938Y-98670714D01*
X107079938Y-98670714D02*
X107127557Y-98623095D01*
X107127557Y-98623095D02*
X107222795Y-98575476D01*
X107222795Y-98575476D02*
X107318033Y-98575476D01*
X107318033Y-98575476D02*
X107460890Y-98623095D01*
X107460890Y-98623095D02*
X108032319Y-99194523D01*
X108032319Y-99194523D02*
X108032319Y-98575476D01*
D10*
%TO.C,J4*%
X190550000Y-93580000D02*
G75*
G02*
X188150000Y-93580000I-1200000J0D01*
G01*
X188150000Y-93580000D02*
G75*
G02*
X190550000Y-93580000I1200000J0D01*
G01*
X190550000Y-96130000D02*
G75*
G02*
X188150000Y-96130000I-1200000J0D01*
G01*
X188150000Y-96130000D02*
G75*
G02*
X190550000Y-96130000I1200000J0D01*
G01*
D13*
%TO.C,J12*%
X161683335Y-81570000D02*
X163013335Y-81570000D01*
X161683335Y-84200000D02*
X161683335Y-81570000D01*
X168093335Y-81570000D02*
X169423335Y-81570000D01*
X169423335Y-81570000D02*
X169423335Y-84200000D01*
%TO.C,J6*%
X137253334Y-81570000D02*
X138583334Y-81570000D01*
X137253334Y-84200000D02*
X137253334Y-81570000D01*
X143663334Y-81570000D02*
X144993334Y-81570000D01*
X144993334Y-81570000D02*
X144993334Y-84200000D01*
%TO.C,SW2*%
X161000000Y-91400000D02*
X161000000Y-92600000D01*
X161000000Y-94200000D02*
X161000000Y-95400000D01*
X161000000Y-95400000D02*
X167400000Y-95400000D01*
X167400000Y-91400000D02*
X161000000Y-91400000D01*
X167400000Y-92600000D02*
X167400000Y-91400000D01*
X167400000Y-95400000D02*
X167400000Y-94200000D01*
%TO.C,J11*%
X161683335Y-84757500D02*
X163013335Y-84757500D01*
X161683335Y-87387500D02*
X161683335Y-84757500D01*
X168093335Y-84757500D02*
X169423335Y-84757500D01*
X169423335Y-84757500D02*
X169423335Y-87387500D01*
%TO.C,J3*%
X153540000Y-84757500D02*
X154870000Y-84757500D01*
X153540000Y-87387500D02*
X153540000Y-84757500D01*
X159950000Y-84757500D02*
X161280000Y-84757500D01*
X161280000Y-84757500D02*
X161280000Y-87387500D01*
%TO.C,D1*%
X149590000Y-99450000D02*
X149590000Y-102750000D01*
X149590000Y-99450000D02*
X155100000Y-99450000D01*
X149590000Y-102750000D02*
X155100000Y-102750000D01*
D10*
X152700000Y-100400000D02*
X152700000Y-101800000D01*
X153500000Y-101800000D02*
X152700000Y-101100000D01*
X153500000Y-100400000D01*
X153500000Y-101800000D01*
G36*
X153500000Y-101800000D02*
G01*
X152700000Y-101100000D01*
X153500000Y-100400000D01*
X153500000Y-101800000D01*
G37*
D13*
%TO.C,C1*%
X175730000Y-97445000D02*
X175730000Y-97430000D01*
X175730000Y-99570000D02*
X175730000Y-99555000D01*
X180270000Y-97430000D02*
X175730000Y-97430000D01*
X180270000Y-97445000D02*
X180270000Y-97430000D01*
X180270000Y-99570000D02*
X175730000Y-99570000D01*
X180270000Y-99570000D02*
X180270000Y-99555000D01*
%TO.C,J1*%
D11*
X169445000Y-97555000D02*
X157345000Y-97555000D01*
X157345000Y-102855000D01*
X169445000Y-102855000D01*
X169445000Y-97555000D01*
D10*
X168925000Y-98925000D02*
G75*
G02*
X166525000Y-98925000I-1200000J0D01*
G01*
X166525000Y-98925000D02*
G75*
G02*
X168925000Y-98925000I1200000J0D01*
G01*
X168925000Y-101475000D02*
G75*
G02*
X166525000Y-101475000I-1200000J0D01*
G01*
X166525000Y-101475000D02*
G75*
G02*
X168925000Y-101475000I1200000J0D01*
G01*
D12*
%TO.C,U3*%
X137590000Y-102830000D02*
X137590000Y-85330000D01*
X137590000Y-102830000D02*
X148660000Y-102830000D01*
X148660000Y-85330000D02*
X137590000Y-85330000D01*
X148660000Y-85330000D02*
X148660000Y-102830000D01*
D11*
X137590000Y-87730000D02*
X139730000Y-87730000D01*
X139730000Y-85330000D01*
X137590000Y-85330000D01*
X137590000Y-87730000D01*
X137590000Y-102830000D02*
X139730000Y-102830000D01*
X139730000Y-100430000D01*
X137590000Y-100430000D01*
X137590000Y-102830000D01*
X146520000Y-87730000D02*
X148660000Y-87730000D01*
X148660000Y-85330000D01*
X146520000Y-85330000D01*
X146520000Y-87730000D01*
X146520000Y-102830000D02*
X148660000Y-102830000D01*
X148660000Y-100430000D01*
X146520000Y-100430000D01*
X146520000Y-102830000D01*
D13*
%TO.C,R2*%
X157365000Y-95372936D02*
X157365000Y-95827064D01*
X158835000Y-95372936D02*
X158835000Y-95827064D01*
%TO.C,J2*%
X153540000Y-81570000D02*
X154870000Y-81570000D01*
X153540000Y-84200000D02*
X153540000Y-81570000D01*
X159950000Y-81570000D02*
X161280000Y-81570000D01*
X161280000Y-81570000D02*
X161280000Y-84200000D01*
%TO.C,J7*%
X129110001Y-81570000D02*
X130440001Y-81570000D01*
X129110001Y-84200000D02*
X129110001Y-81570000D01*
X135520001Y-81570000D02*
X136850001Y-81570000D01*
X136850001Y-81570000D02*
X136850001Y-84200000D01*
%TO.C,U1*%
D11*
X169800000Y-81260000D02*
X186150000Y-81260000D01*
X186150000Y-102460000D01*
X169800000Y-102460000D01*
X169800000Y-81260000D01*
D10*
X183700000Y-97435000D02*
X182425000Y-98610000D01*
X182425000Y-96235000D01*
X183700000Y-97435000D01*
G36*
X183700000Y-97435000D02*
G01*
X182425000Y-98610000D01*
X182425000Y-96235000D01*
X183700000Y-97435000D01*
G37*
D13*
%TO.C,R1*%
X157365000Y-92027064D02*
X157365000Y-91572936D01*
X158835000Y-92027064D02*
X158835000Y-91572936D01*
%TO.C,R13*%
X134952316Y-90015000D02*
X135406444Y-90015000D01*
X134952316Y-91485000D02*
X135406444Y-91485000D01*
%TO.C,J8*%
X120966668Y-81570000D02*
X122296668Y-81570000D01*
X120966668Y-84200000D02*
X120966668Y-81570000D01*
X127376668Y-81570000D02*
X128706668Y-81570000D01*
X128706668Y-81570000D02*
X128706668Y-84200000D01*
%TO.C,D2*%
X133514380Y-87025940D02*
X133514380Y-88945940D01*
X133514380Y-88945940D02*
X136199380Y-88945940D01*
D14*
X135038440Y-88295660D02*
X135038440Y-87696220D01*
X135135900Y-87995940D02*
X135435620Y-88295660D01*
X135237500Y-87896880D02*
X135237500Y-88095000D01*
X135336560Y-88196600D02*
X135336560Y-87795280D01*
X135435620Y-87696220D02*
X135135900Y-87995940D01*
X135435620Y-88295660D02*
X135435620Y-87696220D01*
D13*
X136199380Y-87025940D02*
X133514380Y-87025940D01*
%TO.C,J9*%
X112823335Y-81570000D02*
X114153335Y-81570000D01*
X112823335Y-84200000D02*
X112823335Y-81570000D01*
X119233335Y-81570000D02*
X120563335Y-81570000D01*
X120563335Y-81570000D02*
X120563335Y-84200000D01*
D10*
%TO.C,J5*%
X190550000Y-85880000D02*
G75*
G02*
X188150000Y-85880000I-1200000J0D01*
G01*
X188150000Y-85880000D02*
G75*
G02*
X190550000Y-85880000I1200000J0D01*
G01*
X190550000Y-88430000D02*
G75*
G02*
X188150000Y-88430000I-1200000J0D01*
G01*
X188150000Y-88430000D02*
G75*
G02*
X190550000Y-88430000I1200000J0D01*
G01*
D14*
%TO.C,U2*%
X108580000Y-89170000D02*
X108580000Y-98170000D01*
X108580000Y-89170000D02*
X109880000Y-89170000D01*
X108580000Y-98170000D02*
X109880000Y-98170000D01*
X109880000Y-84670000D02*
X109880000Y-89170000D01*
X109880000Y-98170000D02*
X109880000Y-102670000D01*
X132580000Y-84670000D02*
X109880000Y-84670000D01*
X132580000Y-84670000D02*
X132580000Y-102670000D01*
X132580000Y-102670000D02*
X109880000Y-102670000D01*
D13*
%TO.C,J10*%
X145396667Y-81570000D02*
X146726667Y-81570000D01*
X145396667Y-84200000D02*
X145396667Y-81570000D01*
X151806667Y-81570000D02*
X153136667Y-81570000D01*
X153136667Y-81570000D02*
X153136667Y-84200000D01*
%TO.C,SW3*%
X149120000Y-89990000D02*
X149120000Y-96810000D01*
X150430000Y-89990000D02*
X149120000Y-89990000D01*
X150430000Y-96810000D02*
X149120000Y-96810000D01*
X150595000Y-91590000D02*
X150595000Y-95210000D01*
X150595000Y-95210000D02*
X151865000Y-95210000D01*
X150665000Y-91590000D02*
X150665000Y-92796667D01*
X150785000Y-91590000D02*
X150785000Y-92796667D01*
X150905000Y-91590000D02*
X150905000Y-92796667D01*
X151025000Y-91590000D02*
X151025000Y-92796667D01*
X151145000Y-91590000D02*
X151145000Y-92796667D01*
X151265000Y-91590000D02*
X151265000Y-92796667D01*
X151385000Y-91590000D02*
X151385000Y-92796667D01*
X151505000Y-91590000D02*
X151505000Y-92796667D01*
X151625000Y-91590000D02*
X151625000Y-92796667D01*
X151745000Y-91590000D02*
X151745000Y-92796667D01*
X151865000Y-91590000D02*
X150595000Y-91590000D01*
X151865000Y-92796667D02*
X150595000Y-92796667D01*
X151865000Y-95210000D02*
X151865000Y-91590000D01*
X152970000Y-89990000D02*
X152030000Y-89990000D01*
X152970000Y-96810000D02*
X152030000Y-96810000D01*
X153135000Y-91590000D02*
X153135000Y-95210000D01*
X153135000Y-95210000D02*
X154405000Y-95210000D01*
X153205000Y-91590000D02*
X153205000Y-92796667D01*
X153325000Y-91590000D02*
X153325000Y-92796667D01*
X153445000Y-91590000D02*
X153445000Y-92796667D01*
X153565000Y-91590000D02*
X153565000Y-92796667D01*
X153685000Y-91590000D02*
X153685000Y-92796667D01*
X153805000Y-91590000D02*
X153805000Y-92796667D01*
X153925000Y-91590000D02*
X153925000Y-92796667D01*
X154045000Y-91590000D02*
X154045000Y-92796667D01*
X154165000Y-91590000D02*
X154165000Y-92796667D01*
X154285000Y-91590000D02*
X154285000Y-92796667D01*
X154405000Y-91590000D02*
X153135000Y-91590000D01*
X154405000Y-92796667D02*
X153135000Y-92796667D01*
X154405000Y-95210000D02*
X154405000Y-91590000D01*
X155880000Y-89990000D02*
X154570000Y-89990000D01*
X155880000Y-89990000D02*
X155880000Y-96810000D01*
X155880000Y-96810000D02*
X154570000Y-96810000D01*
X156120000Y-89750000D02*
X154737000Y-89750000D01*
X156120000Y-89750000D02*
X156120000Y-91133000D01*
%TO.C,SW1*%
D10*
X133150000Y-102770000D02*
X137150000Y-102770000D01*
X137150000Y-93770000D01*
X133150000Y-93770000D01*
X133150000Y-102770000D01*
%TD*%
M02*
