M48
; DRILL file {KiCad 8.0.4} date 2024-09-16T16:41:39-0300
; FORMAT={-:-/ absolute / metric / decimal}
; #@! TF.CreationDate,2024-09-16T16:41:39-03:00
; #@! TF.GenerationSoftware,Kicad,Pcbnew,8.0.4
; #@! TF.FileFunction,Plated,1,2,PTH
FMAT,2
METRIC
; #@! TA.AperFunction,Plated,PTH,ViaDrill
T1C0.400
; #@! TA.AperFunction,Plated,PTH,ComponentDrill
T2C0.762
; #@! TA.AperFunction,Plated,PTH,ComponentDrill
T3C0.800
; #@! TA.AperFunction,Plated,PTH,ComponentDrill
T4C1.000
; #@! TA.AperFunction,Plated,PTH,ComponentDrill
T5C1.200
; #@! TA.AperFunction,Plated,PTH,ComponentDrill
T6C2.200
%
G90
G05
T1
X109.15Y-84.55
X109.15Y-86.5
X109.15Y-88.45
X109.15Y-90.4
X109.15Y-92.35
X109.15Y-94.3
X109.15Y-96.25
X109.15Y-98.2
X109.15Y-100.15
X134.485Y-86.11
X142.9Y-101.75
X148.3Y-96.6
X151.2Y-94.65
X153.2Y-84.5
X157.41Y-89.3
X161.5Y-88.2
X163.0Y-91.15
X165.95Y-98.1
X165.95Y-99.3
X169.55Y-98.1
X169.55Y-99.3
X169.6Y-100.6
X169.6Y-102.2
X169.65Y-82.8
X169.65Y-84.1
X172.2Y-100.6
X172.2Y-102.2
X172.9Y-82.8
X172.9Y-84.1
X173.1Y-87.017
X173.1Y-92.408
X173.1Y-98.1
X173.1Y-99.3
X174.8Y-100.6
X174.8Y-102.2
X177.4Y-100.6
X177.4Y-102.2
X180.0Y-91.0
X180.0Y-93.6
X180.0Y-96.2
X180.0Y-100.6
X180.0Y-102.2
X182.6Y-91.0
X182.6Y-93.6
X182.6Y-96.2
X182.6Y-98.6
X182.6Y-100.6
X182.6Y-102.2
X182.8Y-82.8
X182.8Y-84.1
X185.2Y-100.6
X185.2Y-102.2
X186.9Y-80.52
X186.9Y-83.56
X186.9Y-86.6
X186.9Y-87.65
X186.9Y-90.7
X186.9Y-91.8
X186.9Y-94.5
X186.9Y-95.65
X186.9Y-98.825
X186.9Y-102.0
X189.35Y-90.7
X189.35Y-91.8
X191.7Y-84.15
X191.7Y-86.6
X191.7Y-87.65
X191.7Y-90.7
X191.7Y-91.8
X191.7Y-94.4
X191.7Y-95.65
X191.7Y-98.7
T2
X135.15Y-95.73
X135.15Y-98.27
X135.15Y-100.81
T3
X175.5Y-98.5
X180.5Y-98.5
T4
X111.33Y-86.05
X111.33Y-101.29
X113.87Y-86.05
X113.87Y-101.29
X114.153Y-82.9
X116.41Y-86.05
X116.41Y-101.29
X116.693Y-82.9
X118.95Y-86.05
X118.95Y-101.29
X119.233Y-82.9
X121.49Y-86.05
X121.49Y-101.29
X122.297Y-82.9
X124.03Y-86.05
X124.03Y-101.29
X124.837Y-82.9
X126.57Y-86.05
X126.57Y-101.29
X127.377Y-82.9
X129.11Y-86.05
X129.11Y-101.29
X130.44Y-82.9
X132.98Y-82.9
X135.52Y-82.9
X138.583Y-82.9
X141.123Y-82.9
X143.663Y-82.9
X146.727Y-82.9
X149.267Y-82.9
X151.807Y-82.9
X154.87Y-82.9
X154.87Y-86.087
X157.41Y-82.9
X157.41Y-86.087
X159.95Y-82.9
X159.95Y-86.087
X163.013Y-82.9
X163.013Y-86.087
X165.553Y-82.9
X165.553Y-86.087
X167.725Y-98.93
X167.725Y-101.47
X168.093Y-82.9
X168.093Y-86.087
X171.25Y-83.41
X171.25Y-85.95
X171.25Y-88.49
X171.25Y-91.03
X171.25Y-93.57
X171.25Y-96.11
X171.25Y-98.65
X184.65Y-83.41
X184.65Y-85.95
X184.65Y-88.49
X184.65Y-91.03
X184.65Y-93.57
X184.65Y-96.11
X184.65Y-98.65
X189.35Y-85.885
X189.35Y-88.425
X189.35Y-93.585
X189.35Y-96.125
T5
X138.56Y-86.46
X138.56Y-101.7
X147.7Y-86.46
X147.7Y-101.7
T6
X110.6Y-82.1
X190.1Y-82.1
X190.1Y-100.8
M30
