%TF.GenerationSoftware,KiCad,Pcbnew,8.0.4*%
%TF.CreationDate,2024-09-16T11:13:23-03:00*%
%TF.ProjectId,Mini-C3-panelized,4d696e69-2d43-4332-9d70-616e656c697a,rev?*%
%TF.SameCoordinates,Original*%
%TF.FileFunction,Profile,NP*%
%FSLAX46Y46*%
G04 Gerber Fmt 4.6, Leading zero omitted, Abs format (unit mm)*
G04 Created by KiCad (PCBNEW 8.0.4) date 2024-09-16 11:13:23*
%MOMM*%
%LPD*%
G01*
G04 APERTURE LIST*
%TA.AperFunction,Profile*%
%ADD10C,0.100000*%
%TD*%
G04 APERTURE END LIST*
D10*
X106478440Y-30597402D02*
X106460563Y-30697144D01*
X106478440Y-57897402D02*
X106460563Y-57997144D01*
X188965097Y-56340940D02*
X188865355Y-56323063D01*
X103437500Y-47033333D02*
X106437500Y-47033333D01*
X190521559Y-30597402D02*
X190498654Y-30498694D01*
X189161226Y-52208278D02*
X189257110Y-52175504D01*
X107134755Y-29482483D02*
X107059566Y-29550414D01*
X198562500Y-20000000D02*
X98437500Y-20000000D01*
X190080016Y-29697255D02*
X190012085Y-29622066D01*
X166531250Y-79600000D02*
X166531250Y-83600000D01*
X190358109Y-78480788D02*
X190400415Y-78388711D01*
X188562500Y-56300000D02*
X172531250Y-56300000D01*
X106688806Y-78570603D02*
X106740211Y-78657928D01*
X190559933Y-50401298D02*
X190562500Y-50300000D01*
X190259788Y-78657928D02*
X190311193Y-78570603D01*
X166531250Y-83600000D02*
X151500000Y-83600000D01*
X106641890Y-30119211D02*
X106599584Y-30211288D01*
X190521559Y-57897402D02*
X190498654Y-57798694D01*
X193562500Y-39266666D02*
X193562500Y-42033333D01*
X189351211Y-52137915D02*
X189443288Y-52095609D01*
X190012085Y-56922066D02*
X189940433Y-56850414D01*
X106987914Y-51677933D02*
X107059566Y-51749585D01*
X190311193Y-78570603D02*
X190358109Y-78480788D01*
X190498654Y-30498694D02*
X190470778Y-30401273D01*
X188865355Y-52276936D02*
X188965097Y-52259059D01*
X145500000Y-52300000D02*
X145500000Y-54299000D01*
X124468750Y-54301000D02*
X124468750Y-56300000D01*
X189257110Y-29124495D02*
X189161226Y-29091721D01*
X188865355Y-29023063D02*
X188764836Y-29010261D01*
X106987914Y-56922066D02*
X106919983Y-56997255D01*
X145500000Y-83600000D02*
X130468750Y-83600000D01*
X172531250Y-83600000D02*
X172531250Y-79600000D01*
X106440066Y-58198701D02*
X106437500Y-58300000D01*
X189443288Y-79395609D02*
X189533103Y-79348693D01*
X103437500Y-25000000D02*
X124468750Y-25000000D01*
X107466896Y-52048693D02*
X107556711Y-52095609D01*
X106447761Y-77802336D02*
X106460563Y-77902855D01*
X188965097Y-29040940D02*
X188865355Y-29023063D01*
X107838773Y-79508278D02*
X107936194Y-79536154D01*
X130468750Y-52300000D02*
X145500000Y-52300000D01*
X98437500Y-20000000D02*
X98437500Y-88600000D01*
X188764836Y-79589738D02*
X188865355Y-79576936D01*
X193562500Y-66566666D02*
X193562500Y-69333333D01*
X145500000Y-56300000D02*
X130468750Y-56300000D01*
X145500000Y-25000000D02*
X145500000Y-29000000D01*
X189786711Y-29418448D02*
X189705036Y-29358473D01*
X166531250Y-52300000D02*
X166531250Y-54299000D01*
X124468750Y-25000000D02*
X124468750Y-29000000D01*
X189786711Y-56718448D02*
X189705036Y-56658473D01*
X172531250Y-54301000D02*
X172531250Y-54299000D01*
X107059566Y-29550414D02*
X106987914Y-29622066D01*
X193562500Y-34266666D02*
X190562500Y-34266666D01*
X106437500Y-74333333D02*
X106437500Y-77600000D01*
X190080016Y-56997255D02*
X190012085Y-56922066D01*
X190552238Y-30797663D02*
X190539436Y-30697144D01*
X190539436Y-57997144D02*
X190521559Y-57897402D01*
X189705036Y-79241526D02*
X189786711Y-79181551D01*
X103437500Y-74333333D02*
X106437500Y-74333333D01*
X190400415Y-57511288D02*
X190358109Y-57419211D01*
X106688806Y-30029396D02*
X106641890Y-30119211D01*
X107466896Y-29251306D02*
X107379571Y-29302711D01*
X193562500Y-83600000D02*
X172531250Y-83600000D01*
X124468750Y-56300000D02*
X108437500Y-56300000D01*
X188764836Y-56310261D02*
X188663798Y-56302566D01*
X106529221Y-50898726D02*
X106561995Y-50994610D01*
X103437500Y-61566666D02*
X103437500Y-47033333D01*
X151500000Y-52300000D02*
X166531250Y-52300000D01*
X106478440Y-78002597D02*
X106501345Y-78101305D01*
X106501345Y-78101305D02*
X106529221Y-78198726D01*
X172531250Y-52300000D02*
X188562500Y-52300000D01*
X107294963Y-79241526D02*
X107379571Y-79297288D01*
X190400415Y-51088711D02*
X190438004Y-50994610D01*
X106501345Y-50801305D02*
X106529221Y-50898726D01*
X106641890Y-57419211D02*
X106599584Y-57511288D01*
X108034902Y-52259059D02*
X108134644Y-52276936D01*
X172531250Y-25000000D02*
X193562500Y-25000000D01*
X190562500Y-50300000D02*
X190562500Y-47033333D01*
X151500000Y-56300000D02*
X151500000Y-54301000D01*
X151500000Y-79600000D02*
X166531250Y-79600000D01*
X189257110Y-52175504D02*
X189351211Y-52137915D01*
X103437500Y-42033333D02*
X103437500Y-39266666D01*
X190012085Y-51677933D02*
X190080016Y-51602744D01*
X107213288Y-29418448D02*
X107134755Y-29482483D01*
X106795973Y-57157463D02*
X106740211Y-57242071D01*
X106529221Y-57701273D02*
X106501345Y-57798694D01*
X190400415Y-30211288D02*
X190358109Y-30119211D01*
X107213288Y-79181551D02*
X107294963Y-79241526D01*
X106795973Y-51442536D02*
X106855948Y-51524211D01*
X103437500Y-34266666D02*
X103437500Y-25000000D01*
X103437500Y-69333333D02*
X103437500Y-66566666D01*
X190552238Y-77802336D02*
X190559933Y-77701298D01*
X107294963Y-51941526D02*
X107379571Y-51997288D01*
X145500000Y-29000000D02*
X130468750Y-29000000D01*
X151500000Y-29000000D02*
X151500000Y-25000000D01*
X190311193Y-30029396D02*
X190259788Y-29942071D01*
X124468750Y-79600000D02*
X124468750Y-83600000D01*
X106501345Y-57798694D02*
X106478440Y-57897402D01*
X106440066Y-77701298D02*
X106447761Y-77802336D01*
X190080016Y-78902744D02*
X190144051Y-78824211D01*
X190562500Y-66566666D02*
X193562500Y-66566666D01*
X190438004Y-30305389D02*
X190400415Y-30211288D01*
X166531250Y-54301000D02*
X166531250Y-56300000D01*
X106795973Y-29857463D02*
X106740211Y-29942071D01*
X130468750Y-79600000D02*
X145500000Y-79600000D01*
X98437500Y-88600000D02*
X198562500Y-88600000D01*
X106561995Y-50994610D02*
X106599584Y-51088711D01*
X193562500Y-25000000D02*
X193562500Y-34266666D01*
X106561995Y-57605389D02*
X106529221Y-57701273D01*
X190080016Y-51602744D02*
X190144051Y-51524211D01*
X130468750Y-54299000D02*
X130468750Y-52300000D01*
X151500000Y-54301000D02*
X151500000Y-54299000D01*
X106599584Y-78388711D02*
X106641890Y-78480788D01*
X190562500Y-61566666D02*
X190562500Y-58300000D01*
X107556711Y-52095609D02*
X107648788Y-52137915D01*
X189063805Y-56363845D02*
X188965097Y-56340940D01*
X107379571Y-29302711D02*
X107294963Y-29358473D01*
X189351211Y-29162084D02*
X189257110Y-29124495D01*
X188764836Y-52289738D02*
X188865355Y-52276936D01*
X107134755Y-56782483D02*
X107059566Y-56850414D01*
X189161226Y-29091721D02*
X189063805Y-29063845D01*
X108336201Y-52297433D02*
X108437500Y-52300000D01*
X108134644Y-79576936D02*
X108235163Y-79589738D01*
X190562500Y-42033333D02*
X190562500Y-39266666D01*
X106460563Y-50602855D02*
X106478440Y-50702597D01*
X106478440Y-50702597D02*
X106501345Y-50801305D01*
X189940433Y-29550414D02*
X189865244Y-29482483D01*
X108336201Y-29002566D02*
X108235163Y-29010261D01*
X108235163Y-56310261D02*
X108134644Y-56323063D01*
X106641890Y-78480788D02*
X106688806Y-78570603D01*
X107134755Y-51817516D02*
X107213288Y-51881551D01*
X106460563Y-57997144D02*
X106447761Y-58097663D01*
X190498654Y-50801305D02*
X190521559Y-50702597D01*
X172531250Y-29000000D02*
X172531250Y-25000000D01*
X189620428Y-79297288D02*
X189705036Y-79241526D01*
X107059566Y-51749585D02*
X107134755Y-51817516D01*
X107742889Y-52175504D02*
X107838773Y-52208278D01*
X189161226Y-56391721D02*
X189063805Y-56363845D01*
X190438004Y-50994610D02*
X190470778Y-50898726D01*
X107742889Y-29124495D02*
X107648788Y-29162084D01*
X188965097Y-79559059D02*
X189063805Y-79536154D01*
X106740211Y-51357928D02*
X106795973Y-51442536D01*
X106529221Y-30401273D02*
X106501345Y-30498694D01*
X151500000Y-83600000D02*
X151500000Y-79600000D01*
X189705036Y-56658473D02*
X189620428Y-56602711D01*
X189257110Y-79475504D02*
X189351211Y-79437915D01*
X190552238Y-58097663D02*
X190539436Y-57997144D01*
X108336201Y-79597433D02*
X108437500Y-79600000D01*
X193562500Y-61566666D02*
X190562500Y-61566666D01*
X106987914Y-78977933D02*
X107059566Y-79049585D01*
X107742889Y-56424495D02*
X107648788Y-56462084D01*
X107379571Y-79297288D02*
X107466896Y-79348693D01*
X107294963Y-56658473D02*
X107213288Y-56718448D01*
X172531250Y-54299000D02*
X172531250Y-52300000D01*
X106855948Y-57075788D02*
X106795973Y-57157463D01*
X190498654Y-78101305D02*
X190521559Y-78002597D01*
X106599584Y-30211288D02*
X106561995Y-30305389D01*
X172531250Y-79600000D02*
X188562500Y-79600000D01*
X151500000Y-25000000D02*
X166531250Y-25000000D01*
X190552238Y-50502336D02*
X190559933Y-50401298D01*
X166531250Y-25000000D02*
X166531250Y-29000000D01*
X106561995Y-78294610D02*
X106599584Y-78388711D01*
X190562500Y-47033333D02*
X193562500Y-47033333D01*
X189865244Y-56782483D02*
X189786711Y-56718448D01*
X190311193Y-51270603D02*
X190358109Y-51180788D01*
X190562500Y-34266666D02*
X190562500Y-31000000D01*
X145500000Y-79600000D02*
X145500000Y-83600000D01*
X188865355Y-56323063D02*
X188764836Y-56310261D01*
X188865355Y-79576936D02*
X188965097Y-79559059D01*
X107936194Y-79536154D02*
X108034902Y-79559059D01*
X107648788Y-56462084D02*
X107556711Y-56504390D01*
X108034902Y-79559059D02*
X108134644Y-79576936D01*
X189533103Y-29251306D02*
X189443288Y-29204390D01*
X190144051Y-29775788D02*
X190080016Y-29697255D01*
X106919983Y-29697255D02*
X106855948Y-29775788D01*
X107838773Y-56391721D02*
X107742889Y-56424495D01*
X190562500Y-58300000D02*
X190559933Y-58198701D01*
X107134755Y-79117516D02*
X107213288Y-79181551D01*
X106437500Y-77600000D02*
X106440066Y-77701298D01*
X190204026Y-51442536D02*
X190259788Y-51357928D01*
X107213288Y-51881551D02*
X107294963Y-51941526D01*
X190144051Y-78824211D02*
X190204026Y-78742536D01*
X198562500Y-88600000D02*
X198562500Y-20000000D01*
X107059566Y-79049585D02*
X107134755Y-79117516D01*
X189257110Y-56424495D02*
X189161226Y-56391721D01*
X189443288Y-29204390D02*
X189351211Y-29162084D01*
X108437500Y-79600000D02*
X124468750Y-79600000D01*
X107379571Y-56602711D02*
X107294963Y-56658473D01*
X189161226Y-79508278D02*
X189257110Y-79475504D01*
X189620428Y-29302711D02*
X189533103Y-29251306D01*
X106688806Y-57329396D02*
X106641890Y-57419211D01*
X108134644Y-52276936D02*
X108235163Y-52289738D01*
X190438004Y-78294610D02*
X190470778Y-78198726D01*
X130468750Y-25000000D02*
X145500000Y-25000000D01*
X107838773Y-29091721D02*
X107742889Y-29124495D01*
X107213288Y-56718448D02*
X107134755Y-56782483D01*
X166531250Y-29000000D02*
X151500000Y-29000000D01*
X106599584Y-57511288D02*
X106561995Y-57605389D01*
X193562500Y-47033333D02*
X193562500Y-61566666D01*
X107379571Y-51997288D02*
X107466896Y-52048693D01*
X190559933Y-77701298D02*
X190562500Y-77600000D01*
X188562500Y-29000000D02*
X172531250Y-29000000D01*
X106919983Y-51602744D02*
X106987914Y-51677933D01*
X107556711Y-79395609D02*
X107648788Y-79437915D01*
X103437500Y-39266666D02*
X106437500Y-39266666D01*
X106641890Y-51180788D02*
X106688806Y-51270603D01*
X189786711Y-51881551D02*
X189865244Y-51817516D01*
X188562500Y-52300000D02*
X188663798Y-52297433D01*
X107059566Y-56850414D02*
X106987914Y-56922066D01*
X106599584Y-51088711D02*
X106641890Y-51180788D01*
X172531250Y-56300000D02*
X172531250Y-54301000D01*
X108034902Y-29040940D02*
X107936194Y-29063845D01*
X190259788Y-57242071D02*
X190204026Y-57157463D01*
X108336201Y-56302566D02*
X108235163Y-56310261D01*
X189063805Y-52236154D02*
X189161226Y-52208278D01*
X166531250Y-56300000D02*
X151500000Y-56300000D01*
X108034902Y-56340940D02*
X107936194Y-56363845D01*
X189620428Y-56602711D02*
X189533103Y-56551306D01*
X106447761Y-58097663D02*
X106440066Y-58198701D01*
X188562500Y-79600000D02*
X188663798Y-79597433D01*
X190259788Y-51357928D02*
X190311193Y-51270603D01*
X189940433Y-51749585D02*
X190012085Y-51677933D01*
X106437500Y-34266666D02*
X103437500Y-34266666D01*
X189865244Y-29482483D02*
X189786711Y-29418448D01*
X106447761Y-50502336D02*
X106460563Y-50602855D01*
X190012085Y-78977933D02*
X190080016Y-78902744D01*
X189443288Y-52095609D02*
X189533103Y-52048693D01*
X189443288Y-56504390D02*
X189351211Y-56462084D01*
X106740211Y-78657928D02*
X106795973Y-78742536D01*
X108235163Y-29010261D02*
X108134644Y-29023063D01*
X193562500Y-42033333D02*
X190562500Y-42033333D01*
X106437500Y-58300000D02*
X106437500Y-61566666D01*
X106688806Y-51270603D02*
X106740211Y-51357928D01*
X103437500Y-83600000D02*
X103437500Y-74333333D01*
X130468750Y-29000000D02*
X130468750Y-25000000D01*
X106740211Y-29942071D02*
X106688806Y-30029396D01*
X106919983Y-78902744D02*
X106987914Y-78977933D01*
X190144051Y-51524211D02*
X190204026Y-51442536D01*
X190144051Y-57075788D02*
X190080016Y-56997255D01*
X106460563Y-30697144D02*
X106447761Y-30797663D01*
X189620428Y-51997288D02*
X189705036Y-51941526D01*
X189351211Y-56462084D02*
X189257110Y-56424495D01*
X107556711Y-56504390D02*
X107466896Y-56551306D01*
X130468750Y-56300000D02*
X130468750Y-54301000D01*
X106437500Y-50300000D02*
X106440066Y-50401298D01*
X106440066Y-50401298D02*
X106447761Y-50502336D01*
X145500000Y-54299000D02*
X145500000Y-54301000D01*
X190521559Y-50702597D02*
X190539436Y-50602855D01*
X190562500Y-69333333D02*
X190562500Y-66566666D01*
X190358109Y-51180788D02*
X190400415Y-51088711D01*
X190470778Y-78198726D02*
X190498654Y-78101305D01*
X107936194Y-56363845D02*
X107838773Y-56391721D01*
X189865244Y-79117516D02*
X189940433Y-79049585D01*
X107742889Y-79475504D02*
X107838773Y-79508278D01*
X108437500Y-56300000D02*
X108336201Y-56302566D01*
X190438004Y-57605389D02*
X190400415Y-57511288D01*
X189705036Y-51941526D02*
X189786711Y-51881551D01*
X189865244Y-51817516D02*
X189940433Y-51749585D01*
X107466896Y-79348693D02*
X107556711Y-79395609D01*
X190539436Y-50602855D02*
X190552238Y-50502336D01*
X189351211Y-79437915D02*
X189443288Y-79395609D01*
X107936194Y-29063845D02*
X107838773Y-29091721D01*
X107648788Y-52137915D02*
X107742889Y-52175504D01*
X190470778Y-57701273D02*
X190438004Y-57605389D01*
X188663798Y-29002566D02*
X188562500Y-29000000D01*
X106987914Y-29622066D02*
X106919983Y-29697255D01*
X188663798Y-52297433D02*
X188764836Y-52289738D01*
X106447761Y-30797663D02*
X106440066Y-30898701D01*
X190400415Y-78388711D02*
X190438004Y-78294610D01*
X124468750Y-29000000D02*
X108437500Y-29000000D01*
X190204026Y-57157463D02*
X190144051Y-57075788D01*
X107556711Y-29204390D02*
X107466896Y-29251306D01*
X190521559Y-78002597D02*
X190539436Y-77902855D01*
X107294963Y-29358473D02*
X107213288Y-29418448D01*
X108235163Y-52289738D02*
X108336201Y-52297433D01*
X189786711Y-79181551D02*
X189865244Y-79117516D01*
X103437500Y-66566666D02*
X106437500Y-66566666D01*
X107838773Y-52208278D02*
X107936194Y-52236154D01*
X106561995Y-30305389D02*
X106529221Y-30401273D01*
X190470778Y-50898726D02*
X190498654Y-50801305D01*
X106460563Y-77902855D02*
X106478440Y-78002597D01*
X190358109Y-30119211D02*
X190311193Y-30029396D01*
X106437500Y-66566666D02*
X106437500Y-69333333D01*
X190311193Y-57329396D02*
X190259788Y-57242071D01*
X166531250Y-54299000D02*
X166531250Y-54301000D01*
X106855948Y-29775788D02*
X106795973Y-29857463D01*
X145500000Y-54301000D02*
X145500000Y-56300000D01*
X130468750Y-54301000D02*
X130468750Y-54299000D01*
X108437500Y-29000000D02*
X108336201Y-29002566D01*
X106919983Y-56997255D02*
X106855948Y-57075788D01*
X190562500Y-39266666D02*
X193562500Y-39266666D01*
X190539436Y-77902855D02*
X190552238Y-77802336D01*
X107936194Y-52236154D02*
X108034902Y-52259059D01*
X190562500Y-74333333D02*
X193562500Y-74333333D01*
X106437500Y-47033333D02*
X106437500Y-50300000D01*
X193562500Y-74333333D02*
X193562500Y-83600000D01*
X190559933Y-30898701D02*
X190552238Y-30797663D01*
X124468750Y-54299000D02*
X124468750Y-54301000D01*
X190204026Y-78742536D02*
X190259788Y-78657928D01*
X108134644Y-56323063D02*
X108034902Y-56340940D01*
X106437500Y-61566666D02*
X103437500Y-61566666D01*
X190204026Y-29857463D02*
X190144051Y-29775788D01*
X189533103Y-56551306D02*
X189443288Y-56504390D01*
X188663798Y-56302566D02*
X188562500Y-56300000D01*
X190562500Y-31000000D02*
X190559933Y-30898701D01*
X107648788Y-79437915D02*
X107742889Y-79475504D01*
X190539436Y-30697144D02*
X190521559Y-30597402D01*
X106795973Y-78742536D02*
X106855948Y-78824211D01*
X190498654Y-57798694D02*
X190470778Y-57701273D01*
X188663798Y-79597433D02*
X188764836Y-79589738D01*
X124468750Y-83600000D02*
X103437500Y-83600000D01*
X190259788Y-29942071D02*
X190204026Y-29857463D01*
X189705036Y-29358473D02*
X189620428Y-29302711D01*
X190012085Y-29622066D02*
X189940433Y-29550414D01*
X151500000Y-54299000D02*
X151500000Y-52300000D01*
X124468750Y-52300000D02*
X124468750Y-54299000D01*
X108437500Y-52300000D02*
X124468750Y-52300000D01*
X189063805Y-29063845D02*
X188965097Y-29040940D01*
X189063805Y-79536154D02*
X189161226Y-79508278D01*
X106740211Y-57242071D02*
X106688806Y-57329396D01*
X106437500Y-42033333D02*
X103437500Y-42033333D01*
X193562500Y-69333333D02*
X190562500Y-69333333D01*
X189940433Y-79049585D02*
X190012085Y-78977933D01*
X189533103Y-79348693D02*
X189620428Y-79297288D01*
X106440066Y-30898701D02*
X106437500Y-31000000D01*
X189940433Y-56850414D02*
X189865244Y-56782483D01*
X106437500Y-31000000D02*
X106437500Y-34266666D01*
X190358109Y-57419211D02*
X190311193Y-57329396D01*
X106855948Y-51524211D02*
X106919983Y-51602744D01*
X189533103Y-52048693D02*
X189620428Y-51997288D01*
X107466896Y-56551306D02*
X107379571Y-56602711D01*
X188965097Y-52259059D02*
X189063805Y-52236154D01*
X106529221Y-78198726D02*
X106561995Y-78294610D01*
X108134644Y-29023063D02*
X108034902Y-29040940D01*
X106501345Y-30498694D02*
X106478440Y-30597402D01*
X106437500Y-69333333D02*
X103437500Y-69333333D01*
X190562500Y-77600000D02*
X190562500Y-74333333D01*
X106855948Y-78824211D02*
X106919983Y-78902744D01*
X108235163Y-79589738D02*
X108336201Y-79597433D01*
X188764836Y-29010261D02*
X188663798Y-29002566D01*
X190470778Y-30401273D02*
X190438004Y-30305389D01*
X130468750Y-83600000D02*
X130468750Y-79600000D01*
X107648788Y-29162084D02*
X107556711Y-29204390D01*
X106437500Y-39266666D02*
X106437500Y-42033333D01*
X190559933Y-58198701D02*
X190552238Y-58097663D01*
M02*
