%TF.GenerationSoftware,KiCad,Pcbnew,8.0.4*%
%TF.CreationDate,2024-09-16T11:13:22-03:00*%
%TF.ProjectId,Mini-C3-panelized,4d696e69-2d43-4332-9d70-616e656c697a,rev?*%
%TF.SameCoordinates,Original*%
%TF.FileFunction,Copper,L2,Bot*%
%TF.FilePolarity,Positive*%
%FSLAX46Y46*%
G04 Gerber Fmt 4.6, Leading zero omitted, Abs format (unit mm)*
G04 Created by KiCad (PCBNEW 8.0.4) date 2024-09-16 11:13:22*
%MOMM*%
%LPD*%
G01*
G04 APERTURE LIST*
G04 Aperture macros list*
%AMRoundRect*
0 Rectangle with rounded corners*
0 $1 Rounding radius*
0 $2 $3 $4 $5 $6 $7 $8 $9 X,Y pos of 4 corners*
0 Add a 4 corners polygon primitive as box body*
4,1,4,$2,$3,$4,$5,$6,$7,$8,$9,$2,$3,0*
0 Add four circle primitives for the rounded corners*
1,1,$1+$1,$2,$3*
1,1,$1+$1,$4,$5*
1,1,$1+$1,$6,$7*
1,1,$1+$1,$8,$9*
0 Add four rect primitives between the rounded corners*
20,1,$1+$1,$2,$3,$4,$5,0*
20,1,$1+$1,$4,$5,$6,$7,0*
20,1,$1+$1,$6,$7,$8,$9,0*
20,1,$1+$1,$8,$9,$2,$3,0*%
%AMFreePoly0*
4,1,6,1.000000,0.000000,0.500000,-0.750000,-0.500000,-0.750000,-0.500000,0.750000,0.500000,0.750000,1.000000,0.000000,1.000000,0.000000,$1*%
%AMFreePoly1*
4,1,7,0.700000,0.000000,1.200000,-0.750000,-1.200000,-0.750000,-0.700000,0.000000,-1.200000,0.750000,1.200000,0.750000,0.700000,0.000000,0.700000,0.000000,$1*%
%AMFreePoly2*
4,1,19,0.500000,-0.750000,0.000000,-0.750000,0.000000,-0.744911,-0.071157,-0.744911,-0.207708,-0.704816,-0.327430,-0.627875,-0.420627,-0.520320,-0.479746,-0.390866,-0.500000,-0.250000,-0.500000,0.250000,-0.479746,0.390866,-0.420627,0.520320,-0.327430,0.627875,-0.207708,0.704816,-0.071157,0.744911,0.000000,0.744911,0.000000,0.750000,0.500000,0.750000,0.500000,-0.750000,0.500000,-0.750000,
$1*%
%AMFreePoly3*
4,1,19,0.000000,0.744911,0.071157,0.744911,0.207708,0.704816,0.327430,0.627875,0.420627,0.520320,0.479746,0.390866,0.500000,0.250000,0.500000,-0.250000,0.479746,-0.390866,0.420627,-0.520320,0.327430,-0.627875,0.207708,-0.704816,0.071157,-0.744911,0.000000,-0.744911,0.000000,-0.750000,-0.500000,-0.750000,-0.500000,0.750000,0.000000,0.750000,0.000000,0.744911,0.000000,0.744911,
$1*%
G04 Aperture macros list end*
%TA.AperFunction,ComponentPad*%
%ADD10RoundRect,0.250000X0.750000X0.750000X-0.750000X0.750000X-0.750000X-0.750000X0.750000X-0.750000X0*%
%TD*%
%TA.AperFunction,ComponentPad*%
%ADD11C,1.524000*%
%TD*%
%TA.AperFunction,ComponentPad*%
%ADD12C,2.000000*%
%TD*%
%TA.AperFunction,ComponentPad*%
%ADD13C,3.800000*%
%TD*%
%TA.AperFunction,ComponentPad*%
%ADD14O,2.000000X2.200000*%
%TD*%
%TA.AperFunction,ComponentPad*%
%ADD15RoundRect,0.250000X-0.850000X-0.750000X0.850000X-0.750000X0.850000X0.750000X-0.850000X0.750000X0*%
%TD*%
%TA.AperFunction,ComponentPad*%
%ADD16O,2.200000X2.000000*%
%TD*%
%TA.AperFunction,ComponentPad*%
%ADD17C,1.600000*%
%TD*%
%TA.AperFunction,SMDPad,CuDef*%
%ADD18FreePoly0,0.000000*%
%TD*%
%TA.AperFunction,SMDPad,CuDef*%
%ADD19FreePoly1,0.000000*%
%TD*%
%TA.AperFunction,SMDPad,CuDef*%
%ADD20FreePoly0,180.000000*%
%TD*%
%TA.AperFunction,SMDPad,CuDef*%
%ADD21FreePoly2,270.000000*%
%TD*%
%TA.AperFunction,SMDPad,CuDef*%
%ADD22FreePoly3,270.000000*%
%TD*%
%TA.AperFunction,ViaPad*%
%ADD23C,0.800000*%
%TD*%
%TA.AperFunction,Conductor*%
%ADD24C,0.300000*%
%TD*%
%TA.AperFunction,Conductor*%
%ADD25C,0.200000*%
%TD*%
G04 APERTURE END LIST*
D10*
%TO.P,J9,1,Pin_1*%
%TO.N,Board_0-GND*%
X117365835Y-32080000D03*
%TO.P,J9,2,Pin_2*%
%TO.N,Board_0-/Pin4*%
X114825835Y-32080000D03*
%TO.P,J9,3,Pin_3*%
%TO.N,Board_0-/Vcc*%
X112285835Y-32080000D03*
%TD*%
%TO.P,J3,1,Pin_1*%
%TO.N,Board_1-GND*%
X158082500Y-62567500D03*
%TO.P,J3,2,Pin_2*%
%TO.N,Board_1-/Pin6*%
X155542500Y-62567500D03*
%TO.P,J3,3,Pin_3*%
%TO.N,Board_1-/Vcc*%
X153002500Y-62567500D03*
%TD*%
D11*
%TO.P,SW1,1,1*%
%TO.N,Board_1-Net-(U3-IN)*%
X133282500Y-77290000D03*
%TO.P,SW1,2,2*%
%TO.N,Board_1-Net-(D1-K)*%
X133282500Y-74750000D03*
%TO.P,SW1,3*%
%TO.N,N/C*%
X133282500Y-72210000D03*
%TD*%
D12*
%TO.P,J1,1*%
%TO.N,Board_1-GND*%
X165857500Y-75410000D03*
%TO.P,J1,2*%
%TO.N,Board_1-/VM*%
X165857500Y-77950000D03*
%TD*%
D10*
%TO.P,J7,1,Pin_1*%
%TO.N,Board_1-GND*%
X133652501Y-59380000D03*
%TO.P,J7,2,Pin_2*%
%TO.N,Board_1-/Pin2*%
X131112501Y-59380000D03*
%TO.P,J7,3,Pin_3*%
%TO.N,Board_1-/Vcc*%
X128572501Y-59380000D03*
%TD*%
D13*
%TO.P,H3,1,1*%
%TO.N,Board_1-unconnected-(H3-Pad1)*%
X108732500Y-58580000D03*
%TD*%
D14*
%TO.P,U3,1,IN*%
%TO.N,Board_0-Net-(U3-IN)*%
X136692500Y-50880000D03*
%TO.P,U3,2,GND*%
%TO.N,Board_0-GND*%
X145832500Y-50880000D03*
X145832500Y-35640000D03*
%TO.P,U3,3,OUT*%
%TO.N,Board_0-+5V*%
X136692500Y-35640000D03*
%TD*%
D13*
%TO.P,H1,1,1*%
%TO.N,Board_0-unconnected-(H1-Pad1)*%
X188232500Y-31280000D03*
%TD*%
D10*
%TO.P,J11,1,Pin_1*%
%TO.N,Board_1-GND*%
X166225835Y-62567500D03*
%TO.P,J11,2,Pin_2*%
%TO.N,Board_1-/Pin8*%
X163685835Y-62567500D03*
%TO.P,J11,3,Pin_3*%
%TO.N,Board_1-/Vcc*%
X161145835Y-62567500D03*
%TD*%
D15*
%TO.P,U1,1,GND*%
%TO.N,Board_1-GND*%
X169382500Y-59890000D03*
D16*
X169382500Y-75130000D03*
D15*
X182782500Y-59890000D03*
D16*
%TO.P,U1,2,IN_B2*%
%TO.N,Board_1-/IN_B2*%
X169382500Y-62430000D03*
%TO.P,U1,3,IN_B1*%
%TO.N,Board_1-/IN_B1*%
X169382500Y-64970000D03*
%TO.P,U1,4,VREF*%
%TO.N,Board_1-+3.3V*%
X169382500Y-67510000D03*
%TO.P,U1,5,IN_A2*%
%TO.N,Board_1-/IN_A2*%
X169382500Y-70050000D03*
%TO.P,U1,6,IN_A1*%
%TO.N,Board_1-/IN_A1*%
X169382500Y-72590000D03*
%TO.P,U1,7,OUT_B2*%
%TO.N,Board_1-/OUT_B2*%
X182782500Y-62430000D03*
%TO.P,U1,8,OUT_B1*%
%TO.N,Board_1-/OUT_B1*%
X182782500Y-64970000D03*
%TO.P,U1,9,VM*%
%TO.N,Board_1-/VM*%
X182782500Y-67510000D03*
X182782500Y-75130000D03*
%TO.P,U1,10,OUT_A2*%
%TO.N,Board_1-/OUT_A2*%
X182782500Y-70050000D03*
%TO.P,U1,11,OUT_A1*%
%TO.N,Board_1-/OUT_A1*%
X182782500Y-72590000D03*
%TD*%
D10*
%TO.P,J7,1,Pin_1*%
%TO.N,Board_0-GND*%
X133652501Y-32080000D03*
%TO.P,J7,2,Pin_2*%
%TO.N,Board_0-/Pin2*%
X131112501Y-32080000D03*
%TO.P,J7,3,Pin_3*%
%TO.N,Board_0-/Vcc*%
X128572501Y-32080000D03*
%TD*%
%TO.P,J2,1,Pin_1*%
%TO.N,Board_1-GND*%
X158082500Y-59380000D03*
%TO.P,J2,2,Pin_2*%
%TO.N,Board_1-/Pin5*%
X155542500Y-59380000D03*
%TO.P,J2,3,Pin_3*%
%TO.N,Board_1-/Vcc*%
X153002500Y-59380000D03*
%TD*%
D12*
%TO.P,J4,1,Pin_1*%
%TO.N,Board_0-/OUT_A2*%
X187482500Y-42765000D03*
%TO.P,J4,2,Pin_2*%
%TO.N,Board_0-/OUT_A1*%
X187482500Y-45305000D03*
%TD*%
%TO.P,J5,1,Pin_1*%
%TO.N,Board_0-/OUT_B2*%
X187482500Y-35065000D03*
%TO.P,J5,2,Pin_2*%
%TO.N,Board_0-/OUT_B1*%
X187482500Y-37605000D03*
%TD*%
D10*
%TO.P,J6,1,Pin_1*%
%TO.N,Board_1-GND*%
X141795834Y-59380000D03*
%TO.P,J6,2,Pin_2*%
%TO.N,Board_1-/Pin1*%
X139255834Y-59380000D03*
%TO.P,J6,3,Pin_3*%
%TO.N,Board_1-/Vcc*%
X136715834Y-59380000D03*
%TD*%
%TO.P,J12,1,Pin_1*%
%TO.N,Board_0-GND*%
X166225835Y-32080000D03*
%TO.P,J12,2,Pin_2*%
%TO.N,Board_0-/Pin7*%
X163685835Y-32080000D03*
%TO.P,J12,3,Pin_3*%
%TO.N,Board_0-/Vcc*%
X161145835Y-32080000D03*
%TD*%
D14*
%TO.P,U3,1,IN*%
%TO.N,Board_1-Net-(U3-IN)*%
X136692500Y-78180000D03*
%TO.P,U3,2,GND*%
%TO.N,Board_1-GND*%
X145832500Y-78180000D03*
X145832500Y-62940000D03*
%TO.P,U3,3,OUT*%
%TO.N,Board_1-+5V*%
X136692500Y-62940000D03*
%TD*%
D17*
%TO.P,C1,1*%
%TO.N,Board_1-/VM*%
X178632500Y-74980000D03*
%TO.P,C1,2*%
%TO.N,Board_1-GND*%
X173632500Y-74980000D03*
%TD*%
D12*
%TO.P,U2,0,GPIO0*%
%TO.N,Board_1-/Pin0*%
X127242500Y-62530000D03*
%TO.P,U2,1,GPIO1*%
%TO.N,Board_1-/Pin1*%
X124702500Y-62530000D03*
%TO.P,U2,2,GPIO2*%
%TO.N,Board_1-/Pin2*%
X122162500Y-62530000D03*
%TO.P,U2,3,GPIO3*%
%TO.N,Board_1-/Pin3*%
X119622500Y-62530000D03*
%TO.P,U2,3.3,3V3*%
%TO.N,Board_1-+3.3V*%
X114542500Y-62530000D03*
%TO.P,U2,4,GPIO4*%
%TO.N,Board_1-/Pin4*%
X117082500Y-62530000D03*
%TO.P,U2,5,GPIO5*%
%TO.N,Board_1-/Pin5*%
X109462500Y-77770000D03*
%TO.P,U2,5V,5V*%
%TO.N,Board_1-Net-(JP7-A)*%
X109462500Y-62530000D03*
%TO.P,U2,6,GPIO6*%
%TO.N,Board_1-/Pin6*%
X112002500Y-77770000D03*
%TO.P,U2,7,GPIO7*%
%TO.N,Board_1-/Pin7*%
X114542500Y-77770000D03*
%TO.P,U2,8,GPIO8*%
%TO.N,Board_1-/Pin8*%
X117082500Y-77770000D03*
%TO.P,U2,9,GPIO9*%
%TO.N,Board_1-/IN_B2*%
X119622500Y-77770000D03*
%TO.P,U2,10,GPIO10*%
%TO.N,Board_1-/IN_B1*%
X122162500Y-77770000D03*
%TO.P,U2,20,GPIO20*%
%TO.N,Board_1-/IN_A2*%
X124702500Y-77770000D03*
%TO.P,U2,21,GPIO21*%
%TO.N,Board_1-/IN_A1*%
X127242500Y-77770000D03*
%TO.P,U2,G,GND*%
%TO.N,Board_1-GND*%
X112002500Y-62530000D03*
%TD*%
D13*
%TO.P,H2,1,1*%
%TO.N,Board_1-unconnected-(H2-Pad1)*%
X188232500Y-77280000D03*
%TD*%
D17*
%TO.P,C1,1*%
%TO.N,Board_0-/VM*%
X178632500Y-47680000D03*
%TO.P,C1,2*%
%TO.N,Board_0-GND*%
X173632500Y-47680000D03*
%TD*%
D13*
%TO.P,H3,1,1*%
%TO.N,Board_0-unconnected-(H3-Pad1)*%
X108732500Y-31280000D03*
%TD*%
D11*
%TO.P,SW1,1,1*%
%TO.N,Board_0-Net-(U3-IN)*%
X133282500Y-49990000D03*
%TO.P,SW1,2,2*%
%TO.N,Board_0-Net-(D1-K)*%
X133282500Y-47450000D03*
%TO.P,SW1,3*%
%TO.N,N/C*%
X133282500Y-44910000D03*
%TD*%
D10*
%TO.P,J8,1,Pin_1*%
%TO.N,Board_1-GND*%
X125509168Y-59380000D03*
%TO.P,J8,2,Pin_2*%
%TO.N,Board_1-/Pin3*%
X122969168Y-59380000D03*
%TO.P,J8,3,Pin_3*%
%TO.N,Board_1-/Vcc*%
X120429168Y-59380000D03*
%TD*%
D12*
%TO.P,U2,0,GPIO0*%
%TO.N,Board_0-/Pin0*%
X127242500Y-35230000D03*
%TO.P,U2,1,GPIO1*%
%TO.N,Board_0-/Pin1*%
X124702500Y-35230000D03*
%TO.P,U2,2,GPIO2*%
%TO.N,Board_0-/Pin2*%
X122162500Y-35230000D03*
%TO.P,U2,3,GPIO3*%
%TO.N,Board_0-/Pin3*%
X119622500Y-35230000D03*
%TO.P,U2,3.3,3V3*%
%TO.N,Board_0-+3.3V*%
X114542500Y-35230000D03*
%TO.P,U2,4,GPIO4*%
%TO.N,Board_0-/Pin4*%
X117082500Y-35230000D03*
%TO.P,U2,5,GPIO5*%
%TO.N,Board_0-/Pin5*%
X109462500Y-50470000D03*
%TO.P,U2,5V,5V*%
%TO.N,Board_0-Net-(JP7-A)*%
X109462500Y-35230000D03*
%TO.P,U2,6,GPIO6*%
%TO.N,Board_0-/Pin6*%
X112002500Y-50470000D03*
%TO.P,U2,7,GPIO7*%
%TO.N,Board_0-/Pin7*%
X114542500Y-50470000D03*
%TO.P,U2,8,GPIO8*%
%TO.N,Board_0-/Pin8*%
X117082500Y-50470000D03*
%TO.P,U2,9,GPIO9*%
%TO.N,Board_0-/IN_B2*%
X119622500Y-50470000D03*
%TO.P,U2,10,GPIO10*%
%TO.N,Board_0-/IN_B1*%
X122162500Y-50470000D03*
%TO.P,U2,20,GPIO20*%
%TO.N,Board_0-/IN_A2*%
X124702500Y-50470000D03*
%TO.P,U2,21,GPIO21*%
%TO.N,Board_0-/IN_A1*%
X127242500Y-50470000D03*
%TO.P,U2,G,GND*%
%TO.N,Board_0-GND*%
X112002500Y-35230000D03*
%TD*%
D10*
%TO.P,J10,1,Pin_1*%
%TO.N,Board_1-GND*%
X149939167Y-59380000D03*
%TO.P,J10,2,Pin_2*%
%TO.N,Board_1-/Pin0*%
X147399167Y-59380000D03*
%TO.P,J10,3,Pin_3*%
%TO.N,Board_1-/Vcc*%
X144859167Y-59380000D03*
%TD*%
D13*
%TO.P,H2,1,1*%
%TO.N,Board_0-unconnected-(H2-Pad1)*%
X188232500Y-49980000D03*
%TD*%
%TO.P,H1,1,1*%
%TO.N,Board_1-unconnected-(H1-Pad1)*%
X188232500Y-58580000D03*
%TD*%
D10*
%TO.P,J2,1,Pin_1*%
%TO.N,Board_0-GND*%
X158082500Y-32080000D03*
%TO.P,J2,2,Pin_2*%
%TO.N,Board_0-/Pin5*%
X155542500Y-32080000D03*
%TO.P,J2,3,Pin_3*%
%TO.N,Board_0-/Vcc*%
X153002500Y-32080000D03*
%TD*%
D12*
%TO.P,J4,1,Pin_1*%
%TO.N,Board_1-/OUT_A2*%
X187482500Y-70065000D03*
%TO.P,J4,2,Pin_2*%
%TO.N,Board_1-/OUT_A1*%
X187482500Y-72605000D03*
%TD*%
D10*
%TO.P,J6,1,Pin_1*%
%TO.N,Board_0-GND*%
X141795834Y-32080000D03*
%TO.P,J6,2,Pin_2*%
%TO.N,Board_0-/Pin1*%
X139255834Y-32080000D03*
%TO.P,J6,3,Pin_3*%
%TO.N,Board_0-/Vcc*%
X136715834Y-32080000D03*
%TD*%
D12*
%TO.P,J1,1*%
%TO.N,Board_0-GND*%
X165857500Y-48110000D03*
%TO.P,J1,2*%
%TO.N,Board_0-/VM*%
X165857500Y-50650000D03*
%TD*%
D10*
%TO.P,J8,1,Pin_1*%
%TO.N,Board_0-GND*%
X125509168Y-32080000D03*
%TO.P,J8,2,Pin_2*%
%TO.N,Board_0-/Pin3*%
X122969168Y-32080000D03*
%TO.P,J8,3,Pin_3*%
%TO.N,Board_0-/Vcc*%
X120429168Y-32080000D03*
%TD*%
%TO.P,J3,1,Pin_1*%
%TO.N,Board_0-GND*%
X158082500Y-35267500D03*
%TO.P,J3,2,Pin_2*%
%TO.N,Board_0-/Pin6*%
X155542500Y-35267500D03*
%TO.P,J3,3,Pin_3*%
%TO.N,Board_0-/Vcc*%
X153002500Y-35267500D03*
%TD*%
%TO.P,J11,1,Pin_1*%
%TO.N,Board_0-GND*%
X166225835Y-35267500D03*
%TO.P,J11,2,Pin_2*%
%TO.N,Board_0-/Pin8*%
X163685835Y-35267500D03*
%TO.P,J11,3,Pin_3*%
%TO.N,Board_0-/Vcc*%
X161145835Y-35267500D03*
%TD*%
D15*
%TO.P,U1,1,GND*%
%TO.N,Board_0-GND*%
X169382500Y-32590000D03*
D16*
X169382500Y-47830000D03*
D15*
X182782500Y-32590000D03*
D16*
%TO.P,U1,2,IN_B2*%
%TO.N,Board_0-/IN_B2*%
X169382500Y-35130000D03*
%TO.P,U1,3,IN_B1*%
%TO.N,Board_0-/IN_B1*%
X169382500Y-37670000D03*
%TO.P,U1,4,VREF*%
%TO.N,Board_0-+3.3V*%
X169382500Y-40210000D03*
%TO.P,U1,5,IN_A2*%
%TO.N,Board_0-/IN_A2*%
X169382500Y-42750000D03*
%TO.P,U1,6,IN_A1*%
%TO.N,Board_0-/IN_A1*%
X169382500Y-45290000D03*
%TO.P,U1,7,OUT_B2*%
%TO.N,Board_0-/OUT_B2*%
X182782500Y-35130000D03*
%TO.P,U1,8,OUT_B1*%
%TO.N,Board_0-/OUT_B1*%
X182782500Y-37670000D03*
%TO.P,U1,9,VM*%
%TO.N,Board_0-/VM*%
X182782500Y-40210000D03*
X182782500Y-47830000D03*
%TO.P,U1,10,OUT_A2*%
%TO.N,Board_0-/OUT_A2*%
X182782500Y-42750000D03*
%TO.P,U1,11,OUT_A1*%
%TO.N,Board_0-/OUT_A1*%
X182782500Y-45290000D03*
%TD*%
D12*
%TO.P,J5,1,Pin_1*%
%TO.N,Board_1-/OUT_B2*%
X187482500Y-62365000D03*
%TO.P,J5,2,Pin_2*%
%TO.N,Board_1-/OUT_B1*%
X187482500Y-64905000D03*
%TD*%
D10*
%TO.P,J12,1,Pin_1*%
%TO.N,Board_1-GND*%
X166225835Y-59380000D03*
%TO.P,J12,2,Pin_2*%
%TO.N,Board_1-/Pin7*%
X163685835Y-59380000D03*
%TO.P,J12,3,Pin_3*%
%TO.N,Board_1-/Vcc*%
X161145835Y-59380000D03*
%TD*%
%TO.P,J10,1,Pin_1*%
%TO.N,Board_0-GND*%
X149939167Y-32080000D03*
%TO.P,J10,2,Pin_2*%
%TO.N,Board_0-/Pin0*%
X147399167Y-32080000D03*
%TO.P,J10,3,Pin_3*%
%TO.N,Board_0-/Vcc*%
X144859167Y-32080000D03*
%TD*%
%TO.P,J9,1,Pin_1*%
%TO.N,Board_1-GND*%
X117365835Y-59380000D03*
%TO.P,J9,2,Pin_2*%
%TO.N,Board_1-/Pin4*%
X114825835Y-59380000D03*
%TO.P,J9,3,Pin_3*%
%TO.N,Board_1-/Vcc*%
X112285835Y-59380000D03*
%TD*%
D18*
%TO.P,JP1,1,A*%
%TO.N,Board_0-+3.3V*%
X130632500Y-37880000D03*
D19*
%TO.P,JP1,2,C*%
%TO.N,Board_0-/Vcc*%
X132632500Y-37880000D03*
D20*
%TO.P,JP1,3,B*%
%TO.N,Board_0-+5V*%
X134632500Y-37880000D03*
%TD*%
D18*
%TO.P,JP1,1,A*%
%TO.N,Board_1-+3.3V*%
X130632500Y-65180000D03*
D19*
%TO.P,JP1,2,C*%
%TO.N,Board_1-/Vcc*%
X132632500Y-65180000D03*
D20*
%TO.P,JP1,3,B*%
%TO.N,Board_1-+5V*%
X134632500Y-65180000D03*
%TD*%
D21*
%TO.P,JP7,1,A*%
%TO.N,Board_0-Net-(JP7-A)*%
X109432500Y-37680000D03*
D22*
%TO.P,JP7,2,B*%
%TO.N,Board_0-+5V*%
X109432500Y-38980000D03*
%TD*%
D21*
%TO.P,JP7,1,A*%
%TO.N,Board_1-Net-(JP7-A)*%
X109432500Y-64980000D03*
D22*
%TO.P,JP7,2,B*%
%TO.N,Board_1-+5V*%
X109432500Y-66280000D03*
%TD*%
D23*
%TO.N,Board_0-+3.3V*%
X146432500Y-45780000D03*
X161132500Y-40330000D03*
%TO.N,Board_0-/OUT_A1*%
X185032500Y-48005000D03*
X189832500Y-44830000D03*
X189832500Y-47880000D03*
X185032500Y-51180000D03*
X185032500Y-44830000D03*
%TO.N,Board_0-/OUT_A2*%
X189832500Y-43580000D03*
X185032500Y-40980000D03*
X187482500Y-40980000D03*
X185032500Y-43680000D03*
X189832500Y-40980000D03*
%TO.N,Board_0-/OUT_B1*%
X185032500Y-39880000D03*
X185032500Y-36830000D03*
X189832500Y-39880000D03*
X189832500Y-36830000D03*
X187482500Y-39880000D03*
%TO.N,Board_0-/OUT_B2*%
X185032500Y-32740000D03*
X189832500Y-33330000D03*
X185032500Y-35780000D03*
X189832500Y-35780000D03*
X185032500Y-29700000D03*
%TO.N,Board_0-/Pin5*%
X151332500Y-33680000D03*
%TO.N,Board_0-/Pin6*%
X155542500Y-38480000D03*
%TO.N,Board_0-/Pin7*%
X149332500Y-43830000D03*
X159632500Y-37380000D03*
%TO.N,Board_0-/VM*%
X170332500Y-51380000D03*
X180732500Y-42780000D03*
X178132500Y-51380000D03*
X183332500Y-49780000D03*
X175532500Y-49780000D03*
X180732500Y-45380000D03*
X167732500Y-49780000D03*
X175532500Y-51380000D03*
X183332500Y-51380000D03*
X167732500Y-51380000D03*
X178132500Y-40180000D03*
X172932500Y-51380000D03*
X180732500Y-40180000D03*
X172932500Y-49780000D03*
X178132500Y-42780000D03*
X178132500Y-49780000D03*
X180732500Y-51380000D03*
X180732500Y-49780000D03*
X180732500Y-47780000D03*
X170332500Y-49780000D03*
X178132500Y-45380000D03*
%TO.N,Board_0-/Vcc*%
X132617579Y-35289928D03*
%TO.N,Board_0-GND*%
X167782500Y-33280000D03*
X107282500Y-33730000D03*
X107282500Y-49330000D03*
X107282500Y-47380000D03*
X180932500Y-31980000D03*
X141032500Y-50930000D03*
X171032500Y-31980000D03*
X171232500Y-48480000D03*
X164082500Y-47280000D03*
X107282500Y-41530000D03*
X107282500Y-39580000D03*
X107282500Y-35680000D03*
X164082500Y-48480000D03*
X171032500Y-33280000D03*
X167682500Y-48480000D03*
X107282500Y-45430000D03*
X180932500Y-33280000D03*
X167782500Y-31980000D03*
X171232500Y-47280000D03*
X107282500Y-43480000D03*
X107282500Y-37630000D03*
X167682500Y-47280000D03*
X171232500Y-36196666D03*
X171232500Y-41588333D03*
%TO.N,Board_1-+3.3V*%
X146432500Y-73080000D03*
X161132500Y-67630000D03*
%TO.N,Board_1-/OUT_A1*%
X185032500Y-72130000D03*
X189832500Y-75180000D03*
X185032500Y-75305000D03*
X185032500Y-78480000D03*
X189832500Y-72130000D03*
%TO.N,Board_1-/OUT_A2*%
X185032500Y-68280000D03*
X189832500Y-70880000D03*
X187482500Y-68280000D03*
X189832500Y-68280000D03*
X185032500Y-70980000D03*
%TO.N,Board_1-/OUT_B1*%
X185032500Y-64130000D03*
X189832500Y-67180000D03*
X187482500Y-67180000D03*
X185032500Y-67180000D03*
X189832500Y-64130000D03*
%TO.N,Board_1-/OUT_B2*%
X189832500Y-63080000D03*
X185032500Y-57000000D03*
X185032500Y-60040000D03*
X185032500Y-63080000D03*
X189832500Y-60630000D03*
%TO.N,Board_1-/Pin5*%
X151332500Y-60980000D03*
%TO.N,Board_1-/Pin6*%
X155542500Y-65780000D03*
%TO.N,Board_1-/Pin7*%
X149332500Y-71130000D03*
X159632500Y-64680000D03*
%TO.N,Board_1-/VM*%
X180732500Y-78680000D03*
X180732500Y-67480000D03*
X178132500Y-77080000D03*
X183332500Y-78680000D03*
X178132500Y-67480000D03*
X180732500Y-77080000D03*
X178132500Y-78680000D03*
X167732500Y-77080000D03*
X180732500Y-70080000D03*
X178132500Y-70080000D03*
X178132500Y-72680000D03*
X167732500Y-78680000D03*
X172932500Y-78680000D03*
X175532500Y-77080000D03*
X175532500Y-78680000D03*
X170332500Y-77080000D03*
X180732500Y-72680000D03*
X180732500Y-75080000D03*
X170332500Y-78680000D03*
X183332500Y-77080000D03*
X172932500Y-77080000D03*
%TO.N,Board_1-/Vcc*%
X132617579Y-62589928D03*
%TO.N,Board_1-GND*%
X107282500Y-62980000D03*
X167782500Y-60580000D03*
X107282500Y-76630000D03*
X180932500Y-59280000D03*
X180932500Y-60580000D03*
X107282500Y-70780000D03*
X107282500Y-72730000D03*
X167682500Y-74580000D03*
X107282500Y-64930000D03*
X141032500Y-78230000D03*
X107282500Y-61030000D03*
X167782500Y-59280000D03*
X171232500Y-75780000D03*
X167682500Y-75780000D03*
X107282500Y-68830000D03*
X107282500Y-74680000D03*
X171032500Y-60580000D03*
X171232500Y-68888333D03*
X164082500Y-75780000D03*
X164082500Y-74580000D03*
X171232500Y-63496666D03*
X171032500Y-59280000D03*
X171232500Y-74580000D03*
X107282500Y-66880000D03*
%TD*%
D24*
%TO.N,Board_0-+3.3V*%
X130605500Y-37580000D02*
X130632500Y-37607000D01*
X114542500Y-35640000D02*
X116482500Y-37580000D01*
X116482500Y-37580000D02*
X130605500Y-37580000D01*
X155682500Y-45780000D02*
X146432500Y-45780000D01*
X161132500Y-40330000D02*
X155682500Y-45780000D01*
X114542500Y-35230000D02*
X114542500Y-35640000D01*
%TO.N,Board_0-+5V*%
X136692500Y-38520000D02*
X136692500Y-37320000D01*
X109432500Y-38980000D02*
X109682500Y-39230000D01*
X136692500Y-37370000D02*
X136692500Y-35640000D01*
X135982500Y-39230000D02*
X136692500Y-38520000D01*
X136692500Y-37320000D02*
X136692500Y-35640000D01*
X134632500Y-37880000D02*
X136182500Y-37880000D01*
X109682500Y-39230000D02*
X135982500Y-39230000D01*
X136182500Y-37880000D02*
X136692500Y-37370000D01*
%TO.N,Board_0-/IN_A1*%
X127242500Y-51330000D02*
X127242500Y-50470000D01*
X135982500Y-49180000D02*
X133832500Y-51330000D01*
X133832500Y-51330000D02*
X127242500Y-51330000D01*
X161272500Y-45290000D02*
X157382500Y-49180000D01*
X169382500Y-45290000D02*
X161272500Y-45290000D01*
X157382500Y-49180000D02*
X135982500Y-49180000D01*
%TO.N,Board_0-/IN_A2*%
X126442500Y-48730000D02*
X124702500Y-50470000D01*
X134632500Y-48730000D02*
X126442500Y-48730000D01*
X135082500Y-48280000D02*
X134632500Y-48730000D01*
X169382500Y-42750000D02*
X162512500Y-42750000D01*
X162512500Y-42750000D02*
X156982500Y-48280000D01*
X156982500Y-48280000D02*
X135082500Y-48280000D01*
%TO.N,Board_0-/IN_B1*%
X126452500Y-46180000D02*
X122162500Y-50470000D01*
X156682500Y-47430000D02*
X135532500Y-47430000D01*
X135532500Y-47430000D02*
X134282500Y-46180000D01*
X134282500Y-46180000D02*
X126452500Y-46180000D01*
X166442500Y-37670000D02*
X156682500Y-47430000D01*
X169382500Y-37670000D02*
X166442500Y-37670000D01*
%TO.N,Board_0-/IN_B2*%
X136832500Y-46530000D02*
X133982500Y-43680000D01*
X165732500Y-36930000D02*
X156132500Y-46530000D01*
X156132500Y-46530000D02*
X136832500Y-46530000D01*
X126412500Y-43680000D02*
X119622500Y-50470000D01*
X133982500Y-43680000D02*
X126412500Y-43680000D01*
X167582500Y-36930000D02*
X165732500Y-36930000D01*
X169382500Y-35130000D02*
X167582500Y-36930000D01*
%TO.N,Board_0-/Pin0*%
X145399167Y-34080000D02*
X147399167Y-32080000D01*
X131882500Y-34080000D02*
X145399167Y-34080000D01*
X127242500Y-35230000D02*
X130732500Y-35230000D01*
X130732500Y-35230000D02*
X131882500Y-34080000D01*
%TO.N,Board_0-/Pin1*%
X137855834Y-33480000D02*
X139255834Y-32080000D01*
X125082500Y-35230000D02*
X126832500Y-33480000D01*
X126832500Y-33480000D02*
X137855834Y-33480000D01*
X124702500Y-35230000D02*
X125082500Y-35230000D01*
%TO.N,Board_0-/Pin3*%
X119819168Y-35230000D02*
X122969168Y-32080000D01*
X119622500Y-35230000D02*
X119819168Y-35230000D01*
%TO.N,Board_0-/Pin4*%
X114825835Y-32223335D02*
X114825835Y-32080000D01*
X117082500Y-35230000D02*
X117082500Y-34480000D01*
X117082500Y-34480000D02*
X114825835Y-32223335D01*
%TO.N,Board_0-/Pin5*%
X119202500Y-40730000D02*
X109462500Y-50470000D01*
X151182500Y-33830000D02*
X151182500Y-35780000D01*
X151182500Y-35780000D02*
X145032500Y-41930000D01*
X136882500Y-40730000D02*
X119202500Y-40730000D01*
X151332500Y-33680000D02*
X151182500Y-33830000D01*
X145032500Y-41930000D02*
X138082500Y-41930000D01*
X138082500Y-41930000D02*
X136882500Y-40730000D01*
%TO.N,Board_0-/Pin6*%
X137632500Y-42930000D02*
X136182500Y-41480000D01*
X155542500Y-38480000D02*
X155542500Y-38570000D01*
X155542500Y-38570000D02*
X151182500Y-42930000D01*
X136182500Y-41480000D02*
X120992500Y-41480000D01*
X120992500Y-41480000D02*
X112002500Y-50470000D01*
X151182500Y-42930000D02*
X137632500Y-42930000D01*
%TO.N,Board_0-/Pin7*%
X159632500Y-37380000D02*
X153182500Y-43830000D01*
X153182500Y-43830000D02*
X149332500Y-43830000D01*
X137232500Y-43830000D02*
X135582500Y-42180000D01*
X135582500Y-42180000D02*
X122832500Y-42180000D01*
X122832500Y-42180000D02*
X114542500Y-50470000D01*
X149332500Y-43830000D02*
X137232500Y-43830000D01*
%TO.N,Board_0-/Pin8*%
X124672500Y-42880000D02*
X117082500Y-50470000D01*
X155382500Y-44780000D02*
X136782500Y-44780000D01*
X136782500Y-44780000D02*
X134882500Y-42880000D01*
X163685835Y-35267500D02*
X163685835Y-36476665D01*
X163685835Y-36476665D02*
X155382500Y-44780000D01*
X134882500Y-42880000D02*
X124672500Y-42880000D01*
%TO.N,Board_0-/Vcc*%
X144882500Y-30430000D02*
X149832500Y-30430000D01*
X153002500Y-30450000D02*
X152982500Y-30430000D01*
X153002500Y-32080000D02*
X153002500Y-30450000D01*
X120432500Y-30430000D02*
X124932500Y-30430000D01*
X124932500Y-30430000D02*
X128582500Y-30430000D01*
X153002500Y-32080000D02*
X153002500Y-35267500D01*
X144859167Y-32080000D02*
X144859167Y-30453333D01*
X128572501Y-32080000D02*
X128572501Y-30439999D01*
X152982500Y-30430000D02*
X160782500Y-30430000D01*
X133282500Y-30430000D02*
X136732500Y-30430000D01*
X144835834Y-30430000D02*
X144859167Y-30453333D01*
X124959166Y-30456666D02*
X124932500Y-30430000D01*
X116632500Y-30430000D02*
X120432500Y-30430000D01*
X149832500Y-30430000D02*
X152982500Y-30430000D01*
X136715834Y-30446666D02*
X136732500Y-30430000D01*
D25*
X161145835Y-32080000D02*
X161145835Y-35267500D01*
D24*
X112285835Y-30776665D02*
X112632500Y-30430000D01*
X132632500Y-37607000D02*
X132632500Y-35280000D01*
X112632500Y-30430000D02*
X116632500Y-30430000D01*
X160782500Y-30430000D02*
X161145835Y-30793335D01*
X136732500Y-30430000D02*
X144835834Y-30430000D01*
X149839165Y-30436665D02*
X149832500Y-30430000D01*
X144859167Y-30453333D02*
X144882500Y-30430000D01*
X120429168Y-30433332D02*
X120432500Y-30430000D01*
X128572501Y-30439999D02*
X128582500Y-30430000D01*
X112285835Y-32080000D02*
X112285835Y-30776665D01*
X120429168Y-32080000D02*
X120429168Y-30433332D01*
X128582500Y-30430000D02*
X133282500Y-30430000D01*
X133252499Y-30460001D02*
X133282500Y-30430000D01*
X161145835Y-30793335D02*
X161145835Y-32080000D01*
X136715834Y-32080000D02*
X136715834Y-30446666D01*
%TO.N,Board_0-GND*%
X149832500Y-32086665D02*
X149839165Y-32080000D01*
%TO.N,Board_0-Net-(JP7-A)*%
X109432500Y-37680000D02*
X109432500Y-35260000D01*
X109432500Y-35260000D02*
X109462500Y-35230000D01*
%TO.N,Board_0-unconnected-(H3-Pad1)*%
X108332500Y-30780000D02*
X108682500Y-30430000D01*
X108372500Y-32080000D02*
X108332500Y-32040000D01*
X108332500Y-32040000D02*
X108332500Y-30780000D01*
%TO.N,Board_1-+3.3V*%
X116482500Y-64880000D02*
X130605500Y-64880000D01*
X114542500Y-62940000D02*
X116482500Y-64880000D01*
X155682500Y-73080000D02*
X146432500Y-73080000D01*
X114542500Y-62530000D02*
X114542500Y-62940000D01*
X130605500Y-64880000D02*
X130632500Y-64907000D01*
X161132500Y-67630000D02*
X155682500Y-73080000D01*
%TO.N,Board_1-+5V*%
X135982500Y-66530000D02*
X136692500Y-65820000D01*
X136182500Y-65180000D02*
X136692500Y-64670000D01*
X109432500Y-66280000D02*
X109682500Y-66530000D01*
X136692500Y-64620000D02*
X136692500Y-62940000D01*
X136692500Y-65820000D02*
X136692500Y-64620000D01*
X136692500Y-64670000D02*
X136692500Y-62940000D01*
X134632500Y-65180000D02*
X136182500Y-65180000D01*
X109682500Y-66530000D02*
X135982500Y-66530000D01*
%TO.N,Board_1-/IN_A1*%
X135982500Y-76480000D02*
X133832500Y-78630000D01*
X127242500Y-78630000D02*
X127242500Y-77770000D01*
X133832500Y-78630000D02*
X127242500Y-78630000D01*
X161272500Y-72590000D02*
X157382500Y-76480000D01*
X157382500Y-76480000D02*
X135982500Y-76480000D01*
X169382500Y-72590000D02*
X161272500Y-72590000D01*
%TO.N,Board_1-/IN_A2*%
X169382500Y-70050000D02*
X162512500Y-70050000D01*
X135082500Y-75580000D02*
X134632500Y-76030000D01*
X126442500Y-76030000D02*
X124702500Y-77770000D01*
X162512500Y-70050000D02*
X156982500Y-75580000D01*
X156982500Y-75580000D02*
X135082500Y-75580000D01*
X134632500Y-76030000D02*
X126442500Y-76030000D01*
%TO.N,Board_1-/IN_B1*%
X169382500Y-64970000D02*
X166442500Y-64970000D01*
X166442500Y-64970000D02*
X156682500Y-74730000D01*
X156682500Y-74730000D02*
X135532500Y-74730000D01*
X135532500Y-74730000D02*
X134282500Y-73480000D01*
X134282500Y-73480000D02*
X126452500Y-73480000D01*
X126452500Y-73480000D02*
X122162500Y-77770000D01*
%TO.N,Board_1-/IN_B2*%
X126412500Y-70980000D02*
X119622500Y-77770000D01*
X167582500Y-64230000D02*
X165732500Y-64230000D01*
X156132500Y-73830000D02*
X136832500Y-73830000D01*
X169382500Y-62430000D02*
X167582500Y-64230000D01*
X165732500Y-64230000D02*
X156132500Y-73830000D01*
X133982500Y-70980000D02*
X126412500Y-70980000D01*
X136832500Y-73830000D02*
X133982500Y-70980000D01*
%TO.N,Board_1-/Pin0*%
X127242500Y-62530000D02*
X130732500Y-62530000D01*
X145399167Y-61380000D02*
X147399167Y-59380000D01*
X131882500Y-61380000D02*
X145399167Y-61380000D01*
X130732500Y-62530000D02*
X131882500Y-61380000D01*
%TO.N,Board_1-/Pin1*%
X125082500Y-62530000D02*
X126832500Y-60780000D01*
X126832500Y-60780000D02*
X137855834Y-60780000D01*
X137855834Y-60780000D02*
X139255834Y-59380000D01*
X124702500Y-62530000D02*
X125082500Y-62530000D01*
%TO.N,Board_1-/Pin3*%
X119819168Y-62530000D02*
X122969168Y-59380000D01*
X119622500Y-62530000D02*
X119819168Y-62530000D01*
%TO.N,Board_1-/Pin4*%
X117082500Y-61780000D02*
X114825835Y-59523335D01*
X114825835Y-59523335D02*
X114825835Y-59380000D01*
X117082500Y-62530000D02*
X117082500Y-61780000D01*
%TO.N,Board_1-/Pin5*%
X136882500Y-68030000D02*
X119202500Y-68030000D01*
X145032500Y-69230000D02*
X138082500Y-69230000D01*
X151182500Y-63080000D02*
X145032500Y-69230000D01*
X151332500Y-60980000D02*
X151182500Y-61130000D01*
X119202500Y-68030000D02*
X109462500Y-77770000D01*
X151182500Y-61130000D02*
X151182500Y-63080000D01*
X138082500Y-69230000D02*
X136882500Y-68030000D01*
%TO.N,Board_1-/Pin6*%
X120992500Y-68780000D02*
X112002500Y-77770000D01*
X155542500Y-65870000D02*
X151182500Y-70230000D01*
X151182500Y-70230000D02*
X137632500Y-70230000D01*
X137632500Y-70230000D02*
X136182500Y-68780000D01*
X155542500Y-65780000D02*
X155542500Y-65870000D01*
X136182500Y-68780000D02*
X120992500Y-68780000D01*
%TO.N,Board_1-/Pin7*%
X159632500Y-64680000D02*
X153182500Y-71130000D01*
X137232500Y-71130000D02*
X135582500Y-69480000D01*
X135582500Y-69480000D02*
X122832500Y-69480000D01*
X149332500Y-71130000D02*
X137232500Y-71130000D01*
X122832500Y-69480000D02*
X114542500Y-77770000D01*
X153182500Y-71130000D02*
X149332500Y-71130000D01*
%TO.N,Board_1-/Pin8*%
X163685835Y-62567500D02*
X163685835Y-63776665D01*
X155382500Y-72080000D02*
X136782500Y-72080000D01*
X124672500Y-70180000D02*
X117082500Y-77770000D01*
X163685835Y-63776665D02*
X155382500Y-72080000D01*
X136782500Y-72080000D02*
X134882500Y-70180000D01*
X134882500Y-70180000D02*
X124672500Y-70180000D01*
%TO.N,Board_1-/Vcc*%
X153002500Y-59380000D02*
X153002500Y-62567500D01*
X120429168Y-57733332D02*
X120432500Y-57730000D01*
X124932500Y-57730000D02*
X128582500Y-57730000D01*
X144835834Y-57730000D02*
X144859167Y-57753333D01*
X144859167Y-59380000D02*
X144859167Y-57753333D01*
X132632500Y-64907000D02*
X132632500Y-62580000D01*
X149839165Y-57736665D02*
X149832500Y-57730000D01*
X133282500Y-57730000D02*
X136732500Y-57730000D01*
X149832500Y-57730000D02*
X152982500Y-57730000D01*
X144882500Y-57730000D02*
X149832500Y-57730000D01*
X116632500Y-57730000D02*
X120432500Y-57730000D01*
X120432500Y-57730000D02*
X124932500Y-57730000D01*
X153002500Y-57750000D02*
X152982500Y-57730000D01*
X128572501Y-57739999D02*
X128582500Y-57730000D01*
X153002500Y-59380000D02*
X153002500Y-57750000D01*
X120429168Y-59380000D02*
X120429168Y-57733332D01*
D25*
X161145835Y-59380000D02*
X161145835Y-62567500D01*
D24*
X152982500Y-57730000D02*
X160782500Y-57730000D01*
X136715834Y-59380000D02*
X136715834Y-57746666D01*
X136715834Y-57746666D02*
X136732500Y-57730000D01*
X128582500Y-57730000D02*
X133282500Y-57730000D01*
X112632500Y-57730000D02*
X116632500Y-57730000D01*
X112285835Y-58076665D02*
X112632500Y-57730000D01*
X144859167Y-57753333D02*
X144882500Y-57730000D01*
X160782500Y-57730000D02*
X161145835Y-58093335D01*
X124959166Y-57756666D02*
X124932500Y-57730000D01*
X136732500Y-57730000D02*
X144835834Y-57730000D01*
X112285835Y-59380000D02*
X112285835Y-58076665D01*
X128572501Y-59380000D02*
X128572501Y-57739999D01*
X133252499Y-57760001D02*
X133282500Y-57730000D01*
X161145835Y-58093335D02*
X161145835Y-59380000D01*
%TO.N,Board_1-GND*%
X149832500Y-59386665D02*
X149839165Y-59380000D01*
%TO.N,Board_1-Net-(JP7-A)*%
X109432500Y-62560000D02*
X109462500Y-62530000D01*
X109432500Y-64980000D02*
X109432500Y-62560000D01*
%TO.N,Board_1-unconnected-(H3-Pad1)*%
X108332500Y-58080000D02*
X108682500Y-57730000D01*
X108372500Y-59380000D02*
X108332500Y-59340000D01*
X108332500Y-59340000D02*
X108332500Y-58080000D01*
%TD*%
%TA.AperFunction,Conductor*%
%TO.N,Board_0-GND*%
G36*
X110945569Y-32009440D02*
G01*
X110980882Y-32059406D01*
X110985335Y-32088764D01*
X110985335Y-32873106D01*
X110995958Y-32961565D01*
X111051472Y-33102339D01*
X111051473Y-33102341D01*
X111051474Y-33102342D01*
X111142913Y-33222922D01*
X111263493Y-33314361D01*
X111263494Y-33314361D01*
X111263495Y-33314362D01*
X111271095Y-33317359D01*
X111404271Y-33369877D01*
X111492733Y-33380500D01*
X111492735Y-33380500D01*
X113078935Y-33380500D01*
X113078937Y-33380500D01*
X113167399Y-33369877D01*
X113308177Y-33314361D01*
X113428757Y-33222922D01*
X113476952Y-33159367D01*
X113527177Y-33124426D01*
X113588350Y-33125679D01*
X113634717Y-33159366D01*
X113682913Y-33222922D01*
X113803493Y-33314361D01*
X113803494Y-33314361D01*
X113803495Y-33314362D01*
X113811095Y-33317359D01*
X113944271Y-33369877D01*
X114032733Y-33380500D01*
X115304889Y-33380500D01*
X115363080Y-33399407D01*
X115374893Y-33409496D01*
X116149351Y-34183954D01*
X116177128Y-34238471D01*
X116167557Y-34298903D01*
X116149352Y-34323961D01*
X116082451Y-34390863D01*
X115951930Y-34577268D01*
X115951928Y-34577271D01*
X115902224Y-34683863D01*
X115860496Y-34728611D01*
X115800435Y-34740285D01*
X115744982Y-34714427D01*
X115722776Y-34683863D01*
X115673071Y-34577271D01*
X115673065Y-34577262D01*
X115542553Y-34390869D01*
X115542552Y-34390867D01*
X115542548Y-34390863D01*
X115542547Y-34390861D01*
X115381639Y-34229953D01*
X115381635Y-34229950D01*
X115381632Y-34229947D01*
X115381630Y-34229946D01*
X115195237Y-34099434D01*
X115195236Y-34099433D01*
X115195234Y-34099432D01*
X115195228Y-34099429D01*
X115195223Y-34099426D01*
X114988999Y-34003262D01*
X114989000Y-34003262D01*
X114847812Y-33965431D01*
X114769192Y-33944365D01*
X114769191Y-33944364D01*
X114769184Y-33944363D01*
X114542503Y-33924532D01*
X114542497Y-33924532D01*
X114315815Y-33944363D01*
X114095999Y-34003262D01*
X113889776Y-34099426D01*
X113889762Y-34099434D01*
X113703369Y-34229946D01*
X113703367Y-34229947D01*
X113542447Y-34390867D01*
X113542446Y-34390869D01*
X113411934Y-34577262D01*
X113411926Y-34577276D01*
X113361948Y-34684454D01*
X113320220Y-34729203D01*
X113260159Y-34740877D01*
X113204706Y-34715019D01*
X113182499Y-34684454D01*
X113132633Y-34577516D01*
X113132633Y-34577515D01*
X113052403Y-34462937D01*
X112470519Y-35044822D01*
X112468425Y-35037007D01*
X112402599Y-34922993D01*
X112309507Y-34829901D01*
X112195493Y-34764075D01*
X112187674Y-34761979D01*
X112769560Y-34180094D01*
X112654984Y-34099866D01*
X112448823Y-34003733D01*
X112229097Y-33944857D01*
X112002503Y-33925034D01*
X112002497Y-33925034D01*
X111775902Y-33944857D01*
X111556176Y-34003733D01*
X111350018Y-34099865D01*
X111235438Y-34180094D01*
X111817324Y-34761980D01*
X111809507Y-34764075D01*
X111695493Y-34829901D01*
X111602401Y-34922993D01*
X111536575Y-35037007D01*
X111534480Y-35044824D01*
X110952594Y-34462938D01*
X110872364Y-34577519D01*
X110872362Y-34577522D01*
X110822499Y-34684455D01*
X110780771Y-34729203D01*
X110720710Y-34740877D01*
X110665257Y-34715019D01*
X110643051Y-34684455D01*
X110593068Y-34577266D01*
X110521036Y-34474393D01*
X110462553Y-34390869D01*
X110462552Y-34390867D01*
X110462548Y-34390863D01*
X110462547Y-34390861D01*
X110301639Y-34229953D01*
X110301635Y-34229950D01*
X110301632Y-34229947D01*
X110301630Y-34229946D01*
X110115237Y-34099434D01*
X110115236Y-34099433D01*
X110115234Y-34099432D01*
X110115228Y-34099429D01*
X110115223Y-34099426D01*
X109908999Y-34003262D01*
X109909000Y-34003262D01*
X109767812Y-33965431D01*
X109689192Y-33944365D01*
X109689191Y-33944364D01*
X109689184Y-33944363D01*
X109462503Y-33924532D01*
X109462497Y-33924532D01*
X109235815Y-33944363D01*
X109015999Y-34003262D01*
X108809776Y-34099426D01*
X108809762Y-34099434D01*
X108623369Y-34229946D01*
X108623367Y-34229947D01*
X108462447Y-34390867D01*
X108462446Y-34390869D01*
X108331934Y-34577262D01*
X108331926Y-34577276D01*
X108235762Y-34783499D01*
X108176863Y-35003315D01*
X108157032Y-35229996D01*
X108157032Y-35230003D01*
X108176863Y-35456684D01*
X108176864Y-35456691D01*
X108176865Y-35456692D01*
X108179761Y-35467500D01*
X108235762Y-35676500D01*
X108331926Y-35882723D01*
X108331934Y-35882737D01*
X108462446Y-36069130D01*
X108462447Y-36069132D01*
X108462450Y-36069135D01*
X108462453Y-36069139D01*
X108623361Y-36230047D01*
X108623364Y-36230049D01*
X108623367Y-36230052D01*
X108623369Y-36230053D01*
X108708758Y-36289842D01*
X108809766Y-36360568D01*
X108809769Y-36360569D01*
X108809770Y-36360570D01*
X108824298Y-36367344D01*
X108924840Y-36414227D01*
X108969587Y-36455954D01*
X108982000Y-36503951D01*
X108982000Y-36823138D01*
X108963093Y-36881329D01*
X108916271Y-36915346D01*
X108916587Y-36916193D01*
X108913279Y-36917426D01*
X108782488Y-36977157D01*
X108782480Y-36977161D01*
X108709349Y-37024159D01*
X108709336Y-37024168D01*
X108600686Y-37118313D01*
X108600669Y-37118331D01*
X108543739Y-37184032D01*
X108543730Y-37184044D01*
X108466009Y-37304981D01*
X108466005Y-37304988D01*
X108466004Y-37304991D01*
X108431749Y-37380000D01*
X108429880Y-37384092D01*
X108389375Y-37522040D01*
X108389374Y-37522044D01*
X108377000Y-37608106D01*
X108377000Y-38180004D01*
X108378302Y-38208183D01*
X108378303Y-38208187D01*
X108403900Y-38298150D01*
X108401639Y-38359294D01*
X108400800Y-38361033D01*
X108400943Y-38361089D01*
X108397629Y-38369642D01*
X108377000Y-38479999D01*
X108377000Y-39051893D01*
X108389374Y-39137955D01*
X108389375Y-39137958D01*
X108429882Y-39275913D01*
X108466004Y-39355009D01*
X108466005Y-39355011D01*
X108466009Y-39355018D01*
X108543730Y-39475955D01*
X108543739Y-39475967D01*
X108600669Y-39541668D01*
X108600686Y-39541686D01*
X108709336Y-39635831D01*
X108709349Y-39635840D01*
X108782480Y-39682838D01*
X108782482Y-39682839D01*
X108782490Y-39682844D01*
X108913275Y-39742572D01*
X108913276Y-39742572D01*
X108913280Y-39742574D01*
X108960252Y-39756365D01*
X108996707Y-39767070D01*
X109139022Y-39787532D01*
X109225976Y-39787533D01*
X109233108Y-39786507D01*
X109247196Y-39785500D01*
X109617804Y-39785500D01*
X109631891Y-39786507D01*
X109639024Y-39787533D01*
X109725978Y-39787532D01*
X109868293Y-39767070D01*
X109930679Y-39748751D01*
X109951719Y-39742574D01*
X109951720Y-39742573D01*
X109951725Y-39742572D01*
X110068054Y-39689445D01*
X110109179Y-39680500D01*
X136041809Y-39680500D01*
X136132169Y-39656287D01*
X136132172Y-39656287D01*
X136145403Y-39652741D01*
X136156387Y-39649799D01*
X136259114Y-39590489D01*
X137052990Y-38796614D01*
X137112299Y-38693886D01*
X137113485Y-38689458D01*
X137113489Y-38689452D01*
X137113487Y-38689452D01*
X137143000Y-38579308D01*
X137143000Y-37030711D01*
X137161907Y-36972520D01*
X137197055Y-36942501D01*
X137374110Y-36852287D01*
X137374697Y-36851861D01*
X137468525Y-36783691D01*
X137539719Y-36731966D01*
X137684466Y-36587219D01*
X137774204Y-36463704D01*
X137804785Y-36421613D01*
X137804787Y-36421610D01*
X137897720Y-36239219D01*
X137960977Y-36044534D01*
X137960978Y-36044529D01*
X137993000Y-35842355D01*
X137993000Y-35437644D01*
X137960978Y-35235470D01*
X137959201Y-35230000D01*
X137897720Y-35040781D01*
X137804787Y-34858390D01*
X137804785Y-34858386D01*
X137682180Y-34689634D01*
X137683276Y-34688837D01*
X137661917Y-34637258D01*
X137676207Y-34577764D01*
X137722736Y-34538032D01*
X137760613Y-34530500D01*
X144765047Y-34530500D01*
X144823238Y-34549407D01*
X144859202Y-34598907D01*
X144859202Y-34660093D01*
X144842685Y-34689584D01*
X144843202Y-34689960D01*
X144720638Y-34858653D01*
X144627743Y-35040972D01*
X144564508Y-35235587D01*
X144532500Y-35437684D01*
X144532500Y-35439999D01*
X144532501Y-35440000D01*
X145264924Y-35440000D01*
X145232500Y-35561009D01*
X145232500Y-35718991D01*
X145264924Y-35840000D01*
X144532501Y-35840000D01*
X144532500Y-35840001D01*
X144532500Y-35842315D01*
X144564508Y-36044412D01*
X144627743Y-36239027D01*
X144720638Y-36421346D01*
X144840914Y-36586891D01*
X144985608Y-36731585D01*
X145151153Y-36851861D01*
X145333472Y-36944756D01*
X145528087Y-37007991D01*
X145632499Y-37024527D01*
X145632500Y-37024526D01*
X145632500Y-36207575D01*
X145753509Y-36240000D01*
X145911491Y-36240000D01*
X146032500Y-36207575D01*
X146032500Y-37024527D01*
X146136912Y-37007991D01*
X146331527Y-36944756D01*
X146513846Y-36851861D01*
X146679391Y-36731585D01*
X146824085Y-36586891D01*
X146944361Y-36421346D01*
X147037256Y-36239027D01*
X147100491Y-36044412D01*
X147132500Y-35842315D01*
X147132500Y-35840001D01*
X147132499Y-35840000D01*
X146400076Y-35840000D01*
X146432500Y-35718991D01*
X146432500Y-35561009D01*
X146400076Y-35440000D01*
X147132499Y-35440000D01*
X147132500Y-35439999D01*
X147132500Y-35437684D01*
X147100491Y-35235587D01*
X147037256Y-35040972D01*
X146944361Y-34858653D01*
X146824085Y-34693108D01*
X146679391Y-34548414D01*
X146513846Y-34428138D01*
X146331527Y-34335243D01*
X146136912Y-34272008D01*
X146076181Y-34262390D01*
X146021665Y-34234613D01*
X145993887Y-34180096D01*
X146003458Y-34119664D01*
X146021661Y-34094608D01*
X146706774Y-33409496D01*
X146761291Y-33381719D01*
X146776778Y-33380500D01*
X148192267Y-33380500D01*
X148192269Y-33380500D01*
X148280731Y-33369877D01*
X148421509Y-33314361D01*
X148542089Y-33222922D01*
X148590598Y-33158954D01*
X148640824Y-33124012D01*
X148701997Y-33125266D01*
X148748365Y-33158955D01*
X148796599Y-33222561D01*
X148796602Y-33222564D01*
X148917071Y-33313919D01*
X149057723Y-33369386D01*
X149146102Y-33379999D01*
X149146109Y-33380000D01*
X149739166Y-33380000D01*
X149739167Y-33379999D01*
X149739167Y-32541879D01*
X149746174Y-32545925D01*
X149873341Y-32580000D01*
X150004993Y-32580000D01*
X150132160Y-32545925D01*
X150139167Y-32541879D01*
X150139167Y-33379999D01*
X150139168Y-33380000D01*
X150553664Y-33380000D01*
X150611855Y-33398907D01*
X150647819Y-33448407D01*
X150647819Y-33505070D01*
X150648794Y-33505311D01*
X150647819Y-33509267D01*
X150647819Y-33509593D01*
X150647551Y-33510354D01*
X150647359Y-33511130D01*
X150627626Y-33673651D01*
X150626855Y-33680000D01*
X150647360Y-33848872D01*
X150693112Y-33969514D01*
X150705911Y-34003262D01*
X150707682Y-34007930D01*
X150714434Y-34017712D01*
X150714474Y-34017769D01*
X150732000Y-34074010D01*
X150732000Y-35552389D01*
X150713093Y-35610580D01*
X150703004Y-35622393D01*
X144874893Y-41450504D01*
X144820376Y-41478281D01*
X144804889Y-41479500D01*
X138310111Y-41479500D01*
X138251920Y-41460593D01*
X138240107Y-41450504D01*
X137846816Y-41057213D01*
X137159114Y-40369511D01*
X137159111Y-40369509D01*
X137159110Y-40369508D01*
X137159109Y-40369507D01*
X137056390Y-40310202D01*
X137056386Y-40310200D01*
X137032173Y-40303712D01*
X137032173Y-40303713D01*
X136941809Y-40279500D01*
X119143191Y-40279500D01*
X119098008Y-40291606D01*
X119052825Y-40303713D01*
X119052824Y-40303712D01*
X119028612Y-40310201D01*
X119028609Y-40310202D01*
X118925890Y-40369507D01*
X118925889Y-40369508D01*
X110055631Y-49239764D01*
X110001114Y-49267541D01*
X109943789Y-49259485D01*
X109908996Y-49243261D01*
X109908994Y-49243260D01*
X109700183Y-49187310D01*
X109689192Y-49184365D01*
X109689191Y-49184364D01*
X109689184Y-49184363D01*
X109462503Y-49164532D01*
X109462497Y-49164532D01*
X109235815Y-49184363D01*
X109015999Y-49243262D01*
X108809776Y-49339426D01*
X108809762Y-49339434D01*
X108623369Y-49469946D01*
X108623367Y-49469947D01*
X108462447Y-49630867D01*
X108462446Y-49630869D01*
X108331934Y-49817262D01*
X108331926Y-49817276D01*
X108235762Y-50023499D01*
X108176863Y-50243315D01*
X108157032Y-50469996D01*
X108157032Y-50470003D01*
X108176863Y-50696684D01*
X108176864Y-50696691D01*
X108176865Y-50696692D01*
X108213623Y-50833875D01*
X108235762Y-50916500D01*
X108331926Y-51122723D01*
X108331934Y-51122737D01*
X108462446Y-51309130D01*
X108462447Y-51309132D01*
X108462450Y-51309135D01*
X108462453Y-51309139D01*
X108623361Y-51470047D01*
X108623364Y-51470049D01*
X108623367Y-51470052D01*
X108623369Y-51470053D01*
X108747631Y-51557061D01*
X108809766Y-51600568D01*
X108809772Y-51600571D01*
X108809776Y-51600573D01*
X108957078Y-51669261D01*
X109002607Y-51690492D01*
X109016000Y-51696737D01*
X109016004Y-51696739D01*
X109235808Y-51755635D01*
X109235812Y-51755635D01*
X109235815Y-51755636D01*
X109462497Y-51775468D01*
X109462500Y-51775468D01*
X109462503Y-51775468D01*
X109689184Y-51755636D01*
X109689185Y-51755635D01*
X109689192Y-51755635D01*
X109908996Y-51696739D01*
X110115234Y-51600568D01*
X110301639Y-51470047D01*
X110462547Y-51309139D01*
X110593068Y-51122734D01*
X110611899Y-51082352D01*
X110642776Y-51016137D01*
X110684504Y-50971389D01*
X110744565Y-50959714D01*
X110800018Y-50985572D01*
X110822224Y-51016137D01*
X110871926Y-51122723D01*
X110871934Y-51122737D01*
X111002446Y-51309130D01*
X111002447Y-51309132D01*
X111002450Y-51309135D01*
X111002453Y-51309139D01*
X111163361Y-51470047D01*
X111163364Y-51470049D01*
X111163367Y-51470052D01*
X111163369Y-51470053D01*
X111287631Y-51557061D01*
X111349766Y-51600568D01*
X111349772Y-51600571D01*
X111349776Y-51600573D01*
X111497078Y-51669261D01*
X111542607Y-51690492D01*
X111556000Y-51696737D01*
X111556004Y-51696739D01*
X111775808Y-51755635D01*
X111775812Y-51755635D01*
X111775815Y-51755636D01*
X112002497Y-51775468D01*
X112002500Y-51775468D01*
X112002503Y-51775468D01*
X112229184Y-51755636D01*
X112229185Y-51755635D01*
X112229192Y-51755635D01*
X112448996Y-51696739D01*
X112655234Y-51600568D01*
X112841639Y-51470047D01*
X113002547Y-51309139D01*
X113133068Y-51122734D01*
X113151899Y-51082352D01*
X113182776Y-51016137D01*
X113224504Y-50971389D01*
X113284565Y-50959714D01*
X113340018Y-50985572D01*
X113362224Y-51016137D01*
X113411926Y-51122723D01*
X113411934Y-51122737D01*
X113542446Y-51309130D01*
X113542447Y-51309132D01*
X113542450Y-51309135D01*
X113542453Y-51309139D01*
X113703361Y-51470047D01*
X113703364Y-51470049D01*
X113703367Y-51470052D01*
X113703369Y-51470053D01*
X113827631Y-51557061D01*
X113889766Y-51600568D01*
X113889772Y-51600571D01*
X113889776Y-51600573D01*
X114037078Y-51669261D01*
X114082607Y-51690492D01*
X114096000Y-51696737D01*
X114096004Y-51696739D01*
X114315808Y-51755635D01*
X114315812Y-51755635D01*
X114315815Y-51755636D01*
X114542497Y-51775468D01*
X114542500Y-51775468D01*
X114542503Y-51775468D01*
X114769184Y-51755636D01*
X114769185Y-51755635D01*
X114769192Y-51755635D01*
X114988996Y-51696739D01*
X115195234Y-51600568D01*
X115381639Y-51470047D01*
X115542547Y-51309139D01*
X115673068Y-51122734D01*
X115691899Y-51082352D01*
X115722776Y-51016137D01*
X115764504Y-50971389D01*
X115824565Y-50959714D01*
X115880018Y-50985572D01*
X115902224Y-51016137D01*
X115951926Y-51122723D01*
X115951934Y-51122737D01*
X116082446Y-51309130D01*
X116082447Y-51309132D01*
X116082450Y-51309135D01*
X116082453Y-51309139D01*
X116243361Y-51470047D01*
X116243364Y-51470049D01*
X116243367Y-51470052D01*
X116243369Y-51470053D01*
X116367631Y-51557061D01*
X116429766Y-51600568D01*
X116429772Y-51600571D01*
X116429776Y-51600573D01*
X116577078Y-51669261D01*
X116622607Y-51690492D01*
X116636000Y-51696737D01*
X116636004Y-51696739D01*
X116855808Y-51755635D01*
X116855812Y-51755635D01*
X116855815Y-51755636D01*
X117082497Y-51775468D01*
X117082500Y-51775468D01*
X117082503Y-51775468D01*
X117309184Y-51755636D01*
X117309185Y-51755635D01*
X117309192Y-51755635D01*
X117528996Y-51696739D01*
X117735234Y-51600568D01*
X117921639Y-51470047D01*
X118082547Y-51309139D01*
X118213068Y-51122734D01*
X118231899Y-51082352D01*
X118262776Y-51016137D01*
X118304504Y-50971389D01*
X118364565Y-50959714D01*
X118420018Y-50985572D01*
X118442224Y-51016137D01*
X118491926Y-51122723D01*
X118491934Y-51122737D01*
X118622446Y-51309130D01*
X118622447Y-51309132D01*
X118622450Y-51309135D01*
X118622453Y-51309139D01*
X118783361Y-51470047D01*
X118783364Y-51470049D01*
X118783367Y-51470052D01*
X118783369Y-51470053D01*
X118907631Y-51557061D01*
X118969766Y-51600568D01*
X118969772Y-51600571D01*
X118969776Y-51600573D01*
X119117078Y-51669261D01*
X119162607Y-51690492D01*
X119176000Y-51696737D01*
X119176004Y-51696739D01*
X119395808Y-51755635D01*
X119395812Y-51755635D01*
X119395815Y-51755636D01*
X119622497Y-51775468D01*
X119622500Y-51775468D01*
X119622503Y-51775468D01*
X119849184Y-51755636D01*
X119849185Y-51755635D01*
X119849192Y-51755635D01*
X120068996Y-51696739D01*
X120275234Y-51600568D01*
X120461639Y-51470047D01*
X120622547Y-51309139D01*
X120753068Y-51122734D01*
X120771899Y-51082352D01*
X120802776Y-51016137D01*
X120844504Y-50971389D01*
X120904565Y-50959714D01*
X120960018Y-50985572D01*
X120982224Y-51016137D01*
X121031926Y-51122723D01*
X121031934Y-51122737D01*
X121162446Y-51309130D01*
X121162447Y-51309132D01*
X121162450Y-51309135D01*
X121162453Y-51309139D01*
X121323361Y-51470047D01*
X121323364Y-51470049D01*
X121323367Y-51470052D01*
X121323369Y-51470053D01*
X121447631Y-51557061D01*
X121509766Y-51600568D01*
X121509772Y-51600571D01*
X121509776Y-51600573D01*
X121657078Y-51669261D01*
X121702607Y-51690492D01*
X121716000Y-51696737D01*
X121716004Y-51696739D01*
X121935808Y-51755635D01*
X121935812Y-51755635D01*
X121935815Y-51755636D01*
X122162497Y-51775468D01*
X122162500Y-51775468D01*
X122162503Y-51775468D01*
X122389184Y-51755636D01*
X122389185Y-51755635D01*
X122389192Y-51755635D01*
X122608996Y-51696739D01*
X122815234Y-51600568D01*
X123001639Y-51470047D01*
X123162547Y-51309139D01*
X123293068Y-51122734D01*
X123311899Y-51082352D01*
X123342776Y-51016137D01*
X123384504Y-50971389D01*
X123444565Y-50959714D01*
X123500018Y-50985572D01*
X123522224Y-51016137D01*
X123571926Y-51122723D01*
X123571934Y-51122737D01*
X123702446Y-51309130D01*
X123702447Y-51309132D01*
X123702450Y-51309135D01*
X123702453Y-51309139D01*
X123863361Y-51470047D01*
X123863364Y-51470049D01*
X123863367Y-51470052D01*
X123863369Y-51470053D01*
X123987631Y-51557061D01*
X124049766Y-51600568D01*
X124049772Y-51600571D01*
X124049776Y-51600573D01*
X124197078Y-51669261D01*
X124242607Y-51690492D01*
X124256000Y-51696737D01*
X124256004Y-51696739D01*
X124475808Y-51755635D01*
X124475812Y-51755635D01*
X124475815Y-51755636D01*
X124702497Y-51775468D01*
X124702500Y-51775468D01*
X124702503Y-51775468D01*
X124929184Y-51755636D01*
X124929185Y-51755635D01*
X124929192Y-51755635D01*
X125148996Y-51696739D01*
X125355234Y-51600568D01*
X125541639Y-51470047D01*
X125702547Y-51309139D01*
X125833068Y-51122734D01*
X125851899Y-51082352D01*
X125882776Y-51016137D01*
X125924504Y-50971389D01*
X125984565Y-50959714D01*
X126040018Y-50985572D01*
X126062224Y-51016137D01*
X126111926Y-51122723D01*
X126111934Y-51122737D01*
X126242446Y-51309130D01*
X126242447Y-51309132D01*
X126242450Y-51309135D01*
X126242453Y-51309139D01*
X126403361Y-51470047D01*
X126403364Y-51470049D01*
X126403367Y-51470052D01*
X126403369Y-51470053D01*
X126527631Y-51557061D01*
X126589766Y-51600568D01*
X126589772Y-51600571D01*
X126589776Y-51600573D01*
X126737078Y-51669261D01*
X126782607Y-51690492D01*
X126796000Y-51696737D01*
X126796004Y-51696739D01*
X127015808Y-51755635D01*
X127015812Y-51755635D01*
X127015815Y-51755636D01*
X127052032Y-51758804D01*
X127117927Y-51764569D01*
X127134906Y-51767562D01*
X127183191Y-51780500D01*
X127183193Y-51780500D01*
X133891807Y-51780500D01*
X133891809Y-51780500D01*
X133984606Y-51755635D01*
X134006387Y-51749799D01*
X134109114Y-51690489D01*
X135227372Y-50572229D01*
X135281887Y-50544454D01*
X135342319Y-50554025D01*
X135385584Y-50597290D01*
X135395155Y-50657720D01*
X135392000Y-50677641D01*
X135392000Y-51082355D01*
X135424021Y-51284529D01*
X135487280Y-51479219D01*
X135580212Y-51661609D01*
X135580214Y-51661613D01*
X135700529Y-51827213D01*
X135700531Y-51827215D01*
X135700534Y-51827219D01*
X135703813Y-51830498D01*
X135731589Y-51885013D01*
X135722018Y-51945445D01*
X135678753Y-51988710D01*
X135633808Y-51999500D01*
X108441038Y-51999500D01*
X108433977Y-51999248D01*
X108403967Y-51997101D01*
X108202693Y-51982706D01*
X108188712Y-51980695D01*
X107965618Y-51932163D01*
X107952066Y-51928184D01*
X107738136Y-51848394D01*
X107725286Y-51842526D01*
X107524895Y-51733103D01*
X107513013Y-51725467D01*
X107330236Y-51588642D01*
X107319560Y-51579392D01*
X107158107Y-51417939D01*
X107148857Y-51407263D01*
X107012030Y-51224483D01*
X107004396Y-51212604D01*
X106986593Y-51180000D01*
X106894969Y-51012205D01*
X106889105Y-50999363D01*
X106883961Y-50985572D01*
X106841859Y-50872690D01*
X106809315Y-50785433D01*
X106805336Y-50771881D01*
X106761904Y-50572231D01*
X106756803Y-50548786D01*
X106754793Y-50534805D01*
X106750549Y-50475470D01*
X106738252Y-50303523D01*
X106738000Y-50296461D01*
X106738000Y-32582174D01*
X106756907Y-32523983D01*
X106806407Y-32488019D01*
X106867593Y-32488019D01*
X106917093Y-32523983D01*
X106919297Y-32527147D01*
X106931845Y-32545925D01*
X106982979Y-32622453D01*
X106982987Y-32622463D01*
X107079770Y-32732822D01*
X107173173Y-32839327D01*
X107173181Y-32839334D01*
X107173182Y-32839335D01*
X107390036Y-33029512D01*
X107390043Y-33029517D01*
X107390046Y-33029520D01*
X107629889Y-33189778D01*
X107888598Y-33317359D01*
X107990853Y-33352070D01*
X108161740Y-33410079D01*
X108161742Y-33410079D01*
X108161747Y-33410081D01*
X108444661Y-33466356D01*
X108732500Y-33485222D01*
X109020339Y-33466356D01*
X109303253Y-33410081D01*
X109576402Y-33317359D01*
X109835111Y-33189778D01*
X110074954Y-33029520D01*
X110291827Y-32839327D01*
X110482020Y-32622454D01*
X110642278Y-32382611D01*
X110769859Y-32123902D01*
X110792589Y-32056940D01*
X110829198Y-32007916D01*
X110887631Y-31989772D01*
X110945569Y-32009440D01*
G37*
%TD.AperFunction*%
%TA.AperFunction,Conductor*%
G36*
X144962706Y-49649407D02*
G01*
X144998670Y-49698907D01*
X144998670Y-49760093D01*
X144974519Y-49799504D01*
X144840914Y-49933108D01*
X144720638Y-50098653D01*
X144627743Y-50280972D01*
X144564508Y-50475587D01*
X144547972Y-50580000D01*
X145312885Y-50580000D01*
X145273389Y-50648409D01*
X145232500Y-50801009D01*
X145232500Y-50958991D01*
X145273389Y-51111591D01*
X145312885Y-51180000D01*
X144547972Y-51180000D01*
X144564508Y-51284412D01*
X144627743Y-51479027D01*
X144720638Y-51661346D01*
X144840914Y-51826891D01*
X144844519Y-51830496D01*
X144872296Y-51885013D01*
X144862725Y-51945445D01*
X144819460Y-51988710D01*
X144774515Y-51999500D01*
X137751192Y-51999500D01*
X137693001Y-51980593D01*
X137657037Y-51931093D01*
X137657037Y-51869907D01*
X137681186Y-51830498D01*
X137684466Y-51827219D01*
X137764680Y-51716813D01*
X137804785Y-51661613D01*
X137804787Y-51661610D01*
X137897720Y-51479219D01*
X137960977Y-51284534D01*
X137960978Y-51284529D01*
X137993000Y-51082355D01*
X137993000Y-50677644D01*
X137960978Y-50475470D01*
X137959201Y-50470000D01*
X137897720Y-50280781D01*
X137804787Y-50098390D01*
X137804785Y-50098386D01*
X137684470Y-49932786D01*
X137684468Y-49932784D01*
X137684466Y-49932781D01*
X137551186Y-49799501D01*
X137523411Y-49744987D01*
X137532982Y-49684555D01*
X137576247Y-49641290D01*
X137621192Y-49630500D01*
X144904515Y-49630500D01*
X144962706Y-49649407D01*
G37*
%TD.AperFunction*%
%TA.AperFunction,Conductor*%
G36*
X184286191Y-29319407D02*
G01*
X184322155Y-29368907D01*
X184327000Y-29399500D01*
X184327000Y-29692822D01*
X184326855Y-29695221D01*
X184326855Y-29704789D01*
X184327000Y-29707185D01*
X184327000Y-32732822D01*
X184326855Y-32735221D01*
X184326855Y-32744789D01*
X184327000Y-32747185D01*
X184327000Y-33475500D01*
X184308093Y-33533691D01*
X184258593Y-33569655D01*
X184228000Y-33574500D01*
X183768965Y-33574500D01*
X183764756Y-33574625D01*
X183750716Y-33575045D01*
X183738942Y-33575749D01*
X183731307Y-33576435D01*
X183720737Y-33577385D01*
X183720729Y-33577386D01*
X183663203Y-33584294D01*
X183651400Y-33585000D01*
X181913600Y-33585000D01*
X181901797Y-33584294D01*
X181891904Y-33583106D01*
X181844263Y-33577385D01*
X181830310Y-33576131D01*
X181826057Y-33575749D01*
X181814283Y-33575045D01*
X181800594Y-33574636D01*
X181796035Y-33574500D01*
X181331500Y-33574500D01*
X181283714Y-33578261D01*
X181267300Y-33580860D01*
X181253119Y-33583106D01*
X181253114Y-33583106D01*
X181222747Y-33589512D01*
X181222742Y-33589514D01*
X181121341Y-33637689D01*
X181121331Y-33637695D01*
X181071842Y-33673651D01*
X181014579Y-33727824D01*
X180960860Y-33826401D01*
X180960859Y-33826403D01*
X180941951Y-33884595D01*
X180927000Y-33978996D01*
X180927000Y-33979000D01*
X180927000Y-36025500D01*
X180930761Y-36073286D01*
X180932482Y-36084151D01*
X180935606Y-36103880D01*
X180935606Y-36103885D01*
X180942012Y-36134252D01*
X180942014Y-36134257D01*
X180990605Y-36236534D01*
X180998498Y-36297208D01*
X180988115Y-36326388D01*
X180960859Y-36376404D01*
X180941951Y-36434595D01*
X180927000Y-36528996D01*
X180927000Y-38575500D01*
X180908093Y-38633691D01*
X180858593Y-38669655D01*
X180828000Y-38674500D01*
X177431500Y-38674500D01*
X177383714Y-38678261D01*
X177367300Y-38680860D01*
X177353119Y-38683106D01*
X177353114Y-38683106D01*
X177322747Y-38689512D01*
X177322742Y-38689514D01*
X177221341Y-38737689D01*
X177221331Y-38737695D01*
X177171842Y-38773651D01*
X177114579Y-38827824D01*
X177060860Y-38926401D01*
X177060859Y-38926403D01*
X177041951Y-38984595D01*
X177027000Y-39078996D01*
X177027000Y-48775500D01*
X177008093Y-48833691D01*
X176958593Y-48869655D01*
X176928000Y-48874500D01*
X174123798Y-48874500D01*
X174065607Y-48855593D01*
X174029643Y-48806093D01*
X174029643Y-48744907D01*
X174065607Y-48695407D01*
X174088035Y-48683185D01*
X174124915Y-48668897D01*
X174256856Y-48587199D01*
X173736027Y-48066370D01*
X173786894Y-48052741D01*
X173878106Y-48000080D01*
X173952580Y-47925606D01*
X174005241Y-47834394D01*
X174018870Y-47783527D01*
X174539542Y-48304199D01*
X174571742Y-48261561D01*
X174571747Y-48261552D01*
X174662612Y-48079070D01*
X174718402Y-47882989D01*
X174737212Y-47680000D01*
X174718402Y-47477010D01*
X174662612Y-47280929D01*
X174571749Y-47098451D01*
X174571744Y-47098442D01*
X174539541Y-47055800D01*
X174018870Y-47576470D01*
X174005241Y-47525606D01*
X173952580Y-47434394D01*
X173878106Y-47359920D01*
X173786894Y-47307259D01*
X173736025Y-47293629D01*
X174256857Y-46772798D01*
X174124921Y-46691105D01*
X174124915Y-46691102D01*
X173934816Y-46617458D01*
X173734430Y-46580000D01*
X173530570Y-46580000D01*
X173330183Y-46617458D01*
X173140086Y-46691101D01*
X173140081Y-46691104D01*
X173008141Y-46772798D01*
X173528972Y-47293629D01*
X173478106Y-47307259D01*
X173386894Y-47359920D01*
X173312420Y-47434394D01*
X173259759Y-47525606D01*
X173246129Y-47576471D01*
X172725457Y-47055798D01*
X172693254Y-47098442D01*
X172602387Y-47280929D01*
X172546597Y-47477010D01*
X172527787Y-47680000D01*
X172546597Y-47882989D01*
X172602387Y-48079070D01*
X172693250Y-48261548D01*
X172693255Y-48261557D01*
X172725457Y-48304198D01*
X173246129Y-47783526D01*
X173259759Y-47834394D01*
X173312420Y-47925606D01*
X173386894Y-48000080D01*
X173478106Y-48052741D01*
X173528970Y-48066370D01*
X173008141Y-48587200D01*
X173140083Y-48668897D01*
X173176965Y-48683185D01*
X173224396Y-48721837D01*
X173240050Y-48780986D01*
X173217947Y-48838039D01*
X173166531Y-48871205D01*
X173141202Y-48874500D01*
X171327662Y-48874500D01*
X171312580Y-48874955D01*
X171309595Y-48875000D01*
X171155405Y-48875000D01*
X171152420Y-48874955D01*
X171137338Y-48874500D01*
X167777662Y-48874500D01*
X167762580Y-48874955D01*
X167759595Y-48875000D01*
X167605405Y-48875000D01*
X167602420Y-48874955D01*
X167587338Y-48874500D01*
X166627949Y-48874500D01*
X166607527Y-48877642D01*
X166536094Y-48888636D01*
X166536087Y-48888638D01*
X166479314Y-48906536D01*
X166395932Y-48947655D01*
X166363991Y-48970020D01*
X166349047Y-48978647D01*
X166206959Y-49044904D01*
X166190743Y-49050807D01*
X166039299Y-49091386D01*
X166022305Y-49094382D01*
X165866127Y-49108046D01*
X165848870Y-49108046D01*
X165692694Y-49094383D01*
X165675699Y-49091387D01*
X165524254Y-49050807D01*
X165508046Y-49044908D01*
X165365939Y-48978642D01*
X165351004Y-48970019D01*
X165319061Y-48947652D01*
X165235689Y-48906538D01*
X165178919Y-48888639D01*
X165178908Y-48888637D01*
X165107474Y-48877643D01*
X165087051Y-48874500D01*
X164231500Y-48874500D01*
X164183714Y-48878261D01*
X164167300Y-48880860D01*
X164153119Y-48883106D01*
X164153114Y-48883106D01*
X164122747Y-48889512D01*
X164122742Y-48889514D01*
X164021341Y-48937689D01*
X164021331Y-48937695D01*
X163971842Y-48973651D01*
X163914579Y-49027824D01*
X163860860Y-49126401D01*
X163860859Y-49126403D01*
X163841951Y-49184595D01*
X163827000Y-49278996D01*
X163827000Y-49279000D01*
X163827000Y-51881000D01*
X163827923Y-51892733D01*
X163813641Y-51952226D01*
X163767116Y-51991964D01*
X163729229Y-51999500D01*
X146890485Y-51999500D01*
X146832294Y-51980593D01*
X146796330Y-51931093D01*
X146796330Y-51869907D01*
X146820481Y-51830496D01*
X146824085Y-51826891D01*
X146944361Y-51661346D01*
X147037256Y-51479027D01*
X147100491Y-51284412D01*
X147117028Y-51180000D01*
X146352115Y-51180000D01*
X146391611Y-51111591D01*
X146432500Y-50958991D01*
X146432500Y-50801009D01*
X146391611Y-50648409D01*
X146352115Y-50580000D01*
X147117028Y-50580000D01*
X147100491Y-50475587D01*
X147037256Y-50280972D01*
X146944361Y-50098653D01*
X146824085Y-49933108D01*
X146690481Y-49799504D01*
X146662704Y-49744987D01*
X146672275Y-49684555D01*
X146715540Y-49641290D01*
X146760485Y-49630500D01*
X157441809Y-49630500D01*
X157532169Y-49606287D01*
X157532172Y-49606287D01*
X157545403Y-49602741D01*
X157556387Y-49599799D01*
X157659114Y-49540489D01*
X161430108Y-45769496D01*
X161484625Y-45741719D01*
X161500112Y-45740500D01*
X167991790Y-45740500D01*
X168049981Y-45759407D01*
X168079997Y-45794551D01*
X168143532Y-45919247D01*
X168170212Y-45971609D01*
X168170214Y-45971613D01*
X168290529Y-46137213D01*
X168290531Y-46137215D01*
X168290534Y-46137219D01*
X168435281Y-46281966D01*
X168435284Y-46281968D01*
X168435286Y-46281970D01*
X168600886Y-46402285D01*
X168600890Y-46402287D01*
X168783281Y-46495220D01*
X168977966Y-46558477D01*
X168977967Y-46558477D01*
X168977970Y-46558478D01*
X169180145Y-46590500D01*
X169180148Y-46590500D01*
X169584855Y-46590500D01*
X169787029Y-46558478D01*
X169787030Y-46558477D01*
X169787034Y-46558477D01*
X169981719Y-46495220D01*
X170164110Y-46402287D01*
X170329719Y-46281966D01*
X170474466Y-46137219D01*
X170594787Y-45971610D01*
X170687720Y-45789219D01*
X170750977Y-45594534D01*
X170755228Y-45567695D01*
X170783000Y-45392355D01*
X170783000Y-45187644D01*
X170750978Y-44985470D01*
X170750977Y-44985466D01*
X170687720Y-44790781D01*
X170594787Y-44608390D01*
X170594785Y-44608386D01*
X170474470Y-44442786D01*
X170474468Y-44442784D01*
X170474466Y-44442781D01*
X170329719Y-44298034D01*
X170329715Y-44298031D01*
X170329713Y-44298029D01*
X170164113Y-44177714D01*
X170164109Y-44177712D01*
X170071449Y-44130500D01*
X170027701Y-44108209D01*
X169984437Y-44064945D01*
X169974866Y-44004513D01*
X170002643Y-43949997D01*
X170027699Y-43931791D01*
X170164110Y-43862287D01*
X170329719Y-43741966D01*
X170474466Y-43597219D01*
X170594787Y-43431610D01*
X170687720Y-43249219D01*
X170750977Y-43054534D01*
X170783000Y-42852352D01*
X170783000Y-42647648D01*
X170783000Y-42647644D01*
X170750978Y-42445470D01*
X170750977Y-42445466D01*
X170687720Y-42250781D01*
X170594787Y-42068390D01*
X170594785Y-42068386D01*
X170474470Y-41902786D01*
X170474468Y-41902784D01*
X170474466Y-41902781D01*
X170329719Y-41758034D01*
X170329715Y-41758031D01*
X170329713Y-41758029D01*
X170164113Y-41637714D01*
X170164109Y-41637712D01*
X170093347Y-41601657D01*
X170027701Y-41568209D01*
X169984437Y-41524945D01*
X169974866Y-41464513D01*
X170002643Y-41409997D01*
X170027699Y-41391791D01*
X170164110Y-41322287D01*
X170329719Y-41201966D01*
X170474466Y-41057219D01*
X170594787Y-40891610D01*
X170687720Y-40709219D01*
X170750977Y-40514534D01*
X170750978Y-40514529D01*
X170783000Y-40312355D01*
X170783000Y-40107644D01*
X170750978Y-39905470D01*
X170712658Y-39787533D01*
X170687720Y-39710781D01*
X170594787Y-39528390D01*
X170594785Y-39528386D01*
X170474470Y-39362786D01*
X170474468Y-39362784D01*
X170474466Y-39362781D01*
X170329719Y-39218034D01*
X170329715Y-39218031D01*
X170329713Y-39218029D01*
X170164113Y-39097714D01*
X170164109Y-39097712D01*
X170074175Y-39051889D01*
X170027701Y-39028209D01*
X169984437Y-38984945D01*
X169974866Y-38924513D01*
X170002643Y-38869997D01*
X170027699Y-38851791D01*
X170164110Y-38782287D01*
X170193970Y-38760593D01*
X170262101Y-38711093D01*
X170329719Y-38661966D01*
X170474466Y-38517219D01*
X170594787Y-38351610D01*
X170687720Y-38169219D01*
X170750977Y-37974534D01*
X170753163Y-37960732D01*
X170783000Y-37772355D01*
X170783000Y-37567644D01*
X170750978Y-37365470D01*
X170749556Y-37361093D01*
X170687720Y-37170781D01*
X170594787Y-36988390D01*
X170594785Y-36988386D01*
X170474470Y-36822786D01*
X170474468Y-36822784D01*
X170474466Y-36822781D01*
X170329719Y-36678034D01*
X170329715Y-36678031D01*
X170329713Y-36678029D01*
X170164113Y-36557714D01*
X170164109Y-36557712D01*
X170093347Y-36521657D01*
X170027701Y-36488209D01*
X169984437Y-36444945D01*
X169974866Y-36384513D01*
X170002643Y-36329997D01*
X170027699Y-36311791D01*
X170164110Y-36242287D01*
X170172029Y-36236534D01*
X170275288Y-36161512D01*
X170329719Y-36121966D01*
X170474466Y-35977219D01*
X170594787Y-35811610D01*
X170687720Y-35629219D01*
X170750977Y-35434534D01*
X170755115Y-35408409D01*
X170783000Y-35232355D01*
X170783000Y-35027644D01*
X170750978Y-34825470D01*
X170749851Y-34822000D01*
X170687720Y-34630781D01*
X170594787Y-34448390D01*
X170594785Y-34448386D01*
X170474470Y-34282786D01*
X170474468Y-34282784D01*
X170474466Y-34282781D01*
X170329719Y-34138034D01*
X170329715Y-34138031D01*
X170329713Y-34138029D01*
X170164113Y-34017714D01*
X170164109Y-34017712D01*
X169981719Y-33924780D01*
X169787029Y-33861521D01*
X169584855Y-33829500D01*
X169584852Y-33829500D01*
X169180148Y-33829500D01*
X169180145Y-33829500D01*
X168977970Y-33861521D01*
X168783280Y-33924780D01*
X168600890Y-34017712D01*
X168600886Y-34017714D01*
X168435286Y-34138029D01*
X168290529Y-34282786D01*
X168170214Y-34448386D01*
X168170212Y-34448390D01*
X168077280Y-34630780D01*
X168014021Y-34825470D01*
X167982000Y-35027644D01*
X167982000Y-35232355D01*
X168014021Y-35434529D01*
X168077281Y-35629222D01*
X168101634Y-35677019D01*
X168111205Y-35737451D01*
X168083428Y-35791967D01*
X167688824Y-36186571D01*
X167634307Y-36214348D01*
X167573875Y-36204777D01*
X167530610Y-36161512D01*
X167520526Y-36104761D01*
X167525834Y-36060559D01*
X167525835Y-36060558D01*
X167525835Y-35467501D01*
X167525834Y-35467500D01*
X166687715Y-35467500D01*
X166691760Y-35460493D01*
X166725835Y-35333326D01*
X166725835Y-35201674D01*
X166691760Y-35074507D01*
X166687715Y-35067500D01*
X167525834Y-35067500D01*
X167525835Y-35067499D01*
X167525835Y-34474441D01*
X167525834Y-34474435D01*
X167515221Y-34386056D01*
X167459754Y-34245404D01*
X167368399Y-34124935D01*
X167247930Y-34033580D01*
X167107278Y-33978113D01*
X167018899Y-33967500D01*
X166425836Y-33967500D01*
X166425835Y-33967501D01*
X166425835Y-34805620D01*
X166418828Y-34801575D01*
X166291661Y-34767500D01*
X166160009Y-34767500D01*
X166032842Y-34801575D01*
X166025835Y-34805620D01*
X166025835Y-33967501D01*
X166025834Y-33967500D01*
X165432770Y-33967500D01*
X165344391Y-33978113D01*
X165203739Y-34033580D01*
X165083270Y-34124935D01*
X165083265Y-34124940D01*
X165035031Y-34188546D01*
X164984804Y-34223488D01*
X164923632Y-34222234D01*
X164877265Y-34188546D01*
X164828757Y-34124578D01*
X164708177Y-34033139D01*
X164708176Y-34033138D01*
X164708174Y-34033137D01*
X164567400Y-33977623D01*
X164478941Y-33967000D01*
X164478937Y-33967000D01*
X162892733Y-33967000D01*
X162892728Y-33967000D01*
X162804269Y-33977623D01*
X162663495Y-34033137D01*
X162663491Y-34033140D01*
X162542916Y-34124575D01*
X162542913Y-34124578D01*
X162494717Y-34188132D01*
X162444492Y-34223074D01*
X162383319Y-34221820D01*
X162336952Y-34188133D01*
X162288757Y-34124578D01*
X162168177Y-34033139D01*
X162168176Y-34033138D01*
X162168174Y-34033137D01*
X162027400Y-33977623D01*
X161938941Y-33967000D01*
X161938937Y-33967000D01*
X161645335Y-33967000D01*
X161587144Y-33948093D01*
X161551180Y-33898593D01*
X161546335Y-33868000D01*
X161546335Y-33479500D01*
X161565242Y-33421309D01*
X161614742Y-33385345D01*
X161645335Y-33380500D01*
X161938935Y-33380500D01*
X161938937Y-33380500D01*
X162027399Y-33369877D01*
X162168177Y-33314361D01*
X162288757Y-33222922D01*
X162336952Y-33159367D01*
X162387177Y-33124426D01*
X162448350Y-33125679D01*
X162494717Y-33159366D01*
X162542913Y-33222922D01*
X162663493Y-33314361D01*
X162663494Y-33314361D01*
X162663495Y-33314362D01*
X162671095Y-33317359D01*
X162804271Y-33369877D01*
X162892733Y-33380500D01*
X162892735Y-33380500D01*
X164478935Y-33380500D01*
X164478937Y-33380500D01*
X164567399Y-33369877D01*
X164708177Y-33314361D01*
X164828757Y-33222922D01*
X164877266Y-33158954D01*
X164927492Y-33124012D01*
X164988665Y-33125266D01*
X165035033Y-33158955D01*
X165083267Y-33222561D01*
X165083270Y-33222564D01*
X165203739Y-33313919D01*
X165344391Y-33369386D01*
X165432770Y-33379999D01*
X165432777Y-33380000D01*
X166025834Y-33380000D01*
X166025835Y-33379999D01*
X166025835Y-32541879D01*
X166032842Y-32545925D01*
X166160009Y-32580000D01*
X166291661Y-32580000D01*
X166418828Y-32545925D01*
X166425835Y-32541879D01*
X166425835Y-33379999D01*
X166425836Y-33380000D01*
X167018893Y-33380000D01*
X167018899Y-33379999D01*
X167107278Y-33369386D01*
X167247930Y-33313919D01*
X167368399Y-33222564D01*
X167459754Y-33102095D01*
X167515221Y-32961443D01*
X167525834Y-32873064D01*
X167525835Y-32873058D01*
X167525835Y-32280001D01*
X167525834Y-32280000D01*
X166687715Y-32280000D01*
X166691760Y-32272993D01*
X166725835Y-32145826D01*
X166725835Y-32014174D01*
X166691760Y-31887007D01*
X166687715Y-31880000D01*
X167525834Y-31880000D01*
X167525835Y-31879999D01*
X167525835Y-31286941D01*
X167525834Y-31286935D01*
X167515221Y-31198556D01*
X167459754Y-31057904D01*
X167368399Y-30937435D01*
X167247930Y-30846080D01*
X167107278Y-30790613D01*
X167018899Y-30780000D01*
X166425836Y-30780000D01*
X166425835Y-30780001D01*
X166425835Y-31618120D01*
X166418828Y-31614075D01*
X166291661Y-31580000D01*
X166160009Y-31580000D01*
X166032842Y-31614075D01*
X166025835Y-31618120D01*
X166025835Y-30780001D01*
X166025834Y-30780000D01*
X165432770Y-30780000D01*
X165344391Y-30790613D01*
X165203739Y-30846080D01*
X165083270Y-30937435D01*
X165083265Y-30937440D01*
X165035031Y-31001046D01*
X164984804Y-31035988D01*
X164923632Y-31034734D01*
X164877265Y-31001046D01*
X164828757Y-30937078D01*
X164708177Y-30845639D01*
X164708176Y-30845638D01*
X164708174Y-30845637D01*
X164567400Y-30790123D01*
X164478941Y-30779500D01*
X164478937Y-30779500D01*
X162892733Y-30779500D01*
X162892728Y-30779500D01*
X162804269Y-30790123D01*
X162663495Y-30845637D01*
X162663491Y-30845640D01*
X162542916Y-30937075D01*
X162542913Y-30937078D01*
X162494717Y-31000632D01*
X162444492Y-31035574D01*
X162383319Y-31034320D01*
X162336952Y-31000633D01*
X162288757Y-30937078D01*
X162168177Y-30845639D01*
X162168176Y-30845638D01*
X162168174Y-30845637D01*
X162027400Y-30790123D01*
X161938941Y-30779500D01*
X161938937Y-30779500D01*
X161684485Y-30779500D01*
X161626294Y-30760593D01*
X161590330Y-30711093D01*
X161588858Y-30706123D01*
X161565634Y-30619449D01*
X161523215Y-30545978D01*
X161506324Y-30516721D01*
X161059114Y-30069511D01*
X161059111Y-30069509D01*
X161059109Y-30069507D01*
X160956392Y-30010203D01*
X160956389Y-30010202D01*
X160956387Y-30010201D01*
X160928888Y-30002833D01*
X160841809Y-29979500D01*
X153041809Y-29979500D01*
X149891809Y-29979500D01*
X144895143Y-29979500D01*
X136791809Y-29979500D01*
X133341809Y-29979500D01*
X128641809Y-29979500D01*
X124991809Y-29979500D01*
X120491809Y-29979500D01*
X116691809Y-29979500D01*
X112573191Y-29979500D01*
X112503067Y-29998289D01*
X112458609Y-30010202D01*
X112429748Y-30026865D01*
X112429749Y-30026866D01*
X112355887Y-30069510D01*
X111925342Y-30500055D01*
X111866037Y-30602774D01*
X111866036Y-30602777D01*
X111861568Y-30619448D01*
X111861569Y-30619449D01*
X111838345Y-30706123D01*
X111805021Y-30757437D01*
X111747900Y-30779364D01*
X111742718Y-30779500D01*
X111492728Y-30779500D01*
X111404269Y-30790123D01*
X111263495Y-30845637D01*
X111263491Y-30845640D01*
X111142916Y-30937075D01*
X111142908Y-30937083D01*
X111089763Y-31007165D01*
X111039536Y-31042107D01*
X110978364Y-31040853D01*
X110929611Y-31003882D01*
X110913784Y-30966664D01*
X110862581Y-30709247D01*
X110826439Y-30602778D01*
X110797227Y-30516721D01*
X110769859Y-30436098D01*
X110642278Y-30177389D01*
X110482020Y-29937546D01*
X110482017Y-29937543D01*
X110482012Y-29937536D01*
X110291835Y-29720682D01*
X110291834Y-29720681D01*
X110291827Y-29720673D01*
X110268254Y-29700000D01*
X110074963Y-29530487D01*
X110074950Y-29530477D01*
X110002122Y-29481815D01*
X109964243Y-29433765D01*
X109961841Y-29372627D01*
X109995834Y-29321754D01*
X110053237Y-29300576D01*
X110057124Y-29300500D01*
X184228000Y-29300500D01*
X184286191Y-29319407D01*
G37*
%TD.AperFunction*%
%TA.AperFunction,Conductor*%
G36*
X159904688Y-30899407D02*
G01*
X159940652Y-30948907D01*
X159940652Y-31010093D01*
X159925381Y-31039319D01*
X159911475Y-31057656D01*
X159911472Y-31057660D01*
X159855958Y-31198434D01*
X159845335Y-31286893D01*
X159845335Y-32873106D01*
X159855958Y-32961565D01*
X159911472Y-33102339D01*
X159911473Y-33102341D01*
X159911474Y-33102342D01*
X160002913Y-33222922D01*
X160123493Y-33314361D01*
X160123494Y-33314361D01*
X160123495Y-33314362D01*
X160131095Y-33317359D01*
X160264271Y-33369877D01*
X160352733Y-33380500D01*
X160646335Y-33380500D01*
X160704526Y-33399407D01*
X160740490Y-33448907D01*
X160745335Y-33479500D01*
X160745335Y-33868000D01*
X160726428Y-33926191D01*
X160676928Y-33962155D01*
X160646335Y-33967000D01*
X160352728Y-33967000D01*
X160264269Y-33977623D01*
X160123495Y-34033137D01*
X160123491Y-34033140D01*
X160002916Y-34124575D01*
X160002910Y-34124581D01*
X159911475Y-34245156D01*
X159911472Y-34245160D01*
X159855958Y-34385934D01*
X159845335Y-34474393D01*
X159845335Y-36060606D01*
X159855958Y-36149065D01*
X159911472Y-36289839D01*
X159911473Y-36289841D01*
X159911474Y-36289842D01*
X160002913Y-36410422D01*
X160123493Y-36501861D01*
X160123494Y-36501861D01*
X160123495Y-36501862D01*
X160152074Y-36513132D01*
X160264271Y-36557377D01*
X160352733Y-36568000D01*
X160352735Y-36568000D01*
X161938935Y-36568000D01*
X161938937Y-36568000D01*
X162027399Y-36557377D01*
X162168177Y-36501861D01*
X162288757Y-36410422D01*
X162336952Y-36346867D01*
X162387177Y-36311926D01*
X162448350Y-36313179D01*
X162494717Y-36346866D01*
X162542913Y-36410422D01*
X162663493Y-36501861D01*
X162663494Y-36501861D01*
X162663495Y-36501862D01*
X162781294Y-36548316D01*
X162828491Y-36587252D01*
X162843788Y-36646495D01*
X162821342Y-36703414D01*
X162814979Y-36710417D01*
X155224893Y-44300504D01*
X155170376Y-44328281D01*
X155154889Y-44329500D01*
X153559110Y-44329500D01*
X153500919Y-44310593D01*
X153464955Y-44261093D01*
X153464955Y-44199907D01*
X153489104Y-44160498D01*
X159540107Y-38109496D01*
X159594624Y-38081719D01*
X159610111Y-38080500D01*
X159717553Y-38080500D01*
X159717556Y-38080500D01*
X159882725Y-38039790D01*
X160033352Y-37960734D01*
X160160683Y-37847929D01*
X160257318Y-37707930D01*
X160317640Y-37548872D01*
X160338145Y-37380000D01*
X160317640Y-37211128D01*
X160257318Y-37052070D01*
X160160683Y-36912071D01*
X160151833Y-36904231D01*
X160059895Y-36822781D01*
X160033352Y-36799266D01*
X159882725Y-36720210D01*
X159882724Y-36720209D01*
X159882723Y-36720209D01*
X159717558Y-36679500D01*
X159717556Y-36679500D01*
X159547444Y-36679500D01*
X159547441Y-36679500D01*
X159382276Y-36720209D01*
X159231646Y-36799267D01*
X159104318Y-36912069D01*
X159104316Y-36912072D01*
X159038108Y-37007991D01*
X159007682Y-37052070D01*
X158947360Y-37211128D01*
X158942233Y-37253346D01*
X158926855Y-37379997D01*
X158926855Y-37379998D01*
X158928466Y-37393271D01*
X158916708Y-37453316D01*
X158900191Y-37475204D01*
X153024893Y-43350504D01*
X152970376Y-43378281D01*
X152954889Y-43379500D01*
X151609110Y-43379500D01*
X151550919Y-43360593D01*
X151514955Y-43311093D01*
X151514955Y-43249907D01*
X151539104Y-43210498D01*
X155540107Y-39209496D01*
X155594624Y-39181719D01*
X155610111Y-39180500D01*
X155627553Y-39180500D01*
X155627556Y-39180500D01*
X155792725Y-39139790D01*
X155943352Y-39060734D01*
X156070683Y-38947929D01*
X156167318Y-38807930D01*
X156227640Y-38648872D01*
X156248145Y-38480000D01*
X156248144Y-38479995D01*
X156234947Y-38371309D01*
X156227640Y-38311128D01*
X156167318Y-38152070D01*
X156070683Y-38012071D01*
X156056828Y-37999797D01*
X155943353Y-37899267D01*
X155943352Y-37899266D01*
X155792725Y-37820210D01*
X155792724Y-37820209D01*
X155792723Y-37820209D01*
X155627558Y-37779500D01*
X155627556Y-37779500D01*
X155457444Y-37779500D01*
X155457441Y-37779500D01*
X155292276Y-37820209D01*
X155141646Y-37899267D01*
X155014318Y-38012069D01*
X155014316Y-38012072D01*
X154966242Y-38081719D01*
X154917682Y-38152070D01*
X154857360Y-38311128D01*
X154853390Y-38343827D01*
X154836855Y-38479998D01*
X154836855Y-38480001D01*
X154848210Y-38573522D01*
X154836455Y-38633568D01*
X154819936Y-38655459D01*
X151024893Y-42450504D01*
X150970376Y-42478281D01*
X150954889Y-42479500D01*
X145351211Y-42479500D01*
X145293020Y-42460593D01*
X145257056Y-42411093D01*
X145257056Y-42349907D01*
X145293020Y-42300407D01*
X145301710Y-42294764D01*
X145303648Y-42293644D01*
X145309114Y-42290489D01*
X151540513Y-36059089D01*
X151595026Y-36031315D01*
X151655458Y-36040886D01*
X151698723Y-36084151D01*
X151708807Y-36117290D01*
X151712623Y-36149066D01*
X151768137Y-36289839D01*
X151768138Y-36289841D01*
X151768139Y-36289842D01*
X151859578Y-36410422D01*
X151980158Y-36501861D01*
X151980159Y-36501861D01*
X151980160Y-36501862D01*
X152008739Y-36513132D01*
X152120936Y-36557377D01*
X152209398Y-36568000D01*
X152209400Y-36568000D01*
X153795600Y-36568000D01*
X153795602Y-36568000D01*
X153884064Y-36557377D01*
X154024842Y-36501861D01*
X154145422Y-36410422D01*
X154193617Y-36346867D01*
X154243842Y-36311926D01*
X154305015Y-36313179D01*
X154351382Y-36346866D01*
X154399578Y-36410422D01*
X154520158Y-36501861D01*
X154520159Y-36501861D01*
X154520160Y-36501862D01*
X154548739Y-36513132D01*
X154660936Y-36557377D01*
X154749398Y-36568000D01*
X154749400Y-36568000D01*
X156335600Y-36568000D01*
X156335602Y-36568000D01*
X156424064Y-36557377D01*
X156564842Y-36501861D01*
X156685422Y-36410422D01*
X156723230Y-36360565D01*
X156733931Y-36346454D01*
X156784157Y-36311512D01*
X156845330Y-36312766D01*
X156891698Y-36346455D01*
X156939932Y-36410061D01*
X156939935Y-36410064D01*
X157060404Y-36501419D01*
X157201056Y-36556886D01*
X157289435Y-36567499D01*
X157289442Y-36567500D01*
X157882499Y-36567500D01*
X157882500Y-36567499D01*
X157882500Y-35729379D01*
X157889507Y-35733425D01*
X158016674Y-35767500D01*
X158148326Y-35767500D01*
X158275493Y-35733425D01*
X158282500Y-35729379D01*
X158282500Y-36567499D01*
X158282501Y-36567500D01*
X158875558Y-36567500D01*
X158875564Y-36567499D01*
X158963943Y-36556886D01*
X159104595Y-36501419D01*
X159225064Y-36410064D01*
X159316419Y-36289595D01*
X159371886Y-36148943D01*
X159382499Y-36060564D01*
X159382500Y-36060558D01*
X159382500Y-35467501D01*
X159382499Y-35467500D01*
X158544380Y-35467500D01*
X158548425Y-35460493D01*
X158582500Y-35333326D01*
X158582500Y-35201674D01*
X158548425Y-35074507D01*
X158544380Y-35067500D01*
X159382499Y-35067500D01*
X159382500Y-35067499D01*
X159382500Y-34474441D01*
X159382499Y-34474435D01*
X159371886Y-34386056D01*
X159316419Y-34245404D01*
X159225064Y-34124935D01*
X159104595Y-34033580D01*
X158963943Y-33978113D01*
X158875564Y-33967500D01*
X158282501Y-33967500D01*
X158282500Y-33967501D01*
X158282500Y-34805620D01*
X158275493Y-34801575D01*
X158148326Y-34767500D01*
X158016674Y-34767500D01*
X157889507Y-34801575D01*
X157882500Y-34805620D01*
X157882500Y-33967501D01*
X157882499Y-33967500D01*
X157289435Y-33967500D01*
X157201056Y-33978113D01*
X157060404Y-34033580D01*
X156939935Y-34124935D01*
X156939930Y-34124940D01*
X156891696Y-34188546D01*
X156841469Y-34223488D01*
X156780297Y-34222234D01*
X156733930Y-34188546D01*
X156685422Y-34124578D01*
X156564842Y-34033139D01*
X156564841Y-34033138D01*
X156564839Y-34033137D01*
X156424065Y-33977623D01*
X156335606Y-33967000D01*
X156335602Y-33967000D01*
X154749398Y-33967000D01*
X154749393Y-33967000D01*
X154660934Y-33977623D01*
X154520160Y-34033137D01*
X154520156Y-34033140D01*
X154399581Y-34124575D01*
X154399578Y-34124578D01*
X154351382Y-34188132D01*
X154301157Y-34223074D01*
X154239984Y-34221820D01*
X154193617Y-34188133D01*
X154145422Y-34124578D01*
X154024842Y-34033139D01*
X154024841Y-34033138D01*
X154024839Y-34033137D01*
X153884065Y-33977623D01*
X153795606Y-33967000D01*
X153795602Y-33967000D01*
X153552000Y-33967000D01*
X153493809Y-33948093D01*
X153457845Y-33898593D01*
X153453000Y-33868000D01*
X153453000Y-33479500D01*
X153471907Y-33421309D01*
X153521407Y-33385345D01*
X153552000Y-33380500D01*
X153795600Y-33380500D01*
X153795602Y-33380500D01*
X153884064Y-33369877D01*
X154024842Y-33314361D01*
X154145422Y-33222922D01*
X154193617Y-33159367D01*
X154243842Y-33124426D01*
X154305015Y-33125679D01*
X154351382Y-33159366D01*
X154399578Y-33222922D01*
X154520158Y-33314361D01*
X154520159Y-33314361D01*
X154520160Y-33314362D01*
X154527760Y-33317359D01*
X154660936Y-33369877D01*
X154749398Y-33380500D01*
X154749400Y-33380500D01*
X156335600Y-33380500D01*
X156335602Y-33380500D01*
X156424064Y-33369877D01*
X156564842Y-33314361D01*
X156685422Y-33222922D01*
X156733931Y-33158954D01*
X156784157Y-33124012D01*
X156845330Y-33125266D01*
X156891698Y-33158955D01*
X156939932Y-33222561D01*
X156939935Y-33222564D01*
X157060404Y-33313919D01*
X157201056Y-33369386D01*
X157289435Y-33379999D01*
X157289442Y-33380000D01*
X157882499Y-33380000D01*
X157882500Y-33379999D01*
X157882500Y-32541879D01*
X157889507Y-32545925D01*
X158016674Y-32580000D01*
X158148326Y-32580000D01*
X158275493Y-32545925D01*
X158282500Y-32541879D01*
X158282500Y-33379999D01*
X158282501Y-33380000D01*
X158875558Y-33380000D01*
X158875564Y-33379999D01*
X158963943Y-33369386D01*
X159104595Y-33313919D01*
X159225064Y-33222564D01*
X159316419Y-33102095D01*
X159371886Y-32961443D01*
X159382499Y-32873064D01*
X159382500Y-32873058D01*
X159382500Y-32280001D01*
X159382499Y-32280000D01*
X158544380Y-32280000D01*
X158548425Y-32272993D01*
X158582500Y-32145826D01*
X158582500Y-32014174D01*
X158548425Y-31887007D01*
X158544380Y-31880000D01*
X159382499Y-31880000D01*
X159382500Y-31879999D01*
X159382500Y-31286941D01*
X159382499Y-31286935D01*
X159371886Y-31198556D01*
X159316419Y-31057902D01*
X159302327Y-31039319D01*
X159282232Y-30981527D01*
X159299944Y-30922962D01*
X159348697Y-30885992D01*
X159381211Y-30880500D01*
X159846497Y-30880500D01*
X159904688Y-30899407D01*
G37*
%TD.AperFunction*%
%TA.AperFunction,Conductor*%
G36*
X111536575Y-35422993D02*
G01*
X111602401Y-35537007D01*
X111695493Y-35630099D01*
X111809507Y-35695925D01*
X111817322Y-35698019D01*
X111235437Y-36279903D01*
X111350015Y-36360133D01*
X111556176Y-36456266D01*
X111775902Y-36515142D01*
X112002497Y-36534966D01*
X112002503Y-36534966D01*
X112229097Y-36515142D01*
X112448823Y-36456266D01*
X112654983Y-36360133D01*
X112654986Y-36360131D01*
X112769560Y-36279904D01*
X112187675Y-35698019D01*
X112195493Y-35695925D01*
X112309507Y-35630099D01*
X112402599Y-35537007D01*
X112468425Y-35422993D01*
X112470519Y-35415175D01*
X113052404Y-35997060D01*
X113132631Y-35882486D01*
X113132633Y-35882483D01*
X113182499Y-35775545D01*
X113224227Y-35730797D01*
X113284288Y-35719122D01*
X113339741Y-35744979D01*
X113361948Y-35775545D01*
X113411926Y-35882724D01*
X113411934Y-35882737D01*
X113542446Y-36069130D01*
X113542447Y-36069132D01*
X113542450Y-36069135D01*
X113542453Y-36069139D01*
X113703361Y-36230047D01*
X113703364Y-36230049D01*
X113703367Y-36230052D01*
X113703369Y-36230053D01*
X113788758Y-36289842D01*
X113889766Y-36360568D01*
X113889772Y-36360571D01*
X113889776Y-36360573D01*
X114096000Y-36456737D01*
X114096004Y-36456739D01*
X114315808Y-36515635D01*
X114315812Y-36515635D01*
X114315815Y-36515636D01*
X114542497Y-36535468D01*
X114542500Y-36535468D01*
X114542502Y-36535468D01*
X114657067Y-36525444D01*
X114734089Y-36518706D01*
X114793707Y-36532469D01*
X114812722Y-36547325D01*
X116205886Y-37940489D01*
X116264854Y-37974534D01*
X116308614Y-37999799D01*
X116423191Y-38030500D01*
X129728000Y-38030500D01*
X129786191Y-38049407D01*
X129822155Y-38098907D01*
X129827000Y-38129500D01*
X129827000Y-38630004D01*
X129828302Y-38658183D01*
X129829225Y-38663839D01*
X129826541Y-38664276D01*
X129824682Y-38714550D01*
X129786914Y-38762688D01*
X129731722Y-38779500D01*
X110587000Y-38779500D01*
X110528809Y-38760593D01*
X110492845Y-38711093D01*
X110488000Y-38680500D01*
X110488000Y-38479995D01*
X110486697Y-38451816D01*
X110486697Y-38451812D01*
X110461100Y-38361849D01*
X110463360Y-38300706D01*
X110464214Y-38298971D01*
X110464057Y-38298910D01*
X110467371Y-38290356D01*
X110488000Y-38180000D01*
X110488000Y-37608106D01*
X110475625Y-37522044D01*
X110475624Y-37522040D01*
X110448094Y-37428281D01*
X110435118Y-37384087D01*
X110398996Y-37304991D01*
X110398990Y-37304981D01*
X110321269Y-37184044D01*
X110321260Y-37184032D01*
X110264330Y-37118331D01*
X110264313Y-37118313D01*
X110155663Y-37024168D01*
X110155650Y-37024159D01*
X110082519Y-36977161D01*
X110082513Y-36977158D01*
X110082510Y-36977156D01*
X109951725Y-36917428D01*
X109951723Y-36917427D01*
X109951720Y-36917426D01*
X109948413Y-36916193D01*
X109948991Y-36914640D01*
X109903578Y-36883561D01*
X109883039Y-36825926D01*
X109883000Y-36823138D01*
X109883000Y-36531930D01*
X109901907Y-36473739D01*
X109940157Y-36442208D01*
X110115234Y-36360568D01*
X110301639Y-36230047D01*
X110462547Y-36069139D01*
X110593068Y-35882734D01*
X110643052Y-35775542D01*
X110684778Y-35730797D01*
X110744839Y-35719122D01*
X110800292Y-35744979D01*
X110822499Y-35775545D01*
X110872361Y-35882474D01*
X110872366Y-35882484D01*
X110952594Y-35997060D01*
X111534479Y-35415174D01*
X111536575Y-35422993D01*
G37*
%TD.AperFunction*%
%TA.AperFunction,Conductor*%
G36*
X119188021Y-30899407D02*
G01*
X119223985Y-30948907D01*
X119223985Y-31010093D01*
X119208714Y-31039319D01*
X119194808Y-31057656D01*
X119194805Y-31057660D01*
X119139291Y-31198434D01*
X119128668Y-31286893D01*
X119128668Y-32873106D01*
X119139291Y-32961565D01*
X119194805Y-33102339D01*
X119194806Y-33102341D01*
X119194807Y-33102342D01*
X119286246Y-33222922D01*
X119406826Y-33314361D01*
X119406827Y-33314361D01*
X119406828Y-33314362D01*
X119414428Y-33317359D01*
X119547604Y-33369877D01*
X119636066Y-33380500D01*
X120792557Y-33380500D01*
X120850748Y-33399407D01*
X120886712Y-33448907D01*
X120886712Y-33510093D01*
X120862560Y-33549504D01*
X120349755Y-34062307D01*
X120295239Y-34090084D01*
X120237913Y-34082028D01*
X120099986Y-34017712D01*
X120068996Y-34003261D01*
X119849192Y-33944365D01*
X119849191Y-33944364D01*
X119849184Y-33944363D01*
X119622503Y-33924532D01*
X119622497Y-33924532D01*
X119395815Y-33944363D01*
X119175999Y-34003262D01*
X118969776Y-34099426D01*
X118969762Y-34099434D01*
X118783369Y-34229946D01*
X118783367Y-34229947D01*
X118622447Y-34390867D01*
X118622446Y-34390869D01*
X118491934Y-34577262D01*
X118491928Y-34577271D01*
X118442224Y-34683863D01*
X118400496Y-34728611D01*
X118340435Y-34740285D01*
X118284982Y-34714427D01*
X118262776Y-34683863D01*
X118213071Y-34577271D01*
X118213065Y-34577262D01*
X118082553Y-34390869D01*
X118082552Y-34390867D01*
X118082548Y-34390863D01*
X118082547Y-34390861D01*
X117921639Y-34229953D01*
X117921635Y-34229950D01*
X117921632Y-34229947D01*
X117921630Y-34229946D01*
X117735237Y-34099434D01*
X117735236Y-34099433D01*
X117735234Y-34099432D01*
X117735228Y-34099429D01*
X117735223Y-34099426D01*
X117528999Y-34003262D01*
X117529000Y-34003262D01*
X117510978Y-33998433D01*
X117309192Y-33944365D01*
X117279256Y-33941745D01*
X117207856Y-33935498D01*
X117151535Y-33911590D01*
X117146482Y-33906879D01*
X116788607Y-33549004D01*
X116760830Y-33494487D01*
X116770401Y-33434055D01*
X116813666Y-33390790D01*
X116858611Y-33380000D01*
X117165834Y-33380000D01*
X117165835Y-33379999D01*
X117165835Y-32541879D01*
X117172842Y-32545925D01*
X117300009Y-32580000D01*
X117431661Y-32580000D01*
X117558828Y-32545925D01*
X117565835Y-32541879D01*
X117565835Y-33379999D01*
X117565836Y-33380000D01*
X118158893Y-33380000D01*
X118158899Y-33379999D01*
X118247278Y-33369386D01*
X118387930Y-33313919D01*
X118508399Y-33222564D01*
X118599754Y-33102095D01*
X118655221Y-32961443D01*
X118665834Y-32873064D01*
X118665835Y-32873058D01*
X118665835Y-32280001D01*
X118665834Y-32280000D01*
X117827715Y-32280000D01*
X117831760Y-32272993D01*
X117865835Y-32145826D01*
X117865835Y-32014174D01*
X117831760Y-31887007D01*
X117827715Y-31880000D01*
X118665834Y-31880000D01*
X118665835Y-31879999D01*
X118665835Y-31286941D01*
X118665834Y-31286935D01*
X118655221Y-31198556D01*
X118599754Y-31057902D01*
X118585662Y-31039319D01*
X118565567Y-30981527D01*
X118583279Y-30922962D01*
X118632032Y-30885992D01*
X118664546Y-30880500D01*
X119129830Y-30880500D01*
X119188021Y-30899407D01*
G37*
%TD.AperFunction*%
%TA.AperFunction,Conductor*%
G36*
X125709168Y-33379999D02*
G01*
X125709169Y-33380000D01*
X126056388Y-33380000D01*
X126114579Y-33398907D01*
X126150543Y-33448407D01*
X126150543Y-33509593D01*
X126126392Y-33549004D01*
X125543799Y-34131596D01*
X125489282Y-34159373D01*
X125428850Y-34149802D01*
X125417012Y-34142689D01*
X125410357Y-34138029D01*
X125355234Y-34099432D01*
X125355231Y-34099431D01*
X125355229Y-34099429D01*
X125355223Y-34099426D01*
X125148999Y-34003262D01*
X125149000Y-34003262D01*
X125007812Y-33965431D01*
X124929192Y-33944365D01*
X124929191Y-33944364D01*
X124929184Y-33944363D01*
X124702503Y-33924532D01*
X124702497Y-33924532D01*
X124475815Y-33944363D01*
X124255999Y-34003262D01*
X124049776Y-34099426D01*
X124049762Y-34099434D01*
X123863369Y-34229946D01*
X123863367Y-34229947D01*
X123702447Y-34390867D01*
X123702446Y-34390869D01*
X123571934Y-34577262D01*
X123571928Y-34577271D01*
X123522224Y-34683863D01*
X123480496Y-34728611D01*
X123420435Y-34740285D01*
X123364982Y-34714427D01*
X123342776Y-34683863D01*
X123293071Y-34577271D01*
X123293065Y-34577262D01*
X123162553Y-34390869D01*
X123162552Y-34390867D01*
X123162548Y-34390863D01*
X123162547Y-34390861D01*
X123001639Y-34229953D01*
X123001635Y-34229950D01*
X123001632Y-34229947D01*
X123001630Y-34229946D01*
X122815237Y-34099434D01*
X122815236Y-34099433D01*
X122815234Y-34099432D01*
X122815228Y-34099429D01*
X122815223Y-34099426D01*
X122608999Y-34003262D01*
X122609000Y-34003262D01*
X122467812Y-33965431D01*
X122389192Y-33944365D01*
X122389191Y-33944364D01*
X122389184Y-33944363D01*
X122162503Y-33924532D01*
X122162497Y-33924532D01*
X121994281Y-33939248D01*
X121934664Y-33925484D01*
X121894523Y-33879307D01*
X121889190Y-33818354D01*
X121915650Y-33770621D01*
X122276777Y-33409496D01*
X122331293Y-33381719D01*
X122346780Y-33380500D01*
X123762268Y-33380500D01*
X123762270Y-33380500D01*
X123850732Y-33369877D01*
X123991510Y-33314361D01*
X124112090Y-33222922D01*
X124160599Y-33158954D01*
X124210825Y-33124012D01*
X124271998Y-33125266D01*
X124318366Y-33158955D01*
X124366600Y-33222561D01*
X124366603Y-33222564D01*
X124487072Y-33313919D01*
X124627724Y-33369386D01*
X124716103Y-33379999D01*
X124716110Y-33380000D01*
X125309167Y-33380000D01*
X125309168Y-33379999D01*
X125309168Y-32541879D01*
X125316175Y-32545925D01*
X125443342Y-32580000D01*
X125574994Y-32580000D01*
X125702161Y-32545925D01*
X125709168Y-32541879D01*
X125709168Y-33379999D01*
G37*
%TD.AperFunction*%
%TA.AperFunction,Conductor*%
G36*
X143618020Y-30899407D02*
G01*
X143653984Y-30948907D01*
X143653984Y-31010093D01*
X143638713Y-31039319D01*
X143624807Y-31057656D01*
X143624804Y-31057660D01*
X143569290Y-31198434D01*
X143558667Y-31286893D01*
X143558667Y-32873106D01*
X143569290Y-32961565D01*
X143624804Y-33102339D01*
X143624805Y-33102341D01*
X143624806Y-33102342D01*
X143716245Y-33222922D01*
X143836825Y-33314361D01*
X143836826Y-33314361D01*
X143836827Y-33314362D01*
X143844427Y-33317359D01*
X143977603Y-33369877D01*
X144066065Y-33380500D01*
X145222556Y-33380500D01*
X145280747Y-33399407D01*
X145316711Y-33448907D01*
X145316711Y-33510093D01*
X145292560Y-33549504D01*
X145241560Y-33600504D01*
X145187043Y-33628281D01*
X145171556Y-33629500D01*
X138582445Y-33629500D01*
X138524254Y-33610593D01*
X138488290Y-33561093D01*
X138488290Y-33499907D01*
X138512441Y-33460496D01*
X138563441Y-33409496D01*
X138617958Y-33381719D01*
X138633445Y-33380500D01*
X140048934Y-33380500D01*
X140048936Y-33380500D01*
X140137398Y-33369877D01*
X140278176Y-33314361D01*
X140398756Y-33222922D01*
X140447265Y-33158954D01*
X140497491Y-33124012D01*
X140558664Y-33125266D01*
X140605032Y-33158955D01*
X140653266Y-33222561D01*
X140653269Y-33222564D01*
X140773738Y-33313919D01*
X140914390Y-33369386D01*
X141002769Y-33379999D01*
X141002776Y-33380000D01*
X141595833Y-33380000D01*
X141595834Y-33379999D01*
X141595834Y-32541879D01*
X141602841Y-32545925D01*
X141730008Y-32580000D01*
X141861660Y-32580000D01*
X141988827Y-32545925D01*
X141995834Y-32541879D01*
X141995834Y-33379999D01*
X141995835Y-33380000D01*
X142588892Y-33380000D01*
X142588898Y-33379999D01*
X142677277Y-33369386D01*
X142817929Y-33313919D01*
X142938398Y-33222564D01*
X143029753Y-33102095D01*
X143085220Y-32961443D01*
X143095833Y-32873064D01*
X143095834Y-32873058D01*
X143095834Y-32280001D01*
X143095833Y-32280000D01*
X142257714Y-32280000D01*
X142261759Y-32272993D01*
X142295834Y-32145826D01*
X142295834Y-32014174D01*
X142261759Y-31887007D01*
X142257714Y-31880000D01*
X143095833Y-31880000D01*
X143095834Y-31879999D01*
X143095834Y-31286941D01*
X143095833Y-31286935D01*
X143085220Y-31198556D01*
X143029753Y-31057902D01*
X143015661Y-31039319D01*
X142995566Y-30981527D01*
X143013278Y-30922962D01*
X143062031Y-30885992D01*
X143094545Y-30880500D01*
X143559829Y-30880500D01*
X143618020Y-30899407D01*
G37*
%TD.AperFunction*%
%TA.AperFunction,Conductor*%
G36*
X127331354Y-30899407D02*
G01*
X127367318Y-30948907D01*
X127367318Y-31010093D01*
X127352047Y-31039319D01*
X127338141Y-31057656D01*
X127338138Y-31057660D01*
X127282624Y-31198434D01*
X127272001Y-31286893D01*
X127272001Y-32873106D01*
X127277476Y-32918696D01*
X127265641Y-32978726D01*
X127220782Y-33020335D01*
X127179182Y-33029500D01*
X126901982Y-33029500D01*
X126843791Y-33010593D01*
X126807827Y-32961093D01*
X126803688Y-32918696D01*
X126809167Y-32873065D01*
X126809168Y-32873058D01*
X126809168Y-32280001D01*
X126809167Y-32280000D01*
X125971048Y-32280000D01*
X125975093Y-32272993D01*
X126009168Y-32145826D01*
X126009168Y-32014174D01*
X125975093Y-31887007D01*
X125971048Y-31880000D01*
X126809167Y-31880000D01*
X126809168Y-31879999D01*
X126809168Y-31286941D01*
X126809167Y-31286935D01*
X126798554Y-31198556D01*
X126743087Y-31057902D01*
X126728995Y-31039319D01*
X126708900Y-30981527D01*
X126726612Y-30922962D01*
X126775365Y-30885992D01*
X126807879Y-30880500D01*
X127273163Y-30880500D01*
X127331354Y-30899407D01*
G37*
%TD.AperFunction*%
%TA.AperFunction,Conductor*%
G36*
X135474687Y-30899407D02*
G01*
X135510651Y-30948907D01*
X135510651Y-31010093D01*
X135495380Y-31039319D01*
X135481474Y-31057656D01*
X135481471Y-31057660D01*
X135425957Y-31198434D01*
X135415334Y-31286893D01*
X135415334Y-32873106D01*
X135420809Y-32918696D01*
X135408974Y-32978726D01*
X135364115Y-33020335D01*
X135322515Y-33029500D01*
X135045315Y-33029500D01*
X134987124Y-33010593D01*
X134951160Y-32961093D01*
X134947021Y-32918696D01*
X134952500Y-32873065D01*
X134952501Y-32873058D01*
X134952501Y-32280001D01*
X134952500Y-32280000D01*
X134114381Y-32280000D01*
X134118426Y-32272993D01*
X134152501Y-32145826D01*
X134152501Y-32014174D01*
X134118426Y-31887007D01*
X134114381Y-31880000D01*
X134952500Y-31880000D01*
X134952501Y-31879999D01*
X134952501Y-31286941D01*
X134952500Y-31286935D01*
X134941887Y-31198556D01*
X134886420Y-31057902D01*
X134872328Y-31039319D01*
X134852233Y-30981527D01*
X134869945Y-30922962D01*
X134918698Y-30885992D01*
X134951212Y-30880500D01*
X135416496Y-30880500D01*
X135474687Y-30899407D01*
G37*
%TD.AperFunction*%
%TA.AperFunction,Conductor*%
G36*
X151761353Y-30899407D02*
G01*
X151797317Y-30948907D01*
X151797317Y-31010093D01*
X151782046Y-31039319D01*
X151768140Y-31057656D01*
X151768137Y-31057660D01*
X151712623Y-31198434D01*
X151702000Y-31286893D01*
X151702000Y-32873111D01*
X151706765Y-32912791D01*
X151694930Y-32972821D01*
X151650070Y-33014429D01*
X151589321Y-33021723D01*
X151584779Y-33020716D01*
X151417558Y-32979500D01*
X151417556Y-32979500D01*
X151337899Y-32979500D01*
X151279708Y-32960593D01*
X151243744Y-32911093D01*
X151239259Y-32876019D01*
X151239167Y-32876019D01*
X151239167Y-32875301D01*
X151239076Y-32874590D01*
X151239167Y-32873068D01*
X151239167Y-32280001D01*
X151239166Y-32280000D01*
X150401047Y-32280000D01*
X150405092Y-32272993D01*
X150439167Y-32145826D01*
X150439167Y-32014174D01*
X150405092Y-31887007D01*
X150401047Y-31880000D01*
X151239166Y-31880000D01*
X151239167Y-31879999D01*
X151239167Y-31286941D01*
X151239166Y-31286935D01*
X151228553Y-31198556D01*
X151173086Y-31057902D01*
X151158994Y-31039319D01*
X151138899Y-30981527D01*
X151156611Y-30922962D01*
X151205364Y-30885992D01*
X151237878Y-30880500D01*
X151703162Y-30880500D01*
X151761353Y-30899407D01*
G37*
%TD.AperFunction*%
%TD*%
%TA.AperFunction,Conductor*%
%TO.N,Board_1-/OUT_B1*%
G36*
X182577664Y-63730305D02*
G01*
X182580143Y-63730500D01*
X182580148Y-63730500D01*
X182984857Y-63730500D01*
X182987336Y-63730305D01*
X182995099Y-63730000D01*
X184739220Y-63730000D01*
X184776129Y-63739098D01*
X184776673Y-63737666D01*
X184782273Y-63739789D01*
X184782275Y-63739790D01*
X184947444Y-63780500D01*
X184947447Y-63780500D01*
X185117553Y-63780500D01*
X185117556Y-63780500D01*
X185282725Y-63739790D01*
X185282729Y-63739787D01*
X185288327Y-63737666D01*
X185288870Y-63739098D01*
X185325780Y-63730000D01*
X189539220Y-63730000D01*
X189576129Y-63739098D01*
X189576673Y-63737666D01*
X189582273Y-63739789D01*
X189582275Y-63739790D01*
X189747444Y-63780500D01*
X189747447Y-63780500D01*
X189917553Y-63780500D01*
X189917556Y-63780500D01*
X190082725Y-63739790D01*
X190082729Y-63739787D01*
X190088327Y-63737666D01*
X190088870Y-63739098D01*
X190125780Y-63730000D01*
X190163000Y-63730000D01*
X190221191Y-63748907D01*
X190257155Y-63798407D01*
X190262000Y-63829000D01*
X190262000Y-67481000D01*
X190243093Y-67539191D01*
X190193593Y-67575155D01*
X190163000Y-67580000D01*
X189927662Y-67580000D01*
X189919389Y-67579500D01*
X189917556Y-67579500D01*
X189747444Y-67579500D01*
X189745611Y-67579500D01*
X189737338Y-67580000D01*
X187577662Y-67580000D01*
X187569389Y-67579500D01*
X187567556Y-67579500D01*
X187397444Y-67579500D01*
X187395611Y-67579500D01*
X187387338Y-67580000D01*
X185127662Y-67580000D01*
X185119389Y-67579500D01*
X185117556Y-67579500D01*
X184947444Y-67579500D01*
X184945611Y-67579500D01*
X184937338Y-67580000D01*
X184531500Y-67580000D01*
X184473309Y-67561093D01*
X184437345Y-67511593D01*
X184432500Y-67481000D01*
X184432500Y-66280001D01*
X184432500Y-66280000D01*
X184432499Y-66280000D01*
X183321136Y-66280000D01*
X183290544Y-66275155D01*
X183187031Y-66241522D01*
X182984855Y-66209500D01*
X182984852Y-66209500D01*
X182580148Y-66209500D01*
X182580145Y-66209500D01*
X182377968Y-66241522D01*
X182274456Y-66275155D01*
X182243864Y-66280000D01*
X181331500Y-66280000D01*
X181273309Y-66261093D01*
X181237345Y-66211593D01*
X181232500Y-66181000D01*
X181232500Y-63829000D01*
X181251407Y-63770809D01*
X181300907Y-63734845D01*
X181331500Y-63730000D01*
X182569901Y-63730000D01*
X182577664Y-63730305D01*
G37*
%TD.AperFunction*%
%TD*%
%TA.AperFunction,Conductor*%
%TO.N,Board_1-/OUT_A1*%
G36*
X182968506Y-71596219D02*
G01*
X183123786Y-71620813D01*
X183131409Y-71622329D01*
X183131513Y-71622354D01*
X183150425Y-71626894D01*
X183181017Y-71631739D01*
X183228805Y-71635500D01*
X184752850Y-71635500D01*
X184776542Y-71638377D01*
X184782275Y-71639790D01*
X184947444Y-71680500D01*
X184947447Y-71680500D01*
X185117553Y-71680500D01*
X185117556Y-71680500D01*
X185282725Y-71639790D01*
X185282724Y-71639790D01*
X185288458Y-71638377D01*
X185312150Y-71635500D01*
X187203081Y-71635500D01*
X187203083Y-71635500D01*
X187242958Y-71632887D01*
X187242963Y-71632886D01*
X187242968Y-71632886D01*
X187268566Y-71629516D01*
X187268579Y-71629514D01*
X187304573Y-71622353D01*
X187315244Y-71620830D01*
X187473881Y-71606952D01*
X187491119Y-71606952D01*
X187649742Y-71620829D01*
X187660425Y-71622354D01*
X187663522Y-71622970D01*
X187696421Y-71629514D01*
X187722034Y-71632886D01*
X187722039Y-71632886D01*
X187722042Y-71632887D01*
X187761917Y-71635500D01*
X187761919Y-71635500D01*
X190163000Y-71635500D01*
X190221191Y-71654407D01*
X190257155Y-71703907D01*
X190262000Y-71734500D01*
X190262000Y-76030206D01*
X190243093Y-76088397D01*
X190193593Y-76124361D01*
X190132407Y-76124361D01*
X190082907Y-76088397D01*
X190080685Y-76085208D01*
X189982022Y-75937549D01*
X189982012Y-75937536D01*
X189791835Y-75720682D01*
X189791834Y-75720681D01*
X189791827Y-75720673D01*
X189791817Y-75720664D01*
X189574963Y-75530487D01*
X189574950Y-75530477D01*
X189335111Y-75370222D01*
X189076411Y-75242645D01*
X189076400Y-75242640D01*
X188803259Y-75149920D01*
X188520336Y-75093643D01*
X188232500Y-75074778D01*
X187944663Y-75093643D01*
X187661740Y-75149920D01*
X187388599Y-75242640D01*
X187388588Y-75242645D01*
X187129888Y-75370222D01*
X186890049Y-75530477D01*
X186890036Y-75530487D01*
X186673182Y-75720664D01*
X186673164Y-75720682D01*
X186482987Y-75937536D01*
X186482977Y-75937549D01*
X186322722Y-76177388D01*
X186195145Y-76436088D01*
X186195140Y-76436099D01*
X186102420Y-76709240D01*
X186046143Y-76992163D01*
X186027278Y-77279999D01*
X186027278Y-77280000D01*
X186046143Y-77567836D01*
X186102420Y-77850759D01*
X186195140Y-78123900D01*
X186195145Y-78123911D01*
X186322722Y-78382611D01*
X186482977Y-78622450D01*
X186482987Y-78622463D01*
X186631941Y-78792311D01*
X186673173Y-78839327D01*
X186673181Y-78839334D01*
X186673182Y-78839335D01*
X186890036Y-79029512D01*
X186890040Y-79029515D01*
X186890046Y-79029520D01*
X186950483Y-79069903D01*
X186993558Y-79098685D01*
X187031437Y-79146735D01*
X187033839Y-79207873D01*
X186999846Y-79258747D01*
X186942442Y-79279924D01*
X186938556Y-79280000D01*
X184731500Y-79280000D01*
X184673309Y-79261093D01*
X184637345Y-79211593D01*
X184632500Y-79181000D01*
X184632500Y-74480001D01*
X184632500Y-74480000D01*
X184032500Y-73880000D01*
X184032499Y-73880000D01*
X183259582Y-73880000D01*
X183228989Y-73875155D01*
X183187031Y-73861522D01*
X182984855Y-73829500D01*
X182984852Y-73829500D01*
X182580148Y-73829500D01*
X182580145Y-73829500D01*
X182377968Y-73861522D01*
X182336011Y-73875155D01*
X182305418Y-73880000D01*
X181781500Y-73880000D01*
X181723309Y-73861093D01*
X181687345Y-73811593D01*
X181682500Y-73781000D01*
X181682500Y-71734500D01*
X181701407Y-71676309D01*
X181750907Y-71640345D01*
X181781500Y-71635500D01*
X182336188Y-71635500D01*
X182336195Y-71635500D01*
X182383983Y-71631739D01*
X182384002Y-71631736D01*
X182414563Y-71626896D01*
X182414563Y-71626895D01*
X182414575Y-71626894D01*
X182433599Y-71622326D01*
X182441182Y-71620817D01*
X182562260Y-71601641D01*
X182596495Y-71596219D01*
X182611981Y-71595000D01*
X182953019Y-71595000D01*
X182968506Y-71596219D01*
G37*
%TD.AperFunction*%
%TD*%
%TA.AperFunction,Conductor*%
%TO.N,Board_0-/VM*%
G36*
X180933000Y-38998907D02*
G01*
X180964227Y-39036513D01*
X180990191Y-39091162D01*
X180990192Y-39091164D01*
X180990194Y-39091167D01*
X180990195Y-39091168D01*
X180994950Y-39097713D01*
X181026155Y-39140662D01*
X181080323Y-39197919D01*
X181080324Y-39197920D01*
X181178901Y-39251639D01*
X181178903Y-39251640D01*
X181237096Y-39270548D01*
X181237093Y-39270548D01*
X181331497Y-39285500D01*
X181331500Y-39285500D01*
X182243857Y-39285500D01*
X182243864Y-39285500D01*
X182291652Y-39281739D01*
X182322244Y-39276894D01*
X182368860Y-39265703D01*
X182442105Y-39241904D01*
X182457195Y-39238281D01*
X182596494Y-39216219D01*
X182611981Y-39215000D01*
X182953019Y-39215000D01*
X182968506Y-39216219D01*
X183107804Y-39238282D01*
X183122902Y-39241907D01*
X183196126Y-39265699D01*
X183196132Y-39265700D01*
X183196140Y-39265703D01*
X183242756Y-39276894D01*
X183273348Y-39281739D01*
X183321136Y-39285500D01*
X184028000Y-39285500D01*
X184086191Y-39304407D01*
X184122155Y-39353907D01*
X184127000Y-39384500D01*
X184127000Y-40181000D01*
X184130761Y-40228786D01*
X184131281Y-40232072D01*
X184132500Y-40247555D01*
X184132500Y-41075500D01*
X184113593Y-41133691D01*
X184064093Y-41169655D01*
X184033500Y-41174500D01*
X183185209Y-41174500D01*
X183168086Y-41175172D01*
X183161233Y-41175442D01*
X183145746Y-41176661D01*
X183132230Y-41178261D01*
X183121930Y-41179480D01*
X183121924Y-41179481D01*
X182968504Y-41203781D01*
X182953017Y-41205000D01*
X182611983Y-41205000D01*
X182596496Y-41203781D01*
X182506420Y-41189514D01*
X182443070Y-41179480D01*
X182430333Y-41177972D01*
X182419253Y-41176661D01*
X182403766Y-41175442D01*
X182398231Y-41175224D01*
X182379791Y-41174500D01*
X181781500Y-41174500D01*
X181733714Y-41178261D01*
X181717300Y-41180860D01*
X181703119Y-41183106D01*
X181703114Y-41183106D01*
X181672747Y-41189512D01*
X181672742Y-41189514D01*
X181571341Y-41237689D01*
X181571331Y-41237695D01*
X181521842Y-41273651D01*
X181464579Y-41327824D01*
X181410860Y-41426401D01*
X181410859Y-41426403D01*
X181391951Y-41484595D01*
X181377000Y-41578996D01*
X181377000Y-41579000D01*
X181377000Y-43931000D01*
X181380761Y-43978786D01*
X181384483Y-44002289D01*
X181385606Y-44009380D01*
X181385606Y-44009385D01*
X181392012Y-44039752D01*
X181392014Y-44039757D01*
X181440605Y-44142034D01*
X181448498Y-44202708D01*
X181438115Y-44231888D01*
X181410859Y-44281904D01*
X181391951Y-44340095D01*
X181377000Y-44434496D01*
X181377000Y-44434500D01*
X181377000Y-46481000D01*
X181380761Y-46528786D01*
X181384483Y-46552289D01*
X181385606Y-46559380D01*
X181385606Y-46559385D01*
X181392012Y-46589752D01*
X181392014Y-46589757D01*
X181440189Y-46691158D01*
X181440195Y-46691168D01*
X181459481Y-46717713D01*
X181476155Y-46740662D01*
X181530323Y-46797919D01*
X181530324Y-46797920D01*
X181628901Y-46851639D01*
X181628903Y-46851640D01*
X181687096Y-46870548D01*
X181687093Y-46870548D01*
X181781497Y-46885500D01*
X181781500Y-46885500D01*
X182305411Y-46885500D01*
X182305418Y-46885500D01*
X182353204Y-46881739D01*
X182383797Y-46876894D01*
X182430418Y-46865702D01*
X182442101Y-46861904D01*
X182457199Y-46858280D01*
X182585034Y-46838034D01*
X182596494Y-46836219D01*
X182611980Y-46835000D01*
X182953020Y-46835000D01*
X182968506Y-46836218D01*
X183107797Y-46858280D01*
X183122901Y-46861907D01*
X183134578Y-46865701D01*
X183134576Y-46865701D01*
X183134583Y-46865702D01*
X183134584Y-46865703D01*
X183181203Y-46876894D01*
X183199996Y-46879870D01*
X183211776Y-46881736D01*
X183211778Y-46881736D01*
X183211796Y-46881739D01*
X183259582Y-46885500D01*
X183864950Y-46885500D01*
X183923141Y-46904407D01*
X183934954Y-46914496D01*
X184298004Y-47277546D01*
X184325781Y-47332063D01*
X184327000Y-47347550D01*
X184327000Y-47997822D01*
X184326855Y-48000221D01*
X184326855Y-48009789D01*
X184327000Y-48012185D01*
X184327000Y-51172822D01*
X184326855Y-51175221D01*
X184326855Y-51184789D01*
X184327000Y-51187185D01*
X184327000Y-51881000D01*
X184308093Y-51939191D01*
X184258593Y-51975155D01*
X184228000Y-51980000D01*
X164231500Y-51980000D01*
X164173309Y-51961093D01*
X164137345Y-51911593D01*
X164132500Y-51881000D01*
X164132500Y-49279000D01*
X164151407Y-49220809D01*
X164200907Y-49184845D01*
X164231500Y-49180000D01*
X165087051Y-49180000D01*
X165143833Y-49197902D01*
X165204766Y-49240568D01*
X165204769Y-49240569D01*
X165204770Y-49240570D01*
X165204776Y-49240573D01*
X165411000Y-49336737D01*
X165411004Y-49336739D01*
X165630808Y-49395635D01*
X165630812Y-49395635D01*
X165630815Y-49395636D01*
X165857497Y-49415468D01*
X165857500Y-49415468D01*
X165857503Y-49415468D01*
X166084184Y-49395636D01*
X166084185Y-49395635D01*
X166084192Y-49395635D01*
X166303996Y-49336739D01*
X166510234Y-49240568D01*
X166571166Y-49197902D01*
X166627949Y-49180000D01*
X167587338Y-49180000D01*
X167595611Y-49180500D01*
X167597444Y-49180500D01*
X167769389Y-49180500D01*
X167777662Y-49180000D01*
X171137338Y-49180000D01*
X171145611Y-49180500D01*
X171147444Y-49180500D01*
X171319389Y-49180500D01*
X171327662Y-49180000D01*
X177332499Y-49180000D01*
X177332500Y-49180000D01*
X177332500Y-39079000D01*
X177351407Y-39020809D01*
X177400907Y-38984845D01*
X177431500Y-38980000D01*
X180874809Y-38980000D01*
X180933000Y-38998907D01*
G37*
%TD.AperFunction*%
%TD*%
%TA.AperFunction,Conductor*%
%TO.N,Board_1-/OUT_A2*%
G36*
X185112579Y-67885044D02*
G01*
X185127662Y-67885500D01*
X187387338Y-67885500D01*
X187402420Y-67885045D01*
X187405405Y-67885000D01*
X187559595Y-67885000D01*
X187562579Y-67885044D01*
X187577662Y-67885500D01*
X189737338Y-67885500D01*
X189752420Y-67885045D01*
X189755405Y-67885000D01*
X189909595Y-67885000D01*
X189912579Y-67885044D01*
X189927662Y-67885500D01*
X190163000Y-67885500D01*
X190221191Y-67904407D01*
X190257155Y-67953907D01*
X190262000Y-67984500D01*
X190262000Y-71231000D01*
X190243093Y-71289191D01*
X190193593Y-71325155D01*
X190163000Y-71330000D01*
X187761917Y-71330000D01*
X187736296Y-71326627D01*
X187709186Y-71319363D01*
X187709188Y-71319363D01*
X187482503Y-71299532D01*
X187482497Y-71299532D01*
X187255812Y-71319363D01*
X187228704Y-71326627D01*
X187203083Y-71330000D01*
X185182500Y-71330000D01*
X183228805Y-71330000D01*
X183198213Y-71325155D01*
X183187031Y-71321522D01*
X182984855Y-71289500D01*
X182984852Y-71289500D01*
X182580148Y-71289500D01*
X182580145Y-71289500D01*
X182377968Y-71321522D01*
X182366787Y-71325155D01*
X182336195Y-71330000D01*
X181781500Y-71330000D01*
X181723309Y-71311093D01*
X181687345Y-71261593D01*
X181682500Y-71231000D01*
X181682500Y-68879000D01*
X181701407Y-68820809D01*
X181750907Y-68784845D01*
X181781500Y-68780000D01*
X182379791Y-68780000D01*
X182395278Y-68781219D01*
X182580145Y-68810500D01*
X182580148Y-68810500D01*
X182984855Y-68810500D01*
X183169722Y-68781219D01*
X183185209Y-68780000D01*
X184457499Y-68780000D01*
X184457500Y-68780000D01*
X184457500Y-67984500D01*
X184476407Y-67926309D01*
X184525907Y-67890345D01*
X184556500Y-67885500D01*
X184937338Y-67885500D01*
X184952420Y-67885045D01*
X184955405Y-67885000D01*
X185109595Y-67885000D01*
X185112579Y-67885044D01*
G37*
%TD.AperFunction*%
%TD*%
%TA.AperFunction,Conductor*%
%TO.N,Board_0-/OUT_B1*%
G36*
X182577664Y-36430305D02*
G01*
X182580143Y-36430500D01*
X182580148Y-36430500D01*
X182984857Y-36430500D01*
X182987336Y-36430305D01*
X182995099Y-36430000D01*
X184739220Y-36430000D01*
X184776129Y-36439098D01*
X184776673Y-36437666D01*
X184782273Y-36439789D01*
X184782275Y-36439790D01*
X184947444Y-36480500D01*
X184947447Y-36480500D01*
X185117553Y-36480500D01*
X185117556Y-36480500D01*
X185282725Y-36439790D01*
X185282729Y-36439787D01*
X185288327Y-36437666D01*
X185288870Y-36439098D01*
X185325780Y-36430000D01*
X189539220Y-36430000D01*
X189576129Y-36439098D01*
X189576673Y-36437666D01*
X189582273Y-36439789D01*
X189582275Y-36439790D01*
X189747444Y-36480500D01*
X189747447Y-36480500D01*
X189917553Y-36480500D01*
X189917556Y-36480500D01*
X190082725Y-36439790D01*
X190082729Y-36439787D01*
X190088327Y-36437666D01*
X190088870Y-36439098D01*
X190125780Y-36430000D01*
X190163000Y-36430000D01*
X190221191Y-36448907D01*
X190257155Y-36498407D01*
X190262000Y-36529000D01*
X190262000Y-40181000D01*
X190243093Y-40239191D01*
X190193593Y-40275155D01*
X190163000Y-40280000D01*
X189927662Y-40280000D01*
X189919389Y-40279500D01*
X189917556Y-40279500D01*
X189747444Y-40279500D01*
X189745611Y-40279500D01*
X189737338Y-40280000D01*
X187577662Y-40280000D01*
X187569389Y-40279500D01*
X187567556Y-40279500D01*
X187397444Y-40279500D01*
X187395611Y-40279500D01*
X187387338Y-40280000D01*
X185127662Y-40280000D01*
X185119389Y-40279500D01*
X185117556Y-40279500D01*
X184947444Y-40279500D01*
X184945611Y-40279500D01*
X184937338Y-40280000D01*
X184531500Y-40280000D01*
X184473309Y-40261093D01*
X184437345Y-40211593D01*
X184432500Y-40181000D01*
X184432500Y-38980001D01*
X184432500Y-38980000D01*
X184432499Y-38980000D01*
X183321136Y-38980000D01*
X183290544Y-38975155D01*
X183187031Y-38941522D01*
X182984855Y-38909500D01*
X182984852Y-38909500D01*
X182580148Y-38909500D01*
X182580145Y-38909500D01*
X182377968Y-38941522D01*
X182274456Y-38975155D01*
X182243864Y-38980000D01*
X181331500Y-38980000D01*
X181273309Y-38961093D01*
X181237345Y-38911593D01*
X181232500Y-38881000D01*
X181232500Y-36529000D01*
X181251407Y-36470809D01*
X181300907Y-36434845D01*
X181331500Y-36430000D01*
X182569901Y-36430000D01*
X182577664Y-36430305D01*
G37*
%TD.AperFunction*%
%TD*%
%TA.AperFunction,Conductor*%
%TO.N,Board_0-/OUT_A1*%
G36*
X182968506Y-44296219D02*
G01*
X183123786Y-44320813D01*
X183131409Y-44322329D01*
X183131513Y-44322354D01*
X183150425Y-44326894D01*
X183181017Y-44331739D01*
X183228805Y-44335500D01*
X184752850Y-44335500D01*
X184776542Y-44338377D01*
X184782275Y-44339790D01*
X184947444Y-44380500D01*
X184947447Y-44380500D01*
X185117553Y-44380500D01*
X185117556Y-44380500D01*
X185282725Y-44339790D01*
X185282724Y-44339790D01*
X185288458Y-44338377D01*
X185312150Y-44335500D01*
X187203081Y-44335500D01*
X187203083Y-44335500D01*
X187242958Y-44332887D01*
X187242963Y-44332886D01*
X187242968Y-44332886D01*
X187268566Y-44329516D01*
X187268579Y-44329514D01*
X187304573Y-44322353D01*
X187315244Y-44320830D01*
X187473881Y-44306952D01*
X187491119Y-44306952D01*
X187649742Y-44320829D01*
X187660425Y-44322354D01*
X187663522Y-44322970D01*
X187696421Y-44329514D01*
X187722034Y-44332886D01*
X187722039Y-44332886D01*
X187722042Y-44332887D01*
X187761917Y-44335500D01*
X187761919Y-44335500D01*
X190163000Y-44335500D01*
X190221191Y-44354407D01*
X190257155Y-44403907D01*
X190262000Y-44434500D01*
X190262000Y-48730206D01*
X190243093Y-48788397D01*
X190193593Y-48824361D01*
X190132407Y-48824361D01*
X190082907Y-48788397D01*
X190080685Y-48785208D01*
X189982022Y-48637549D01*
X189982012Y-48637536D01*
X189791835Y-48420682D01*
X189791834Y-48420681D01*
X189791827Y-48420673D01*
X189791817Y-48420664D01*
X189574963Y-48230487D01*
X189574950Y-48230477D01*
X189335111Y-48070222D01*
X189076411Y-47942645D01*
X189076400Y-47942640D01*
X188803259Y-47849920D01*
X188520336Y-47793643D01*
X188232500Y-47774778D01*
X187944663Y-47793643D01*
X187661740Y-47849920D01*
X187388599Y-47942640D01*
X187388588Y-47942645D01*
X187129888Y-48070222D01*
X186890049Y-48230477D01*
X186890036Y-48230487D01*
X186673182Y-48420664D01*
X186673164Y-48420682D01*
X186482987Y-48637536D01*
X186482977Y-48637549D01*
X186322722Y-48877388D01*
X186195145Y-49136088D01*
X186195140Y-49136099D01*
X186102420Y-49409240D01*
X186046143Y-49692163D01*
X186027278Y-49979999D01*
X186027278Y-49980000D01*
X186046143Y-50267836D01*
X186102420Y-50550759D01*
X186195140Y-50823900D01*
X186195145Y-50823911D01*
X186322722Y-51082611D01*
X186482977Y-51322450D01*
X186482987Y-51322463D01*
X186631941Y-51492311D01*
X186673173Y-51539327D01*
X186673181Y-51539334D01*
X186673182Y-51539335D01*
X186890036Y-51729512D01*
X186890040Y-51729515D01*
X186890046Y-51729520D01*
X186950483Y-51769903D01*
X186993558Y-51798685D01*
X187031437Y-51846735D01*
X187033839Y-51907873D01*
X186999846Y-51958747D01*
X186942442Y-51979924D01*
X186938556Y-51980000D01*
X184731500Y-51980000D01*
X184673309Y-51961093D01*
X184637345Y-51911593D01*
X184632500Y-51881000D01*
X184632500Y-47180001D01*
X184632500Y-47180000D01*
X184032500Y-46580000D01*
X184032499Y-46580000D01*
X183259582Y-46580000D01*
X183228989Y-46575155D01*
X183187031Y-46561522D01*
X182984855Y-46529500D01*
X182984852Y-46529500D01*
X182580148Y-46529500D01*
X182580145Y-46529500D01*
X182377968Y-46561522D01*
X182336011Y-46575155D01*
X182305418Y-46580000D01*
X181781500Y-46580000D01*
X181723309Y-46561093D01*
X181687345Y-46511593D01*
X181682500Y-46481000D01*
X181682500Y-44434500D01*
X181701407Y-44376309D01*
X181750907Y-44340345D01*
X181781500Y-44335500D01*
X182336188Y-44335500D01*
X182336195Y-44335500D01*
X182383983Y-44331739D01*
X182384002Y-44331736D01*
X182414563Y-44326896D01*
X182414563Y-44326895D01*
X182414575Y-44326894D01*
X182433599Y-44322326D01*
X182441182Y-44320817D01*
X182562260Y-44301641D01*
X182596495Y-44296219D01*
X182611981Y-44295000D01*
X182953019Y-44295000D01*
X182968506Y-44296219D01*
G37*
%TD.AperFunction*%
%TD*%
%TA.AperFunction,Conductor*%
%TO.N,Board_1-/OUT_B2*%
G36*
X186966067Y-56619407D02*
G01*
X187002031Y-56668907D01*
X187002031Y-56730093D01*
X186966067Y-56779593D01*
X186962878Y-56781815D01*
X186890049Y-56830477D01*
X186890036Y-56830487D01*
X186673182Y-57020664D01*
X186673164Y-57020682D01*
X186482987Y-57237536D01*
X186482977Y-57237549D01*
X186322722Y-57477388D01*
X186195145Y-57736088D01*
X186195140Y-57736099D01*
X186102420Y-58009240D01*
X186046143Y-58292163D01*
X186027278Y-58579999D01*
X186027278Y-58580000D01*
X186046143Y-58867836D01*
X186102420Y-59150759D01*
X186195140Y-59423900D01*
X186195145Y-59423911D01*
X186322722Y-59682611D01*
X186482977Y-59922450D01*
X186482987Y-59922463D01*
X186649270Y-60112071D01*
X186673173Y-60139327D01*
X186673181Y-60139334D01*
X186673182Y-60139335D01*
X186890036Y-60329512D01*
X186890043Y-60329517D01*
X186890046Y-60329520D01*
X187129889Y-60489778D01*
X187388598Y-60617359D01*
X187518159Y-60661339D01*
X187661740Y-60710079D01*
X187661742Y-60710079D01*
X187661747Y-60710081D01*
X187944661Y-60766356D01*
X188232500Y-60785222D01*
X188520339Y-60766356D01*
X188803253Y-60710081D01*
X189076402Y-60617359D01*
X189335111Y-60489778D01*
X189574954Y-60329520D01*
X189791827Y-60139327D01*
X189982020Y-59922454D01*
X190080685Y-59774790D01*
X190128734Y-59736912D01*
X190189872Y-59734510D01*
X190240746Y-59768503D01*
X190261924Y-59825906D01*
X190262000Y-59829793D01*
X190262000Y-63325500D01*
X190243093Y-63383691D01*
X190193593Y-63419655D01*
X190163000Y-63424500D01*
X190125780Y-63424500D01*
X190125776Y-63424500D01*
X190125767Y-63424501D01*
X190052670Y-63433376D01*
X190050392Y-63433938D01*
X190049829Y-63433897D01*
X190049727Y-63433916D01*
X190049722Y-63433889D01*
X190047822Y-63433751D01*
X190014998Y-63441840D01*
X189967619Y-63441839D01*
X189947928Y-63436985D01*
X189917558Y-63429500D01*
X189917556Y-63429500D01*
X189747444Y-63429500D01*
X189747441Y-63429500D01*
X189698128Y-63441654D01*
X189664151Y-63442341D01*
X189664028Y-63443776D01*
X189657087Y-63443177D01*
X189641906Y-63440667D01*
X189612347Y-63433381D01*
X189612339Y-63433379D01*
X189612337Y-63433379D01*
X189603197Y-63432269D01*
X189539227Y-63424500D01*
X189539220Y-63424500D01*
X185325780Y-63424500D01*
X185325776Y-63424500D01*
X185325767Y-63424501D01*
X185252670Y-63433376D01*
X185250392Y-63433938D01*
X185249829Y-63433897D01*
X185249727Y-63433916D01*
X185249722Y-63433889D01*
X185247822Y-63433751D01*
X185214998Y-63441840D01*
X185167619Y-63441839D01*
X185147928Y-63436985D01*
X185117558Y-63429500D01*
X185117556Y-63429500D01*
X184947444Y-63429500D01*
X184947441Y-63429500D01*
X184898128Y-63441654D01*
X184864151Y-63442341D01*
X184864028Y-63443776D01*
X184857087Y-63443177D01*
X184841906Y-63440667D01*
X184812347Y-63433381D01*
X184812339Y-63433379D01*
X184812337Y-63433379D01*
X184803197Y-63432269D01*
X184739227Y-63424500D01*
X184739220Y-63424500D01*
X182995099Y-63424500D01*
X182993900Y-63424523D01*
X182983111Y-63424735D01*
X182978320Y-63424924D01*
X182974434Y-63425000D01*
X182590566Y-63425000D01*
X182586680Y-63424924D01*
X182581888Y-63424735D01*
X182571124Y-63424524D01*
X182569901Y-63424500D01*
X181331500Y-63424500D01*
X181273309Y-63405593D01*
X181237345Y-63356093D01*
X181232500Y-63325500D01*
X181232500Y-61279000D01*
X181251407Y-61220809D01*
X181300907Y-61184845D01*
X181331500Y-61180000D01*
X181796035Y-61180000D01*
X181807839Y-61180706D01*
X181889398Y-61190500D01*
X181889400Y-61190500D01*
X183675600Y-61190500D01*
X183675602Y-61190500D01*
X183757161Y-61180706D01*
X183768965Y-61180000D01*
X184632499Y-61180000D01*
X184632500Y-61180000D01*
X184632500Y-56699500D01*
X184651407Y-56641309D01*
X184700907Y-56605345D01*
X184731500Y-56600500D01*
X186907876Y-56600500D01*
X186966067Y-56619407D01*
G37*
%TD.AperFunction*%
%TD*%
%TA.AperFunction,Conductor*%
%TO.N,Board_0-/OUT_B2*%
G36*
X186966067Y-29319407D02*
G01*
X187002031Y-29368907D01*
X187002031Y-29430093D01*
X186966067Y-29479593D01*
X186962878Y-29481815D01*
X186890049Y-29530477D01*
X186890036Y-29530487D01*
X186673182Y-29720664D01*
X186673164Y-29720682D01*
X186482987Y-29937536D01*
X186482977Y-29937549D01*
X186322722Y-30177388D01*
X186195145Y-30436088D01*
X186195140Y-30436099D01*
X186102420Y-30709240D01*
X186046143Y-30992163D01*
X186027278Y-31279999D01*
X186027278Y-31280000D01*
X186046143Y-31567836D01*
X186102420Y-31850759D01*
X186195140Y-32123900D01*
X186195145Y-32123911D01*
X186322722Y-32382611D01*
X186482977Y-32622450D01*
X186482987Y-32622463D01*
X186649270Y-32812071D01*
X186673173Y-32839327D01*
X186673181Y-32839334D01*
X186673182Y-32839335D01*
X186890036Y-33029512D01*
X186890043Y-33029517D01*
X186890046Y-33029520D01*
X187129889Y-33189778D01*
X187388598Y-33317359D01*
X187518159Y-33361339D01*
X187661740Y-33410079D01*
X187661742Y-33410079D01*
X187661747Y-33410081D01*
X187944661Y-33466356D01*
X188232500Y-33485222D01*
X188520339Y-33466356D01*
X188803253Y-33410081D01*
X189076402Y-33317359D01*
X189335111Y-33189778D01*
X189574954Y-33029520D01*
X189791827Y-32839327D01*
X189982020Y-32622454D01*
X190080685Y-32474790D01*
X190128734Y-32436912D01*
X190189872Y-32434510D01*
X190240746Y-32468503D01*
X190261924Y-32525906D01*
X190262000Y-32529793D01*
X190262000Y-36025500D01*
X190243093Y-36083691D01*
X190193593Y-36119655D01*
X190163000Y-36124500D01*
X190125780Y-36124500D01*
X190125776Y-36124500D01*
X190125767Y-36124501D01*
X190052670Y-36133376D01*
X190050392Y-36133938D01*
X190049829Y-36133897D01*
X190049727Y-36133916D01*
X190049722Y-36133889D01*
X190047822Y-36133751D01*
X190014998Y-36141840D01*
X189967619Y-36141839D01*
X189947928Y-36136985D01*
X189917558Y-36129500D01*
X189917556Y-36129500D01*
X189747444Y-36129500D01*
X189747441Y-36129500D01*
X189698128Y-36141654D01*
X189664151Y-36142341D01*
X189664028Y-36143776D01*
X189657087Y-36143177D01*
X189641906Y-36140667D01*
X189612347Y-36133381D01*
X189612339Y-36133379D01*
X189612337Y-36133379D01*
X189603197Y-36132269D01*
X189539227Y-36124500D01*
X189539220Y-36124500D01*
X185325780Y-36124500D01*
X185325776Y-36124500D01*
X185325767Y-36124501D01*
X185252670Y-36133376D01*
X185250392Y-36133938D01*
X185249829Y-36133897D01*
X185249727Y-36133916D01*
X185249722Y-36133889D01*
X185247822Y-36133751D01*
X185214998Y-36141840D01*
X185167619Y-36141839D01*
X185147928Y-36136985D01*
X185117558Y-36129500D01*
X185117556Y-36129500D01*
X184947444Y-36129500D01*
X184947441Y-36129500D01*
X184898128Y-36141654D01*
X184864151Y-36142341D01*
X184864028Y-36143776D01*
X184857087Y-36143177D01*
X184841906Y-36140667D01*
X184812347Y-36133381D01*
X184812339Y-36133379D01*
X184812337Y-36133379D01*
X184803197Y-36132269D01*
X184739227Y-36124500D01*
X184739220Y-36124500D01*
X182995099Y-36124500D01*
X182993900Y-36124523D01*
X182983111Y-36124735D01*
X182978320Y-36124924D01*
X182974434Y-36125000D01*
X182590566Y-36125000D01*
X182586680Y-36124924D01*
X182581888Y-36124735D01*
X182571124Y-36124524D01*
X182569901Y-36124500D01*
X181331500Y-36124500D01*
X181273309Y-36105593D01*
X181237345Y-36056093D01*
X181232500Y-36025500D01*
X181232500Y-33979000D01*
X181251407Y-33920809D01*
X181300907Y-33884845D01*
X181331500Y-33880000D01*
X181796035Y-33880000D01*
X181807839Y-33880706D01*
X181889398Y-33890500D01*
X181889400Y-33890500D01*
X183675600Y-33890500D01*
X183675602Y-33890500D01*
X183757161Y-33880706D01*
X183768965Y-33880000D01*
X184632499Y-33880000D01*
X184632500Y-33880000D01*
X184632500Y-29399500D01*
X184651407Y-29341309D01*
X184700907Y-29305345D01*
X184731500Y-29300500D01*
X186907876Y-29300500D01*
X186966067Y-29319407D01*
G37*
%TD.AperFunction*%
%TD*%
%TA.AperFunction,Conductor*%
%TO.N,Board_1-GND*%
G36*
X110945569Y-59309440D02*
G01*
X110980882Y-59359406D01*
X110985335Y-59388764D01*
X110985335Y-60173106D01*
X110995958Y-60261565D01*
X111051472Y-60402339D01*
X111051473Y-60402341D01*
X111051474Y-60402342D01*
X111142913Y-60522922D01*
X111263493Y-60614361D01*
X111263494Y-60614361D01*
X111263495Y-60614362D01*
X111271095Y-60617359D01*
X111404271Y-60669877D01*
X111492733Y-60680500D01*
X111492735Y-60680500D01*
X113078935Y-60680500D01*
X113078937Y-60680500D01*
X113167399Y-60669877D01*
X113308177Y-60614361D01*
X113428757Y-60522922D01*
X113476952Y-60459367D01*
X113527177Y-60424426D01*
X113588350Y-60425679D01*
X113634717Y-60459366D01*
X113682913Y-60522922D01*
X113803493Y-60614361D01*
X113803494Y-60614361D01*
X113803495Y-60614362D01*
X113811095Y-60617359D01*
X113944271Y-60669877D01*
X114032733Y-60680500D01*
X115304889Y-60680500D01*
X115363080Y-60699407D01*
X115374893Y-60709496D01*
X116149351Y-61483954D01*
X116177128Y-61538471D01*
X116167557Y-61598903D01*
X116149352Y-61623961D01*
X116082451Y-61690863D01*
X115951930Y-61877268D01*
X115951928Y-61877271D01*
X115902224Y-61983863D01*
X115860496Y-62028611D01*
X115800435Y-62040285D01*
X115744982Y-62014427D01*
X115722776Y-61983863D01*
X115673071Y-61877271D01*
X115673065Y-61877262D01*
X115542553Y-61690869D01*
X115542552Y-61690867D01*
X115542548Y-61690863D01*
X115542547Y-61690861D01*
X115381639Y-61529953D01*
X115381635Y-61529950D01*
X115381632Y-61529947D01*
X115381630Y-61529946D01*
X115195237Y-61399434D01*
X115195236Y-61399433D01*
X115195234Y-61399432D01*
X115195228Y-61399429D01*
X115195223Y-61399426D01*
X114988999Y-61303262D01*
X114989000Y-61303262D01*
X114847812Y-61265431D01*
X114769192Y-61244365D01*
X114769191Y-61244364D01*
X114769184Y-61244363D01*
X114542503Y-61224532D01*
X114542497Y-61224532D01*
X114315815Y-61244363D01*
X114095999Y-61303262D01*
X113889776Y-61399426D01*
X113889762Y-61399434D01*
X113703369Y-61529946D01*
X113703367Y-61529947D01*
X113542447Y-61690867D01*
X113542446Y-61690869D01*
X113411934Y-61877262D01*
X113411926Y-61877276D01*
X113361948Y-61984454D01*
X113320220Y-62029203D01*
X113260159Y-62040877D01*
X113204706Y-62015019D01*
X113182499Y-61984454D01*
X113132633Y-61877516D01*
X113132633Y-61877515D01*
X113052403Y-61762937D01*
X112470519Y-62344822D01*
X112468425Y-62337007D01*
X112402599Y-62222993D01*
X112309507Y-62129901D01*
X112195493Y-62064075D01*
X112187674Y-62061979D01*
X112769560Y-61480094D01*
X112654984Y-61399866D01*
X112448823Y-61303733D01*
X112229097Y-61244857D01*
X112002503Y-61225034D01*
X112002497Y-61225034D01*
X111775902Y-61244857D01*
X111556176Y-61303733D01*
X111350018Y-61399865D01*
X111235438Y-61480094D01*
X111817324Y-62061980D01*
X111809507Y-62064075D01*
X111695493Y-62129901D01*
X111602401Y-62222993D01*
X111536575Y-62337007D01*
X111534480Y-62344824D01*
X110952594Y-61762938D01*
X110872364Y-61877519D01*
X110872362Y-61877522D01*
X110822499Y-61984455D01*
X110780771Y-62029203D01*
X110720710Y-62040877D01*
X110665257Y-62015019D01*
X110643051Y-61984455D01*
X110593068Y-61877266D01*
X110521036Y-61774393D01*
X110462553Y-61690869D01*
X110462552Y-61690867D01*
X110462548Y-61690863D01*
X110462547Y-61690861D01*
X110301639Y-61529953D01*
X110301635Y-61529950D01*
X110301632Y-61529947D01*
X110301630Y-61529946D01*
X110115237Y-61399434D01*
X110115236Y-61399433D01*
X110115234Y-61399432D01*
X110115228Y-61399429D01*
X110115223Y-61399426D01*
X109908999Y-61303262D01*
X109909000Y-61303262D01*
X109767812Y-61265431D01*
X109689192Y-61244365D01*
X109689191Y-61244364D01*
X109689184Y-61244363D01*
X109462503Y-61224532D01*
X109462497Y-61224532D01*
X109235815Y-61244363D01*
X109015999Y-61303262D01*
X108809776Y-61399426D01*
X108809762Y-61399434D01*
X108623369Y-61529946D01*
X108623367Y-61529947D01*
X108462447Y-61690867D01*
X108462446Y-61690869D01*
X108331934Y-61877262D01*
X108331926Y-61877276D01*
X108235762Y-62083499D01*
X108176863Y-62303315D01*
X108157032Y-62529996D01*
X108157032Y-62530003D01*
X108176863Y-62756684D01*
X108176864Y-62756691D01*
X108176865Y-62756692D01*
X108179761Y-62767500D01*
X108235762Y-62976500D01*
X108331926Y-63182723D01*
X108331934Y-63182737D01*
X108462446Y-63369130D01*
X108462447Y-63369132D01*
X108462450Y-63369135D01*
X108462453Y-63369139D01*
X108623361Y-63530047D01*
X108623364Y-63530049D01*
X108623367Y-63530052D01*
X108623369Y-63530053D01*
X108708758Y-63589842D01*
X108809766Y-63660568D01*
X108809769Y-63660569D01*
X108809770Y-63660570D01*
X108824298Y-63667344D01*
X108924840Y-63714227D01*
X108969587Y-63755954D01*
X108982000Y-63803951D01*
X108982000Y-64123138D01*
X108963093Y-64181329D01*
X108916271Y-64215346D01*
X108916587Y-64216193D01*
X108913279Y-64217426D01*
X108782488Y-64277157D01*
X108782480Y-64277161D01*
X108709349Y-64324159D01*
X108709336Y-64324168D01*
X108600686Y-64418313D01*
X108600669Y-64418331D01*
X108543739Y-64484032D01*
X108543730Y-64484044D01*
X108466009Y-64604981D01*
X108466005Y-64604988D01*
X108466004Y-64604991D01*
X108431749Y-64680000D01*
X108429880Y-64684092D01*
X108389375Y-64822040D01*
X108389374Y-64822044D01*
X108377000Y-64908106D01*
X108377000Y-65480004D01*
X108378302Y-65508183D01*
X108378303Y-65508187D01*
X108403900Y-65598150D01*
X108401639Y-65659294D01*
X108400800Y-65661033D01*
X108400943Y-65661089D01*
X108397629Y-65669642D01*
X108377000Y-65779999D01*
X108377000Y-66351893D01*
X108389374Y-66437955D01*
X108389375Y-66437958D01*
X108429882Y-66575913D01*
X108466004Y-66655009D01*
X108466005Y-66655011D01*
X108466009Y-66655018D01*
X108543730Y-66775955D01*
X108543739Y-66775967D01*
X108600669Y-66841668D01*
X108600686Y-66841686D01*
X108709336Y-66935831D01*
X108709349Y-66935840D01*
X108782480Y-66982838D01*
X108782482Y-66982839D01*
X108782490Y-66982844D01*
X108913275Y-67042572D01*
X108913276Y-67042572D01*
X108913280Y-67042574D01*
X108960252Y-67056365D01*
X108996707Y-67067070D01*
X109139022Y-67087532D01*
X109225976Y-67087533D01*
X109233108Y-67086507D01*
X109247196Y-67085500D01*
X109617804Y-67085500D01*
X109631891Y-67086507D01*
X109639024Y-67087533D01*
X109725978Y-67087532D01*
X109868293Y-67067070D01*
X109930679Y-67048751D01*
X109951719Y-67042574D01*
X109951720Y-67042573D01*
X109951725Y-67042572D01*
X110068054Y-66989445D01*
X110109179Y-66980500D01*
X136041809Y-66980500D01*
X136132169Y-66956287D01*
X136132172Y-66956287D01*
X136145403Y-66952741D01*
X136156387Y-66949799D01*
X136259114Y-66890489D01*
X137052990Y-66096614D01*
X137112299Y-65993886D01*
X137113485Y-65989458D01*
X137113489Y-65989452D01*
X137113487Y-65989452D01*
X137143000Y-65879308D01*
X137143000Y-64330711D01*
X137161907Y-64272520D01*
X137197055Y-64242501D01*
X137374110Y-64152287D01*
X137374697Y-64151861D01*
X137468525Y-64083691D01*
X137539719Y-64031966D01*
X137684466Y-63887219D01*
X137774204Y-63763704D01*
X137804785Y-63721613D01*
X137804787Y-63721610D01*
X137897720Y-63539219D01*
X137960977Y-63344534D01*
X137960978Y-63344529D01*
X137993000Y-63142355D01*
X137993000Y-62737644D01*
X137960978Y-62535470D01*
X137959201Y-62530000D01*
X137897720Y-62340781D01*
X137804787Y-62158390D01*
X137804785Y-62158386D01*
X137682180Y-61989634D01*
X137683276Y-61988837D01*
X137661917Y-61937258D01*
X137676207Y-61877764D01*
X137722736Y-61838032D01*
X137760613Y-61830500D01*
X144765047Y-61830500D01*
X144823238Y-61849407D01*
X144859202Y-61898907D01*
X144859202Y-61960093D01*
X144842685Y-61989584D01*
X144843202Y-61989960D01*
X144720638Y-62158653D01*
X144627743Y-62340972D01*
X144564508Y-62535587D01*
X144532500Y-62737684D01*
X144532500Y-62739999D01*
X144532501Y-62740000D01*
X145264924Y-62740000D01*
X145232500Y-62861009D01*
X145232500Y-63018991D01*
X145264924Y-63140000D01*
X144532501Y-63140000D01*
X144532500Y-63140001D01*
X144532500Y-63142315D01*
X144564508Y-63344412D01*
X144627743Y-63539027D01*
X144720638Y-63721346D01*
X144840914Y-63886891D01*
X144985608Y-64031585D01*
X145151153Y-64151861D01*
X145333472Y-64244756D01*
X145528087Y-64307991D01*
X145632499Y-64324527D01*
X145632500Y-64324526D01*
X145632500Y-63507575D01*
X145753509Y-63540000D01*
X145911491Y-63540000D01*
X146032500Y-63507575D01*
X146032500Y-64324527D01*
X146136912Y-64307991D01*
X146331527Y-64244756D01*
X146513846Y-64151861D01*
X146679391Y-64031585D01*
X146824085Y-63886891D01*
X146944361Y-63721346D01*
X147037256Y-63539027D01*
X147100491Y-63344412D01*
X147132500Y-63142315D01*
X147132500Y-63140001D01*
X147132499Y-63140000D01*
X146400076Y-63140000D01*
X146432500Y-63018991D01*
X146432500Y-62861009D01*
X146400076Y-62740000D01*
X147132499Y-62740000D01*
X147132500Y-62739999D01*
X147132500Y-62737684D01*
X147100491Y-62535587D01*
X147037256Y-62340972D01*
X146944361Y-62158653D01*
X146824085Y-61993108D01*
X146679391Y-61848414D01*
X146513846Y-61728138D01*
X146331527Y-61635243D01*
X146136912Y-61572008D01*
X146076181Y-61562390D01*
X146021665Y-61534613D01*
X145993887Y-61480096D01*
X146003458Y-61419664D01*
X146021661Y-61394608D01*
X146706774Y-60709496D01*
X146761291Y-60681719D01*
X146776778Y-60680500D01*
X148192267Y-60680500D01*
X148192269Y-60680500D01*
X148280731Y-60669877D01*
X148421509Y-60614361D01*
X148542089Y-60522922D01*
X148590598Y-60458954D01*
X148640824Y-60424012D01*
X148701997Y-60425266D01*
X148748365Y-60458955D01*
X148796599Y-60522561D01*
X148796602Y-60522564D01*
X148917071Y-60613919D01*
X149057723Y-60669386D01*
X149146102Y-60679999D01*
X149146109Y-60680000D01*
X149739166Y-60680000D01*
X149739167Y-60679999D01*
X149739167Y-59841879D01*
X149746174Y-59845925D01*
X149873341Y-59880000D01*
X150004993Y-59880000D01*
X150132160Y-59845925D01*
X150139167Y-59841879D01*
X150139167Y-60679999D01*
X150139168Y-60680000D01*
X150553664Y-60680000D01*
X150611855Y-60698907D01*
X150647819Y-60748407D01*
X150647819Y-60805070D01*
X150648794Y-60805311D01*
X150647819Y-60809267D01*
X150647819Y-60809593D01*
X150647551Y-60810354D01*
X150647359Y-60811130D01*
X150627626Y-60973651D01*
X150626855Y-60980000D01*
X150647360Y-61148872D01*
X150693112Y-61269514D01*
X150705911Y-61303262D01*
X150707682Y-61307930D01*
X150714434Y-61317712D01*
X150714474Y-61317769D01*
X150732000Y-61374010D01*
X150732000Y-62852389D01*
X150713093Y-62910580D01*
X150703004Y-62922393D01*
X144874893Y-68750504D01*
X144820376Y-68778281D01*
X144804889Y-68779500D01*
X138310111Y-68779500D01*
X138251920Y-68760593D01*
X138240107Y-68750504D01*
X137846816Y-68357213D01*
X137159114Y-67669511D01*
X137159111Y-67669509D01*
X137159110Y-67669508D01*
X137159109Y-67669507D01*
X137056390Y-67610202D01*
X137056386Y-67610200D01*
X137032173Y-67603712D01*
X137032173Y-67603713D01*
X136941809Y-67579500D01*
X119143191Y-67579500D01*
X119098008Y-67591606D01*
X119052825Y-67603713D01*
X119052824Y-67603712D01*
X119028612Y-67610201D01*
X119028609Y-67610202D01*
X118925890Y-67669507D01*
X118925889Y-67669508D01*
X110055631Y-76539764D01*
X110001114Y-76567541D01*
X109943789Y-76559485D01*
X109908996Y-76543261D01*
X109908994Y-76543260D01*
X109700183Y-76487310D01*
X109689192Y-76484365D01*
X109689191Y-76484364D01*
X109689184Y-76484363D01*
X109462503Y-76464532D01*
X109462497Y-76464532D01*
X109235815Y-76484363D01*
X109015999Y-76543262D01*
X108809776Y-76639426D01*
X108809762Y-76639434D01*
X108623369Y-76769946D01*
X108623367Y-76769947D01*
X108462447Y-76930867D01*
X108462446Y-76930869D01*
X108331934Y-77117262D01*
X108331926Y-77117276D01*
X108235762Y-77323499D01*
X108176863Y-77543315D01*
X108157032Y-77769996D01*
X108157032Y-77770003D01*
X108176863Y-77996684D01*
X108176864Y-77996691D01*
X108176865Y-77996692D01*
X108213623Y-78133875D01*
X108235762Y-78216500D01*
X108331926Y-78422723D01*
X108331934Y-78422737D01*
X108462446Y-78609130D01*
X108462447Y-78609132D01*
X108462450Y-78609135D01*
X108462453Y-78609139D01*
X108623361Y-78770047D01*
X108623364Y-78770049D01*
X108623367Y-78770052D01*
X108623369Y-78770053D01*
X108747631Y-78857061D01*
X108809766Y-78900568D01*
X108809772Y-78900571D01*
X108809776Y-78900573D01*
X108957078Y-78969261D01*
X109002607Y-78990492D01*
X109016000Y-78996737D01*
X109016004Y-78996739D01*
X109235808Y-79055635D01*
X109235812Y-79055635D01*
X109235815Y-79055636D01*
X109462497Y-79075468D01*
X109462500Y-79075468D01*
X109462503Y-79075468D01*
X109689184Y-79055636D01*
X109689185Y-79055635D01*
X109689192Y-79055635D01*
X109908996Y-78996739D01*
X110115234Y-78900568D01*
X110301639Y-78770047D01*
X110462547Y-78609139D01*
X110593068Y-78422734D01*
X110611899Y-78382352D01*
X110642776Y-78316137D01*
X110684504Y-78271389D01*
X110744565Y-78259714D01*
X110800018Y-78285572D01*
X110822224Y-78316137D01*
X110871926Y-78422723D01*
X110871934Y-78422737D01*
X111002446Y-78609130D01*
X111002447Y-78609132D01*
X111002450Y-78609135D01*
X111002453Y-78609139D01*
X111163361Y-78770047D01*
X111163364Y-78770049D01*
X111163367Y-78770052D01*
X111163369Y-78770053D01*
X111287631Y-78857061D01*
X111349766Y-78900568D01*
X111349772Y-78900571D01*
X111349776Y-78900573D01*
X111497078Y-78969261D01*
X111542607Y-78990492D01*
X111556000Y-78996737D01*
X111556004Y-78996739D01*
X111775808Y-79055635D01*
X111775812Y-79055635D01*
X111775815Y-79055636D01*
X112002497Y-79075468D01*
X112002500Y-79075468D01*
X112002503Y-79075468D01*
X112229184Y-79055636D01*
X112229185Y-79055635D01*
X112229192Y-79055635D01*
X112448996Y-78996739D01*
X112655234Y-78900568D01*
X112841639Y-78770047D01*
X113002547Y-78609139D01*
X113133068Y-78422734D01*
X113151899Y-78382352D01*
X113182776Y-78316137D01*
X113224504Y-78271389D01*
X113284565Y-78259714D01*
X113340018Y-78285572D01*
X113362224Y-78316137D01*
X113411926Y-78422723D01*
X113411934Y-78422737D01*
X113542446Y-78609130D01*
X113542447Y-78609132D01*
X113542450Y-78609135D01*
X113542453Y-78609139D01*
X113703361Y-78770047D01*
X113703364Y-78770049D01*
X113703367Y-78770052D01*
X113703369Y-78770053D01*
X113827631Y-78857061D01*
X113889766Y-78900568D01*
X113889772Y-78900571D01*
X113889776Y-78900573D01*
X114037078Y-78969261D01*
X114082607Y-78990492D01*
X114096000Y-78996737D01*
X114096004Y-78996739D01*
X114315808Y-79055635D01*
X114315812Y-79055635D01*
X114315815Y-79055636D01*
X114542497Y-79075468D01*
X114542500Y-79075468D01*
X114542503Y-79075468D01*
X114769184Y-79055636D01*
X114769185Y-79055635D01*
X114769192Y-79055635D01*
X114988996Y-78996739D01*
X115195234Y-78900568D01*
X115381639Y-78770047D01*
X115542547Y-78609139D01*
X115673068Y-78422734D01*
X115691899Y-78382352D01*
X115722776Y-78316137D01*
X115764504Y-78271389D01*
X115824565Y-78259714D01*
X115880018Y-78285572D01*
X115902224Y-78316137D01*
X115951926Y-78422723D01*
X115951934Y-78422737D01*
X116082446Y-78609130D01*
X116082447Y-78609132D01*
X116082450Y-78609135D01*
X116082453Y-78609139D01*
X116243361Y-78770047D01*
X116243364Y-78770049D01*
X116243367Y-78770052D01*
X116243369Y-78770053D01*
X116367631Y-78857061D01*
X116429766Y-78900568D01*
X116429772Y-78900571D01*
X116429776Y-78900573D01*
X116577078Y-78969261D01*
X116622607Y-78990492D01*
X116636000Y-78996737D01*
X116636004Y-78996739D01*
X116855808Y-79055635D01*
X116855812Y-79055635D01*
X116855815Y-79055636D01*
X117082497Y-79075468D01*
X117082500Y-79075468D01*
X117082503Y-79075468D01*
X117309184Y-79055636D01*
X117309185Y-79055635D01*
X117309192Y-79055635D01*
X117528996Y-78996739D01*
X117735234Y-78900568D01*
X117921639Y-78770047D01*
X118082547Y-78609139D01*
X118213068Y-78422734D01*
X118231899Y-78382352D01*
X118262776Y-78316137D01*
X118304504Y-78271389D01*
X118364565Y-78259714D01*
X118420018Y-78285572D01*
X118442224Y-78316137D01*
X118491926Y-78422723D01*
X118491934Y-78422737D01*
X118622446Y-78609130D01*
X118622447Y-78609132D01*
X118622450Y-78609135D01*
X118622453Y-78609139D01*
X118783361Y-78770047D01*
X118783364Y-78770049D01*
X118783367Y-78770052D01*
X118783369Y-78770053D01*
X118907631Y-78857061D01*
X118969766Y-78900568D01*
X118969772Y-78900571D01*
X118969776Y-78900573D01*
X119117078Y-78969261D01*
X119162607Y-78990492D01*
X119176000Y-78996737D01*
X119176004Y-78996739D01*
X119395808Y-79055635D01*
X119395812Y-79055635D01*
X119395815Y-79055636D01*
X119622497Y-79075468D01*
X119622500Y-79075468D01*
X119622503Y-79075468D01*
X119849184Y-79055636D01*
X119849185Y-79055635D01*
X119849192Y-79055635D01*
X120068996Y-78996739D01*
X120275234Y-78900568D01*
X120461639Y-78770047D01*
X120622547Y-78609139D01*
X120753068Y-78422734D01*
X120771899Y-78382352D01*
X120802776Y-78316137D01*
X120844504Y-78271389D01*
X120904565Y-78259714D01*
X120960018Y-78285572D01*
X120982224Y-78316137D01*
X121031926Y-78422723D01*
X121031934Y-78422737D01*
X121162446Y-78609130D01*
X121162447Y-78609132D01*
X121162450Y-78609135D01*
X121162453Y-78609139D01*
X121323361Y-78770047D01*
X121323364Y-78770049D01*
X121323367Y-78770052D01*
X121323369Y-78770053D01*
X121447631Y-78857061D01*
X121509766Y-78900568D01*
X121509772Y-78900571D01*
X121509776Y-78900573D01*
X121657078Y-78969261D01*
X121702607Y-78990492D01*
X121716000Y-78996737D01*
X121716004Y-78996739D01*
X121935808Y-79055635D01*
X121935812Y-79055635D01*
X121935815Y-79055636D01*
X122162497Y-79075468D01*
X122162500Y-79075468D01*
X122162503Y-79075468D01*
X122389184Y-79055636D01*
X122389185Y-79055635D01*
X122389192Y-79055635D01*
X122608996Y-78996739D01*
X122815234Y-78900568D01*
X123001639Y-78770047D01*
X123162547Y-78609139D01*
X123293068Y-78422734D01*
X123311899Y-78382352D01*
X123342776Y-78316137D01*
X123384504Y-78271389D01*
X123444565Y-78259714D01*
X123500018Y-78285572D01*
X123522224Y-78316137D01*
X123571926Y-78422723D01*
X123571934Y-78422737D01*
X123702446Y-78609130D01*
X123702447Y-78609132D01*
X123702450Y-78609135D01*
X123702453Y-78609139D01*
X123863361Y-78770047D01*
X123863364Y-78770049D01*
X123863367Y-78770052D01*
X123863369Y-78770053D01*
X123987631Y-78857061D01*
X124049766Y-78900568D01*
X124049772Y-78900571D01*
X124049776Y-78900573D01*
X124197078Y-78969261D01*
X124242607Y-78990492D01*
X124256000Y-78996737D01*
X124256004Y-78996739D01*
X124475808Y-79055635D01*
X124475812Y-79055635D01*
X124475815Y-79055636D01*
X124702497Y-79075468D01*
X124702500Y-79075468D01*
X124702503Y-79075468D01*
X124929184Y-79055636D01*
X124929185Y-79055635D01*
X124929192Y-79055635D01*
X125148996Y-78996739D01*
X125355234Y-78900568D01*
X125541639Y-78770047D01*
X125702547Y-78609139D01*
X125833068Y-78422734D01*
X125851899Y-78382352D01*
X125882776Y-78316137D01*
X125924504Y-78271389D01*
X125984565Y-78259714D01*
X126040018Y-78285572D01*
X126062224Y-78316137D01*
X126111926Y-78422723D01*
X126111934Y-78422737D01*
X126242446Y-78609130D01*
X126242447Y-78609132D01*
X126242450Y-78609135D01*
X126242453Y-78609139D01*
X126403361Y-78770047D01*
X126403364Y-78770049D01*
X126403367Y-78770052D01*
X126403369Y-78770053D01*
X126527631Y-78857061D01*
X126589766Y-78900568D01*
X126589772Y-78900571D01*
X126589776Y-78900573D01*
X126737078Y-78969261D01*
X126782607Y-78990492D01*
X126796000Y-78996737D01*
X126796004Y-78996739D01*
X127015808Y-79055635D01*
X127015812Y-79055635D01*
X127015815Y-79055636D01*
X127052032Y-79058804D01*
X127117927Y-79064569D01*
X127134906Y-79067562D01*
X127183191Y-79080500D01*
X127183193Y-79080500D01*
X133891807Y-79080500D01*
X133891809Y-79080500D01*
X133984606Y-79055635D01*
X134006387Y-79049799D01*
X134109114Y-78990489D01*
X135227372Y-77872229D01*
X135281887Y-77844454D01*
X135342319Y-77854025D01*
X135385584Y-77897290D01*
X135395155Y-77957720D01*
X135392000Y-77977641D01*
X135392000Y-78382355D01*
X135424021Y-78584529D01*
X135487280Y-78779219D01*
X135580212Y-78961609D01*
X135580214Y-78961613D01*
X135700529Y-79127213D01*
X135700531Y-79127215D01*
X135700534Y-79127219D01*
X135703813Y-79130498D01*
X135731589Y-79185013D01*
X135722018Y-79245445D01*
X135678753Y-79288710D01*
X135633808Y-79299500D01*
X108441038Y-79299500D01*
X108433977Y-79299248D01*
X108403967Y-79297101D01*
X108202693Y-79282706D01*
X108188712Y-79280695D01*
X107965618Y-79232163D01*
X107952066Y-79228184D01*
X107738136Y-79148394D01*
X107725286Y-79142526D01*
X107524895Y-79033103D01*
X107513013Y-79025467D01*
X107330236Y-78888642D01*
X107319560Y-78879392D01*
X107158107Y-78717939D01*
X107148857Y-78707263D01*
X107012030Y-78524483D01*
X107004396Y-78512604D01*
X106986593Y-78480000D01*
X106894969Y-78312205D01*
X106889105Y-78299363D01*
X106883961Y-78285572D01*
X106841859Y-78172690D01*
X106809315Y-78085433D01*
X106805336Y-78071881D01*
X106761904Y-77872231D01*
X106756803Y-77848786D01*
X106754793Y-77834805D01*
X106750549Y-77775470D01*
X106738252Y-77603523D01*
X106738000Y-77596461D01*
X106738000Y-59882174D01*
X106756907Y-59823983D01*
X106806407Y-59788019D01*
X106867593Y-59788019D01*
X106917093Y-59823983D01*
X106919297Y-59827147D01*
X106931845Y-59845925D01*
X106982979Y-59922453D01*
X106982987Y-59922463D01*
X107079770Y-60032822D01*
X107173173Y-60139327D01*
X107173181Y-60139334D01*
X107173182Y-60139335D01*
X107390036Y-60329512D01*
X107390043Y-60329517D01*
X107390046Y-60329520D01*
X107629889Y-60489778D01*
X107888598Y-60617359D01*
X107990853Y-60652070D01*
X108161740Y-60710079D01*
X108161742Y-60710079D01*
X108161747Y-60710081D01*
X108444661Y-60766356D01*
X108732500Y-60785222D01*
X109020339Y-60766356D01*
X109303253Y-60710081D01*
X109576402Y-60617359D01*
X109835111Y-60489778D01*
X110074954Y-60329520D01*
X110291827Y-60139327D01*
X110482020Y-59922454D01*
X110642278Y-59682611D01*
X110769859Y-59423902D01*
X110792589Y-59356940D01*
X110829198Y-59307916D01*
X110887631Y-59289772D01*
X110945569Y-59309440D01*
G37*
%TD.AperFunction*%
%TA.AperFunction,Conductor*%
G36*
X144962706Y-76949407D02*
G01*
X144998670Y-76998907D01*
X144998670Y-77060093D01*
X144974519Y-77099504D01*
X144840914Y-77233108D01*
X144720638Y-77398653D01*
X144627743Y-77580972D01*
X144564508Y-77775587D01*
X144547972Y-77880000D01*
X145312885Y-77880000D01*
X145273389Y-77948409D01*
X145232500Y-78101009D01*
X145232500Y-78258991D01*
X145273389Y-78411591D01*
X145312885Y-78480000D01*
X144547972Y-78480000D01*
X144564508Y-78584412D01*
X144627743Y-78779027D01*
X144720638Y-78961346D01*
X144840914Y-79126891D01*
X144844519Y-79130496D01*
X144872296Y-79185013D01*
X144862725Y-79245445D01*
X144819460Y-79288710D01*
X144774515Y-79299500D01*
X137751192Y-79299500D01*
X137693001Y-79280593D01*
X137657037Y-79231093D01*
X137657037Y-79169907D01*
X137681186Y-79130498D01*
X137684466Y-79127219D01*
X137764680Y-79016813D01*
X137804785Y-78961613D01*
X137804787Y-78961610D01*
X137897720Y-78779219D01*
X137960977Y-78584534D01*
X137960978Y-78584529D01*
X137993000Y-78382355D01*
X137993000Y-77977644D01*
X137960978Y-77775470D01*
X137959201Y-77770000D01*
X137897720Y-77580781D01*
X137804787Y-77398390D01*
X137804785Y-77398386D01*
X137684470Y-77232786D01*
X137684468Y-77232784D01*
X137684466Y-77232781D01*
X137551186Y-77099501D01*
X137523411Y-77044987D01*
X137532982Y-76984555D01*
X137576247Y-76941290D01*
X137621192Y-76930500D01*
X144904515Y-76930500D01*
X144962706Y-76949407D01*
G37*
%TD.AperFunction*%
%TA.AperFunction,Conductor*%
G36*
X184286191Y-56619407D02*
G01*
X184322155Y-56668907D01*
X184327000Y-56699500D01*
X184327000Y-56992822D01*
X184326855Y-56995221D01*
X184326855Y-57004789D01*
X184327000Y-57007185D01*
X184327000Y-60032822D01*
X184326855Y-60035221D01*
X184326855Y-60044789D01*
X184327000Y-60047185D01*
X184327000Y-60775500D01*
X184308093Y-60833691D01*
X184258593Y-60869655D01*
X184228000Y-60874500D01*
X183768965Y-60874500D01*
X183764756Y-60874625D01*
X183750716Y-60875045D01*
X183738942Y-60875749D01*
X183731307Y-60876435D01*
X183720737Y-60877385D01*
X183720729Y-60877386D01*
X183663203Y-60884294D01*
X183651400Y-60885000D01*
X181913600Y-60885000D01*
X181901797Y-60884294D01*
X181891904Y-60883106D01*
X181844263Y-60877385D01*
X181830310Y-60876131D01*
X181826057Y-60875749D01*
X181814283Y-60875045D01*
X181800594Y-60874636D01*
X181796035Y-60874500D01*
X181331500Y-60874500D01*
X181283714Y-60878261D01*
X181267300Y-60880860D01*
X181253119Y-60883106D01*
X181253114Y-60883106D01*
X181222747Y-60889512D01*
X181222742Y-60889514D01*
X181121341Y-60937689D01*
X181121331Y-60937695D01*
X181071842Y-60973651D01*
X181014579Y-61027824D01*
X180960860Y-61126401D01*
X180960859Y-61126403D01*
X180941951Y-61184595D01*
X180927000Y-61278996D01*
X180927000Y-61279000D01*
X180927000Y-63325500D01*
X180930761Y-63373286D01*
X180932482Y-63384151D01*
X180935606Y-63403880D01*
X180935606Y-63403885D01*
X180942012Y-63434252D01*
X180942014Y-63434257D01*
X180990605Y-63536534D01*
X180998498Y-63597208D01*
X180988115Y-63626388D01*
X180960859Y-63676404D01*
X180941951Y-63734595D01*
X180927000Y-63828996D01*
X180927000Y-65875500D01*
X180908093Y-65933691D01*
X180858593Y-65969655D01*
X180828000Y-65974500D01*
X177431500Y-65974500D01*
X177383714Y-65978261D01*
X177367300Y-65980860D01*
X177353119Y-65983106D01*
X177353114Y-65983106D01*
X177322747Y-65989512D01*
X177322742Y-65989514D01*
X177221341Y-66037689D01*
X177221331Y-66037695D01*
X177171842Y-66073651D01*
X177114579Y-66127824D01*
X177060860Y-66226401D01*
X177060859Y-66226403D01*
X177041951Y-66284595D01*
X177027000Y-66378996D01*
X177027000Y-76075500D01*
X177008093Y-76133691D01*
X176958593Y-76169655D01*
X176928000Y-76174500D01*
X174123798Y-76174500D01*
X174065607Y-76155593D01*
X174029643Y-76106093D01*
X174029643Y-76044907D01*
X174065607Y-75995407D01*
X174088035Y-75983185D01*
X174124915Y-75968897D01*
X174256856Y-75887199D01*
X173736027Y-75366370D01*
X173786894Y-75352741D01*
X173878106Y-75300080D01*
X173952580Y-75225606D01*
X174005241Y-75134394D01*
X174018870Y-75083527D01*
X174539542Y-75604199D01*
X174571742Y-75561561D01*
X174571747Y-75561552D01*
X174662612Y-75379070D01*
X174718402Y-75182989D01*
X174737212Y-74980000D01*
X174718402Y-74777010D01*
X174662612Y-74580929D01*
X174571749Y-74398451D01*
X174571744Y-74398442D01*
X174539541Y-74355800D01*
X174018870Y-74876470D01*
X174005241Y-74825606D01*
X173952580Y-74734394D01*
X173878106Y-74659920D01*
X173786894Y-74607259D01*
X173736025Y-74593629D01*
X174256857Y-74072798D01*
X174124921Y-73991105D01*
X174124915Y-73991102D01*
X173934816Y-73917458D01*
X173734430Y-73880000D01*
X173530570Y-73880000D01*
X173330183Y-73917458D01*
X173140086Y-73991101D01*
X173140081Y-73991104D01*
X173008141Y-74072798D01*
X173528972Y-74593629D01*
X173478106Y-74607259D01*
X173386894Y-74659920D01*
X173312420Y-74734394D01*
X173259759Y-74825606D01*
X173246129Y-74876471D01*
X172725457Y-74355798D01*
X172693254Y-74398442D01*
X172602387Y-74580929D01*
X172546597Y-74777010D01*
X172527787Y-74980000D01*
X172546597Y-75182989D01*
X172602387Y-75379070D01*
X172693250Y-75561548D01*
X172693255Y-75561557D01*
X172725457Y-75604198D01*
X173246129Y-75083526D01*
X173259759Y-75134394D01*
X173312420Y-75225606D01*
X173386894Y-75300080D01*
X173478106Y-75352741D01*
X173528970Y-75366370D01*
X173008141Y-75887200D01*
X173140083Y-75968897D01*
X173176965Y-75983185D01*
X173224396Y-76021837D01*
X173240050Y-76080986D01*
X173217947Y-76138039D01*
X173166531Y-76171205D01*
X173141202Y-76174500D01*
X171327662Y-76174500D01*
X171312580Y-76174955D01*
X171309595Y-76175000D01*
X171155405Y-76175000D01*
X171152420Y-76174955D01*
X171137338Y-76174500D01*
X167777662Y-76174500D01*
X167762580Y-76174955D01*
X167759595Y-76175000D01*
X167605405Y-76175000D01*
X167602420Y-76174955D01*
X167587338Y-76174500D01*
X166627949Y-76174500D01*
X166607527Y-76177642D01*
X166536094Y-76188636D01*
X166536087Y-76188638D01*
X166479314Y-76206536D01*
X166395932Y-76247655D01*
X166363991Y-76270020D01*
X166349047Y-76278647D01*
X166206959Y-76344904D01*
X166190743Y-76350807D01*
X166039299Y-76391386D01*
X166022305Y-76394382D01*
X165866127Y-76408046D01*
X165848870Y-76408046D01*
X165692694Y-76394383D01*
X165675699Y-76391387D01*
X165524254Y-76350807D01*
X165508046Y-76344908D01*
X165365939Y-76278642D01*
X165351004Y-76270019D01*
X165319061Y-76247652D01*
X165235689Y-76206538D01*
X165178919Y-76188639D01*
X165178908Y-76188637D01*
X165107474Y-76177643D01*
X165087051Y-76174500D01*
X164231500Y-76174500D01*
X164183714Y-76178261D01*
X164167300Y-76180860D01*
X164153119Y-76183106D01*
X164153114Y-76183106D01*
X164122747Y-76189512D01*
X164122742Y-76189514D01*
X164021341Y-76237689D01*
X164021331Y-76237695D01*
X163971842Y-76273651D01*
X163914579Y-76327824D01*
X163860860Y-76426401D01*
X163860859Y-76426403D01*
X163841951Y-76484595D01*
X163827000Y-76578996D01*
X163827000Y-76579000D01*
X163827000Y-79181000D01*
X163827923Y-79192733D01*
X163813641Y-79252226D01*
X163767116Y-79291964D01*
X163729229Y-79299500D01*
X146890485Y-79299500D01*
X146832294Y-79280593D01*
X146796330Y-79231093D01*
X146796330Y-79169907D01*
X146820481Y-79130496D01*
X146824085Y-79126891D01*
X146944361Y-78961346D01*
X147037256Y-78779027D01*
X147100491Y-78584412D01*
X147117028Y-78480000D01*
X146352115Y-78480000D01*
X146391611Y-78411591D01*
X146432500Y-78258991D01*
X146432500Y-78101009D01*
X146391611Y-77948409D01*
X146352115Y-77880000D01*
X147117028Y-77880000D01*
X147100491Y-77775587D01*
X147037256Y-77580972D01*
X146944361Y-77398653D01*
X146824085Y-77233108D01*
X146690481Y-77099504D01*
X146662704Y-77044987D01*
X146672275Y-76984555D01*
X146715540Y-76941290D01*
X146760485Y-76930500D01*
X157441809Y-76930500D01*
X157532169Y-76906287D01*
X157532172Y-76906287D01*
X157545403Y-76902741D01*
X157556387Y-76899799D01*
X157659114Y-76840489D01*
X161430108Y-73069496D01*
X161484625Y-73041719D01*
X161500112Y-73040500D01*
X167991790Y-73040500D01*
X168049981Y-73059407D01*
X168079997Y-73094551D01*
X168143532Y-73219247D01*
X168170212Y-73271609D01*
X168170214Y-73271613D01*
X168290529Y-73437213D01*
X168290531Y-73437215D01*
X168290534Y-73437219D01*
X168435281Y-73581966D01*
X168435284Y-73581968D01*
X168435286Y-73581970D01*
X168600886Y-73702285D01*
X168600890Y-73702287D01*
X168783281Y-73795220D01*
X168977966Y-73858477D01*
X168977967Y-73858477D01*
X168977970Y-73858478D01*
X169180145Y-73890500D01*
X169180148Y-73890500D01*
X169584855Y-73890500D01*
X169787029Y-73858478D01*
X169787030Y-73858477D01*
X169787034Y-73858477D01*
X169981719Y-73795220D01*
X170164110Y-73702287D01*
X170329719Y-73581966D01*
X170474466Y-73437219D01*
X170594787Y-73271610D01*
X170687720Y-73089219D01*
X170750977Y-72894534D01*
X170755228Y-72867695D01*
X170783000Y-72692355D01*
X170783000Y-72487644D01*
X170750978Y-72285470D01*
X170750977Y-72285466D01*
X170687720Y-72090781D01*
X170594787Y-71908390D01*
X170594785Y-71908386D01*
X170474470Y-71742786D01*
X170474468Y-71742784D01*
X170474466Y-71742781D01*
X170329719Y-71598034D01*
X170329715Y-71598031D01*
X170329713Y-71598029D01*
X170164113Y-71477714D01*
X170164109Y-71477712D01*
X170071449Y-71430500D01*
X170027701Y-71408209D01*
X169984437Y-71364945D01*
X169974866Y-71304513D01*
X170002643Y-71249997D01*
X170027699Y-71231791D01*
X170164110Y-71162287D01*
X170329719Y-71041966D01*
X170474466Y-70897219D01*
X170594787Y-70731610D01*
X170687720Y-70549219D01*
X170750977Y-70354534D01*
X170783000Y-70152352D01*
X170783000Y-69947648D01*
X170783000Y-69947644D01*
X170750978Y-69745470D01*
X170750977Y-69745466D01*
X170687720Y-69550781D01*
X170594787Y-69368390D01*
X170594785Y-69368386D01*
X170474470Y-69202786D01*
X170474468Y-69202784D01*
X170474466Y-69202781D01*
X170329719Y-69058034D01*
X170329715Y-69058031D01*
X170329713Y-69058029D01*
X170164113Y-68937714D01*
X170164109Y-68937712D01*
X170093347Y-68901657D01*
X170027701Y-68868209D01*
X169984437Y-68824945D01*
X169974866Y-68764513D01*
X170002643Y-68709997D01*
X170027699Y-68691791D01*
X170164110Y-68622287D01*
X170329719Y-68501966D01*
X170474466Y-68357219D01*
X170594787Y-68191610D01*
X170687720Y-68009219D01*
X170750977Y-67814534D01*
X170750978Y-67814529D01*
X170783000Y-67612355D01*
X170783000Y-67407644D01*
X170750978Y-67205470D01*
X170712658Y-67087533D01*
X170687720Y-67010781D01*
X170594787Y-66828390D01*
X170594785Y-66828386D01*
X170474470Y-66662786D01*
X170474468Y-66662784D01*
X170474466Y-66662781D01*
X170329719Y-66518034D01*
X170329715Y-66518031D01*
X170329713Y-66518029D01*
X170164113Y-66397714D01*
X170164109Y-66397712D01*
X170074175Y-66351889D01*
X170027701Y-66328209D01*
X169984437Y-66284945D01*
X169974866Y-66224513D01*
X170002643Y-66169997D01*
X170027699Y-66151791D01*
X170164110Y-66082287D01*
X170193970Y-66060593D01*
X170262101Y-66011093D01*
X170329719Y-65961966D01*
X170474466Y-65817219D01*
X170594787Y-65651610D01*
X170687720Y-65469219D01*
X170750977Y-65274534D01*
X170753163Y-65260732D01*
X170783000Y-65072355D01*
X170783000Y-64867644D01*
X170750978Y-64665470D01*
X170749556Y-64661093D01*
X170687720Y-64470781D01*
X170594787Y-64288390D01*
X170594785Y-64288386D01*
X170474470Y-64122786D01*
X170474468Y-64122784D01*
X170474466Y-64122781D01*
X170329719Y-63978034D01*
X170329715Y-63978031D01*
X170329713Y-63978029D01*
X170164113Y-63857714D01*
X170164109Y-63857712D01*
X170093347Y-63821657D01*
X170027701Y-63788209D01*
X169984437Y-63744945D01*
X169974866Y-63684513D01*
X170002643Y-63629997D01*
X170027699Y-63611791D01*
X170164110Y-63542287D01*
X170172029Y-63536534D01*
X170275288Y-63461512D01*
X170329719Y-63421966D01*
X170474466Y-63277219D01*
X170594787Y-63111610D01*
X170687720Y-62929219D01*
X170750977Y-62734534D01*
X170755115Y-62708409D01*
X170783000Y-62532355D01*
X170783000Y-62327644D01*
X170750978Y-62125470D01*
X170749851Y-62122000D01*
X170687720Y-61930781D01*
X170594787Y-61748390D01*
X170594785Y-61748386D01*
X170474470Y-61582786D01*
X170474468Y-61582784D01*
X170474466Y-61582781D01*
X170329719Y-61438034D01*
X170329715Y-61438031D01*
X170329713Y-61438029D01*
X170164113Y-61317714D01*
X170164109Y-61317712D01*
X169981719Y-61224780D01*
X169787029Y-61161521D01*
X169584855Y-61129500D01*
X169584852Y-61129500D01*
X169180148Y-61129500D01*
X169180145Y-61129500D01*
X168977970Y-61161521D01*
X168783280Y-61224780D01*
X168600890Y-61317712D01*
X168600886Y-61317714D01*
X168435286Y-61438029D01*
X168290529Y-61582786D01*
X168170214Y-61748386D01*
X168170212Y-61748390D01*
X168077280Y-61930780D01*
X168014021Y-62125470D01*
X167982000Y-62327644D01*
X167982000Y-62532355D01*
X168014021Y-62734529D01*
X168077281Y-62929222D01*
X168101634Y-62977019D01*
X168111205Y-63037451D01*
X168083428Y-63091967D01*
X167688824Y-63486571D01*
X167634307Y-63514348D01*
X167573875Y-63504777D01*
X167530610Y-63461512D01*
X167520526Y-63404761D01*
X167525834Y-63360559D01*
X167525835Y-63360558D01*
X167525835Y-62767501D01*
X167525834Y-62767500D01*
X166687715Y-62767500D01*
X166691760Y-62760493D01*
X166725835Y-62633326D01*
X166725835Y-62501674D01*
X166691760Y-62374507D01*
X166687715Y-62367500D01*
X167525834Y-62367500D01*
X167525835Y-62367499D01*
X167525835Y-61774441D01*
X167525834Y-61774435D01*
X167515221Y-61686056D01*
X167459754Y-61545404D01*
X167368399Y-61424935D01*
X167247930Y-61333580D01*
X167107278Y-61278113D01*
X167018899Y-61267500D01*
X166425836Y-61267500D01*
X166425835Y-61267501D01*
X166425835Y-62105620D01*
X166418828Y-62101575D01*
X166291661Y-62067500D01*
X166160009Y-62067500D01*
X166032842Y-62101575D01*
X166025835Y-62105620D01*
X166025835Y-61267501D01*
X166025834Y-61267500D01*
X165432770Y-61267500D01*
X165344391Y-61278113D01*
X165203739Y-61333580D01*
X165083270Y-61424935D01*
X165083265Y-61424940D01*
X165035031Y-61488546D01*
X164984804Y-61523488D01*
X164923632Y-61522234D01*
X164877265Y-61488546D01*
X164828757Y-61424578D01*
X164708177Y-61333139D01*
X164708176Y-61333138D01*
X164708174Y-61333137D01*
X164567400Y-61277623D01*
X164478941Y-61267000D01*
X164478937Y-61267000D01*
X162892733Y-61267000D01*
X162892728Y-61267000D01*
X162804269Y-61277623D01*
X162663495Y-61333137D01*
X162663491Y-61333140D01*
X162542916Y-61424575D01*
X162542913Y-61424578D01*
X162494717Y-61488132D01*
X162444492Y-61523074D01*
X162383319Y-61521820D01*
X162336952Y-61488133D01*
X162288757Y-61424578D01*
X162168177Y-61333139D01*
X162168176Y-61333138D01*
X162168174Y-61333137D01*
X162027400Y-61277623D01*
X161938941Y-61267000D01*
X161938937Y-61267000D01*
X161645335Y-61267000D01*
X161587144Y-61248093D01*
X161551180Y-61198593D01*
X161546335Y-61168000D01*
X161546335Y-60779500D01*
X161565242Y-60721309D01*
X161614742Y-60685345D01*
X161645335Y-60680500D01*
X161938935Y-60680500D01*
X161938937Y-60680500D01*
X162027399Y-60669877D01*
X162168177Y-60614361D01*
X162288757Y-60522922D01*
X162336952Y-60459367D01*
X162387177Y-60424426D01*
X162448350Y-60425679D01*
X162494717Y-60459366D01*
X162542913Y-60522922D01*
X162663493Y-60614361D01*
X162663494Y-60614361D01*
X162663495Y-60614362D01*
X162671095Y-60617359D01*
X162804271Y-60669877D01*
X162892733Y-60680500D01*
X162892735Y-60680500D01*
X164478935Y-60680500D01*
X164478937Y-60680500D01*
X164567399Y-60669877D01*
X164708177Y-60614361D01*
X164828757Y-60522922D01*
X164877266Y-60458954D01*
X164927492Y-60424012D01*
X164988665Y-60425266D01*
X165035033Y-60458955D01*
X165083267Y-60522561D01*
X165083270Y-60522564D01*
X165203739Y-60613919D01*
X165344391Y-60669386D01*
X165432770Y-60679999D01*
X165432777Y-60680000D01*
X166025834Y-60680000D01*
X166025835Y-60679999D01*
X166025835Y-59841879D01*
X166032842Y-59845925D01*
X166160009Y-59880000D01*
X166291661Y-59880000D01*
X166418828Y-59845925D01*
X166425835Y-59841879D01*
X166425835Y-60679999D01*
X166425836Y-60680000D01*
X167018893Y-60680000D01*
X167018899Y-60679999D01*
X167107278Y-60669386D01*
X167247930Y-60613919D01*
X167368399Y-60522564D01*
X167459754Y-60402095D01*
X167515221Y-60261443D01*
X167525834Y-60173064D01*
X167525835Y-60173058D01*
X167525835Y-59580001D01*
X167525834Y-59580000D01*
X166687715Y-59580000D01*
X166691760Y-59572993D01*
X166725835Y-59445826D01*
X166725835Y-59314174D01*
X166691760Y-59187007D01*
X166687715Y-59180000D01*
X167525834Y-59180000D01*
X167525835Y-59179999D01*
X167525835Y-58586941D01*
X167525834Y-58586935D01*
X167515221Y-58498556D01*
X167459754Y-58357904D01*
X167368399Y-58237435D01*
X167247930Y-58146080D01*
X167107278Y-58090613D01*
X167018899Y-58080000D01*
X166425836Y-58080000D01*
X166425835Y-58080001D01*
X166425835Y-58918120D01*
X166418828Y-58914075D01*
X166291661Y-58880000D01*
X166160009Y-58880000D01*
X166032842Y-58914075D01*
X166025835Y-58918120D01*
X166025835Y-58080001D01*
X166025834Y-58080000D01*
X165432770Y-58080000D01*
X165344391Y-58090613D01*
X165203739Y-58146080D01*
X165083270Y-58237435D01*
X165083265Y-58237440D01*
X165035031Y-58301046D01*
X164984804Y-58335988D01*
X164923632Y-58334734D01*
X164877265Y-58301046D01*
X164828757Y-58237078D01*
X164708177Y-58145639D01*
X164708176Y-58145638D01*
X164708174Y-58145637D01*
X164567400Y-58090123D01*
X164478941Y-58079500D01*
X164478937Y-58079500D01*
X162892733Y-58079500D01*
X162892728Y-58079500D01*
X162804269Y-58090123D01*
X162663495Y-58145637D01*
X162663491Y-58145640D01*
X162542916Y-58237075D01*
X162542913Y-58237078D01*
X162494717Y-58300632D01*
X162444492Y-58335574D01*
X162383319Y-58334320D01*
X162336952Y-58300633D01*
X162288757Y-58237078D01*
X162168177Y-58145639D01*
X162168176Y-58145638D01*
X162168174Y-58145637D01*
X162027400Y-58090123D01*
X161938941Y-58079500D01*
X161938937Y-58079500D01*
X161684485Y-58079500D01*
X161626294Y-58060593D01*
X161590330Y-58011093D01*
X161588858Y-58006123D01*
X161565634Y-57919449D01*
X161523215Y-57845978D01*
X161506324Y-57816721D01*
X161059114Y-57369511D01*
X161059111Y-57369509D01*
X161059109Y-57369507D01*
X160956392Y-57310203D01*
X160956389Y-57310202D01*
X160956387Y-57310201D01*
X160928888Y-57302833D01*
X160841809Y-57279500D01*
X153041809Y-57279500D01*
X149891809Y-57279500D01*
X144895143Y-57279500D01*
X136791809Y-57279500D01*
X133341809Y-57279500D01*
X128641809Y-57279500D01*
X124991809Y-57279500D01*
X120491809Y-57279500D01*
X116691809Y-57279500D01*
X112573191Y-57279500D01*
X112503067Y-57298289D01*
X112458609Y-57310202D01*
X112429748Y-57326865D01*
X112429749Y-57326866D01*
X112355887Y-57369510D01*
X111925342Y-57800055D01*
X111866037Y-57902774D01*
X111866036Y-57902777D01*
X111861568Y-57919448D01*
X111861569Y-57919449D01*
X111838345Y-58006123D01*
X111805021Y-58057437D01*
X111747900Y-58079364D01*
X111742718Y-58079500D01*
X111492728Y-58079500D01*
X111404269Y-58090123D01*
X111263495Y-58145637D01*
X111263491Y-58145640D01*
X111142916Y-58237075D01*
X111142908Y-58237083D01*
X111089763Y-58307165D01*
X111039536Y-58342107D01*
X110978364Y-58340853D01*
X110929611Y-58303882D01*
X110913784Y-58266664D01*
X110862581Y-58009247D01*
X110826439Y-57902778D01*
X110797227Y-57816721D01*
X110769859Y-57736098D01*
X110642278Y-57477389D01*
X110482020Y-57237546D01*
X110482017Y-57237543D01*
X110482012Y-57237536D01*
X110291835Y-57020682D01*
X110291834Y-57020681D01*
X110291827Y-57020673D01*
X110268254Y-57000000D01*
X110074963Y-56830487D01*
X110074950Y-56830477D01*
X110002122Y-56781815D01*
X109964243Y-56733765D01*
X109961841Y-56672627D01*
X109995834Y-56621754D01*
X110053237Y-56600576D01*
X110057124Y-56600500D01*
X184228000Y-56600500D01*
X184286191Y-56619407D01*
G37*
%TD.AperFunction*%
%TA.AperFunction,Conductor*%
G36*
X159904688Y-58199407D02*
G01*
X159940652Y-58248907D01*
X159940652Y-58310093D01*
X159925381Y-58339319D01*
X159911475Y-58357656D01*
X159911472Y-58357660D01*
X159855958Y-58498434D01*
X159845335Y-58586893D01*
X159845335Y-60173106D01*
X159855958Y-60261565D01*
X159911472Y-60402339D01*
X159911473Y-60402341D01*
X159911474Y-60402342D01*
X160002913Y-60522922D01*
X160123493Y-60614361D01*
X160123494Y-60614361D01*
X160123495Y-60614362D01*
X160131095Y-60617359D01*
X160264271Y-60669877D01*
X160352733Y-60680500D01*
X160646335Y-60680500D01*
X160704526Y-60699407D01*
X160740490Y-60748907D01*
X160745335Y-60779500D01*
X160745335Y-61168000D01*
X160726428Y-61226191D01*
X160676928Y-61262155D01*
X160646335Y-61267000D01*
X160352728Y-61267000D01*
X160264269Y-61277623D01*
X160123495Y-61333137D01*
X160123491Y-61333140D01*
X160002916Y-61424575D01*
X160002910Y-61424581D01*
X159911475Y-61545156D01*
X159911472Y-61545160D01*
X159855958Y-61685934D01*
X159845335Y-61774393D01*
X159845335Y-63360606D01*
X159855958Y-63449065D01*
X159911472Y-63589839D01*
X159911473Y-63589841D01*
X159911474Y-63589842D01*
X160002913Y-63710422D01*
X160123493Y-63801861D01*
X160123494Y-63801861D01*
X160123495Y-63801862D01*
X160152074Y-63813132D01*
X160264271Y-63857377D01*
X160352733Y-63868000D01*
X160352735Y-63868000D01*
X161938935Y-63868000D01*
X161938937Y-63868000D01*
X162027399Y-63857377D01*
X162168177Y-63801861D01*
X162288757Y-63710422D01*
X162336952Y-63646867D01*
X162387177Y-63611926D01*
X162448350Y-63613179D01*
X162494717Y-63646866D01*
X162542913Y-63710422D01*
X162663493Y-63801861D01*
X162663494Y-63801861D01*
X162663495Y-63801862D01*
X162781294Y-63848316D01*
X162828491Y-63887252D01*
X162843788Y-63946495D01*
X162821342Y-64003414D01*
X162814979Y-64010417D01*
X155224893Y-71600504D01*
X155170376Y-71628281D01*
X155154889Y-71629500D01*
X153559110Y-71629500D01*
X153500919Y-71610593D01*
X153464955Y-71561093D01*
X153464955Y-71499907D01*
X153489104Y-71460498D01*
X159540107Y-65409496D01*
X159594624Y-65381719D01*
X159610111Y-65380500D01*
X159717553Y-65380500D01*
X159717556Y-65380500D01*
X159882725Y-65339790D01*
X160033352Y-65260734D01*
X160160683Y-65147929D01*
X160257318Y-65007930D01*
X160317640Y-64848872D01*
X160338145Y-64680000D01*
X160317640Y-64511128D01*
X160257318Y-64352070D01*
X160160683Y-64212071D01*
X160151833Y-64204231D01*
X160059895Y-64122781D01*
X160033352Y-64099266D01*
X159882725Y-64020210D01*
X159882724Y-64020209D01*
X159882723Y-64020209D01*
X159717558Y-63979500D01*
X159717556Y-63979500D01*
X159547444Y-63979500D01*
X159547441Y-63979500D01*
X159382276Y-64020209D01*
X159231646Y-64099267D01*
X159104318Y-64212069D01*
X159104316Y-64212072D01*
X159038108Y-64307991D01*
X159007682Y-64352070D01*
X158947360Y-64511128D01*
X158942233Y-64553346D01*
X158926855Y-64679997D01*
X158926855Y-64679998D01*
X158928466Y-64693271D01*
X158916708Y-64753316D01*
X158900191Y-64775204D01*
X153024893Y-70650504D01*
X152970376Y-70678281D01*
X152954889Y-70679500D01*
X151609110Y-70679500D01*
X151550919Y-70660593D01*
X151514955Y-70611093D01*
X151514955Y-70549907D01*
X151539104Y-70510498D01*
X155540107Y-66509496D01*
X155594624Y-66481719D01*
X155610111Y-66480500D01*
X155627553Y-66480500D01*
X155627556Y-66480500D01*
X155792725Y-66439790D01*
X155943352Y-66360734D01*
X156070683Y-66247929D01*
X156167318Y-66107930D01*
X156227640Y-65948872D01*
X156248145Y-65780000D01*
X156248144Y-65779995D01*
X156234947Y-65671309D01*
X156227640Y-65611128D01*
X156167318Y-65452070D01*
X156070683Y-65312071D01*
X156056828Y-65299797D01*
X155943353Y-65199267D01*
X155943352Y-65199266D01*
X155792725Y-65120210D01*
X155792724Y-65120209D01*
X155792723Y-65120209D01*
X155627558Y-65079500D01*
X155627556Y-65079500D01*
X155457444Y-65079500D01*
X155457441Y-65079500D01*
X155292276Y-65120209D01*
X155141646Y-65199267D01*
X155014318Y-65312069D01*
X155014316Y-65312072D01*
X154966242Y-65381719D01*
X154917682Y-65452070D01*
X154857360Y-65611128D01*
X154853390Y-65643827D01*
X154836855Y-65779998D01*
X154836855Y-65780001D01*
X154848210Y-65873522D01*
X154836455Y-65933568D01*
X154819936Y-65955459D01*
X151024893Y-69750504D01*
X150970376Y-69778281D01*
X150954889Y-69779500D01*
X145351211Y-69779500D01*
X145293020Y-69760593D01*
X145257056Y-69711093D01*
X145257056Y-69649907D01*
X145293020Y-69600407D01*
X145301710Y-69594764D01*
X145303648Y-69593644D01*
X145309114Y-69590489D01*
X151540513Y-63359089D01*
X151595026Y-63331315D01*
X151655458Y-63340886D01*
X151698723Y-63384151D01*
X151708807Y-63417290D01*
X151712623Y-63449066D01*
X151768137Y-63589839D01*
X151768138Y-63589841D01*
X151768139Y-63589842D01*
X151859578Y-63710422D01*
X151980158Y-63801861D01*
X151980159Y-63801861D01*
X151980160Y-63801862D01*
X152008739Y-63813132D01*
X152120936Y-63857377D01*
X152209398Y-63868000D01*
X152209400Y-63868000D01*
X153795600Y-63868000D01*
X153795602Y-63868000D01*
X153884064Y-63857377D01*
X154024842Y-63801861D01*
X154145422Y-63710422D01*
X154193617Y-63646867D01*
X154243842Y-63611926D01*
X154305015Y-63613179D01*
X154351382Y-63646866D01*
X154399578Y-63710422D01*
X154520158Y-63801861D01*
X154520159Y-63801861D01*
X154520160Y-63801862D01*
X154548739Y-63813132D01*
X154660936Y-63857377D01*
X154749398Y-63868000D01*
X154749400Y-63868000D01*
X156335600Y-63868000D01*
X156335602Y-63868000D01*
X156424064Y-63857377D01*
X156564842Y-63801861D01*
X156685422Y-63710422D01*
X156723230Y-63660565D01*
X156733931Y-63646454D01*
X156784157Y-63611512D01*
X156845330Y-63612766D01*
X156891698Y-63646455D01*
X156939932Y-63710061D01*
X156939935Y-63710064D01*
X157060404Y-63801419D01*
X157201056Y-63856886D01*
X157289435Y-63867499D01*
X157289442Y-63867500D01*
X157882499Y-63867500D01*
X157882500Y-63867499D01*
X157882500Y-63029379D01*
X157889507Y-63033425D01*
X158016674Y-63067500D01*
X158148326Y-63067500D01*
X158275493Y-63033425D01*
X158282500Y-63029379D01*
X158282500Y-63867499D01*
X158282501Y-63867500D01*
X158875558Y-63867500D01*
X158875564Y-63867499D01*
X158963943Y-63856886D01*
X159104595Y-63801419D01*
X159225064Y-63710064D01*
X159316419Y-63589595D01*
X159371886Y-63448943D01*
X159382499Y-63360564D01*
X159382500Y-63360558D01*
X159382500Y-62767501D01*
X159382499Y-62767500D01*
X158544380Y-62767500D01*
X158548425Y-62760493D01*
X158582500Y-62633326D01*
X158582500Y-62501674D01*
X158548425Y-62374507D01*
X158544380Y-62367500D01*
X159382499Y-62367500D01*
X159382500Y-62367499D01*
X159382500Y-61774441D01*
X159382499Y-61774435D01*
X159371886Y-61686056D01*
X159316419Y-61545404D01*
X159225064Y-61424935D01*
X159104595Y-61333580D01*
X158963943Y-61278113D01*
X158875564Y-61267500D01*
X158282501Y-61267500D01*
X158282500Y-61267501D01*
X158282500Y-62105620D01*
X158275493Y-62101575D01*
X158148326Y-62067500D01*
X158016674Y-62067500D01*
X157889507Y-62101575D01*
X157882500Y-62105620D01*
X157882500Y-61267501D01*
X157882499Y-61267500D01*
X157289435Y-61267500D01*
X157201056Y-61278113D01*
X157060404Y-61333580D01*
X156939935Y-61424935D01*
X156939930Y-61424940D01*
X156891696Y-61488546D01*
X156841469Y-61523488D01*
X156780297Y-61522234D01*
X156733930Y-61488546D01*
X156685422Y-61424578D01*
X156564842Y-61333139D01*
X156564841Y-61333138D01*
X156564839Y-61333137D01*
X156424065Y-61277623D01*
X156335606Y-61267000D01*
X156335602Y-61267000D01*
X154749398Y-61267000D01*
X154749393Y-61267000D01*
X154660934Y-61277623D01*
X154520160Y-61333137D01*
X154520156Y-61333140D01*
X154399581Y-61424575D01*
X154399578Y-61424578D01*
X154351382Y-61488132D01*
X154301157Y-61523074D01*
X154239984Y-61521820D01*
X154193617Y-61488133D01*
X154145422Y-61424578D01*
X154024842Y-61333139D01*
X154024841Y-61333138D01*
X154024839Y-61333137D01*
X153884065Y-61277623D01*
X153795606Y-61267000D01*
X153795602Y-61267000D01*
X153552000Y-61267000D01*
X153493809Y-61248093D01*
X153457845Y-61198593D01*
X153453000Y-61168000D01*
X153453000Y-60779500D01*
X153471907Y-60721309D01*
X153521407Y-60685345D01*
X153552000Y-60680500D01*
X153795600Y-60680500D01*
X153795602Y-60680500D01*
X153884064Y-60669877D01*
X154024842Y-60614361D01*
X154145422Y-60522922D01*
X154193617Y-60459367D01*
X154243842Y-60424426D01*
X154305015Y-60425679D01*
X154351382Y-60459366D01*
X154399578Y-60522922D01*
X154520158Y-60614361D01*
X154520159Y-60614361D01*
X154520160Y-60614362D01*
X154527760Y-60617359D01*
X154660936Y-60669877D01*
X154749398Y-60680500D01*
X154749400Y-60680500D01*
X156335600Y-60680500D01*
X156335602Y-60680500D01*
X156424064Y-60669877D01*
X156564842Y-60614361D01*
X156685422Y-60522922D01*
X156733931Y-60458954D01*
X156784157Y-60424012D01*
X156845330Y-60425266D01*
X156891698Y-60458955D01*
X156939932Y-60522561D01*
X156939935Y-60522564D01*
X157060404Y-60613919D01*
X157201056Y-60669386D01*
X157289435Y-60679999D01*
X157289442Y-60680000D01*
X157882499Y-60680000D01*
X157882500Y-60679999D01*
X157882500Y-59841879D01*
X157889507Y-59845925D01*
X158016674Y-59880000D01*
X158148326Y-59880000D01*
X158275493Y-59845925D01*
X158282500Y-59841879D01*
X158282500Y-60679999D01*
X158282501Y-60680000D01*
X158875558Y-60680000D01*
X158875564Y-60679999D01*
X158963943Y-60669386D01*
X159104595Y-60613919D01*
X159225064Y-60522564D01*
X159316419Y-60402095D01*
X159371886Y-60261443D01*
X159382499Y-60173064D01*
X159382500Y-60173058D01*
X159382500Y-59580001D01*
X159382499Y-59580000D01*
X158544380Y-59580000D01*
X158548425Y-59572993D01*
X158582500Y-59445826D01*
X158582500Y-59314174D01*
X158548425Y-59187007D01*
X158544380Y-59180000D01*
X159382499Y-59180000D01*
X159382500Y-59179999D01*
X159382500Y-58586941D01*
X159382499Y-58586935D01*
X159371886Y-58498556D01*
X159316419Y-58357902D01*
X159302327Y-58339319D01*
X159282232Y-58281527D01*
X159299944Y-58222962D01*
X159348697Y-58185992D01*
X159381211Y-58180500D01*
X159846497Y-58180500D01*
X159904688Y-58199407D01*
G37*
%TD.AperFunction*%
%TA.AperFunction,Conductor*%
G36*
X111536575Y-62722993D02*
G01*
X111602401Y-62837007D01*
X111695493Y-62930099D01*
X111809507Y-62995925D01*
X111817322Y-62998019D01*
X111235437Y-63579903D01*
X111350015Y-63660133D01*
X111556176Y-63756266D01*
X111775902Y-63815142D01*
X112002497Y-63834966D01*
X112002503Y-63834966D01*
X112229097Y-63815142D01*
X112448823Y-63756266D01*
X112654983Y-63660133D01*
X112654986Y-63660131D01*
X112769560Y-63579904D01*
X112187675Y-62998019D01*
X112195493Y-62995925D01*
X112309507Y-62930099D01*
X112402599Y-62837007D01*
X112468425Y-62722993D01*
X112470519Y-62715175D01*
X113052404Y-63297060D01*
X113132631Y-63182486D01*
X113132633Y-63182483D01*
X113182499Y-63075545D01*
X113224227Y-63030797D01*
X113284288Y-63019122D01*
X113339741Y-63044979D01*
X113361948Y-63075545D01*
X113411926Y-63182724D01*
X113411934Y-63182737D01*
X113542446Y-63369130D01*
X113542447Y-63369132D01*
X113542450Y-63369135D01*
X113542453Y-63369139D01*
X113703361Y-63530047D01*
X113703364Y-63530049D01*
X113703367Y-63530052D01*
X113703369Y-63530053D01*
X113788758Y-63589842D01*
X113889766Y-63660568D01*
X113889772Y-63660571D01*
X113889776Y-63660573D01*
X114096000Y-63756737D01*
X114096004Y-63756739D01*
X114315808Y-63815635D01*
X114315812Y-63815635D01*
X114315815Y-63815636D01*
X114542497Y-63835468D01*
X114542500Y-63835468D01*
X114542502Y-63835468D01*
X114657067Y-63825444D01*
X114734089Y-63818706D01*
X114793707Y-63832469D01*
X114812722Y-63847325D01*
X116205886Y-65240489D01*
X116264854Y-65274534D01*
X116308614Y-65299799D01*
X116423191Y-65330500D01*
X129728000Y-65330500D01*
X129786191Y-65349407D01*
X129822155Y-65398907D01*
X129827000Y-65429500D01*
X129827000Y-65930004D01*
X129828302Y-65958183D01*
X129829225Y-65963839D01*
X129826541Y-65964276D01*
X129824682Y-66014550D01*
X129786914Y-66062688D01*
X129731722Y-66079500D01*
X110587000Y-66079500D01*
X110528809Y-66060593D01*
X110492845Y-66011093D01*
X110488000Y-65980500D01*
X110488000Y-65779995D01*
X110486697Y-65751816D01*
X110486697Y-65751812D01*
X110461100Y-65661849D01*
X110463360Y-65600706D01*
X110464214Y-65598971D01*
X110464057Y-65598910D01*
X110467371Y-65590356D01*
X110488000Y-65480000D01*
X110488000Y-64908106D01*
X110475625Y-64822044D01*
X110475624Y-64822040D01*
X110448094Y-64728281D01*
X110435118Y-64684087D01*
X110398996Y-64604991D01*
X110398990Y-64604981D01*
X110321269Y-64484044D01*
X110321260Y-64484032D01*
X110264330Y-64418331D01*
X110264313Y-64418313D01*
X110155663Y-64324168D01*
X110155650Y-64324159D01*
X110082519Y-64277161D01*
X110082513Y-64277158D01*
X110082510Y-64277156D01*
X109951725Y-64217428D01*
X109951723Y-64217427D01*
X109951720Y-64217426D01*
X109948413Y-64216193D01*
X109948991Y-64214640D01*
X109903578Y-64183561D01*
X109883039Y-64125926D01*
X109883000Y-64123138D01*
X109883000Y-63831930D01*
X109901907Y-63773739D01*
X109940157Y-63742208D01*
X110115234Y-63660568D01*
X110301639Y-63530047D01*
X110462547Y-63369139D01*
X110593068Y-63182734D01*
X110643052Y-63075542D01*
X110684778Y-63030797D01*
X110744839Y-63019122D01*
X110800292Y-63044979D01*
X110822499Y-63075545D01*
X110872361Y-63182474D01*
X110872366Y-63182484D01*
X110952594Y-63297060D01*
X111534479Y-62715174D01*
X111536575Y-62722993D01*
G37*
%TD.AperFunction*%
%TA.AperFunction,Conductor*%
G36*
X119188021Y-58199407D02*
G01*
X119223985Y-58248907D01*
X119223985Y-58310093D01*
X119208714Y-58339319D01*
X119194808Y-58357656D01*
X119194805Y-58357660D01*
X119139291Y-58498434D01*
X119128668Y-58586893D01*
X119128668Y-60173106D01*
X119139291Y-60261565D01*
X119194805Y-60402339D01*
X119194806Y-60402341D01*
X119194807Y-60402342D01*
X119286246Y-60522922D01*
X119406826Y-60614361D01*
X119406827Y-60614361D01*
X119406828Y-60614362D01*
X119414428Y-60617359D01*
X119547604Y-60669877D01*
X119636066Y-60680500D01*
X120792557Y-60680500D01*
X120850748Y-60699407D01*
X120886712Y-60748907D01*
X120886712Y-60810093D01*
X120862560Y-60849504D01*
X120349755Y-61362307D01*
X120295239Y-61390084D01*
X120237913Y-61382028D01*
X120099986Y-61317712D01*
X120068996Y-61303261D01*
X119849192Y-61244365D01*
X119849191Y-61244364D01*
X119849184Y-61244363D01*
X119622503Y-61224532D01*
X119622497Y-61224532D01*
X119395815Y-61244363D01*
X119175999Y-61303262D01*
X118969776Y-61399426D01*
X118969762Y-61399434D01*
X118783369Y-61529946D01*
X118783367Y-61529947D01*
X118622447Y-61690867D01*
X118622446Y-61690869D01*
X118491934Y-61877262D01*
X118491928Y-61877271D01*
X118442224Y-61983863D01*
X118400496Y-62028611D01*
X118340435Y-62040285D01*
X118284982Y-62014427D01*
X118262776Y-61983863D01*
X118213071Y-61877271D01*
X118213065Y-61877262D01*
X118082553Y-61690869D01*
X118082552Y-61690867D01*
X118082548Y-61690863D01*
X118082547Y-61690861D01*
X117921639Y-61529953D01*
X117921635Y-61529950D01*
X117921632Y-61529947D01*
X117921630Y-61529946D01*
X117735237Y-61399434D01*
X117735236Y-61399433D01*
X117735234Y-61399432D01*
X117735228Y-61399429D01*
X117735223Y-61399426D01*
X117528999Y-61303262D01*
X117529000Y-61303262D01*
X117510978Y-61298433D01*
X117309192Y-61244365D01*
X117279256Y-61241745D01*
X117207856Y-61235498D01*
X117151535Y-61211590D01*
X117146482Y-61206879D01*
X116788607Y-60849004D01*
X116760830Y-60794487D01*
X116770401Y-60734055D01*
X116813666Y-60690790D01*
X116858611Y-60680000D01*
X117165834Y-60680000D01*
X117165835Y-60679999D01*
X117165835Y-59841879D01*
X117172842Y-59845925D01*
X117300009Y-59880000D01*
X117431661Y-59880000D01*
X117558828Y-59845925D01*
X117565835Y-59841879D01*
X117565835Y-60679999D01*
X117565836Y-60680000D01*
X118158893Y-60680000D01*
X118158899Y-60679999D01*
X118247278Y-60669386D01*
X118387930Y-60613919D01*
X118508399Y-60522564D01*
X118599754Y-60402095D01*
X118655221Y-60261443D01*
X118665834Y-60173064D01*
X118665835Y-60173058D01*
X118665835Y-59580001D01*
X118665834Y-59580000D01*
X117827715Y-59580000D01*
X117831760Y-59572993D01*
X117865835Y-59445826D01*
X117865835Y-59314174D01*
X117831760Y-59187007D01*
X117827715Y-59180000D01*
X118665834Y-59180000D01*
X118665835Y-59179999D01*
X118665835Y-58586941D01*
X118665834Y-58586935D01*
X118655221Y-58498556D01*
X118599754Y-58357902D01*
X118585662Y-58339319D01*
X118565567Y-58281527D01*
X118583279Y-58222962D01*
X118632032Y-58185992D01*
X118664546Y-58180500D01*
X119129830Y-58180500D01*
X119188021Y-58199407D01*
G37*
%TD.AperFunction*%
%TA.AperFunction,Conductor*%
G36*
X125709168Y-60679999D02*
G01*
X125709169Y-60680000D01*
X126056388Y-60680000D01*
X126114579Y-60698907D01*
X126150543Y-60748407D01*
X126150543Y-60809593D01*
X126126392Y-60849004D01*
X125543799Y-61431596D01*
X125489282Y-61459373D01*
X125428850Y-61449802D01*
X125417012Y-61442689D01*
X125410357Y-61438029D01*
X125355234Y-61399432D01*
X125355231Y-61399431D01*
X125355229Y-61399429D01*
X125355223Y-61399426D01*
X125148999Y-61303262D01*
X125149000Y-61303262D01*
X125007812Y-61265431D01*
X124929192Y-61244365D01*
X124929191Y-61244364D01*
X124929184Y-61244363D01*
X124702503Y-61224532D01*
X124702497Y-61224532D01*
X124475815Y-61244363D01*
X124255999Y-61303262D01*
X124049776Y-61399426D01*
X124049762Y-61399434D01*
X123863369Y-61529946D01*
X123863367Y-61529947D01*
X123702447Y-61690867D01*
X123702446Y-61690869D01*
X123571934Y-61877262D01*
X123571928Y-61877271D01*
X123522224Y-61983863D01*
X123480496Y-62028611D01*
X123420435Y-62040285D01*
X123364982Y-62014427D01*
X123342776Y-61983863D01*
X123293071Y-61877271D01*
X123293065Y-61877262D01*
X123162553Y-61690869D01*
X123162552Y-61690867D01*
X123162548Y-61690863D01*
X123162547Y-61690861D01*
X123001639Y-61529953D01*
X123001635Y-61529950D01*
X123001632Y-61529947D01*
X123001630Y-61529946D01*
X122815237Y-61399434D01*
X122815236Y-61399433D01*
X122815234Y-61399432D01*
X122815228Y-61399429D01*
X122815223Y-61399426D01*
X122608999Y-61303262D01*
X122609000Y-61303262D01*
X122467812Y-61265431D01*
X122389192Y-61244365D01*
X122389191Y-61244364D01*
X122389184Y-61244363D01*
X122162503Y-61224532D01*
X122162497Y-61224532D01*
X121994281Y-61239248D01*
X121934664Y-61225484D01*
X121894523Y-61179307D01*
X121889190Y-61118354D01*
X121915650Y-61070621D01*
X122276777Y-60709496D01*
X122331293Y-60681719D01*
X122346780Y-60680500D01*
X123762268Y-60680500D01*
X123762270Y-60680500D01*
X123850732Y-60669877D01*
X123991510Y-60614361D01*
X124112090Y-60522922D01*
X124160599Y-60458954D01*
X124210825Y-60424012D01*
X124271998Y-60425266D01*
X124318366Y-60458955D01*
X124366600Y-60522561D01*
X124366603Y-60522564D01*
X124487072Y-60613919D01*
X124627724Y-60669386D01*
X124716103Y-60679999D01*
X124716110Y-60680000D01*
X125309167Y-60680000D01*
X125309168Y-60679999D01*
X125309168Y-59841879D01*
X125316175Y-59845925D01*
X125443342Y-59880000D01*
X125574994Y-59880000D01*
X125702161Y-59845925D01*
X125709168Y-59841879D01*
X125709168Y-60679999D01*
G37*
%TD.AperFunction*%
%TA.AperFunction,Conductor*%
G36*
X143618020Y-58199407D02*
G01*
X143653984Y-58248907D01*
X143653984Y-58310093D01*
X143638713Y-58339319D01*
X143624807Y-58357656D01*
X143624804Y-58357660D01*
X143569290Y-58498434D01*
X143558667Y-58586893D01*
X143558667Y-60173106D01*
X143569290Y-60261565D01*
X143624804Y-60402339D01*
X143624805Y-60402341D01*
X143624806Y-60402342D01*
X143716245Y-60522922D01*
X143836825Y-60614361D01*
X143836826Y-60614361D01*
X143836827Y-60614362D01*
X143844427Y-60617359D01*
X143977603Y-60669877D01*
X144066065Y-60680500D01*
X145222556Y-60680500D01*
X145280747Y-60699407D01*
X145316711Y-60748907D01*
X145316711Y-60810093D01*
X145292560Y-60849504D01*
X145241560Y-60900504D01*
X145187043Y-60928281D01*
X145171556Y-60929500D01*
X138582445Y-60929500D01*
X138524254Y-60910593D01*
X138488290Y-60861093D01*
X138488290Y-60799907D01*
X138512441Y-60760496D01*
X138563441Y-60709496D01*
X138617958Y-60681719D01*
X138633445Y-60680500D01*
X140048934Y-60680500D01*
X140048936Y-60680500D01*
X140137398Y-60669877D01*
X140278176Y-60614361D01*
X140398756Y-60522922D01*
X140447265Y-60458954D01*
X140497491Y-60424012D01*
X140558664Y-60425266D01*
X140605032Y-60458955D01*
X140653266Y-60522561D01*
X140653269Y-60522564D01*
X140773738Y-60613919D01*
X140914390Y-60669386D01*
X141002769Y-60679999D01*
X141002776Y-60680000D01*
X141595833Y-60680000D01*
X141595834Y-60679999D01*
X141595834Y-59841879D01*
X141602841Y-59845925D01*
X141730008Y-59880000D01*
X141861660Y-59880000D01*
X141988827Y-59845925D01*
X141995834Y-59841879D01*
X141995834Y-60679999D01*
X141995835Y-60680000D01*
X142588892Y-60680000D01*
X142588898Y-60679999D01*
X142677277Y-60669386D01*
X142817929Y-60613919D01*
X142938398Y-60522564D01*
X143029753Y-60402095D01*
X143085220Y-60261443D01*
X143095833Y-60173064D01*
X143095834Y-60173058D01*
X143095834Y-59580001D01*
X143095833Y-59580000D01*
X142257714Y-59580000D01*
X142261759Y-59572993D01*
X142295834Y-59445826D01*
X142295834Y-59314174D01*
X142261759Y-59187007D01*
X142257714Y-59180000D01*
X143095833Y-59180000D01*
X143095834Y-59179999D01*
X143095834Y-58586941D01*
X143095833Y-58586935D01*
X143085220Y-58498556D01*
X143029753Y-58357902D01*
X143015661Y-58339319D01*
X142995566Y-58281527D01*
X143013278Y-58222962D01*
X143062031Y-58185992D01*
X143094545Y-58180500D01*
X143559829Y-58180500D01*
X143618020Y-58199407D01*
G37*
%TD.AperFunction*%
%TA.AperFunction,Conductor*%
G36*
X127331354Y-58199407D02*
G01*
X127367318Y-58248907D01*
X127367318Y-58310093D01*
X127352047Y-58339319D01*
X127338141Y-58357656D01*
X127338138Y-58357660D01*
X127282624Y-58498434D01*
X127272001Y-58586893D01*
X127272001Y-60173106D01*
X127277476Y-60218696D01*
X127265641Y-60278726D01*
X127220782Y-60320335D01*
X127179182Y-60329500D01*
X126901982Y-60329500D01*
X126843791Y-60310593D01*
X126807827Y-60261093D01*
X126803688Y-60218696D01*
X126809167Y-60173065D01*
X126809168Y-60173058D01*
X126809168Y-59580001D01*
X126809167Y-59580000D01*
X125971048Y-59580000D01*
X125975093Y-59572993D01*
X126009168Y-59445826D01*
X126009168Y-59314174D01*
X125975093Y-59187007D01*
X125971048Y-59180000D01*
X126809167Y-59180000D01*
X126809168Y-59179999D01*
X126809168Y-58586941D01*
X126809167Y-58586935D01*
X126798554Y-58498556D01*
X126743087Y-58357902D01*
X126728995Y-58339319D01*
X126708900Y-58281527D01*
X126726612Y-58222962D01*
X126775365Y-58185992D01*
X126807879Y-58180500D01*
X127273163Y-58180500D01*
X127331354Y-58199407D01*
G37*
%TD.AperFunction*%
%TA.AperFunction,Conductor*%
G36*
X135474687Y-58199407D02*
G01*
X135510651Y-58248907D01*
X135510651Y-58310093D01*
X135495380Y-58339319D01*
X135481474Y-58357656D01*
X135481471Y-58357660D01*
X135425957Y-58498434D01*
X135415334Y-58586893D01*
X135415334Y-60173106D01*
X135420809Y-60218696D01*
X135408974Y-60278726D01*
X135364115Y-60320335D01*
X135322515Y-60329500D01*
X135045315Y-60329500D01*
X134987124Y-60310593D01*
X134951160Y-60261093D01*
X134947021Y-60218696D01*
X134952500Y-60173065D01*
X134952501Y-60173058D01*
X134952501Y-59580001D01*
X134952500Y-59580000D01*
X134114381Y-59580000D01*
X134118426Y-59572993D01*
X134152501Y-59445826D01*
X134152501Y-59314174D01*
X134118426Y-59187007D01*
X134114381Y-59180000D01*
X134952500Y-59180000D01*
X134952501Y-59179999D01*
X134952501Y-58586941D01*
X134952500Y-58586935D01*
X134941887Y-58498556D01*
X134886420Y-58357902D01*
X134872328Y-58339319D01*
X134852233Y-58281527D01*
X134869945Y-58222962D01*
X134918698Y-58185992D01*
X134951212Y-58180500D01*
X135416496Y-58180500D01*
X135474687Y-58199407D01*
G37*
%TD.AperFunction*%
%TA.AperFunction,Conductor*%
G36*
X151761353Y-58199407D02*
G01*
X151797317Y-58248907D01*
X151797317Y-58310093D01*
X151782046Y-58339319D01*
X151768140Y-58357656D01*
X151768137Y-58357660D01*
X151712623Y-58498434D01*
X151702000Y-58586893D01*
X151702000Y-60173111D01*
X151706765Y-60212791D01*
X151694930Y-60272821D01*
X151650070Y-60314429D01*
X151589321Y-60321723D01*
X151584779Y-60320716D01*
X151417558Y-60279500D01*
X151417556Y-60279500D01*
X151337899Y-60279500D01*
X151279708Y-60260593D01*
X151243744Y-60211093D01*
X151239259Y-60176019D01*
X151239167Y-60176019D01*
X151239167Y-60175301D01*
X151239076Y-60174590D01*
X151239167Y-60173068D01*
X151239167Y-59580001D01*
X151239166Y-59580000D01*
X150401047Y-59580000D01*
X150405092Y-59572993D01*
X150439167Y-59445826D01*
X150439167Y-59314174D01*
X150405092Y-59187007D01*
X150401047Y-59180000D01*
X151239166Y-59180000D01*
X151239167Y-59179999D01*
X151239167Y-58586941D01*
X151239166Y-58586935D01*
X151228553Y-58498556D01*
X151173086Y-58357902D01*
X151158994Y-58339319D01*
X151138899Y-58281527D01*
X151156611Y-58222962D01*
X151205364Y-58185992D01*
X151237878Y-58180500D01*
X151703162Y-58180500D01*
X151761353Y-58199407D01*
G37*
%TD.AperFunction*%
%TD*%
%TA.AperFunction,Conductor*%
%TO.N,Board_0-/OUT_A2*%
G36*
X185112579Y-40585044D02*
G01*
X185127662Y-40585500D01*
X187387338Y-40585500D01*
X187402420Y-40585045D01*
X187405405Y-40585000D01*
X187559595Y-40585000D01*
X187562579Y-40585044D01*
X187577662Y-40585500D01*
X189737338Y-40585500D01*
X189752420Y-40585045D01*
X189755405Y-40585000D01*
X189909595Y-40585000D01*
X189912579Y-40585044D01*
X189927662Y-40585500D01*
X190163000Y-40585500D01*
X190221191Y-40604407D01*
X190257155Y-40653907D01*
X190262000Y-40684500D01*
X190262000Y-43931000D01*
X190243093Y-43989191D01*
X190193593Y-44025155D01*
X190163000Y-44030000D01*
X187761917Y-44030000D01*
X187736296Y-44026627D01*
X187709186Y-44019363D01*
X187709188Y-44019363D01*
X187482503Y-43999532D01*
X187482497Y-43999532D01*
X187255812Y-44019363D01*
X187228704Y-44026627D01*
X187203083Y-44030000D01*
X185182500Y-44030000D01*
X183228805Y-44030000D01*
X183198213Y-44025155D01*
X183187031Y-44021522D01*
X182984855Y-43989500D01*
X182984852Y-43989500D01*
X182580148Y-43989500D01*
X182580145Y-43989500D01*
X182377968Y-44021522D01*
X182366787Y-44025155D01*
X182336195Y-44030000D01*
X181781500Y-44030000D01*
X181723309Y-44011093D01*
X181687345Y-43961593D01*
X181682500Y-43931000D01*
X181682500Y-41579000D01*
X181701407Y-41520809D01*
X181750907Y-41484845D01*
X181781500Y-41480000D01*
X182379791Y-41480000D01*
X182395278Y-41481219D01*
X182580145Y-41510500D01*
X182580148Y-41510500D01*
X182984855Y-41510500D01*
X183169722Y-41481219D01*
X183185209Y-41480000D01*
X184457499Y-41480000D01*
X184457500Y-41480000D01*
X184457500Y-40684500D01*
X184476407Y-40626309D01*
X184525907Y-40590345D01*
X184556500Y-40585500D01*
X184937338Y-40585500D01*
X184952420Y-40585045D01*
X184955405Y-40585000D01*
X185109595Y-40585000D01*
X185112579Y-40585044D01*
G37*
%TD.AperFunction*%
%TD*%
%TA.AperFunction,Conductor*%
%TO.N,Board_1-/VM*%
G36*
X180933000Y-66298907D02*
G01*
X180964227Y-66336513D01*
X180990191Y-66391162D01*
X180990192Y-66391164D01*
X180990194Y-66391167D01*
X180990195Y-66391168D01*
X180994950Y-66397713D01*
X181026155Y-66440662D01*
X181080323Y-66497919D01*
X181080324Y-66497920D01*
X181178901Y-66551639D01*
X181178903Y-66551640D01*
X181237096Y-66570548D01*
X181237093Y-66570548D01*
X181331497Y-66585500D01*
X181331500Y-66585500D01*
X182243857Y-66585500D01*
X182243864Y-66585500D01*
X182291652Y-66581739D01*
X182322244Y-66576894D01*
X182368860Y-66565703D01*
X182442105Y-66541904D01*
X182457195Y-66538281D01*
X182596494Y-66516219D01*
X182611981Y-66515000D01*
X182953019Y-66515000D01*
X182968506Y-66516219D01*
X183107804Y-66538282D01*
X183122902Y-66541907D01*
X183196126Y-66565699D01*
X183196132Y-66565700D01*
X183196140Y-66565703D01*
X183242756Y-66576894D01*
X183273348Y-66581739D01*
X183321136Y-66585500D01*
X184028000Y-66585500D01*
X184086191Y-66604407D01*
X184122155Y-66653907D01*
X184127000Y-66684500D01*
X184127000Y-67481000D01*
X184130761Y-67528786D01*
X184131281Y-67532072D01*
X184132500Y-67547555D01*
X184132500Y-68375500D01*
X184113593Y-68433691D01*
X184064093Y-68469655D01*
X184033500Y-68474500D01*
X183185209Y-68474500D01*
X183168086Y-68475172D01*
X183161233Y-68475442D01*
X183145746Y-68476661D01*
X183132230Y-68478261D01*
X183121930Y-68479480D01*
X183121924Y-68479481D01*
X182968504Y-68503781D01*
X182953017Y-68505000D01*
X182611983Y-68505000D01*
X182596496Y-68503781D01*
X182506420Y-68489514D01*
X182443070Y-68479480D01*
X182430333Y-68477972D01*
X182419253Y-68476661D01*
X182403766Y-68475442D01*
X182398231Y-68475224D01*
X182379791Y-68474500D01*
X181781500Y-68474500D01*
X181733714Y-68478261D01*
X181717300Y-68480860D01*
X181703119Y-68483106D01*
X181703114Y-68483106D01*
X181672747Y-68489512D01*
X181672742Y-68489514D01*
X181571341Y-68537689D01*
X181571331Y-68537695D01*
X181521842Y-68573651D01*
X181464579Y-68627824D01*
X181410860Y-68726401D01*
X181410859Y-68726403D01*
X181391951Y-68784595D01*
X181377000Y-68878996D01*
X181377000Y-68879000D01*
X181377000Y-71231000D01*
X181380761Y-71278786D01*
X181384483Y-71302289D01*
X181385606Y-71309380D01*
X181385606Y-71309385D01*
X181392012Y-71339752D01*
X181392014Y-71339757D01*
X181440605Y-71442034D01*
X181448498Y-71502708D01*
X181438115Y-71531888D01*
X181410859Y-71581904D01*
X181391951Y-71640095D01*
X181377000Y-71734496D01*
X181377000Y-71734500D01*
X181377000Y-73781000D01*
X181380761Y-73828786D01*
X181384483Y-73852289D01*
X181385606Y-73859380D01*
X181385606Y-73859385D01*
X181392012Y-73889752D01*
X181392014Y-73889757D01*
X181440189Y-73991158D01*
X181440195Y-73991168D01*
X181459481Y-74017713D01*
X181476155Y-74040662D01*
X181530323Y-74097919D01*
X181530324Y-74097920D01*
X181628901Y-74151639D01*
X181628903Y-74151640D01*
X181687096Y-74170548D01*
X181687093Y-74170548D01*
X181781497Y-74185500D01*
X181781500Y-74185500D01*
X182305411Y-74185500D01*
X182305418Y-74185500D01*
X182353204Y-74181739D01*
X182383797Y-74176894D01*
X182430418Y-74165702D01*
X182442101Y-74161904D01*
X182457199Y-74158280D01*
X182585034Y-74138034D01*
X182596494Y-74136219D01*
X182611980Y-74135000D01*
X182953020Y-74135000D01*
X182968506Y-74136218D01*
X183107797Y-74158280D01*
X183122901Y-74161907D01*
X183134578Y-74165701D01*
X183134576Y-74165701D01*
X183134583Y-74165702D01*
X183134584Y-74165703D01*
X183181203Y-74176894D01*
X183199996Y-74179870D01*
X183211776Y-74181736D01*
X183211778Y-74181736D01*
X183211796Y-74181739D01*
X183259582Y-74185500D01*
X183864950Y-74185500D01*
X183923141Y-74204407D01*
X183934954Y-74214496D01*
X184298004Y-74577546D01*
X184325781Y-74632063D01*
X184327000Y-74647550D01*
X184327000Y-75297822D01*
X184326855Y-75300221D01*
X184326855Y-75309789D01*
X184327000Y-75312185D01*
X184327000Y-78472822D01*
X184326855Y-78475221D01*
X184326855Y-78484789D01*
X184327000Y-78487185D01*
X184327000Y-79181000D01*
X184308093Y-79239191D01*
X184258593Y-79275155D01*
X184228000Y-79280000D01*
X164231500Y-79280000D01*
X164173309Y-79261093D01*
X164137345Y-79211593D01*
X164132500Y-79181000D01*
X164132500Y-76579000D01*
X164151407Y-76520809D01*
X164200907Y-76484845D01*
X164231500Y-76480000D01*
X165087051Y-76480000D01*
X165143833Y-76497902D01*
X165204766Y-76540568D01*
X165204769Y-76540569D01*
X165204770Y-76540570D01*
X165204776Y-76540573D01*
X165411000Y-76636737D01*
X165411004Y-76636739D01*
X165630808Y-76695635D01*
X165630812Y-76695635D01*
X165630815Y-76695636D01*
X165857497Y-76715468D01*
X165857500Y-76715468D01*
X165857503Y-76715468D01*
X166084184Y-76695636D01*
X166084185Y-76695635D01*
X166084192Y-76695635D01*
X166303996Y-76636739D01*
X166510234Y-76540568D01*
X166571166Y-76497902D01*
X166627949Y-76480000D01*
X167587338Y-76480000D01*
X167595611Y-76480500D01*
X167597444Y-76480500D01*
X167769389Y-76480500D01*
X167777662Y-76480000D01*
X171137338Y-76480000D01*
X171145611Y-76480500D01*
X171147444Y-76480500D01*
X171319389Y-76480500D01*
X171327662Y-76480000D01*
X177332499Y-76480000D01*
X177332500Y-76480000D01*
X177332500Y-66379000D01*
X177351407Y-66320809D01*
X177400907Y-66284845D01*
X177431500Y-66280000D01*
X180874809Y-66280000D01*
X180933000Y-66298907D01*
G37*
%TD.AperFunction*%
%TD*%
M02*
